<svg xmlns="http://www.w3.org/2000/svg" xmlns:xlink="http://www.w3.org/1999/xlink" width="1920" height="1089.83" viewBox="0 0 1920 1089.83"><defs><style>.cls-1{fill:none;}.cls-2{fill:#84e3f2;}.cls-3{fill:#eddfdd;}.cls-4{fill:#e5afa8;}.cls-5{fill:#a7af89;}.cls-6{clip-path:url(#clip-path);}.cls-7{fill:#191717;}.cls-8{fill:#774e4a;}.cls-9{fill:#787c5d;}.cls-10{fill:#ad6f64;}.cls-11{fill:#774c46;}.cls-12{opacity:0.2;}.cls-13{fill:#fff;}.cls-14{fill:#070707;}.cls-15{fill:#98b250;}.cls-16{fill:#f29985;}.cls-17{fill:#d89785;}.cls-18{fill:#bd6751;}</style><clipPath id="clip-path"><rect class="cls-1" x="2223.51" y="303.7" width="1920" height="1080"/></clipPath></defs><g id="Layer_3" data-name="Layer 3"><rect class="cls-2" width="1920" height="1089.83"/><rect class="cls-3" x="-18.26" y="350.96" width="1956.52" height="231.23"/><polygon class="cls-4" points="516.57 651.67 280.95 680.12 45.33 708.58 135.52 465.68 225.72 222.78 371.14 437.22 516.57 651.67"/><ellipse class="cls-5" cx="950.7" cy="680.28" rx="905.37" ry="240.92"/><g class="cls-6"><path class="cls-7" d="M1857.32,794.24c10-4.11,472.68-156.54,485.22-201.67,0,0,295.05,163.37,365.25,166.77l43.41-63.17s151.58,106.5,251.87,111.51l247-34.59,153,22.47,185.43-52.7s194.21,99.92,249.37,84.88l130.37-20.06,188,42.62,309.91-11.48-6.55,629.84H1846.05Z"/><path class="cls-8" d="M1796,799.76c10-4.11,534-162.06,546.56-207.19,0,0,180.51,203.79,250.71,207.19L2751.2,696.17s90.25,112,190.54,117l308.37-40.11,82.74,26.67,255.72-56.9s132.88,105.44,188,90.4L3907,813.2l188,42.62,309.91-11.48-6.55,629.84H1784.72Z"/><path class="cls-9" d="M4288.08,1084.11c0-67-289.44-123.69-598.49-183.49-181.12-35-264,13.79-509.24,13.79-111.2,0-263.41-16.08-370.12-7.52-96.34,7.72-309.41,42.92-397.68,55.88-397.59,58.37-572.24,48.89-572.24,121.34,0,106.36,582,192.57,1245.81,192.57S4288.08,1190.47,4288.08,1084.11Z"/><path class="cls-10" d="M1910.77,532l22-80.92L2187,612.2l99.31,62.68s64.33,226,112.71,238.54c0,0-34.16,103.9-31.62,141.51l146.31,172.26-398,81.73s-333.57-378.31-333.57-393.36S1910.77,532,1910.77,532Z"/><path class="cls-11" d="M1809.24,543.82l123.49-92.76,152.78,173,99.31,62.67s91.67,215.62,140,228.15c0,0-2.55,117.84,0,155.44L2412.22,1239l-398,81.72s-333.58-378.31-333.58-393.35S1809.24,543.82,1809.24,543.82Z"/></g><g class="cls-12"><path d="M954.28,355.41l.43.09-4,2.47Z"/><path d="M951.81,357.18H952l-1.26.78Z"/></g><g class="cls-12"><path class="cls-13" d="M964.16,354.17l.43.08-4,2.48Z"/><path class="cls-13" d="M961.7,355.93l.15,0-1.26.78Z"/></g><g class="cls-12"><path d="M755.08,460.71l.43.08-4,2.48Z"/><path d="M752.61,462.47l.15,0-1.26.78Z"/></g><path class="cls-14" d="M1064.15,709.14h0a.23.23,0,0,1-.18.11l0,0-.14.13c-.06.05-.18,0-.17-.07l0-.16s0,0-.09,0-.21-.16-.16-.26l0,0a.07.07,0,0,0,0-.09l-.19-.09,0,0c0-.13.17-.2.29-.11h0c.06,0,.1,0,.08-.1l-.07-.16c0-.07.07-.13.15-.08l.16.17s.13-.05.16-.1l0-.13c0-.06.21-.08.24,0v.27h0a.16.16,0,0,0,.26,0l.09-.12s.14,0,.16,0a0,0,0,0,1,0,.05l-.1.15a.15.15,0,0,0,.1.16h.18c.09,0,.1.11,0,.14l-.2.07-.19,0-.13,0-.08,0,0,.07A.18.18,0,0,0,1064.15,709.14Z"/><path class="cls-14" d="M1077.8,710.45h0a.25.25,0,0,1-.16-.13.08.08,0,0,0,0,0l-.16-.1c-.07,0-.06-.16,0-.17l.17,0s0,0,0-.1.08-.25.2-.23h0a.07.07,0,0,0,.07-.06l0-.21a.05.05,0,0,1,0,0c.11-.06.24.1.18.24h0c0,.06.08.09.12,0l.13-.11c.06,0,.14,0,.12.11l-.11.21s.09.11.14.11h.13c.08,0,.15.17.09.21l-.26.1h0a.16.16,0,0,0,.06.25l.14,0c.06,0,.09.11,0,.15l0,0-.17-.05s-.13.09-.12.15l.06.16c0,.1-.07.14-.12.07l-.13-.17a1.2,1.2,0,0,0-.11-.17.44.44,0,0,1-.08-.11s0-.07,0-.07l-.07,0A.31.31,0,0,0,1077.8,710.45Z"/><ellipse class="cls-15" cx="976.72" cy="920.64" rx="905.37" ry="240.92"/><ellipse class="cls-16" cx="99.3" cy="633.05" rx="132.58" ry="258.27" transform="translate(-100.6 24.24) rotate(-9.26)"/><ellipse class="cls-17" cx="137.22" cy="865.57" rx="170.74" ry="258.27" transform="translate(-137.53 33.37) rotate(-9.26)"/><ellipse class="cls-16" cx="1802.45" cy="599.55" rx="264.12" ry="147.82" transform="translate(525.21 2005.59) rotate(-66.15)"/><ellipse class="cls-17" cx="1802.45" cy="822.92" rx="264.12" ry="147.82" transform="translate(320.92 2138.63) rotate(-66.15)"/><rect class="cls-18" x="-16.76" y="893.59" width="425.94" height="222.62"/><rect class="cls-18" x="1631.8" y="893.59" width="307.96" height="196.24"/></g></svg>
