<svg xmlns="http://www.w3.org/2000/svg" width="1920" height="1089.83" viewBox="0 0 1920 1089.83"><defs><style>.cls-1{fill:#84e3f2;}.cls-2{fill:#eddfdd;}.cls-3{fill:#a7af89;}.cls-4{fill:#e5afa8;}.cls-5{fill:#f29985;}.cls-6{fill:#98b250;}.cls-7{fill:#d89785;}.cls-8{fill:#b26d5d;}.cls-9{fill:#bd6751;}.cls-10{opacity:0.2;}.cls-11{fill:#fff;}.cls-12{fill:#070707;}</style></defs><g id="Layer_3" data-name="Layer 3"><rect class="cls-1" width="1920" height="1089.83"/><path class="cls-2" d="M3.71,555.49c7.34-3,390.72-118.58,399.9-151.6,0,0,132.07,149.1,183.44,151.6l115.56-75.8s66,82,139.42,85.63L1067.66,536l60.53,19.52,187.11-41.64S1412.52,591,1452.88,580l95.39-14.67,137.58,31.18,226.75-8.4-4.79,460.84H-4.54Z"/><path class="cls-3" d="M1829.8,721.24c0-49.06-211.78-90.5-437.9-134.25-132.52-25.65-193.12,10.08-372.6,10.08-81.36,0-192.72-11.76-270.8-5.5-70.49,5.65-226.39,31.41-291,40.89-290.9,42.71-418.69,35.77-418.69,88.78,0,77.82,425.83,140.9,911.53,140.9S1829.8,799.06,1829.8,721.24Z"/><path class="cls-4" d="M168.66,516.72,386.27,387.4l31.65,118.86,31.38,51.37S466,772.56,485.19,788.21c0,0,56.53,53.88,49.53,73.93L432.45,888l-198-32.62s-69-259.83-65.71-267.66S168.66,516.72,168.66,516.72Z"/><path class="cls-5" d="M22.55,421.33l90.35-67.87L224.69,480l72.66,45.86s67.07,157.76,102.47,166.93c0,0-1.86,86.22,0,113.74L463.73,930,172.52,989.8S-71.55,713-71.55,702,22.55,421.33,22.55,421.33Z"/><path class="cls-5" d="M1920,353.16l-80.11-58.8-72.65,154L1707,519.14s-14.44,158.27-48.46,182.15c0,0-138.86,131.54-131,154.56l137.2,30.34,265.7-25s48.26-340.5,44.34-349.36S1920,353.16,1920,353.16Z"/><path class="cls-6" d="M1809.63,944.27c-8-41.42-72.61-106.28-255.79-141.38-74.47-14.27-139.23-9.55-229.3-17.66-82-7.39-183.58-.35-312.88,3-140,3.61-442.89-14.17-565.8,19.22C227.68,866.69,248.1,894.13,248.1,944.27c0,74.94,379.72,221.83,795.21,177.36C1464.38,1076.56,1852.28,1166.1,1809.63,944.27Z"/><path class="cls-7" d="M23.55,717.52s335.22-6.51,358.75-13l73.51-8.67s-35.29,101.9-20.58,121.41L520.5,1031.9l-226.86,52.59S11.78,849.78,5.9,843.27,8.84,734.71,8.84,734.71Z"/><path class="cls-8" d="M1588.53,559.94s303.19-9.86,324.46-19.71l27.83,1.64s6.75,139.58,20,169.14l-38.56,336.65-86.57-42.7S1646.55,771.25,1641.23,761.4s-13.85-99.65-13.85-99.65Z"/><path class="cls-9" d="M-.47,769.18,149.94,900.49,198.57,944l135.87,101.34,200.74-12,56.87,61.26h913.52L1711,1038.14s111.9-32.66,133.91-77.41l81-75v208.82H-6Z"/><g class="cls-10"><path d="M954.28,355.41l.43.09-4,2.47Z"/><path d="M951.81,357.18H952l-1.26.78Z"/></g><g class="cls-10"><path class="cls-11" d="M964.16,354.17l.43.08-4,2.48Z"/><path class="cls-11" d="M961.7,355.93l.15,0-1.26.78Z"/></g><g class="cls-10"><path d="M755.08,460.71l.43.08-4,2.48Z"/><path d="M752.61,462.47l.15,0-1.26.78Z"/></g><path class="cls-12" d="M1064.15,709.14h0a.23.23,0,0,1-.18.11l0,0-.14.13c-.06.05-.18,0-.17-.07l0-.16s0,0-.09,0-.21-.16-.16-.26l0,0a.07.07,0,0,0,0-.09l-.19-.09,0,0c0-.13.17-.2.29-.11h0c.06,0,.1,0,.08-.1l-.07-.16c0-.07.07-.13.15-.08l.16.17s.13-.05.16-.1l0-.13c0-.06.21-.08.24,0v.27h0a.16.16,0,0,0,.26,0l.09-.12s.14,0,.16,0a0,0,0,0,1,0,.05l-.1.15a.15.15,0,0,0,.1.16h.18c.09,0,.1.11,0,.14l-.2.07-.19,0-.13,0-.08,0,0,.07A.18.18,0,0,0,1064.15,709.14Z"/><path class="cls-12" d="M1077.8,710.45h0a.25.25,0,0,1-.16-.13.08.08,0,0,0,0,0l-.16-.1c-.07,0-.06-.16,0-.17l.17,0s0,0,0-.1.08-.25.2-.23h0a.07.07,0,0,0,.07-.06l0-.21a.05.05,0,0,1,0,0c.11-.06.24.1.18.24h0c0,.06.08.09.12,0l.13-.11c.06,0,.14,0,.12.11l-.11.21s.09.11.14.11h.13c.08,0,.15.17.09.21l-.26.1h0a.16.16,0,0,0,.06.25l.14,0c.06,0,.09.11,0,.15l0,0-.17-.05s-.13.09-.12.15l.06.16c0,.1-.07.14-.12.07l-.13-.17a1.2,1.2,0,0,0-.11-.17.44.44,0,0,1-.08-.11s0-.07,0-.07l-.07,0A.31.31,0,0,0,1077.8,710.45Z"/></g></svg>
