<svg xmlns="http://www.w3.org/2000/svg" width="1920" height="1089.83" viewBox="0 0 1920 1089.83"><defs><style>.cls-1{fill:#84e3f2;}.cls-2{fill:#d8bcba;}.cls-3{fill:#eddfdd;}.cls-4{fill:#caa;}.cls-5{fill:#d3b5b2;}.cls-6{fill:#f1f9cf;}.cls-7{fill:#a7af89;}.cls-8{fill:#c4a29d;}.cls-9{fill:#996874;}.cls-10{fill:#e5afa8;}.cls-11{fill:#d3847f;}.cls-12{fill:#f29985;}.cls-13{fill:#e27b6a;}.cls-14{fill:#ce7c6e;}.cls-15{fill:#c9dd52;}.cls-16{fill:#98b250;}.cls-17{fill:#e8c1b8;}.cls-18{fill:#d89785;}.cls-19{fill:#b26d5d;}.cls-20{fill:#bd6751;}.cls-21{opacity:0.3;}.cls-22{opacity:0.2;}.cls-23{fill:#fff;}.cls-24{fill:#070707;}</style></defs><g id="Layer_3" data-name="Layer 3"><rect class="cls-1" width="1920" height="1089.83"/><path class="cls-2" d="M48.58,551.45c7.34-3,345.85-114.54,355-147.56,0,0,215.88,119.53,267.24,122l31.76-46.22s110.92,77.92,184.29,81.59L1067.66,536l112,16.44,135.67-38.56S1457.4,587,1497.76,576l95.38-14.67,137.58,31.18,226.76-8.4-4.79,460.84H40.34Z"/><path class="cls-3" d="M3.71,555.49c7.34-3,390.72-118.58,399.9-151.6,0,0,132.07,149.1,183.44,151.6l115.56-75.8s66,82,139.42,85.63L1067.66,536l60.53,19.52,187.11-41.64S1412.52,591,1452.88,580l95.39-14.67,137.58,31.18,226.75-8.4-4.79,460.84H-4.54Z"/><path class="cls-4" d="M148.67,580.33c6.89-3,324.56-114.53,333.17-147.55,0,0,202.6,119.53,250.8,122l29.8-46.23s104.09,77.93,172.95,81.6L1105,564.85,1210.1,581.3l127.32-38.56s133.35,73.11,171.22,62.1l89.52-14.67,129.11,31.18,212.8-8.4-4.5,460.83H140.93Z"/><path class="cls-5" d="M106.56,584.37c6.88-3,366.67-118.57,375.28-151.59,0,0,124,149.1,172.15,151.59l108.45-75.8s62,82,130.83,85.64L1105,564.85l56.81,19.52,175.59-41.63s91.24,77.15,129.11,66.14l89.52-14.67,129.11,31.18L1898,617l-4.5,460.83H98.82Z"/><path class="cls-6" d="M406.54,639.19c8.3,3.14-23.66-23.75-23.66-23.75l13.05,4.67,24.48-4.67,11.5.19,31.82-1.21L483,610.19l19.88,8.36,16-13.26,24.57,6.38,12.77-17.09s29.8,5.39,34.69,4.71,39.9-6.19,39.9-6.19,9.58-6.78,17.2-2.75,8.11-1.78,8.11-1.78l41.42,3.15,23.17-14.1s12.52,1.88,17.42,5.85,11.91.74,21.72.86,38.73-2.65,43.63-.18,21.67-8.6,26.56-6.53,34.66,8.6,34.66,8.6,14.24,2.08,20.83,2.37,43-.2,48.81.38S959,584.84,959,584.84l41.93,5.51,26.59,1.69,45-4.45s15.29-7.29,22-2.75,57.11-8.13,57.11-8.13,7,8.35,9.38,8.13,34.68-13.59,34.68-13.59,26,7.51,30.84,7,31.34-3.06,31.34-3.06a37.05,37.05,0,0,1,16.23-4.87c9.79-.68,22.36.74,28.89,2.81s13.68,1.61,18.57-2.86,32.33,7.14,32.33,7.14,14.37,1.5,19.27,0,29.79,7.41,29.79,7.41L1426,583.6l29.41,14.53,42.82,4.6s18.24,1,24.77,4,23.44-9.2,36.49,5.7,4.9,34.26,22.85,31.28,34.1-21.65,53-19.48,5,20.72,15.59,19.79S406.54,639.19,406.54,639.19Z"/><path class="cls-7" d="M1829.8,721.24c0-49.06-211.78-90.5-437.9-134.25-132.52-25.65-193.12,10.08-372.6,10.08-81.36,0-192.72-11.76-270.8-5.5-70.49,5.65-226.39,31.41-291,40.89-290.9,42.71-418.69,35.77-418.69,88.78,0,77.82,425.83,140.9,911.53,140.9S1829.8,799.06,1829.8,721.24Z"/><path class="cls-8" d="M1655.34,633.7c-.33-.1-1.88,1.73-4.85,3.24-6.93,5.18-9.73,5.32-12.08,6.76,0-1.26,1.1-3.17.67-4.38,9.16-4.68,8.34-.76,11.26-8.26-.37,0-1.17,2.91-1.76,1.66-1.78,5-3,1.66-9.47,5.74l-.62,0c.68-5-3.09-3,4.09-8.53-.29-.16-1.54,1-1.82.85-5.11,4.34-2.87,2.87-3.41,7.79l-.45,0c-.28.52-.74.5-3.86-1.1-.37.24-6.36-3.13-6.73-2.88,3,1.57,6.12,3.12,9.29,4.59.15.39.32.78.48,1.17-5.08-.68-2.81-.18-7.6-1.85-.2.18,7.37,2.74-5.17-.22,5.09,1.77,7.67,2,12.94,2.74a20.24,20.24,0,0,1,0,4.19c-4.81-1.93-6.37-1.87-6.37-1.87,1.56-.06-6.35.32-6.31.54,5.19-.2,8.66-.46,12.75,2.29a14.29,14.29,0,0,1-1.23,5.45c-4.39-2.07-1.49-.52-12-4.09-.46.19-5.35-2.51-5.81-2.32,4.21,3.94,16.37,4.86,16.86,7.87-8.69,7.74-6.09,11.54-8.92,14.92l4.23-.2c-.27-10,8.57-11.21,8.77-22.46C1644.81,641.7,1650.91,638.84,1655.34,633.7Z"/><path class="cls-8" d="M1642.06,635.3c-.33-.1-1.88,1.73-4.85,3.24-6.94,5.18-9.73,5.32-12.08,6.76,0-1.26,1.1-3.17.67-4.38,9.16-4.68,8.33-.76,11.26-8.27-.37,0-1.17,2.92-1.76,1.67-1.79,5-3.06,1.65-9.47,5.74l-.63.05c.69-5.05-3.09-3,4.09-8.54-.28-.15-1.53,1-1.82.85-5.1,4.34-2.86,2.88-3.41,7.8l-.45,0c-.27.52-.73.5-3.85-1.11-.37.25-6.36-3.12-6.73-2.87,3,1.56,6.12,3.12,9.28,4.58.16.4.33.79.48,1.18-5.08-.68-2.8-.18-7.59-1.85-.21.18,7.37,2.74-5.17-.22,5.09,1.76,7.66,1.95,12.94,2.74a20.15,20.15,0,0,1,0,4.18c-4.81-1.92-6.37-1.86-6.37-1.86,1.56-.06-6.35.32-6.32.54,5.2-.2,8.67-.46,12.76,2.29a14.43,14.43,0,0,1-1.23,5.44c-4.39-2.07-1.49-.51-12-4.08-.46.18-5.36-2.51-5.81-2.32,4.2,3.93,16.36,4.86,16.86,7.87-8.69,7.74-6.1,11.54-8.92,14.91l4.23-.19c-.27-10,8.57-11.21,8.77-22.46C1631.53,643.3,1637.63,640.43,1642.06,635.3Z"/><path class="cls-8" d="M1623,636.53c-.33-.1-1.88,1.74-4.85,3.25-6.93,5.17-9.73,5.32-12.08,6.76,0-1.26,1.1-3.17.67-4.39,9.16-4.68,8.34-.75,11.27-8.26-.37,0-1.17,2.92-1.77,1.66-1.78,5-3,1.66-9.47,5.74l-.62.05c.68-5.05-3.09-3,4.09-8.53-.28-.16-1.54,1-1.82.85-5.11,4.34-2.86,2.87-3.41,7.8l-.45,0c-.28.52-.74.5-3.86-1.1-.37.25-6.35-3.12-6.72-2.88,3,1.57,6.11,3.13,9.28,4.59.15.39.33.78.48,1.18-5.08-.68-2.81-.19-7.6-1.85-.2.17,7.37,2.73-5.17-.22,5.09,1.76,7.67,1.94,12.94,2.74a18.85,18.85,0,0,1,.05,4.18c-4.8-1.92-6.36-1.86-6.36-1.86,1.56-.06-6.36.31-6.32.54,5.19-.2,8.67-.47,12.76,2.28a14.45,14.45,0,0,1-1.24,5.45c-4.39-2.07-1.49-.52-12-4.09-.45.19-5.35-2.51-5.8-2.32,4.2,3.94,16.36,4.87,16.85,7.87-8.69,7.74-6.09,11.54-8.92,14.92l4.24-.2c-.28-10,8.56-11.2,8.77-22.45C1612.44,644.53,1618.54,641.67,1623,636.53Z"/><path class="cls-8" d="M1619.05,624.56c-.33-.1-1.88,1.74-4.85,3.25-6.93,5.18-9.73,5.32-12.08,6.76,0-1.26,1.1-3.17.67-4.39,9.16-4.68,8.33-.75,11.26-8.26-.37,0-1.17,2.92-1.76,1.66-1.78,5-3.06,1.66-9.47,5.74l-.63,0c.69-5-3.08-3,4.1-8.53-.29-.16-1.54,1-1.82.85-5.11,4.34-2.87,2.87-3.41,7.8l-.45,0c-.28.52-.74.51-3.86-1.1-.37.25-6.36-3.12-6.73-2.88,3,1.57,6.12,3.13,9.29,4.59.15.4.32.78.47,1.18-5.08-.68-2.8-.19-7.59-1.85-.2.18,7.37,2.73-5.17-.22,5.09,1.76,7.67,1.94,12.94,2.74a20.15,20.15,0,0,1,0,4.18c-4.81-1.92-6.37-1.86-6.37-1.86,1.56-.06-6.35.32-6.31.54,5.19-.2,8.66-.47,12.75,2.29a14.24,14.24,0,0,1-1.23,5.44c-4.39-2.07-1.49-.52-12-4.09-.46.19-5.35-2.51-5.81-2.32,4.21,3.94,16.37,4.87,16.86,7.87-8.69,7.75-6.1,11.55-8.92,14.92l4.23-.19c-.27-10,8.57-11.21,8.77-22.46C1608.52,632.56,1614.62,629.7,1619.05,624.56Z"/><path class="cls-8" d="M1603.87,637.94c-.33-.11-1.88,1.73-4.85,3.24-6.93,5.18-9.73,5.32-12.08,6.76,0-1.26,1.1-3.17.67-4.38,9.16-4.68,8.34-.76,11.26-8.27-.37,0-1.17,2.92-1.76,1.67-1.78,5-3,1.65-9.47,5.74l-.62,0c.68-5-3.09-3,4.09-8.54-.29-.15-1.54,1-1.82.85-5.11,4.34-2.87,2.87-3.41,7.8l-.45,0c-.28.52-.74.5-3.86-1.11-.37.25-6.35-3.12-6.73-2.87,3.05,1.56,6.12,3.12,9.29,4.58.15.4.32.79.48,1.18-5.08-.68-2.81-.18-7.6-1.85-.2.18,7.37,2.74-5.17-.22,5.09,1.76,7.67,2,12.94,2.74a20.15,20.15,0,0,1,0,4.18c-4.81-1.92-6.36-1.86-6.36-1.86,1.55-.06-6.36.32-6.32.54,5.19-.2,8.66-.46,12.75,2.29a14.24,14.24,0,0,1-1.23,5.44c-4.39-2.07-1.49-.51-12-4.08-.46.18-5.35-2.51-5.8-2.32,4.2,3.93,16.36,4.86,16.85,7.87-8.69,7.74-6.09,11.54-8.92,14.91l4.24-.19c-.28-10,8.56-11.21,8.76-22.46C1593.34,645.93,1599.45,643.07,1603.87,637.94Z"/><path class="cls-8" d="M1569.25,643.49c9.15-4.68,8.33-.76,11.26-8.26-.37-.05-1.17,2.91-1.76,1.66-1.79,5-3.06,1.65-9.48,5.74l-.62,0c.69-5-3.09-3,4.09-8.53-.28-.16-1.53,1-1.82.85-5.1,4.34-2.86,2.87-3.41,7.79l-.45.05c-.27.52-.73.5-3.85-1.1-.38.24-6.36-3.13-6.73-2.88,3,1.57,6.12,3.12,9.28,4.59.16.39.33.78.48,1.17-5.08-.68-2.8-.18-7.6-1.85-.2.18,7.37,2.74-5.16-.22,5.08,1.77,7.66,2,12.94,2.74a20.24,20.24,0,0,1,0,4.19c-4.81-1.93-6.37-1.87-6.37-1.87,1.56-.06-6.36.32-6.32.54,5.2-.2,8.67-.46,12.76,2.29a14.48,14.48,0,0,1-1.23,5.45c-4.4-2.07-1.5-.52-12-4.09-.45.19-5.35-2.51-5.8-2.32,4.2,3.94,16.36,4.86,16.86,7.87-8.7,7.74-6.1,11.54-8.92,14.92l4.23-.2c-.27-10,8.56-11.21,8.77-22.46,6.53-3.74,12.63-6.6,17.06-11.74-.34-.1-1.88,1.73-4.85,3.24-6.94,5.18-9.74,5.32-12.09,6.76"/><path class="cls-8" d="M1628.54,643.25c-.34-.11-1.88,1.73-4.85,3.24-6.94,5.18-9.73,5.32-12.08,6.76,0-1.26,1.09-3.17.67-4.38,9.15-4.68,8.33-.76,11.26-8.27-.37,0-1.17,2.92-1.76,1.67-1.79,5-3.06,1.65-9.48,5.74l-.62,0c.69-5-3.09-3,4.09-8.54-.28-.15-1.53,1-1.82.85-5.1,4.34-2.86,2.87-3.41,7.8l-.45.05c-.27.52-.73.5-3.85-1.11-.37.25-6.36-3.12-6.73-2.87,3,1.56,6.12,3.12,9.28,4.58.16.4.33.79.48,1.18-5.08-.68-2.8-.18-7.6-1.85-.2.18,7.38,2.74-5.16-.22,5.08,1.76,7.66,2,12.94,2.74a20.15,20.15,0,0,1,0,4.18c-4.81-1.92-6.37-1.86-6.37-1.86,1.56-.06-6.35.32-6.32.54,5.2-.2,8.67-.46,12.76,2.29a14.43,14.43,0,0,1-1.23,5.44c-4.39-2.07-1.49-.51-12-4.08-.46.18-5.36-2.51-5.81-2.32,4.2,3.93,16.36,4.86,16.86,7.87-8.7,7.74-6.1,11.54-8.92,14.91l4.23-.19c-.27-10,8.57-11.21,8.77-22.46C1618,651.24,1624.11,648.38,1628.54,643.25Z"/><path class="cls-8" d="M1600.51,648.2c-1.78,5-3.06,1.66-9.47,5.75l-.63,0c.69-5.06-3.08-3,4.09-8.54-.28-.15-1.53,1-1.82.85-5.1,4.34-2.86,2.87-3.41,7.8l-.44,0c-.28.53-.74.51-3.86-1.1-.37.25-6.36-3.12-6.73-2.88,3,1.57,6.12,3.13,9.28,4.59.16.4.33.79.48,1.18-5.08-.68-2.8-.19-7.59-1.85-.2.18,7.37,2.73-5.17-.22,5.09,1.76,7.66,1.94,12.94,2.74a20.15,20.15,0,0,1,0,4.18c-4.81-1.92-6.37-1.86-6.37-1.86,1.56-.06-6.35.32-6.31.54,5.19-.2,8.66-.46,12.75,2.29a14.43,14.43,0,0,1-1.23,5.44c-4.39-2.07-1.49-.51-12-4.09-.46.19-5.35-2.51-5.81-2.31,4.2,3.93,16.36,4.86,16.86,7.87-8.69,7.74-6.1,11.54-8.92,14.91l4.23-.19c-.27-10,8.57-11.21,8.77-22.46,6.53-3.75,12.63-6.61,17.06-11.74-.33-.11-1.88,1.73-4.85,3.24-6.94,5.18-9.73,5.32-12.08,6.76"/><path class="cls-8" d="M1642.86,646.44c-.33-.11-1.88,1.73-4.85,3.24-6.93,5.18-9.73,5.32-12.08,6.76,0-1.26,1.1-3.17.67-4.39,9.16-4.67,8.33-.75,11.26-8.26-.37,0-1.17,2.92-1.76,1.66-1.78,5-3.06,1.66-9.47,5.75l-.62,0c.68-5.06-3.09-3,4.09-8.54-.29-.15-1.54,1-1.82.85-5.11,4.34-2.87,2.87-3.41,7.8l-.45,0c-.28.53-.74.51-3.86-1.1-.37.25-6.36-3.12-6.73-2.88,3.05,1.57,6.12,3.13,9.29,4.59.15.4.32.79.47,1.18-5.08-.68-2.8-.19-7.59-1.85-.2.18,7.37,2.73-5.17-.22,5.09,1.76,7.67,1.94,12.94,2.74a20.15,20.15,0,0,1,0,4.18c-4.81-1.92-6.37-1.86-6.37-1.86,1.56-.06-6.35.32-6.31.54,5.19-.2,8.66-.46,12.75,2.29a14.24,14.24,0,0,1-1.23,5.44c-4.39-2.07-1.49-.51-12-4.09-.46.19-5.35-2.51-5.81-2.31,4.21,3.93,16.37,4.86,16.86,7.87-8.69,7.74-6.1,11.54-8.92,14.91l4.23-.19c-.27-10,8.57-11.21,8.77-22.46C1632.33,654.43,1638.43,651.57,1642.86,646.44Z"/><path class="cls-8" d="M1612.84,640.31c-.46.19-5.36-2.51-5.81-2.32,4.2,3.94,16.36,4.87,16.86,7.87-8.7,7.75-6.1,11.54-8.92,14.92l4.23-.2c-.27-10,8.57-11.2,8.77-22.45,6.53-3.75,12.63-6.61,17.06-11.75-.33-.1-1.88,1.74-4.85,3.25-6.94,5.17-9.73,5.32-12.08,6.76,0-1.26,1.09-3.17.67-4.39,9.15-4.68,8.33-.75,11.26-8.26-.37,0-1.17,2.92-1.76,1.66-1.79,5-3.06,1.66-9.48,5.74l-.62.05c.69-5.05-3.09-3,4.09-8.53-.28-.16-1.53,1-1.82.85-5.1,4.34-2.86,2.87-3.41,7.8l-.45,0c-.27.52-.73.51-3.85-1.1-.37.25-6.36-3.12-6.73-2.88,3,1.57,6.12,3.13,9.28,4.59.16.39.33.78.48,1.18-5.08-.68-2.8-.19-7.6-1.85-.2.18,7.38,2.73-5.16-.22,5.09,1.76,7.66,1.94,12.94,2.74a20.15,20.15,0,0,1,0,4.18c-4.81-1.92-6.37-1.86-6.37-1.86,1.56-.06-6.35.31-6.32.54,5.2-.2,8.67-.47,12.76,2.29a14.43,14.43,0,0,1-1.23,5.44"/><path class="cls-8" d="M1655.64,647.88c-.33-.1-1.88,1.73-4.85,3.24-6.93,5.18-9.73,5.32-12.08,6.76,0-1.26,1.1-3.17.67-4.38,9.16-4.68,8.34-.76,11.26-8.27-.36,0-1.17,2.92-1.76,1.67-1.78,5-3.05,1.65-9.47,5.74l-.62.05c.68-5.05-3.09-3,4.09-8.53-.28-.16-1.54,1-1.82.84-5.11,4.34-2.86,2.88-3.41,7.8l-.45.05c-.28.52-.74.5-3.86-1.1-.37.24-6.35-3.13-6.73-2.88,3.06,1.56,6.12,3.12,9.29,4.59.15.39.33.78.48,1.17-5.08-.68-2.81-.18-7.6-1.85-.2.18,7.37,2.74-5.17-.22,5.09,1.76,7.67,2,12.94,2.74a19.48,19.48,0,0,1,0,4.18c-4.8-1.92-6.36-1.86-6.36-1.86,1.56-.06-6.36.32-6.32.54,5.19-.2,8.67-.46,12.76,2.29a14.44,14.44,0,0,1-1.24,5.44c-4.39-2.07-1.49-.51-12-4.08-.46.18-5.35-2.51-5.8-2.32,4.2,3.93,16.36,4.86,16.85,7.87-8.69,7.74-6.09,11.54-8.92,14.91l4.24-.19c-.28-10,8.56-11.21,8.76-22.46C1645.12,655.88,1651.22,653,1655.64,647.88Z"/><path class="cls-8" d="M1678.78,623.3c-.34-.11-1.88,1.73-4.85,3.24-6.94,5.18-9.73,5.32-12.08,6.76,0-1.26,1.09-3.17.67-4.39,9.15-4.67,8.33-.75,11.26-8.26-.37,0-1.17,2.92-1.76,1.66-1.79,5-3.06,1.66-9.48,5.75l-.62,0c.69-5.05-3.09-3,4.09-8.53-.28-.16-1.53,1-1.82.85-5.1,4.34-2.86,2.87-3.41,7.8l-.45,0c-.27.52-.73.51-3.85-1.1-.37.25-6.36-3.12-6.73-2.88,3,1.57,6.12,3.13,9.28,4.59.16.4.33.79.48,1.18-5.08-.68-2.8-.19-7.6-1.85-.2.18,7.38,2.73-5.16-.22,5.08,1.76,7.66,1.94,12.94,2.74a20.15,20.15,0,0,1,0,4.18c-4.81-1.92-6.37-1.86-6.37-1.86,1.56-.06-6.35.32-6.32.54,5.2-.2,8.67-.47,12.76,2.29a14.43,14.43,0,0,1-1.23,5.44c-4.39-2.07-1.49-.51-12-4.09-.46.19-5.36-2.51-5.81-2.32,4.2,3.94,16.36,4.87,16.86,7.87-8.7,7.75-6.1,11.55-8.92,14.92l4.23-.19c-.27-10,8.57-11.21,8.77-22.46C1668.25,631.29,1674.35,628.43,1678.78,623.3Z"/><path class="cls-8" d="M1667.46,603.52c-.33-.1-1.88,1.74-4.85,3.24-6.94,5.18-9.73,5.32-12.08,6.77,0-1.27,1.1-3.17.67-4.39,9.16-4.68,8.33-.76,11.26-8.26-.37,0-1.17,2.91-1.76,1.66-1.78,5-3.06,1.66-9.47,5.74l-.63.05c.69-5.05-3.08-3,4.09-8.53-.28-.16-1.53,1-1.82.85-5.1,4.34-2.86,2.87-3.41,7.8l-.45,0c-.27.52-.73.5-3.85-1.1-.37.24-6.36-3.13-6.73-2.88,3,1.57,6.12,3.12,9.28,4.59.16.39.33.78.48,1.17-5.08-.68-2.8-.18-7.59-1.85-.2.18,7.37,2.74-5.17-.21,5.09,1.76,7.66,1.94,12.94,2.73a20.24,20.24,0,0,1,.05,4.19c-4.81-1.93-6.37-1.86-6.37-1.86,1.56-.07-6.35.31-6.31.54,5.19-.2,8.66-.47,12.75,2.28a14.48,14.48,0,0,1-1.23,5.45c-4.39-2.07-1.49-.52-12-4.09-.46.19-5.35-2.51-5.81-2.32,4.2,3.94,16.36,4.86,16.86,7.87-8.69,7.74-6.1,11.54-8.92,14.92l4.23-.2c-.27-10,8.57-11.21,8.77-22.46C1656.93,611.52,1663,608.66,1667.46,603.52Z"/><path class="cls-8" d="M1654.18,605.12c-.34-.1-1.88,1.73-4.85,3.24-6.94,5.18-9.74,5.32-12.08,6.76,0-1.26,1.09-3.17.67-4.38,9.15-4.68,8.33-.76,11.26-8.27-.37,0-1.17,2.92-1.76,1.67-1.79,5-3.06,1.65-9.48,5.74l-.62,0c.69-5-3.09-3,4.09-8.53-.28-.16-1.53,1-1.82.85-5.1,4.34-2.86,2.87-3.41,7.79l-.45.05c-.27.52-.73.5-3.85-1.1-.38.24-6.36-3.13-6.73-2.88,3,1.56,6.12,3.12,9.28,4.59.16.39.33.78.48,1.17-5.08-.68-2.8-.18-7.6-1.85-.2.18,7.37,2.74-5.16-.22,5.08,1.76,7.66,2,12.94,2.74a20.15,20.15,0,0,1,.05,4.18c-4.81-1.92-6.37-1.86-6.37-1.86,1.56-.06-6.36.32-6.32.54,5.2-.2,8.67-.46,12.76,2.29a14.43,14.43,0,0,1-1.23,5.44c-4.39-2.07-1.49-.51-12-4.08-.46.19-5.36-2.51-5.81-2.32,4.2,3.94,16.36,4.86,16.86,7.87-8.7,7.74-6.1,11.54-8.92,14.92l4.23-.2c-.27-10,8.56-11.21,8.77-22.46C1643.65,613.12,1649.75,610.25,1654.18,605.12Z"/><path class="cls-8" d="M1635.08,606.35c-.33-.1-1.88,1.74-4.85,3.25-6.93,5.17-9.73,5.32-12.08,6.76,0-1.26,1.1-3.17.67-4.39,9.16-4.68,8.34-.75,11.26-8.26-.37,0-1.17,2.92-1.76,1.66-1.78,5-3,1.66-9.47,5.74l-.62,0c.68-5-3.09-3,4.09-8.53-.29-.16-1.54,1-1.82.85-5.11,4.34-2.87,2.87-3.41,7.8l-.45,0c-.28.52-.74.51-3.86-1.1-.37.25-6.36-3.12-6.73-2.88,3,1.57,6.12,3.13,9.29,4.59.15.39.32.78.48,1.18-5.08-.68-2.81-.19-7.6-1.85-.2.18,7.37,2.73-5.17-.22,5.09,1.76,7.67,1.94,12.94,2.74a20.15,20.15,0,0,1,0,4.18c-4.81-1.92-6.37-1.86-6.37-1.86,1.56-.06-6.35.31-6.31.54,5.19-.2,8.66-.47,12.75,2.29a14.24,14.24,0,0,1-1.23,5.44c-4.39-2.07-1.49-.52-12-4.09-.46.19-5.35-2.51-5.81-2.32,4.21,3.94,16.37,4.87,16.86,7.87-8.69,7.75-6.09,11.54-8.92,14.92l4.23-.19c-.27-10,8.57-11.21,8.77-22.46C1624.55,614.35,1630.65,611.49,1635.08,606.35Z"/><path class="cls-8" d="M1631.17,594.39c-.33-.11-1.88,1.73-4.85,3.24-6.94,5.18-9.73,5.32-12.08,6.76,0-1.26,1.1-3.17.67-4.39,9.16-4.67,8.33-.75,11.26-8.26-.37,0-1.17,2.92-1.76,1.66-1.78,5-3.06,1.66-9.47,5.75l-.63.05c.69-5.06-3.08-3,4.09-8.54-.28-.15-1.53,1-1.82.85-5.1,4.34-2.86,2.87-3.41,7.8l-.45,0c-.27.53-.73.51-3.85-1.1-.37.25-6.36-3.12-6.73-2.88,3,1.57,6.12,3.13,9.28,4.59.16.4.33.79.48,1.18-5.08-.68-2.8-.19-7.59-1.85-.2.18,7.37,2.73-5.17-.22,5.09,1.76,7.66,1.94,12.94,2.74a20.15,20.15,0,0,1,.05,4.18c-4.81-1.92-6.37-1.86-6.37-1.86,1.56-.06-6.35.32-6.31.54,5.19-.2,8.66-.46,12.75,2.29a14.43,14.43,0,0,1-1.23,5.44c-4.39-2.07-1.49-.51-12-4.09-.46.19-5.35-2.51-5.81-2.31,4.2,3.93,16.36,4.86,16.86,7.87-8.69,7.74-6.1,11.54-8.92,14.91l4.23-.19c-.27-10,8.57-11.21,8.77-22.46C1620.64,602.38,1626.74,599.52,1631.17,594.39Z"/><path class="cls-8" d="M1616,607.76c-.33-.1-1.88,1.73-4.85,3.24-6.94,5.18-9.73,5.32-12.08,6.76,0-1.26,1.1-3.17.67-4.38,9.16-4.68,8.33-.76,11.26-8.27-.37,0-1.17,2.92-1.76,1.67-1.78,5-3.06,1.65-9.47,5.74l-.63.05c.69-5.05-3.08-3,4.09-8.53-.28-.16-1.53,1-1.82.84-5.1,4.35-2.86,2.88-3.41,7.8l-.44.05c-.28.52-.74.5-3.86-1.1-.37.24-6.36-3.13-6.73-2.88,3,1.56,6.12,3.12,9.28,4.59.16.39.33.78.48,1.17-5.08-.68-2.8-.18-7.59-1.85-.2.18,7.37,2.74-5.17-.22,5.09,1.76,7.66,1.95,12.94,2.74a20.15,20.15,0,0,1,0,4.18c-4.81-1.92-6.37-1.86-6.37-1.86,1.56-.06-6.35.32-6.31.54,5.19-.2,8.66-.46,12.75,2.29a14.43,14.43,0,0,1-1.23,5.44c-4.39-2.07-1.49-.51-12-4.08-.46.18-5.35-2.51-5.81-2.32,4.21,3.93,16.36,4.86,16.86,7.87-8.69,7.74-6.1,11.54-8.92,14.91l4.23-.19c-.27-10,8.57-11.21,8.77-22.46C1605.46,615.76,1611.56,612.89,1616,607.76Z"/><path class="cls-8" d="M1581.36,613.31c9.16-4.68,8.34-.76,11.27-8.26-.37,0-1.17,2.91-1.77,1.66-1.78,5-3,1.66-9.47,5.74l-.62,0c.68-5-3.09-3,4.09-8.53-.28-.16-1.54,1-1.82.85-5.11,4.34-2.86,2.87-3.41,7.8l-.45,0c-.27.52-.74.5-3.86-1.1-.37.24-6.35-3.13-6.72-2.88,3.05,1.57,6.11,3.12,9.28,4.59.15.39.33.78.48,1.17-5.08-.68-2.81-.18-7.6-1.85-.2.18,7.37,2.74-5.17-.22,5.09,1.77,7.67,2,12.94,2.74a18.94,18.94,0,0,1,0,4.19c-4.8-1.93-6.36-1.86-6.36-1.86,1.56-.07-6.36.31-6.32.54,5.19-.2,8.67-.47,12.76,2.28a14.48,14.48,0,0,1-1.23,5.45c-4.4-2.07-1.5-.52-12-4.09-.45.19-5.35-2.51-5.8-2.32,4.2,3.94,16.36,4.86,16.85,7.87-8.69,7.74-6.09,11.54-8.92,14.92l4.24-.2c-.27-10,8.56-11.21,8.77-22.46,6.53-3.74,12.63-6.6,17-11.74-.33-.1-1.88,1.74-4.85,3.24-6.93,5.18-9.73,5.32-12.08,6.77"/><path class="cls-8" d="M1640.65,613.07c-.33-.1-1.87,1.73-4.84,3.24-6.94,5.18-9.74,5.32-12.09,6.76,0-1.26,1.1-3.17.68-4.38,9.15-4.68,8.33-.76,11.26-8.27-.37,0-1.17,2.92-1.77,1.67-1.78,5-3.05,1.65-9.47,5.74l-.62,0c.68-5-3.09-3,4.09-8.53-.28-.16-1.53,1-1.82.84-5.1,4.35-2.86,2.88-3.41,7.8l-.45,0c-.27.52-.73.5-3.86-1.1-.37.24-6.35-3.13-6.72-2.88,3,1.56,6.11,3.12,9.28,4.59.16.39.33.78.48,1.17-5.08-.68-2.8-.18-7.6-1.85-.2.18,7.37,2.74-5.17-.22,5.09,1.76,7.67,2,12.94,2.74a18.86,18.86,0,0,1,0,4.18c-4.8-1.92-6.36-1.86-6.36-1.86,1.56-.06-6.36.32-6.32.54,5.2-.2,8.67-.46,12.76,2.29a14.43,14.43,0,0,1-1.23,5.44c-4.4-2.07-1.5-.51-12-4.08-.45.18-5.35-2.51-5.8-2.32,4.2,3.93,16.36,4.86,16.85,7.87-8.69,7.74-6.09,11.54-8.92,14.91l4.24-.19c-.27-10,8.56-11.21,8.77-22.46C1630.13,621.07,1636.23,618.2,1640.65,613.07Z"/><path class="cls-8" d="M1612.63,618c-1.79,5-3.06,1.65-9.48,5.74l-.62.05c.69-5.05-3.09-3,4.09-8.54-.28-.15-1.53,1-1.82.85-5.1,4.34-2.86,2.87-3.41,7.8l-.45.05c-.27.52-.73.5-3.85-1.11-.37.25-6.36-3.12-6.73-2.87,3.05,1.56,6.12,3.12,9.28,4.58.16.4.33.79.48,1.18-5.08-.68-2.8-.18-7.6-1.85-.2.18,7.38,2.73-5.16-.22,5.08,1.76,7.66,1.95,12.94,2.74a20.15,20.15,0,0,1,0,4.18c-4.81-1.92-6.37-1.86-6.37-1.86,1.56-.06-6.35.32-6.32.54,5.2-.2,8.67-.46,12.76,2.29a14.43,14.43,0,0,1-1.23,5.44c-4.39-2.07-1.49-.51-12-4.08-.46.18-5.36-2.51-5.81-2.32,4.2,3.93,16.36,4.86,16.86,7.87-8.7,7.74-6.1,11.54-8.92,14.91l4.23-.19c-.27-10,8.57-11.21,8.77-22.46,6.53-3.75,12.63-6.61,17.06-11.74-.33-.11-1.88,1.73-4.85,3.24-6.94,5.18-9.73,5.32-12.08,6.76"/><path class="cls-8" d="M1655,616.26c-.33-.11-1.88,1.73-4.85,3.24-6.94,5.18-9.73,5.32-12.08,6.76,0-1.26,1.1-3.17.67-4.39,9.16-4.67,8.33-.75,11.26-8.26-.37,0-1.17,2.92-1.76,1.67-1.78,5-3.06,1.65-9.47,5.74l-.63.05c.69-5.05-3.08-3,4.09-8.54-.28-.15-1.53,1-1.82.85-5.1,4.34-2.86,2.87-3.41,7.8l-.45.05c-.27.52-.73.5-3.85-1.11-.37.25-6.36-3.12-6.73-2.87,3,1.56,6.12,3.12,9.28,4.58.16.4.33.79.48,1.18-5.08-.68-2.8-.18-7.59-1.85-.2.18,7.37,2.73-5.17-.22,5.09,1.76,7.66,1.95,12.94,2.74a20.15,20.15,0,0,1,0,4.18c-4.81-1.92-6.37-1.86-6.37-1.86,1.56-.06-6.35.32-6.31.54,5.19-.2,8.66-.46,12.75,2.29a14.43,14.43,0,0,1-1.23,5.44c-4.39-2.07-1.49-.51-12-4.08-.46.18-5.35-2.51-5.81-2.32,4.2,3.93,16.36,4.86,16.86,7.87-8.69,7.74-6.1,11.54-8.92,14.91l4.23-.19c-.27-10,8.57-11.21,8.77-22.46C1644.45,624.25,1650.55,621.39,1655,616.26Z"/><path class="cls-8" d="M1625,610.13c-.45.19-5.35-2.51-5.8-2.32,4.2,3.94,16.36,4.87,16.86,7.87-8.7,7.75-6.1,11.55-8.93,14.92l4.24-.19c-.27-10,8.56-11.21,8.77-22.46,6.53-3.75,12.63-6.61,17.05-11.74-.33-.11-1.87,1.73-4.84,3.24-6.94,5.18-9.74,5.32-12.09,6.76,0-1.26,1.1-3.17.68-4.39,9.15-4.67,8.33-.75,11.26-8.26-.37,0-1.17,2.92-1.77,1.66-1.78,5-3.05,1.66-9.47,5.75l-.62,0c.69-5-3.09-3,4.09-8.53-.28-.16-1.53,1-1.82.85-5.1,4.34-2.86,2.87-3.41,7.8l-.45,0c-.27.52-.73.51-3.86-1.1-.37.25-6.35-3.12-6.72-2.88,3.05,1.57,6.11,3.13,9.28,4.59.16.4.33.78.48,1.18-5.08-.68-2.8-.19-7.6-1.85-.2.18,7.37,2.73-5.17-.22,5.09,1.76,7.67,1.94,12.94,2.74a19.49,19.49,0,0,1,.06,4.18c-4.81-1.92-6.37-1.86-6.37-1.86,1.56-.06-6.36.32-6.32.54,5.2-.2,8.67-.47,12.76,2.29a14.43,14.43,0,0,1-1.23,5.44"/><path class="cls-8" d="M1667.76,617.7c-.33-.1-1.88,1.73-4.85,3.24-6.93,5.18-9.73,5.32-12.08,6.76,0-1.26,1.1-3.17.67-4.38,9.16-4.68,8.33-.76,11.26-8.26-.37,0-1.17,2.91-1.76,1.66-1.78,5-3.06,1.65-9.47,5.74l-.63,0c.69-5-3.08-3,4.1-8.53-.29-.16-1.54,1-1.82.85-5.11,4.34-2.87,2.87-3.42,7.79l-.44,0c-.28.52-.74.5-3.86-1.1-.37.24-6.36-3.13-6.73-2.88,3,1.56,6.12,3.12,9.29,4.59.15.39.32.78.47,1.17-5.08-.68-2.8-.18-7.59-1.85-.2.18,7.37,2.74-5.17-.22,5.09,1.77,7.66,2,12.94,2.74a20.15,20.15,0,0,1,0,4.18c-4.81-1.92-6.37-1.86-6.37-1.86,1.56-.06-6.35.32-6.31.54,5.19-.2,8.66-.46,12.75,2.29a14.24,14.24,0,0,1-1.23,5.44c-4.39-2.07-1.49-.51-12-4.08-.46.19-5.35-2.51-5.81-2.32,4.21,3.94,16.36,4.86,16.86,7.87-8.69,7.74-6.1,11.54-8.92,14.92l4.23-.2c-.27-10,8.57-11.21,8.77-22.46C1657.23,625.7,1663.33,622.84,1667.76,617.7Z"/><path class="cls-8" d="M1690.89,593.12c-.33-.11-1.87,1.73-4.84,3.24-6.94,5.18-9.74,5.32-12.09,6.76,0-1.26,1.1-3.17.68-4.39,9.15-4.67,8.33-.75,11.26-8.26-.37,0-1.17,2.92-1.77,1.66-1.78,5-3.05,1.66-9.47,5.75l-.62,0c.68-5.06-3.09-3,4.09-8.54-.28-.15-1.53,1-1.82.85-5.1,4.34-2.86,2.87-3.41,7.8l-.45,0c-.27.53-.73.51-3.86-1.1-.37.25-6.35-3.12-6.72-2.88,3.05,1.57,6.11,3.13,9.28,4.59.16.4.33.79.48,1.18-5.08-.68-2.8-.19-7.6-1.85-.2.18,7.37,2.73-5.17-.22,5.09,1.76,7.67,1.94,12.94,2.74a18.86,18.86,0,0,1,0,4.18c-4.8-1.92-6.36-1.86-6.36-1.86,1.56-.06-6.36.32-6.32.54,5.2-.2,8.67-.46,12.76,2.29a14.43,14.43,0,0,1-1.23,5.44c-4.4-2.07-1.5-.51-12-4.09-.45.19-5.35-2.51-5.8-2.31,4.2,3.93,16.36,4.86,16.85,7.87-8.69,7.74-6.09,11.54-8.92,14.91l4.24-.19c-.27-10,8.56-11.21,8.77-22.46C1680.37,601.11,1686.47,598.25,1690.89,593.12Z"/><path class="cls-9" d="M1547.49,712.7c-.2-.05-1.12.79-2.89,1.47-4.13,2.36-5.79,2.43-7.19,3.09,0-.57.66-1.43.41-2,5.45-2.14,5-.37,6.71-3.76-.22,0-.7,1.32-1,.76-1.07,2.27-1.82.75-5.64,2.61l-.37,0c.42-2.28-1.82-1.35,2.45-3.86-.16-.07-.91.46-1.08.39-3,2-1.7,1.3-2,3.52l-.27,0c-.16.24-.44.23-2.28-.48-.23.11-3.77-1.39-4-1.28,1.81.7,3.62,1.39,5.5,2l.28.53a14.76,14.76,0,0,1-4.5-.81c-.12.08,4.36,1.21-3.07-.08a45.38,45.38,0,0,0,7.67,1.19,7,7,0,0,1,0,1.89,14.21,14.21,0,0,0-3.78-.82c.93,0-3.77.16-3.74.26,3.08-.11,5.14-.24,7.56,1a5.32,5.32,0,0,1-.75,2.46c-2.6-.92-.88-.23-7.1-1.81-.27.09-3.17-1.11-3.44-1,2.48,1.77,9.69,2.15,10,3.5-5.18,3.51-3.65,5.22-5.34,6.75l2.51-.1c-.13-4.49,5.12-5.08,5.27-10.15C1541.22,716.33,1544.84,715,1547.49,712.7Z"/><path class="cls-9" d="M1547.57,716.89c-.18-.06-1,1-2.73,1.82-3.9,2.92-5.47,3-6.8,3.81,0-.71.62-1.79.38-2.47,5.16-2.63,4.69-.43,6.34-4.65-.21,0-.66,1.64-1,.93-1,2.83-1.72.94-5.33,3.24l-.35,0c.38-2.84-1.74-1.69,2.3-4.8-.16-.09-.86.57-1,.48-2.87,2.44-1.61,1.62-1.92,4.39l-.25,0c-.15.3-.41.29-2.17-.62-.21.14-3.58-1.76-3.79-1.62,1.72.88,3.45,1.76,5.23,2.59l.27.66a11.41,11.41,0,0,1-4.28-1c-.11.1,4.15,1.54-2.91-.13a33.24,33.24,0,0,0,7.29,1.55,11.54,11.54,0,0,1,0,2.35,11.28,11.28,0,0,0-3.59-1c.88,0-3.57.18-3.55.31,2.92-.12,4.88-.27,7.18,1.28a8,8,0,0,1-.7,3.07c-2.47-1.17-.84-.29-6.75-2.3-.25.1-3-1.42-3.26-1.31,2.36,2.22,9.21,2.74,9.48,4.43-4.89,4.36-3.43,6.5-5,8.4l2.39-.11c-.16-5.61,4.82-6.31,4.93-12.64C1541.65,721.39,1545.08,719.78,1547.57,716.89Z"/><path class="cls-9" d="M1531.28,709.8c.18,0,1,1,2.72,1.83,3.91,2.91,5.48,3,6.81,3.81,0-.71-.62-1.79-.38-2.47-5.16-2.64-4.69-.43-6.34-4.65.21,0,.66,1.64,1,.93,1,2.83,1.72.93,5.33,3.23l.35,0c-.38-2.84,1.74-1.7-2.3-4.8.16-.09.86.56,1,.48,2.87,2.44,1.61,1.61,1.92,4.39l.25,0c.15.29.41.28,2.17-.62.21.14,3.58-1.76,3.79-1.62-1.72.88-3.45,1.76-5.23,2.58l-.27.67a11.42,11.42,0,0,0,4.28-1.05c.11.11-4.15,1.54,2.91-.12A33.22,33.22,0,0,1,1542,714a11.64,11.64,0,0,0,0,2.36,11.28,11.28,0,0,1,3.59-1.05c-.88,0,3.57.18,3.55.3-2.92-.11-4.88-.26-7.18,1.29a8,8,0,0,0,.7,3.07c2.47-1.17.84-.29,6.75-2.3.25.1,3-1.42,3.26-1.31-2.36,2.22-9.21,2.74-9.48,4.43,4.89,4.36,3.43,6.5,5,8.4l-2.39-.11c.16-5.61-4.82-6.31-4.93-12.65C1537.2,714.31,1533.77,712.7,1531.28,709.8Z"/><path class="cls-10" d="M197.57,519.43l188.7-132L446.84,509l31.37,51.36s51.5,110.4,70.69,126.06c0,0,74.16,116.31,67.16,136.36l-154.7,67.92-198-32.62s-69-259.84-65.71-267.66S197.57,519.43,197.57,519.43Z"/><path class="cls-11" d="M168.66,516.72,386.27,387.4l31.65,118.86,31.38,51.37S466,772.56,485.19,788.21c0,0,56.53,53.88,49.53,73.93L432.45,888l-198-32.62s-69-259.83-65.71-267.66S168.66,516.72,168.66,516.72Z"/><path class="cls-12" d="M96.84,412.67l16.06-59.21L299,471.37l72.66,45.86s47.07,165.36,82.47,174.54c0,0-25,76-23.14,103.53l107,126-291.21,59.8S2.74,704.34,2.74,693.33,96.84,412.67,96.84,412.67Z"/><path class="cls-13" d="M22.55,421.33l90.35-67.87L224.69,480l72.66,45.86s67.07,157.76,102.47,166.93c0,0-1.86,86.22,0,113.74L463.73,930,172.52,989.8S-71.55,713-71.55,702,22.55,421.33,22.55,421.33Z"/><path class="cls-14" d="M1920,353.16l-80.11-58.8-104,154-127.59,99.22s-25.08,79.42-59.1,103.3c0,0-60.83,182-53,205l137.21,30.34,265.7-25s48.25-340.5,44.33-349.36S1920,353.16,1920,353.16Z"/><path class="cls-12" d="M1920,353.16l-80.11-58.8-72.65,154L1707,519.14s-14.44,158.27-48.46,182.15c0,0-138.86,131.54-131,154.56l137.2,30.34,265.7-25s48.26-340.5,44.34-349.36S1920,353.16,1920,353.16Z"/><path class="cls-15" d="M488.23,824.06c-73.74,3.46-34.56-11.81-67.66-15.86,6.52.4,9.78,1.51,15.16,2.07,6.82-2.43,8.35,4.23,14.7,2.23S467.07,809,474,807.24s18-12.51,25.52-14.8,11.83-5.16,18.56-7.79c6.57,1.21,13.36,2.16,20,3.35,4.08-5.63,8.11-11.3,12.22-16.91,7.93.3,15.85.58,23.78,1,3.06-6.46,15.69-4,18.73-10.42,11.84-.41,25-1.24,37-3.67s12.89-13.77,25.4-16.08c4.23-4,2.2,4.89,7.11,6.08s15-7.88,17.53-11.91c13.57.81,27.3,1.84,40.91,3,7.81-4.45,20.83,5.92,28.52,1.46,7.41,1.38,5.66-11.27,13.07-8.11s12.62,2,23,1.76,61.72,17.15,73,19.43,20.81,2.26,31.18,4.34,39.49,21,51.37,22.31,49,.59,59.61,0c13.07,2.35,53.23-.69,66,0s71.16,13.57,82.09,13.67,54,13.75,64.66,13.3c6.64-2.72,31.47,8.3,39.44,7.59s13.92-9.36,22.47-7.59,47.94,14.09,56.41,10.37,23.16-12.28,31.66-10.37,42.35-.54,50.89-1.38,113.12-23.25,123.82-25.59,28.65-10.52,37.61-11.09,15.5-37.26,19.9-24.73,43.55,25.36,26.36,25.71,68-3.73-11.84,6.65,89.77-160.29-22.74-5.75C1448.7,961.62,725.22,756.72,488.23,824.06Z"/><path class="cls-16" d="M1809.63,944.27c-8-41.42-72.61-106.28-255.79-141.38-74.47-14.27-182,33.79-272.06,25.68-82-7.39-181.9-40.36-270.12-40.36C871.57,788.21,781,723.64,658.08,757c-218.17,59.26-410,137.1-410,187.24,0,74.94,379.72,221.83,795.21,177.36C1464.38,1076.56,1852.28,1166.1,1809.63,944.27Z"/><path class="cls-17" d="M98.87,720.64s335.23-6.28,358.75-12.56l21.76-3.94s-18.07,88.13-3.36,107l93.23,148.4-48.75,74.22S87.11,848.3,81.23,842s2.94-104.8,2.94-104.8Z"/><path class="cls-18" d="M23.55,717.52s335.22-6.51,358.75-13l73.51-8.67s-35.29,101.9-20.58,121.41L520.5,1031.9l-226.86,52.59S11.78,849.78,5.9,843.27,8.84,734.71,8.84,734.71Z"/><path class="cls-18" d="M1533.68,562.58s335.67-10.3,359.22-20.6l30.81,1.72s7.47,145.93,22.19,176.84l-42.68,352-165.84-34.34s-139.93-233.92-145.82-244.23S1576.7,669,1576.7,669Z"/><path class="cls-19" d="M1588.53,559.94s303.19-9.86,324.46-19.71l27.83,1.64s6.75,139.58,20,169.14l-38.56,336.65-86.57-42.7S1646.55,771.25,1641.23,761.4s-13.85-99.65-13.85-99.65Z"/><path class="cls-20" d="M-.47,769.18,149.94,900.49,198.57,944l135.87,101.34,200.74-12,56.87,61.26h913.52L1711,1038.14s111.9-32.66,133.91-77.41l81-75v208.82H-6Z"/><g class="cls-21"><path d="M1148.78,247.08l2-.43c-2.62-2.49-1.6-1.71-3.64-2.25a3.55,3.55,0,0,0-2.39.41,32.45,32.45,0,0,0-4.51,4.15C1143.09,248.33,1145.94,247.69,1148.78,247.08Z"/><path d="M1134.35,250.25c-1.73-2-6.28-2.2-8.28-1.93l-2.09,2a21.7,21.7,0,0,0-.69,2.47Z"/><path d="M1148.78,247.08c-1-.9-.73-.55-2.23-1a3.48,3.48,0,0,0-2.28.4c-.93.73-1.74,1.42-2.48,2.1C1144.12,248.11,1146.45,247.58,1148.78,247.08Z"/><path d="M1132.66,250.63a13.7,13.7,0,0,0-6.3-.74l-2,1.88c-.06.17-.15.45-.26.79C1127,251.91,1129.81,251.26,1132.66,250.63Z"/><path d="M1130,251.23a13.83,13.83,0,0,0-2.55,0l-.73.71C1127.77,251.73,1128.86,251.47,1130,251.23Z"/></g><g class="cls-22"><path d="M954.28,355.41l.43.09-4,2.47Z"/><path d="M951.81,357.18H952l-1.26.78Z"/></g><g class="cls-22"><path class="cls-23" d="M964.16,354.17l.43.08-4,2.48Z"/><path class="cls-23" d="M961.7,355.93l.15,0-1.26.78Z"/></g><g class="cls-22"><path d="M755.08,460.71l.43.08-4,2.48Z"/><path d="M752.61,462.47l.15,0-1.26.78Z"/></g><path class="cls-24" d="M1064.15,709.14h0a.23.23,0,0,1-.18.11l0,0-.14.13c-.06.05-.18,0-.17-.07l0-.16s0,0-.09,0-.21-.16-.16-.26l0,0a.07.07,0,0,0,0-.09l-.19-.09,0,0c0-.13.17-.2.29-.11h0c.06,0,.1,0,.08-.1l-.07-.16c0-.07.07-.13.15-.08l.16.17s.13-.05.16-.1l0-.13c0-.06.21-.08.24,0v.27h0a.16.16,0,0,0,.26,0l.09-.12s.14,0,.16,0a0,0,0,0,1,0,.05l-.1.15a.15.15,0,0,0,.1.16h.18c.09,0,.1.11,0,.14l-.2.07-.19,0-.13,0-.08,0,0,.07A.18.18,0,0,0,1064.15,709.14Z"/><path class="cls-24" d="M1077.8,710.45h0a.25.25,0,0,1-.16-.13.08.08,0,0,0,0,0l-.16-.1c-.07,0-.06-.16,0-.17l.17,0s0,0,0-.1.08-.25.2-.23h0a.07.07,0,0,0,.07-.06l0-.21a.05.05,0,0,1,0,0c.11-.06.24.1.18.24h0c0,.06.08.09.12,0l.13-.11c.06,0,.14,0,.12.11l-.11.21s.09.11.14.11h.13c.08,0,.15.17.09.21l-.26.1h0a.16.16,0,0,0,.06.25l.14,0c.06,0,.09.11,0,.15l0,0-.17-.05s-.13.09-.12.15l.06.16c0,.1-.07.14-.12.07l-.13-.17a1.2,1.2,0,0,0-.11-.17.44.44,0,0,1-.08-.11s0-.07,0-.07l-.07,0A.31.31,0,0,0,1077.8,710.45Z"/></g></svg>
