<svg xmlns="http://www.w3.org/2000/svg" width="751.82" height="671.15" viewBox="0 0 751.82 671.15"><defs><style>.cls-1{opacity:0.3;}.cls-2{fill:#eadf5c;}.cls-3{fill:#020202;}.cls-4{fill:#fff;}.cls-5{fill:#750d35;}.cls-6{fill:#b50f5a;}.cls-7{fill:#e51c6e;}.cls-8{fill:#bc961e;}.cls-9{fill:#bcaf33;}</style></defs><g id="Layer_3" data-name="Layer 3"><g class="cls-1"><path class="cls-2" d="M9.56,401.34c45.84,215,288.1,314,470.08,251.17s302-177.45,265.71-388.92S450.79-47.26,269.37,21.7-36.27,186.32,9.56,401.34Z"/></g><g class="cls-1"><path class="cls-2" d="M58,394.38C102,593.54,315.56,689.22,473.48,634.6S734.21,476.43,698.64,280.72,435.52-11.35,278.2,49,14.05,195.22,58,394.38Z"/></g><g class="cls-1"><path class="cls-2" d="M77.62,393.25C114.42,565.89,308.93,645.33,455,594.91S697.51,452.44,668.37,282.64,431.88,33.07,286.21,88.44,40.82,220.61,77.62,393.25Z"/></g><path d="M142.21,369.92c32.23,152.5,206,221.93,337,176.74s217.67-127,192.3-277S460.87,50,330.23,99.54,110,217.43,142.21,369.92Z"/><path class="cls-2" d="M151.43,369.79c30.18,144.53,197.5,209.37,324.22,165.68s210.84-121.83,187.26-264S460.91,64.21,334.53,112,121.25,225.26,151.43,369.79Z"/><path d="M343,315.51c-7.45-6.22-25.05-17.35-37.53-14.07,0,0-19.31,12.08-38.84-9.11,0,0-8.61-10.89-34.17-1.7a2.19,2.19,0,0,0,.62,4.25,59.83,59.83,0,0,0,11.68-.64s10.4-5.12,24.94,8.22c0,0,4.29,5.81,17.59,7.79a20.35,20.35,0,0,0,7.73-.47c2.24-.54,4.44-2.27,12.14-3.29,1.18-.16,3.25.23,11,1.68,2,.38,2.67,1.1,16.17,6.61,1.36.56,4.69,3.14,6.32,3.79C341.92,319.07,344,316.36,343,315.51Z"/><path d="M335.49,298.72C329.4,293.47,315.05,284,305,286.66c0,0-15.54,9.9-31.54-7.94,0,0-7.07-9.16-27.69-1.72a1.84,1.84,0,0,0,.54,3.54,46.16,46.16,0,0,0,9.45-.42s8.38-4.17,20.28,7.07c0,0,3.52,4.88,14.31,6.65a15.92,15.92,0,0,0,6.26-.32c1.81-.43,3.57-1.86,9.8-2.64.95-.12,2.64.22,8.95,1.51,1.63.33,2.18.93,13.16,5.65,1.1.47,3.82,2.65,5.15,3.21C334.65,301.68,336.33,299.44,335.49,298.72Z"/><path d="M315.76,410.47s24.49,14,32.8,41.82a.44.44,0,0,1-.82.33c-.94-1.85-2.16-4.13-3.5-6.36-2.3-3.82-.8-.6-7.07-10.93,0,0-9.71-16.32-20.87-23.24S315.76,410.47,315.76,410.47Z"/><path d="M186.3,436c-1.2-3.58-.66-2-.36-12,0,0-.81-16,5.05-26.82"/><path d="M354.34,331.05c13.83,3.85,18.1,15.22,18.05,29.66,0,.46-.73.79-.83-.08-.68-5.8-.78-10.19-4.06-15.76-3.05-5.18-8.89-9.27-13.55-12.73C353.25,331.63,352.38,330.51,354.34,331.05Z"/><path d="M353.91,389.09c-13.16,10.7-31.36,9.42-51.38,2.87-.64-.21-.69-1,.57-.71,8.44,2,14.6,3.89,24.18,3.45,8.92-.41,17.91-3.82,25.33-6.45C353.72,387.85,355.77,387.57,353.91,389.09Z"/><path d="M284.38,348.3c3.65-14.43,15.94-20.07,31.78-21.7.5-.05.89.65-.06.85-6.33,1.36-11.14,2-17.11,5.93-5.56,3.7-9.8,10.08-13.4,15.19C285.05,349.34,283.86,350.35,284.38,348.3Z"/><path d="M251.14,319.51c6,13.05.06,23.65-11,32.93-.35.3-1.08,0-.48-.68,4-4.26,7.29-7.17,9.42-13.27,2-5.68,1.34-12.78,1-18.57C250,319.05,250.29,317.66,251.14,319.51Z"/><path d="M244.35,354.52c-6.91,9.8-18.92,11.58-32.91,9.78-.45-.05-.6-.63.26-.6,5.78.2,10.07.66,16.22-1.09,5.73-1.64,11-5.48,15.46-8.51C244,353.64,245.33,353.13,244.35,354.52Z"/><path d="M185.76,339.55c-8.87-8.07-9.15-20.21-5.64-33.87.11-.44.7-.52.57.34-.92,5.71-1.91,9.9-.93,16.22.92,5.89,4.07,11.64,6.54,16.4C186.67,339.35,187,340.7,185.76,339.55Z"/><path class="cls-3" d="M187.86,333.66c-6.49-15.29-8.84-36,22.23-41.06a20.7,20.7,0,0,1,17.81,5.76c7,6.7,16.71,17.55,20.46,28.66a15.76,15.76,0,0,1-5.31,17.55,56.65,56.65,0,0,1-18.92,9.15C209.33,357.43,194.35,348.94,187.86,333.66Z"/><path class="cls-4" d="M189.27,333.21c-6.26-14.35-8.55-33.78,21.35-38.49a20.31,20.31,0,0,1,17.15,5.42c6.7,6.3,16.1,16.49,19.73,26.91a14.54,14.54,0,0,1-5.1,16.46,54.9,54.9,0,0,1-18.2,8.56C210,355.53,195.54,347.55,189.27,333.21Z"/><path d="M231.67,334.81c.19,0,.16-.22.39-.12s.09.69,0,1a5.08,5.08,0,0,0-.42,1.3c0,.88.7,1.19,1.39.56a9.88,9.88,0,0,0,.92-1.1,2,2,0,0,1,1.3-.76,6.75,6.75,0,0,0,1.15,0,1.3,1.3,0,0,0,1.06-1.68,7.44,7.44,0,0,0-.4-.8,1.07,1.07,0,0,1,.38-1.07,10.84,10.84,0,0,0,1-.81c.56-.6.33-1.51-.62-1.43a5.76,5.76,0,0,0-1.27.43c-.34.13-.88.15-1-.19a3.73,3.73,0,0,1,0-1c0-.71-.6-1.19-1.25-.74-.25.17-.42.47-.7.67s-.51-.07-.63-.37a4.25,4.25,0,0,0-.47-1c-.55-.69-1.31-.15-1.35.57a5.2,5.2,0,0,0,.11,1.15.75.75,0,0,1-.4.83c-.3.09-.63.09-.84.17-.57.19-1.8,1.28-1.4,1.85.15.22,1,.26,1.32.31s.75.31.68.62a3.85,3.85,0,0,0-.1.81A1,1,0,0,0,231.67,334.81Z"/><path d="M348.43,342.6c11,10.32,20,26.6-6.88,41.82A22,22,0,0,1,323.31,386c-8.6-3.08-21.13-8.58-28.24-16.42a13.15,13.15,0,0,1-.9-16.39,57.29,57.29,0,0,1,14.35-14.28C320.88,330.58,337.43,332.27,348.43,342.6Z"/><path class="cls-4" d="M347.86,342.78c10.65,9.81,19.31,25.33-7,40.09a21.88,21.88,0,0,1-17.8,1.63c-8.37-2.89-20.55-8.06-27.43-15.53a12.38,12.38,0,0,1-.77-15.68A56.82,56.82,0,0,1,309,339.52,31.71,31.71,0,0,1,347.86,342.78Z"/><path d="M314.25,364.49c.27-.07.23-.32.56-.18s.13,1,0,1.38a7.27,7.27,0,0,0-.61,1.88c0,1.26,1,1.71,2,.81a13.13,13.13,0,0,0,1.34-1.58,3,3,0,0,1,1.89-1.09,10.85,10.85,0,0,0,1.68-.06,1.87,1.87,0,0,0,1.53-2.43c-.13-.42-.38-.66-.59-1.15a1.47,1.47,0,0,1,.56-1.53c.43-.36,1.1-.84,1.41-1.17.82-.86.48-2.17-.9-2.06a8.27,8.27,0,0,0-1.86.61c-.49.18-1.27.22-1.4-.28a5.17,5.17,0,0,1,0-1.38c0-1-.88-1.72-1.82-1.08-.36.24-.61.68-1,1s-.75-.1-.92-.54a6.44,6.44,0,0,0-.69-1.51c-.8-1-1.91-.22-2,.82a7.51,7.51,0,0,0,.16,1.66,1.06,1.06,0,0,1-.58,1.2c-.43.13-.91.13-1.23.23-.81.27-2.61,1.85-2,2.67.22.31,1.41.38,1.92.44s1.1.46,1,.91a5.49,5.49,0,0,0-.14,1.17A1.41,1.41,0,0,0,314.25,364.49Z"/><path d="M332.83,466.29S299.78,372,232,368c0,0-39-4-31.76,48.47,0,0,12.23,61.93,78.69,61.92C278.91,478.41,316.92,480.52,332.83,466.29Z"/><path class="cls-5" d="M330.73,465.44s-32-91.14-97.5-95c0,0-37.7-3.87-30.71,46.86,0,0,11.82,59.86,76.08,59.86C278.6,477.16,315.35,479.19,330.73,465.44Z"/><path d="M269.18,381.37s-3,20.57-31.25,8.62c0,0-13.81-5.4-9-20a60,60,0,0,1,21.09,3.21S261.62,375.24,269.18,381.37Z"/><path d="M218.19,445.82c.58-.64,31.33-17.21,39.71-25.8,1.36-1.39.94-2.93-.5-4.21-1.23-1.1-1.59-1.07-4.94,0,0,0-17.06,9.51-32.56,2.22-2.23-1.05-4.78-3.78-6.48-5.54S204,411,184,414.15c0,0-44.8,7.75-31.85-5.62,0,0,29.17-20.33,52.89-10.38,17.88,7.51,37.6,5,47.13,1.59a12.59,12.59,0,0,1,12.62,2.44c6.72,6.08,30.59,47.39,32.57,59.05C300.38,479.09,213.05,451.57,218.19,445.82Z"/><path class="cls-6" d="M219.57,445.73c.56-.63,30.94-16.86,39-25.28a3.38,3.38,0,0,0-.13-4.83c-1.2-1.09-3.2-1.85-6.45-.84,0,0-16.5,9.66-31.59,2.38a20,20,0,0,1-5.68-4.35C213,410.92,207.06,408,187.7,411c0,0-45.89,10.66-33.39-2.45,0,0,31-18.43,54.11-8.47,17.41,7.5,34.64,3.67,43.89.41A12.13,12.13,0,0,1,264.57,403c6.56,6,30,46.91,32,58.43C299.57,479,214.61,451.37,219.57,445.73Z"/><path class="cls-7" d="M303.23,475.9a51.12,51.12,0,0,0,3.09-9.81A4.77,4.77,0,0,0,299.7,461c-6.48,2.8-18,6.75-25.51,3.55,0,0-26.77-6-45.11-21.54,0,0-11.16-10.36-15.34-15.74a2.85,2.85,0,0,0-4.22-.4c-2.89,2.95-2.53,6.3,3,14.51a79.82,79.82,0,0,0,17.64,20.17c7.9,6.38,18.89,11.46,29.77,13.77A111.8,111.8,0,0,0,271,476.87C282.06,478,297.68,477.91,303.23,475.9Z"/><path class="cls-7" d="M268,381.44s-2.54,19.29-28.56,7.82c0,0-12.69-5.19-8.37-18.89a54.08,54.08,0,0,1,19.35,3.2S261,375.62,268,381.44Z"/><path d="M236.74,392.77s5.58-4.25-.13-9.24c0,0-2.53-4.49-6.94,2.7,0,0-3.23,3,1.28,6.4C231,392.63,234.7,395.42,236.74,392.77Z"/><path class="cls-4" d="M236.45,392.38s5.14-3.89-.12-8.47c0,0-2.34-4.13-6.39,2.47,0,0-3,2.72,1.18,5.88C231.12,392.26,234.58,394.82,236.45,392.38Z"/><path d="M253.88,399.12s3.19-8.63-6-11c0,0-5.54-3.79-5.61,7.64,0,0-1.53,5.6,5.43,6.87C247.68,402.61,253.42,403.6,253.88,399.12Z"/><path class="cls-4" d="M253.07,399.07s2.8-8.12-5.59-10.49c0,0-5.07-3.65-5,7.16,0,0-1.32,5.28,5,6.56C247.49,402.3,252.71,403.3,253.07,399.07Z"/><path d="M219.58,433.51s4.79-6.53-3.47-9.9c0,0-4.48-3.94-6.89,5.34,0,0-2.59,4.33,3.76,6.44C213,435.39,218.22,437.08,219.58,433.51Z"/><path class="cls-4" d="M219.24,433.2s4.46-6.06-3.22-9.18c0,0-4.17-3.66-6.4,5,0,0-2.42,4,3.49,6C213.11,435,218,436.52,219.24,433.2Z"/><path d="M283.36,459.2s.46,8.19,8.85,6.87c0,0,5.88,1.13,1.87-8.25,0,0-.75-5.12-6.89-3.69C287.19,454.13,282.14,455.37,283.36,459.2Z"/><path d="M282.51,464.29s1.2-7.19-6.79-6.59c0,0-5.19-1.39-3.36,7.07,0,0-.33,4.53,5.62,3.69C278,468.46,282.87,467.72,282.51,464.29Z"/><path d="M254.84,458.14s4.37-5.8-3.14-8.78c0,0-4.07-3.5-6.27,4.75,0,0-2.37,3.85,3.41,5.71C248.84,459.82,253.6,461.32,254.84,458.14Z"/><path d="M243.11,452s4.44-5.71-3.16-8.62c0,0-4.11-3.42-6.36,4.68,0,0-2.41,3.78,3.43,5.6C237,453.64,241.85,455.09,243.11,452Z"/><path d="M268.78,461.15s2.85-5.93-4.24-7.4c0,0-4.15-2.5-4.68,5.29,0,0-1.42,3.84,3.95,4.6C263.81,463.64,268.24,464.21,268.78,461.15Z"/><path class="cls-4" d="M254.37,457.76s4-5.38-2.86-8.16c0,0-3.7-3.25-5.69,4.41,0,0-2.14,3.56,3.1,5.3C248.92,459.31,253.25,460.7,254.37,457.76Z"/><path class="cls-4" d="M284,459s.61,7.64,8.31,6.59c0,0,5.45,1.18,1.55-7.63,0,0-.8-4.79-6.44-3.59C287.44,454.41,282.82,455.45,284,459Z"/><path class="cls-4" d="M282.09,464.18s1.13-6.64-6.26-6.08c0,0-4.79-1.27-3.11,6.53,0,0-.32,4.18,5.18,3.4C277.9,468,282.42,467.34,282.09,464.18Z"/><path class="cls-4" d="M242.61,451.63s4-5.41-2.87-8.2c0,0-3.72-3.26-5.72,4.43,0,0-2.15,3.58,3.12,5.33C237.14,453.19,241.49,454.58,242.61,451.63Z"/><path class="cls-8" d="M268.41,461.33s2.47-5.41-3.82-6.81c0,0-3.71-2.31-4.11,4.81,0,0-1.23,3.5,3.54,4.23C264,463.56,268,464.12,268.41,461.33Z"/><path d="M232.56,444.78s4.29-5.89-3.1-8.93c0,0-4-3.56-6.17,4.81,0,0-2.31,3.9,3.37,5.81C226.66,446.47,231.36,448,232.56,444.78Z"/><path class="cls-4" d="M232.16,444.36s4-5.44-2.89-8.24c0,0-3.74-3.29-5.75,4.45,0,0-2.16,3.59,3.14,5.36C226.66,445.93,231,447.33,232.16,444.36Z"/><path class="cls-9" d="M423.53,280.17s-14,16.17-2.48,15.37,2.61,5.76-1,4.45-10.1-1.53-8.88-5.51,7.24-15.58,9.3-15S423.44,278.49,423.53,280.17Z"/><path class="cls-9" d="M391.74,316.89s11.72-17.93.37-15.56-3.37-5.35.36-4.54,10.22.14,9.55,4.25-5,16.41-7.16,16.16S392.06,318.54,391.74,316.89Z"/><path class="cls-9" d="M406.85,322.53s.11-21.42,8.28-13.19,5.76-2.59,2.2-4-8.6-5.52-10.31-1.73-4.84,16.49-2.94,17.44S405.68,323.73,406.85,322.53Z"/><path class="cls-9" d="M405.52,274.79s1.23,21.38-7.44,13.68-5.59,2.95-1.95,4.11,8.94,5,10.4,1.08,3.8-16.76,1.84-17.59S406.62,273.52,405.52,274.79Z"/></g></svg>