<svg xmlns="http://www.w3.org/2000/svg" width="521.63" height="544.34" viewBox="0 0 521.63 544.34"><defs><style>.cls-1{fill:#eadf5c;}.cls-2{fill:#227d99;}.cls-3{fill:#bac9cc;}.cls-4{fill:#cc6b36;}.cls-4,.cls-5,.cls-6{opacity:0.5;}.cls-5{fill:#cea934;}.cls-6{fill:#bc4a1d;}</style></defs><g id="Layer_3" data-name="Layer 3"><path d="M58,314.24C86,448.1,237,509,350.78,469.37s189.06-111.46,167-243.14S334.81,33.4,221.33,76.91,30,180.38,58,314.24Z"/><path class="cls-1" d="M60.17,307.18C86.38,434.05,231.71,491,341.78,452.61S524.91,345.67,504.43,220.85,329,39,219.2,80.94,34,180.32,60.17,307.18Z"/><path d="M471.17,215.52c1.55-9.45,8.24-10.49,0-25.64,0,0,21.73,5.57,30.21,25.39,4.1,9.59-1.62,20.11-9.75,22.31-6.93,1.88-16.95-4.21-19.69-14.32A22.81,22.81,0,0,1,471.17,215.52Z"/><path class="cls-2" d="M472.46,215.21c1.46-8.87,8.08-10.32.33-24.54,0,0,20.07,5.71,28,24.31,3.85,9-1.53,18.88-9.16,21s-15.91-4-18.49-13.45A21.51,21.51,0,0,1,472.46,215.21Z"/><path d="M477.47,206.74c.65-1.66,1.91-1.58,1-4.65a9,9,0,0,1,4.49,5.78,3.08,3.08,0,0,1-2.64,3.67c-1.33.07-2.91-1.43-3-3.37A4.19,4.19,0,0,1,477.47,206.74Z"/><path class="cls-3" d="M477.72,206.73c.61-1.55,1.87-1.55,1-4.44a8.74,8.74,0,0,1,4.13,5.51,2.88,2.88,0,0,1-2.48,3.44c-1.46.08-2.73-1.34-2.83-3.16A4.24,4.24,0,0,1,477.72,206.73Z"/><ellipse cx="180.79" cy="342.9" rx="43.75" ry="62.6"/><ellipse class="cls-1" cx="178.46" cy="341.62" rx="38.6" ry="57.46"/><ellipse cx="218.91" cy="344.37" rx="41.91" ry="62.38"/><ellipse class="cls-1" cx="218.91" cy="342.9" rx="38.6" ry="57.46"/><path class="cls-4" d="M79.62,30a167,167,0,0,0-9.81,37.44c-4.3,30,3.88,47.18-37.21,61.14,0,0,2.32,56.16-32.6,59.77,0,0,39.94,69.51,9.1,99,0,0,43.77,41,11.9,69.9,0,0,52.52,49.73,40.72,144.69,0,0,114.73-19.36,127.3,42.43,0,0,113.15-79.34,147.17-5.13,0,0,34.1-74.58,70-49.3,0,0,36.59-147,76.75-131.44,0,0-18.85-62.19,4.28-138.07,1.77-5.79-96.61-107.93-60.66-160.65,0,0-128.34,55.93-153.48-36.54,0,0-37.74,44.4-89.5-23.21C183.58,0,187.7,148.26,79.62,30Z"/><path class="cls-5" d="M176.79,49.57a122.86,122.86,0,0,0-20.25,25.57C143.6,96.82,146,112.93,103.89,109.63c0,0-14.65,44.2-48,35,0,0,16.11,67.42-21.2,79.64,0,0,28.18,46.69-9.9,58.12,0,0,33.64,56.45-5.64,125.79,0,0,111.75,24.39,104.88,76.46,0,0,128.23-22.5,137.45,46.52,0,0,53.79-45.95,79.4-14.1,0,0,77.74-101.07,110.17-75.26,0,0,1.19-54.53,45.23-105.24,3.37-3.87-57-116.56-8-145,0,0-135.25-.79-130.82-80.88,0,0-48.13,21.37-75.73-48.64C281.75,62.08,241.24,178.08,176.79,49.57Z"/><path class="cls-6" d="M167.65,92.63a101.9,101.9,0,0,0-16.57,21.07c-10.59,17.84-8.67,31.07-43,28.46,0,0-12,36.36-39.19,28.89,0,0,13,55.35-17.47,65.49,0,0,22.84,38.29-8.22,47.77,0,0,27.28,46.3-4.91,103.36,0,0,91,19.77,85.29,62.57,0,0,104.56-18.81,111.91,37.87,0,0,43.95-37.88,64.74-11.78,0,0,63.62-83.23,90-62.11,0,0,1.1-44.8,37.13-86.57,2.75-3.19-46.14-95.63-6.17-119.09,0,0-110.22-.32-106.42-66.13,0,0-39.28,17.67-61.59-39.78C253.17,102.65,219.86,198.06,167.65,92.63Z"/></g></svg>