<svg xmlns="http://www.w3.org/2000/svg" width="510.99" height="544.46" viewBox="0 0 510.99 544.46"><defs><style>.cls-1{fill:#657a7f;}.cls-2{fill:#b0c6cc;}.cls-3{fill:#7cb4c1;}.cls-4{fill:#93a1aa;}.cls-5{fill:#678291;}.cls-6{fill:#425b66;}.cls-7{fill:#264854;}.cls-8{fill:#050101;}.cls-9{opacity:0.5;}.cls-10{fill:#8cc9ea;opacity:0.1;}.cls-11{fill:#8ecced;opacity:0.05;}</style></defs><g id="Layer_3" data-name="Layer 3"><path class="cls-1" d="M159.53,0s-16.84,74.33-44.82,88.47c0,0-55.5,22.24-67.67,14.84,0,0-24.13,125.06-47,136.67,0,0,20.35,125.92,7.74,150.45,0,0,88.64,65,89.71,95.05,0,0,124.28,30.92,129.44,59,0,0,19.36-55.68,93.42-41.58,0,0,72.06-84.7,117.15-54.48,0,0,20.24-120.26,70.63-122.28,0,0-23.53-78.66,2.9-108,0,0-60-95.62-35.35-127.67,0,0-99.23-18.1-139.08-47.8C336.56,42.6,208.25,48.22,159.53,0Z"/><path class="cls-2" d="M112.37,50.22s-5.82,74.41-27.29,92.63c0,0-43.8,31.1-56,27.2,0,0,5.2,114.3-12.36,129.27,0,0,44.24,105.71,38.38,129.79,0,0,96.85,45.95,104.1,72,0,0,113.57,2.6,124,26,0,0,13.4-54.58,81.06-57.83,0,0,51.09-97.66,96.84-80.75,0,0-10.41-115.15,33.18-127.51,0,0-32.53-67-15.62-98.24,0,0-79-69-64.26-102.15,0,0-112,12.36-131.2-15C283.19,45.67,165.06,82.1,112.37,50.22Z"/><path class="cls-3" d="M70.74,114.4s16.63,66.9,3.13,89.14c0,0-29.32,40.05-41.15,40.19,0,0,37.94,98.65,26.91,116.89,0,0,69.65,79.72,71.55,102.53,0,0,98.32,12,112.27,32.67,0,0,100.33-30.89,116.29-13.4,0,0-4.19-51.75,54.18-74.36,0,0,16.28-100.51,61.32-99.05,0,0-42.75-97.87-8.14-121.44,0,0-48.09-49.22-42.38-81.53,0,0-89.42-37.35-86.15-70.74,0,0-94.55,43.54-119.4,25.21C219.17,60.51,126.25,126.94,70.74,114.4Z"/><path class="cls-4" d="M260.7,80.18s78.24-7,127.76,35.3c2.36,2,8.07,1.56,10.76,3.22,8.67,5.35,13.86,11,19.37,18.51,14.32,19.37,4.71,16.25,9.4,23.28,14.29,21.41,27.49,47.28,26.16,81.87v.06c.1,3,7,219.39-238.4,226.38a1.1,1.1,0,0,1-.31,0c-5.92-1.71-182.4-54-156-221.12,0,0,0,0,0-.09C60.22,244.47,102.54,75,260.7,80.18Z"/><path class="cls-5" d="M304.85,85.42S270,95.54,266.14,117.66c0,0-5.21,47.5,0,59.21,0,0,1.88,35.13-2.31,36.43,0,0-15.09-56.6-17.78-35.13,0,0-17.53-35.78-25.72-20.82,0,0-28.36,41.64-27.06,46.84,0,0-38.11-76.77-36.29-40.33,0,0-48.15-.37-44,35.27,0,0-27.07,48.58-41.38,21,0,0-5.2-46.48,83.6-107,0,0,53.33-40.11,118.07-32.38Z"/><path class="cls-6" d="M294.11,83.57S263.7,91,260.29,107.07c0,0-4.54,34.62,0,43.16,0,0,1.65,25.61-2,26.56,0,0-13.18-41.26-15.52-25.61,0,0-15.32-26.09-22.47-15.18,0,0-24.78,30.35-23.64,34.15,0,0-33.29-56-31.71-29.41,0,0-42.06-.26-38.42,25.72,0,0-23.65,35.41-36.15,15.28,0,0-4.55-33.88,73-78,0,0,46.59-29.24,103.14-23.6Z"/><path class="cls-7" d="M280.8,83.27c-10.75,2.27-23.05,5.26-29.24,15-1.46,8.66-3.38,18.34-.15,26.74.35,4.68,1.82,12.79-1.77,16.38-1.64-3.65-9-22.66-13.32-15.92-4.74-5.48-11.77-13.71-19.45-10.07-6.8,5.62-16.49,12.36-19.89,20.72-4.16-4.67-23.89-31.77-26.42-17.89-18.29,3.44-43.32,13.59-47.33,32.64-8.28,10.61-12.1,23.88-26.33,16.67-4.6-19.24,58.5-65.24,70.48-72.13,26.43-13.67,60.42-15,89.42-13.73Z"/><path d="M146.85,96.79c-.17,5.92,22.49,4.72,23.63,2.82s20.85-17.19,16.28-19.8c-1.92-1.09-5.7-1-10.3,1.6-4.17,2.3-8.35,2.89-11,4.68-2,1.37-2.89,1.24-9.36,4.78C151.92,93.17,146.94,93.69,146.85,96.79Z"/><path class="cls-4" d="M146.57,97s11.27,20.81,4.12,25.59c0,0,32.74,2.6,52.26-20,0,0-14.24-12.21-15.47-22.26,0,0-7,12-15.9,15.47C162.47,99.33,152.21,104.32,146.57,97Z"/><path class="cls-5" d="M208,465.69s29.72-69.69,31.2-87.9c0,0,8.41,6.07,8.7,13,0,0,17.93-32.36,12.43-47.12,0,0,11,10.4,9,17.91,0,0,6.36-41.35,7.8-40.48,0,0,5.21,32.68,15.33,42.8,0,0,14.37-39,8.49-63.62,0,0,17.82,11.28,23.61,41.06,0,0,4.33-6.77,4.62-12.92,0,0,5.79,28,36.72,40.1,0,0,15-13.3,14.59-20.82,0,0,12.31,18.93,17.37,23.2,0,0,19.22-15.68,18.07-31.29,0,0,6.58,12.55,12.95,10.82,0,0-31,61.14-79.53,85.14C349.35,435.58,244.08,481.09,208,465.69Z"/><path class="cls-6" d="M226.52,468.8s26.72-59,27.95-72.42c0,0,7,4.48,7.22,9.6,0,0,14.89-23.87,10.33-34.75,0,0,9.12,7.66,7.44,13.21,0,0,5.28-30.5,6.49-29.86,0,0,4.32,24.1,12.72,31.56,0,0,11.94-28.79,7.05-46.91,0,0,14.8,8.31,19.6,30.28,0,0,3.61-5,3.85-9.53,0,0,4.8,20.62,30.49,29.58,0,0,12.47-9.81,12.12-15.36,0,0,10.21,14,14.41,17.11,0,0,16-11.56,15-23.08,0,0,5.85,10.17,11.14,8.89,0,0-26.15,44.19-66.42,61.89C345.92,439,260,470.48,226.52,468.8Z"/><path class="cls-7" d="M248.51,466.49s21.33-45.06,22.22-55.23c0,0,5,3.39,5.22,7.26,0,0,10.75-18.06,7.45-26.31,0,0,6.59,5.81,5.38,10,0,0,3.81-23.09,4.68-22.61,0,0,3.12,18.25,9.19,23.9,0,0,8.62-21.8,5.09-35.52,0,0,10.69,6.3,14.15,22.92,0,0,2.6-3.78,2.78-7.21,0,0,3.47,15.61,22,22.39,0,0,9-7.43,8.75-11.62,0,0,7.37,10.57,10.41,12.95,0,0,11.53-8.76,10.83-17.47,0,0,9.91,14,13.72,13.05,0,0-24.55,27.13-53.64,40.53C336.76,443.53,278.87,464.75,248.51,466.49Z"/><path class="cls-5" d="M414.87,277.49c-2.46-6.18-4.56-10.33-17-20.47.26,14.71-2.56,28.78-4.44,43.27C389.88,286.5,386.21,274,380.53,261c-11.31,17.61-21.53,19.46-37.13,31.15,2.13-13.43,17.56-23.69,20.8-47.72-9.75,2-26.52,2.13-36.71,1.31,9.64-8.05,16.5-16.94,24.29-26.63-11.33-7.45-18.87-6-31.52-22.36a3.77,3.77,0,0,1,3.83-6c9.2,2.12,19,4.93,27.68,5.24a79.31,79.31,0,0,0-12.48-16.34,4.41,4.41,0,0,1,5-7.07c5.57,2.45,11.2,4.91,17.29,8-3.85-13.19-8.68-13.8-13-31.44,8.48,12.35,18.79,16.41,28.64,27.7,1.47-8.73.81-18.13,4.21-26.26.8,11.39,7.47,24.51,10.14,35.61,3.11-1.74,5.49-3,7.72-4.48a3.38,3.38,0,0,1,5.26,2.72c.18,5.5.84,9.47-.76,16.92,4.9.86,8.43,1.88,12.34,2.46a4.56,4.56,0,0,1,3.35,6.69c-2.08,3.78-3.36,7.58-6.77,10.41,6.37,6.73,8.1,16.1,12.34,23.95a2.5,2.5,0,0,1-3.53,3.3c-3.75-2.32-7.25-4.77-12.43-5.66,5.57,15.54,8.19,22.49,10.53,33.57A2.47,2.47,0,0,1,414.87,277.49Z"/><path class="cls-6" d="M406.66,257.8c-1.72-4.3-3.18-7.19-11.81-14.25.18,10.24-1.78,20-3.09,30.12a180.76,180.76,0,0,0-9-27.37c-7.88,12.26-15,13.54-25.85,21.68,1.48-9.34,12.22-16.49,14.48-33.22-6.79,1.43-18.46,1.48-25.55.91,6.71-5.6,11.48-11.79,16.9-18.54-7.88-5.18-13.13-4.19-21.94-15.56a2.63,2.63,0,0,1,2.67-4.17c6.4,1.48,13.19,3.43,19.27,3.65A55.86,55.86,0,0,0,354,189.67a3.07,3.07,0,0,1,3.47-4.91c3.88,1.7,7.79,3.42,12,5.57-2.68-9.19-6-9.61-9.06-21.89,5.9,8.59,13.08,11.42,19.94,19.28,1-6.08.56-12.62,2.93-18.28.56,7.93,5.2,17.07,7,24.79,2.17-1.21,3.83-2,5.38-3.11a2.35,2.35,0,0,1,3.66,1.88c.13,3.84.59,6.6-.53,11.78,3.42.6,5.87,1.31,8.59,1.72a3.17,3.17,0,0,1,2.34,4.65c-1.45,2.63-2.34,5.28-4.72,7.25,4.44,4.69,5.64,11.21,8.59,16.67a1.74,1.74,0,0,1-2.45,2.3c-2.61-1.61-5.05-3.32-8.65-3.94,3.87,10.82,5.7,15.66,7.32,23.37A1.72,1.72,0,0,1,406.66,257.8Z"/><path class="cls-7" d="M404.72,251.73c-1.46-3.7-2.68-6.2-9.56-12.45.46,8.68-.75,16.93-1.45,25.45a173.53,173.53,0,0,0-7.81-23.5c-5.7,10.16-11.15,11-19.29,17.59.86-7.88,8.93-13.6,10.16-27.72-5.2,1-14.22.68-19.71,0,5-4.55,8.5-9.64,12.48-15.2-6.25-4.64-10.27-4-17.43-13.88-1.23-1.7.06-4,1.93-3.45,5,1.46,10.3,3.32,15,3.7a52.2,52.2,0,0,0-7.07-9.92c-1.85-2.14.12-5.31,2.53-4.07,3.05,1.57,6.13,3.15,9.47,5.1-2.36-7.87-5-8.34-7.68-18.84,4.83,7.47,10.46,10.09,16,17,.6-5.12,0-10.69,1.69-15.41.68,6.74,4.55,14.63,6.22,21.24,1.63-1,2.89-1.62,4.06-2.48s2.78.15,2.88,1.72c.22,3.25.66,5.61,0,10,2.65.62,4.57,1.29,6.69,1.72a2.93,2.93,0,0,1,1.94,4c-1,2.19-1.64,4.41-3.42,6,3.58,4.11,4.71,9.68,7.16,14.41.7,1.35-.64,2.71-1.83,1.87-2.06-1.45-4-3-6.8-3.61,3.32,9.29,4.89,13.45,6.38,20.05A1.3,1.3,0,1,1,404.72,251.73Z"/><path class="cls-5" d="M394.09,245.27c-.3-2.71-.55-7.55,1.16-9.5a31.92,31.92,0,0,0,5.43-6.18c1.71-2.45,1.49-3.36,2.34-6.55,1.06-4-.19-10-1.78-14.82-2-6-9.15-9.81-16.09-9.24,0,0-4.36-.17-10.2-6.9a1.07,1.07,0,0,0-1.8.25c-1.95,4.24-6.69,16.8-1.62,29.77,0,0,8.43,17.48,21.05,24.22A1,1,0,0,0,394.09,245.27Z"/><path d="M401.07,212.14c1.15,5.37,2.65,15-3.48,17.92S386,223.52,384.9,217.59s-4.85-14.58,2.65-16.3S399.92,206.76,401.07,212.14Z"/><path d="M153,329.48c.93.73,3.79,3.8,4.5,3.86a3.13,3.13,0,0,1,1.7.92c3.55,3.32,6.75,8.2,4.46,9.4,0,0-4.81,5.31-10-3.79l-1-1.57C149.51,334.39,149.4,326.7,153,329.48Z"/><path d="M109.69,342.93c3.91,1.68,8,6.56-.47,19.83a7.22,7.22,0,0,0,2.26,10.07c2.32,1.38,6,2.31,11.75,2a3.35,3.35,0,0,1,3.38,2.52c.88,3.48,2,10.6,1.66,23a.64.64,0,0,0,.25.54c1.81,1.34,12.39,8.6,19-.46a.66.66,0,0,1,1-.1c2.09,2,8.55,10.17,14.73,1.14a13.49,13.49,0,0,0,1.38-2.25c-.17-.48.14-.51.12-1.68a.68.68,0,0,1,1.26-.39c1.4,2.18,3.18,4.95,3.23,5,1.3.78,12.49,6.28,15.12-5a.65.65,0,0,1,1.21-.17c2.05,3.83,7.64,11.62,15.57,2.17a4,4,0,0,0,.66-4,79.8,79.8,0,0,1-4.37-15.8.29.29,0,0,0,0-.09c-.31-.85-5.2-14.6,3.49-11.52,0,0,19.78,6.88,13.1-7.33a.59.59,0,0,0-.26-.28c-1.26-.69-9.29-5.51-7.32-15.11a.65.65,0,0,0-.25-.66c-1.56-1.12-7.92-5.42-6.14-.33,2,5.78,4.63,14.17,8.1,17.06,0,0,8.64,8.93-5.13,4.07a.4.4,0,0,0-.15,0c-1.06,0-13.6-.35-8.89,10.13,0,0,10.31,25.89,1.55,24.37-.22,0-3.46,1.81-9.56-6a.53.53,0,0,0-.91.12c-2.74,6.88-15,14.17-18.84-.09,0,0-1.29-2.72-3-2.28a1.7,1.7,0,0,0-1,2.32c1,2.35,2.51,8-5.15,9a.54.54,0,0,1-.18,0,12.6,12.6,0,0,1-9.39-8.87.65.65,0,0,0-1.25,0c-1.15,3.61-4.32,9.41-12.6,7.39a.65.65,0,0,1-.36-.22c-.41-.53-1.4-2.47-1.68-9.2v-.1c.16-.88,2.39-14.29-1.6-18.71,0,0-.75-3.23-5.14-2.83l-.11,0c-1,.31-19.17,5.47-10-11.9l0-.07c.39-.53,5.57-8,1.78-15.26a.9.9,0,0,0-.15-.19,19.58,19.58,0,0,0-5.5-3.43C108.67,338.52,107.44,342,109.69,342.93Z"/><path d="M210.47,270.51s20.76-1.08,21,25.7a.44.44,0,0,1,0,.2c-.1.56-.49,3.75,2.63,11,0,0,10.18,20.35-18.15,19.3h-.12c-4-.11-45.6,6.78-37.64-27.94,0-.15.73-5.57,4.51-8.94a11,11,0,0,0,2.8-4C187.55,280.86,193.86,270.34,210.47,270.51Z"/><path d="M115.78,272.5c10.85,11.36,26.49,22.64,5.36,43.89a9,9,0,0,1-6.2,2.67c-10.52.2-39.79-2.13-25.87-35.59a9.8,9.8,0,0,1,2.5-3.56,99.6,99.6,0,0,1,12.07-8.86A10,10,0,0,1,115.78,272.5Z"/><path class="cls-8" d="M133.05,418.85s3.9,16.26,8.46,17.78c0,0,20.38-3.69,29.71-1.95,0,0,22.55,2.6,26.45-2.82,0,0,3.69-14.32,0-16.48,0,0-5.63-4.78-9.1-2.39,0,0-3,4.77-2.17,7.37,0,0,.68-8.92-9.21-8,0,0-8.45-.85-11,7.61,0,0,.7-11.65-8-7.67,0,0-3.47-.79-5.43,7.67,0,0-.43-12-11.49-8.5C141.29,411.43,132.05,415.17,133.05,418.85Z"/><path class="cls-5" d="M134.89,420s3.71,13.75,7.81,14.75c0,0,19.69-3.31,28.08-2.17,0,0,22.08,2.25,25.59-1.3,0,0,3.86-12.46.55-13.88,0,0-4.69-4.28-7.81-2.71,0,0-3.21,4.55-2.43,6.26a10.78,10.78,0,0,0-11.23-7.35s-6.48,1.54-7.7,7.19c-.19.86-1.66.38-1.87-.47-.56-2.3-3.2-7.86-7.89-6.29a8.1,8.1,0,0,0-4.34,6.6c-.06.55-1.62.78-1.73.24-.49-2.37-2.66-9.09-9.11-7.59C142.81,413.32,134,417.63,134.89,420Z"/><path d="M139.27,330.94c-.78.9-2.66,4.27-3.55,4.57a3.26,3.26,0,0,0-1.65,1.3c-2.64,3.81-3.89,8.69-.23,8.81,0,0,9.36,2.4,10.66-6.42,0,0,.34-1.54.34-1.56C146.61,333.52,142.21,327.56,139.27,330.94Z"/><path d="M233.13,254.37a.82.82,0,0,1,.73.88c-.1,3.11-2.15,18.35,8.52,20.68,0,0,5.18-.13,5.07,18.44a7.63,7.63,0,0,0,.67,2.27c.82.79,2.84,2.76,2.69,3.15,0,0-6,1.59-6.41-12.65a7.63,7.63,0,0,1,.29-2.08c.47-1.5.71-4.82-1.47-6.09,0,0-12.36-1.3-11.71-16.48C231.51,262.49,231,254.28,233.13,254.37Z"/><path d="M78.05,254.56a.66.66,0,0,0-.47.79c.74,2.07,3.93,12.4-5,16.88,0,0-2.84.69,1.11,13.15a5,5,0,0,1-.12,1.72c-.57.75-2,2.63-1.74,2.85,0,0,5.63-.56,3.06-10.26a4.3,4.3,0,0,0-.68-1.33,2.51,2.51,0,0,1-.19-.24,3.32,3.32,0,0,1,1.25-4.75c2.58-1.37,6.73-4.78,5.94-13.79C81.17,259.58,80,253.91,78.05,254.56Z"/><g class="cls-9"><path d="M155.48,120a263.62,263.62,0,0,1,58.22-1.56,323.55,323.55,0,0,1,41.6,6.15l5.4-46.4c-56.32-1.84-97.95,18.47-128.25,45.52C140.13,122.5,147.78,121.1,155.48,120Z"/><path d="M310.81,141c28.34,10.58,56,23.51,80.88,40.81,23.37,16.24,43.69,35.84,62.5,57,.88-33.79-12.13-59.21-26.2-80.3-4.69-7,4.92-3.91-9.4-23.28-5.51-7.46-10.7-13.16-19.37-18.5-2.69-1.66-8.4-1.21-10.76-3.23C338.94,71.2,260.7,78.21,260.7,78.21l-5.37,46.41A391.73,391.73,0,0,1,310.81,141Z"/><path d="M165.47,84.12c-2,1.38-2.89,1.24-9.36,4.79-4.19,2.29-9.17,2.82-9.26,5.91-.17,5.93,22.49,4.72,23.63,2.83s20.85-17.2,16.28-19.8"/><path d="M150.69,120.57l.84,0c1.31-.2,2.63-.41,3.95-.59,6-.85,11.93-1.46,17.9-1.87,9.8-2.54,21-7.6,29.57-17.53,0,0-14.24-12.22-15.47-22.27,0,0-7,12-15.9,15.47-9.11,3.54-19.37,8.53-25,1.16C146.57,95,157.84,115.8,150.69,120.57Z"/></g><g class="cls-9"><path d="M142.11,127.4c20,.68,39.8,2.25,59.42,6.44a267.88,267.88,0,0,1,50.61,16.42l8.4-72.12c-58.7-1.92-101.44,20.22-132,49C133.06,127.14,137.6,127.25,142.11,127.4Z"/><path d="M379.31,238.3c23.15,21.4,44.39,44.94,65.34,68.52,10.28-36.64,9.37-65.36,9.33-66.44v-.06c1.34-34.59-11.86-60.46-26.15-81.88-4.69-7,4.91-3.9-9.4-23.27-5.51-7.46-10.7-13.16-19.37-18.51-2.69-1.66-8.4-1.2-10.76-3.22-49.52-42.32-127.76-35.3-127.76-35.3l-8.34,72.14C299.52,170.84,341.8,203.66,379.31,238.3Z"/><path d="M165.31,84.05c-2,1.37-2.89,1.24-9.36,4.78-4.19,2.29-9.17,2.82-9.26,5.92-.17,5.92,22.49,4.72,23.63,2.82s20.85-17.19,16.28-19.8"/><path d="M187.32,78.28s-7,12-15.9,15.47c-9.11,3.54-19.38,8.53-25,1.15,0,0,11.28,20.82,4.12,25.59,0,0,32.75,2.61,52.27-19.95,0,0-14.24-12.21-15.47-22.26"/></g><path class="cls-10" d="M276.07,386.33c-31.79-16.05-62.2-34.21-90.25-56.21-45.3-35.52-84.36-81.46-107.07-134.65-13.63,27.32-19,48.8-19.26,49.88,0,0,0,.06,0,.09C32.8,414.24,211.06,467,217.05,468.76a1.06,1.06,0,0,0,.31,0c65.4-1.87,113.05-18.46,147.77-41.92C334.87,414.71,305.17,401,276.07,386.33Z"/><path class="cls-11" d="M238.84,296.46c-46.67-16.94-133.12-139-133.91-140-33.41,43.68-45.07,90.38-45.47,92,0,0,0,.06,0,.09C33,415.7,209.52,468,215.44,469.68a1.1,1.1,0,0,0,.31,0c133.77-3.81,192.56-69.86,218.36-129.64C422.27,341,369.86,335.49,238.84,296.46Z"/></g></svg>