<svg xmlns="http://www.w3.org/2000/svg" width="1422.44" height="723.93" viewBox="0 0 1422.44 723.93"><defs><style>.cls-1{opacity:0.3;}.cls-2{stroke:#000;stroke-miterlimit:10;}.cls-3{fill:#6cd362;}.cls-15,.cls-19,.cls-4{opacity:0.3;}.cls-5{fill:#ba3a59;}.cls-6{fill:#020202;}.cls-7{opacity:0.2;}.cls-8{fill:#fff;}.cls-9{fill:#ffd9f8;}.cls-10{fill:#f9f;}.cls-11{fill:#7c2268;}.cls-12{fill:#050505;}.cls-13{fill:#ffef7d;}.cls-14{fill:#726a3b;}.cls-16{fill:#070707;}.cls-17,.cls-20{opacity:0.4;}.cls-18,.cls-19,.cls-20{fill:#d35224;}</style></defs><g id="Layer_3" data-name="Layer 3"><g class="cls-1"><path class="cls-2" d="M1265.62,489.83h0a2.94,2.94,0,0,0,.13-.44,2.76,2.76,0,0,0-.08.27c0-.09,0-.18.08-.28h0c.44-1.51.87-3,1.3-4.52-1.09-.62-1.06,1.65-1.18,3.4-.18.17-.13,1-.22,1.44l0,.12Z"/><path class="cls-2" d="M1396.19,661.47c-7.19-29.72-157.63-78.55-169.93-74.14-27.93-.36-56.69-21.08-82.38-26.23-9.78-6.46-20.28-13.11-31.32-19.8a28.21,28.21,0,0,0,1-2.8,35.68,35.68,0,0,0,7.43-2c.45-.15.88-.31,1.27-.47s.63-.35.93-.54c5-2.6,7.46-6.31,8.08-10.48l0-.13a26.67,26.67,0,0,0,6.24,2.75c3.82,2.57,9.48,4.41,13.18,4.45,23.53-3.3,21-16.16,9.18-27a199,199,0,0,0,16.9,5.09,40.63,40.63,0,0,0,15.13,1.71c22.73-4.55,12.15-16-6.6-24.23a92.87,92.87,0,0,0,19.14,2.44c1.75.21,3.52.37,5.33.48a85.88,85.88,0,0,0,18.54.18c15.31-7.44-16-17.81-47.21-22.5.37-.07.76-.17,1.18-.29,1.4.17,2.84.36,4.29.57a11.72,11.72,0,0,0,3.89-.74l.66.09c3.08.22,10.79-3.49,12.7-4.41,6.58-7.17-6.1-13-17.12-15.45a40.7,40.7,0,0,0,6.86-4.12c-1.79-14.76-49.46-10.24-71.11-1.2.33-.34.64-.68,1-1a37.69,37.69,0,0,0,5-6.12,16.21,16.21,0,0,0,2.49-4.72c6.45-15.8-6.28-30.42-33.25-25-.45.49-.84,1-1.2,1.45a22.21,22.21,0,0,0-2.57-7.24c-1.86-5.33-5.15-9.58-9.85-11.84l-.86-.8c-3.26-2.5-16.19-2.38-21.81,2.72l-1.06.5c-2.14.94-2,4.36-1.57,5.62v0c.18.42.33.84.48,1.25,0,.13,0,.25,0,.37-1.51,1.11-1.4,3.88-1,5l0,.07c2.73,4.81,2.44,9,1.84,12.66-.56,1.76-1.22,3.47-1.91,5.11-6.39-7.46-20.21-15.22-19.3-13.1-15.14-6.7-33.53-8.66-45-.05a1.28,1.28,0,0,0-.27.82c-3.28-.9-6.91-1.83-11-2.82-6-.13-23.71,0-20,7.3a89.13,89.13,0,0,0,11.42,6.31c2.33,1.48,4.6,2.75,6.84,3.88-18.41-2.54-40-1.28-53.66,8.29-6.9,5.58-3.18,7.37,1.6,8,.3,1,1.56,1.67,3.21,2.07.55,1.19,2.57,1.77,4.85,2.08-10.25.88-19.24,3-24.36,6.87-31.78-8.49-61.21-12.24-85.32-8.78C705,432,563.81,324.88,402.5,383.47c80.73,63.17,282.84,124.26,407.06,93a68.1,68.1,0,0,0,4.68,5.41c3.48,59.92-94.84,92.44-94.84,92.45C515.76,628.09,527.5,560.9,382.1,591c30,86.7,137.63,105.18,137.63,105.17,107.8-62.85,199.69-16.55,287.4-53.87,95.38-49.92,245.9-33.06,313.06-45,37.38,88,219.6,96.08,293.34,101.51C1430.8,689.57,1419.71,675.76,1396.19,661.47ZM1017.1,440.73ZM1132.81,478a1.81,1.81,0,0,0,.09-.31l1.94.5H1136c-1.08,0-2.13.12-3.14.24C1132.82,478.28,1132.82,478.13,1132.81,478Zm-141-30-1.34.68a55.94,55.94,0,0,0-6.56-1.95C986.44,447.15,989.05,447.58,991.78,448Z"/></g><path d="M568.42,149s86.55,23.72-6.66,126.64c0,0-34.14,83-10,174.27a97.67,97.67,0,0,1,1.59,43.22c-4.4,23-8.62,29.19-22.75,55.27,0,0-41.42,96.57-4.8,144.72,0,0-67.56,60.26-208.49,12.11,11.87-42.5,23.41-94,82.81-133.51,0,0,24.68-7.55,17.44-114.79,0,0-12.21-94.42-103.2-139.74,0,0-50.55-2.84-55.79-25.5,0,0-5.24-65.12,63.56-78.83S458.56,150.82,568.42,149Z"/><path class="cls-3" d="M561.45,152.41c11.25,4.18,69.44,31.17-6.86,120.82a9.28,9.28,0,0,0-1.64,2.84c-4.51,12.54-32.21,95.93-4.12,183a9.31,9.31,0,0,1,.38,4.06c-1.49,11.6-9.47,68.16-25.34,86.55a9,9,0,0,0-1.55,2.58c-4.64,11.73-32.59,86.51-8.59,130.85a9.24,9.24,0,0,1-3,12c-19.17,13-77.38,42.54-177.09,9.06a9.26,9.26,0,0,1-6.12-10.63c4-19.48,18.24-70.25,62.49-105.1a7.11,7.11,0,0,1,.65-.47c4.36-2.86,55.52-38.79,30.43-137.39a8.63,8.63,0,0,1-.19-1c-1-7-14.44-91.56-93-133.95a9.27,9.27,0,0,0-3.56-1.08c-8.43-.76-43.58-5-49.12-23.26a9.55,9.55,0,0,1-.39-2.38c-.28-8.41.15-63,58.46-75.26C396.18,200.45,458.05,154,558,151.83A9.2,9.2,0,0,1,561.45,152.41Z"/><path class="cls-4" d="M561.45,152.41a9.2,9.2,0,0,0-3.41-.58c-65,1.43-113.87,21.53-157.39,39.06,1.37.47,2.73,1,4.08,1.46,2.59,1,5.13,2.11,7.68,3.18s5,2.05,7.47,3.22a39.5,39.5,0,0,1,5,2.85c4.47,3,8.63,6.48,12.79,9.9a47.57,47.57,0,0,1,4.4,4.12c1.43,1.51,2.76,3.09,4,4.73,3.44,4.41,7,8.76,10.09,13.44A138.35,138.35,0,0,1,467.68,256c4.39,10.39,8.79,20.75,12.46,31.42,1,2.81,1.89,5.65,2.78,8.49l.91,1.62c5.95,10.71,10.75,21.93,15.42,33.25A225.74,225.74,0,0,1,508,356.24a228.78,228.78,0,0,1,5.67,26.27,326.88,326.88,0,0,1,4,36.78c.86,21.38-1.43,43-5.67,64s-11.84,41-21.19,60.13c-10.17,20.79-25,39.15-40.07,56.57-2.2,2.55-4.43,5.08-6.66,7.61A31.28,31.28,0,0,1,440,619.22c-.24.88-.46,1.76-.65,2.65-.89,13.18.79,26.54,2.53,39.56q-.75-5.64-1.51-11.27,1.34,9.9,2.61,19.8a86,86,0,0,0,3.42,14.27c1,2,2.17,3.95,3.39,5.84a76.24,76.24,0,0,0,5.73,5.64,112.43,112.43,0,0,0,15.45,8.66c4.22,1.62,8.51,3.08,12.83,4.43a128.54,128.54,0,0,0,27-13.7,9.24,9.24,0,0,0,3-12c-24-44.34,3.95-119.12,8.59-130.85a9.28,9.28,0,0,1,1.55-2.58c15.87-18.39,23.85-74.95,25.34-86.55a9.31,9.31,0,0,0-.38-4.06c-28.09-87-.39-170.42,4.12-183a9.28,9.28,0,0,1,1.64-2.84C630.89,183.58,572.7,156.59,561.45,152.41Z"/><path d="M432,240.55s14.73,29.33,13,41c0,0,.39,12.86-13,19.72,0,0-6.72-1,2.87-8.24,0,0,10.53-5.45,6.12-24C441,269,425.5,235.58,432,240.55Z"/><path class="cls-5" d="M383.05,300.4c5.63,1,14.94,3.58,5.91,8.93-2.4,1.43-7,3.49-9.79,3-5.65-.95-12.31-5-3.08-10.64A10,10,0,0,1,383.05,300.4Z"/><path class="cls-6" d="M350.24,298.28s4.08,18.07,8.16,20.58c0,0,41,4.23,43,2.4,0,0-1.53-3.43-4.72-3.2,0,0-33.77.8-35.3-1.14C361.33,316.92,352.66,295.2,350.24,298.28Z"/><path class="cls-6" d="M435.76,351.86c1.59-.32,16.92,12.35,32.13-12.64.16-.26-.09-.58.06-.84,2.14-3.77.95-3.29-2.79-10.6-1.39-2.73-3.27-5.41-4.84-11.36,0,0,.45-6,3.31-.38,0,0,10.38,18.17,10.84,20.89a1,1,0,0,0,.42.64c3.51,2.38,26.87,17,30.21-14.54a1.13,1.13,0,0,1,1.7-.74c1.65,1,1,8,.94,8.08-.26.58-.49,12-17.93,17.07-2.38.69-9.18-1.83-14.28-5.11a5.11,5.11,0,0,0-3.14-.38c-3,1.51-2.21,2.36-7.57,7.78-.19.19-7.48,6-7.77,6-11.83,2.4-16.05,5-22.72-1.16l-.07-.08C434,354.2,431.88,352.65,435.76,351.86Z"/><path class="cls-6" d="M452,373.12c1.21-.2,13.72,16.55,27-4.38.13-.21,0-.5.1-.72,1.88-3.17.95-2.81-1.34-9.34-.85-2.44-5-11.29-5.76-16.53,0,0,1-3.5,2.76,1.56,0,0,9.2,21,9.36,23.37a.78.78,0,0,0,.27.58c2.47,2.25,19.41,13.59,24.19-13.59.11-.64,1.46-.39,2,0,1.18.94-.85,8.92-.88,9-.24.49-1.23,10.42-14.73,13.91-1.84.48-6.79-2-10.39-5.14a3.32,3.32,0,0,0-2.34-.49c-2.34,1.16-1.84,1.94-6.26,6.37-.16.16-6.07,4.83-6.29,4.86-9.09,1.49-12.9.09-17.49-5.56C452.14,377,449.05,373.62,452,373.12Z"/><path class="cls-6" d="M460.06,394.73c1,0,6.87,15.33,20.76-.5.15-.16.88-3.15,0-8.84-.32-2.12-.08-9.6.09-14,0,0,1.34-2.79,2,1.6,0,0,2.28,20.22,2.39,20.36,1.67,2.15,18.33,17,26.3-5,.08-.22.21-.38.65,1.22.29,1.08.77,2.41.75,2.44-.26.38-4.16,10.33-15.63,11.66-1.57.18-8.32-3.2-10.77-6.19a2.66,2.66,0,0,0-1.83-.67c-2.06.69-1.78,1.39-6,4.55-.15.12-6.59,2.68-6.78,2.69-7.59.18-9.52-.8-12.39-6C459.56,398,457.56,394.8,460.06,394.73Z"/><path class="cls-6" d="M480.82,398.72s-.28,13.58,1.51,12.78,2.21-5,2.12-8.14,0-7.83,0-7.83S480.25,397.75,480.82,398.72Z"/><path d="M468.78,290.68s32.7-.58,47.65,26.7c.58,1.06,4.29,7.48,1.86,7-3.42-.73-8.89-10.84-12.13-12.59a.12.12,0,0,1-.06-.06,56.35,56.35,0,0,0-12.85-11.3C485.1,295.09,453.42,291.2,468.78,290.68Z"/><path d="M430.73,312s-22.4,17.68-12.94,45c.37,1.07,2.47,7.61,3.73,5.91,1.78-2.4-1.77-12.5-.85-15.51a.25.25,0,0,0,0-.08,44.34,44.34,0,0,1,.55-15C422.91,324.15,441.43,303.91,430.73,312Z"/><path d="M387.22,330.72s19.07,4,21.75,1.21,6.75,2.1,1.5,3.26-17.29.68-20.23-1.12S386.87,332.93,387.22,330.72Z"/><path d="M399.19,339s9.41,4.45,11.26,1.79,3.22,2.26.27,3.26-9.2.2-10.47-1.66S398.66,341.13,399.19,339Z"/><path d="M402.41,347.62s7.79,3.69,9.37,1.95,2.65,1.78.18,2.29-7.68-.44-8.71-1.81S401.94,349.11,402.41,347.62Z"/><path d="M531.56,294.25s-11.84,10-15.11,8.85-3.86,4,.49,3,12.79-5.8,14-8.22S532.87,295.79,531.56,294.25Z"/><path d="M529.09,302.3s-4.46,8.66-7.74,7.55-1,3.54,2,2.74,7.45-4.85,7.19-7S531,303.74,529.09,302.3Z"/><path d="M531.31,308.7s-2,7.7-4.46,7.64-.23,3,1.82,1.62,4.63-5.5,4.15-7.1S532.87,309.35,531.31,308.7Z"/><path d="M486.36,419.81a.23.23,0,0,0,.18-.42c-2.52-1.18-7.36-2.67-10,1.57,0,0-5,6.37,3,10a6.64,6.64,0,0,0,7-.9c.82-.72,1.23-1.54.35-2.28a13.59,13.59,0,0,1-6.78,1.11s-5.33-2.38-2.08-6.7a6.76,6.76,0,0,1,3.26-2.15,8.84,8.84,0,0,1,5-.21Z"/><path d="M484.44,424a2.22,2.22,0,0,1-2.29,2.14,1.73,1.73,0,0,1-1.88-2.06c.26-1.05.55-2.09,1.86-2.16A2.13,2.13,0,0,1,484.44,424Z"/><path d="M511.12,434.45c1.5-3.05,10.59-21.14,19.9-29.12.68-.58,0-1.59-.9-1.33-2.91.88-7.38,3.29-11.76,9.86,0,0-14.86,20.92-8.05,21.07A.9.9,0,0,0,511.12,434.45Z"/><path d="M457.13,435.69s-19.09-17-31.33-22.27a.88.88,0,0,1,.47-1.68c2.64.09,6.94,1.24,13.21,5.75C439.48,417.49,463.44,434,457.13,435.69Z"/><path d="M470.81,276.22s-20.45,11.83-27.34-13.72c0,0-1.72-13.37-3.82-14.75,0,0,.77,12.18,0,8.24,0,0,2.94,17.31,9.21,21.43C448.86,277.42,464.12,284.28,470.81,276.22Z"/><path class="cls-5" d="M504.31,239.49c4.6-2.32,12.77-5.43,9.67,3.78-.82,2.45-2.78,6.59-5.07,7.77-4.58,2.37-11.76,2.87-8.73-6.69A8.22,8.22,0,0,1,504.31,239.49Z"/><path class="cls-6" d="M530.34,209.57s24.22,31.55,20.39,38.18c0,0-26.64,34.41-30.72,34.41,0,0-1-.53,1.79-4.11l22-27c1.12-1.32,4.9-4,4.12-5.47-4.29-8.2.25-2.06-19.63-34.64C527.07,208.94,530.34,209.57,530.34,209.57Z"/><path class="cls-4" d="M567.52,265.16c.36-1-.34-3.72.35-4.48,73.76-81.74,11.66-107.3.79-111.11a9.24,9.24,0,0,0-3.3-.52c-96.67,2-156.48,44.32-217.28,56.36-12.52,2.48-22.28,6.87-29.89,12.28a1.15,1.15,0,0,0,0,1.89h0l.09.07c5.08,4.88,13.7,23.2,15,24.15l.57.55a70.41,70.41,0,0,0,29,17.31c5.93,1.8,11.86,3.6,17.75,5.53,19.49,6.39,54.95,2.38,75.46.1,72.42-8.06,68.3-4.52,82.71-13.33,52.32-32,48.89-37,52.56-35.21"/><path class="cls-4" d="M432,240.55s14.73,29.33,13,41c0,0,.39,12.86-13,19.72,0,0-6.72-1,2.87-8.24,0,0,10.53-5.45,6.12-24C441,269,425.5,235.58,432,240.55Z"/><path class="cls-4" d="M502.48,340.59a17.41,17.41,0,0,0,5.26-10.22c0-.08.71-7.09-.94-8.08a1.13,1.13,0,0,0-1.7.74c-.86,8.13-3.05,13.19-5.9,16.18Z"/><path class="cls-4" d="M468.78,290.68s32.7-.58,47.65,26.7c.58,1.06,4.29,7.48,1.86,7-3.42-.73-8.89-10.84-12.13-12.59a.12.12,0,0,1-.06-.06,56.35,56.35,0,0,0-12.85-11.3C485.1,295.09,453.42,291.2,468.78,290.68Z"/><path class="cls-4" d="M433.2,312.2c1.3-2.15,1.29-2.87-1.49-.88Z"/><path class="cls-4" d="M531.56,294.25s-11.84,10-15.11,8.85-3.86,4,.49,3,12.79-5.8,14-8.22S532.87,295.79,531.56,294.25Z"/><path class="cls-4" d="M529.09,302.3s-4.46,8.66-7.74,7.55-1,3.54,2,2.74,7.45-4.85,7.19-7S531,303.74,529.09,302.3Z"/><path class="cls-4" d="M531.31,308.7s-2,7.7-4.46,7.64-.23,3,1.82,1.62,4.63-5.5,4.15-7.1S532.87,309.35,531.31,308.7Z"/><path class="cls-4" d="M470.81,276.22s-20.45,11.83-27.34-13.72c0,0-1.72-13.37-3.82-14.75,0,0,.77,12.18,0,8.24,0,0,2.94,17.31,9.21,21.43C448.86,277.42,464.12,284.28,470.81,276.22Z"/><path class="cls-4" d="M504.31,239.49c4.6-2.32,12.77-5.43,9.67,3.78-.82,2.45-2.78,6.59-5.07,7.77-4.58,2.37-11.76,2.87-8.73-6.69A8.22,8.22,0,0,1,504.31,239.49Z"/><path class="cls-4" d="M530.34,209.57s24.22,31.55,20.39,38.18c0,0-26.64,34.41-30.72,34.41,0,0-1-.53,1.79-4.11l22-27c1.12-1.32,4.9-4,4.12-5.47-4.29-8.2.25-2.06-19.63-34.64C527.07,208.94,530.34,209.57,530.34,209.57Z"/><path d="M411.83,222.49s-2.34-3-16.34-1.9-19.67.76-17.95,2.91,20.75-.76,20.75-.76S409.6,223.88,411.83,222.49Z"/><g class="cls-7"><path class="cls-8" d="M486.73,4l-.83.17L493.63,9Z"/><path class="cls-8" d="M491.49,7.46l-.3,0L493.63,9Z"/></g><path d="M269,73c-3.85-14.3-3.22-9.48-1.4-15,.21-.65,2.22-3.5,5.06-3.45,35.09.57,47.86,12.14,79.91,40,2.59,2.26,4,1.82.82,3.61-20.09,11.34-6.62.74-18.74,14.63-1.91,2.19-2.71,1.37-4.51-.2-22.65-19.8-28-25.4-53.32-34C274.72,77.84,269.55,75.21,269,73Z"/><path d="M266,158.74c-2-.73-5.44-1.27-7.44-6.22-.24-.58,1.63-12,3.92-13.53,25.66-17.65,32.65-15.52,67.39-17.88,2.81-.19,3.41-1.42,2.5,1.89-5.74,20.88-4.15,17.13-4.13,17.91.08,2.74-.71,3.4-2.66,3.53-24.59,1.61-29,2.4-49,13.31C274.93,158.63,268.51,159.7,266,158.74Z"/><path d="M344.1,179a7.73,7.73,0,0,1-2.38,6.1c-12.62,12.91-14.46,21.1-19.78,38.64-.46,1.52-2.85,7.09-5.21,7.8-1.8.54-4.94.64-8.93-2.76-2.52-2.16-5.41-9-5.67-12.87-1.72-25.54-1.16-20.17,16.22-40.92,5.55-6.61,22.76-9.65,24.44-6.77Z"/><path d="M375.93,187.37c1,1.84,1.31,4.95.81,8.24-3.62,24-1.56,33.89,1.88,56.28.3,1.94.89,9.65-.48,12.4a8.15,8.15,0,0,1-7.45,4.92c-2.67,0-7.53-4.49-9.29-8.16-11.69-24.41-9.1-19.45-5.32-55.51,1.2-11.49,12.12-29.44,14.49-28Z"/><path d="M398.14,22.59c.9,1.64,4.57,8.23,3.76,10.56-5.93,17-10.84,26-9.13,43.65.15,1.52.11,7.45-1.58,9.14-1.3,1.3-3.86,2.83-8.34,1.71-2.83-.71-7.61-5.35-9.16-8.55-10.3-21.34-8-16.95-.83-42.9,2.27-8.28,14.06-14.87,19.28-16.6Z"/><path d="M481.16,35.7c-.6,2.22-3,11.16-5.66,12.91C455.94,61.39,444,67,430.56,85.54c-1.16,1.6-4.16,2.5-7.08,3-2.23.41-6.45,2.2-9.42-1.89-1.87-2.58-5.1-7.29-2.12-11.6,21.13-30.51,12.77-20.26,41-41.09,9-6.63,19.49-7,25.53-5.25Z"/><path d="M514.23,122.73c-.67,1.43-9.24,6.62-11,6.26-6.23-1.28-7.32-1.09-9.22-1.64-18.17-5.23-28.87-6.42-48.28-2.09-1.68.38-3.71-1.29-5.45-3.18-1.33-1.45-4.56-3.37-3-9.07,1-3.61,2.81-10,7.25-11.15,31.48-8,22.7-9.78,50.6-4.17,7,1.41,13.8,4.39,16.23,9.64,1.1,2.37,4,13.11,2.88,15.4Z"/><path d="M520.25,196c-1.45,1.24-8.91,4-10.72,2.64-6.44-4.93-7.76-5.32-9.65-7-18.06-16.08-29.62-23.41-53.72-29.32-2.09-.52-3.59-3.54-4.64-6.67-.8-2.38-3.53-6.37,1-12,2.84-3.56,8-9.82,13.63-8.61,39.56,8.55,30.48,1.57,59.4,23.52,7.24,5.5,13.51,12.69,13.73,20,.09,3.3,2.73,7.74.4,9.73Z"/><path d="M417.53,257.37c4.08,3.5,7.32,5.51,9.54-.23.52-1.36.43-3.63.34-6.47-1-28.64-11.27-46-25.87-72-1.45-2.59-1.86-1.55-3.16-1.83-5.6-1.18-1.06,1.75-5.29,14-3.91,11.3,3.78,32.79,4.53,34.8,7.55,20.31,1.13,3.11,10.57,22.92C409.12,250.51,414.05,254.39,417.53,257.37Z"/><path d="M472,260.67c-1.13.29-10-5.31-11.14-7.46-4.25-7.68-5.16-8.73-6.39-11.18-11.74-23.46-19.46-35.93-36.26-53.9-1.46-1.56-2.3-5-2.83-8.2-.4-2.47-2.06-7.35,1.56-9.77,2.29-1.53,10.78-3.18,14.68.84,27.65,28.5,17.37,16.72,36.43,51,4.78,8.6,8.74,18.12,8.35,24.51-.17,2.89-2.58,13.67-4.4,14.14Z"/><path class="cls-9" d="M274.92,75.56c-3.7-13.71-3.09-9.1-1.36-14.43.2-.63,2.13-3.35,4.85-3.31,33.66.6,45.93,11.71,76.71,38.51,2.49,2.17,3.85,1.75.8,3.46-19.26,10.85-6.35.71-18,14-1.83,2.1-2.6,1.31-4.33-.2-21.75-19-26.88-24.39-51.19-32.69C280.47,80.24,275.5,77.71,274.92,75.56Z"/><path class="cls-9" d="M272.9,156.8c-1.88-.7-5.21-1.23-7.15-6-.23-.56,1.54-11.46,3.74-13C294.07,121,300.77,123,334.1,120.77c2.7-.18,3.27-1.36,2.4,1.81-5.46,20-3.94,16.42-3.92,17.17.08,2.63-.67,3.26-2.54,3.39-23.59,1.52-27.82,2.27-47,12.71C281.52,156.7,275.36,157.72,272.9,156.8Z"/><path class="cls-9" d="M347.65,177.66a7.39,7.39,0,0,1-2.28,5.84c-12.08,12.37-13.84,20.23-18.92,37.06-.44,1.45-2.73,6.8-5,7.47-1.72.52-4.74.61-8.57-2.66-2.42-2.07-5.2-8.68-5.45-12.36-1.67-24.5-1.13-19.35,15.51-39.24,5.31-6.34,21.8-9.24,23.42-6.47Z"/><path class="cls-9" d="M378.39,185.68c1,1.76,1.26,4.75.79,7.91-3.45,23-1.47,32.51,1.85,54,.29,1.86.86,9.26-.45,11.9a7.79,7.79,0,0,1-7.14,4.7c-2.55,0-7.23-4.32-8.91-7.84-11.24-23.45-8.74-18.68-5.16-53.27,1.15-11,11.6-28.23,13.87-26.82Z"/><path class="cls-9" d="M398.4,26.63c.87,1.57,4.39,7.89,3.61,10.13-5.66,16.27-10.36,24.91-8.7,41.84.14,1.46.11,7.14-1.51,8.76-1.24,1.24-3.7,2.71-8,1.63-2.71-.68-7.31-5.14-8.79-8.21-9.9-20.49-7.67-16.27-.85-41.15,2.17-7.93,13.47-14.23,18.48-15.89Z"/><path class="cls-9" d="M478.34,39.39c-.57,2.12-2.84,10.69-5.41,12.37C454.17,64,442.74,69.37,429.86,87.12c-1.12,1.53-4,2.39-6.8,2.91-2.14.39-6.18,2.1-9-1.82-1.8-2.48-4.91-7-2.06-11.12,20.24-29.24,12.23-19.42,39.28-39.35,8.63-6.36,18.7-6.72,24.5-5Z"/><path class="cls-9" d="M510.46,122.92c-.64,1.37-8.86,6.33-10.53,6-6-1.24-7-1.06-8.85-1.59-17.43-5-27.7-6.19-46.31-2.06-1.61.36-3.57-1.25-5.24-3.06-1.27-1.39-4.37-3.24-2.92-8.7.92-3.46,2.68-9.61,6.94-10.68,30.2-7.59,21.76-9.35,48.54-3.94,6.71,1.36,13.24,4.23,15.59,9.27,1.05,2.27,3.81,12.58,2.78,14.77Z"/><path class="cls-9" d="M517.12,192.65c-1.4,1.19-8.55,3.85-10.28,2.52-6.19-4.74-7.46-5.12-9.28-6.73C480.22,173,469.12,166,446,160.24c-2-.49-3.45-3.4-4.46-6.39-.77-2.29-3.4-6.12.9-11.5,2.72-3.41,7.71-9.41,13.06-8.24,38,8.25,29.24,1.54,57,22.63,7,5.29,13,12.19,13.2,19.2.1,3.18,2.63,7.43.4,9.34Z"/><path class="cls-9" d="M418.12,252.78c3.92,3.36,7,5.3,9.15-.21.5-1.3.41-3.48.32-6.2-.94-27.48-10.85-44.12-24.87-69.14-1.4-2.48-1.79-1.49-3-1.76-5.37-1.14-1,1.67-5.06,13.41-3.73,10.85,3.66,31.47,4.39,33.41,7.25,19.5,1.08,3,10.15,22C410.06,246.19,414.79,249.91,418.12,252.78Z"/><path class="cls-9" d="M470.64,255.56c-1.09.28-9.56-5.11-10.7-7.17-4.08-7.38-5-8.38-6.14-10.74-11.27-22.53-18.69-34.5-34.82-51.77-1.39-1.5-2.21-4.76-2.71-7.87-.39-2.38-2-7.06,1.48-9.38,2.19-1.46,10.32-3,14.07.83,26.54,27.39,16.67,16.07,35,49,4.6,8.26,8.4,17.4,8,23.53-.16,2.78-2.47,13.12-4.2,13.56Z"/><path class="cls-10" d="M279.17,79c-3.65-13.19-3-8.75-1.4-13.86.19-.6,2-3.21,4.64-3.14,32.38.79,44.25,11.53,74,37.45,2.41,2.09,3.71,1.7.79,3.33-18.46,10.28-6.11.63-17.19,13.32-1.75,2-2.49,1.24-4.16-.22-21-18.38-26-23.58-49.45-31.7C284.54,83.54,279.74,81.08,279.17,79Z"/><path class="cls-10" d="M278,156c-1.81-.68-5-1.2-6.94-5.76-.22-.53,1.37-11,3.47-12.43,23.48-16.12,29.94-14.13,62-16.14,2.59-.16,3.13-1.29,2.33,1.75-5.06,19.19-3.63,15.74-3.61,16.46.11,2.52-.61,3.13-2.41,3.24-22.67,1.37-26.73,2.07-45,12C286.31,156,280.39,156.92,278,156Z"/><path class="cls-10" d="M349.53,177.66a7.11,7.11,0,0,1-2.15,5.62c-11.51,11.83-13.16,19.39-17.94,35.57-.41,1.4-2.57,6.53-4.73,7.16-1.65.49-4.54.56-8.22-2.62-2.34-2-5-8.39-5.3-11.94-1.73-23.61-1.19-18.65,14.66-37.69,5-6.08,20.84-8.76,22.4-6.08Z"/><path class="cls-10" d="M379.65,185.57c.93,1.71,1.23,4.58.79,7.62-3.21,22.12-1.27,31.28,2,52,.28,1.79.87,8.92-.38,11.44a7.36,7.36,0,0,1-6.83,4.47c-2.45,0-6.95-4.22-8.58-7.62-10.88-22.67-8.47-18.06-5.18-51.32,1-10.6,11-27.07,13.18-25.69Z"/><path class="cls-10" d="M397.13,32.39c.84,1.52,4.26,7.62,3.53,9.76-5.37,15.57-9.84,23.83-8.15,40.09.15,1.41.15,6.86-1.4,8.41-1.19,1.18-3.55,2.56-7.68,1.5-2.62-.68-7.06-5-8.51-8-9.63-19.74-7.46-15.67-1-39.5,2-7.6,12.87-13.56,17.69-15.12Z"/><path class="cls-10" d="M474,45.33c-.53,2-2.65,10.22-5.12,11.82-18,11.64-29,16.75-41.23,33.69-1.07,1.47-3.83,2.28-6.53,2.76-2.06.37-5.95,2-8.73-1.77-1.76-2.38-4.79-6.73-2.07-10.66C429.62,53.25,422,62.62,447.89,43.64c8.27-6.06,18-6.36,23.57-4.71Z"/><path class="cls-10" d="M505.86,125.56c-.61,1.31-8.48,6-10.09,5.67-5.76-1.22-6.76-1.06-8.52-1.57-16.8-5-26.68-6.13-44.56-2.28-1.54.33-3.43-1.22-5.05-3-1.24-1.34-4.23-3.14-2.87-8.37.86-3.31,2.52-9.21,6.61-10.21,29-7.08,20.87-8.83,46.66-3.46,6.46,1.34,12.76,4.14,15,9,1,2.19,3.75,12.1,2.77,14.2Z"/><path class="cls-10" d="M513.51,191.87c-1.33,1.14-8.2,3.64-9.87,2.36-6-4.59-7.21-5-9-6.53-16.78-14.93-27.5-21.76-49.79-27.38-1.93-.49-3.33-3.29-4.32-6.17-.76-2.2-3.31-5.89.79-11,2.59-3.25,7.35-9,12.51-7.83,36.56,8.16,28.13,1.67,55,22.09,6.73,5.11,12.57,11.77,12.82,18.51.11,3.05,2.58,7.15.45,9Z"/><path class="cls-10" d="M418.16,250c3.77,3.27,6.76,5.16,8.77-.13.47-1.25.37-3.34.27-6-1-26.46-10.63-42.55-24.21-66.74-1.34-2.4-1.72-1.45-2.92-1.72-5.16-1.14-1,1.61-4.78,12.88-3.52,10.41,3.68,30.32,4.38,32.19,7.06,18.82,1.05,2.87,9.85,21.26C410.39,243.64,414.94,247.26,418.16,250Z"/><path class="cls-10" d="M468.75,252.63c-1,.26-9.18-5-10.29-7-3.95-7.14-4.8-8.11-5.94-10.39-10.93-21.77-18.1-33.35-33.65-50.1-1.34-1.45-2.15-4.6-2.65-7.59-.38-2.3-1.93-6.82,1.38-9,2.09-1.39,9.88-2.85,13.49.89,25.58,26.56,16.06,15.6,33.79,47.45,4.44,8,8.14,16.81,7.82,22.72-.14,2.67-2.29,12.61-3.95,13Z"/><path d="M305.56,59.06c3.84-13.64,1.88-9.1,6.7-14.15.56-.59,4.11-3.08,6.93-2.8C354.11,45.5,360.71,57.33,377.86,86c1.39,2.32,3.05,2-1.12,3.44-26.27,8.93-7,.15-26.69,12.11-3.1,1.89-3.46,1-4.42-.56-12.07-20.3-14.42-26-35.21-36C308.73,64.07,305,61.19,305.56,59.06Z"/><path d="M269.62,132.73c-1.28-1.47-3.82-3.14-3.59-9.88,0-.79,5.69-14.45,8.08-15.77C300.89,92.36,305.62,97,334,103.94c2.29.56,3.22-.8,1.28,3.07-12.22,24.42-9.58,20.19-9.85,21.18-.95,3.43-1.82,4-3.4,3.64-20-5-23.81-5.25-43.62,2.67C276.76,135.14,271.29,134.65,269.62,132.73Z"/><path d="M329,159.45a7.13,7.13,0,0,1-3.79,5.72c-15.93,8.51-19.61,16.85-28.93,34.07-.81,1.49-4.5,6.61-7.1,6.29-2-.26-5.29-1.65-8.71-7.39-2.17-3.63-3.7-12.78-3.14-17.22,3.71-29.59,3.13-23.27,25.71-38.32,7.2-4.8,25.79,0,26.92,4.07Z"/><path d="M354.42,183.29c.82,2.26.42,5.45-1.06,8.43-10.79,21.73-10.68,32.36-12,55.84-.12,2-1.32,9.84-3.79,11.88-1.89,1.56-5.42,3.29-10.84,1.31-3.43-1.25-8.55-7.92-9.87-12.32-8.8-29.32-6.73-23.26,7.34-56.7,4.49-10.66,23.13-23.07,25.81-20.52Z"/><path d="M431.24,31c.66,2.07,3.36,10.39,1.88,12.37-10.8,14.38-18.57,21.21-20.7,39.77-.18,1.61-1.61,7.56-4,8.48-1.8.71-5.12,1.07-10-2.11-3.11-2-7.55-8.88-8.59-12.82-6.93-26.23-5.27-20.73,9-43.6,4.56-7.29,19.71-8.51,26.15-7.86Z"/><path d="M499.28,77.91c-1.2,2.06-6,10.39-8.66,10.75-19.35,2.63-30.42,1.88-47,14.25-1.43,1.07-4.05.33-6.48-.76-1.86-.84-5.71-1.32-6.64-7.45-.58-3.88-1.5-10.84,2.23-13.8,26.46-21,16.59-14.64,45.3-21,9.15-2,17.37,3.57,21.44,9Z"/><path d="M507.64,161.26c-1.08,1.16-10.82,3.48-12.37,2.61-5.55-3.12-6.64-3.27-8.28-4.37-15.71-10.52-25.54-14.92-45.34-16.71-1.71-.15-3.14-2.36-4.22-4.7-.82-1.78-3.31-4.59-.13-9.56,2-3.14,5.73-8.69,10.31-8.4,32.41,2,24.6-2.4,49.46,11.45,6.23,3.48,11.81,8.39,12.52,14.13.33,2.6-.23,13.7-1.95,15.55Z"/><path d="M491,232.9c-1.77.74-9.72,1.12-11-.75-4.63-6.66-5.77-7.44-7.06-9.62-12.29-20.82-21.07-31.33-42.22-44.31-1.83-1.12-2.33-4.46-2.38-7.76,0-2.51-1.43-7.14,4.56-11.13,3.79-2.52,10.66-6.89,15.6-4,35.07,20.2,28.55,10.78,49.4,40.5,5.23,7.46,9,16.21,7,23.25-.92,3.18.24,8.2-2.59,9.39Z"/><path d="M369.69,262c4,4.46,7.56,7.27,13.53,2.28,1.42-1.18,2.42-3.4,3.7-6.19,12.94-28,7.06-47.55-.5-76.66-.75-2.89-1.84-2-3.54-2.61-7.29-2.62-2.36,1.42-14.41,12.18-11.13,9.94-11,32.81-11,35,.5,21.69,0,3.31,3.44,25C361.28,253.13,366.28,258.18,369.69,262Z"/><path d="M433.66,284.08c-1.69,0-10.91-8.12-11.46-10.64-2-9-2.69-10.35-3.14-13.2-4.3-27.24-8.61-42.11-22.54-65.07-1.2-2-.67-5.7.23-9.17.69-2.66.86-8.11,7-9.63,3.88-1,16.26-.4,19.57,4.78,23.46,36.67,15.32,21.83,24.21,62.16,2.22,10.12,2.87,20.95-.83,27.42-1.68,2.92-10.33,13.35-13,13.35Z"/><path class="cls-9" d="M310.16,62c3.67-13.09,1.79-8.73,6.41-13.57.54-.56,3.93-3,6.64-2.68C356.69,49,363,60.37,379.5,87.86c1.33,2.22,2.92,1.94-1.07,3.29-25.18,8.55-6.75.14-25.57,11.6-3,1.81-3.32,1-4.24-.54-11.6-19.5-13.86-24.93-33.8-34.65C313.21,66.78,309.59,64,310.16,62Z"/><path class="cls-9" d="M275.83,132.28c-1.23-1.41-3.67-3-3.45-9.49,0-.75,5.43-13.86,7.72-15.12,25.65-14.1,30.2-9.63,57.36-2.94,2.2.54,3.08-.77,1.23,2.94C327,131.1,329.53,127,329.27,128c-.9,3.3-1.73,3.88-3.25,3.49-19.21-4.8-22.83-5.07-41.81,2.51C282.68,134.61,277.43,134.12,275.83,132.28Z"/><path class="cls-9" d="M333,159.6a6.85,6.85,0,0,1-3.63,5.5c-15.25,8.15-18.77,16.16-27.69,32.69-.77,1.43-4.3,6.35-6.8,6-1.91-.24-5.07-1.58-8.35-7.1-2.08-3.49-3.55-12.27-3-16.53,3.54-28.41,3-22.35,24.61-36.79,6.89-4.6,24.7,0,25.79,3.93Z"/><path class="cls-9" d="M358,182.79c.78,2.18.41,5.23-1,8.09-10.32,20.86-10.2,31.07-11.42,53.61-.11,1.95-1.26,9.45-3.62,11.4-1.81,1.5-5.19,3.16-10.39,1.25-3.29-1.21-8.2-7.61-9.47-11.84-8.45-28.16-6.46-22.34,7-54.43,4.29-10.24,22.14-22.13,24.71-19.69Z"/><path class="cls-9" d="M430.6,35.22c.64,2,3.24,10,1.82,11.86-10.34,13.79-17.78,20.34-19.8,38.15-.17,1.54-1.53,7.25-3.78,8.14-1.73.68-4.91,1-9.62-2-3-1.94-7.25-8.54-8.25-12.31-6.67-25.19-5.07-19.91,8.6-41.84,4.36-7,18.87-8.15,25.05-7.51Z"/><path class="cls-9" d="M495.88,80.29c-1.15,2-5.75,10-8.29,10.3-18.54,2.51-29.16,1.77-45,13.63-1.37,1-3.88.3-6.21-.75-1.78-.8-5.47-1.27-6.37-7.15-.57-3.73-1.46-10.41,2.11-13.24C457.46,63,448,69,475.52,63c8.77-1.94,16.66,3.44,20.57,8.62Z"/><path class="cls-9" d="M504,160.29c-1,1.11-10.37,3.33-11.86,2.49-5.32-3-6.36-3.15-7.94-4.21-15.06-10.11-24.49-14.34-43.48-16.08-1.64-.15-3-2.27-4-4.52-.79-1.71-3.18-4.41-.13-9.17,1.93-3,5.48-8.34,9.86-8.06,31.08,2,23.58-2.26,47.43,11.06,6,3.34,11.33,8.06,12,13.57.31,2.49-.2,13.15-1.85,14.92Z"/><path class="cls-9" d="M489.07,228.73c-1.69.71-9.32,1.06-10.56-.73-4.45-6.41-5.54-7.15-6.78-9.25-11.81-20-20.23-30.09-40.53-42.57-1.75-1.08-2.24-4.29-2.29-7.45,0-2.42-1.37-6.86,4.36-10.68,3.63-2.41,10.21-6.61,15-3.87,33.63,19.44,27.38,10.39,47.39,38.94,5,7.16,8.65,15.57,6.72,22.32-.88,3.05.24,7.87-2.47,9Z"/><path class="cls-9" d="M372.81,257.69c3.84,4.29,7.25,7,13,2.21,1.36-1.14,2.31-3.27,3.54-5.95,12.38-26.91,6.73-45.66-.54-73.61-.72-2.78-1.77-1.92-3.4-2.51-7-2.52-2.25,1.36-13.79,11.69-10.65,9.54-10.53,31.49-10.48,33.56.5,20.83,0,3.18,3.32,24C364.76,249.17,369.55,254,372.81,257.69Z"/><path class="cls-9" d="M434.28,278.46c-1.61,0-10.46-7.8-11-10.23-1.89-8.67-2.58-9.93-3-12.67-4.13-26.16-8.28-40.45-21.63-62.51-1.16-1.9-.65-5.47.21-8.81.66-2.54.82-7.78,6.69-9.24,3.71-.92,15.57-.36,18.74,4.61,22.51,35.23,14.7,21,23.24,59.71,2.14,9.72,2.77,20.12-.77,26.33-1.61,2.8-9.89,12.81-12.48,12.81Z"/><path class="cls-11" d="M312.57,65.53c3.43-12.6,1.66-8.41,6.06-13,.51-.54,3.75-2.83,6.35-2.55,32.08,3.37,38.22,14.35,54.16,40.94,1.29,2.15,2.81,1.89-1,3.17-24.07,8.09-6.47.09-24.43,11-2.84,1.73-3.17,1-4.06-.54C338.42,85.67,336.23,80.42,317.07,71,315.52,70.18,312,67.5,312.57,65.53Z"/><path class="cls-11" d="M280.16,132.78c-1.18-1.37-3.53-2.93-3.36-9.16,0-.73,5.12-13.33,7.31-14.53C308.6,95.65,313,100,339,106.58c2.1.54,2.95-.72,1.19,2.85-11.06,22.5-8.66,18.61-8.9,19.52-.85,3.17-1.64,3.73-3.1,3.35-18.43-4.74-21.9-5-40,2.18C286.73,135.06,281.71,134.56,280.16,132.78Z"/><path class="cls-11" d="M335,160.51a6.59,6.59,0,0,1-3.45,5.3c-14.54,7.82-17.88,15.54-26.34,31.48-.74,1.38-4.09,6.12-6.48,5.81-1.82-.24-4.84-1.55-8-6.89-2-3.38-3.44-11.87-2.94-16,3.27-27.43,2.77-21.58,23.38-35.45,6.57-4.42,23.6.12,24.65,3.89Z"/><path class="cls-11" d="M359.66,183.28c.76,2.1.42,5.05-.92,7.81C349,211.18,349.11,221,348,242.8c-.09,1.88-1.16,9.12-3.41,11-1.72,1.44-4.95,3-9.92,1.16-3.15-1.18-7.87-7.38-9.1-11.47-8.21-27.23-6.28-21.6,6.45-52.54,4.06-9.86,21.07-21.28,23.53-18.9Z"/><path class="cls-11" d="M427.79,40.44c.62,1.92,3.15,9.63,1.81,11.45-9.83,13.23-16.91,19.49-18.75,36.65-.16,1.48-1.42,7-3.58,7.82-1.65.64-4.69,1-9.22-2-2.87-1.89-7-8.27-8-11.92-6.53-24.3-5-19.21,8-40.26,4.14-6.72,18-7.75,24-7.1Z"/><path class="cls-11" d="M490.58,84.25c-1.09,1.9-5.45,9.57-7.89,9.88-17.74,2.31-27.91,1.54-43,12.88-1.31,1-3.72.27-5.95-.76-1.72-.78-5.26-1.25-6.15-6.93-.56-3.59-1.46-10,1.95-12.75C453.68,67.36,444.66,73.14,471,67.43c8.39-1.83,16,3.41,19.76,8.42Z"/><path class="cls-11" d="M498.81,161.4c-1,1.06-9.92,3.15-11.35,2.33-5.11-2.92-6.11-3.07-7.63-4.1-14.49-9.84-23.54-14-41.74-15.76-1.58-.15-2.9-2.2-3.91-4.37-.77-1.65-3.07-4.27-.18-8.84,1.83-2.89,5.21-8,9.41-7.71,29.77,2.09,22.57-2,45.49,10.93,5.75,3.25,10.9,7.83,11.59,13.15.32,2.4-.12,12.67-1.68,14.37Z"/><path class="cls-11" d="M485.87,226.89c-1.62.67-8.92,1-10.12-.77-4.3-6.19-5.35-6.92-6.54-8.94-11.43-19.35-19.56-29.12-39.07-41.27-1.69-1-2.17-4.14-2.24-7.19,0-2.33-1.35-6.62,4.12-10.26,3.46-2.31,9.74-6.31,14.3-3.64,32.33,18.92,26.29,10.16,45.62,37.79,4.85,6.93,8.38,15,6.57,21.54-.83,2.94.27,7.6-2.32,8.68Z"/><path class="cls-11" d="M374.22,255c3.68,4.16,7,6.78,12.4,2.18,1.3-1.09,2.2-3.15,3.37-5.72,11.72-25.95,6.25-44.09-.8-71.12-.7-2.68-1.7-1.86-3.26-2.43-6.68-2.46-2.14,1.3-13.13,11.23-10.15,9.18-9.94,30.39-9.89,32.39.55,20.12,0,3.06,3.26,23.21C366.49,246.79,371.09,251.5,374.22,255Z"/><path class="cls-11" d="M433.18,274.94c-1.55,0-10-7.58-10.54-9.92-1.82-8.39-2.49-9.61-2.92-12.26-4-25.29-8-39.11-20.87-60.47-1.11-1.85-.64-5.3.18-8.51.61-2.46.75-7.52,6.36-8.91,3.54-.87,14.87-.29,17.92,4.52,21.61,34.13,14.11,20.32,22.39,57.78,2.08,9.39,2.71,19.45-.65,25.43-1.52,2.71-9.4,12.35-11.87,12.34Z"/><path class="cls-12" d="M440.09,151.24C439,166,441.45,179.52,428,183.58c-10.12,3.06-17.39,15.47-39.3,32-9.5,7.18-22.71-4.89-18.73-8.64,7.25-6.83-13.63-13.3-16.62-15.25-20.72-13.52-21.63-9.52-21.41-52.27.22-44.38,36.23-53.63,71.33-52.82C452,87.76,442.15,124.66,440.09,151.24Z"/><path class="cls-13" d="M438.58,154.65c-1,13.51.46,23.32-11.66,27-9.11,2.75-30.24,26.71-39.8,31.22-9.72,4.57-15.61-.12-14.65-5,.74-3.73,3-4.38,0-6.31-9.57-6.05-8.54-7.32-22.37-14.34-18.16-9.2-16.55-26-16.93-46.58-.72-40,23.76-51.86,71.57-52.88S440.3,131.78,438.58,154.65Z"/><path class="cls-14" d="M421.52,157.65l.88.55c2.24,1.37,9.89,6.55,7,12.23-3.43,6.63-14.86,12.57-15.09,13,0,0-1.6-1.6-9.15,12.35,0,0-10.74,25.83-30.64,18.52,0,0-6.8-5.52-.39-10.78,0,0-1.81,4.49.83,6.71a11.5,11.5,0,0,0,3.29,2.11c2.69,1.13,7.56,3.44,19.37-7.87,0,0,9.37-16.92,11.2-21.5,0,0,12.8-7.31,15.55-12.34,0,0,5.26-.92,0-8C420.21,157.12,421,157.3,421.52,157.65Z"/><path d="M404.2,109.84s1.76-1,1.9,1.3c.46,7.29,3.46,11,8.07,12.34a2.4,2.4,0,0,1,1.5,1.27c1.61,3.29,5.54,13.94,4,13.94,0,0-1-2.05-2.78-5.68-.44-.9-.42-4.09-.8-4.57-1-1.23-2.09-4.21-5.68-5.57a7.17,7.17,0,0,1-1.58-1.17,14.12,14.12,0,0,1-4.59-10.48Z"/><path d="M364.07,187.86S390,176.2,395.28,170.3c0,0,4.12,7.79-10.29,19.79C378.88,195.18,364.07,187.86,364.07,187.86Z"/><path d="M421.17,120.64s-8.63-13.19,4.06-15.16c0,0,11.2-3.53,6.23,12.76,0,0,3.83,5.92,3.26,11.15,0,0-3.58,7-7.71-.86,0,0-.35-2,1.36-.28,0,0,5,6.17,4.81-.63a17.63,17.63,0,0,0-2.61-7.41c-.65-.93-.44-2-.25-3.17.51-3,2.68-10-1.15-10.69-1.09-.18-6.24.83-7.14,1.49-1.79,1.32-3.1,5-.69,8.69C421.34,116.53,423.92,121.67,421.17,120.64Z"/><path d="M373.44,151.33c-.37-.5,11-6.66,15.63-14.06.56-.91,6-6.36,7.53-6.36,0,0,11.58,16.89,4.66,22,0,0-7,7.63-15,6.54C386.29,159.43,380,160.12,373.44,151.33Z"/><path d="M333.86,152.43c.18-1.2,13.45.14,18.5,2.73a8.08,8.08,0,0,0,3,.89,9.62,9.62,0,0,0,4.13-.24s-3.51,12.77-7,13.9c0,0-6.63,4.13-15.11-1.69C337.37,168,332.39,162.38,333.86,152.43Z"/><path class="cls-8" d="M375.05,151.24c-.35-.48,10-6.29,14.23-13.28.51-.86,5.49-6,6.86-6,0,0,10.55,15.95,4.24,20.75,0,0-6.39,7.2-13.63,6.17C386.75,158.88,381.05,159.54,375.05,151.24Z"/><path class="cls-8" d="M334.75,153.22c.16-1.06,11.78.06,16.76,2.29a12.31,12.31,0,0,0,5.31,1.1,4.57,4.57,0,0,0,1.76-.3S355.33,168,352.07,169c0,0-6.18,3.77-14.06-1.54C338,167.46,333.38,162.31,334.75,153.22Z"/><g class="cls-15"><path d="M276.77,78.53c19.74,6.72,27.34,11.6,40.45,22.8,2.57,0,5.14,0,7.71.06,4.81.12,9.61.4,14.38,1l4.92.59c1.79-.86,4.61-2.3,9.11-4.84,3.18-1.79,1.77-1.35-.82-3.61-32-27.9-44.82-39.47-79.91-40-2.84,0-4.85,2.8-5.06,3.45-1.82,5.57-2.45.75,1.4,15C269.55,75.21,274.72,77.84,276.77,78.53Z"/><path d="M398.14,22.59c.9,1.64,4.57,8.23,3.76,10.56-5.93,17-10.84,26-9.13,43.65.15,1.52.11,7.45-1.58,9.14-1.3,1.3-3.86,2.83-8.34,1.71-2.83-.71-7.61-5.35-9.16-8.55-10.3-21.34-8-16.95-.83-42.9,2.27-8.28,14.06-14.87,19.28-16.6Z"/><path d="M481.16,35.7c-.6,2.22-3,11.16-5.66,12.91C455.94,61.39,444,67,430.56,85.54c-1.16,1.6-4.16,2.5-7.08,3-2.23.41-6.45,2.2-9.42-1.89-1.87-2.58-5.1-7.29-2.12-11.6,21.13-30.51,12.77-20.26,41-41.09,9-6.63,19.49-7,25.53-5.25Z"/><path d="M514.23,122.73c-.67,1.43-9.24,6.62-11,6.26-6.23-1.28-7.32-1.09-9.22-1.64-18.17-5.23-28.87-6.42-48.28-2.09-1.68.38-3.71-1.29-5.45-3.18-1.33-1.45-4.56-3.37-3-9.07,1-3.61,2.81-10,7.25-11.15,31.48-8,22.7-9.78,50.6-4.17,7,1.41,13.8,4.39,16.23,9.64,1.1,2.37,4,13.11,2.88,15.4Z"/><path d="M529.23,178.6c-.22-7.32-6.49-14.51-13.73-20-28.92-22-19.84-15-59.4-23.52-4.44-1-8.64,2.81-11.61,6.18a90,90,0,0,1,11.16,9.43,115.16,115.16,0,0,1,11.81,15,48.84,48.84,0,0,1,3,5c10.19,4.92,18.65,11.4,29.43,21,1.89,1.69,3.21,2.08,9.65,7,1.81,1.38,9.27-1.4,10.72-2.64l9.38-7.7C532,186.34,529.32,181.9,529.23,178.6Z"/><path d="M282.44,80.91c18,6.16,25.52,10.71,37.06,20.42q2.72,0,5.43.06c4.81.12,9.61.4,14.38,1,3.19.39,6.4.75,9.62,1.19,1.67-.84,3.92-2,7-3.77s1.69-1.29-.8-3.46c-30.78-26.8-43.05-37.91-76.71-38.51-2.72,0-4.65,2.68-4.85,3.31-1.73,5.33-2.34.72,1.36,14.43C275.5,77.71,280.47,80.24,282.44,80.91Z"/><path d="M398.4,26.63c.87,1.57,4.39,7.89,3.61,10.13-5.66,16.27-10.36,24.91-8.7,41.84.14,1.46.11,7.14-1.51,8.76-1.24,1.24-3.7,2.71-8,1.63-2.71-.68-7.31-5.14-8.79-8.21-9.9-20.49-7.67-16.27-.85-41.15,2.17-7.93,13.47-14.23,18.48-15.89Z"/><path d="M478.34,39.39c-.57,2.12-2.84,10.69-5.41,12.37C454.17,64,442.74,69.37,429.86,87.12c-1.12,1.53-4,2.39-6.8,2.91-2.14.39-6.18,2.1-9-1.82-1.8-2.48-4.91-7-2.06-11.12,20.24-29.24,12.23-19.42,39.28-39.35,8.63-6.36,18.7-6.72,24.5-5Z"/><path d="M510.46,122.92c-.64,1.37-8.86,6.33-10.53,6-6-1.24-7-1.06-8.85-1.59-17.43-5-27.7-6.19-46.31-2.06-1.61.36-3.57-1.25-5.24-3.06-1.27-1.39-4.37-3.24-2.92-8.7.92-3.46,2.68-9.61,6.94-10.68,30.2-7.59,21.76-9.35,48.54-3.94,6.71,1.36,13.24,4.23,15.59,9.27,1.05,2.27,3.81,12.58,2.78,14.77Z"/><path d="M525.7,175.94c-.21-7-6.24-13.91-13.2-19.2-27.77-21.09-19.05-14.38-57-22.63-4.56-1-8.86,3.22-11.71,6.59l.61.47a91.63,91.63,0,0,1,11.26,9.51,115.16,115.16,0,0,1,11.81,15c.55.81,1.08,1.64,1.58,2.49,9.9,4.74,18.08,11,28.52,20.3,1.82,1.61,3.09,2,9.28,6.73,1.73,1.33,8.88-1.33,10.28-2.52l9-7.37C528.33,183.37,525.8,179.12,525.7,175.94Z"/><path d="M286.43,84.19c15.63,5.42,23.05,9.53,32.51,17.13,2,0,4,0,6,.07,4.81.12,9.61.4,14.38,1,5,.6,10,1.16,15,2l2.9-1.58c2.92-1.63,1.62-1.24-.79-3.33-29.78-25.92-41.65-36.66-74-37.45-2.62-.07-4.45,2.54-4.64,3.14-1.63,5.11-2.25.67,1.4,13.86C279.74,81.08,284.54,83.54,286.43,84.19Z"/><path d="M397.13,32.39c.84,1.52,4.26,7.62,3.53,9.76-5.37,15.57-9.84,23.83-8.15,40.09.15,1.41.15,6.86-1.4,8.41-1.19,1.18-3.55,2.56-7.68,1.5-2.62-.68-7.06-5-8.51-8-9.63-19.74-7.46-15.67-1-39.5,2-7.6,12.87-13.56,17.69-15.12Z"/><path d="M474,45.33c-.53,2-2.65,10.22-5.12,11.82-18,11.64-29,16.75-41.23,33.69-1.07,1.47-3.83,2.28-6.53,2.76-2.06.37-5.95,2-8.73-1.77-1.76-2.38-4.79-6.73-2.07-10.66C429.62,53.25,422,62.62,447.89,43.64c8.27-6.06,18-6.36,23.57-4.71Z"/><path d="M505.86,125.56c-.61,1.31-8.48,6-10.09,5.67-5.76-1.22-6.76-1.06-8.52-1.57-16.8-5-26.68-6.13-44.56-2.28-1.54.33-3.43-1.22-5.05-3-1.24-1.34-4.23-3.14-2.87-8.37.86-3.31,2.52-9.21,6.61-10.21,29-7.08,20.87-8.83,46.66-3.46,6.46,1.34,12.76,4.14,15,9,1,2.19,3.75,12.1,2.77,14.2Z"/><path d="M521.66,175.89c-.25-6.74-6.09-13.4-12.82-18.51-26.84-20.42-18.41-13.93-55-22.09-3.94-.88-7.64,2.25-10.33,5.23l.85.65a91.63,91.63,0,0,1,11.26,9.51,115.16,115.16,0,0,1,11.81,15c.82,1.21,1.58,2.45,2.3,3.72,8.41,4.45,15.76,10.18,24.92,18.33,1.75,1.57,3,1.94,9,6.53,1.67,1.28,8.54-1.22,9.87-2.36l8.6-7C524.24,183,521.77,178.94,521.66,175.89Z"/><path d="M305.56,59.06c3.84-13.64,1.88-9.1,6.7-14.15.56-.59,4.11-3.08,6.93-2.8C354.11,45.5,360.71,57.33,377.86,86c1.39,2.32,3.05,2-1.12,3.44-26.27,8.93-7,.15-26.69,12.11-3.1,1.89-3.46,1-4.42-.56-12.07-20.3-14.42-26-35.21-36C308.73,64.07,305,61.19,305.56,59.06Z"/><path d="M292.33,101.7c10.54,0,21.07-.54,31.61-.33-17.36-4.57-24.63-6.55-41.58,1.46A32.65,32.65,0,0,1,292.33,101.7Z"/><path d="M431.24,31c.66,2.07,3.36,10.39,1.88,12.37-10.8,14.38-18.57,21.21-20.7,39.77-.18,1.61-1.61,7.56-4,8.48-1.8.71-5.12,1.07-10-2.11-3.11-2-7.55-8.88-8.59-12.82-6.93-26.23-5.27-20.73,9-43.6,4.56-7.29,19.71-8.51,26.15-7.86Z"/><path d="M499.28,77.91c-1.2,2.06-6,10.39-8.66,10.75-19.35,2.63-30.42,1.88-47,14.25-1.43,1.07-4.05.33-6.48-.76-1.86-.84-5.71-1.32-6.64-7.45-.58-3.88-1.5-10.84,2.23-13.8,26.46-21,16.59-14.64,45.3-21,9.15-2,17.37,3.57,21.44,9Z"/><path d="M509.59,145.71c-.71-5.74-6.29-10.65-12.52-14.13-24.86-13.85-17.05-9.43-49.46-11.45-4.58-.29-8.29,5.26-10.31,8.4-1.75,2.74-1.78,4.82-1.32,6.44,2.88,2,5.66,4.06,8.41,6.2l3,2.24c16.14,2.12,25.52,6.63,39.64,16.09,1.64,1.1,2.73,1.25,8.28,4.37,1.55.87,11.29-1.45,12.37-2.61C509.36,159.41,509.92,148.31,509.59,145.71Z"/><path d="M497.91,195.79C482,173.16,482,173.22,467.43,165.61l0,0a50.29,50.29,0,0,1,4.15,7.37,134.45,134.45,0,0,1,7.13,17.81c2.52,8.59,3.25,17.64,4.18,26.5.51,4.81,1.19,9.6,1.57,14.43.05.57.08,1.15.11,1.72a19.83,19.83,0,0,0,6.43-.58l11.27-4.47c2.83-1.19,1.67-6.21,2.59-9.39C506.91,212,503.14,203.25,497.91,195.79Z"/><path d="M314.82,67.56c19.94,9.72,22.2,15.15,33.8,34.65.43.71.73,1.26,1.22,1.48l.64.09a6.23,6.23,0,0,0,2.38-1c18.82-11.46.39-3,25.57-11.6,4-1.35,2.4-1.07,1.07-3.29C363,60.37,356.69,49,323.21,45.71c-2.71-.27-6.1,2.12-6.64,2.68-4.62,4.84-2.74.48-6.41,13.57C309.59,64,313.21,66.78,314.82,67.56Z"/><path d="M292.33,101.7c10.76,0,21.5-.56,32.26-.31-12.93-3.39-20-4.68-32.26.31Z"/><path d="M430.6,35.22c.64,2,3.24,10,1.82,11.86-10.34,13.79-17.78,20.34-19.8,38.15-.17,1.54-1.53,7.25-3.78,8.14-1.73.68-4.91,1-9.62-2-3-1.94-7.25-8.54-8.25-12.31-6.67-25.19-5.07-19.91,8.6-41.84,4.36-7,18.87-8.15,25.05-7.51Z"/><path d="M495.88,80.29c-1.15,2-5.75,10-8.29,10.3-18.54,2.51-29.16,1.77-45,13.63-1.37,1-3.88.3-6.21-.75-1.78-.8-5.47-1.27-6.37-7.15-.57-3.73-1.46-10.41,2.11-13.24C457.46,63,448,69,475.52,63c8.77-1.94,16.66,3.44,20.57,8.62Z"/><path d="M505.84,145.37c-.69-5.51-6-10.23-12-13.57-23.85-13.32-16.35-9.07-47.43-11.06-4.38-.28-7.93,5.05-9.86,8.06a7.49,7.49,0,0,0-1.4,5.6c3.19,2.11,6.25,4.42,9.26,6.77l2.7,2.05c14.92,2.1,23.82,6.44,37.1,15.35,1.58,1.06,2.62,1.21,7.94,4.21,1.49.84,10.83-1.38,11.86-2.49C505.64,158.52,506.15,147.86,505.84,145.37Z"/><path d="M495.62,193.12c-15.23-21.72-15.25-21.68-29.2-29l1,1.5a50.29,50.29,0,0,1,4.15,7.37,134.45,134.45,0,0,1,7.13,17.81c2.52,8.59,3.25,17.64,4.18,26.5.43,4,1,8,1.35,12a16.1,16.1,0,0,0,4.8-.57l10.8-4.28c2.71-1.14,1.59-6,2.47-9C504.27,208.69,500.64,200.28,495.62,193.12Z"/><path d="M317.07,71c18.83,9.31,21.27,14.54,32,32.63,1.89.26,3.78.54,5.66.86,16.24-10-.19-2.47,23.4-10.39,3.81-1.28,2.29-1,1-3.17C363.2,64.29,357.06,53.31,325,49.94c-2.6-.28-5.84,2-6.35,2.55-4.4,4.63-2.63.44-6.06,13C312,67.5,315.52,70.18,317.07,71Z"/><path d="M318.72,101.32c-6.27-1.3-11.38-1.51-17.72.28C306.91,101.49,312.81,101.32,318.72,101.32Z"/><path d="M427.79,40.44c.62,1.92,3.15,9.63,1.81,11.45-9.83,13.23-16.91,19.49-18.75,36.65-.16,1.48-1.42,7-3.58,7.82-1.65.64-4.69,1-9.22-2-2.87-1.89-7-8.27-8-11.92-6.53-24.3-5-19.21,8-40.26,4.14-6.72,18-7.75,24-7.1Z"/><path d="M490.58,84.25c-1.09,1.9-5.45,9.57-7.89,9.88-17.74,2.31-27.91,1.54-43,12.88-1.31,1-3.72.27-5.95-.76-1.72-.78-5.26-1.25-6.15-6.93-.56-3.59-1.46-10,1.95-12.75C453.68,67.36,444.66,73.14,471,67.43c8.39-1.83,16,3.41,19.76,8.42Z"/><path d="M500.49,147c-.69-5.32-5.84-9.9-11.59-13.15C466,120.9,473.18,125,443.41,123c-4.2-.29-7.58,4.82-9.41,7.71a9.89,9.89,0,0,0-1.1,2.3,132.46,132.46,0,0,1,11.49,8.21c2,1.47,3.93,3,5.83,4.53,10.92,2.38,18.73,6.54,29.61,13.93,1.52,1,2.52,1.18,7.63,4.1,1.43.82,10.36-1.27,11.35-2.33C500.37,159.7,500.81,149.43,500.49,147Z"/><path d="M491.94,192.61c-12.85-18.36-14.49-20.65-23.64-25.68a51.91,51.91,0,0,1,3.31,6.09,134.45,134.45,0,0,1,7.13,17.81c2.52,8.59,3.25,17.64,4.18,26.5.35,3.31.78,6.62,1.14,9.93a7.55,7.55,0,0,0,1.81-.37l10.32-4.06c2.59-1.08,1.49-5.74,2.32-8.68C500.32,207.66,496.79,199.54,491.94,192.61Z"/><path d="M364,106.47c7.65,2.11,15.3,4.18,22.86,6.62a299.52,299.52,0,0,1,33.63,13.27c3.71,1.72,7.35,3.59,10.87,5.67a106.81,106.81,0,0,1,9.94,6.78c2.47-24.36,3.41-51.22-38-52.18-22-.51-44.31,2.93-58,16.46A129.73,129.73,0,0,1,364,106.47Z"/><path d="M364,106.47c7.65,2.11,15.3,4.18,22.86,6.62a299.52,299.52,0,0,1,33.63,13.27c3.71,1.72,7.35,3.59,10.87,5.67a103.86,103.86,0,0,1,9,6.08C442.8,115,442.61,87,404.74,87.78c-27.27.58-46,4.71-57.47,15.56A120.75,120.75,0,0,1,364,106.47Z"/><path d="M414.89,123.83a2.19,2.19,0,0,0-.72-.35l-.28-.09Z"/><path d="M411.79,122.48c-3.25-1.84-5.31-5.39-5.69-11.34-.14-2.25-1.9-1.3-1.9-1.3v1.38a14.15,14.15,0,0,0,3.75,9.64C409.24,121.39,410.52,121.94,411.79,122.48Z"/><path d="M421.34,116.53c-2.41-3.68-1.1-7.37.69-8.69.9-.66,6.05-1.67,7.14-1.49,3.83.66,1.66,7.69,1.15,10.69-.19,1.12-.4,2.24.25,3.17a17.63,17.63,0,0,1,2.61,7.41c.17,6.8-4.81.63-4.81.63-1.71-1.72-1.36.28-1.36.28a13.93,13.93,0,0,0,.94,1.56c1.15.63,2.3,1.27,3.42,1.94l.29.18c1.84-.43,3.06-2.82,3.06-2.82.57-5.23-3.26-11.15-3.26-11.15,5-16.29-6.23-12.76-6.23-12.76-12.69,2-4.06,15.16-4.06,15.16C423.92,121.67,421.34,116.53,421.34,116.53Z"/></g><path class="cls-16" d="M384.87,154.5l0,0a.77.77,0,0,1-.55.35.23.23,0,0,0-.14.07l-.45.38c-.19.16-.54,0-.51-.19l.06-.52c0-.06-.11-.11-.28-.15-.43-.12-.66-.49-.49-.81l.06-.11a.21.21,0,0,0-.11-.26l-.58-.29a.22.22,0,0,1-.09-.13c-.09-.39.53-.62.88-.32h0c.19,0,.31-.16.25-.3l-.21-.51c-.09-.21.22-.38.45-.25l.51.55c.15.09.41-.17.48-.31l.08-.41c.11-.21.65-.25.73,0l0,.84h0a.49.49,0,0,0,.81.09l.27-.38a.31.31,0,0,1,.5,0,.2.2,0,0,1,0,.17l-.29.47c-.09.13.12.46.31.5l.55,0c.28,0,.33.35.07.44l-.62.2a6.33,6.33,0,0,0-.62.16,1.25,1.25,0,0,1-.4.13c-.12,0-.23,0-.25.08a.53.53,0,0,1-.16.19A.73.73,0,0,0,384.87,154.5Z"/><path class="cls-16" d="M353.2,162.87l0,0a.73.73,0,0,1-.55.35.27.27,0,0,0-.14.07l-.45.38c-.19.16-.54,0-.51-.19l.07-.52c0-.06-.12-.11-.29-.16-.43-.11-.66-.48-.49-.8l.06-.11a.2.2,0,0,0-.11-.26l-.57-.29a.16.16,0,0,1-.09-.13c-.1-.39.52-.62.88-.32h0c.19,0,.32-.16.25-.3l-.21-.51c-.09-.21.22-.38.45-.25l.51.55c.15.09.41-.17.48-.31l.08-.41c.11-.21.66-.25.73,0l0,.84h0a.49.49,0,0,0,.81.09l.28-.39a.3.3,0,0,1,.49,0,.15.15,0,0,1,0,.17l-.29.47c-.09.13.12.46.31.5l.55,0c.28,0,.33.35.07.44l-.61.2a5.83,5.83,0,0,0-.63.16,1.25,1.25,0,0,1-.4.13c-.12,0-.23,0-.25.08a.45.45,0,0,1-.16.19A.8.8,0,0,0,353.2,162.87Z"/><path class="cls-6" d="M588.09,174.83c-8.12-8.69-13.09-16-1.49-20.09,23.53-8.32,44.28-13.59,63.32-31.38C678.08,97.06,762.75,39.93,852.78,58c12,2.41,11.09,10.23,8.53,14.4-18.55,30.12-74.92,94.34-129.24,119.4-33.74,15.57-70,23-100.94,7.52a18.06,18.06,0,0,0-7.49-1.88l-23.22-1.55c-4.79-.16-8.82-11-12-14.42Z"/><path class="cls-3" d="M573.1,186.12c-7.28-7.75-4-20,6.4-23.64,21-7.37,51.94-20.08,68.93-35.89,25.12-23.38,100.7-74.11,181.22-57.83,10.71,2.17,9.94,9.14,7.66,12.84-16.53,26.8-66.8,83.89-115.31,106.11-30.13,13.81-62.54,20.39-90.22,6.53a16.16,16.16,0,0,0-6.71-1.69l-40.86-1.48a16,16,0,0,1-11.11-4.95Z"/><path class="cls-17" d="M573.1,186.12c-7.28-7.75-4-20,6.4-23.64,21-7.37,51.94-20.08,68.93-35.89,25.12-23.38,100.7-74.11,181.22-57.83,10.71,2.17,9.94,9.14,7.66,12.84-16.53,26.8-66.8,83.89-115.31,106.11-30.13,13.81-62.54,20.39-90.22,6.53a16.16,16.16,0,0,0-6.71-1.69l-40.86-1.48a16,16,0,0,1-11.11-4.95Z"/><path d="M599.45,178.27c.52-1.6,51.61-26.39,102.87-50,47.58-21.93,91.66-35.48,99.2-35.89"/><path class="cls-4" d="M599.45,178.27c.52-1.6,51.61-26.39,102.87-50,47.58-21.93,91.66-35.48,99.2-35.89"/><path class="cls-6" d="M284.21,286.47c-6.71-13-13.31-22-24.47-11.69-22.62,20.86-40,40.29-72.16,51.61-47.6,16.73-163.15,78.1-187,183-3.17,14,7.12,17,13.67,16.32,47.43-4.58,157.24-32.27,216.81-77.47,37-28.08,65.14-62.92,61.67-103.64a18.32,18.32,0,0,1,1.51-8.92l10.07-25.49c2.27-5.17-9.31-14.94-11.91-20Z"/><path class="cls-3" d="M306.14,276.2c-6-11.64-23.08-14.28-33-5.08-20.14,18.66-52.1,45.17-80.73,55.3C150.05,341.39,47.24,396.31,26,490.19c-2.82,12.49,6.33,15.17,12.16,14.61,42.2-4.1,139.9-28.89,192.9-69.33,32.93-25.13,58-56.3,54.88-92.74a16.41,16.41,0,0,1,1.35-8l19.28-44.23a16.61,16.61,0,0,0-.46-14.32Z"/><path d="M282.64,300.3c-2.28-.25-59.84,41.65-116,84.31-52.16,39.61-92,79.7-96.39,87.52"/><path class="cls-4" d="M282.64,300.3c-2.28-.25-59.84,41.65-116,84.31-52.16,39.61-92,79.7-96.39,87.52"/><g class="cls-7"><path class="cls-18" d="M568.67,145s86.55,23.72-6.66,126.64c0,0-34.14,83-10,174.27a97.53,97.53,0,0,1,1.59,43.22c-4.39,23-8.62,29.18-22.74,55.26,0,0-41.42,96.58-4.81,144.73,0,0-67.56,60.26-208.49,12.11,11.87-42.5,23.41-94,82.81-133.51,0,0,24.68-7.55,17.44-114.79,0,0-12.21-94.42-103.2-139.75,0,0-50.55-2.83-55.79-25.49,0,0-5.24-65.12,63.56-78.83S458.82,146.78,568.67,145Z"/><path class="cls-19" d="M561.7,148.37a9.18,9.18,0,0,0-3.4-.58c-65,1.43-113.87,21.53-157.4,39.06,1.37.47,2.74,1,4.09,1.46,2.59,1,5.13,2.1,7.68,3.18s5,2,7.46,3.22a38.94,38.94,0,0,1,5,2.85c4.47,3,8.62,6.48,12.78,9.9a46.33,46.33,0,0,1,4.4,4.12,60.59,60.59,0,0,1,4,4.73c3.44,4.41,7,8.76,10.09,13.44A137.18,137.18,0,0,1,467.94,252c4.39,10.38,8.78,20.75,12.45,31.42,1,2.81,1.89,5.65,2.78,8.49.31.54.61,1.08.91,1.62,6,10.71,10.75,21.92,15.42,33.25a225.74,225.74,0,0,1,8.75,25.43,228.36,228.36,0,0,1,5.68,26.27,326.86,326.86,0,0,1,4,36.78c.87,21.38-1.43,43-5.67,64s-11.84,41-21.18,60.13c-10.17,20.79-25,39.15-40.07,56.57q-3.31,3.83-6.66,7.61a31.54,31.54,0,0,1-4.13,11.66c-.24.88-.45,1.76-.65,2.65-.89,13.18.79,26.54,2.54,39.56q-.76-5.64-1.52-11.27c.89,6.6,1.75,13.2,2.62,19.8a86.93,86.93,0,0,0,3.41,14.27c1,2,2.17,3.95,3.4,5.83a72.74,72.74,0,0,0,5.73,5.65,111.67,111.67,0,0,0,15.44,8.65c4.23,1.62,8.51,3.09,12.83,4.44a128.54,128.54,0,0,0,27-13.7,9.25,9.25,0,0,0,3-12c-24-44.33,3.95-119.11,8.6-130.85a9,9,0,0,1,1.54-2.57c15.87-18.4,23.85-75,25.34-86.55a9.31,9.31,0,0,0-.38-4.06c-28.09-87-.39-170.42,4.12-183a9.31,9.31,0,0,1,1.65-2.84C631.15,179.54,573,152.54,561.7,148.37Z"/><path class="cls-18" d="M432.26,236.51s14.72,29.32,13,41c0,0,.38,12.86-13,19.72,0,0-6.72-1,2.86-8.23,0,0,10.53-5.45,6.12-24C441.24,265,425.76,231.54,432.26,236.51Z"/><path class="cls-18" d="M383.3,296.36c5.63,1,14.95,3.57,5.91,8.93-2.4,1.42-7,3.49-9.78,3-5.66-.95-12.31-5-3.09-10.65A10,10,0,0,1,383.3,296.36Z"/><path class="cls-18" d="M350.49,294.24s4.08,18.06,8.16,20.58c0,0,41,4.23,43,2.4,0,0-1.53-3.43-4.71-3.2,0,0-33.78.8-35.31-1.15C361.58,312.87,352.91,291.15,350.49,294.24Z"/><path class="cls-18" d="M436,347.82c1.58-.32,16.91,12.35,32.13-12.65.15-.25-.1-.57.05-.83,2.15-3.77,1-3.29-2.78-10.6-1.4-2.73-3.27-5.41-4.85-11.36,0,0,.45-6,3.32-.38,0,0,10.37,18.17,10.83,20.88a1,1,0,0,0,.42.65c3.51,2.38,26.87,17,30.22-14.55a1.12,1.12,0,0,1,1.69-.73c1.66,1,1,8,.94,8.08-.26.58-.48,12-17.93,17.07-2.38.68-9.18-1.83-14.28-5.11a5.09,5.09,0,0,0-3.14-.38c-2.95,1.51-2.21,2.36-7.56,7.77-.2.2-7.49,6-7.78,6.06-11.83,2.4-16,5-22.71-1.16l-.08-.08C434.21,350.16,432.13,348.61,436,347.82Z"/><path class="cls-18" d="M452.29,369.08c1.22-.2,13.72,16.55,27-4.38.14-.22,0-.5.1-.72,1.89-3.17,1-2.81-1.34-9.34-.85-2.44-5-11.29-5.76-16.53,0,0,1-3.5,2.76,1.55,0,0,9.21,21,9.36,23.38a.86.86,0,0,0,.27.58c2.47,2.24,19.41,13.59,24.19-13.59.11-.64,1.46-.39,2,0,1.18.93-.85,8.92-.88,9-.23.49-1.22,10.42-14.73,13.91-1.84.48-6.78-2.05-10.39-5.14a3.32,3.32,0,0,0-2.34-.49c-2.33,1.16-1.83,1.94-6.25,6.36-.16.17-6.07,4.84-6.3,4.87-9.08,1.49-12.9.09-17.48-5.56C452.4,373,449.31,369.57,452.29,369.08Z"/><path class="cls-18" d="M460.31,390.69c1,0,6.87,15.33,20.77-.5.14-.16.87-3.15,0-8.84-.33-2.12-.09-9.6.08-14,0,0,1.34-2.79,2,1.61,0,0,2.28,20.22,2.39,20.36,1.66,2.14,18.33,17,26.3-5,.08-.22.21-.38.64,1.21.29,1.09.78,2.42.76,2.45-.27.38-4.16,10.32-15.64,11.66-1.56.18-8.31-3.2-10.77-6.19a2.65,2.65,0,0,0-1.82-.68c-2.07.7-1.78,1.4-6,4.56-.16.12-6.6,2.68-6.78,2.69-7.59.18-9.53-.8-12.39-6C459.81,393.91,457.82,390.75,460.31,390.69Z"/><path class="cls-18" d="M481.08,394.68s-.28,13.58,1.5,12.78,2.21-5,2.13-8.14,0-7.83,0-7.83S480.51,393.71,481.08,394.68Z"/><path class="cls-18" d="M469,286.64s32.7-.58,47.65,26.69c.59,1.07,4.29,7.49,1.87,7-3.43-.73-8.9-10.84-12.13-12.59l-.07-.06a56.09,56.09,0,0,0-12.85-11.3C485.35,291,453.67,287.15,469,286.64Z"/><path class="cls-18" d="M431,308s-22.4,17.68-12.95,45c.37,1.07,2.48,7.61,3.74,5.91,1.78-2.4-1.78-12.5-.85-15.51,0,0,0-.06,0-.08a44.35,44.35,0,0,1,.55-15C423.16,320.11,441.68,299.87,431,308Z"/><path class="cls-18" d="M387.47,326.68s19.07,4,21.75,1.21,6.75,2.1,1.5,3.26-17.29.68-20.23-1.12S387.12,328.89,387.47,326.68Z"/><path class="cls-18" d="M399.45,334.91s9.4,4.45,11.25,1.78,3.22,2.26.28,3.27-9.21.2-10.47-1.66S398.91,337.09,399.45,334.91Z"/><path class="cls-18" d="M402.66,343.58s7.79,3.69,9.37,1.95,2.66,1.77.19,2.29-7.68-.44-8.71-1.81S402.19,345.06,402.66,343.58Z"/><path class="cls-18" d="M531.82,290.21s-11.85,10-15.11,8.85-3.86,4,.48,3,12.79-5.8,14-8.23S533.13,291.75,531.82,290.21Z"/><path class="cls-18" d="M529.34,298.26s-4.46,8.66-7.73,7.54-1,3.55,2,2.75,7.45-4.86,7.2-7S531.24,299.7,529.34,298.26Z"/><path class="cls-18" d="M531.57,304.66s-2,7.7-4.47,7.64-.23,3,1.82,1.62,4.64-5.51,4.15-7.1S533.13,305.31,531.57,304.66Z"/><path class="cls-18" d="M486.61,415.77c.3.08.46-.29.19-.42-2.53-1.18-7.37-2.67-10,1.57,0,0-5,6.37,3,10a6.6,6.6,0,0,0,7-.89c.82-.72,1.23-1.54.36-2.28a13.59,13.59,0,0,1-6.78,1.11s-5.34-2.38-2.08-6.7a6.7,6.7,0,0,1,3.25-2.16,8.93,8.93,0,0,1,5-.2Z"/><path class="cls-18" d="M484.69,419.93a2.22,2.22,0,0,1-2.29,2.14,1.74,1.74,0,0,1-1.88-2.06c.26-1.06.55-2.1,1.86-2.16A2.13,2.13,0,0,1,484.69,419.93Z"/><path class="cls-18" d="M511.37,430.41c1.5-3.05,10.59-21.14,19.9-29.12.69-.58,0-1.6-.89-1.33-2.92.88-7.39,3.28-11.77,9.86,0,0-14.86,20.92-8.05,21.06A.86.86,0,0,0,511.37,430.41Z"/><path class="cls-18" d="M457.39,431.65s-19.09-17-31.34-22.27a.88.88,0,0,1,.47-1.68c2.65.09,7,1.24,13.22,5.75C439.74,413.45,463.69,429.9,457.39,431.65Z"/><path class="cls-18" d="M471.07,272.18S450.61,284,443.73,258.46c0,0-1.72-13.38-3.83-14.75,0,0,.77,12.18,0,8.23,0,0,3,17.32,9.22,21.44C449.12,273.38,464.38,280.24,471.07,272.18Z"/><path class="cls-18" d="M504.56,235.44c4.6-2.32,12.77-5.42,9.68,3.79-.82,2.44-2.78,6.59-5.08,7.77-4.58,2.36-11.76,2.87-8.72-6.7A8.27,8.27,0,0,1,504.56,235.44Z"/><path class="cls-18" d="M530.59,205.53s24.22,31.55,20.4,38.18c0,0-26.64,34.41-30.72,34.41,0,0-1-.53,1.78-4.11l22-27c1.12-1.31,4.9-4,4.12-5.46-4.28-8.2.26-2.06-19.63-34.64C527.33,204.9,530.59,205.53,530.59,205.53Z"/><path class="cls-19" d="M567.78,261.12c.36-.95-.35-3.72.34-4.49,73.77-81.73,11.66-107.29.79-111.1a9.42,9.42,0,0,0-3.29-.53c-96.68,2-156.49,44.33-217.28,56.37-12.53,2.48-22.29,6.87-29.89,12.27a1.15,1.15,0,0,0,0,1.9h0l.09.07c5.08,4.88,13.7,23.2,15,24.14.19.19.39.37.57.56a70.55,70.55,0,0,0,29,17.31c5.93,1.8,11.86,3.6,17.74,5.53,19.5,6.39,54.95,2.38,75.46.09,72.42-8.06,68.3-4.52,82.71-13.32,52.32-32,48.89-37,52.56-35.21"/><path class="cls-19" d="M432.26,236.51s14.72,29.32,13,41c0,0,.38,12.86-13,19.72,0,0-6.72-1,2.86-8.23,0,0,10.53-5.45,6.12-24C441.24,265,425.76,231.54,432.26,236.51Z"/><path class="cls-19" d="M502.74,336.55A17.36,17.36,0,0,0,508,326.33c0-.09.72-7.1-.94-8.08a1.12,1.12,0,0,0-1.69.73c-.86,8.13-3.06,13.2-5.9,16.19Z"/><path class="cls-19" d="M469,286.64s32.7-.58,47.65,26.69c.59,1.07,4.29,7.49,1.87,7-3.43-.73-8.9-10.84-12.13-12.59l-.07-.06a56.09,56.09,0,0,0-12.85-11.3C485.35,291,453.67,287.15,469,286.64Z"/><path class="cls-19" d="M433.45,308.16c1.3-2.15,1.29-2.87-1.49-.88C432.46,307.57,433,307.86,433.45,308.16Z"/><path class="cls-19" d="M531.82,290.21s-11.85,10-15.11,8.85-3.86,4,.48,3,12.79-5.8,14-8.23S533.13,291.75,531.82,290.21Z"/><path class="cls-19" d="M529.34,298.26s-4.46,8.66-7.73,7.54-1,3.55,2,2.75,7.45-4.86,7.2-7S531.24,299.7,529.34,298.26Z"/><path class="cls-19" d="M531.57,304.66s-2,7.7-4.47,7.64-.23,3,1.82,1.62,4.64-5.51,4.15-7.1S533.13,305.31,531.57,304.66Z"/><path class="cls-19" d="M471.07,272.18S450.61,284,443.73,258.46c0,0-1.72-13.38-3.83-14.75,0,0,.77,12.18,0,8.23,0,0,3,17.32,9.22,21.44C449.12,273.38,464.38,280.24,471.07,272.18Z"/><path class="cls-19" d="M504.56,235.44c4.6-2.32,12.77-5.42,9.68,3.79-.82,2.44-2.78,6.59-5.08,7.77-4.58,2.36-11.76,2.87-8.72-6.7A8.27,8.27,0,0,1,504.56,235.44Z"/><path class="cls-19" d="M530.59,205.53s24.22,31.55,20.4,38.18c0,0-26.64,34.41-30.72,34.41,0,0-1-.53,1.78-4.11l22-27c1.12-1.31,4.9-4,4.12-5.46-4.28-8.2.26-2.06-19.63-34.64C527.33,204.9,530.59,205.53,530.59,205.53Z"/><path class="cls-18" d="M412.09,218.44s-2.35-3-16.35-1.9-19.66.76-17.95,2.92,20.75-.76,20.75-.76S409.86,219.84,412.09,218.44Z"/><g class="cls-7"><path class="cls-18" d="M487,0l-.83.17L493.89,5Z"/><path class="cls-18" d="M491.74,3.42l-.29,0L493.89,5Z"/></g><path class="cls-18" d="M269.2,68.93c-3.84-14.3-3.21-9.49-1.4-15.05.22-.65,2.22-3.5,5.06-3.46C308,51,320.72,62.57,352.77,90.47c2.59,2.26,4,1.81.82,3.61-20.09,11.34-6.62.74-18.74,14.63-1.91,2.19-2.71,1.37-4.51-.2-22.64-19.8-28-25.4-53.32-34C275,73.8,269.8,71.16,269.2,68.93Z"/><path class="cls-18" d="M266.2,154.7c-2-.73-5.43-1.28-7.44-6.22-.23-.58,1.63-11.95,3.93-13.53,25.66-17.65,32.64-15.52,67.38-17.88,2.81-.19,3.41-1.42,2.5,1.89-5.74,20.88-4.15,17.12-4.12,17.91.07,2.74-.71,3.4-2.66,3.53-24.6,1.61-29,2.4-49,13.31C275.19,154.59,268.76,155.66,266.2,154.7Z"/><path class="cls-18" d="M344.36,175a7.77,7.77,0,0,1-2.39,6.1c-12.61,12.91-14.46,21.09-19.78,38.64-.46,1.52-2.85,7.09-5.2,7.8-1.8.54-4.95.64-8.94-2.77-2.52-2.15-5.41-9-5.67-12.86-1.71-25.54-1.16-20.17,16.23-40.92,5.54-6.62,22.75-9.66,24.43-6.77Z"/><path class="cls-18" d="M376.18,183.33c1,1.84,1.31,4.95.82,8.24-3.62,24-1.57,33.89,1.87,56.28.3,1.93.9,9.65-.48,12.4a8.13,8.13,0,0,1-7.45,4.91c-2.66,0-7.53-4.48-9.29-8.15-11.69-24.42-9.09-19.45-5.32-55.51,1.21-11.5,12.12-29.44,14.5-28Z"/><path class="cls-18" d="M398.39,18.55c.91,1.64,4.57,8.23,3.76,10.56-5.93,17-10.83,26-9.12,43.65.14,1.52.11,7.45-1.59,9.14-1.3,1.29-3.86,2.82-8.34,1.71-2.83-.71-7.61-5.35-9.16-8.55-10.29-21.34-8-17-.83-42.91,2.28-8.27,14.06-14.86,19.29-16.6Z"/><path class="cls-18" d="M481.41,31.66c-.59,2.22-3,11.16-5.66,12.91C456.19,57.35,444.27,63,430.81,81.5c-1.16,1.6-4.16,2.5-7.08,3-2.23.41-6.45,2.2-9.41-1.89-1.88-2.58-5.11-7.3-2.13-11.6C433.32,40.54,425,50.79,453.18,30c9-6.64,19.5-7,25.53-5.25Z"/><path class="cls-18" d="M514.49,118.69c-.68,1.43-9.25,6.62-11,6.26-6.23-1.28-7.32-1.1-9.22-1.64-18.16-5.24-28.86-6.42-48.27-2.09-1.68.37-3.72-1.29-5.45-3.19-1.33-1.44-4.56-3.37-3-9.06,1-3.61,2.81-10,7.25-11.15,31.49-7.95,22.7-9.78,50.6-4.17,7,1.41,13.8,4.39,16.23,9.64,1.1,2.37,4,13.11,2.89,15.4Z"/><path class="cls-18" d="M520.51,192c-1.46,1.25-8.92,4-10.72,2.65-6.45-4.93-7.77-5.33-9.66-7-18.06-16.09-29.61-23.41-53.72-29.33-2.09-.51-3.58-3.54-4.64-6.66-.8-2.38-3.53-6.37,1-12,2.84-3.56,8-9.82,13.62-8.61,39.56,8.55,30.48,1.56,59.4,23.52,7.25,5.5,13.52,12.68,13.73,20,.1,3.31,2.73,7.75.4,9.74Z"/><path class="cls-18" d="M417.78,253.33c4.08,3.5,7.33,5.51,9.54-.23.53-1.36.43-3.63.34-6.47-1-28.64-11.26-46-25.86-72-1.45-2.59-1.86-1.55-3.17-1.83-5.6-1.18-1.05,1.75-5.29,14-3.9,11.3,3.79,32.78,4.54,34.8,7.54,20.31,1.12,3.1,10.56,22.92C409.38,246.47,414.3,250.34,417.78,253.33Z"/><path class="cls-18" d="M472.3,256.62c-1.13.29-10-5.31-11.15-7.45-4.24-7.68-5.16-8.73-6.39-11.18-11.73-23.46-19.46-35.93-36.26-53.9-1.45-1.56-2.3-5-2.82-8.2-.4-2.47-2.06-7.35,1.55-9.77,2.29-1.53,10.78-3.19,14.68.83,27.65,28.51,17.37,16.73,36.43,51,4.78,8.6,8.74,18.12,8.36,24.51-.18,2.89-2.59,13.67-4.4,14.13Z"/><path class="cls-18" d="M275.18,71.52c-3.71-13.71-3.1-9.1-1.36-14.43.2-.63,2.12-3.36,4.84-3.31,33.67.6,45.93,11.71,76.72,38.51,2.49,2.17,3.84,1.74.79,3.46-19.26,10.85-6.35.7-18,14-1.83,2.11-2.6,1.31-4.32-.19-21.76-19-26.89-24.4-51.2-32.69C280.72,76.2,275.76,73.67,275.18,71.52Z"/><path class="cls-18" d="M273.15,152.76c-1.87-.7-5.21-1.23-7.15-6-.22-.55,1.55-11.45,3.74-13C294.32,116.91,301,119,334.35,116.73c2.7-.18,3.27-1.36,2.41,1.81-5.47,20-3.95,16.42-3.93,17.17.08,2.63-.67,3.26-2.54,3.38-23.59,1.53-27.82,2.28-47,12.72C281.77,152.66,275.61,153.67,273.15,152.76Z"/><path class="cls-18" d="M347.9,173.61a7.4,7.4,0,0,1-2.28,5.85c-12.08,12.37-13.84,20.22-18.92,37.06-.44,1.45-2.72,6.79-5,7.47-1.72.52-4.74.61-8.56-2.66-2.42-2.07-5.2-8.68-5.46-12.36-1.67-24.51-1.13-19.35,15.51-39.24,5.31-6.34,21.8-9.24,23.42-6.47Z"/><path class="cls-18" d="M378.64,181.64c1,1.76,1.27,4.75.79,7.9-3.45,23-1.47,32.52,1.85,54,.29,1.86.87,9.26-.45,11.89a7.76,7.76,0,0,1-7.13,4.71c-2.56,0-7.23-4.32-8.92-7.84-11.23-23.45-8.74-18.68-5.15-53.27,1.14-11,11.59-28.23,13.87-26.82Z"/><path class="cls-18" d="M398.65,22.58c.87,1.57,4.4,7.9,3.62,10.14C396.6,49,391.9,57.63,393.56,74.56c.15,1.46.12,7.14-1.51,8.76-1.24,1.24-3.7,2.7-8,1.63-2.72-.69-7.31-5.14-8.8-8.22-9.9-20.48-7.67-16.26-.85-41.14,2.18-7.93,13.47-14.23,18.49-15.89Z"/><path class="cls-18" d="M478.59,35.35c-.57,2.12-2.84,10.69-5.41,12.37C454.43,60,443,65.32,430.11,83.08c-1.12,1.53-4,2.39-6.79,2.9-2.14.4-6.19,2.1-9-1.81-1.81-2.48-4.92-7-2.06-11.13,20.23-29.23,12.22-19.41,39.27-39.34,8.63-6.36,18.7-6.72,24.5-5Z"/><path class="cls-18" d="M510.72,118.88c-.65,1.37-8.86,6.33-10.54,6-6-1.24-7-1.06-8.84-1.59-17.44-5-27.71-6.19-46.32-2.06-1.61.35-3.56-1.25-5.23-3.07-1.28-1.39-4.38-3.23-2.93-8.7.92-3.45,2.68-9.61,6.94-10.68,30.2-7.58,21.77-9.34,48.54-3.93,6.72,1.36,13.25,4.23,15.59,9.26,1.06,2.28,3.81,12.59,2.79,14.78Z"/><path class="cls-18" d="M517.37,188.6c-1.4,1.2-8.55,3.86-10.28,2.53-6.19-4.74-7.46-5.12-9.27-6.74C480.47,169,469.37,161.9,446.24,156.2c-2-.49-3.44-3.4-4.46-6.39-.77-2.29-3.39-6.12.9-11.5,2.72-3.41,7.71-9.41,13.06-8.24,38,8.25,29.25,1.54,57,22.63,7,5.28,13,12.18,13.2,19.2.09,3.18,2.63,7.43.4,9.34Z"/><path class="cls-18" d="M418.38,248.74c3.91,3.36,7,5.3,9.14-.21.51-1.3.41-3.48.32-6.21C426.9,214.84,417,198.2,403,173.19c-1.39-2.48-1.79-1.49-3-1.76-5.37-1.14-1,1.67-5.05,13.41-3.74,10.84,3.66,31.47,4.38,33.41,7.26,19.49,1.08,3,10.15,22C410.31,242.14,415,245.87,418.38,248.74Z"/><path class="cls-18" d="M470.89,251.52c-1.09.28-9.55-5.11-10.69-7.17-4.08-7.38-5-8.38-6.14-10.74-11.28-22.53-18.7-34.5-34.82-51.78-1.4-1.49-2.22-4.75-2.72-7.86-.39-2.38-2-7.06,1.48-9.38,2.2-1.46,10.33-3,14.07.82,26.54,27.4,16.67,16.08,35,49,4.59,8.26,8.39,17.4,8,23.53-.16,2.77-2.46,13.12-4.2,13.56Z"/><path class="cls-18" d="M279.42,75c-3.65-13.19-3-8.75-1.4-13.86.2-.6,2-3.21,4.64-3.14,32.39.79,44.26,11.53,74,37.44,2.41,2.1,3.71,1.7.79,3.33-18.46,10.29-6.1.63-17.18,13.33-1.75,2-2.5,1.24-4.17-.22-21-18.39-26-23.58-49.45-31.7C284.79,79.49,280,77,279.42,75Z"/><path class="cls-18" d="M278.27,152c-1.81-.68-5-1.2-6.93-5.76-.23-.53,1.37-11,3.46-12.43,23.48-16.13,29.95-14.13,62-16.14,2.59-.16,3.13-1.29,2.33,1.75-5.06,19.19-3.63,15.74-3.6,16.46.1,2.52-.62,3.13-2.41,3.24-22.68,1.37-26.74,2.07-45.06,12C286.56,151.93,280.64,152.88,278.27,152Z"/><path class="cls-18" d="M349.78,173.62a7,7,0,0,1-2.15,5.61c-11.51,11.84-13.16,19.4-17.93,35.58-.42,1.39-2.58,6.52-4.74,7.16-1.65.49-4.53.56-8.22-2.62-2.33-2-5-8.39-5.29-11.94-1.74-23.61-1.19-18.65,14.65-37.7,5-6.07,20.84-8.75,22.41-6.07Z"/><path class="cls-18" d="M379.9,181.53c.93,1.7,1.23,4.58.79,7.61-3.2,22.12-1.26,31.28,2,52,.28,1.8.87,8.92-.38,11.45a7.34,7.34,0,0,1-6.82,4.47c-2.45,0-7-4.22-8.59-7.63-10.88-22.66-8.47-18-5.18-51.31,1.05-10.61,11-27.07,13.18-25.69Z"/><path class="cls-18" d="M397.38,28.35c.84,1.52,4.27,7.62,3.53,9.75-5.36,15.58-9.83,23.84-8.14,40.1.14,1.41.14,6.86-1.41,8.4-1.19,1.19-3.54,2.57-7.68,1.5-2.62-.67-7.06-5-8.5-7.94-9.64-19.74-7.46-15.67-1-39.5,2.05-7.6,12.88-13.57,17.69-15.12Z"/><path class="cls-18" d="M474.28,41.28c-.53,2-2.65,10.23-5.12,11.83-18,11.64-29,16.74-41.23,33.69-1.06,1.47-3.83,2.28-6.52,2.76-2.06.37-6,2-8.73-1.78-1.76-2.38-4.8-6.72-2.08-10.66,19.27-27.91,11.63-18.54,37.55-37.52,8.26-6.06,18-6.36,23.57-4.71Z"/><path class="cls-18" d="M506.11,121.51c-.61,1.31-8.48,6-10.09,5.68-5.76-1.22-6.76-1.06-8.52-1.58-16.79-4.94-26.68-6.12-44.55-2.27-1.55.33-3.44-1.22-5.06-3-1.23-1.35-4.23-3.14-2.87-8.37.87-3.31,2.52-9.21,6.61-10.21,29-7.09,20.88-8.83,46.66-3.47,6.47,1.35,12.77,4.15,15,9,1,2.2,3.75,12.11,2.77,14.2Z"/><path class="cls-18" d="M513.76,187.83c-1.33,1.14-8.19,3.64-9.87,2.36-6-4.59-7.2-5-9-6.53-16.78-14.94-27.5-21.76-49.79-27.39-1.92-.48-3.33-3.28-4.32-6.16-.76-2.2-3.31-5.89.79-11,2.59-3.26,7.35-9,12.51-7.83,36.56,8.16,28.14,1.67,55,22.08,6.73,5.12,12.56,11.78,12.81,18.52.12,3.05,2.58,7.15.45,9Z"/><path class="cls-18" d="M418.41,246c3.77,3.27,6.77,5.15,8.77-.13.47-1.25.38-3.35.27-6-1-26.46-10.62-42.56-24.2-66.74-1.35-2.4-1.72-1.45-2.93-1.72-5.15-1.14-.95,1.61-4.77,12.88-3.53,10.41,3.67,30.32,4.37,32.19,7.06,18.82,1.05,2.87,9.85,21.26C410.64,239.59,415.19,243.22,418.41,246Z"/><path class="cls-18" d="M469,248.58c-1,.26-9.18-5-10.29-7-3.94-7.13-4.79-8.1-5.94-10.38-10.92-21.77-18.1-33.36-33.65-50.1-1.34-1.45-2.14-4.6-2.64-7.6-.39-2.29-1.94-6.81,1.37-9,2.09-1.39,9.88-2.85,13.49.89C456.92,192,447.4,181,465.13,212.84c4.45,8,8.14,16.81,7.83,22.71-.14,2.67-2.3,12.62-4,13Z"/><path class="cls-18" d="M305.81,55c3.84-13.65,1.88-9.11,6.7-14.15.56-.59,4.11-3.08,6.94-2.81,34.92,3.4,41.51,15.23,58.67,43.85,1.38,2.32,3,2-1.12,3.43-26.28,8.94-7.05.15-26.69,12.11-3.11,1.89-3.47,1.06-4.42-.55-12.08-20.3-14.43-26-35.22-36.06C309,60,305.21,57.15,305.81,55Z"/><path class="cls-18" d="M269.87,128.69c-1.28-1.47-3.82-3.14-3.59-9.88,0-.79,5.69-14.45,8.08-15.77C301.14,88.31,305.87,93,334.2,99.9c2.29.56,3.22-.8,1.28,3.07-12.22,24.42-9.58,20.19-9.85,21.17-.95,3.44-1.81,4-3.4,3.65-20-5-23.81-5.25-43.61,2.67C277,131.1,271.54,130.6,269.87,128.69Z"/><path class="cls-18" d="M329.27,155.41a7.13,7.13,0,0,1-3.8,5.72c-15.92,8.5-19.61,16.84-28.93,34.06-.8,1.49-4.49,6.62-7.1,6.29-2-.25-5.29-1.64-8.71-7.38-2.17-3.64-3.7-12.78-3.14-17.22,3.71-29.59,3.14-23.27,25.72-38.32,7.2-4.8,25.78,0,26.91,4.07Z"/><path class="cls-18" d="M354.67,179.25c.82,2.26.43,5.45-1.05,8.43-10.8,21.73-10.68,32.36-12,55.84-.11,2-1.32,9.84-3.79,11.88-1.89,1.56-5.41,3.29-10.84,1.31-3.43-1.26-8.55-7.92-9.87-12.32-8.8-29.33-6.73-23.26,7.35-56.7,4.48-10.67,23.12-23.07,25.8-20.53Z"/><path class="cls-18" d="M431.49,27c.67,2.07,3.37,10.39,1.89,12.37-10.81,14.38-18.58,21.21-20.71,39.77-.18,1.6-1.6,7.55-4,8.48-1.8.71-5.12,1.07-10-2.11-3.1-2-7.55-8.88-8.59-12.82-6.93-26.23-5.26-20.73,9-43.6,4.55-7.29,19.7-8.51,26.14-7.86Z"/><path class="cls-18" d="M499.53,73.87c-1.19,2.06-6,10.38-8.66,10.75-19.34,2.63-30.41,1.88-47,14.25-1.43,1.07-4,.33-6.47-.77-1.86-.83-5.71-1.32-6.64-7.44-.59-3.88-1.51-10.85,2.22-13.8,26.46-21,16.6-14.65,45.3-21,9.15-2,17.38,3.57,21.44,9Z"/><path class="cls-18" d="M507.89,157.22c-1.07,1.16-10.82,3.48-12.37,2.61-5.54-3.12-6.63-3.27-8.28-4.37-15.7-10.53-25.53-14.92-45.34-16.71-1.71-.16-3.14-2.36-4.22-4.7-.82-1.78-3.31-4.6-.12-9.56,2-3.14,5.73-8.69,10.3-8.4,32.41,2,24.6-2.4,49.46,11.45,6.24,3.47,11.81,8.39,12.53,14.13.32,2.59-.23,13.7-2,15.55Z"/><path class="cls-18" d="M491.28,228.86c-1.77.74-9.72,1.11-11-.75-4.63-6.66-5.77-7.44-7.06-9.62-12.29-20.83-21.06-31.33-42.22-44.31-1.83-1.12-2.33-4.46-2.38-7.76,0-2.52-1.42-7.14,4.56-11.13,3.79-2.52,10.66-6.9,15.61-4,35.06,20.21,28.55,10.79,49.39,40.51,5.23,7.45,9,16.21,7,23.24-.92,3.18.24,8.21-2.58,9.4Z"/><path class="cls-18" d="M369.94,258c4,4.46,7.56,7.27,13.54,2.28,1.41-1.18,2.41-3.41,3.7-6.19,12.93-28,7.06-47.56-.51-76.67-.75-2.89-1.84-2-3.54-2.6-7.29-2.62-2.35,1.41-14.4,12.18-11.13,9.94-11,32.81-11,35,.5,21.69,0,3.31,3.44,25C361.54,249.08,366.54,254.14,369.94,258Z"/><path class="cls-18" d="M433.92,280c-1.69,0-10.92-8.12-11.47-10.64-2-9-2.68-10.35-3.13-13.2-4.3-27.24-8.61-42.11-22.54-65.07-1.21-2-.67-5.71.23-9.18.69-2.65.85-8.11,7-9.62,3.88-1,16.25-.4,19.56,4.78,23.46,36.67,15.32,21.82,24.21,62.16,2.23,10.11,2.87,21-.83,27.41-1.67,2.93-10.33,13.36-13,13.36Z"/><path class="cls-18" d="M310.41,57.92c3.67-13.09,1.79-8.73,6.41-13.57.54-.56,3.94-3,6.64-2.68,33.48,3.3,39.82,14.66,56.29,42.15,1.34,2.22,2.93,1.94-1.06,3.29-25.18,8.54-6.76.14-25.57,11.59-3,1.81-3.32,1-4.24-.53-11.6-19.5-13.86-24.94-33.8-34.65C313.46,62.73,309.84,60,310.41,57.92Z"/><path class="cls-18" d="M276.08,128.24c-1.22-1.41-3.67-3-3.45-9.49,0-.75,5.44-13.86,7.73-15.12,25.65-14.1,30.19-9.64,57.35-2.94,2.2.54,3.09-.77,1.24,2.94-11.69,23.43-9.17,19.37-9.43,20.32-.9,3.29-1.73,3.87-3.25,3.49-19.21-4.81-22.83-5.07-41.8,2.51C282.93,130.57,277.69,130.08,276.08,128.24Z"/><path class="cls-18" d="M333.26,155.56a6.85,6.85,0,0,1-3.63,5.5c-15.25,8.15-18.78,16.16-27.7,32.68-.77,1.43-4.3,6.36-6.79,6-1.91-.24-5.07-1.58-8.36-7.1-2.07-3.49-3.55-12.27-3-16.53,3.54-28.41,3-22.35,24.61-36.79,6.9-4.6,24.7,0,25.79,3.93Z"/><path class="cls-18" d="M358.27,178.75c.79,2.17.41,5.23-1,8.09-10.33,20.86-10.21,31.06-11.43,53.6-.11,1.95-1.25,9.45-3.62,11.41-1.81,1.5-5.19,3.16-10.38,1.25-3.29-1.21-8.2-7.61-9.47-11.84-8.46-28.16-6.47-22.34,7-54.43,4.29-10.24,22.13-22.14,24.7-19.69Z"/><path class="cls-18" d="M430.85,31.18c.64,2,3.24,10,1.82,11.86-10.33,13.79-17.77,20.34-19.79,38.15-.18,1.54-1.54,7.25-3.79,8.14-1.73.67-4.91,1-9.62-2-3-1.94-7.25-8.54-8.25-12.32-6.67-25.18-5.07-19.9,8.6-41.83,4.36-7,18.88-8.15,25.06-7.51Z"/><path class="cls-18" d="M496.13,76.24c-1.14,2-5.75,10-8.29,10.31-18.54,2.5-29.15,1.77-45,13.62-1.37,1-3.88.31-6.21-.74-1.78-.8-5.47-1.27-6.37-7.16-.56-3.72-1.46-10.4,2.12-13.24C457.71,59,448.27,65,475.77,58.91c8.77-1.95,16.66,3.44,20.57,8.62Z"/><path class="cls-18" d="M504.24,156.25c-1,1.11-10.37,3.33-11.85,2.49-5.32-3-6.37-3.15-7.94-4.21C469.38,144.42,460,140.19,441,138.44c-1.64-.15-3-2.27-4-4.51-.79-1.71-3.18-4.42-.13-9.17,1.93-3,5.49-8.34,9.87-8.06,31.07,2,23.58-2.27,47.43,11,6,3.34,11.32,8.07,12,13.58.32,2.49-.2,13.15-1.85,14.92Z"/><path class="cls-18" d="M489.32,224.68c-1.69.72-9.31,1.06-10.56-.73-4.45-6.4-5.54-7.14-6.78-9.24-11.81-20-20.23-30.09-40.52-42.58-1.76-1.08-2.24-4.28-2.29-7.44,0-2.42-1.38-6.86,4.36-10.68,3.63-2.42,10.21-6.61,15-3.87,33.64,19.44,27.38,10.39,47.4,38.94,5,7.16,8.65,15.56,6.71,22.31-.87,3.06.24,7.88-2.46,9Z"/><path class="cls-18" d="M373.07,253.65c3.83,4.29,7.25,7,13,2.2,1.35-1.13,2.31-3.27,3.54-5.94C402,223,396.3,204.25,389,176.29c-.72-2.77-1.76-1.91-3.39-2.5-7-2.52-2.25,1.36-13.79,11.69C361.19,195,361.32,217,361.37,219c.49,20.83,0,3.17,3.31,24C365,245.13,369.8,250,373.07,253.65Z"/><path class="cls-18" d="M434.54,274.42c-1.62,0-10.46-7.81-11-10.23-1.88-8.67-2.58-9.93-3-12.67-4.14-26.16-8.28-40.45-21.64-62.51-1.16-1.91-.65-5.48.21-8.81.66-2.54.82-7.78,6.69-9.24,3.72-.92,15.57-.36,18.75,4.61,22.5,35.23,14.69,21,23.23,59.71,2.14,9.71,2.77,20.12-.77,26.32-1.6,2.81-9.89,12.82-12.47,12.82Z"/><path class="cls-18" d="M312.82,61.48c3.44-12.59,1.67-8.4,6.06-13,.51-.54,3.75-2.82,6.35-2.55,32.09,3.38,38.22,14.36,54.16,41,1.29,2.15,2.81,1.89-1,3.17-24.07,8.08-6.47.09-24.43,11-2.83,1.73-3.17,1-4.06-.54-11.23-18.86-13.42-24.11-32.58-33.58C315.77,66.14,312.28,63.45,312.82,61.48Z"/><path class="cls-18" d="M280.41,128.74c-1.18-1.37-3.53-2.93-3.36-9.17,0-.72,5.13-13.32,7.31-14.52,24.49-13.45,28.87-9.12,54.93-2.51,2.11.53,2.95-.72,1.2,2.84-11.06,22.51-8.67,18.61-8.91,19.53-.85,3.17-1.64,3.72-3.1,3.35-18.42-4.75-21.89-5-40,2.18C287,131,282,130.52,280.41,128.74Z"/><path class="cls-18" d="M335.21,156.47a6.51,6.51,0,0,1-3.45,5.29c-14.54,7.83-17.88,15.55-26.34,31.49-.73,1.38-4.09,6.12-6.47,5.81-1.83-.24-4.85-1.55-8-6.89-2-3.38-3.43-11.87-2.94-16,3.28-27.43,2.78-21.58,23.38-35.45,6.57-4.42,23.6.12,24.66,3.89Z"/><path class="cls-18" d="M359.92,179.23c.76,2.11.41,5.06-.93,7.81-9.78,20.1-9.62,30-10.7,51.72-.09,1.88-1.16,9.12-3.41,11-1.72,1.44-4.94,3-9.92,1.16-3.15-1.18-7.87-7.38-9.1-11.47-8.2-27.23-6.28-21.6,6.45-52.54,4.06-9.86,21.07-21.28,23.54-18.9Z"/><path class="cls-18" d="M428,36.4c.62,1.91,3.16,9.63,1.81,11.45C420,61.08,412.94,67.34,411.11,84.5c-.16,1.48-1.43,7-3.59,7.81-1.64.65-4.69,1-9.22-2-2.86-1.89-7-8.27-8-11.92-6.54-24.31-5-19.21,8-40.27,4.14-6.71,18-7.74,24-7.09Z"/><path class="cls-18" d="M490.83,80.21c-1.09,1.9-5.45,9.56-7.88,9.88C465.2,92.4,455,91.63,439.92,103c-1.31,1-3.71.28-5.95-.75-1.71-.78-5.25-1.26-6.14-6.93-.57-3.59-1.46-10,1.94-12.75,24.16-19.21,15.14-13.43,41.46-19.15,8.39-1.82,16,3.42,19.75,8.43Z"/><path class="cls-18" d="M499.06,157.35c-1,1.07-9.91,3.15-11.34,2.34-5.12-2.93-6.12-3.07-7.64-4.1-14.49-9.84-23.54-14-41.74-15.76-1.57-.15-2.9-2.2-3.9-4.37-.77-1.65-3.08-4.27-.18-8.84,1.82-2.89,5.2-8,9.4-7.71,29.78,2.09,22.57-2,45.5,10.93,5.74,3.25,10.89,7.83,11.59,13.15.31,2.4-.12,12.67-1.69,14.36Z"/><path class="cls-18" d="M486.13,222.84c-1.62.68-8.92,1-10.13-.76-4.29-6.2-5.35-6.92-6.54-9C458,193.79,449.91,184,430.39,171.87c-1.68-1.05-2.17-4.14-2.24-7.19,0-2.33-1.35-6.62,4.12-10.27,3.46-2.3,9.74-6.3,14.3-3.64,32.33,18.93,26.29,10.17,45.63,37.8,4.85,6.93,8.37,15.05,6.56,21.54-.82,2.94.28,7.59-2.31,8.68Z"/><path class="cls-18" d="M374.48,251c3.68,4.16,6.95,6.78,12.4,2.18,1.29-1.09,2.19-3.15,3.36-5.73,11.72-25.94,6.25-44.08-.8-71.11-.7-2.69-1.69-1.86-3.25-2.43-6.69-2.47-2.15,1.3-13.14,11.23-10.15,9.18-9.94,30.39-9.89,32.38.56,20.13,0,3.07,3.27,23.22C366.74,242.74,371.34,247.46,374.48,251Z"/><path class="cls-18" d="M433.43,270.89c-1.54,0-10-7.57-10.53-9.92-1.83-8.38-2.5-9.6-2.92-12.25-4-25.29-8-39.11-20.88-60.47-1.11-1.85-.63-5.3.18-8.52.62-2.45.75-7.52,6.36-8.9,3.55-.87,14.87-.3,17.92,4.52,21.61,34.12,14.11,20.31,22.4,57.78,2.07,9.39,2.71,19.45-.66,25.43-1.52,2.71-9.4,12.35-11.87,12.33Z"/><path class="cls-18" d="M440.35,147.19c-1.15,14.74,1.36,28.29-12.09,32.35-10.11,3.05-17.39,15.47-39.29,32-9.51,7.19-22.72-4.88-18.73-8.63,7.24-6.83-9.4-4.49-12.66-6.82-20.12-14.4-25.59-18-25.38-60.7.22-44.38,36.23-53.63,71.34-52.82C452.23,83.72,442.41,120.62,440.35,147.19Z"/><path class="cls-18" d="M438.84,150.61c-1,13.51.45,23.32-11.66,27-9.12,2.75-30.25,26.71-39.81,31.21-9.72,4.58-15.6-.11-14.64-5,.74-3.73,3.58-5.86,0-6.31-28.79-3.6-41.46-21-39.29-60.92S357.18,84.75,405,83.74,440.55,127.74,438.84,150.61Z"/><path class="cls-18" d="M421.77,153.6l.88.56c2.25,1.36,9.89,6.54,7,12.23-3.43,6.63-14.86,12.57-15.09,13,0,0-1.6-1.6-9.15,12.34,0,0-10.74,25.84-30.63,18.52,0,0-6.8-5.51-.4-10.77,0,0-1.81,4.49.84,6.71a11.19,11.19,0,0,0,3.28,2.1c2.7,1.14,7.57,3.45,19.37-7.87,0,0,9.37-16.92,11.2-21.49,0,0,12.81-7.31,15.55-12.34,0,0,5.26-.92,0-8C420.47,153.08,421.24,153.26,421.77,153.6Z"/><path class="cls-18" d="M404.45,105.8s1.76-1,1.91,1.29c.46,7.3,3.45,11,8.06,12.34a2.46,2.46,0,0,1,1.51,1.28c1.6,3.29,5.53,13.93,3.95,13.93,0,0-1-2-2.78-5.67-.44-.9-.42-4.09-.8-4.58-1-1.23-2.09-4.2-5.68-5.56a7.47,7.47,0,0,1-1.58-1.17,14.14,14.14,0,0,1-4.59-10.48Z"/><path class="cls-18" d="M364.32,183.82s25.9-11.66,31.21-17.56c0,0,4.12,7.79-10.29,19.79C379.13,191.14,364.32,183.82,364.32,183.82Z"/><path class="cls-18" d="M421.43,116.6s-8.63-13.19,4.05-15.17c0,0,11.21-3.52,6.23,12.77,0,0,3.84,5.92,3.26,11.15,0,0-3.58,7-7.7-.86,0,0-.36-2,1.36-.29,0,0,5,6.18,4.8-.63a17.61,17.61,0,0,0-2.61-7.4,4.16,4.16,0,0,1-.25-3.17c.51-3,2.68-10-1.14-10.69-1.1-.19-6.25.83-7.15,1.49-1.79,1.32-3.09,5-.68,8.69C421.6,112.49,424.17,117.63,421.43,116.6Z"/><path class="cls-18" d="M373.69,147.29c-.37-.5,11-6.66,15.63-14.06.56-.91,6-6.36,7.53-6.36,0,0,11.58,16.89,4.66,22,0,0-7,7.62-15,6.53C386.54,155.38,380.28,156.08,373.69,147.29Z"/><path class="cls-18" d="M334.12,148.39c.18-1.2,13.44.14,18.49,2.73a8.33,8.33,0,0,0,3,.89,9.62,9.62,0,0,0,4.13-.24s-3.5,12.77-7,13.89c0,0-6.64,4.13-15.12-1.69C337.62,164,332.64,158.34,334.12,148.39Z"/><path class="cls-18" d="M375.3,147.19c-.34-.47,10-6.28,14.23-13.27.52-.86,5.49-6,6.86-6,0,0,10.55,16,4.25,20.75,0,0-6.4,7.2-13.64,6.17C387,154.84,381.3,155.5,375.3,147.19Z"/><path class="cls-18" d="M335,149.18c.16-1.06,11.78.06,16.76,2.29a12.46,12.46,0,0,0,5.31,1.1,4.63,4.63,0,0,0,1.77-.3s-3.26,11.66-6.52,12.69c0,0-6.17,3.77-14.06-1.55C338.26,163.41,333.63,158.27,335,149.18Z"/><g class="cls-15"><path class="cls-18" d="M277,74.49c19.74,6.72,27.34,11.6,40.45,22.79q3.86,0,7.71.07c4.81.12,9.61.4,14.39,1l4.91.59c1.8-.86,4.61-2.3,9.11-4.84,3.19-1.8,1.77-1.35-.82-3.61-32-27.9-44.82-39.47-79.91-40-2.84,0-4.84,2.81-5.06,3.46-1.81,5.56-2.44.75,1.4,15.05C269.8,71.16,275,73.8,277,74.49Z"/><path class="cls-18" d="M398.39,18.55c.91,1.64,4.57,8.23,3.76,10.56-5.93,17-10.83,26-9.12,43.65.14,1.52.11,7.45-1.59,9.14-1.3,1.29-3.86,2.82-8.34,1.71-2.83-.71-7.61-5.35-9.16-8.55-10.29-21.34-8-17-.83-42.91,2.28-8.27,14.06-14.86,19.29-16.6Z"/><path class="cls-18" d="M481.41,31.66c-.59,2.22-3,11.16-5.66,12.91C456.19,57.35,444.27,63,430.81,81.5c-1.16,1.6-4.16,2.5-7.08,3-2.23.41-6.45,2.2-9.41-1.89-1.88-2.58-5.11-7.3-2.13-11.6C433.32,40.54,425,50.79,453.18,30c9-6.64,19.5-7,25.53-5.25Z"/><path class="cls-18" d="M514.49,118.69c-.68,1.43-9.25,6.62-11,6.26-6.23-1.28-7.32-1.1-9.22-1.64-18.16-5.24-28.86-6.42-48.27-2.09-1.68.37-3.72-1.29-5.45-3.19-1.33-1.44-4.56-3.37-3-9.06,1-3.61,2.81-10,7.25-11.15,31.49-7.95,22.7-9.78,50.6-4.17,7,1.41,13.8,4.39,16.23,9.64,1.1,2.37,4,13.11,2.89,15.4Z"/><path class="cls-18" d="M529.48,174.55c-.21-7.32-6.48-14.5-13.73-20-28.92-22-19.84-15-59.4-23.52-4.44-1-8.64,2.81-11.6,6.18a89.22,89.22,0,0,1,11.15,9.43,114.49,114.49,0,0,1,11.81,15,49.87,49.87,0,0,1,3,5c10.19,4.93,18.65,11.4,29.42,21,1.89,1.68,3.21,2.08,9.66,7,1.8,1.38,9.26-1.4,10.72-2.65l9.37-7.69C532.21,182.3,529.58,177.86,529.48,174.55Z"/><path class="cls-18" d="M282.69,76.87c18,6.15,25.52,10.71,37.07,20.41,1.81,0,3.62,0,5.42.07,4.81.12,9.61.4,14.39,1,3.18.38,6.4.75,9.61,1.19,1.67-.84,3.92-2,7-3.77s1.7-1.29-.79-3.46c-30.79-26.8-43.05-37.91-76.72-38.51-2.72-.05-4.64,2.68-4.84,3.31-1.74,5.33-2.35.72,1.36,14.43C275.76,73.67,280.72,76.2,282.69,76.87Z"/><path class="cls-18" d="M398.65,22.58c.87,1.57,4.4,7.9,3.62,10.14C396.6,49,391.9,57.63,393.56,74.56c.15,1.46.12,7.14-1.51,8.76-1.24,1.24-3.7,2.7-8,1.63-2.72-.69-7.31-5.14-8.8-8.22-9.9-20.48-7.67-16.26-.85-41.14,2.18-7.93,13.47-14.23,18.49-15.89Z"/><path class="cls-18" d="M478.59,35.35c-.57,2.12-2.84,10.69-5.41,12.37C454.43,60,443,65.32,430.11,83.08c-1.12,1.53-4,2.39-6.79,2.9-2.14.4-6.19,2.1-9-1.81-1.81-2.48-4.92-7-2.06-11.13,20.23-29.23,12.22-19.41,39.27-39.34,8.63-6.36,18.7-6.72,24.5-5Z"/><path class="cls-18" d="M510.72,118.88c-.65,1.37-8.86,6.33-10.54,6-6-1.24-7-1.06-8.84-1.59-17.44-5-27.71-6.19-46.32-2.06-1.61.35-3.56-1.25-5.23-3.07-1.28-1.39-4.38-3.23-2.93-8.7.92-3.45,2.68-9.61,6.94-10.68,30.2-7.58,21.77-9.34,48.54-3.93,6.72,1.36,13.25,4.23,15.59,9.26,1.06,2.28,3.81,12.59,2.79,14.78Z"/><path class="cls-18" d="M526,171.9c-.22-7-6.24-13.92-13.2-19.2-27.77-21.09-19.06-14.38-57-22.63-4.56-1-8.85,3.21-11.71,6.59l.61.47a90.16,90.16,0,0,1,11.26,9.51,114.49,114.49,0,0,1,11.81,15c.56.81,1.08,1.64,1.59,2.48,9.9,4.75,18.07,11,28.52,20.3,1.81,1.62,3.08,2,9.27,6.74,1.73,1.33,8.88-1.33,10.28-2.53l9-7.36C528.59,179.33,526.05,175.08,526,171.9Z"/><path class="cls-18" d="M286.68,80.15c15.64,5.42,23.06,9.53,32.51,17.13q3,0,6,.07c4.81.12,9.61.4,14.39,1,5,.6,10,1.16,15,2,.87-.47,1.83-1,2.9-1.59,2.92-1.63,1.62-1.23-.79-3.33-29.77-25.91-41.64-36.65-74-37.44-2.61-.07-4.44,2.54-4.64,3.14-1.63,5.11-2.25.67,1.4,13.86C280,77,284.79,79.49,286.68,80.15Z"/><path class="cls-18" d="M397.38,28.35c.84,1.52,4.27,7.62,3.53,9.75-5.36,15.58-9.83,23.84-8.14,40.1.14,1.41.14,6.86-1.41,8.4-1.19,1.19-3.54,2.57-7.68,1.5-2.62-.67-7.06-5-8.5-7.94-9.64-19.74-7.46-15.67-1-39.5,2.05-7.6,12.88-13.57,17.69-15.12Z"/><path class="cls-18" d="M474.28,41.28c-.53,2-2.65,10.23-5.12,11.83-18,11.64-29,16.74-41.23,33.69-1.06,1.47-3.83,2.28-6.52,2.76-2.06.37-6,2-8.73-1.78-1.76-2.38-4.8-6.72-2.08-10.66,19.27-27.91,11.63-18.54,37.55-37.52,8.26-6.06,18-6.36,23.57-4.71Z"/><path class="cls-18" d="M506.11,121.51c-.61,1.31-8.48,6-10.09,5.68-5.76-1.22-6.76-1.06-8.52-1.58-16.79-4.94-26.68-6.12-44.55-2.27-1.55.33-3.44-1.22-5.06-3-1.23-1.35-4.23-3.14-2.87-8.37.87-3.31,2.52-9.21,6.61-10.21,29-7.09,20.88-8.83,46.66-3.47,6.47,1.35,12.77,4.15,15,9,1,2.2,3.75,12.11,2.77,14.2Z"/><path class="cls-18" d="M521.91,171.85c-.25-6.74-6.08-13.4-12.81-18.52-26.84-20.41-18.42-13.92-55-22.08-3.94-.88-7.64,2.25-10.32,5.22l.84.66a90.16,90.16,0,0,1,11.26,9.51,114.49,114.49,0,0,1,11.81,15c.82,1.2,1.59,2.45,2.3,3.72,8.41,4.44,15.76,10.18,24.92,18.33,1.76,1.57,3,1.94,9,6.53,1.68,1.28,8.54-1.22,9.87-2.36l8.6-7C524.49,179,522,174.9,521.91,171.85Z"/><path class="cls-18" d="M305.81,55c3.84-13.65,1.88-9.11,6.7-14.15.56-.59,4.11-3.08,6.94-2.81,34.92,3.4,41.51,15.23,58.67,43.85,1.38,2.32,3,2-1.12,3.43-26.28,8.94-7.05.15-26.69,12.11-3.11,1.89-3.47,1.06-4.42-.55-12.08-20.3-14.43-26-35.22-36.06C309,60,305.21,57.15,305.81,55Z"/><path class="cls-18" d="M292.59,97.66c10.53,0,21.07-.54,31.61-.33-17.36-4.57-24.63-6.56-41.58,1.46A32.61,32.61,0,0,1,292.59,97.66Z"/><path class="cls-18" d="M431.49,27c.67,2.07,3.37,10.39,1.89,12.37-10.81,14.38-18.58,21.21-20.71,39.77-.18,1.6-1.6,7.55-4,8.48-1.8.71-5.12,1.07-10-2.11-3.1-2-7.55-8.88-8.59-12.82-6.93-26.23-5.26-20.73,9-43.6,4.55-7.29,19.7-8.51,26.14-7.86Z"/><path class="cls-18" d="M499.53,73.87c-1.19,2.06-6,10.38-8.66,10.75-19.34,2.63-30.41,1.88-47,14.25-1.43,1.07-4,.33-6.47-.77-1.86-.83-5.71-1.32-6.64-7.44-.59-3.88-1.51-10.85,2.22-13.8,26.46-21,16.6-14.65,45.3-21,9.15-2,17.38,3.57,21.44,9Z"/><path class="cls-18" d="M509.85,141.67c-.72-5.74-6.29-10.66-12.53-14.13-24.86-13.85-17.05-9.43-49.46-11.45-4.57-.29-8.29,5.26-10.3,8.4-1.76,2.74-1.79,4.82-1.33,6.44,2.88,1.95,5.67,4,8.41,6.2,1,.74,2,1.48,3,2.24,16.15,2.12,25.52,6.62,39.64,16.09,1.65,1.1,2.74,1.25,8.28,4.37,1.55.87,11.3-1.45,12.37-2.61C509.62,155.37,510.17,144.26,509.85,141.67Z"/><path class="cls-18" d="M498.16,191.75c-15.87-22.64-15.88-22.57-30.47-30.18l0,0a50.29,50.29,0,0,1,4.15,7.37A132.57,132.57,0,0,1,479,186.79c2.52,8.58,3.25,17.64,4.19,26.5.51,4.81,1.18,9.6,1.56,14.42.05.58.09,1.15.12,1.73a19.8,19.8,0,0,0,6.42-.58l11.28-4.47c2.82-1.19,1.66-6.22,2.58-9.4C507.17,208,503.39,199.2,498.16,191.75Z"/><path class="cls-18" d="M315.08,63.52c19.94,9.71,22.2,15.15,33.8,34.65.42.71.72,1.26,1.21,1.47l.64.09a6,6,0,0,0,2.39-1c18.81-11.45.39-3,25.57-11.59,4-1.35,2.4-1.07,1.06-3.29C363.28,56.33,356.94,45,323.46,41.67c-2.7-.27-6.1,2.12-6.64,2.68-4.62,4.84-2.74.48-6.41,13.57C309.84,60,313.46,62.73,315.08,63.52Z"/><path class="cls-18" d="M292.59,97.66c10.75,0,21.5-.56,32.25-.31-12.92-3.39-19.95-4.68-32.26.31Z"/><path class="cls-18" d="M430.85,31.18c.64,2,3.24,10,1.82,11.86-10.33,13.79-17.77,20.34-19.79,38.15-.18,1.54-1.54,7.25-3.79,8.14-1.73.67-4.91,1-9.62-2-3-1.94-7.25-8.54-8.25-12.32-6.67-25.18-5.07-19.9,8.6-41.83,4.36-7,18.88-8.15,25.06-7.51Z"/><path class="cls-18" d="M496.13,76.24c-1.14,2-5.75,10-8.29,10.31-18.54,2.5-29.15,1.77-45,13.62-1.37,1-3.88.31-6.21-.74-1.78-.8-5.47-1.27-6.37-7.16-.56-3.72-1.46-10.4,2.12-13.24C457.71,59,448.27,65,475.77,58.91c8.77-1.95,16.66,3.44,20.57,8.62Z"/><path class="cls-18" d="M506.09,141.33c-.69-5.51-6-10.24-12-13.58-23.85-13.32-16.36-9.07-47.43-11-4.38-.28-7.94,5-9.87,8.06a7.49,7.49,0,0,0-1.4,5.6c3.19,2.11,6.25,4.41,9.26,6.77.9.68,1.81,1.36,2.7,2.05,14.92,2.09,23.83,6.44,37.11,15.35,1.57,1.06,2.62,1.21,7.94,4.21,1.48.84,10.82-1.38,11.85-2.49C505.89,154.48,506.41,143.82,506.09,141.33Z"/><path class="cls-18" d="M495.88,189.08c-15.23-21.72-15.26-21.68-29.21-29l1,1.51a50.29,50.29,0,0,1,4.15,7.37A132.57,132.57,0,0,1,479,186.79c2.52,8.58,3.25,17.64,4.19,26.5.42,4,.95,8,1.34,12a15.93,15.93,0,0,0,4.8-.58l10.81-4.27c2.7-1.14,1.59-6,2.46-9C504.53,204.64,500.89,196.24,495.88,189.08Z"/><path class="cls-18" d="M317.32,66.91c18.83,9.31,21.28,14.54,32,32.63,1.89.26,3.78.54,5.66.86,16.24-10-.19-2.47,23.4-10.39,3.81-1.28,2.29-1,1-3.17-15.94-26.59-22.07-37.57-54.16-40.95-2.6-.27-5.84,2-6.35,2.55-4.39,4.64-2.62.45-6.06,13C312.28,63.45,315.77,66.14,317.32,66.91Z"/><path class="cls-18" d="M319,97.28c-6.27-1.3-11.39-1.51-17.73.28C307.16,97.45,313.07,97.28,319,97.28Z"/><path class="cls-18" d="M428,36.4c.62,1.91,3.16,9.63,1.81,11.45C420,61.08,412.94,67.34,411.11,84.5c-.16,1.48-1.43,7-3.59,7.81-1.64.65-4.69,1-9.22-2-2.86-1.89-7-8.27-8-11.92-6.54-24.31-5-19.21,8-40.27,4.14-6.71,18-7.74,24-7.09Z"/><path class="cls-18" d="M490.83,80.21c-1.09,1.9-5.45,9.56-7.88,9.88C465.2,92.4,455,91.63,439.92,103c-1.31,1-3.71.28-5.95-.75-1.71-.78-5.25-1.26-6.14-6.93-.57-3.59-1.46-10,1.94-12.75,24.16-19.21,15.14-13.43,41.46-19.15,8.39-1.82,16,3.42,19.75,8.43Z"/><path class="cls-18" d="M500.75,143c-.7-5.32-5.85-9.9-11.59-13.15-22.93-13-15.72-8.84-45.5-10.93-4.2-.29-7.57,4.82-9.4,7.71a10,10,0,0,0-1.11,2.3,132.46,132.46,0,0,1,11.49,8.21c2,1.47,3.93,3,5.83,4.53,10.92,2.37,18.74,6.54,29.61,13.93,1.52,1,2.52,1.17,7.64,4.1,1.43.81,10.36-1.27,11.34-2.34C500.63,155.66,501.06,145.39,500.75,143Z"/><path class="cls-18" d="M492.2,188.57c-12.86-18.37-14.5-20.66-23.65-25.68a50.48,50.48,0,0,1,3.31,6.09A132.57,132.57,0,0,1,479,186.79c2.52,8.58,3.25,17.64,4.19,26.5.35,3.31.78,6.62,1.13,9.93a7.2,7.2,0,0,0,1.82-.38l10.32-4.05c2.59-1.09,1.49-5.74,2.31-8.68C500.57,203.62,497.05,195.5,492.2,188.57Z"/><path class="cls-18" d="M364.27,102.42c7.64,2.12,15.3,4.19,22.85,6.62a300,300,0,0,1,33.63,13.28c3.71,1.72,7.36,3.59,10.88,5.67a111.52,111.52,0,0,1,9.94,6.77c2.47-24.35,3.4-51.21-38-52.17-22-.51-44.31,2.93-58,16.46A131.22,131.22,0,0,1,364.27,102.42Z"/><path class="cls-18" d="M364.27,102.42c7.64,2.12,15.3,4.19,22.85,6.62a300,300,0,0,1,33.63,13.28c3.71,1.72,7.36,3.59,10.88,5.67a105.25,105.25,0,0,1,9,6.08C443.05,111,442.86,82.93,405,83.74c-27.27.58-46,4.71-57.47,15.56A122.65,122.65,0,0,1,364.27,102.42Z"/><path class="cls-18" d="M415.14,119.79a2.43,2.43,0,0,0-.72-.36l-.28-.08Z"/><path class="cls-18" d="M412.05,118.44c-3.25-1.84-5.32-5.39-5.69-11.35-.15-2.24-1.91-1.29-1.91-1.29v1.38a14.2,14.2,0,0,0,3.75,9.64C409.49,117.35,410.77,117.89,412.05,118.44Z"/><path class="cls-18" d="M421.6,112.49c-2.41-3.68-1.11-7.37.68-8.69.9-.66,6.05-1.68,7.15-1.49,3.82.66,1.65,7.69,1.14,10.69a4.16,4.16,0,0,0,.25,3.17,17.61,17.61,0,0,1,2.61,7.4c.17,6.81-4.8.63-4.8.63-1.72-1.71-1.36.29-1.36.29a12.57,12.57,0,0,0,.94,1.56c1.15.63,2.29,1.27,3.42,1.94l.29.18c1.83-.43,3.05-2.82,3.05-2.82.58-5.23-3.26-11.15-3.26-11.15,5-16.29-6.23-12.77-6.23-12.77-12.68,2-4.05,15.17-4.05,15.17C424.17,117.63,421.6,112.49,421.6,112.49Z"/></g><path class="cls-18" d="M385.12,150.46l0,0a.76.76,0,0,1-.55.35.27.27,0,0,0-.14.07l-.45.38c-.18.16-.54,0-.51-.19l.07-.53c0-.05-.12-.1-.29-.15-.43-.11-.66-.48-.49-.8l.06-.11a.2.2,0,0,0-.11-.26l-.57-.29a.18.18,0,0,1-.09-.13c-.1-.4.53-.62.88-.32h0c.19,0,.32-.15.26-.29l-.22-.51c-.09-.21.22-.38.45-.25l.51.55c.15.09.41-.18.48-.31l.09-.41c.1-.21.65-.25.72,0l0,.83h0a.5.5,0,0,0,.82.09l.27-.39a.3.3,0,0,1,.49,0,.15.15,0,0,1,0,.17l-.29.47c-.08.13.12.46.31.5l.56,0c.28.05.32.35.06.43l-.61.2a6,6,0,0,0-.63.17,1.28,1.28,0,0,1-.39.13.47.47,0,0,0-.26.07.57.57,0,0,1-.15.2A.75.75,0,0,0,385.12,150.46Z"/><path class="cls-18" d="M353.45,158.83l0,0a.76.76,0,0,1-.55.35.27.27,0,0,0-.14.07l-.44.38c-.19.16-.55,0-.52-.19l.07-.53s-.12-.1-.28-.15c-.43-.11-.66-.48-.49-.8l.05-.11a.19.19,0,0,0-.11-.26l-.57-.29a.18.18,0,0,1-.09-.13c-.09-.4.53-.62.88-.33h0c.19,0,.32-.15.26-.29l-.22-.51c-.09-.21.22-.39.45-.25l.51.55c.16.09.42-.18.49-.31l.08-.41c.1-.21.65-.25.72,0l0,.83h0a.49.49,0,0,0,.81.09l.27-.39a.32.32,0,0,1,.5,0,.18.18,0,0,1,0,.17l-.29.47c-.08.13.12.46.31.5l.56-.05c.28.06.32.36.06.44l-.61.2c-.12,0-.47.1-.62.17a1.44,1.44,0,0,1-.4.13.46.46,0,0,0-.25.07.72.72,0,0,1-.16.2A.75.75,0,0,0,353.45,158.83Z"/><path class="cls-18" d="M588.34,170.79c-8.12-8.69-13.09-16-1.49-20.09,23.53-8.32,44.29-13.59,63.33-31.38C678.34,93,763,35.89,853,54c12,2.41,11.09,10.23,8.52,14.39C843,98.52,786.64,162.73,732.32,187.8c-33.74,15.56-70,23-100.94,7.52a18,18,0,0,0-7.49-1.88l-23.22-1.55c-4.78-.16-8.82-11-12-14.42Z"/><path class="cls-18" d="M573.35,182.08c-7.27-7.75-4-20,6.41-23.64,21-7.37,51.93-20.08,68.92-35.89C673.8,99.17,749.39,48.44,829.91,64.72c10.71,2.17,9.93,9.14,7.65,12.84-16.52,26.8-66.8,83.88-115.31,106.11-30.13,13.8-62.54,20.39-90.22,6.52a16.3,16.3,0,0,0-6.7-1.68L584.47,187a16,16,0,0,1-11.12-4.95Z"/><path class="cls-20" d="M573.35,182.08c-7.27-7.75-4-20,6.41-23.64,21-7.37,51.93-20.08,68.92-35.89C673.8,99.17,749.39,48.44,829.91,64.72c10.71,2.17,9.93,9.14,7.65,12.84-16.52,26.8-66.8,83.88-115.31,106.11-30.13,13.8-62.54,20.39-90.22,6.52a16.3,16.3,0,0,0-6.7-1.68L584.47,187a16,16,0,0,1-11.12-4.95Z"/><path class="cls-18" d="M599.71,174.23c.52-1.6,51.61-26.39,102.86-50,47.59-21.93,91.66-35.47,99.2-35.88"/><path class="cls-19" d="M599.71,174.23c.52-1.6,51.61-26.39,102.86-50,47.59-21.93,91.66-35.47,99.2-35.88"/><path class="cls-18" d="M284.46,282.43c-6.71-13-13.31-22-24.46-11.69-22.63,20.85-40,40.29-72.17,51.6-47.6,16.74-163.15,78.11-187,183-3.17,14,7.11,17,13.66,16.32,47.43-4.58,157.24-32.27,216.81-77.47,37-28.08,65.14-62.92,61.67-103.64a18.2,18.2,0,0,1,1.52-8.92l10.07-25.49c2.27-5.17-9.32-14.94-11.92-20Z"/><path class="cls-18" d="M306.39,272.16c-6-11.64-23.07-14.28-33-5.08-20.13,18.66-52.09,45.17-80.73,55.3-42.36,15-145.17,69.89-166.38,163.77-2.82,12.49,6.33,15.17,12.16,14.6,42.2-4.1,139.9-28.88,192.91-69.32,32.93-25.13,58-56.31,54.87-92.74a16.39,16.39,0,0,1,1.35-8l19.29-44.23a16.58,16.58,0,0,0-.47-14.32Z"/><path class="cls-18" d="M282.89,296.26c-2.27-.25-59.84,41.64-116,84.31-52.16,39.61-92,79.7-96.39,87.52"/><path class="cls-19" d="M282.89,296.26c-2.27-.25-59.84,41.64-116,84.31-52.16,39.61-92,79.7-96.39,87.52"/></g></g></svg>