<svg xmlns="http://www.w3.org/2000/svg" width="1007.57" height="949.46" viewBox="0 0 1007.57 949.46"><defs><style>.cls-1{opacity:0.3;}.cls-2{opacity:0.62;}.cls-3{fill:#020202;}.cls-4{fill:#6cd362;}.cls-11,.cls-5{fill:#070707;}.cls-16,.cls-5,.cls-6{opacity:0.3;}.cls-7{fill:#ffd9f8;}.cls-8{fill:#7c2268;}.cls-9{fill:#d6c230;}.cls-10,.cls-15{fill:#0a0a0a;}.cls-12{fill:#f4f4f4;}.cls-13{opacity:0.2;}.cls-14{fill:#e5ac73;}.cls-15{opacity:0.18;}.cls-17{fill:#fff;}</style></defs><g id="Layer_3" data-name="Layer 3"><path class="cls-1" d="M805.78,633.93c-104.34-10.78-182.72,17.43-254.54,58-10.57,4.66-18.82,8.84-23.87,12.12-24,12.66-40.38,23.81-44.27,30.09q-15,9.9-30.14,19.94c.08-9.94-5.48-20.55-17.22-28.39-20.83-11.42-49.67-27.89-66.22-20.24,5.59,24.42,35.76,44.1,50.2,49.35,6.14,1,11.71,5.59,17.1,9.91-12.47,8.16-25.06,16.25-37.89,24.13a62.18,62.18,0,0,0-8.43-2.09,80.65,80.65,0,0,0-19.41-1.48,73.51,73.51,0,0,0-15.66,1l-3.17.1c4.72-1.08,9.29-2.16,13.61-3.27,8-1.24,15.61-2.89,21.35-6,6-2.31,11.38-6.06,10.3-12.33h0a18.21,18.21,0,0,0-.67-7.66,37.17,37.17,0,0,0-1.35-5.53,33,33,0,0,0-8.11-4.38c-9.4-4.37-24.37-4.44-41.05-1.68a205,205,0,0,0-21.45,4.68l1.78-.91c11.8-5,27-14.94,25.31-26.92h0a57.3,57.3,0,0,0-46.76-11.81,79.26,79.26,0,0,0-18.46,4.81,16,16,0,0,0,2.75-7.42,12.58,12.58,0,0,0-1-6.48c-10.62-7.36-23.16-8-35.54-4.64-8.52,1.62-16.31,4.76-20.41,9.13l-.37.23v0c1.45-5.81.49-10.31-2.12-13.63a28.84,28.84,0,0,0-3.31-4.12c-17.65-6.78-32.74-4.35-44.42,2.91-6.56,3.31-11.85,7.81-14.28,13.22-.27.35-.54.71-.8,1.07A33,33,0,0,0,156,690.29a29,29,0,0,0-6-3.94c-27.44-8.08-40,8.74-41.2,28.74l-1.28-.43a34.25,34.25,0,0,0-11.94-3.24c-.87,0-1.72,0-2.54.05-10.07-1-17.61,2-22,7.39-5.86,5.86-6.17,14.53-2.69,23.55a44.35,44.35,0,0,0,4.14,8.73l-.73-.41A35.88,35.88,0,0,0,65,747.44l-1.19-1.16c-3.51-1.58-8.45-2.07-13.59-1.78a46.09,46.09,0,0,0-7.25.21c-1,.43-1.85.86-2.72,1.3a37,37,0,0,0-9.47,3.62c-1.81,2.7-2.64,4.59-2.48,5.84-8.17,11.45.79,24.9,16.16,34.48a56.38,56.38,0,0,0-13.69-.87,49.76,49.76,0,0,0-8.45.08c-3.49-1.61-8.77,1.17-12.53,3-1,.41-2.07.86-3.12,1.36h0L5.56,795a8.55,8.55,0,0,0-4.06,5.25L0,802.16a31.24,31.24,0,0,0,1.88,5.46c.06.2.13.4.2.61.69,5.61,4.52,10.3,10.32,14a23.79,23.79,0,0,0,10.93,5.53l.09,0h0l4,1a95.28,95.28,0,0,0,9.45,2.25c2.77.63,5.25,1.16,7.46,1.59a81.14,81.14,0,0,0-7.74,4.17c-5.26,1.91-11.3,6.78-16.3,12.57C12.54,856.08,8.21,863,9.7,869.49a12.28,12.28,0,0,0,.23,1.92,9,9,0,0,0,.66,2.89c4.48,6.8,9.69,9.64,15.36,10,1.37.4,2.84.78,4.4,1.12a3.88,3.88,0,0,0,.92.23,4.93,4.93,0,0,0,.78.06,9,9,0,0,0,1.13-.08h.1l.63-.11A24,24,0,0,0,42,882c.79-.58,1.56-1.15,2.33-1.7a25.64,25.64,0,0,0,2.88-1.45c5.34-1,10.64-3.8,16-7.09,1.68-.79,3.11-1.51,4.33-2.17l-.66.75c-6.71,5-10.8,13.2-11.5,21.56-1.8,7.21-.53,13.89,4.79,19a23.92,23.92,0,0,0,12.4,7.72,38.1,38.1,0,0,0,12.13,1.63h.1c6.09-1.46,9.46-4.83,12-9.12L97,911a20.32,20.32,0,0,0,5.91-3.5,38.12,38.12,0,0,0,.74,17.55A41.21,41.21,0,0,0,107,935.44a23.37,23.37,0,0,0,4.16,3.82,28.82,28.82,0,0,0,11.52,7.12,45,45,0,0,0,6.07,2.13,48.79,48.79,0,0,0,8.68.87c3.54.28,6.55-.13,8.47-1.47a12.9,12.9,0,0,0,2.87-1.68l.05,0a12.17,12.17,0,0,0,1.47-1.39c1.91-2.12,3.15-4.78,3-6h0v0c-.1-.48-.19-1-.28-1.42a12.66,12.66,0,0,0,1.94-3.43c1.81-2,3-4.43,2.84-5.51h0v0c-.13-.65-.26-1.29-.37-1.91.62-5.31-.85-11.44,0-18a26,26,0,0,1,1-2.59c.77-1,1.46-1.93,2-2.76l.41-.5a14.08,14.08,0,0,0-.54,2.92c-.6,2.56.06,5.93,1.8,9.66,2,11.76,13,21.13,28.45,26.84a63.75,63.75,0,0,0,26.91,6.8,98.49,98.49,0,0,0,39.21-4c7.23-2.54,10.7-5,11.43-7.43,1.11-2,.52-4.21-2.54-6.45a2.85,2.85,0,0,0,.13-.48,1.55,1.55,0,0,0,.08-.23,95.23,95.23,0,0,0,19.05,1c9.59.94,18.15.77,24.43-1,11.46-1.64,21.23-5.52,27.75-12.43.2-.32.39-.63.56-.94,1.59-1.86,2.32-3.73,1.67-5.4a6.51,6.51,0,0,0-2.58-5.16c-.17-.18-.34-.36-.53-.54h-.18a14.45,14.45,0,0,0-2.09-1.2c7-2.66,12.94-6.54,17.3-11.9,3.64-6.56,1.66-10.09-2.27-12,10.38-1.83,19.66-4.75,26.79-8.72.56-.3,1.14-.64,1.73-1,6.84-1.12,15-11.71,4.4-16.54l-.19-.13a87.44,87.44,0,0,0,9.92-3.39l6.17-1.7c.8-.58,1.57-1.16,2.31-1.72a35,35,0,0,0,10.64-9.58h0c6.18-5.21,5.91-9.23,2.29-12.3l.08-.05c13.32-9.24,30.43-18.68,50.17-28,14.25,10.57,45,21.56,47.67,31.26,15.55,18,67.26,60.47,140.1,63.12,31-2.89-33.6-72.46-61.87-88.68-24-15.1-52.48-21.38-81.51-18a111.88,111.88,0,0,1-12.05-1.84c105.24-42.84,257-77.89,333.8-66.58C880.58,715.22,857,651.64,805.78,633.93Z"/><path class="cls-2" d="M862.12,360.53c2-1.3,3.94-2.86,5.94-4.24a30,30,0,0,1,3.44-2.09,51.68,51.68,0,0,1,5.47-2.34,9.6,9.6,0,0,1,1.65-.45,24,24,0,0,1,5.67-.64,27.59,27.59,0,0,1,4.79.65l.66.2a21,21,0,0,1,11.22,8.7q1.78-.52,3.54-1.14c1.61-.76,3.21-1.56,4.81-2.35-7.91-14.69-41.63-22.59-48.09-5.57-.36.94-1.8,5.53-3.87,11.83A42,42,0,0,0,862.12,360.53Z"/><path class="cls-3" d="M857.31,421.73a9.85,9.85,0,0,1,15.46-4.83c11,8.59,28.21,20.58,42.67,24.09,21.38,5.2,74.61,27.66,91.5,76.07,2.24,6.44-2,8.45-4.79,8.53-20.53.55-69.16-6.27-97.47-24.28-17.58-11.19-31.82-26.1-32.94-45.62a9.74,9.74,0,0,0-1.22-4.14l-12.41-22.2a9.71,9.71,0,0,1-.8-7.62Z"/><path d="M846.76,422.15c2.33-2.35,1.23-6.42-2.12-7.85-6.79-2.9-16.79-7.77-22.31-13.32-8.15-8.21-34.05-22.8-60-19.41-3.45.45-1.25,5.64-.51,6.9,5.39,9.11,18.31,23.48,34,31.87,9.75,5.21,23.11,6.92,32,3.06A4.89,4.89,0,0,1,830,423l13.17.49a4.71,4.71,0,0,0,3.57-1.35Z"/><path class="cls-4" d="M844.09,420.89c2.18-2.2,1.15-6-2-7.35-6.37-2.72-15.73-7.29-20.9-12.49-7.64-7.69-31.9-21.36-56.2-18.19-3.23.43-1.17,5.29-.47,6.47,5.05,8.54,17.15,22,31.86,29.86,9.13,4.88,21.65,6.48,30,2.87a4.72,4.72,0,0,1,2-.37l12.34.46a4.43,4.43,0,0,0,3.35-1.26Z"/><path class="cls-5" d="M839.44,413.37c-.91.37,6.33,2.56,5.34,2.44-.59,0-4.84-3.47-5.43-3.48-2.32-.05-9.16,1.17-11.45.79a65.35,65.35,0,0,1-8.65-2,52.41,52.41,0,0,1-6.64-2.58,64.62,64.62,0,0,1-7.75-4.24,46.44,46.44,0,0,1-5.58-4.29,52.62,52.62,0,0,1-6.14-6.26,49.6,49.6,0,0,1-4.84-7.35,31.44,31.44,0,0,1-1.62-3.49c-5-.64-19.17-.84-24.38-.16-3.23.42,2,6.26,2.73,7.41,12.8,19.7,22.51,24.27,37.21,32.13,9.13,4.88,16.56-2.41,30.34-.24.67.1,1.32-.4,2-.37C834.6,421.68,837.8,424,839.44,413.37Z"/><path class="cls-5" d="M844.09,420.89h0c2.18-2.2,1.15-6-2-7.35l-1.57-.69a7.62,7.62,0,0,1-3.66.64c-.46,0-2.13,0-2.62-.07a17.92,17.92,0,0,1-3.86.35h-1.76a47.37,47.37,0,0,1-6.94-.64,64.51,64.51,0,0,1-8.65-2,51,51,0,0,1-6.64-2.58,62.64,62.64,0,0,1-7.75-4.24,46.1,46.1,0,0,1-5.57-4.29,52.62,52.62,0,0,1-6.14-6.26,48.64,48.64,0,0,1-4.85-7.35,35.54,35.54,0,0,1-1.62-3.49,60.65,60.65,0,0,0-15.47-.06c-3.23.43-1.17,5.29-.47,6.47,5.05,8.54,17.15,22,31.86,29.86,9.13,4.88,21.65,6.48,30,2.87a4.72,4.72,0,0,1,2-.37l12.34.46A4.43,4.43,0,0,0,844.09,420.89Z"/><path d="M837.38,416c-.78-1.72-55-26.06-65.32-26.26"/><path class="cls-3" d="M893,375.67a87.8,87.8,0,0,1-8.65,21.15c-15.43,26.81-38.55,130.15-43,174.38-2.2,22,23.1,121.23,22.21,117.47,8.3,35.11-61,37.85-89,8.46-37-86.25-3.87-190,45.38-263.8,12.2-18.28,52.26-67.25,50.22-93.76-.57-7.37,32.2-5.89,26.58,20.49C896,363.85,897.37,359.38,893,375.67Z"/><path class="cls-4" d="M894.52,352.36c-1.5,38-27,65.08-31.59,88.44-9.31,47.29-24.3,101.39-27.47,145.67-2.15,19.81,24.9,110.67,23,104.59,9.31,29.34-55.06,27.75-78.94,2.67-31.59-73.6-13.23-168.38,28.79-231.33,10.42-15.59,15.8-28.26,31.13-53.63,8.34-13.79,37-50.28,38.09-53.28C884.89,336,895.25,333.74,894.52,352.36Z"/><path class="cls-6" d="M859.34,690.93c.34,4.4-3.43-15.86-9.84-27.22a90.79,90.79,0,0,1-10.23-13.88c-10.35-18.72-18.65-38.58-27-58.25-8.94-22.23-10-46.42-11.62-69.9l-.26-26.86s1.76-16.49,3.08-24.82c-38.54,62.8-54.28,153-23.94,223.73C803.37,718.81,868.65,720.27,859.34,690.93Z"/><path class="cls-6" d="M859.34,690.93c.34,4.4.25-17.45-6.16-28.82-3.85-4.24-1.83-9.9-4.8-14.81C838,628.58,833.64,611,825.25,591.37c-8.94-22.23-5.63-47.06-7.29-70.53l1.6-41.63s3.48-40.26,4.8-48.59c-38.53,62.8-84.84,151-50.82,259.11C783.94,722.76,868.65,720.27,859.34,690.93Z"/><path class="cls-4" d="M861.64,424a8.74,8.74,0,0,1,13.76-4.31c9.78,7.69,25.12,18.43,38,21.58,19,4.67,66.42,24.81,81.47,68.12,2,5.77-1.73,7.56-4.25,7.63-18.27.48-61.54-5.65-86.75-21.78-15.65-10-28.33-23.38-29.35-40.84a8.65,8.65,0,0,0-1.08-3.71l-11.06-19.87a8.74,8.74,0,0,1-.72-6.82Z"/><path d="M873.21,434.09c.95-.25,28.2,16.31,54.9,33.32,24.79,15.79,44.34,32.51,46.73,36"/><path d="M879.37,99.71c-12.06-11.34-7.37-8-15.18-10.07-.91-.25-5.92-.55-8.53,1.48-32.3,25.09-31.61,41.09-31.12,80.55,0,3.19-1.77,3.92,3.18,2.76,31.29-7.32,7-4.22,33.62-4.38,4.2,0,4-1.09,4-3.3-.44-27.93-1.57-35.09,12.77-58.16C879.29,106.73,881.26,101.49,879.37,99.71Z"/><path d="M925.41,126.25c-.45-2.25-.2-5.82-6.6-10.58-.74-.55-17.35-5.43-20.25-4.21C866.09,125.18,867,133,853.49,164.06c-1.1,2.52-3,2.36,1.92,3.44,31.18,6.79,25.4,6.09,26.51,6.57,3.84,1.67,5,1.32,5.76-.43,9.52-22.06,11.93-25.72,33.21-38C922.61,134.59,926,129.2,925.41,126.25Z"/><path d="M965.16,159.83c.36-2.27,1.85-5.53-2.47-12.18-.5-.77-14.37-11-17.52-10.85-35.29,1.81-37.13,9.42-60.79,34-1.92,2-3.66,1.19.6,3.88,26.85,17,21.68,14.38,22.55,15.2,3,2.87,4.24,2.94,5.56,1.56C929.78,174,933.33,171.36,957.63,167,959.59,166.69,964.68,162.8,965.16,159.83Z"/><path d="M917.4,207.55a8.27,8.27,0,0,0,6.09,5.21c20.45,4.28,27.28,12.49,43.28,28.88,1.38,1.41,7.16,6,9.94,4.74,2.12-1,5.32-3.65,7.22-11.31,1.21-4.85-.11-15.73-2.19-20.57-13.85-32.3-11.14-25.33-41.12-34.79-9.56-3-28.57,8.7-28.49,13.68Z"/><path d="M911.05,222.67c0,2.84,1.73,6.21,4.53,8.91,20.42,19.68,24.56,31.52,35.38,57,.93,2.21,5.37,10.38,8.87,11.63,2.67,1,7.19,1.43,12.28-3,3.22-2.8,6.1-12.29,5.76-17.71-2.21-36.14-2-28.56-30.7-59.88-9.14-10-34.33-16.11-36.21-12.18Z"/><path d="M902.94,245.76a10.64,10.64,0,0,0,3,8.18c16.2,18.05,18.44,28.91,25,52.33.57,2,3.58,9.52,6.63,10.66,2.34.88,6.44,1.31,11.71-2.76,3.33-2.57,7.24-11.29,7.65-16.27,2.75-33.18,1.92-26.22-20.34-54.95-7.1-9.16-29.48-14.75-31.74-11.15Z"/><path d="M781.29,110.69c-.82,2.45-4.17,12.34-2.46,14.61,12.46,16.52,21.49,24.27,23.64,46,.19,1.88,1.75,8.83,4.51,9.83,2.11.77,6,1.07,11.87-2.85,3.7-2.49,9.07-10.73,10.37-15.4,8.68-31.12,6.61-24.59-9.8-51-5.23-8.41-23.07-9.29-30.68-8.28Z"/><path d="M738.68,149.54c.6,2.49,3,12.54,5.65,13.61,19.36,7.76,31.15,9.82,44.52,27.18,1.15,1.5,6.16,6.6,9,6.07,2.2-.4,5.69-2.1,8.59-8.35,1.84-4,2-13.63.67-18.24-9.1-30.7-7.4-24.13-35.35-38.28-8.91-4.51-24.55,3.67-30.5,8.33Z"/><path d="M715.07,194.85c1.67,2.28,8.37,11.5,11.29,11.36,21.28-1,33-4.39,53.1,7.23,1.74,1,4.41-.49,6.83-2.38,1.84-1.44,5.89-2.89,5.77-10.66-.08-4.92-.36-13.72-4.92-16.55-32.29-20-20.52-14.42-52.56-16-10.21-.49-18,8.24-21.42,15.8Z"/><path d="M700.17,239c2.43,1.33,12.22,6.72,15.05,5.44,20.64-9.36,31.08-17,54.87-14.81,2.06.19,4.18-2.19,5.91-4.79,1.32-2,4.81-4.87,2-11.62-1.77-4.27-5.09-11.85-10.56-12.51-38.76-4.67-25.22-4.43-57.34,7C699.86,211.26,695.17,222,694.43,230Z"/><path d="M717.21,290.17c1.79,1.15,14.58,1.48,16.09,0,5.42-5.3,6.68-5.77,8.21-7.56,14.64-17.1,24.72-25.1,48-32.47,2-.64,2.82-3.74,3.15-6.91.25-2.42,2.09-6.55-3.85-11.85-3.75-3.35-10.58-9.25-16-7.7-38.45,11-30.83,3.46-55.18,27.06-6.1,5.91-10.8,13.44-9.27,20.72.69,3.29,6,16.87,8.86,18.71Z"/><path d="M742.54,328c1.76.49,12.76-3.22,13.76-5.06,3.56-6.58,4.54-7.41,5.49-9.54,9.07-20.34,16.08-30.86,34.48-45,1.59-1.22,1.66-4.33,1.3-7.35-.27-2.3.47-6.68-5.68-9.7-3.89-1.91-10.91-5.19-15.24-2.06C746,271.53,751,262.23,734.93,291.61c-4,7.36-6.53,15.77-3.75,22,1.26,2.81,8.54,13.65,11.36,14.44Z"/><path d="M776.17,364.75c2.23.15,14.23-6.61,14.9-8.93,2.41-8.27,3.34-9.44,3.88-12.07,5.13-25.12,10.53-38.66,28.44-58.9,1.55-1.75.77-5.28-.48-8.61-1-2.55-1.29-7.68-9.4-9.65-5.14-1.26-14.36-3.33-18.62,1.21C764.68,300,768,288.34,757.12,325.31c-2.74,9.27-3.39,19.36,1.62,25.75,2.26,2.89,13.88,13.45,17.43,13.69Z"/><path d="M828.18,383.06c2.19-.35,10.24-4.91,10.38-7.59.52-9.59,1.17-11.08,1.11-14.07-.54-28.59,1.72-44.61,14.66-70.81,1.11-2.27-.42-5.94-2.37-9.29-1.49-2.56-2.94-8.08-11.25-8.37-5.26-.18-14.67-.32-17.81,5.61-22.24,42.11-21.55,28.59-24,71.44-.62,10.75,1,21.9,7.24,27.73,2.84,2.63,4.75,8.41,8.25,7.85Z"/><path d="M931.74,339.3c-2.79,6.49-5.7,10.95-14.06,7.53-2-.81-3.87-2.95-6.28-5.61-24.26-26.78-24.79-50.89-26.9-86.39-.21-3.52,1.31-2.92,3-4.23,7.08-5.61,3.09.74,20.2,8.43,15.8,7.1,23.86,32.85,24.57,35.29,7.22,24.58,1.15,3.74,5.18,29.39C937.81,326.26,934.12,333.77,931.74,339.3Z"/><path d="M905.12,370.44c-4.16,4.94-8,8.15-15.32,3.71-1.74-1.06-3.1-3.21-4.85-5.9-17.57-27.11-12.71-47.51-6.84-77.81.58-3,1.92-2.21,3.82-3,8.12-3.4,2.84,1.2,17.72,10.88,13.75,8.95,15.83,32.15,16,34.34,1.53,22.05.28,3.36-1.53,25.72C913.92,360.59,908.67,366.23,905.12,370.44Z"/><path d="M871.08,386.56c1.88-.53,9.66-11.71,9.5-14.46-.59-9.85-.19-11.42-.56-14.48-3.57-29.21-3.33-45.77,5.14-73.6.73-2.41-1-6-3.07-9.31-1.58-2.5-3.44-8-10.73-7.67-4.61.23-18.21,4.67-20.31,11-14.87,44.83-10.36,27.11-7.88,71.14.62,11,3.22,22.33,9.32,27.79,2.76,2.46,15.59,10.44,18.59,9.59Z"/><path class="cls-7" d="M876.6,105.49c-11.55-10.89-7.06-7.68-14.54-9.68-.87-.23-5.66-.52-8.17,1.43-30.94,24.1-30.28,39.47-29.8,77.37,0,3.06-1.7,3.77,3,2.65,30-7,6.72-4,32.2-4.21,4,0,3.87-1,3.84-3.17-.42-26.83-1.49-33.7,12.23-55.86C876.52,112.23,878.41,107.2,876.6,105.49Z"/><path class="cls-7" d="M920.7,131c-.43-2.17-.19-5.6-6.32-10.17-.71-.53-16.62-5.22-19.4-4-31.1,13.17-30.19,20.64-43.17,50.52-1,2.42-2.88,2.27,1.85,3.3,29.86,6.53,24.33,5.85,25.39,6.32,3.68,1.6,4.8,1.26,5.52-.42,9.11-21.18,11.42-24.7,31.8-36.55C918,139,921.27,133.82,920.7,131Z"/><path class="cls-7" d="M958.77,163.23c.35-2.18,1.78-5.31-2.36-11.69-.48-.74-13.76-10.58-16.78-10.42-33.8,1.73-35.56,9-58.23,32.64-1.83,1.91-3.5,1.15.57,3.73,25.73,16.32,20.77,13.81,21.61,14.6,2.89,2.76,4,2.83,5.32,1.5,16-16.76,19.39-19.28,42.66-23.43C953.44,169.83,958.31,166.08,958.77,163.23Z"/><path class="cls-7" d="M913,209.07a8,8,0,0,0,5.83,5c19.59,4.11,26.13,12,41.46,27.73,1.32,1.36,6.86,5.75,9.52,4.55,2-.92,5.09-3.5,6.92-10.86,1.15-4.66-.11-15.1-2.1-19.76-13.27-31-10.67-24.33-39.39-33.41-9.15-2.9-27.36,8.36-27.29,13.14Z"/><path class="cls-7" d="M907,223.59c0,2.73,1.65,6,4.33,8.56,19.56,18.9,23.53,30.27,33.89,54.77.9,2.12,5.15,10,8.5,11.17,2.56.92,6.89,1.37,11.76-2.88,3.08-2.68,5.84-11.8,5.52-17-2.12-34.71-1.94-27.43-29.4-57.51-8.76-9.59-32.88-15.47-34.69-11.7Z"/><path class="cls-7" d="M899.18,245.77a10.26,10.26,0,0,0,2.86,7.86c15.52,17.33,17.67,27.77,24,50.25.55,1.95,3.43,9.15,6.35,10.25,2.24.84,6.17,1.25,11.21-2.65,3.2-2.47,6.94-10.85,7.34-15.63,2.63-31.87,1.83-25.19-19.49-52.78-6.8-8.8-28.24-14.17-30.4-10.71Z"/><path class="cls-7" d="M782.66,116c-.79,2.36-4,11.86-2.35,14,11.93,15.87,20.58,23.31,22.64,44.21.18,1.81,1.68,8.48,4.32,9.44,2,.74,5.76,1,11.36-2.74,3.55-2.38,8.7-10.31,9.94-14.79,8.31-29.89,6.33-23.62-9.39-48.95-5-8.08-22.09-8.92-29.38-7.95Z"/><path class="cls-7" d="M741.85,153.35c.57,2.39,2.87,12.05,5.41,13.07,18.54,7.46,29.84,9.43,42.64,26.11,1.1,1.44,5.9,6.34,8.66,5.83,2.11-.39,5.45-2,8.23-8,1.76-3.8,2-13.09.64-17.51-8.72-29.49-7.09-23.19-33.86-36.77-8.53-4.33-23.52,3.52-29.21,8Z"/><path class="cls-7" d="M719.24,196.87c1.59,2.19,8,11,10.81,10.91,20.38-1,31.65-4.22,50.86,6.95,1.66,1,4.23-.48,6.54-2.28,1.76-1.39,5.64-2.78,5.53-10.25-.08-4.72-.35-13.18-4.71-15.89-30.93-19.25-19.66-13.85-50.35-15.33-9.78-.47-17.27,7.92-20.51,15.17Z"/><path class="cls-7" d="M705,239.24c2.33,1.27,11.71,6.45,14.42,5.22,19.76-9,29.76-16.32,52.55-14.22,2,.18,4-2.1,5.66-4.6,1.27-1.92,4.61-4.68,1.92-11.16-1.7-4.1-4.88-11.38-10.11-12-37.13-4.48-24.16-4.26-54.93,6.69-9.81,3.49-14.3,13.81-15,21.44Z"/><path class="cls-7" d="M721.29,288.42c1.71,1.11,14,1.43,15.41,0,5.19-5.09,6.39-5.54,7.86-7.26,14-16.42,23.68-24.1,46-31.19,1.93-.61,2.7-3.59,3-6.63.24-2.32,2-6.29-3.68-11.38-3.6-3.22-10.14-8.88-15.33-7.4-36.83,10.52-29.53,3.32-52.85,26-5.85,5.68-10.35,12.91-8.88,19.9.66,3.17,5.75,16.21,8.49,18Z"/><path class="cls-7" d="M745.55,324.8c1.68.47,12.22-3.09,13.17-4.86,3.42-6.32,4.36-7.12,5.27-9.16,8.68-19.54,15.39-29.65,33-43.19,1.52-1.17,1.59-4.16,1.25-7.06-.26-2.21.45-6.42-5.44-9.31-3.73-1.84-10.46-5-14.6-2-29.38,21.29-24.58,12.36-40,40.57-3.85,7.08-6.25,15.15-3.58,21.13,1.2,2.7,8.18,13.1,10.88,13.87Z"/><path class="cls-7" d="M777.76,360.05c2.13.15,13.63-6.34,14.27-8.57,2.31-8,3.2-9.07,3.72-11.59,4.91-24.13,10.08-37.14,27.23-56.58,1.49-1.68.74-5.07-.46-8.27-.92-2.44-1.23-7.37-9-9.27-4.92-1.2-13.76-3.19-17.84,1.17-28.93,30.95-25.71,19.73-36.17,55.24-2.63,8.9-3.24,18.59,1.55,24.73,2.17,2.77,13.29,12.91,16.7,13.14Z"/><path class="cls-7" d="M827.57,377.64c2.1-.33,9.81-4.72,9.95-7.29.49-9.21,1.11-10.64,1.06-13.51-.52-27.47,1.64-42.85,14-68,1.07-2.18-.4-5.71-2.27-8.92-1.43-2.46-2.81-7.76-10.77-8-5-.18-14.06-.32-17.06,5.39-21.31,40.44-20.64,27.45-23,68.61-.59,10.32.93,21,6.94,26.63,2.71,2.53,4.54,8.08,7.9,7.55Z"/><path class="cls-7" d="M926.77,335.62c-2.68,6.23-5.47,10.51-13.47,7.22-1.9-.77-3.71-2.83-6-5.38-23.24-25.73-23.74-48.88-25.76-83-.2-3.38,1.25-2.8,2.83-4.06,6.78-5.39,3,.7,19.35,8.09,15.13,6.83,22.85,31.56,23.54,33.9,6.91,23.6,1.09,3.59,5,28.23C932.58,323.09,929.05,330.31,926.77,335.62Z"/><path class="cls-7" d="M901.27,365.53c-4,4.74-7.64,7.82-14.68,3.55-1.66-1-3-3.08-4.64-5.66-16.83-26-12.18-45.63-6.55-74.73.55-2.89,1.84-2.13,3.65-2.89,7.78-3.27,2.72,1.15,17,10.45,13.17,8.59,15.16,30.87,15.31,33,1.46,21.17.26,3.22-1.47,24.7C909.7,356.06,904.67,361.48,901.27,365.53Z"/><path class="cls-7" d="M868.66,381c1.8-.51,9.26-11.24,9.1-13.89-.56-9.45-.17-11-.53-13.9-3.42-28-3.19-44,4.92-70.69.7-2.31-1-5.81-2.94-8.94-1.52-2.4-3.3-7.72-10.28-7.37-4.42.22-17.44,4.49-19.45,10.56-14.24,43.06-9.93,26-7.55,68.33.59,10.61,3.08,21.45,8.93,26.69,2.64,2.37,14.93,10,17.8,9.21Z"/><path class="cls-8" d="M876.4,110.57c-11-10.54-6.74-7.42-13.88-9.36-.83-.22-5.41-.51-7.8,1.38-29.53,23.31-28.9,38.18-28.44,74.83,0,3-1.63,3.65,2.91,2.57,28.59-6.81,6.42-3.92,30.73-4.07,3.84,0,3.7-1,3.67-3.07-.4-25.95-1.43-32.59,11.67-54C876.32,117.09,878.12,112.22,876.4,110.57Z"/><path class="cls-8" d="M918.48,135.23c-.41-2.09-.18-5.41-6-9.83-.68-.52-15.86-5.05-18.51-3.91-29.69,12.74-28.82,20-41.21,48.86-1,2.34-2.75,2.2,1.77,3.2,28.49,6.31,23.22,5.66,24.23,6.1,3.51,1.55,4.58,1.23,5.27-.4,8.69-20.49,10.9-23.89,30.35-35.35C915.92,143,919,138,918.48,135.23Z"/><path class="cls-8" d="M954.82,166.42c.33-2.11,1.69-5.14-2.26-11.31-.46-.72-13.13-10.23-16-10.08-32.25,1.68-33.94,8.75-55.57,31.58-1.75,1.84-3.34,1.1.55,3.6,24.55,15.79,19.82,13.35,20.62,14.12,2.76,2.67,3.87,2.74,5.08,1.45,15.25-16.21,18.5-18.64,40.71-22.66C949.73,172.8,954.38,169.18,954.82,166.42Z"/><path class="cls-8" d="M911.16,210.76a7.63,7.63,0,0,0,5.56,4.84c18.7,4,24.94,11.6,39.57,26.82,1.26,1.32,6.54,5.57,9.08,4.4,2-.88,4.87-3.38,6.61-10.5,1.1-4.5-.1-14.61-2-19.11-12.67-30-10.19-23.53-37.59-32.32-8.74-2.8-26.12,8.08-26,12.71Z"/><path class="cls-8" d="M905.36,224.8c0,2.64,1.57,5.78,4.13,8.28,18.67,18.28,22.45,29.28,32.34,53,.86,2.05,4.92,9.64,8.12,10.8,2.44.89,6.57,1.32,11.22-2.78,2.94-2.6,5.57-11.42,5.27-16.46-2-33.57-1.85-26.53-28.07-55.63-8.35-9.27-31.38-15-33.1-11.31Z"/><path class="cls-8" d="M898,246.26a10,10,0,0,0,2.72,7.6c14.81,16.76,16.86,26.85,22.89,48.6.52,1.89,3.27,8.85,6.06,9.91,2.13.82,5.88,1.21,10.7-2.56,3-2.39,6.62-10.49,7-15.12,2.51-30.82,1.75-24.36-18.6-51.05-6.49-8.51-27-13.7-29-10.35Z"/><path class="cls-8" d="M786.74,120.77c-.75,2.28-3.81,11.47-2.25,13.58,11.39,15.34,19.64,22.54,21.61,42.76.18,1.75,1.6,8.2,4.12,9.13,1.93.71,5.5,1,10.85-2.65,3.39-2.31,8.3-10,9.49-14.31,7.93-28.91,6-22.84-9-47.35-4.79-7.81-21.09-8.62-28.05-7.69Z"/><path class="cls-8" d="M747.79,156.86c.55,2.31,2.74,11.66,5.16,12.65,17.7,7.21,28.48,9.12,40.7,25.24,1.05,1.4,5.63,6.14,8.27,5.65,2-.38,5.19-2,7.85-7.76,1.67-3.67,1.86-12.66.61-16.94-8.32-28.52-6.77-22.42-32.31-35.56-8.15-4.19-22.45,3.4-27.88,7.73Z"/><path class="cls-8" d="M726.21,199c1.52,2.12,7.65,10.68,10.32,10.55,19.45-.95,30.21-4.08,48.54,6.72,1.59.93,4-.46,6.24-2.21,1.68-1.34,5.39-2.68,5.27-9.91-.07-4.57-.33-12.75-4.49-15.37-29.52-18.61-18.76-13.39-48.05-14.83-9.33-.45-16.48,7.66-19.58,14.68Z"/><path class="cls-8" d="M712.59,239.93c2.22,1.24,11.17,6.25,13.76,5.06,18.86-8.7,28.4-15.79,50.15-13.76,1.88.18,3.82-2,5.4-4.45,1.21-1.85,4.4-4.53,1.84-10.79-1.63-4-4.66-11-9.66-11.62-35.43-4.34-23.05-4.13-52.42,6.46-9.36,3.38-13.65,13.36-14.32,20.74Z"/><path class="cls-8" d="M728.17,287.51c1.63,1.07,13.32,1.38,14.71,0,5-4.92,6.1-5.36,7.5-7,13.38-15.88,22.6-23.31,43.86-30.16,1.84-.59,2.58-3.47,2.88-6.41.23-2.25,1.92-6.09-3.51-11-3.44-3.12-9.68-8.6-14.63-7.16-35.15,10.18-28.18,3.21-50.44,25.14-5.58,5.49-9.88,12.48-8.48,19.25.64,3.06,5.49,15.67,8.11,17.38Z"/><path class="cls-8" d="M751.32,322.69c1.61.46,11.66-3,12.58-4.69,3.25-6.12,4.15-6.89,5-8.87,8.29-18.9,14.69-28.67,31.51-41.77,1.46-1.13,1.52-4,1.19-6.83-.25-2.14.43-6.21-5.19-9-3.55-1.77-10-4.82-13.93-1.92-28,20.59-23.46,12-38.14,39.25-3.68,6.84-6,14.65-3.42,20.43,1.14,2.61,7.8,12.67,10.38,13.41Z"/><path class="cls-8" d="M782.06,356.79c2,.14,13-6.14,13.62-8.29,2.2-7.69,3.06-8.77,3.55-11.21,4.69-23.34,9.62-35.92,26-54.72,1.42-1.63.71-4.91-.44-8-.88-2.37-1.18-7.13-8.59-9-4.69-1.16-13.13-3.09-17,1.13-27.62,29.93-24.54,19.08-34.53,53.43-2.5,8.61-3.09,18,1.49,23.92,2.07,2.68,12.68,12.49,15.93,12.71Z"/><path class="cls-8" d="M829.6,373.8c2-.32,9.36-4.56,9.5-7.05.47-8.9,1.06-10.29,1-13.07-.5-26.56,1.57-41.44,13.39-65.78,1-2.11-.38-5.52-2.16-8.63-1.36-2.38-2.68-7.5-10.28-7.77-4.81-.18-13.42-.31-16.28,5.21-20.34,39.12-19.7,26.55-22,66.37-.57,10,.89,20.34,6.62,25.75,2.59,2.45,4.34,7.82,7.54,7.3Z"/><path class="cls-8" d="M924.27,333.16c-2.55,6-5.21,10.16-12.85,7-1.81-.76-3.55-2.74-5.75-5.21-22.17-24.89-22.66-47.28-24.59-80.26-.19-3.27,1.2-2.71,2.71-3.93,6.47-5.21,2.83.68,18.47,7.83,14.44,6.6,21.81,30.52,22.46,32.79,6.6,22.83,1,3.47,4.73,27.3C929.82,321,926.45,328,924.27,333.16Z"/><path class="cls-8" d="M899.94,362.08c-3.8,4.59-7.29,7.58-14,3.45-1.59-1-2.84-3-4.43-5.48-16.07-25.19-11.62-44.14-6.26-72.29.54-2.79,1.76-2.05,3.49-2.79,7.43-3.16,2.6,1.11,16.21,10.11,12.56,8.3,14.47,29.86,14.6,31.89,1.4,20.49.25,3.12-1.4,23.9C908,352.93,903.18,358.17,899.94,362.08Z"/><path class="cls-8" d="M868.82,377.06c1.71-.5,8.83-10.88,8.68-13.44-.54-9.14-.17-10.61-.51-13.45-3.26-27.13-3-42.52,4.7-68.37.66-2.24-.92-5.62-2.81-8.65-1.44-2.32-3.14-7.46-9.81-7.13-4.21.22-16.64,4.34-18.56,10.22-13.59,41.65-9.47,25.18-7.21,66.09.57,10.26,3,20.74,8.52,25.81,2.53,2.3,14.26,9.7,17,8.92Z"/><path d="M916.65,229.94c0,37.9-28.4,75.72-71.17,75.72-7.57,0-43.51-6.57-61.94-24C767.39,266.38,768,240.2,768,237c0-37.89,41.54-72.26,87.07-72.48C897.88,164.34,916.65,192,916.65,229.94Z"/><path class="cls-9" d="M913.94,229.73c0,35.85-26.92,71.63-67.47,71.63-7.17,0-41.24-6.21-58.72-22.7-15.31-14.46-14.69-39.22-14.69-42.21,0-35.84,39.38-68.35,82.54-68.57C896.15,167.68,913.94,193.89,913.94,229.73Z"/><path class="cls-10" d="M801.94,284.15c14.25,5.55,21.23-8.64,27.6-2.31a1.21,1.21,0,0,0,2.06-.23h0c.43-.66,1-1.09-.13-2.14-8.82-7.9-14.59,7.3-28.19,2.09-1.8-.69-1.77,0-2.1.73h0C800.84,283,800.05,283.41,801.94,284.15Z"/><path class="cls-10" d="M829.06,222c7.82-3.42,22.07,4.75,23.28,13.25.16,1.13.65,1.57,1.67,1.43,0,.15,0,.13,0,0,1-.14,1.64-.31,1.46-1.57-1.39-9.53-18.69-20.43-27.58-15.92-1.18.6-1.12,1-.78,1.94-.14.09-.1.09,0,0C827.46,222,828,222.43,829.06,222Z"/><path class="cls-10" d="M797,223.17c-6.55-4.86-11.23,4.37-15.63,8.32-.58.52-1,.77-1.63.24-.08.07-.08.06,0,0-.62-.53-.95-1.1-.36-1.73,4.47-4.69,12.05-14.5,19-8.85.93.76.7,1,.27,1.71h0C798.27,223.56,797.9,223.82,797,223.17Z"/><path class="cls-11" d="M848.78,233.9c5.92,9.53,5.92,16-3.89,25.11-1.25,1.17-10.14,6.46-11.78,6-8.43-2.35-33.49-11.8-11.61-33.71C835.16,217.62,842.81,224.29,848.78,233.9Z"/><path class="cls-11" d="M798.76,230.38c4,9.41,4.54,24.31-9.06,28.11,0,0-23-3.38-1.34-32.78C791.06,222.05,797,226.19,798.76,230.38Z"/><path class="cls-12" d="M847,235.09c6.08,7.17,8.09,17.17-11.5,27a6,6,0,0,1-4.33.42c-7.42-2.07-26.18-7.24-9.4-28.74C832.42,220.11,840.55,227.49,847,235.09Z"/><path class="cls-12" d="M796.81,228.66c3.51,8.29,5.8,25.73-7.13,28.31,0,0-20.88-3.44-1.8-29.34A5.17,5.17,0,0,1,796.81,228.66Z"/><g class="cls-13"><path class="cls-14" d="M827.11,134.34c3.77,1.38,7.47,3,11.11,4.69,4.47,2.1,8.81,4.49,13.3,6.53,4.48,1.75,9.11,3.18,13.62,4.89.07-15.72,1.92-24,13-41.86,1.16-1.86,3.13-7.1,1.24-8.88-12.06-11.34-7.37-8-15.18-10.07-.91-.25-5.92-.55-8.53,1.48-19.55,15.19-27,27.05-29.75,42.79Z"/><path class="cls-14" d="M875.09,155.11a45.29,45.29,0,0,1,10.8,9.15c1.32,1.53,2.57,3.12,3.84,4.7,7.94-18,11.48-22,31.16-33.37,1.72-1,5.11-6.39,4.52-9.34-.45-2.25-.2-5.82-6.6-10.58-.74-.55-17.35-5.43-20.25-4.21-26.28,11.1-30.67,18.31-38.57,37.14A80.12,80.12,0,0,1,875.09,155.11Z"/><path class="cls-14" d="M892.36,172.11c5,5.69,10.94,10.44,16.39,15.68,1.35,1.31,2.66,2.65,3.91,4a4,4,0,0,0,.43-.4C929.78,174,933.33,171.36,957.63,167c2-.35,7-4.24,7.53-7.21.36-2.27,1.85-5.53-2.47-12.18-.5-.77-14.37-11-17.52-10.85-33.36,1.71-36.83,8.61-57.09,30.11C889.49,168.66,890.87,170.43,892.36,172.11Z"/><path class="cls-14" d="M981.74,214.5c-13.85-32.3-11.14-25.33-41.12-34.79-8.63-2.73-25,6.57-28,12.06a71.6,71.6,0,0,1,5.44,6.77,55.59,55.59,0,0,1,5.74,11.62c.39,1,.75,1.94,1.1,2.91,19.36,4.36,26.24,12.57,41.87,28.57,1.38,1.41,7.16,6,9.94,4.74,2.12-1,5.32-3.65,7.22-11.31C985.14,230.22,983.82,219.34,981.74,214.5Z"/><path class="cls-14" d="M977.87,279.53c-2.21-36.14-2-28.56-30.7-59.88-5.32-5.81-16.07-10.31-24.5-12.29.39.93.76,1.87,1.13,2.8,2.33,5.81,3.83,11.9,6.1,17.74,2.85,6.35,6.23,12.44,9.27,18.7a325.16,325.16,0,0,1,17.05,42q1.85,5.73,3.48,11.53l.13.05c2.67,1,7.19,1.43,12.28-3C975.33,294.44,978.21,285,977.87,279.53Z"/><path class="cls-14" d="M939.17,246.6a325.16,325.16,0,0,1,17.05,42c.4,1.25.79,2.5,1.18,3.75,2.05-26.06.28-22.7-18.72-46.8C938.85,245.93,939,246.27,939.17,246.6Z"/><path class="cls-14" d="M784.61,123.4c11.65,1.86,23,5,34.35,8.39,2.73.81,5.48,1.57,8.15,2.55,2.34.85,4.65,1.8,6.94,2.8-1-6.24-5.7-10.84-14.63-25.2-5.23-8.41-23.07-9.29-30.68-8.28l-7.45,7c-.62,1.85-2.68,8-2.92,11.8C780.46,122.76,782.53,123.07,784.61,123.4Z"/><path class="cls-14" d="M827.11,134.34c3.77,1.38,7.47,3,11.11,4.69,4.47,2.1,8.81,4.49,13.3,6.53,3.8,1.48,7.7,2.73,11.54,4.12.45-12.33,2.87-20.35,12.35-35.66,1.11-1.79,3-6.82,1.19-8.53-11.55-10.89-7.06-7.68-14.54-9.68-.87-.23-5.66-.52-8.17,1.43C837,110.42,829.51,121,826.29,134.05Z"/><path class="cls-14" d="M875.09,155.11a45.29,45.29,0,0,1,10.8,9.15c.91,1.06,1.79,2.15,2.67,3.24C894.9,154,899.28,149.88,916.37,140c1.65-1,4.9-6.13,4.33-9-.43-2.17-.19-5.6-6.32-10.17-.71-.53-16.62-5.22-19.4-4-23.25,9.85-28.61,16.51-35.26,31.72A82,82,0,0,1,875.09,155.11Z"/><path class="cls-14" d="M892.36,172.11c5,5.69,10.94,10.44,16.39,15.68,1,1,2,1.94,2.89,2.94,13.72-14.21,18-16.67,39.92-20.57,1.88-.33,6.75-4.08,7.21-6.93.35-2.18,1.78-5.31-2.36-11.69-.48-.74-13.76-10.58-16.78-10.42-30.21,1.55-34.83,7.55-51.65,25.66C889.42,168.57,890.84,170.39,892.36,172.11Z"/><path class="cls-14" d="M974.66,215.74c-13.27-31-10.67-24.33-39.39-33.41-6.65-2.11-18.09,3.27-23.82,8.19a71,71,0,0,1,6.61,8,55.59,55.59,0,0,1,5.74,11.62c.76,1.88,1.42,3.79,2.06,5.71,14.43,4.49,21.11,12.24,34.46,25.94,1.32,1.36,6.86,5.75,9.52,4.55,2-.92,5.09-3.5,6.92-10.86C977.91,230.84,976.65,220.4,974.66,215.74Z"/><path class="cls-14" d="M929.9,227.9c2.85,6.35,6.23,12.44,9.27,18.7a325.16,325.16,0,0,1,17.05,42c1,3.26,2,6.55,3,9.84a13.54,13.54,0,0,0,6.21-3.28c3.08-2.68,5.84-11.8,5.52-17-2.12-34.71-1.94-27.43-29.4-57.51-3.92-4.29-10.89-7.83-17.58-10.1C926.21,216.27,927.69,222.21,929.9,227.9Z"/><path class="cls-14" d="M951.93,276.34c-.28-6.5-2-10-6.23-15.52Q949,268.5,951.93,276.34Z"/><path class="cls-14" d="M784.61,123.4c11.65,1.86,23,5,34.35,8.39,2.73.81,5.48,1.57,8.15,2.55,1.38.5,2.76,1,4.12,1.61-2.21-4.18-6.17-9.24-12.05-18.71-5-8.08-22.09-8.92-29.38-7.95L782.66,116c-.38,1.14-1.32,3.94-2,6.77Q782.63,123.09,784.61,123.4Z"/><path class="cls-14" d="M838.22,139c4.47,2.1,8.81,4.49,13.3,6.53,4,1.56,8.1,2.86,12.14,4.34.76-10.11,3.44-17.73,11.6-31.07,1.06-1.74,2.86-6.61,1.14-8.26-11-10.54-6.74-7.42-13.88-9.36-.83-.22-5.41-.51-7.8,1.38-14.82,11.7-22,21.28-25.5,32.55C832.26,136.33,835.26,137.65,838.22,139Z"/><path class="cls-14" d="M875.09,155.11a45.29,45.29,0,0,1,10.8,9.15c1.06,1.24,2.08,2.51,3.11,3.79,5.47-11.15,10.13-15.18,25.35-24.15,1.57-.92,4.68-5.93,4.13-8.67-.41-2.09-.18-5.41-6-9.83-.68-.52-15.86-5.05-18.51-3.91-20.62,8.85-26.5,15-32.32,27.68A73.54,73.54,0,0,1,875.09,155.11Z"/><path class="cls-14" d="M892.36,172.11c5,5.69,10.94,10.44,16.39,15.68q1.59,1.54,3.09,3.14c11.57-11.91,16.31-14.23,36.09-17.81,1.8-.32,6.45-3.94,6.89-6.7.33-2.11,1.69-5.14-2.26-11.31-.46-.72-13.13-10.23-16-10.08-27.78,1.44-32.88,6.89-47.59,23C890.07,169.39,891.18,170.78,892.36,172.11Z"/><path class="cls-14" d="M970,217.21c-12.67-30-10.19-23.53-37.59-32.32-5.56-1.78-14.62,2-20.46,6.14a70.65,70.65,0,0,1,6.13,7.51,55.59,55.59,0,0,1,5.74,11.62c1.1,2.73,2,5.53,2.91,8.33,11.57,4.48,17.91,11.79,29.58,23.93,1.26,1.32,6.54,5.57,9.08,4.4,2-.88,4.87-3.38,6.61-10.5C973.08,231.82,971.88,221.71,970,217.21Z"/><path class="cls-14" d="M929.9,227.9c2.85,6.35,6.23,12.44,9.27,18.7a325.16,325.16,0,0,1,17.05,42q1.18,3.66,2.27,7.35a14.8,14.8,0,0,0,2.68-1.92c2.94-2.6,5.57-11.42,5.27-16.46-2-33.57-1.85-26.53-28.07-55.63-3-3.39-8.08-6.31-13.31-8.46C926.74,218.3,928.07,223.18,929.9,227.9Z"/><path class="cls-14" d="M819,131.79c2.73.81,5.48,1.57,8.15,2.55,1.12.41,2.24.84,3.35,1.29-2.17-3.33-5.1-7.55-8.86-13.7-4.79-7.81-21.09-8.62-28.05-7.69l-6.81,6.53c-.19.58-.53,1.6-.91,2.84C797.06,125.49,808.05,128.57,819,131.79Z"/></g><g class="cls-13"><path d="M927.33,138.72l-.72.14,6.76,4.19Z"/><path d="M760.68,163a10.75,10.75,0,0,1-1.15-2.17c-.95-1.5-1.86-3-2.74-4.54a85.13,85.13,0,0,1-6.74-15,36.12,36.12,0,0,1-1.46-5.86l0-.12a49.38,49.38,0,0,0-7.27,4.57l-2.62,9.68c.6,2.49,3,12.54,5.65,13.61,8.34,3.34,15.28,5.63,21.55,8.54A92.9,92.9,0,0,0,760.68,163Z"/><path d="M785.17,208.83A221.76,221.76,0,0,1,772.81,186c-2.4-5.16-4.76-10.37-7.49-15.37-7.67-3.74-10.21-1.79-30.74-2.78-10.21-.49-18,8.24-21.42,15.8l1.91,11.16c1.67,2.28,8.37,11.5,11.29,11.36,21.28-1,33-4.39,53.1,7.23,1.74,1,4.41-.49,6.83-2.38l.19-.14C786,210.23,785.6,209.53,785.17,208.83Z"/><path d="M700.17,239c2.43,1.33,12.22,6.72,15.05,5.44,20.64-9.36,31.08-17,54.87-14.81,2.06.19,4.18-2.19,5.91-4.79,1.32-2,4.81-4.87,2-11.62-1.77-4.27-5.09-11.85-10.56-12.51-38.76-4.67-25.22-4.43-57.34,7C699.86,211.26,695.17,222,694.43,230Z"/><path d="M717.21,290.17c1.79,1.15,14.58,1.48,16.09,0,5.42-5.3,6.68-5.77,8.21-7.56,14.64-17.1,24.72-25.1,48-32.47,2-.64,2.82-3.74,3.15-6.91.25-2.42,2.09-6.55-3.85-11.85-3.75-3.35-10.58-9.25-16-7.7-38.45,11-30.83,3.46-55.18,27.06-6.1,5.91-10.8,13.44-9.27,20.72.69,3.29,6,16.87,8.86,18.71Z"/><path d="M742.54,328c1.76.49,12.76-3.22,13.76-5.06,3.56-6.58,4.54-7.41,5.49-9.54,9.07-20.34,16.08-30.86,34.48-45,1.59-1.22,1.66-4.33,1.3-7.35-.27-2.3.47-6.68-5.68-9.7-3.89-1.91-10.91-5.19-15.24-2.06C746,271.53,751,262.23,734.93,291.61c-4,7.36-6.53,15.77-3.75,22,1.26,2.81,8.54,13.65,11.36,14.44Z"/><path d="M776.17,364.75c2.23.15,14.23-6.61,14.9-8.93,2.41-8.27,3.34-9.44,3.88-12.07,5.13-25.12,10.53-38.66,28.44-58.9,1.55-1.75.77-5.28-.48-8.61-1-2.55-1.29-7.68-9.4-9.65-5.14-1.26-14.36-3.33-18.62,1.21C764.68,300,768,288.34,757.12,325.31c-2.74,9.27-3.39,19.36,1.62,25.75,2.26,2.89,13.88,13.45,17.43,13.69Z"/><path d="M850.79,279c-2.19-1.84-4.37-3.71-6.53-5.58a14.93,14.93,0,0,0-3.55-.53c-5.26-.18-14.67-.32-17.81,5.61-22.24,42.11-21.55,28.59-24,71.44-.62,10.75,1,21.9,7.24,27.73,2.84,2.63,4.75,8.41,8.25,7.85l13.81-2.5c2.19-.35,10.24-4.91,10.38-7.59.52-9.59,1.17-11.08,1.11-14.07-.54-28.59,1.72-44.61,14.66-70.81,1.11-2.27-.42-5.94-2.37-9.29C851.6,280.68,851.24,279.89,850.79,279Z"/><path d="M930,332.09a248.39,248.39,0,0,1-22.33-12.43c-5.16-3.14-10.31-6.28-15.39-9.54,3.74,10.52,9.6,20.61,19.11,31.1,2.41,2.66,4.3,4.8,6.28,5.61,8.36,3.42,11.27-1,14.06-7.53.72-1.65,1.55-3.49,2.35-5.31C932.72,333.37,931.36,332.73,930,332.09Z"/><path d="M914.23,323.59q-3.3-1.93-6.55-3.93c-7.33-4.47-14.68-8.93-21.78-13.76-3.21-2.17-6.36-4.41-9.49-6.7-4.91,25.66-7.29,44.64,8.54,69.05,1.75,2.69,3.11,4.84,4.85,5.9,7.35,4.44,11.16,1.23,15.32-3.71,3.55-4.21,8.8-9.85,9-12.07,1.81-22.36,3.06-3.67,1.53-25.72A66.45,66.45,0,0,0,914.23,323.59Z"/><path d="M880,357.62c-2.73-22.32-3.23-37.26.47-55.49-6.52-4.63-12.88-9.49-19.15-14.46Q856,283.41,850.73,279c-14.48,43.62-10,26.46-7.56,70.18.62,11,3.22,22.33,9.32,27.79,2.76,2.46,15.59,10.44,18.59,9.59,1.88-.53,9.66-11.71,9.5-14.46C880,362.25,880.39,360.68,880,357.62Z"/><path d="M931.5,141.71l-.26,0,2.13,1.32Z"/><path d="M760.68,163a10.75,10.75,0,0,1-1.15-2.17c-.95-1.5-1.86-3-2.74-4.54a85.13,85.13,0,0,1-6.74-15c-.09-.26-.17-.52-.25-.78a45.21,45.21,0,0,0-5.44,3.56l-2.51,9.3c.57,2.39,2.87,12.05,5.41,13.07,7.7,3.1,14.15,5.25,20,7.91A97.24,97.24,0,0,0,760.68,163Z"/><path d="M785.17,208.83A221.76,221.76,0,0,1,772.81,186c-2-4.25-3.92-8.52-6.07-12.69-6.88-3.19-9.73-1.45-28.82-2.37-9.78-.47-17.27,7.92-20.51,15.17l1.83,10.72c1.59,2.19,8,11,10.81,10.91,20.38-1,31.65-4.22,50.86,6.95,1.66,1,4.22-.47,6.53-2.28C786.68,211.25,785.92,210,785.17,208.83Z"/><path d="M705,239.24c2.33,1.27,11.71,6.45,14.42,5.22,19.76-9,29.76-16.32,52.55-14.22,2,.18,4-2.1,5.66-4.6,1.27-1.92,4.61-4.68,1.92-11.16-1.7-4.1-4.88-11.38-10.11-12-37.13-4.48-24.16-4.26-54.93,6.69-9.81,3.49-14.3,13.81-15,21.44Z"/><path d="M721.29,288.42c1.71,1.11,14,1.43,15.41,0,5.19-5.09,6.39-5.54,7.86-7.26,14-16.42,23.68-24.1,46-31.19,1.93-.61,2.7-3.59,3-6.63.24-2.32,2-6.29-3.68-11.38-3.6-3.22-10.14-8.88-15.33-7.4-36.83,10.52-29.53,3.32-52.85,26-5.85,5.68-10.35,12.91-8.88,19.9.66,3.17,5.75,16.21,8.49,18Z"/><path d="M745.55,324.8c1.68.47,12.22-3.09,13.17-4.86,3.42-6.32,4.36-7.12,5.27-9.16,8.68-19.54,15.39-29.65,33-43.19,1.52-1.17,1.59-4.16,1.25-7.06-.26-2.21.45-6.42-5.44-9.31-3.73-1.84-10.46-5-14.6-2-29.38,21.29-24.58,12.36-40,40.57-3.85,7.08-6.25,15.15-3.58,21.13,1.2,2.7,8.18,13.1,10.88,13.87Z"/><path d="M777.76,360.05c2.13.15,13.63-6.34,14.27-8.57,2.31-8,3.2-9.07,3.72-11.59,4.91-24.13,10.08-37.14,27.23-56.58,1.49-1.68.74-5.07-.46-8.27-.92-2.44-1.23-7.37-9-9.27-4.92-1.2-13.76-3.19-17.84,1.17-28.93,30.95-25.71,19.73-36.17,55.24-2.63,8.9-3.24,18.59,1.55,24.73,2.17,2.77,13.29,12.91,16.7,13.14Z"/><path d="M849.22,277.71c-2.08-1.76-4.14-3.53-6.2-5.32a13.61,13.61,0,0,0-3.44-.52c-5-.18-14.06-.32-17.06,5.39-21.31,40.44-20.64,27.45-23,68.61-.59,10.32.93,21,6.94,26.63,2.71,2.53,4.54,8.08,7.9,7.55l13.22-2.41c2.1-.33,9.81-4.72,9.95-7.29.49-9.21,1.11-10.64,1.06-13.51-.52-27.47,1.64-42.85,14-68,1.07-2.18-.4-5.71-2.27-8.92C850,279.31,849.66,278.54,849.22,277.71Z"/><path d="M907.68,319.66c-6.22-3.79-12.45-7.57-18.53-11.58,3.59,9.93,9.17,19.46,18.13,29.38,2.31,2.55,4.12,4.61,6,5.38,8,3.29,10.79-1,13.47-7.22.56-1.32,1.21-2.76,1.85-4.21C921.42,327.89,914.51,323.83,907.68,319.66Z"/><path d="M910.12,321.15l-2.44-1.49c-7.33-4.47-14.68-8.93-21.78-13.76-4.12-2.8-8.16-5.7-12.16-8.67-4.69,24.58-6.92,42.78,8.21,66.19,1.67,2.58,3,4.65,4.64,5.66,7,4.27,10.7,1.19,14.68-3.55,3.4-4,8.43-9.47,8.6-11.6,1.73-21.48,2.93-3.53,1.47-24.7A62.93,62.93,0,0,0,910.12,321.15Z"/><path d="M877.23,353.21c-2.61-21.37-3.09-35.69.41-53.12-5.53-4-10.95-8.17-16.3-12.42q-6.17-4.89-12.16-10c-13.88,41.91-9.61,25.43-7.25,67.42.59,10.61,3.08,21.45,8.93,26.69,2.64,2.37,14.93,10,17.8,9.21,1.8-.51,9.26-11.24,9.1-13.89C877.2,357.66,877.59,356.15,877.23,353.21Z"/><path d="M760.68,163a10.75,10.75,0,0,1-1.15-2.17c-.95-1.5-1.86-3-2.74-4.54a88.45,88.45,0,0,1-4.78-9.78c-.68.47-1.3.92-1.82,1.34l-2.4,9c.55,2.31,2.74,11.66,5.16,12.65,5.52,2.24,10.35,4,14.78,5.78A101.47,101.47,0,0,0,760.68,163Z"/><path d="M785.17,208.83A221.76,221.76,0,0,1,772.81,186c-1.76-3.77-3.48-7.56-5.35-11.28-4.5-1-9.32-.16-23.42-.85-9.33-.45-16.48,7.66-19.58,14.68L726.21,199c1.52,2.12,7.65,10.68,10.32,10.55,19.45-.95,30.21-4.08,48.54,6.72,1.13.66,2.69.15,4.29-.83C787.93,213.23,786.53,211.05,785.17,208.83Z"/><path d="M712.59,239.93c2.22,1.24,11.17,6.25,13.76,5.06,18.86-8.7,28.4-15.79,50.15-13.76,1.88.18,3.82-2,5.4-4.45,1.21-1.85,4.4-4.53,1.84-10.79-1.63-4-4.66-11-9.66-11.62-35.43-4.34-23.05-4.13-52.42,6.46-9.36,3.38-13.65,13.36-14.32,20.74Z"/><path d="M728.17,287.51c1.63,1.07,13.32,1.38,14.71,0,5-4.92,6.1-5.36,7.5-7,13.38-15.88,22.6-23.31,43.86-30.16,1.84-.59,2.58-3.47,2.88-6.41.23-2.25,1.92-6.09-3.51-11-3.44-3.12-9.68-8.6-14.63-7.16-35.15,10.18-28.18,3.21-50.44,25.14-5.58,5.49-9.88,12.48-8.48,19.25.64,3.06,5.49,15.67,8.11,17.38Z"/><path d="M751.32,322.69c1.61.46,11.66-3,12.58-4.69,3.25-6.12,4.15-6.89,5-8.87,8.29-18.9,14.69-28.67,31.51-41.77,1.46-1.13,1.52-4,1.19-6.83-.25-2.14.43-6.21-5.19-9-3.55-1.77-10-4.82-13.93-1.92-28,20.59-23.46,12-38.14,39.25-3.68,6.84-6,14.65-3.42,20.43,1.14,2.61,7.8,12.67,10.38,13.41Z"/><path d="M782.06,356.79c2,.14,13-6.14,13.62-8.29,2.2-7.69,3.06-8.77,3.55-11.21,4.69-23.34,9.62-35.92,26-54.72,1.42-1.63.71-4.91-.44-8-.88-2.37-1.18-7.13-8.59-9-4.69-1.16-13.13-3.09-17,1.13-27.62,29.93-24.54,19.08-34.53,53.43-2.5,8.61-3.09,18,1.49,23.92,2.07,2.68,12.68,12.49,15.93,12.71Z"/><path d="M842.09,271.57c-.33,0-.67-.06-1-.07-4.81-.18-13.42-.31-16.28,5.21-20.34,39.12-19.7,26.55-22,66.37-.57,10,.89,20.34,6.62,25.75,2.59,2.45,4.34,7.82,7.54,7.3l12.62-2.33c2-.32,9.36-4.56,9.5-7.05.47-8.9,1.06-10.29,1-13.07-.5-26.56,1.57-41.44,13.39-65.78,1-2-.25-5.2-1.91-8.19Q846.79,275.69,842.09,271.57Z"/><path d="M907.68,319.66c-6.31-3.85-12.63-7.69-18.8-11.76a85.26,85.26,0,0,0,16.79,27c2.2,2.47,3.94,4.45,5.75,5.21,7.64,3.17,10.3-1,12.85-7,.43-1,.91-2.11,1.4-3.23C919.53,326.78,913.57,323.26,907.68,319.66Z"/><path d="M908.6,320.23l-.92-.57c-7.33-4.47-14.68-8.93-21.78-13.76-4.21-2.86-8.34-5.83-12.42-8.87-4.35,23.27-6.22,40.7,8,63,1.59,2.5,2.84,4.5,4.43,5.48,6.72,4.13,10.21,1.14,14-3.45,3.24-3.91,8-9.15,8.2-11.21,1.65-20.78,2.8-3.41,1.4-23.9A58.29,58.29,0,0,0,908.6,320.23Z"/><path d="M877,350.17c-2.44-20.27-2.93-34,.21-50.4-5.38-3.91-10.65-8-15.86-12.1q-5.82-4.62-11.49-9.42c-12.79,39.11-8.78,23.85-6.55,64.08.57,10.26,3,20.74,8.52,25.81,2.53,2.3,14.26,9.7,17,8.92,1.71-.5,8.83-10.88,8.68-13.44C877,354.48,877.33,353,877,350.17Z"/><path d="M861.34,287.67c-14-11.13-27.35-23.12-40.46-35.32a184.37,184.37,0,0,1-18.48-19.12,235.82,235.82,0,0,1-17.23-24.4q-2.32-3.78-4.5-7.6C772.73,212,768,224.32,768,237c0,3.16-.65,29.34,15.5,44.62,18.43,17.43,54.37,24,61.94,24a67.15,67.15,0,0,0,30.19-7C870.82,295.09,866.06,291.41,861.34,287.67Z"/><path d="M861.34,287.67c-14-11.13-27.35-23.12-40.46-35.32a184.37,184.37,0,0,1-18.48-19.12,235.82,235.82,0,0,1-17.23-24.4c-.71-1.15-1.41-2.31-2.1-3.47-6.34,9.5-10,20.14-10,31.09,0,3-.62,27.75,14.69,42.21,17.48,16.49,51.55,22.7,58.72,22.7a64.13,64.13,0,0,0,25.74-5.28Q866.72,292,861.34,287.67Z"/><path d="M801.94,284.15c14.25,5.55,21.23-8.64,27.6-2.31a1.21,1.21,0,0,0,2.06-.23h0c.43-.66,1-1.09-.13-2.14-8.82-7.9-14.59,7.3-28.19,2.09-1.8-.69-1.77,0-2.1.73h0C800.84,283,800.05,283.41,801.94,284.15Z"/><path d="M792.25,219.65c-5,1.15-9.68,7-12.84,10.35-.59.63-.26,1.2.36,1.73s1.05.28,1.63-.24c3.63-3.26,7.46-10.12,12.37-9.68Z"/><path d="M820.88,252.35c-2.67-2.47-5.3-5-7.87-7.51-2.44,12.45,13.67,18.38,20.1,20.17a2.73,2.73,0,0,0,1.36-.21Q827.62,258.64,820.88,252.35Z"/><path d="M798.76,230.38c4,9.41,4.54,24.31-9.06,28.11,0,0-23-3.38-1.34-32.78C791.06,222.05,797,226.19,798.76,230.38Z"/><path d="M820.88,252.35q-2.91-2.68-5.75-5.42c-1.54,10.69,10.46,14,16,15.56a5,5,0,0,0,.94.18Q826.46,257.55,820.88,252.35Z"/><path d="M796.81,228.66c3.51,8.29,5.8,25.73-7.13,28.31,0,0-20.88-3.44-1.8-29.34A5.17,5.17,0,0,1,796.81,228.66Z"/></g><path class="cls-15" d="M926.92,335.27h0a161.83,161.83,0,0,1-24.54-5.41c-45.24-13.88-85.13-41-119-73.65-25.12-23.49-48.76-49.15-66.59-78.7-5.21,4.86-2.76,11.55-1.77,17.34a85.13,85.13,0,0,0,6.8,8.36c-13.49,3.52-27.16,12-27.44,26.75l5.74,9c2.43,1.33,12.22,6.72,15.05,5.44,3.37.38,5.53-.79,8.42.53-7.19,6.55-17.68,16.58-15.29,26.53,5.3,17.59,9.26,24.79,28.29,17-4.51,7.6-8.8,18-5.46,25.13,8.66,15.29,12.5,19.13,27.22,7.36-8.42,20.07-.51,35.77,17.77,43.79,4.72-.9,16.54-7.27,16.19-13.13,5.49-3.37,6.44-14.7,7.5-17.41-.82,12.31-3.72,34.86,6.26,43.5,2.84,2.63,4.75,8.41,8.25,7.85,6.86-1.4,21.08-2.31,24.19-10.1,2.17-19.43.61-27.27,2.38-44.26,1.2,13.91,1.07,35.26,11.55,45.77,2.76,2.46,15.59,10.44,18.59,9.59,9.32-7.65,10.12-16.24,9.12-25.95,5.4,10.65,15.27,23.26,24.92,9.83,11.58-10.8,8.56-17.09,10.82-24.65,7.9,5.15,13.26.79,15.8-6.49C934.79,334.79,930.42,336,926.92,335.27Z"/><g class="cls-16"><path class="cls-17" d="M838.07,124.58c9.87,2.74,20,6.15,27.87,12.9-1-10.72,17.21-31.33,13.43-37.77-12.06-11.34-7.37-8-15.18-10.07-.91-.25-5.92-.55-8.53,1.48C843.32,101.6,817.75,123.43,838.07,124.58Z"/><path class="cls-17" d="M881.51,152.69a146.65,146.65,0,0,0,11.08,10c6.37-20.52,31.91-22.16,32.82-36.48-.45-2.25-.2-5.82-6.6-10.58-19.66-12.06-48.29,8.23-53.47,21.33C871.21,141.66,876.28,147.35,881.51,152.69Z"/><path class="cls-17" d="M962.69,147.65c-23.54-22.68-55.81-4.77-70.44,14.79,4.08,3.43,8.26,6.75,12.26,10.23,24.92,26.37,9-1.19,53.12-5.63C964.84,163.61,969,158.05,962.69,147.65Z"/><path class="cls-17" d="M981.74,214.5c-13.85-32.3-11.14-25.33-41.12-34.79-6-1.89-15.63,2-22,6.36q3.38,3.62,6.43,7.52a98.13,98.13,0,0,1,14.83,24.72c9.47,4.92,16.1,12.25,26.91,23.33C983.06,258.28,987.78,226.43,981.74,214.5Z"/><path class="cls-17" d="M977.87,279.53c-2.21-36.14-2-28.56-30.7-59.88a34.65,34.65,0,0,0-9.83-7c12.25,27.48,22,56.43,25,86.51.15,3.83,6.31.88,9.81-1.95C975.33,294.44,978.21,285,977.87,279.53Z"/><path class="cls-17" d="M781.77,112.39c14.78,1.78,29.25,5.71,43.76,9-1.76-2.61-3.79-5.68-6.11-9.41-5.23-8.41-23.07-9.29-30.68-8.28-.76,1-8.34,7.1-8,8.62Z"/><path class="cls-17" d="M838.07,124.58c9.38,2.64,19,5.77,26.71,12-.31-6.85,15.36-25.05,11.83-31.06-11.56-10.89-7.07-7.68-14.55-9.68-.87-.23-5.66-.52-8.17,1.43-11.72,9.13-18.91,17-23.29,25.34C833.1,123.21,835.59,123.87,838.07,124.58Z"/><path class="cls-17" d="M881.51,152.69c3.14,3.21,6.5,6.19,9.94,9.09,4.73-14.22,29.25-18.49,29.25-30.79-.43-2.17-.19-5.6-6.32-10.17-18-10.6-41.9,5.17-48.78,16.39C871.36,141.83,876.35,147.43,881.51,152.69Z"/><path class="cls-17" d="M904.51,172.67c22.43,23.16,8.16,1.53,47-2.51,1.88-.33,6.75-4.08,7.21-6.93.35-2.18,1.78-5.31-2.36-11.69-19.89-20.7-52.52-5.58-64.3,10.79C896.24,165.79,900.46,169.15,904.51,172.67Z"/><path class="cls-17" d="M974.66,215.74c-13.27-31-10.67-24.33-39.39-33.41-4.51-1.43-11.21.58-16.85,3.55a110.86,110.86,0,0,1,24,38.62c7.65,4,16.23,21,27.45,21.86C977.94,243.6,978.69,223.81,974.66,215.74Z"/><path class="cls-17" d="M971,278.2c-1.66-34.5-3.35-29.1-30.59-58.7,10.45,25,19,50.94,21.75,78C968.24,295,971,285.3,971,278.2Z"/><path class="cls-17" d="M820.55,120.2l.58.13c-4-10.64-28.79-15.91-35.2-7.39C797.59,114.64,809.08,117.59,820.55,120.2Z"/><path class="cls-17" d="M838.07,124.58c9.9,2.74,20,6.17,27.94,13,.18-5.88,13.53-20.53,10.39-27-11-10.54-6.74-7.42-13.88-9.36-.83-.22-5.41-.51-7.8,1.38-9.55,7.54-16,14.21-20.22,21C835.69,123.91,836.88,124.24,838.07,124.58Z"/><path class="cls-17" d="M881.51,152.69c16.59,17.75,7.22,3.37,32.84-8.79,1.57-.92,4.68-5.93,4.13-8.67-.41-2.09-.18-5.41-6-9.83-17-9.64-36.94,3.34-44.86,13.47C872.53,143.14,877,148.05,881.51,152.69Z"/><path class="cls-17" d="M904.51,172.67c22.3,22.43,8.1,4.33,43.42.45,1.8-.32,6.45-3.94,6.89-6.7.33-2.11,1.69-5.14-2.26-11.31-17.27-19.21-49.21-6.1-59.28,8.2C897,166.43,900.84,169.48,904.51,172.67Z"/><path class="cls-17" d="M970,217.21c-12.67-30-10.19-23.53-37.59-32.32-3.52-1.13-8.44,0-13.06,2,11.86,12.46,19.8,27.72,25.51,43.82,5.67,4.07,11.67,16.1,20.53,16.15C973.14,244.12,973.81,225,970,217.21Z"/><path class="cls-17" d="M955,260.76a229.44,229.44,0,0,1,6.62,32.83c12.12-25.87,2.08-47.79-17.94-65.77A324.8,324.8,0,0,1,955,260.76Z"/><path class="cls-17" d="M820.15,120.11c-6-6.09-20.11-6.72-26.52-5.88C802.53,115.9,811.34,118.1,820.15,120.11Z"/></g><path class="cls-11" d="M787.71,252l0,0a.64.64,0,0,1-.48.3.27.27,0,0,0-.12.06l-.39.34c-.17.14-.47,0-.45-.17l.06-.46s-.1-.09-.25-.13c-.38-.1-.58-.43-.43-.71l0-.09a.18.18,0,0,0-.09-.23l-.51-.25a.21.21,0,0,1-.08-.12c-.08-.34.47-.54.78-.28h0c.16,0,.27-.13.22-.26l-.19-.44c-.08-.19.19-.34.4-.22l.44.48c.14.08.36-.16.43-.28l.07-.35c.09-.19.57-.22.63,0l0,.73h0a.43.43,0,0,0,.71.09l.24-.34a.26.26,0,0,1,.43,0,.16.16,0,0,1,0,.15l-.25.41c-.08.11.1.4.27.43l.49,0c.24,0,.28.31,0,.38l-.54.18a4.81,4.81,0,0,0-.54.14.85.85,0,0,1-.35.11c-.1,0-.2,0-.22.07a.41.41,0,0,1-.14.17A.68.68,0,0,0,787.71,252Z"/><path class="cls-11" d="M824.92,255.57h0a.63.63,0,0,1-.44-.35.22.22,0,0,0-.09-.1l-.45-.27c-.18-.11-.17-.44,0-.48l.46-.09s0-.12,0-.27c0-.39.23-.69.54-.63h.1c.09,0,.17,0,.19-.16l.08-.55a.18.18,0,0,1,.09-.12c.3-.18.65.27.51.65h0c.06.16.22.22.32.13l.36-.32c.15-.13.38.08.33.31l-.31.57c0,.16.26.3.39.32l.36-.05c.2,0,.39.48.23.6l-.69.25h0a.44.44,0,0,0,.15.7l.4.12a.27.27,0,0,1,.11.42.19.19,0,0,1-.15,0l-.47-.12c-.13,0-.35.23-.33.4l.19.45c0,.25-.21.36-.35.17l-.33-.45a5.41,5.41,0,0,0-.31-.47,1.29,1.29,0,0,1-.22-.3c0-.1-.09-.18-.13-.19a.46.46,0,0,1-.21-.08A.69.69,0,0,0,824.92,255.57Z"/><g class="cls-13"><path d="M587.4,3.23l1.11.22-10.4,6.44Q582.75,6.55,587.4,3.23Z"/><path d="M581,7.82l.39,0-3.28,2Z"/></g><g class="cls-13"><path d="M613.08,0l1.12.22L603.8,6.66C606.89,4.43,610,2.22,613.08,0Z"/><path d="M606.68,4.59l.4,0-3.28,2Z"/></g><path d="M857.15,255.59a.35.35,0,0,0-.67-.16c-1.39,3.9-3.54,11.18-2.44,16.16a12,12,0,0,0,5.44,7.22.35.35,0,0,0,.44-.54c-1.76-2.14-4.15-5-4.42-5.84l0,0a10.13,10.13,0,0,1-.3-4.92C855.67,264.8,856.58,259.7,857.15,255.59Z"/><path d="M861,234.93c-.13.19.39.48.6.33,2.08-1.45,5.54-4.31,5.49-7.21,0,0-.06-2.83-3.68-5.65-.29-.22-.7-.13-.52.11a32.79,32.79,0,0,1,3,4.57v0a3.07,3.07,0,0,1-.7,2.58C864.23,230.85,862.36,233.08,861,234.93Z"/></g></svg>