<svg xmlns="http://www.w3.org/2000/svg" width="1243.14" height="1268.02" viewBox="0 0 1243.14 1268.02"><defs><style>.cls-1{fill:#451c54;opacity:0.3;}.cls-2{fill:#727051;}.cls-3{fill:#070705;}.cls-4{fill:#d6d061;}.cls-5{opacity:0.2;}.cls-6{opacity:0.3;}.cls-7{fill:#050505;}.cls-13,.cls-8{opacity:0.5;}.cls-9{fill:#070706;}.cls-10{fill:#acc642;}.cls-11{fill:#9422af;}.cls-12{fill:#d3d6bd;}.cls-14,.cls-15{opacity:0.1;}.cls-16{fill:#c1d687;}</style></defs><g id="Layer_3" data-name="Layer 3"><path class="cls-1" d="M1068,740.46c-133.77,19.95-121.07,2.7-273.75,44.87-33.87,9.35-85.65,34.12-110,49.28C596.74,889,562.63,969.85,509.11,1029.8H508l-3.73.07-3.4.07-1.9.06-.62,0-1.19,0-3.33.14-1,.06-1,.07-.52,0-.89.07q-.72,0-1.41.12-.9.08-1.74.18c-.42,0-.84.09-1.24.15l-.41,0-.45.07-.73.11-1.14.19-1.9.38-.58.14-.42.1c-.71.17-1.4.36-2.09.56l-.69.22c-.57.18-1.15.37-1.72.57l-.44.16-.61.23-.7.27-.36.14-.5.2-.42.18-.68.28-.58.26c-1.81.78-3.74,1.7-5.91,2.76l-.46.23c-2.51,1.23-5.33,2.66-8.65,4.31a79.42,79.42,0,0,0-7.82,4.48l-1.35.9c-.67.44-1.31.89-1.93,1.34s-1.24.89-1.83,1.33l-2.89,2.18c-.18.15-.37.29-.56.43s-.65.51-1,.75l-.26.2c-1.74,1.33-3.45,2.6-5.25,3.81l-1,.64-.74.46-.38.23c-1.15.7-2.35,1.36-3.63,2h0l-1.28.6-.14.07-1.23.52-.26.11c-1.33.53-2.73,1-4.25,1.49l-.7.2c-.91.26-1.86.51-2.86.74l-.78.18-1.9.39-1.32.23-1.43.24-1.6.22c-.15,0-.31,0-.46.06l-1.15.15-.52.06-1.09.12-.52,0-1.1.11-.47,0-1.16.09-.43,0-1.21.09-.35,0-1.29.07-.26,0-1.39.06h-.18l-1.48,0h0c-9.66.31-19.62-.15-29.81-.24,10-3.12,19.13-7.29,26.13-12.64,83.8-64,127.09-68,142.71-78.28,3.61-2.38,20.37-28.86,14-29.11-45.56-1.77-39.62,8.56-65,22.32-18.67,10.14-45.8,28.36-69.21,31.21-34.5,4.19-64.34-11.93-102.85,14.92-1.84,1.29-6.72,2-12.26,2.79-1-3.56-2-7.08-3.18-10.53,23.3-4.78,51.5-17.17,71.22-19.56,126.06-15.26,180.15-75,180.16-86.5,0-4.23-.92-5.4-7.3-5.56-45.64-1.17-52.81,16.11-78.43,29.73-18.87,10-39.16,11.54-63.1,18.73-27.32,15.63-68,14.77-113.77,10.54-3.2-.29-11.16.44-18.69,2a74.49,74.49,0,0,0-9.6-7.88c26.69-25.43,55.57-44.9,82.3-46.45,22.55-1.3,43.24-19.11,63.9-21,28.07-2.53,56.14,8.51,89.28-17.19,4.63-3.59,3.92-5.52,1.12-9C486.46,845,314.44,832.5,212.15,901.5a20.64,20.64,0,0,0-6.06-3.69c-16.69-4.17-20.36-2.63-32.6-3.72-13.92-1.24-29.83,5.66-35.51,15.25-6.9,11.65-37.47,18.83-40.39,29.3-1.73,5.84-16.54,20.59-16.68,24.48-.2,5.69,1.4,7.81,1.28,10.35a60.66,60.66,0,0,0,.15,8.32c-.93.21-1.81.41-2.63.62l-1,.25q-1.2.32-2.28.63C74,984,72,984.75,69.9,985.52l-.37.14-2.86,1.07-.26.1-2.21.79-.31.11-1,.36-.78.26-1.84.59c-12.72,4-22,14.74-20.79,23.92.63,4.88-3.15,10.71-7.27,16.47q-.89,1.25-1.77,2.46c-4.72,6.54-9.11,12.79-7,17.23h0c.05.12.1.26.15.4a.14.14,0,0,1,0,.06c0,.13.09.28.13.42a.29.29,0,0,1,0,.09c0,.15.08.3.11.46s0,.06,0,.09l.09.5s0,0,0,.08.05.33.07.5a.28.28,0,0,0,0,.09c0,.17,0,.35.05.54s0,.1,0,.15,0,.35,0,.53,0,.14,0,.2,0,.36,0,.54a1.69,1.69,0,0,1,0,.23c0,.13,0,.27,0,.41s0,.26,0,.39v1.13c-.08,6.68-1.24,15.31.4,17.39,3.43,4.33,6.14,5.36,7.65,7.3a68.36,68.36,0,0,0,5.86,6.69c-6.17,2.13-12.19,5.82-13.52,7.3-13.6,15.08-13,18.87-20,30.3-8,13-5,29.43,6.66,36.64,14.11,8.75,11.06,39.17,25.21,43.91,7.84,2.75,23,19.6,28.68,20.46,8.32,1.27,12.11,1.92,15.86.73,20.63-6.52,34.73-10.93,43.88-14.13-1.5,11.51-1.34,24.35.62,26.75,5.73,7,23.24,31.36,56.28,28.64,38.21-3.15,89.49-15.66,100.51-16,125.82-4.25,109.5-47.91,81.7-51.8-20.47-2.87-53.88,13.28-77.75,15.58-33.76,3.24-53.42,13.14-82.21-23.34q3-.93,6-1.94c8.75,9.4,21.57,20,25,21.75,18.87,10,122.09-37.19,141.56-35.07,97.41,10.62,102.61-22.88,87-42.64,37.74-7.51,68.77-16.94,91-26.17,9.18-3.81,17.61-7.78,25.42-11.89,35.17,8.88,71.55-2.34,116-27.15,33.16-18.5,86.22-4.26,109.25-34.6,25.74-33.92,29.57-2.58,86.86-60.55,3.36-3.4,5.66-13.54.46-14-12.25-1.07-57.37,13.55-89.52,32.22-38.4,22.29-73.4,37-126.35,41.55a37.09,37.09,0,0,0-14.68,4.42,121.26,121.26,0,0,1-12.63,6.09c8.67-8.6,16.8-17.29,25.12-25.91a154.18,154.18,0,0,0,19.49-10.41c17.89-11.07,48.27,0,60-19.16,13.11-21.44,16.52-.73,46.39-36.94,1.75-2.12,2.64-8.7-.3-9.17-6.92-1.1-31.69,7-49,18.24-9.86,6.38-19.36,11.65-29.8,15.56,27.52-19.81,63.84-37.4,120.36-50.14,25.56-4.32,57.32-9.34,94.24-14.49,29.62-2.89,62.91-4.9,100.53-5.9,4-.1,60.76-9.71,80.16-50.1C1137.9,811.17,1073.83,739.58,1068,740.46ZM278,1148.8c3.21.11,6.4.19,9.58.26-3.74.59-7.68,1.29-11.87,2.12C276.51,1150.39,277.28,1149.6,278,1148.8Zm94.36,2.55c-9.49-1-17.61-2.12-25.36-3.06,16.72-.79,32.85-2.06,48.31-3.7C387.77,1149.07,380.12,1152.16,372.39,1151.35ZM307,1078.24c.09-1.4.16-2.81.22-4.23,2.75.17,5.65.26,8.67.26A96.17,96.17,0,0,0,307,1078.24Z"/><path d="M1087.32,622.67c-3.06-4.63-2.5-24.41,3.16-39.69,6.76-18.27,9.33-34.09,2-55.46a9.76,9.76,0,0,1,0-6.38c4.9-14.51-.94-26.32-11.45-36.34-1.61-1.54-1-2.76,1.19-3.94a133.57,133.57,0,0,1,16.55-7.69c2.48-.89,3.72-1,6,.51,21.06,13.38,22.61,31.13,14,56.23-5.37,15.67,14,34.34-.85,47.76-16.65,15,4.11,11.94-21.76,42.78C1094.65,622.26,1088.62,624.64,1087.32,622.67Z"/><path class="cls-2" d="M1089.62,621.58c-4.27-1.37-.89-27.83,3.4-42.23,5.13-17.22,7.09-32.1,1.48-52.24a10.89,10.89,0,0,1,0-6c4-13.74,1.46-25.46-6.51-34.89-1.22-1.45-.76-2.6.9-3.72a95,95,0,0,1,12.55-7.23c1.89-.85,2.85-.95,4.59.48,21.31,17.45,17.34,31.23,10.63,53-4.5,14.62,11.68,36.53-.63,48.15-15,14.17-2.72,20.52-19.48,41.14C1095.28,619.6,1091.59,622.21,1089.62,621.58Z"/><path d="M1130.72,683.85c-4.58-8.43-3.74-44.39,4.72-72.2,10.11-33.22,14-62,2.92-100.88a21.49,21.49,0,0,1,0-11.61c7.33-26.39-1.39-47.87-17.11-66.1-2.42-2.81-1.49-5,1.78-7.18,7.08-4.66,16.69-10.43,24.73-14,3.71-1.63,5.57-1.76,9,.92,31.49,24.34,33.8,56.64,21,102.29-8,28.49,21,62.46-1.26,86.88-24.88,27.3,6.14,21.71-32.53,77.82C1141.67,683.11,1132.66,687.43,1130.72,683.85Z"/><path class="cls-3" d="M972.28,866.87C952.44,766.44,939.67,780,935.53,660.28c-.92-26.57,7.66-70,15-91.32,50.73-146.87,251.31-180.08,134.21-375.7-2.76-4.6,36.75-18.74,39.88-12.46,46.17,92.47,55.09,177.72,49.21,223.38-17.62,137-157.59,113-52.89,396.3,1.06,2.89,8.39,45.79-24.51,70.29C1060.08,897.86,973.15,871.26,972.28,866.87Z"/><path class="cls-4" d="M984,860.19c-173.2-436.43,252.21-397.92,115.33-664.61-2.32-4.53,24-6.17,26.69,0,155.72,363.8-153.78,238.56-15.55,589.81,1.08,2.75,10.56,59.89-17.89,79.53C1059.38,887.84,985.56,864.18,984,860.19Z"/><g class="cls-5"><path d="M1123.09,325.85q2.1,2.23,4.05,4.59c8.18,9.81,15.89,20,21.83,31.37,2.06,3.93,3.93,8,5.67,12,3.34,7.86,6.73,15.68,9.59,23.74q1.69,4.77,3.22,9.59c9.26-46.36,2.1-109.86-41.45-211.6-2.64-6.17-29-4.53-26.69,0C1126.86,249.24,1131.63,290.55,1123.09,325.85Z"/></g><g class="cls-6"><path class="cls-7" d="M1075.37,602.07c-16.68-24.07-14.71-97.49-8.06-182.28C993.66,502.17,870.45,600.18,984,860.19c1.71,3.93,75.4,27.65,108.58,4.73,28.45-19.64,18.58-76.65,17.89-79.53C1084.08,675.65,1075.74,602.61,1075.37,602.07Z"/></g><g class="cls-8"><path d="M1104.67,770.3c-8.84-13.95-75.26-78-94.43-193.29-5.66-34,4.1-86.27,6.1-100-69,79-120.66,160.65-32.36,383.16,1.58,4,75.4,27.65,108.58,4.73,28.45-19.64,19-76.78,17.89-79.53C1098.85,755.92,1110.51,793.64,1104.67,770.3Z"/></g><path class="cls-9" d="M994.9,82.15c-51.07,33.3-101.51,98.69-75.29,138.89s137,32.39,188.05-.91,53.59-102.67,30.82-145.83C1116.08,31.85,1046,48.86,994.9,82.15Z"/><path class="cls-10" d="M988.22,68.69c-51.71,33.72-102.6,100.22-75.73,141.44s139.42,33.87,191.13.15,53.89-104.57,30.5-148.78C1111.11,18,1039.94,35,988.22,68.69Z"/><path d="M1113.91,66.12c-33.78-10-48-6.8-70.65-5.38-24.54,1.53-31.14-.05-38.21-11.26-3.12-5.23.2-16.52,1.77-18.58,10.44-13.67,14.23-14.23,23.08-22.29,10.08-9.16,26.64-11.33,36.9-5,12.45,7.72,40.59-2.52,49.23,6.29,4.9,4.85,25.39,11.17,27.86,15,3.62,5.58,5.35,8.1,5.31,11.09C1148.14,111.33,1149.68,76.72,1113.91,66.12Z"/><path d="M929,135.66c-15.78,23.89-17.16,33.24-21.1,50.89-4.26,19.13-10.43,27.54-21.18,30.71-5,1.34-13.46-3.48-14.79-5.1-8.83-10.77-8.43-13.79-13-22.21-5.23-9.57-3.27-22.71,4.24-29.3,9.1-8,7.07-31.63,16.21-36.49,5.07-2.77,14.84-17.22,18.51-18.34,5.38-1.66,7.86-1.08,10.26-1.84C940.28,93.8,945.69,110.36,929,135.66Z"/><path d="M975.07,455.08c10.93-3,52.25-57.36,30.17-151.06-4.66-19.79,3.58-55.44-7.06-72-3.13-4.85-17.94-18-25.62-16.74-25,4-11.3-3.24-24.82,12.29-4.14,4.76-.32,22.34,2,26.54,17.34,31.46,30,60.14,23,83.71.09,18.94,4.54,33.76.46,49.84-5.55,21.84-20,31.51-5.57,63.67C969.65,455.86,971,456.2,975.07,455.08Z"/><path d="M1042.36,426.17c5.26-13.83-3.51-45.68,33.22-122.25,10.42-21.71.8-57.26-10.27-73.67-3.25-4.81-19.71-22-27.7-20.79-26,4-10,5.51-24,20.93-4.31,4.73,3.27,22.45,1.49,26.73-14.42,34.5,9.63,51.45,15.65,77.1,4.09,17.41-5.41,41.53-9.66,57.5-5.76,21.68-17.34,20.19-2.41,52.12C1020.75,448.3,1041.15,429.36,1042.36,426.17Z"/><path d="M1109.25,391.88c4.35-13.83.18-30.47,32.66-104.45,8-18.14.21-58.71-8.93-75.12-2.69-4.82-21-25.19-27.61-24-21.52,4-9.83,5.63-21.44,21.05-3.56,4.72-7.21,16-8.69,20.24-11.92,34.5,11.78,58.63,16.77,84.28,3.37,17.4-5.92,22.11-9.43,38.08-4.76,21.69-5,19,7.31,50.93C1091.61,407.39,1108.25,395.07,1109.25,391.88Z"/><path d="M1187.78,259.35c-7.68-13.29,7.36-99.22-7.68-110-4.42-3.16-38.63-18.11-43.82-14.15-16.93,12.9-7.54,12-10.93,30.89-1,5.79,7.77,22.36,8.35,26.84,4.61,36.14,14.8,46.33,28.47,70.3,8.72,15.31-13.84,38.72-10,54.58C1157.47,339.34,1242.56,354.05,1187.78,259.35Z"/><path class="cls-11" d="M1114.12,62.87c-31.91-9.31-47.12-6.8-68.5-5.48-23.17,1.43-29.92,2.45-36.61-8-3-4.86.19-15.35,1.67-17.26,9.87-12.7,13.45-13.22,21.81-20.71,9.51-8.52,25.16-10.53,34.85-4.62,11.76,7.17,38.33-2.34,46.5,5.84,4.62,4.51,24,10.38,26.31,13.92,3.42,5.19,5,7.54,5,10.31C1144.16,106.91,1147.91,72.72,1114.12,62.87Z"/><path class="cls-11" d="M924.71,138.49c-14.91,22.2-16.24,34.19-20,50.59-4,17.78-4.69,23.08-14.85,26-4.7,1.25-12.71-3.23-14-4.74-8.34-10-8-12.81-12.31-20.63-4.94-8.9-3.09-21.11,4-27.23,8.6-7.43,6.68-29.41,15.32-33.92,4.78-2.58,14-16,17.48-17.05,5.08-1.54,7.43-1,9.68-1.7C940.53,100.36,940.49,115,924.71,138.49Z"/><path d="M1097.24,130.74a24,24,0,0,1-10.42,13.19c-7.83,4.84-18.2,5.76-27,4.62-14-1.83-19.39-22.69-15.17-32.41S1075,76.37,1086.38,88.4c3.86,4.09,1.86,11.75,5.74,14.46C1100.39,108.61,1100.9,119.67,1097.24,130.74Z"/><path d="M979,88.52c-3.86,2.3-.58.35-18.05,14.17-6.29,5-3.71,6.88-3,14.66,1,12.42,20.3,13,29.39,7.92,3.35-1.86,11-3.09,11.38-8,1.14-15,22.35-42.51,14.83-40.69-6.58,1.59-8.82,2.2-13.09,2C988.65,78.12,986,84.31,979,88.52Z"/><path d="M1020.41,146.55c-3.82,5-6.1,14.16-11,12.43s-3.73-12.73-3.34-16.63,11.23-14.09,11.5-9C1018.3,146.73,1023.62,142.37,1020.41,146.55Z"/><path d="M986.56,137.68c-2.54,5.44-7.8,9-4.27,12.1s13.37-5.88,16.48-8.05,6-13,1.61-10.77C988.81,136.77,988.71,133.09,986.56,137.68Z"/><path d="M948.54,145.66c3.64,1.11,15.16,5.35,13.86,14.68a2.3,2.3,0,0,1-.78,1.43c-1.4,1.23-4.75,4.45-5.46,7.86a3.12,3.12,0,0,0,0,.52c0,2,.53,14.66,4.82,17.17a2.16,2.16,0,0,0,1.24.3c2.47-.09,13.35-.29,16.83,2.94a2.34,2.34,0,0,0,2.58.36c3-1.43,9.39-4.07,14.11-3.51a2.43,2.43,0,0,0,2.12-.86c1.61-2,5.16-5.69,7.67-4.43,0,0,9.06,3.56,13.07,1.28a2.15,2.15,0,0,1,1.25-.27,12,12,0,0,0,7.36-2.13,2.43,2.43,0,0,1,1.76-.37c2.63.5,9.8,1.82,11.46,1.67,0,0,5.34-.62,8.3.07a2.34,2.34,0,0,1,1.78,1.91c.23,1.5.4,4-.73,5.38a2.42,2.42,0,0,0-.34,2.43c.75,1.93,1.18,5.22-2.89,7.68a2.35,2.35,0,0,1-1.24.35c-3.11,0-16.6-.23-16.76-2,0,0-.56-7.43-1.67-7.8,0,0-3.45-1.37-3.21,6A2.31,2.31,0,0,1,1023,198c-1.41,1.46-5.1,4.33-11.94,3.64a12.4,12.4,0,0,1-8.46-3.86,2.36,2.36,0,0,0-3.44-.07c-2,2-4.55,5.47-3.71,9.18a2.3,2.3,0,0,1-.87,2.34c-2.86,2.17-10.14,6.2-18.43-.95a2.46,2.46,0,0,1-.38-.41,3.61,3.61,0,0,1-.17-4.5s-4,11.11-14.6,7.26a3,3,0,0,0-.43-.12c-1.79-.28-14.14-2.71-8.54-14.63h0a2.35,2.35,0,0,0-2.53-3.21c-3.68.55-8.14.71-9-1.52a2.31,2.31,0,0,0-.53-.84c-2-1.93-10.65-11-.36-17.74a2.35,2.35,0,0,0,.58-3.41c-3.13-4-7.82-13.49,6.38-23.16A2.39,2.39,0,0,1,948.54,145.66Z"/><path class="cls-12" d="M949.06,151.94s11,7.9,4.83,12c0,0-6.13,8.72-10.4,0C943.49,163.93,942.75,152.2,949.06,151.94Z"/><path class="cls-12" d="M949.61,175.43s4.65,8.91.75,10.21c0,0-9.65,4.09-5.94-5.1C944.42,180.54,948.66,173.35,949.61,175.43Z"/><path class="cls-12" d="M959.46,197.15c1.09-1,8-7.86,14.47-3.46,0,0-5.94,5.13-5.19,6.43,0,0,.74,7.36-5.57,5.45C963.17,205.57,951.85,204.2,959.46,197.15Z"/><path class="cls-12" d="M987.67,197c.7-.62,3.05-5.08,5-3.28,0,0,1.62,10.68,0,12.46,0,0-5.26,4.37-7.52,3.07C985.11,209.22,976.53,206.8,987.67,197Z"/><path class="cls-12" d="M1006.61,189.36c.75-1.05,10.46-4.65,12.46,0,0,0-2.83,9.83-9.41,8.16C1009.66,197.52,1000.49,197.89,1006.61,189.36Z"/><path class="cls-12" d="M1032,185.46a11,11,0,0,1,10,1.58s4.64,7,1.11,7.88-12.62,4.11-12.44-1.66S1032,185.46,1032,185.46Z"/><path class="cls-13" d="M1115,111.81c.85,1.77-.36,4-.94,7-.19.94,1.54,3.31,2.35,3.83,3.09,2,9,5.43,8.11,9.72,0,.2-1.42,4.48-1.55,4.64-1.61,1.91-6.32,9.63-10.46,10.08-.16,0-3.93,2.19-4.08,2.23-1.74.46-7.18,3.28-7.28,8.77a2.76,2.76,0,0,1-.39,1.46,23.36,23.36,0,0,0,.74,4.12c.87,1.92-3.16,0-4.39-1.24-2-2-2.05-2.28-2.81-10.36,0-.21.22-.36.36-.52,1.46-1.63,10.22-11.06,19.27-13.08a1.87,1.87,0,0,0,.4-.13c1.47-.64,10-4.84-.4-12.82a2.29,2.29,0,0,0-.76-.39c-2.15-.64-11.85-5.62-1.9-15.35C1112.46,108.62,1114.35,110.37,1115,111.81Z"/><path class="cls-11" d="M975.63,451.4c7.88-2.81,54.72-65.5,24.64-146.2-6.31-16.94,4.33-55.52-3.34-70.77-2.25-4.47-15.06-17.58-20.59-16.44-18.05,3.72-17.56-4.2-27.3,10.13-3,4.4-.14,20.18,1.74,23.9,14.48,28.67,29.73,58.21,24.71,80-3.7,16,3.94,35,1,49.83-4,20.15-17,36.8-6.64,66.48C971.3,452.43,972.72,452.44,975.63,451.4Z"/><path class="cls-11" d="M1041.23,422.3c3.64-12.85-3.06-44.27,27.19-112,7.37-16.5,4.33-55.51-3.34-70.76-2.25-4.48-21.35-29.44-26.89-28.3-18,3.72-11.27,7.66-21,22-3,4.39,3,19.92,1.74,23.89-10,32.07,12.28,55.41,16.45,79.25,2.84,16.17-6,39.05-8.91,53.89-4,20.15-12,18.77-1.67,48.45C1026.25,442.87,1040.39,425.27,1041.23,422.3Z"/><path class="cls-11" d="M1104.66,387.18c3.64-12.85,1.67-29.61,31.92-97.32,7.37-16.5,4.33-55.51-3.34-70.76-2.25-4.48-21.35-29.44-26.89-28.3-18,3.72-11.27,7.66-21,22-3,4.39-3.43,19.38-4.67,23.36-10,32.06,13.12,55.36,17.29,79.2,2.84,16.18-8.19,19.68-11.13,34.52-4,20.16-4.24,17.66,6.12,47.34C1094.41,401.35,1103.81,390.15,1104.66,387.18Z"/><path class="cls-11" d="M1184,261.13c-7.18-12.38,3.19-99.83-10.42-110.13-4-3-32.15-17-36.61-13.54-14.55,11.3-6.73,11.84-9.15,29-.74,5.26,5.47,18.91,6.11,23,5.17,33.19,17.43,52.09,31.7,71.65,9.67,13.27-12.82,40.11-8.91,54.73C1162,335.71,1235.22,349.4,1184,261.13Z"/><path d="M1206.09,244.31c-8.68-13.8-3-41.84-7.73-59.42-7.25-26.88-2.32-44.11-57.54-54.8-3.83-.74.13-2.59-7.92-20.17-8.13-17.77.08-25.49-.62-28.58-1.33-5.89,36.59-18.44,41.89-17,8.37,2.22,36.68,8.22,43.68,32.45,8.1,28,11.08,67.79,13.93,75.73C1264.29,263.09,1217.89,263.05,1206.09,244.31Z"/><path class="cls-11" d="M1226.09,171.28c-2.81-7.14-1.85-44.32-10-69.36C1209,80.26,1185.67,75,1178.2,72.4c-4.73-1.66-38.23,1.59-41.43,6.25-10.42,15.2-2.8,13.34.12,30.41.9,5.24,8.74,19.33,12.84,20.07,49.63,9,44.62,34.6,52,58.59,4.84,15.69,0,42.11,8.18,54.84C1221,259.85,1258.11,252.83,1226.09,171.28Z"/><path d="M995.17,72.8c-23.73,11.26-30,20.86-41.2,32.92-12.18,13.06-17.05,16.27-27.26,13.58C922,118,917.32,110,917,108.11c-2.3-12.78-.6-15-.52-23.85.09-10.1,7.67-19.55,16.78-21.13,11.06-1.91,20.16-21.6,29.82-21,5.4.25,19.94-6.45,23.44-5.57,5.14,1.29,6.91,3,9.2,3.51C1026.58,47.57,1020.31,60.87,995.17,72.8Z"/><path class="cls-11" d="M993.31,71.6C971.38,82.22,964.83,91,954.37,102.24c-11.34,12.14-14.3,16-23.64,13.66-4.27-1.18-8.5-8.38-8.79-10.14-2-11.7-.37-13.74-.19-21.89.21-9.27,7.28-18,15.67-19.59,10.17-1.9,18.76-20.07,27.62-19.66,5,.17,18.38-6.15,21.58-5.39,4.7,1.13,6.3,2.63,8.4,3.11C1023.27,48.86,1016.52,60.35,993.31,71.6Z"/><path d="M915.31,428.68c-13.62-3.46-88.13-149.09-22.9-241.4,3.23-4.59,14-7.65,22-6.48,25.94,3.81,13.49,19.72,33.38,31.51,5.35,3.17-1.47,8.15-4.17,11.95-20.81,29.35-35.27,59.89-28.05,82.16,5.31,16.39-5.67,35.82-1.44,51,5.74,20.63,24.43,37.67,9.54,68.05C921.54,429.73,919.49,429.74,915.31,428.68Z"/><path class="cls-4" d="M1134.15,681.87c-6.38-2.49-1.33-50.63,5.09-76.82,7.67-31.31,10.59-58.38,2.2-95a24,24,0,0,1,0-10.9c5.92-25,2.19-46.3-9.73-63.46-1.83-2.64-1.13-4.73,1.35-6.76a136.25,136.25,0,0,1,18.76-13.16c2.81-1.54,4.26-1.72,6.86.87,31.86,31.75,25.92,56.81,15.89,96.35-6.74,26.58,17.45,66.45-.94,87.58-22.45,25.77-4.07,37.34-29.13,74.83C1142.61,678.27,1137.1,683,1134.15,681.87Z"/><path class="cls-11" d="M909.87,418.38c-10.5-3.21-67.94-138.56-17.66-224.36,2.5-4.26,17.72-10.09,23.86-9,20,3.54,15.66,17.27,26.45,30.9,3.31,4.19-3,9.22-5.1,12.76-16,27.27-32.95,55.38-27.39,76.08,4.1,15.22-4.37,33.29-1.11,47.41,4.43,19.17,18.84,35,7.36,63.25C914.68,419.36,913.1,419.37,909.87,418.38Z"/><path class="cls-14" d="M1067.84,221.93a277.91,277.91,0,0,1-24.26-37.19c-8.92-16.6-16.25-34.1-23.1-51.65-5.4-13.86-10.21-27.94-14.92-42-2.33-7-4.66-13.92-7-20.86q-3.37,2-6.65,4.17c-51.71,33.72-102.61,100.22-75.73,141.44,22.13,34,102.36,35,158.87,15.41Q1071.4,226.6,1067.84,221.93Z"/><g class="cls-15"><path d="M929,135.66c-15.78,23.89-17.16,33.24-21.1,50.89-4.26,19.13-10.43,27.54-21.18,30.71-5,1.34-13.46-3.48-14.79-5.1-8.83-10.77-8.43-13.79-13-22.21-5.23-9.57-3.27-22.71,4.24-29.3,9.1-8,7.07-31.63,16.21-36.49,5.07-2.77,14.84-17.22,18.51-18.34,5.38-1.66,7.86-1.08,10.26-1.84C940.28,93.8,945.69,110.36,929,135.66Z"/></g><g class="cls-15"><path d="M975.07,455.08c10.93-3,52.25-57.36,30.17-151.06-4.66-19.79,3.58-55.44-7.06-72-3.13-4.85-17.94-18-25.62-16.74-25,4-11.3-3.24-24.82,12.29-4.14,4.76-.32,22.34,2,26.54,17.34,31.46,30,60.14,23,83.71.09,18.94,4.54,33.76.46,49.84-5.55,21.84-20,31.51-5.57,63.67C969.65,455.86,971,456.2,975.07,455.08Z"/></g><g class="cls-15"><path d="M1042.36,426.17c5.26-13.83-3.51-45.68,33.22-122.25,10.42-21.71.8-57.26-10.27-73.67-3.25-4.81-19.71-22-27.7-20.79-26,4-10,5.51-24,20.93-4.31,4.73,3.27,22.45,1.49,26.73-14.42,34.5,9.63,51.45,15.65,77.1,4.09,17.41-5.41,41.53-9.66,57.5-5.76,21.68-17.34,20.19-2.41,52.12C1020.75,448.3,1041.15,429.36,1042.36,426.17Z"/></g><g class="cls-15"><path d="M1133.87,292.73c-11.57-10.21-22.61-21-33.11-32.34-9-9.71-17.5-19.82-25.71-30.17-11.45,34.19,12,58.19,17,83.7,3.37,17.4-5.92,22.11-9.43,38.08-4.76,21.69-5,19,7.31,50.93,1.72,4.46,18.36-7.86,19.36-11.05,4.17-13.25.52-29.1,28.8-95.52Q1136,294.56,1133.87,292.73Z"/></g><g class="cls-15"><path d="M924.71,138.49c-14.91,22.2-16.24,34.19-20,50.59-4,17.78-4.69,23.08-14.85,26-4.7,1.25-12.71-3.23-14-4.74-8.34-10-8-12.81-12.31-20.63-4.94-8.9-3.09-21.11,4-27.23,8.6-7.43,6.68-29.41,15.32-33.92,4.78-2.58,14-16,17.48-17.05,5.08-1.54,7.43-1,9.68-1.7C940.53,100.36,940.49,115,924.71,138.49Z"/></g><g class="cls-15"><path d="M1001.91,85.38q-1.12-3.39-2.27-6.78c-11.1-.21-13.75,5.8-20.67,9.92-3.86,2.3-.58.35-18.05,14.17-6.29,5-3.71,6.88-3,14.66,1,12.42,20.3,13,29.39,7.92,3.35-1.86,11-3.09,11.38-8,.43-5.66,3.73-13.11,7.26-20.1Q1003.89,91.3,1001.91,85.38Z"/></g><g class="cls-15"><path d="M1020.41,146.55c-3.82,5-6.1,14.16-11,12.43s-3.73-12.73-3.34-16.63,11.23-14.09,11.5-9C1018.3,146.73,1023.62,142.37,1020.41,146.55Z"/></g><g class="cls-15"><path d="M986.56,137.68c-2.54,5.44-7.8,9-4.27,12.1s13.37-5.88,16.48-8.05,6-13,1.61-10.77C988.81,136.77,988.71,133.09,986.56,137.68Z"/></g><g class="cls-15"><path d="M1041.63,182.19l-1.24.11c-1.66.15-8.83-1.17-11.46-1.67a2.43,2.43,0,0,0-1.76.37,12,12,0,0,1-7.36,2.13,2.15,2.15,0,0,0-1.25.27c-4,2.28-13.07-1.28-13.07-1.28-2.51-1.26-6.06,2.48-7.67,4.43a2.43,2.43,0,0,1-2.12.86c-4.72-.56-11.1,2.08-14.11,3.51a2.34,2.34,0,0,1-2.58-.36c-3.48-3.23-14.36-3-16.83-2.94a2.16,2.16,0,0,1-1.24-.3c-4.29-2.51-4.77-15.16-4.82-17.17a3.12,3.12,0,0,1,0-.52c.71-3.41,4.06-6.63,5.46-7.86a2.3,2.3,0,0,0,.78-1.43c1.3-9.33-10.22-13.57-13.86-14.68a2.39,2.39,0,0,0-2,.31c-14.2,9.67-9.51,19.12-6.38,23.16a2.35,2.35,0,0,1-.58,3.41c-10.29,6.74-1.68,15.81.36,17.74a2.31,2.31,0,0,1,.53.84c.9,2.23,5.36,2.07,9,1.52a2.35,2.35,0,0,1,2.53,3.21h0c-5.6,11.92,6.75,14.35,8.54,14.63a3,3,0,0,1,.43.12c8.13,2.94,12.37-2.87,13.91-5.76a4.16,4.16,0,0,0,.86,3,2.46,2.46,0,0,0,.38.41c8.29,7.15,15.57,3.12,18.43.95a2.3,2.3,0,0,0,.87-2.34c-.84-3.71,1.73-7.16,3.71-9.18a2.36,2.36,0,0,1,3.44.07,12.4,12.4,0,0,0,8.46,3.86c6.84.69,10.53-2.18,11.94-3.64a2.31,2.31,0,0,0,.63-1.71c-.24-7.35,3.21-6,3.21-6,1.11.37,1.67,7.8,1.67,7.8.16,1.81,13.65,2,16.76,2a2.35,2.35,0,0,0,1.24-.35,6.41,6.41,0,0,0,3.25-4Q1045.49,189.11,1041.63,182.19Z"/><path d="M949.06,151.94s11,7.9,4.83,12c0,0-6.13,8.72-10.4,0C943.49,163.93,942.75,152.2,949.06,151.94Z"/><path d="M949.61,175.43s4.65,8.91.75,10.21c0,0-9.65,4.09-5.94-5.1C944.42,180.54,948.66,173.35,949.61,175.43Z"/><path class="cls-16" d="M959.46,197.15c1.09-1,8-7.86,14.47-3.46,0,0-5.94,5.13-5.19,6.43,0,0,.74,7.36-5.57,5.45C963.17,205.57,951.85,204.2,959.46,197.15Z"/><path d="M987.67,197c.7-.62,3.05-5.08,5-3.28,0,0,1.62,10.68,0,12.46,0,0-5.26,4.37-7.52,3.07C985.11,209.22,976.53,206.8,987.67,197Z"/><path d="M1006.61,189.36c.75-1.05,10.46-4.65,12.46,0,0,0-2.83,9.83-9.41,8.16C1009.66,197.52,1000.49,197.89,1006.61,189.36Z"/><path d="M1032,185.46a11,11,0,0,1,10,1.58s4.64,7,1.11,7.88-12.62,4.11-12.44-1.66S1032,185.46,1032,185.46Z"/></g><g class="cls-15"><path d="M975.63,451.4c7.88-2.81,54.72-65.5,24.64-146.2-6.31-16.94,4.33-55.52-3.34-70.77-2.25-4.47-15.06-17.58-20.59-16.44-18.05,3.72-17.56-4.2-27.3,10.13-3,4.4-.14,20.18,1.74,23.9,14.48,28.67,29.73,58.21,24.71,80-3.7,16,3.94,35,1,49.83-4,20.15-17,36.8-6.64,66.48C971.3,452.43,972.72,452.44,975.63,451.4Z"/></g><g class="cls-15"><path d="M1041.23,422.3c3.64-12.85-3.06-44.27,27.19-112,7.37-16.5,4.33-55.51-3.34-70.76-2.25-4.48-21.35-29.44-26.89-28.3-18,3.72-11.27,7.66-21,22-3,4.39,3,19.92,1.74,23.89-10,32.07,12.28,55.41,16.45,79.25,2.84,16.17-6,39.05-8.91,53.89-4,20.15-12,18.77-1.67,48.45C1026.25,442.87,1040.39,425.27,1041.23,422.3Z"/></g><g class="cls-15"><path d="M1133.87,292.73c-11.57-10.21-22.61-21-33.11-32.34-7.06-7.6-13.78-15.44-20.31-23.46-9.38,31.67,13.38,54.77,17.52,78.42,2.84,16.18-8.19,19.68-11.13,34.52-4,20.16-4.24,17.66,6.12,47.34,1.45,4.14,10.85-7.06,11.7-10,3.57-12.6,1.74-29,30.25-93.55Z"/></g><g class="cls-15"><path d="M987.93,44.91c-1-2.79-2-5.58-3-8.39-5.07.55-17.1,5.82-21.9,5.6-9.66-.59-18.76,19.1-29.82,21-9.11,1.58-16.69,11-16.78,21.13-.08,8.88-1.78,11.07.52,23.85.34,1.93,5.06,9.84,9.73,11.19,10.21,2.69,15.08-.52,27.26-13.58,11.23-12.06,17.47-21.66,41.2-32.92l2.17-1C994.3,62.77,991.2,53.81,987.93,44.91Z"/></g><g class="cls-15"><path d="M987.93,44.91q-1-2.86-2.07-5.74c-4.17.1-16.19,5.61-20.82,5.45-8.86-.41-17.45,17.76-27.62,19.66C929,65.84,922,74.6,921.75,83.87c-.18,8.15-1.77,10.19.19,21.89.29,1.76,4.52,9,8.79,10.14,9.34,2.35,12.3-1.52,23.64-13.66,10.46-11.2,17-20,38.94-30.64,1.17-.57,2.31-1.14,3.4-1.71C993.87,61.53,991,53.2,987.93,44.91Z"/></g><g class="cls-15"><path d="M915.31,428.68c-13.62-3.46-88.13-149.09-22.9-241.4,3.23-4.59,14-7.65,22-6.48,25.94,3.81,13.49,19.72,33.38,31.51,5.35,3.17-1.47,8.15-4.17,11.95-20.81,29.35-35.27,59.89-28.05,82.16,5.31,16.39-5.67,35.82-1.44,51,5.74,20.63,24.43,37.67,9.54,68.05C921.54,429.73,919.49,429.74,915.31,428.68Z"/></g><g class="cls-15"><path d="M909.87,418.38c-10.5-3.21-67.94-138.56-17.66-224.36,2.5-4.26,17.72-10.09,23.86-9,20,3.54,15.66,17.27,26.45,30.9,3.31,4.19-3,9.22-5.1,12.76-16,27.27-32.95,55.38-27.39,76.08,4.1,15.22-4.37,33.29-1.11,47.41,4.43,19.17,18.84,35,7.36,63.25C914.68,419.36,913.1,419.37,909.87,418.38Z"/></g></g></svg>