<svg xmlns="http://www.w3.org/2000/svg" width="817.97" height="572.38" viewBox="0 0 817.97 572.38"><defs><style>.cls-1{fill:#a52323;}.cls-2{fill:#cc2f2f;}.cls-3{fill:#451c54;opacity:0.6;}.cls-4{fill:#727051;}.cls-5{fill:#070705;}.cls-6{fill:#d6d061;}.cls-7{opacity:0.2;}.cls-8{opacity:0.3;}.cls-9{fill:#050505;}.cls-10,.cls-15{opacity:0.5;}.cls-11{fill:#070706;}.cls-12{fill:#acc642;}.cls-13{fill:#9422af;}.cls-14{fill:#d3d6bd;}.cls-16,.cls-17{opacity:0.1;}.cls-18{fill:#c1d687;}</style></defs><g id="Layer_3" data-name="Layer 3"><path d="M84.31,164.54a8.3,8.3,0,0,1-.84,3.68,27.65,27.65,0,0,1-1.94,3.29c-.66,1-1.42,2-1.93,3.05a4.75,4.75,0,0,0-.85,2.74,6.06,6.06,0,0,0,1.72,3.3A8.09,8.09,0,0,1,82.13,185,5.29,5.29,0,0,1,81,188.76a3.24,3.24,0,0,1-2.44,1.13,3.39,3.39,0,0,1-3.07-1.68,17.5,17.5,0,0,1-1.83-3.74c-.46-1.16-.9-2.79-1.21-3.71S72,179.09,71.16,179s-1.14,1.39-1.33,2-.75,2.1-1.55,2c-2.82-.26-3.31-2-3.44-4.65a32.73,32.73,0,0,1,.35-4.72,26.52,26.52,0,0,0,.33-4.95c-.1-1.12-.24-2.08-1.75-1.91-2.39.28-2.65,3.59-2.6,5.86a31.89,31.89,0,0,0,.46,4.8,19.52,19.52,0,0,1,.49,2.78c.17,3.18-.7,6.71-2.68,8.41a8.58,8.58,0,0,1-5.3,2.19,3,3,0,0,1-2.21-.72A3.85,3.85,0,0,1,50.48,188c-.55-2.42-1.58-5.69-3.35-7a7,7,0,0,0-4.27-1.56,9,9,0,0,0-2.21.24,17.68,17.68,0,0,0-2.89.72A7.42,7.42,0,0,0,35.22,182a3.85,3.85,0,0,0-1.1,2.54c0,3.83-.15,9.63-.24,12.79s-.64,5.57-3.09,5.86c-3.07.36-3.42-1.91-3.74-4.3a19.65,19.65,0,0,1,.12-2c0-.43.1-2,.11-2.26.19-3.69-.22-10.08-1.23-12.73s-1.41-2.8-3.11-3.32c-1.22-.37-1.54.76-2.24,1.41s-1.24,1.51-2.46,1.41A5.25,5.25,0,0,1,15,180.13a4.9,4.9,0,0,1-1.55-3.9,15.28,15.28,0,0,1,.94-4.39,11.91,11.91,0,0,0,1-3.24c-.05-1.59-.7-1.65-2-1.79-.47-.06-.92.41-1.21,1s-.8,1.51-1.2,2.16a20.85,20.85,0,0,1-1.45,2.16c-.46.56-1,1.09-1.7,1-1.4-.25-1.92-.45-1.94-2.3a25.69,25.69,0,0,1,.73-4.65,33.52,33.52,0,0,0,.7-7,29.92,29.92,0,0,0-1.45-7.31,26.37,26.37,0,0,1-1.45-7.13,8.46,8.46,0,0,1,.6-3.09,9.53,9.53,0,0,0,.6-3.08,21.67,21.67,0,0,0-.24-2.67c-.13-.91-.3-2.35-.36-3.24s-.24-2.15-.36-2.75-.24-1.26-.25-1.48c0-1.3.06-2.61.12-3.68s.12-2.61.12-3.37a14,14,0,0,0-.72-4.77,23.63,23.63,0,0,0-1.59-3.34c-.58-1.12-1.09-1.8-1.59-3A8.14,8.14,0,0,1,0,106.53a11.94,11.94,0,0,1,2-6.22,13,13,0,0,0,1.93-7c0-.93-.07-3.1-.11-4s-.12-2.66-.12-3.11a40.15,40.15,0,0,1,.48-5.65,47,47,0,0,0,.48-4.79,10.42,10.42,0,0,0-.48-3.94,11.73,11.73,0,0,1-.48-4.13A15.88,15.88,0,0,1,4,65.3c.2-.86.5-2.38.72-3.48s.5-2.46.73-3.63a18.65,18.65,0,0,0,.37-3.33c.1-3.21-.17-6.38,0-9.77s.85-8.31,1.29-11.5a20.27,20.27,0,0,1,2.34-7.77,15.6,15.6,0,0,1,5-5.45c2.37-1.81,5.92-3.28,8.92-4.48,1.9-.75,4.29-1.85,6-2.77a49.83,49.83,0,0,1,4.69-2.33,22.92,22.92,0,0,1,5.08-1.6,33.59,33.59,0,0,1,7.16-.59c5.47.16,11.54,1.06,16.42,3.66a35,35,0,0,1,11.86,9.79A40.3,40.3,0,0,1,81.73,36.1,59.08,59.08,0,0,1,84,53a52.38,52.38,0,0,1-1.23,7.44,70,70,0,0,0-1.16,12.62c0,1.11.12,4,.23,5.79s.29,4.94.23,6.94a8.75,8.75,0,0,1-.51,3.45c-.49,1.14-1.53,1.51-3,1.42a2.19,2.19,0,0,1-1.89-2,19,19,0,0,1-.47-3.92,23.41,23.41,0,0,1,.38-3.1,25.93,25.93,0,0,0,.33-5.2,3,3,0,0,0-3.4-3.07A2.35,2.35,0,0,0,71.29,75a14.54,14.54,0,0,0-.85,3.63c-.12,1.17-.45,2.6-.59,3.62a1.84,1.84,0,0,1-1.53,1.6,5.59,5.59,0,0,1-3.78-.79,2.19,2.19,0,0,1-.91-1.88,11.12,11.12,0,0,1,.47-2.88,22.65,22.65,0,0,0,.47-2.85A5.6,5.6,0,0,0,63,71.26a28.62,28.62,0,0,0-3.42-2.73,17.19,17.19,0,0,1-3.43-3,7.18,7.18,0,0,1-1.55-4.92,23.87,23.87,0,0,1,1-5.37,27.39,27.39,0,0,0,1-5.35,19.85,19.85,0,0,0-.82-6.23,11,11,0,0,0-1.92-3.58,4.19,4.19,0,0,0-2.17-1.5A4.34,4.34,0,0,0,50,38.34c-2.1.18-3.52.34-3.7,2.74a17.6,17.6,0,0,0,.72,4.22,28.11,28.11,0,0,1,.71,4.9,26.07,26.07,0,0,1-.84,6.43c-.49,1.82-1.17,2.89-2.78,3.09a3.36,3.36,0,0,1-2.35-.6,2.33,2.33,0,0,1-1.08-2.33A11.93,11.93,0,0,1,41.43,53a13.38,13.38,0,0,0,.73-3.62,4.32,4.32,0,0,0-.81-2.78c-.49-.56-.89-.9-1.35-.89A2.87,2.87,0,0,0,37.63,47a11.55,11.55,0,0,0-1.81,3.39,39.18,39.18,0,0,0-1.21,4.21,20.58,20.58,0,0,0-.49,3.85c0,2.16.08,4.57.23,6.31A37.32,37.32,0,0,0,35,69c.24,1.31.48,2,.73,3.1a11.28,11.28,0,0,1,.36,3.09,12.89,12.89,0,0,1-2.42,6.92A11.71,11.71,0,0,0,31.21,89a30.6,30.6,0,0,0,.37,3.2c.2,1.39.56,4.23.84,6.35s.63,5.6.84,7.92.34,5.86.36,7.81a53,53,0,0,1-.81,10,34.1,34.1,0,0,0-.88,5.35,10.38,10.38,0,0,0,.5,4.45c.51,1.86,1.15,3.71,1.69,5.73.43,1.58.82,3.63,1.1,5.31a18.85,18.85,0,0,0,1.23,4.86,6.85,6.85,0,0,0,2.75,3.56,8.48,8.48,0,0,0,5.52,1.29,9.23,9.23,0,0,0,7.09-4.06,16.22,16.22,0,0,0,3-9.37,16.6,16.6,0,0,0-1.07-4.8,14,14,0,0,1-1.09-4.38,9.41,9.41,0,0,1,.49-2.72,33.49,33.49,0,0,1,1.2-3.49c.41-1,.91-2.53,1.2-3.35A10.21,10.21,0,0,0,56,120.3a5.63,5.63,0,0,0-2.66-5.1,9.12,9.12,0,0,0-3.57-1.52,4,4,0,0,0-2.27.47,1.66,1.66,0,0,0-1.21,1.68,22.13,22.13,0,0,0,.71,5.59,24.15,24.15,0,0,1,.72,5.54c-.06,2.47-.58,4.58-3.15,4.62s-3-2-3.17-4.38c0-.4.08-1.9.12-2.62s.14-2.14.11-2.86A17.66,17.66,0,0,0,40,114.57a19.85,19.85,0,0,1-1.67-8.24,19.18,19.18,0,0,1,2.43-9.93c1.82-2.91,4.1-3.65,7.31-4a17.75,17.75,0,0,1,2.17.12,16.24,16.24,0,0,0,1.74.11,25.62,25.62,0,0,0,4.27-.73,25.4,25.4,0,0,1,4.91-.71,8.42,8.42,0,0,1,3.48.85c1.23.5,2.67,1.16,3.88,1.69s2.83,1.19,3.85,1.7a11.48,11.48,0,0,0,3.35.85c2.27.17,4.83-.27,6.48.9s1.29,2.31,1.41,4.39a31.65,31.65,0,0,1-1,6.93,33.77,33.77,0,0,0-1,6.83,19.7,19.7,0,0,0,.37,3.32c.21,1.24.51,2.94.72,4.35s.52,3.22.72,4.58a25.43,25.43,0,0,1,.37,3.8A91.94,91.94,0,0,1,83,142a86,86,0,0,0-.83,10.68,23.44,23.44,0,0,0,1.09,5.46A26,26,0,0,1,84.31,164.54Z"/><path d="M123.08,9.47c2-.16,3.76,1.28,5.77,2A24.6,24.6,0,0,0,135.91,13a20,20,0,0,0,8-1.54c2.26-1,4-1.7,6.12-1.58s3.22,0,4,2.28S155.14,17,156,20c.49,1.63,1.63,5.73,2.13,7.81.4,1.65.71,3.43,1,5a40.5,40.5,0,0,1,.71,4.53,23.06,23.06,0,0,1-.46,4.62,38.56,38.56,0,0,0-.48,4.81A117,117,0,0,0,160.42,65c.06.4.6,2.61,1.26,4.69s1.83,6.74,2.63,10.18,1.95,9,2.64,13a87.5,87.5,0,0,1,1.22,12.67,43.87,43.87,0,0,0,.84,8.79c.57,2.69,1.15,4.46,1.83,6.78s1.25,3.79,1.84,6.18a27.23,27.23,0,0,1,.86,6.84,76.54,76.54,0,0,0,.64,7.86,106.72,106.72,0,0,0,2.74,12.42c.9,3.24,2.05,8,2.89,10.79a63.15,63.15,0,0,1,1.73,7.11c.4,2.13.53,3.42.76,5.07a39.3,39.3,0,0,1,.24,4.74c0,4.71-1,9.58-6,10-3.16.25-3.61-1.61-4-4.06a12.3,12.3,0,0,1,.24-2.66,21,21,0,0,0,.23-2.64c-.07-1.64-.48-2.86-2.18-2.92-1.14-.05-1.66.66-2.08,1.69a17.07,17.07,0,0,0-.85,3.62c-.17,1.16-.35,2.57-.61,3.63s-.76,1.72-1.83,1.7-1.49-.73-2-1.71a25.3,25.3,0,0,1-1.21-3.72,33.26,33.26,0,0,0-1.08-3.71c-.37-.85-.66-2-1.6-1.66-1.5.49-1.44,2.69-1.45,4.4a30.36,30.36,0,0,0,.36,3.57,33.84,33.84,0,0,1,.36,4.27,6,6,0,0,1-.84,3.52,2.16,2.16,0,0,1-2.1,1.12c-1.38-.1-2-.74-2.68-2.23a18.88,18.88,0,0,1-1.33-5.35c-.24-2-.38-4.55-.49-6.77s0-4.49-.15-6.83a44.76,44.76,0,0,0-1.57-9,47.3,47.3,0,0,1-1.32-10.38,40.15,40.15,0,0,0-1.08-9.63c-.75-2.62-1.49-3.66-3.8-4-1.05-.16-1.49.76-2,1.71a22.55,22.55,0,0,0-1.21,3.72,19,19,0,0,1-1.33,3.73,2.59,2.59,0,0,1-2.31,1.71,3.58,3.58,0,0,1-2.59-1.34,33.38,33.38,0,0,1-2.65-3c-.75-.92-1.78-2.26-2.4-3s-1.14-1.38-1.84-1.36c-1.64,0-1.67,1.62-1.73,2.88a6.22,6.22,0,0,0,.71,3.55,5.49,5.49,0,0,1,.7,3.65c-.07.89-1.2,2-2.45,2.61a4,4,0,0,0-2.37,3.64,11.27,11.27,0,0,0,.85,3.64,13.87,13.87,0,0,1,.83,4.28c0,1.66-.2,3.11-1.43,3.93s-1.94.77-3.23,1.55a7.34,7.34,0,0,0-3.2,2.8c-1.11,1.72-1.45,4.91-1.4,7.48a33.17,33.17,0,0,1-.38,5.29,2.78,2.78,0,0,1-3,2.4,3.07,3.07,0,0,1-3.17-1.93,20.17,20.17,0,0,1-1.11-4.25c-.28-1.41-.48-3-.87-4.24s-.87-1.88-2.21-2a2.26,2.26,0,0,0-1.58,1,19.86,19.86,0,0,0-1.56,2,25.32,25.32,0,0,1-1.57,2,2.32,2.32,0,0,1-1.57,1c-2-.08-2.6-1.09-2.7-2.9a12.5,12.5,0,0,1,.24-3c.18-1.11.37-1.72.61-3.11a45.06,45.06,0,0,0,.61-4.57c.15-2,.22-4.42.24-7s-.06-6.38,0-9.39a39.55,39.55,0,0,1,.75-8.39c.81-3.91,1.12-5.88,2.28-11.07s3.77-15.7,5.19-21.52a27.16,27.16,0,0,0,1-6c0-1.15-.14-1.07-.61-1.92a3.49,3.49,0,0,1-.59-2.41,25,25,0,0,1,.62-4.62c.39-1.76,1.18-4,1.8-6a57.19,57.19,0,0,0,1.47-6.58c.41-2.39.55-3.85.88-6.84s.57-5.39,1.12-9.51,1.51-9.67,2.42-15.07c.58-3.46,1.23-9.59,1.56-14s.94-10.89,1.45-15.13a69.31,69.31,0,0,1,2.41-12.2C119.35,11.33,120.19,9.69,123.08,9.47ZM133.29,86.4c-1,0-1.48.71-1.95,1.85A32.5,32.5,0,0,0,130,92.61a45,45,0,0,0-.85,5.4c-.14,1.61-.22,3.71-.24,5.06a9.82,9.82,0,0,0,.7,4.05c.49,1.21.84,1.38,1,2.69.08.77-.45,1-.85,2.14s-1.12,2-.74,4.13,5,3,7.55,2.7c1.39-.16,4.39-.12,5.55-.94s1.54-1.08,1.65-2.25a10.21,10.21,0,0,0-.47-3.22,25.63,25.63,0,0,1-.47-4.55c0-2.88-.07-7.23-.11-9.57a41.8,41.8,0,0,0-.47-5.5,6.27,6.27,0,0,0-.71-2.39c-.28-.59-.42-.56-.63-.56-.87,0-1.05.51-1.24,1.33s-.32,2-.5,2.89a14.49,14.49,0,0,1-.73,2.9c-.36.82-.75,1.38-1.72,1.32s-1.35-.76-1.57-1.85a24.07,24.07,0,0,1-.36-4.07,30,30,0,0,0-.25-4.06C134.36,87.25,134.31,86.4,133.29,86.4Z"/><path d="M268.88,9.1A9.36,9.36,0,0,1,274,10.81a12.68,12.68,0,0,0,6.51,1.67,39.82,39.82,0,0,0,8.19-.83,25.84,25.84,0,0,1,5.73-.86,12,12,0,0,1,2.09.13,6.67,6.67,0,0,1,2.67.86A6.51,6.51,0,0,1,301.52,14a8.06,8.06,0,0,1,1,4.11,12.42,12.42,0,0,1-.24,2.31c-.18.82-.32,1.44-.49,2.48s-.35,1.89-.49,3.33a39.56,39.56,0,0,0-.22,5.13,17.11,17.11,0,0,0,.86,4.6c.54,1.62,1.28,3.9,1.94,5.8s1.42,4.41,1.93,6.4a26.64,26.64,0,0,1,.84,6.17,10.41,10.41,0,0,1-1,4.67c-.68,1.52-1.34,2.58-2.08,4.07a45.24,45.24,0,0,0-2.07,4.65,19.8,19.8,0,0,0-1,6.12c0,3.37-.11,7.65-.35,10.47a58.21,58.21,0,0,0-.37,6.39,22.25,22.25,0,0,0,.73,5.29c.44,2,1.1,4.19,1.69,6.18s1.25,4.37,1.69,6.29a27.3,27.3,0,0,1,.74,5.59,7.94,7.94,0,0,1-.6,3.32c-.4,1-.79,1.66-1.22,2.59s-.83,1.73-1.22,2.7a9.87,9.87,0,0,0-.6,3.38,70.9,70.9,0,0,0,.35,7.6c.24,2.15.53,3.73.85,5.53s.62,3,.86,4.69a26.08,26.08,0,0,1,.35,4.93,10,10,0,0,1-1.85,5.28,13.49,13.49,0,0,0-1.76,7.42,5.4,5.4,0,0,0,1.49,3.44c1.08,1.26,1.47,3.45,1.41,5.61,0,1.4-.13,3.91-.37,5.63a26.14,26.14,0,0,1-1.34,5.55,12.14,12.14,0,0,1-2.45,4.15,5,5,0,0,1-3.93,1.59,5.14,5.14,0,0,1-3-1.22,26.07,26.07,0,0,1-3-2.77c-.83-.92-2.11-2.07-2.87-2.77a4.69,4.69,0,0,0-2.41-1.23,2.85,2.85,0,0,0-2.72,1.06,3.16,3.16,0,0,0-.74,2.35,16.74,16.74,0,0,0,.6,2.67,33.7,33.7,0,0,1,.34,5.64c0,2.49,0,7,0,9.13a23.62,23.62,0,0,1-.35,4.92c-.28,1.28-.3,1.54-1,2s-.93.47-1.89.38c-1.74-.16-2.66-1.66-3.23-3.55a26.78,26.78,0,0,1-1.08-6.84,32.07,32.07,0,0,1,.71-6.49,30.3,30.3,0,0,0,.74-4.61,8.85,8.85,0,0,0-.92-4.17,33.82,33.82,0,0,1-2.32-5.78,17.39,17.39,0,0,1-.39-4.65,20.23,20.23,0,0,1,1.32-6.47,23.46,23.46,0,0,0,1.33-6.21,44.43,44.43,0,0,0-.45-7.54,20.22,20.22,0,0,0-1.1-4c-.44-1.31-.71-1.5-1.12-2.67a8.32,8.32,0,0,1-.48-3.33,64.76,64.76,0,0,1,1.59-13.18,70.63,70.63,0,0,0,1.57-14.64c0-1.71-.06-4.46-.12-6.53s-.28-5.31-.48-7.31a31.17,31.17,0,0,0-1.19-6c-.48-1.36-.88-2.84-2.08-2.59-1.93.39-1.9,1.27-2,4s-.25,7.35-.49,11.18a84.17,84.17,0,0,1-1.58,12.24c-.87,3.65-1.85,7.67-2.8,11.18s-1.82,7-2.55,10.36a50.41,50.41,0,0,0-1.12,9.65,32.07,32.07,0,0,1-1.1,7.81c-.69,2.56-1.58,5.13-2.42,7.54s-1.74,4.75-2.43,7.07a20.78,20.78,0,0,0-1.09,6.41,14.59,14.59,0,0,0,1,4.69,22.17,22.17,0,0,1,.93,6.79,17.37,17.37,0,0,1-1,5.4c-.64,1.59-1.53,2.81-3.41,2.77s-2.38-1.63-2.41-3.39a37.78,37.78,0,0,1,.34-5,30.53,30.53,0,0,0,.37-3.61c-.15-3.52-.44-6.41-4.16-6.94-.66-.09-1.39.49-2.08.84a4.79,4.79,0,0,1-2.53.82,2.2,2.2,0,0,1-2-1.37,11.63,11.63,0,0,1-1.08-3.39c-.22-1.23-.46-2.81-.61-4.1a29.78,29.78,0,0,1-.24-3.59c0-1.39.05-2.95.12-4.51s.22-4,.36-5.51.29-3.85.36-4.9.13-2.42.12-2.69a17.36,17.36,0,0,0-2-8.31,21.14,21.14,0,0,0-4-4.61,23.79,23.79,0,0,1-3.93-4.13c-1.31-1.92-1.67-4.12-1.68-6.86,0-1.73.1-4.51.24-6.62s.39-5.27.6-7.33.51-4.8.72-6.37a37.35,37.35,0,0,0,.37-4c0-1.85,0-2.73-.75-4s-2.17-1.09-3.38-1.28a9.36,9.36,0,0,0-3.17,2,9.16,9.16,0,0,0-2.09,3.48,18.5,18.5,0,0,0-.83,6.07c0,.53.05,1.79.12,2.66s.22,2.48.36,3.47.29,2.52.36,3.36.13,1.8.12,2.31c0,2.39-.07,4.67-.24,6.88s-.2,5.6-.24,7.49a127.37,127.37,0,0,0,1.74,22.57c1.1,5.31,1.78,8.67,1.87,12,.1,3.75-.26,4.38-1.32,6.73s-2.73,2-4.75,2.44a7.17,7.17,0,0,1-1.68-.24,5.49,5.49,0,0,0-1.45-.24c-3,.56-3.34,2.68-3.41,5.72a55.53,55.53,0,0,0,.47,7.07,68.29,68.29,0,0,1,.48,7.12,35.65,35.65,0,0,1-1.66,10.94c-1,2.82-1.62,4.44-4.21,4.86-.78.13-.92-1.12-1.09-2.29a43.57,43.57,0,0,1-.35-5.75c0-.79,0-2.95,0-4,0-1.72.12-4.44.25-6s.22-4.66.24-5.48a42.22,42.22,0,0,0-.33-7.47c-.32-1.48-.16-1.4-.91-1.66s-1.44,1-2.08,1.42-1.8,1.49-2.75,1.39c-2.07-.2-2.66-1.42-2.68-3.43a68.45,68.45,0,0,1,1.55-14.22A66.41,66.41,0,0,0,196.43,154,68.47,68.47,0,0,0,194.79,139c-.88-3.8-1.64-7.19-2.21-9.39-1.14-4.36-1.65-5.75-1.72-9.64a39.76,39.76,0,0,1,.84-7.29,43.73,43.73,0,0,0,.84-7.36c0-1.33-.11-2.61-.25-4.3s-.39-4-.6-6-.47-4.56-.6-6.64-.27-3.49-.24-5.7a36.92,36.92,0,0,1,.62-5.42c.35-2.15.83-5.15,1.2-7.72s.86-5.79,1.21-8.47a61.57,61.57,0,0,0,.61-7.85,14.56,14.56,0,0,0-.37-2.7c-.21-1-.51-2.45-.72-3.61s-.53-2.74-.72-3.85a17.66,17.66,0,0,1-.37-3.17A17.23,17.23,0,0,1,193.43,34a25.8,25.8,0,0,0,1-8.17,10.77,10.77,0,0,0-1.2-3.78,10.54,10.54,0,0,1-1.2-3.56c0-2.69.37-5.2,2.64-6.37S198.25,11,201,10.79c1.18-.07,3.16,0,5.11,0a50.09,50.09,0,0,1,7.56.62,43.25,43.25,0,0,1,7.74,1.84c2.4.93,4,1.45,5.79,3.75a31.38,31.38,0,0,1,4.4,8.21,125.23,125.23,0,0,1,4,12c1.11,4,2.29,9.19,3,13.42a81.67,81.67,0,0,1,1.22,12.77c0,4.41.12,9.08.25,13.13s.52,8.86.83,12.19a72.07,72.07,0,0,0,1.54,8.93c.49,2.1,1.14,3.72,2.41,3.67,2.56-.11,3.06-.51,4-3.43s.9-9.11,1-12.7a43,43,0,0,0-.45-7.77c-.4-1.82-.54-1.48-.5-3a12.05,12.05,0,0,1,.77-4.14c.61-2,2.26-4.38,3.9-6.71a16.3,16.3,0,0,0,1.67-4.84c.32-1.77,1-4.88,1.31-7.07s.69-5.19.84-7.35a43.09,43.09,0,0,1,.73-5.89,17.47,17.47,0,0,1,1-3.33c.46-1.2,1-2.63,1.45-3.87s.95-2.73,1.33-3.87a11.34,11.34,0,0,0,.61-3.29,11.59,11.59,0,0,0-.71-4,9.43,9.43,0,0,1-.72-3.56,7.14,7.14,0,0,1,2.23-5A7.42,7.42,0,0,1,268.88,9.1Z"/><path d="M393.12,160a12.15,12.15,0,0,1-1.07,4.5,12.11,12.11,0,0,0-1.09,4.31c0,1,.14,1.82.24,3.09a34.57,34.57,0,0,1,.22,4.69c-.16,2.38-.93,4-3.7,4.1a10.72,10.72,0,0,1-2.32-.36c-.85-.2-2.33-.57-3.36-.84s-2.63-.65-3.59-.84a15,15,0,0,0-2.79-.37,5,5,0,0,0-3.68,1.47,4.53,4.53,0,0,0-1.45,3.61,13,13,0,0,0,1.56,5.08,15.05,15.05,0,0,1,1.05,6.65c0,.65.12,1.51-.39,2.06a2,2,0,0,1-2.14.57c-1.1-.19-2-1.3-2.63-2.87s-1.75-4.23-2.38-6.1-1.8-4.52-2.51-6.12-1.69-2.71-3-2.84c-2.1-.2-3.41,1.23-4.39,2.45a7.56,7.56,0,0,0-1.74,3.76,4.35,4.35,0,0,0,.7,2.71,6.49,6.49,0,0,1,.72,2.4c.05,1.56-.12,3.44-.93,4.37a2.8,2.8,0,0,1-2.46,1,4.61,4.61,0,0,1-4.26-2.28,23.67,23.67,0,0,1-2.2-5.21c-.56-1.68-1-3.76-1.59-5.18s-.71-2.21-2.28-2.34c-.53,0-1.16,1.15-1.71,1.84s-1.48,1.86-2.92,1.74a7.92,7.92,0,0,1-3.47-1.81,6.88,6.88,0,0,0-3.5-1.81,3.78,3.78,0,0,0-2,.71,4.86,4.86,0,0,1-1.91.72,2.34,2.34,0,0,1-2.35-1.34,10.25,10.25,0,0,1-.86-3.15,16.29,16.29,0,0,1-.12-3.58,14.69,14.69,0,0,0-.09-2.51c-.11-1.92,0-3.06,0-4.78,0-1,.06-1.91.12-2.92s.12-2.09.12-3.17c0-1.76,0-3.57,0-5.35,0-2.58.1-4.65.25-7.39s.38-6.18.6-9.06.45-6.37.61-9.06.22-4.95.25-7.34a28.33,28.33,0,0,1,.48-4.78c.28-1.57.73-3.4,1.08-4.71s.81-2.86,1.08-3.73a8.58,8.58,0,0,0,.5-2.09c-.16-2.63-1.3-3.27-3.66-3.5a5,5,0,0,0-1.68.35,5.33,5.33,0,0,1-1.69.36,1.79,1.79,0,0,1-1.83-1.45,10,10,0,0,1-.37-2.66,8.74,8.74,0,0,1,.14-2,8.55,8.55,0,0,1,.87-2.69,28.09,28.09,0,0,0,2.75-8.69,83.89,83.89,0,0,0,.62-9,40,40,0,0,1,1.56-11.1,33.33,33.33,0,0,0,1.6-9.52,8.17,8.17,0,0,0-.38-2.08c-.21-.8-.56-2-.84-3s-.64-2.45-.84-3.49a16.53,16.53,0,0,1-.36-3c0-1.53.11-3,.23-4.4s.26-2.74.24-4.16a19.56,19.56,0,0,0-.61-4,22.9,22.9,0,0,1-.6-4.49,9.44,9.44,0,0,1,.36-2.2,7.35,7.35,0,0,0,.36-2.24,7.52,7.52,0,0,0-1.21-3.13,6.67,6.67,0,0,1-1.19-3.36c.16-2.09.67-3.24,2.6-4.29a15,15,0,0,1,6.69-1.35c.43,0,1.52.07,2.17.12s2,.12,2.61.12a9.18,9.18,0,0,0,4.89-1.08,7.29,7.29,0,0,1,4.21-1.1,6.93,6.93,0,0,1,3.35,1.07A6,6,0,0,0,350.71,13a3.24,3.24,0,0,0,2.14-.73,4.43,4.43,0,0,1,2.85-.7,12.49,12.49,0,0,1,5.65,1.94,11.26,11.26,0,0,0,5.71,1.92,6.43,6.43,0,0,0,3.81-1.33,8.55,8.55,0,0,1,4.46-1.32,6.29,6.29,0,0,1,2.92.59,4.26,4.26,0,0,0,2.25.62,5.39,5.39,0,0,0,2.49-.86,5.44,5.44,0,0,1,3.95-.72c.77.21,1.62.78,2,2.88a45.23,45.23,0,0,1,.78,9.48c-.05,1.24.24,4.72.5,7.24s.79,7.16,1.19,10.31,1,7.89,1.2,10.92a78.21,78.21,0,0,1,.47,8.64c-.16,3.58-1.7,4.5-4.87,4.69-2.21.13-3.3-1.36-3.37-3.64,0-.45.05-1.47.11-2.18s.13-2.09.12-2.86.06-2.1.12-2.62.12-1.37.12-1.49c.11-3.07-.31-8.58-.44-10.8s-.42-4.66-1.66-4.93c-1.73-.36-1.77,1.12-2,2.49s-.28,3.76-.37,5.4-.36,3.9-.6,5.41-1,2.41-2.15,2.59A2.45,2.45,0,0,1,375.41,52c-.6-2-1-4.37-1.48-5.91a16.94,16.94,0,0,0-1-3c-1.4-.94-3.18-2.14-4.58-3A9.12,9.12,0,0,0,364,38.83a4.86,4.86,0,0,0-3.2,1,10.49,10.49,0,0,0-2.09,2.06c-.61.71-1.09,1.43-1.59,2.07a2.24,2.24,0,0,1-1.7,1,5.2,5.2,0,0,1-1.82-.22,3.47,3.47,0,0,0-1.37-.25c-2.7.3-4.39,1-5.34,3.84a31.27,31.27,0,0,0-1.23,9.32,32.36,32.36,0,0,0,1.43,9.53,29.45,29.45,0,0,0,3.5,7.18,16.81,16.81,0,0,0,4.25,4.41,6.69,6.69,0,0,0,3.8,1.54,9,9,0,0,0,1.58-.26c.64-.1,2.06-.4,2.86-.59s2.2-.46,2.85-.6,1.5-.2,1.84-.26a52.37,52.37,0,0,1,5.92-.59c1.53,0,3.31-.19,4.23-.11,1.83.15,2.26.41,3.17,1.74a7.45,7.45,0,0,1,1.1,4.46,13.59,13.59,0,0,1-1.09,3.84,12.69,12.69,0,0,0-1.07,4.6,23,23,0,0,0,.73,5c.42,1.79,1.07,4.31,1.57,6.14s1.14,4.34,1.56,5.89a20.24,20.24,0,0,1,.74,4.28,14.43,14.43,0,0,1-2,6.91c-1,1.83-2.11,3.41-3.75,3.58s-2-.71-2.49-2a33.63,33.63,0,0,1-.87-4.59,28.54,28.54,0,0,0-1.1-4.6A3,3,0,0,0,371.5,111a2.25,2.25,0,0,0-2.45,1.43,8.54,8.54,0,0,0-.51,3,15.14,15.14,0,0,1-.38,3,1.74,1.74,0,0,1-1.81,1.45,2.17,2.17,0,0,1-2-1.22,26.84,26.84,0,0,1-1.45-2.77,31.18,31.18,0,0,0-1.46-2.77c-.48-.76-.87-1.18-1.72-1.24a11.09,11.09,0,0,1-2.54-.49,6.43,6.43,0,0,0-2.53-.48c-1.81.3-3.11.11-3.17,2.55,0,1.47.31,2.1.88,4.58a53.1,53.1,0,0,1,.78,11.1,28.65,28.65,0,0,1-1.67,6.64c-.72,1.68-1.86,4.17-1.67,6,.29,2.78.84,3.9,3.17,6.11s7,3,10.71,3c.57,0,1.67,0,2.56-.12a27.89,27.89,0,0,1,3.07-.11,31.44,31.44,0,0,1,6.5,1,30.31,30.31,0,0,0,6.32,1,12.48,12.48,0,0,0,1.62-.11,9.76,9.76,0,0,1,1.84-.12,7.65,7.65,0,0,1,5.07,2.45A7.42,7.42,0,0,1,393.12,160Z"/><path d="M608.68,10.39a4.82,4.82,0,0,1,2.55.48,6.92,6.92,0,0,1,2,1.22,7.43,7.43,0,0,0,2.09,1.22,9.26,9.26,0,0,0,3.17.49c.77,0,2.41-.15,3.31-.23a23.61,23.61,0,0,1,3.1-.23c3.25.31,5.38,1,7.61,3.5s3,5.27,3.17,8.88a15.9,15.9,0,0,1-.46,2.89c-.26,1.15-.75,3.27-1.15,4.9s-.89,4.18-1.16,6a45.74,45.74,0,0,0-.49,6.25c0,2.7-.41,5.24-2.82,5.71-1.21.23-1.22-.15-2.17-.09s-.71-.45-1.95-.07c-2,.61-3.06,2.44-4.11,5.16a32.46,32.46,0,0,0-2.13,10.91A53.21,53.21,0,0,0,620,75a36,36,0,0,1,.82,6.3,21.64,21.64,0,0,1-.39,4.11c-.27,2-.55,4.92-.62,7.19,0,1.07,0,2.82-.15,3.81s-.14,1.65-.26,2.45a4.79,4.79,0,0,1-.63,1.84,10.52,10.52,0,0,1-1.47,1.78,18.61,18.61,0,0,0-3.57,5.25,27.85,27.85,0,0,0-1.79,6.31c-.48,2.62-.8,5.16-1.19,8.47s-.84,7.8-1.35,11.72c-.26,2-.83,5.17-1.28,7.51s-1.11,5.38-1.66,7.68-1.16,4.95-1.65,7-.74,3.51-1.06,5.24a44.15,44.15,0,0,1-2,7.6,56.4,56.4,0,0,0-2.53,10.09c-.65,4.14-1.61,11.63-1.76,16.14s-.46,16.27-.41,18.7c.24,12.16.57,26.23,1,35.56s1.2,21.42,1.44,26.77c.42,9.33.64,17.65-.78,22.73s-2.31,3.76-4.3,2-2.82-4.29-3.5-8.8a146.78,146.78,0,0,1-1.14-17.89c-.06-3.24-.41-13.9-.41-19.17s-.5-20.51-.44-24.49c.2-14.14,0-38.75-2.15-47.71s-1.86-2.25-4.94-4.47c-2-1.43-3.67,2.17-4.91,2.91s-3,3-4.44,3.08c-2.21.07-3-.38-4-2.08a10.59,10.59,0,0,1-1.3-5.42c0-1.16.21-3.68.27-4.89s.33-3.45.28-4.12c-.25-3.38-.43-4.59-2.09-7.59s-3.82-6.34-5.83-9.78c-1.1-1.88-2.93-4.85-4-7.14a16.77,16.77,0,0,1-1.87-7.29,36.68,36.68,0,0,1,1.39-8.41,38.54,38.54,0,0,0,1.39-8.34A79.62,79.62,0,0,0,556,108.1c-.5-3.83-1.13-7.6-1.72-11.26s-1.19-7.21-1.71-10.71a68.39,68.39,0,0,1-.76-10,25.86,25.86,0,0,1,.4-3.8,22.28,22.28,0,0,0,.4-3.55c-.24-5.57-1.71-8.88-7.45-9.56a8.15,8.15,0,0,0-1.34.1,11.47,11.47,0,0,1-1.56.09,3.65,3.65,0,0,1-3-1.5,4.49,4.49,0,0,1-1.05-3.21c.1-2,1.07-3.73,2.27-5.76a16.33,16.33,0,0,0,2.23-7.58,23.72,23.72,0,0,0-1-6.86,24.78,24.78,0,0,1-1-6.78,30.59,30.59,0,0,0-.29-5.53,12.79,12.79,0,0,1-.33-3.22c.1-2.24.39-4.14,2-5.51s2.73-1.57,5-1.65a16,16,0,0,1,4.2,1.14,17.18,17.18,0,0,0,5.19,1.14,16,16,0,0,0,4.6-1,13.79,13.79,0,0,1,4.57-1c2.82.24,4.53.75,6.37,2.91a18.26,18.26,0,0,1,3.71,7.34,51.06,51.06,0,0,1,1.7,10.22c.27,3.59.36,7.86.34,11.75,0,.78-.09,2.09-.17,3.12s-.2,2.7-.28,3.77-.21,2.59-.29,3.43-.14,1.81-.15,2.29a43.5,43.5,0,0,0,.63,7.59c.39,2.28,1,4.86,1.46,6.7s1.11,3.85,1.49,5a14.23,14.23,0,0,1,.72,2.34A19.24,19.24,0,0,1,580.8,82a28.18,28.18,0,0,0-.37,4.26,9.49,9.49,0,0,0,1.93,5.66c1.34,1.49,1.89,3.61,4.72,3,4.37-1,5-8.84,5.33-13.79.23-3.38.82-11.27.89-15.38s.28-8,.65-11.83a101.84,101.84,0,0,1,1.51-10.59,77.28,77.28,0,0,1,3.67-11.86c.86-4.85,2-11.9,3.31-16.1S605.38,11.08,608.68,10.39Z"/><path d="M711.06,160.33a12.16,12.16,0,0,1-1.08,4.5,11.92,11.92,0,0,0-1.1,4.32c0,1,.13,1.82.23,3.09a35,35,0,0,1,.21,4.71c-.17,2.39-.94,4-3.72,4.1a10.93,10.93,0,0,1-2.32-.38c-.85-.2-2.33-.57-3.36-.85s-2.63-.66-3.59-.86a15,15,0,0,0-2.79-.37,5,5,0,0,0-3.69,1.45,4.61,4.61,0,0,0-1.46,3.62,13.27,13.27,0,0,0,1.55,5.1,15.11,15.11,0,0,1,1,6.67c0,.65.11,1.51-.4,2.06a2,2,0,0,1-2.14.56c-1.1-.19-2-1.31-2.63-2.88s-1.74-4.25-2.36-6.13-1.79-4.54-2.5-6.14-1.68-2.73-3-2.86c-2.1-.22-3.41,1.22-4.39,2.43a7.67,7.67,0,0,0-1.76,3.77,4.35,4.35,0,0,0,.7,2.71,6.79,6.79,0,0,1,.71,2.42c0,1.56-.12,3.45-.94,4.38a2.8,2.8,0,0,1-2.47,1,4.59,4.59,0,0,1-4.25-2.31,23.12,23.12,0,0,1-2.19-5.23c-.56-1.68-1-3.77-1.58-5.19s-.7-2.23-2.27-2.36c-.53,0-1.17,1.15-1.72,1.84s-1.48,1.85-2.92,1.73a8,8,0,0,1-3.48-1.83,6.91,6.91,0,0,0-3.5-1.83,3.72,3.72,0,0,0-2,.71A4.87,4.87,0,0,1,644,183a2.36,2.36,0,0,1-2.35-1.34,10.43,10.43,0,0,1-.85-3.17,15.74,15.74,0,0,1-.11-3.59,13.83,13.83,0,0,0-.09-2.52c-.1-1.92,0-3.07,0-4.79,0-1,.07-1.91.12-2.93s.13-2.1.13-3.17c0-1.77,0-3.58,0-5.36,0-2.6.11-4.67.26-7.41s.41-6.21.63-9.09.47-6.39.63-9.08.23-5,.27-7.36a26.47,26.47,0,0,1,.5-4.79c.28-1.58.73-3.4,1.09-4.72s.82-2.86,1.09-3.74a8.38,8.38,0,0,0,.5-2.09c-.15-2.63-1.28-3.28-3.65-3.52a5,5,0,0,0-1.68.35,5.37,5.37,0,0,1-1.69.35,1.78,1.78,0,0,1-1.83-1.45,9.68,9.68,0,0,1-.36-2.67,9.33,9.33,0,0,1,.14-2,9,9,0,0,1,.89-2.7,28.77,28.77,0,0,0,2.79-8.67,83.39,83.39,0,0,0,.68-8.91,39.82,39.82,0,0,1,1.65-11,33.79,33.79,0,0,0,1.69-9.42,8,8,0,0,0-.34-2c-.21-.8-.54-2-.81-3s-.6-2.42-.79-3.45a16.88,16.88,0,0,1-.33-3c0-1.5.16-2.93.29-4.34s.3-2.68.32-4.06a18.45,18.45,0,0,0-.52-3.94,21.77,21.77,0,0,1-.5-4.38,8.68,8.68,0,0,1,.41-2.15,6.83,6.83,0,0,0,.39-2.18,7,7,0,0,0-1.16-3.09,6.59,6.59,0,0,1-1.16-3.34c.18-2.09.67-3.26,2.58-4.33a14.59,14.59,0,0,1,6.63-1.42c.42,0,1.5.05,2.15.11s1.95.1,2.59.09a9.17,9.17,0,0,0,4.85-1.11,7.28,7.28,0,0,1,4.18-1.13,6.75,6.75,0,0,1,3.31,1,5.78,5.78,0,0,0,2.9,1.08,3.21,3.21,0,0,0,2.13-.73,4.49,4.49,0,0,1,2.85-.7A12.3,12.3,0,0,1,680,14a11.07,11.07,0,0,0,5.68,1.92,6.46,6.46,0,0,0,3.81-1.33,8.62,8.62,0,0,1,4.46-1.3,6.32,6.32,0,0,1,2.92.6,4.12,4.12,0,0,0,2.24.62,5.46,5.46,0,0,0,2.49-.84,5.42,5.42,0,0,1,4-.71c.77.21,1.62.78,2,2.88a45,45,0,0,1,.73,9.47c-.06,1.25.22,4.73.46,7.25s.76,7.15,1.15,10.3.92,7.9,1.15,10.92a79.94,79.94,0,0,1,.43,8.63c-.18,3.59-1.73,4.5-4.89,4.67-2.22.12-3.3-1.38-3.36-3.66,0-.45.06-1.47.12-2.18s.13-2.09.13-2.86.07-2.09.13-2.61.12-1.38.13-1.5c.12-3.06-.27-8.57-.39-10.79s-.4-4.66-1.63-4.93c-1.74-.37-1.78,1.11-2,2.48s-.3,3.75-.4,5.39-.37,3.89-.62,5.4-1,2.41-2.16,2.58a2.46,2.46,0,0,1-2.69-1.86c-.59-2-1-4.37-1.45-5.91a17.42,17.42,0,0,0-1-3c-1.4-.94-3.17-2.14-4.57-3a9,9,0,0,0-4.33-1.34,5,5,0,0,0-3.19.94,10.82,10.82,0,0,0-2.11,2c-.62.7-1.11,1.41-1.61,2a2.26,2.26,0,0,1-1.71,1,5.2,5.2,0,0,1-1.82-.22,3.42,3.42,0,0,0-1.36-.25c-2.69.28-4.39,1-5.38,3.77A30.1,30.1,0,0,0,664,57.81a31.26,31.26,0,0,0,1.32,9.41,28.9,28.9,0,0,0,3.44,7.14A16.3,16.3,0,0,0,673,78.75a6.76,6.76,0,0,0,3.79,1.53,8.85,8.85,0,0,0,1.59-.24c.63-.1,2-.4,2.85-.59s2.2-.45,2.86-.59,1.5-.21,1.83-.26a54.86,54.86,0,0,1,5.92-.58c1.54,0,3.31-.18,4.23-.1,1.84.16,2.27.42,3.17,1.76a7.39,7.39,0,0,1,1.09,4.47,13.8,13.8,0,0,1-1.1,3.85,12.9,12.9,0,0,0-1.08,4.6,23,23,0,0,0,.72,5c.42,1.79,1,4.32,1.55,6.17s1.13,4.34,1.55,5.91a20.15,20.15,0,0,1,.73,4.28,14.6,14.6,0,0,1-2,6.93c-1,1.82-2.12,3.41-3.76,3.57s-2-.72-2.49-2a35.56,35.56,0,0,1-.86-4.61,29.73,29.73,0,0,0-1.09-4.61,3,3,0,0,0-2.87-2.09,2.25,2.25,0,0,0-2.46,1.43,8.51,8.51,0,0,0-.52,3,14.55,14.55,0,0,1-.39,3,1.74,1.74,0,0,1-1.81,1.44,2.15,2.15,0,0,1-2-1.23,28,28,0,0,1-1.45-2.78c-.43-.9-1-2-1.44-2.79s-.88-1.18-1.72-1.24a11.2,11.2,0,0,1-2.55-.51,6.6,6.6,0,0,0-2.53-.49c-1.81.3-3.1.1-3.17,2.55,0,1.47.29,2.1.86,4.6a52.2,52.2,0,0,1,.75,11.13,28.22,28.22,0,0,1-1.68,6.64c-.73,1.69-1.88,4.18-1.69,6,.28,2.78.84,3.91,3.16,6.14s7,3.06,10.71,3c.57,0,1.67,0,2.57-.1a27.7,27.7,0,0,1,3.06-.11,33,33,0,0,1,6.51,1,29.62,29.62,0,0,0,6.32,1,12.48,12.48,0,0,0,1.62-.11,9.83,9.83,0,0,1,1.84-.1,7.63,7.63,0,0,1,5.07,2.47A7.42,7.42,0,0,1,711.06,160.33Z"/><path d="M809.19,171.32a7.7,7.7,0,0,1-2.16,5.76,23.57,23.57,0,0,1-4.74,3.57,40,40,0,0,0-4.63,3.08,5.15,5.15,0,0,0-2.07,4.35,10.57,10.57,0,0,0,.49,2.58,23.84,23.84,0,0,1,.47,4.67,45.48,45.48,0,0,1-1.3,10.45c-.72,2.44-1.22,4.51-3.32,4.74s-2.12-2.18-2.2-3.85a49,49,0,0,1,.23-5.1c.11-1.3.24-2.47.24-3.56,0-1.75-.11-3.12-.24-4.8s-.47-3.86-.72-5.42-.78-3.41-1.07-4.58-.84-1.88-1.55-2a3.75,3.75,0,0,0-2.47.55,6.91,6.91,0,0,0-1.6,1.21,13.86,13.86,0,0,0-1.12,1.23,1.72,1.72,0,0,1-1.46.59,2.26,2.26,0,0,1-1.48-.39c-.52-.4-.74-.6-.71-1.65a23.35,23.35,0,0,1,.74-3.89,23.49,23.49,0,0,0,.7-5.54A33.39,33.39,0,0,0,776.31,161a110.23,110.23,0,0,1-4.92-12.28,33.13,33.13,0,0,1-1.64-8.37,11.25,11.25,0,0,1,.23-3,18.38,18.38,0,0,0,.23-2.73,13.94,13.94,0,0,0-2.4-7.49,12.75,12.75,0,0,1-2.44-6.26,10.21,10.21,0,0,1,.46-4,11.89,11.89,0,0,0,.48-3.72c0-1.4-.63-2.67-2.16-2.62a5,5,0,0,0-3.6,1.26c-1.31,1-1.55,3.58-1.55,5.26a14.51,14.51,0,0,0,.35,3.84,7,7,0,0,1,.38,2.22c0,.66-.1,1-.47,1.24a1.36,1.36,0,0,1-1,.26c-1-.08-1.37-.63-1.71-1.6s-.59-2.34-.85-3.37a28.27,28.27,0,0,0-.75-3.25c-.35-.89-.39-1.61-1.65-1.43s-1.55,2.9-1.37,4.48c0,.27.11,2.09.24,3.12s.3,3.52.36,4.87.24,3.63.36,4.77.25,2.1.25,2.82a40.23,40.23,0,0,1-.25,4.08c-.15,1.83-.39,4-.6,6.19s-.48,5.06-.6,7.36-.27,4.85-.24,7a39.43,39.43,0,0,0,1.34,9.77,48.41,48.41,0,0,1,1.32,10.32,70.62,70.62,0,0,1-.34,9c-.28,2.28-.93,2.31-2.29,2.6s-2.11-.54-2.7-1.52a12.84,12.84,0,0,1-1.11-3.39,33.56,33.56,0,0,0-.87-3.39c-.39-1-.82-1.61-2-1.57a5.55,5.55,0,0,0-4.13,2.31,8.06,8.06,0,0,0-1.93,5,31.44,31.44,0,0,0,.7,6.09,33,33,0,0,1,.72,4.21c-.08,2.32-1.22,2.4-2.9,2.58a1.84,1.84,0,0,1-2.18-1.56,18.39,18.39,0,0,1-.25-3.36c0-.58.08-1.89.11-2.75s.17-2.34.12-3.22a17.76,17.76,0,0,0-.66-5.11c-.62-2-3.06-3.82-4.93-4.9-1.44-.83-3.39-2.18-3.85-3.59a8,8,0,0,1-.52-3,7.18,7.18,0,0,1,.61-2.46c.33-1,1-2.51,1.44-3.6s1.11-2.81,1.44-3.83a11.45,11.45,0,0,0,.61-2.93,36.25,36.25,0,0,0-.72-6.87c-.42-2.27-1-5-1.44-7s-1-4.57-1.45-6.14a19.47,19.47,0,0,1-.74-4,42.85,42.85,0,0,1,.71-7.76c.42-2.52,1-5.3,1.45-7.51s1-4.6,1.44-6.29a17.84,17.84,0,0,0,.75-4.07,42.51,42.51,0,0,0-.61-6.83c-.34-2.51-.91-5.73-1.32-8.2s-1-5.68-1.32-7.7a32.68,32.68,0,0,1-.61-5.26,26.13,26.13,0,0,1,2.67-11,29.38,29.38,0,0,0,2.66-11.3,32.33,32.33,0,0,0-1.89-10.11c-.92-2.72-2-5-2.41-7.1a45.4,45.4,0,0,0-1.76-6.91,20.74,20.74,0,0,1-1.46-6.36,30.56,30.56,0,0,1,.71-6.13,36.75,36.75,0,0,0,.72-6.37,9.42,9.42,0,0,0-.49-2.3,10.17,10.17,0,0,1-.47-2.76,3.3,3.3,0,0,1,1.57-2.91,5.53,5.53,0,0,1,3.08-1,7.32,7.32,0,0,1,2.57.61c.91.34,2.25.86,3.25,1.2s2.38.88,3.24,1.2a7.31,7.31,0,0,0,2.33.62,26.22,26.22,0,0,0,5-.6,30,30,0,0,1,5-.6c3.36,0,6.51.28,9.78.6s6.47.58,9.75.61c0,0-.23,0-.18,0a91.2,91.2,0,0,1,18.14,5.21,39.19,39.19,0,0,1,10.33,6.43A14.77,14.77,0,0,1,802,31.1a27.05,27.05,0,0,1,1.51,5.4c.8,3.64,1.15,6.17,1.64,9.64a69.82,69.82,0,0,1,.61,10.13,35.22,35.22,0,0,1-1.33,7.67,33.9,33.9,0,0,0-1.33,7.75c-.06,3.7-.35,7.53-.74,11.09s-.68,7.79-.73,11a13.71,13.71,0,0,0,.35,3.69,9.67,9.67,0,0,1,.37,2,5.57,5.57,0,0,1-1.34,3.8,3.62,3.62,0,0,1-3.07,1.59c-1.43,0-2.59-1.36-3.38-2.52s-2-2.49-3.35-2.52c-1,0-1.23.36-1.25,1.2a8.37,8.37,0,0,0,1.8,5,8.63,8.63,0,0,1,1.81,5,7.78,7.78,0,0,1-.6,3,10.17,10.17,0,0,0-.6,3.41,17.14,17.14,0,0,0,1.42,6c.92,2.2,1.85,4.32,2.67,6.09a20.9,20.9,0,0,1,1.51,4.06,27.6,27.6,0,0,1,.73,4.73c.17,1.66.28,3.82.37,5.55s.15,3.72.24,5.33a11.82,11.82,0,0,0,.85,4.07,21.15,21.15,0,0,0,2,3.82c.89,1.41,2.07,3.31,3,4.83s2.06,3.58,2.78,5.06A11.39,11.39,0,0,1,809.19,171.32ZM775.1,69.19c0-2.68-.05-5.92-.8-7.61a8.31,8.31,0,0,1-.89-3.39,12.32,12.32,0,0,1,.33-3.81,8.24,8.24,0,0,0,.37-2.38c-.18-3.1-.62-5.8-2.48-8.28s-4.16-3.34-7.32-3.4a3.4,3.4,0,0,0-3.12,2.55,16.18,16.18,0,0,0-1,5.23c0,.49.06,1.64.11,2.14s.11,1.66.12,1.89c.07,1.28-.26,2.64-1.41,2.72s-1.56-.44-2-1.31a20.35,20.35,0,0,1-.87-2.91,14.45,14.45,0,0,0-1-2.89c-.47-.79-.77-1.48-1.87-1.31s-1.25,1.84-1.16,3.31c0,.34.11,2.26.24,3.48s.4,4.13.6,5.7.47,4.42.6,5.71.24,2.93.25,3.51a11,11,0,0,1-.6,3.91,10.72,10.72,0,0,0-.6,3.55c0,2,1,3,2.88,3.17a4.66,4.66,0,0,0,2.32-.47,3.69,3.69,0,0,1,1.87-.47,2.4,2.4,0,0,1,1.83,1.1c.57.69,1.21,1.64,1.82,2.42a15.78,15.78,0,0,0,2.08,2.41,3.15,3.15,0,0,0,2.58,1.08c2.76-.35,4-1.75,5.24-4.6S775,72.19,775.1,69.19Z"/><path d="M564.89,346.27c-.09-.55-.17-1-.25-1.43s.05-1,.05-1.55a27.84,27.84,0,0,0-.62-5.94c-1.92-6.75-5.16-6.17-3.23-19.17,0,0-9.41,8.57-10.86,25.11a23,23,0,0,0-.06,2.61h0s-1.31,1.56-.44,2.73c0,0,.48.62.86.58a18.07,18.07,0,0,0,.55,2q0,.17-.09.39c-.11.51.21.57.44.56a10.41,10.41,0,0,0,3.9,5.13c-.12.49-.16,1.08.34,1.25a1.06,1.06,0,0,0,.74,0c0,.65.15,1.22.5,1.36,0,0,1.24.47.88-1.95a3.58,3.58,0,0,0,1.38-.44c.06.46.19.82.46.93,0,0,1.24.46.88-2l.05-.06a.61.61,0,0,0,.27.26s1.16.43.91-1.72c.2-.29.39-.6.58-.93.06.45.2.8.46.91,0,0,1.27.48.86-2-.07-.48-.14-.89-.21-1.27l.18-.5a.71.71,0,0,0,.35.42s1.26.47.86-2c-.07-.46-.14-.85-.2-1.22C564.74,348.24,565.14,347.84,564.89,346.27Z"/><path d="M554.77,334.79c-.29-1-.78-.93-.49-2.9a6.1,6.1,0,0,0-1.64,3.8c-.11,1.21.5,2.23,1.11,2.23s1.12-1,1.12-2.23A4.28,4.28,0,0,0,554.77,334.79Z"/><path d="M554.71,334.8c-.27-1-.77-.92-.49-2.77a6,6,0,0,0-1.51,3.61c-.1,1.14.46,2.09,1,2.09s1-.93,1-2.09A4.41,4.41,0,0,0,554.71,334.8Z"/><path d="M376.52,245c.09-.55.17-1,.25-1.43s0-1,0-1.55a27.7,27.7,0,0,1,.62-5.94c1.92-6.76,5.16-6.18,3.23-19.18,0,0,9.41,8.58,10.86,25.12a23,23,0,0,1,.06,2.61h0s1.32,1.55.45,2.72c0,0-.48.62-.86.58a17.52,17.52,0,0,1-.55,2.05c0,.12.06.24.09.39.11.51-.21.58-.44.57a10.33,10.33,0,0,1-3.9,5.12c.12.49.16,1.08-.34,1.26a1.08,1.08,0,0,1-.74,0c0,.66-.15,1.22-.5,1.37,0,0-1.24.46-.88-1.95a3.44,3.44,0,0,1-1.38-.45c-.06.46-.19.82-.46.93,0,0-1.24.47-.88-2l-.05-.05a.54.54,0,0,1-.27.25s-1.16.43-.91-1.71c-.2-.3-.39-.61-.58-.94-.06.45-.2.81-.46.92,0,0-1.27.47-.87-2,.08-.49.15-.89.22-1.28l-.18-.5a.66.66,0,0,1-.35.42s-1.27.48-.86-2c.07-.46.14-.85.2-1.22C376.67,247,376.27,246.56,376.52,245Z"/><path d="M386.64,233.52c.29-1,.78-.94.49-2.91a6.11,6.11,0,0,1,1.64,3.81c.11,1.21-.5,2.22-1.11,2.22s-1.12-1-1.12-2.22A4.2,4.2,0,0,1,386.64,233.52Z"/><path d="M380.77,232.44c.45-.9.93-.77,1-2.63a6,6,0,0,1,.81,3.83c-.11,1.14-.85,2-1.41,1.86s-.86-1.12-.64-2.25A3.67,3.67,0,0,1,380.77,232.44Z"/><path class="cls-1" d="M641,404.46c-21,19.88-160.5,9.11-182.73,8s-140.7-.54-120.72-19.88,120.3-33.05,167.32-26.82S662,384.57,641,404.46Z"/><path class="cls-1" d="M93.09,156a8.3,8.3,0,0,1-.84,3.68,27.65,27.65,0,0,1-1.94,3.29c-.66,1-1.42,2-1.93,3.05a4.75,4.75,0,0,0-.85,2.74,6,6,0,0,0,1.72,3.3,8.17,8.17,0,0,1,1.66,4.41,5.33,5.33,0,0,1-1.18,3.75,3.3,3.3,0,0,1-2.45,1.14,3.41,3.41,0,0,1-3.06-1.69,17.5,17.5,0,0,1-1.83-3.74c-.46-1.16-.9-2.79-1.21-3.71s-.41-1.67-1.24-1.74-1.14,1.39-1.34,2-.74,2.1-1.54,2c-2.82-.26-3.31-2-3.44-4.65a31.14,31.14,0,0,1,.35-4.71,26.69,26.69,0,0,0,.33-5c-.1-1.12-.24-2.08-1.75-1.9-2.39.27-2.65,3.58-2.6,5.85a31.89,31.89,0,0,0,.46,4.8,20.9,20.9,0,0,1,.49,2.79c.17,3.17-.7,6.7-2.68,8.4a8.6,8.6,0,0,1-5.3,2.19,3,3,0,0,1-2.21-.72,3.8,3.8,0,0,1-1.45-2.15c-.55-2.42-1.58-5.69-3.35-7a7,7,0,0,0-4.27-1.56,9,9,0,0,0-2.21.24,17.68,17.68,0,0,0-2.89.72A7.42,7.42,0,0,0,44,173.41,3.85,3.85,0,0,0,42.9,176c0,3.83-.15,9.63-.24,12.79s-.64,5.57-3.09,5.86c-3.07.36-3.42-1.91-3.74-4.3a19.65,19.65,0,0,1,.12-2c0-.43.1-2,.11-2.26.19-3.69-.22-10.08-1.23-12.73s-1.42-2.8-3.11-3.32c-1.22-.37-1.54.76-2.24,1.41s-1.24,1.51-2.46,1.41a5.25,5.25,0,0,1-3.29-1.25,4.9,4.9,0,0,1-1.55-3.9,15.28,15.28,0,0,1,.94-4.39,11.91,11.91,0,0,0,1-3.24c-.05-1.59-.7-1.65-1.95-1.79-.47-.06-.92.41-1.21,1s-.8,1.51-1.2,2.16a20.85,20.85,0,0,1-1.45,2.16c-.46.56-1,1.09-1.7,1-1.4-.25-1.92-.45-1.94-2.3a25.69,25.69,0,0,1,.73-4.65,33.52,33.52,0,0,0,.7-7,29.92,29.92,0,0,0-1.45-7.31,26.37,26.37,0,0,1-1.45-7.13,8.46,8.46,0,0,1,.6-3.09,9.53,9.53,0,0,0,.6-3.08,21.67,21.67,0,0,0-.24-2.67c-.13-.91-.3-2.35-.36-3.24s-.24-2.15-.36-2.75-.24-1.25-.25-1.48c0-1.3.06-2.61.12-3.68s.12-2.61.12-3.37a14,14,0,0,0-.72-4.77,23.63,23.63,0,0,0-1.59-3.34c-.58-1.12-1.09-1.8-1.59-3a8.14,8.14,0,0,1-.72-3.67,11.88,11.88,0,0,1,2-6.21,13.1,13.1,0,0,0,1.93-7c0-.93-.07-3.1-.11-4s-.12-2.66-.12-3.11A40.15,40.15,0,0,1,12.91,72a47,47,0,0,0,.48-4.79,10.42,10.42,0,0,0-.48-3.94,11.7,11.7,0,0,1-.48-4.13,15.88,15.88,0,0,1,.37-2.41c.2-.86.5-2.38.72-3.48s.5-2.46.73-3.63a19.61,19.61,0,0,0,.37-3.33c.1-3.21-.17-6.38.05-9.77S15.52,28.19,16,25a20.17,20.17,0,0,1,2.34-7.76,15.55,15.55,0,0,1,5-5.46C25.63,10,29.18,8.5,32.18,7.3c1.9-.75,4.29-1.85,6-2.77A49.83,49.83,0,0,1,42.91,2.2,22.92,22.92,0,0,1,48,.6,33.59,33.59,0,0,1,55.15,0c5.47.17,11.53,1.06,16.42,3.66a35,35,0,0,1,11.86,9.79,40.3,40.3,0,0,1,7.08,14.05,59.08,59.08,0,0,1,2.31,16.93,52.38,52.38,0,0,1-1.23,7.44A70,70,0,0,0,90.43,64.5c0,1.11.12,4,.23,5.8s.29,4.93.23,6.93a8.75,8.75,0,0,1-.51,3.45c-.49,1.14-1.53,1.51-3,1.42a2.19,2.19,0,0,1-1.89-2,19,19,0,0,1-.47-3.92,22,22,0,0,1,.38-3.1,25.88,25.88,0,0,0,.33-5.2,3,3,0,0,0-3.4-3.07,2.35,2.35,0,0,0-2.3,1.58,14.54,14.54,0,0,0-.85,3.63c-.12,1.17-.45,2.6-.59,3.62a1.82,1.82,0,0,1-1.53,1.6,5.59,5.59,0,0,1-3.78-.79,2.19,2.19,0,0,1-.91-1.88,11.12,11.12,0,0,1,.47-2.88,22.65,22.65,0,0,0,.47-2.85,5.6,5.6,0,0,0-1.57-4.21A27.57,27.57,0,0,0,68.36,60a17.58,17.58,0,0,1-3.43-3,7.18,7.18,0,0,1-1.55-4.92,23.87,23.87,0,0,1,1-5.37,27.39,27.39,0,0,0,1-5.35,20.24,20.24,0,0,0-.82-6.23,11,11,0,0,0-1.92-3.58A4.19,4.19,0,0,0,60.4,30a4.34,4.34,0,0,0-1.59-.27c-2.1.18-3.52.34-3.7,2.74a18.07,18.07,0,0,0,.71,4.22,27.22,27.22,0,0,1,.72,4.9A26.07,26.07,0,0,1,55.7,48c-.49,1.82-1.17,2.89-2.78,3.09a3.36,3.36,0,0,1-2.35-.6,2.36,2.36,0,0,1-1.09-2.33,12.21,12.21,0,0,1,.72-3.83,13,13,0,0,0,.74-3.62A4.32,4.32,0,0,0,50.13,38c-.49-.56-.89-.9-1.35-.89a2.87,2.87,0,0,0-2.37,1.35,11.55,11.55,0,0,0-1.81,3.39A39.18,39.18,0,0,0,43.39,46a20.58,20.58,0,0,0-.49,3.85c0,2.16.08,4.57.23,6.31a37.32,37.32,0,0,0,.61,4.19c.24,1.31.48,2,.73,3.1a11.28,11.28,0,0,1,.36,3.09,12.89,12.89,0,0,1-2.42,6.92A11.71,11.71,0,0,0,40,80.37a30.6,30.6,0,0,0,.37,3.2c.2,1.39.56,4.23.84,6.35s.63,5.61.84,7.92.34,5.86.36,7.81a53.16,53.16,0,0,1-.81,10,33.82,33.82,0,0,0-.88,5.34,10.38,10.38,0,0,0,.5,4.45c.51,1.86,1.15,3.71,1.69,5.73.43,1.58.82,3.63,1.1,5.31a18.85,18.85,0,0,0,1.23,4.86A6.85,6.85,0,0,0,48,144.9a8.47,8.47,0,0,0,5.52,1.29,9.23,9.23,0,0,0,7.09-4.06,16.22,16.22,0,0,0,3-9.37,16.6,16.6,0,0,0-1.07-4.8,14,14,0,0,1-1.09-4.38,9.41,9.41,0,0,1,.49-2.72,34.31,34.31,0,0,1,1.2-3.49c.41-1,.91-2.53,1.2-3.35a10.21,10.21,0,0,0,.49-2.31,5.64,5.64,0,0,0-2.66-5.1,9.12,9.12,0,0,0-3.57-1.52,4.13,4.13,0,0,0-2.27.47,1.67,1.67,0,0,0-1.21,1.68,22.08,22.08,0,0,0,.71,5.59,24.15,24.15,0,0,1,.72,5.54c-.06,2.47-.58,4.58-3.15,4.63s-3-2-3.17-4.39c0-.4.08-1.9.12-2.62s.14-2.14.11-2.86A17.66,17.66,0,0,0,48.73,106a19.85,19.85,0,0,1-1.67-8.24,19.18,19.18,0,0,1,2.43-9.93c1.82-2.91,4.1-3.65,7.31-4A17.75,17.75,0,0,1,59,84a16.24,16.24,0,0,0,1.74.11A25.62,25.62,0,0,0,65,83.35a25.4,25.4,0,0,1,4.91-.71,8.42,8.42,0,0,1,3.48.85c1.23.5,2.67,1.16,3.87,1.7s2.84,1.18,3.86,1.69a11.17,11.17,0,0,0,3.35.85c2.27.17,4.83-.27,6.48.9s1.29,2.31,1.41,4.39a31.81,31.81,0,0,1-1,6.94,33.57,33.57,0,0,0-1,6.82,19.7,19.7,0,0,0,.37,3.32c.21,1.24.51,2.94.72,4.35s.52,3.22.72,4.58a25.43,25.43,0,0,1,.37,3.8,91.94,91.94,0,0,1-.85,10.62,86,86,0,0,0-.83,10.68A23.44,23.44,0,0,0,92,149.59,26,26,0,0,1,93.09,156Z"/><path class="cls-1" d="M131.86.88c2-.16,3.76,1.28,5.77,2a24.6,24.6,0,0,0,7.06,1.53,20,20,0,0,0,8-1.54,12.49,12.49,0,0,1,6.12-1.58c2.08.12,3.22,0,4,2.28s1.12,4.85,2,7.86c.49,1.63,1.63,5.73,2.13,7.81.4,1.66.71,3.43,1,5a40.5,40.5,0,0,1,.71,4.53,23.06,23.06,0,0,1-.46,4.62,36.75,36.75,0,0,0-.48,4.81,117,117,0,0,0,1.51,18.18c.06.4.6,2.61,1.26,4.69s1.83,6.74,2.63,10.18,1.95,9,2.64,13A87.5,87.5,0,0,1,177,96.88a43.87,43.87,0,0,0,.84,8.79c.57,2.69,1.15,4.46,1.83,6.78s1.24,3.79,1.84,6.18a27.23,27.23,0,0,1,.86,6.84c.06,2.2.23,4.67.63,7.86a109,109,0,0,0,2.75,12.42c.9,3.24,2,8,2.89,10.79a63.68,63.68,0,0,1,1.73,7.11c.4,2.13.53,3.42.75,5.07a37.5,37.5,0,0,1,.25,4.74c0,4.71-1,9.58-6,10-3.16.25-3.61-1.61-4-4.06a12.3,12.3,0,0,1,.24-2.66,21,21,0,0,0,.23-2.64c-.07-1.64-.48-2.86-2.18-2.92-1.14-.05-1.66.66-2.08,1.69a17.07,17.07,0,0,0-.85,3.62c-.17,1.16-.35,2.57-.62,3.63s-.75,1.72-1.82,1.7-1.49-.73-2-1.71a25.3,25.3,0,0,1-1.21-3.72,32.44,32.44,0,0,0-1.08-3.7c-.37-.86-.66-2-1.6-1.67-1.5.49-1.44,2.69-1.45,4.4a30.36,30.36,0,0,0,.36,3.57,33.84,33.84,0,0,1,.36,4.27,6,6,0,0,1-.84,3.52,2.16,2.16,0,0,1-2.1,1.12c-1.38-.1-2-.74-2.68-2.23a18.88,18.88,0,0,1-1.33-5.35c-.24-2-.38-4.55-.49-6.77s0-4.49-.15-6.82a44.74,44.74,0,0,0-1.57-9,46.05,46.05,0,0,1-1.32-10.38,40.15,40.15,0,0,0-1.08-9.63c-.75-2.62-1.49-3.66-3.8-4-1.05-.16-1.49.76-2,1.71a22.55,22.55,0,0,0-1.21,3.72,19,19,0,0,1-1.33,3.73,2.59,2.59,0,0,1-2.31,1.71,3.58,3.58,0,0,1-2.59-1.34,31.89,31.89,0,0,1-2.65-3c-.75-.92-1.78-2.26-2.4-3s-1.14-1.38-1.84-1.36c-1.64,0-1.67,1.63-1.73,2.88a6.22,6.22,0,0,0,.71,3.55,5.49,5.49,0,0,1,.7,3.65c-.07.89-1.2,2-2.45,2.62a4,4,0,0,0-2.37,3.63,11.27,11.27,0,0,0,.85,3.64,14.17,14.17,0,0,1,.83,4.28c0,1.66-.2,3.11-1.43,3.93s-1.94.77-3.23,1.55a7.34,7.34,0,0,0-3.2,2.8c-1.11,1.72-1.45,4.91-1.4,7.48a33.17,33.17,0,0,1-.38,5.29,2.77,2.77,0,0,1-3,2.4,3.07,3.07,0,0,1-3.17-1.93,20.83,20.83,0,0,1-1.12-4.25c-.28-1.41-.47-3-.86-4.24s-.87-1.88-2.22-2a2.26,2.26,0,0,0-1.57,1,21.44,21.44,0,0,0-1.57,2,23.18,23.18,0,0,1-1.56,2,2.32,2.32,0,0,1-1.57,1c-2-.08-2.6-1.09-2.7-2.9a12.5,12.5,0,0,1,.24-3c.18-1.11.37-1.72.61-3.11a45.06,45.06,0,0,0,.61-4.57c.15-2,.22-4.42.24-7s-.06-6.38,0-9.39a39.55,39.55,0,0,1,.75-8.39c.81-3.91,1.12-5.88,2.28-11.07s3.77-15.7,5.19-21.52a27.16,27.16,0,0,0,1-6c0-1.15-.14-1.07-.61-1.92a3.49,3.49,0,0,1-.59-2.41A25,25,0,0,1,114,91.3c.39-1.76,1.18-4,1.8-6a57.19,57.19,0,0,0,1.47-6.58c.41-2.39.55-3.85.88-6.84s.57-5.38,1.12-9.51,1.51-9.67,2.42-15.07c.58-3.46,1.23-9.59,1.56-14s.94-10.89,1.45-15.13A68.41,68.41,0,0,1,127.07,6C128.13,2.74,129,1.1,131.86.88Zm10.21,76.93c-1,0-1.48.71-1.95,1.86A31.83,31.83,0,0,0,138.79,84a47.12,47.12,0,0,0-.84,5.4c-.14,1.61-.22,3.71-.24,5.06a9.82,9.82,0,0,0,.7,4c.49,1.21.84,1.38,1,2.69.08.77-.45,1-.85,2.14s-1.12,2-.74,4.13,5,3,7.55,2.71c1.39-.17,4.39-.13,5.55-1s1.54-1.08,1.65-2.25a10.21,10.21,0,0,0-.47-3.22,25.63,25.63,0,0,1-.47-4.55c0-2.88-.07-7.23-.11-9.56a41.81,41.81,0,0,0-.47-5.51,6.27,6.27,0,0,0-.71-2.39c-.28-.58-.42-.56-.63-.56-.87,0-1.05.51-1.25,1.33s-.32,2-.49,2.89a14.49,14.49,0,0,1-.73,2.9c-.36.82-.75,1.38-1.72,1.32s-1.35-.76-1.57-1.85a24.07,24.07,0,0,1-.36-4.07,30,30,0,0,0-.25-4.06C143.14,78.66,143.09,77.82,142.07,77.81Z"/><path class="cls-1" d="M277.66.51a9.3,9.3,0,0,1,5.14,1.72,12.77,12.77,0,0,0,6.51,1.66,40.54,40.54,0,0,0,8.19-.82,25.3,25.3,0,0,1,5.73-.87,12,12,0,0,1,2.09.13A6.54,6.54,0,0,1,308,3.2a6.4,6.4,0,0,1,2.31,2.22,8.06,8.06,0,0,1,.95,4.11,12.42,12.42,0,0,1-.24,2.31c-.18.82-.32,1.44-.49,2.48s-.35,1.89-.49,3.33a39.56,39.56,0,0,0-.22,5.13,17.11,17.11,0,0,0,.86,4.6c.54,1.62,1.28,3.9,1.93,5.8s1.42,4.41,1.93,6.4a26.14,26.14,0,0,1,.85,6.17,10.41,10.41,0,0,1-1,4.67c-.68,1.52-1.34,2.58-2.08,4.07a44.48,44.48,0,0,0-2.07,4.66,19.74,19.74,0,0,0-1,6.11c0,3.37-.11,7.65-.35,10.47a58.24,58.24,0,0,0-.37,6.4,22.24,22.24,0,0,0,.73,5.28c.44,2,1.1,4.2,1.69,6.18s1.25,4.37,1.69,6.29a27.3,27.3,0,0,1,.74,5.59,7.94,7.94,0,0,1-.6,3.32c-.4,1-.79,1.66-1.22,2.59s-.83,1.73-1.22,2.7a9.87,9.87,0,0,0-.6,3.38,70.9,70.9,0,0,0,.35,7.6c.24,2.15.53,3.73.85,5.53s.62,3,.86,4.7a25.91,25.91,0,0,1,.35,4.92,10.14,10.14,0,0,1-1.85,5.29,13.43,13.43,0,0,0-1.76,7.41,5.4,5.4,0,0,0,1.49,3.44c1.08,1.26,1.47,3.45,1.41,5.61,0,1.4-.13,3.91-.37,5.63a26.14,26.14,0,0,1-1.34,5.55,12.3,12.3,0,0,1-2.45,4.15,5,5,0,0,1-3.93,1.59,5.14,5.14,0,0,1-3-1.22,26.07,26.07,0,0,1-3-2.77c-.83-.92-2.11-2.07-2.87-2.77a4.69,4.69,0,0,0-2.41-1.23,2.85,2.85,0,0,0-2.72,1.06,3.16,3.16,0,0,0-.74,2.35,16.74,16.74,0,0,0,.6,2.67,33.7,33.7,0,0,1,.34,5.64c0,2.49,0,7,0,9.13a23.62,23.62,0,0,1-.35,4.92c-.28,1.28-.3,1.54-1,2s-.93.47-1.89.38c-1.74-.16-2.66-1.65-3.23-3.55a26.78,26.78,0,0,1-1.08-6.84,32.16,32.16,0,0,1,.71-6.49,30.3,30.3,0,0,0,.74-4.61,8.85,8.85,0,0,0-.92-4.17,33.82,33.82,0,0,1-2.32-5.78,17.35,17.35,0,0,1-.39-4.65,20.23,20.23,0,0,1,1.32-6.47,23.46,23.46,0,0,0,1.33-6.21,44.49,44.49,0,0,0-.45-7.54,20.42,20.42,0,0,0-1.1-4c-.44-1.31-.71-1.49-1.12-2.67a8.32,8.32,0,0,1-.48-3.33,64.76,64.76,0,0,1,1.59-13.18A70.55,70.55,0,0,0,282.49,105c0-1.71-.06-4.46-.12-6.53s-.28-5.31-.48-7.31a31.17,31.17,0,0,0-1.19-6c-.48-1.36-.88-2.84-2.08-2.59-1.93.39-1.9,1.27-2,4s-.25,7.35-.49,11.18a84.17,84.17,0,0,1-1.58,12.24c-.87,3.65-1.85,7.67-2.8,11.18s-1.82,7-2.55,10.36a50.41,50.41,0,0,0-1.12,9.65,32.07,32.07,0,0,1-1.1,7.81c-.69,2.56-1.58,5.13-2.42,7.54s-1.74,4.75-2.43,7.07a20.78,20.78,0,0,0-1.09,6.41,14.59,14.59,0,0,0,1,4.69,22.17,22.17,0,0,1,.93,6.79,17.48,17.48,0,0,1-1,5.41c-.64,1.58-1.53,2.8-3.41,2.76s-2.38-1.63-2.41-3.39a37.78,37.78,0,0,1,.34-5,30.53,30.53,0,0,0,.37-3.61c-.15-3.52-.44-6.4-4.16-6.94-.66-.09-1.39.49-2.08.85a4.87,4.87,0,0,1-2.53.81,2.21,2.21,0,0,1-2-1.36,11.8,11.8,0,0,1-1.08-3.4c-.22-1.23-.47-2.81-.61-4.1a29.78,29.78,0,0,1-.24-3.59c0-1.39.05-2.94.12-4.51s.22-4,.36-5.51.29-3.85.36-4.89.13-2.43.12-2.7a17.36,17.36,0,0,0-2-8.31,21.14,21.14,0,0,0-4-4.61,23.79,23.79,0,0,1-3.93-4.13c-1.31-1.91-1.67-4.12-1.68-6.86,0-1.73.1-4.51.24-6.62s.39-5.27.6-7.33.51-4.8.72-6.37a37.35,37.35,0,0,0,.37-4c0-1.85,0-2.73-.75-4s-2.17-1.09-3.38-1.28a9.4,9.4,0,0,0-3.18,2,9.27,9.27,0,0,0-2.08,3.48,18.54,18.54,0,0,0-.83,6.07c0,.53.05,1.79.12,2.66s.22,2.48.36,3.47.29,2.52.36,3.36.13,1.8.12,2.31c0,2.39-.07,4.67-.24,6.88s-.2,5.6-.24,7.5A127.33,127.33,0,0,0,227.44,149c1.1,5.31,1.78,8.67,1.87,12,.1,3.75-.26,4.39-1.32,6.73s-2.73,2-4.75,2.44a7.17,7.17,0,0,1-1.68-.24,5.49,5.49,0,0,0-1.45-.24c-3,.56-3.34,2.68-3.41,5.72a55.53,55.53,0,0,0,.47,7.07,68.29,68.29,0,0,1,.48,7.12A35.65,35.65,0,0,1,216,200.5c-1,2.82-1.62,4.44-4.21,4.86-.78.13-.92-1.12-1.1-2.29a45.57,45.57,0,0,1-.34-5.75c0-.79,0-2.95,0-4,0-1.72.12-4.44.25-6s.22-4.66.24-5.48a42.22,42.22,0,0,0-.33-7.47c-.32-1.48-.16-1.4-.91-1.66s-1.44,1-2.08,1.42-1.81,1.49-2.75,1.4c-2.07-.21-2.66-1.43-2.68-3.44a68.45,68.45,0,0,1,1.55-14.22,66.41,66.41,0,0,0,1.58-12.37,68.47,68.47,0,0,0-1.64-15.07c-.88-3.8-1.64-7.19-2.21-9.39-1.14-4.36-1.65-5.75-1.72-9.64a39.76,39.76,0,0,1,.84-7.29,43.73,43.73,0,0,0,.84-7.35c0-1.34-.11-2.62-.25-4.31s-.39-4-.6-6-.47-4.56-.6-6.64-.27-3.48-.24-5.7a36.92,36.92,0,0,1,.62-5.42c.35-2.15.83-5.15,1.2-7.72s.86-5.79,1.21-8.47a61.57,61.57,0,0,0,.61-7.85,14.56,14.56,0,0,0-.37-2.7c-.21-1-.51-2.45-.72-3.61s-.53-2.74-.72-3.85a17.66,17.66,0,0,1-.37-3.17,17.23,17.23,0,0,1,1.12-5.86,25.8,25.8,0,0,0,1-8.17,10.84,10.84,0,0,0-1.2-3.78,10.54,10.54,0,0,1-1.2-3.56c0-2.69.37-5.2,2.64-6.37S207,2.38,209.78,2.2c1.18-.07,3.16,0,5.11,0a50.09,50.09,0,0,1,7.56.62,43.25,43.25,0,0,1,7.74,1.84c2.4.93,4,1.45,5.79,3.75a31.38,31.38,0,0,1,4.4,8.21,125.23,125.23,0,0,1,4,12c1.11,4,2.29,9.19,3,13.42a81.67,81.67,0,0,1,1.22,12.77c0,4.41.12,9.08.25,13.13s.52,8.86.83,12.19A72.07,72.07,0,0,0,251.22,89c.49,2.1,1.14,3.72,2.41,3.67,2.56-.11,3.06-.51,4-3.43s.9-9.11,1-12.7a43,43,0,0,0-.45-7.77c-.41-1.82-.54-1.48-.51-3a12.35,12.35,0,0,1,.78-4.15c.61-2,2.26-4.38,3.9-6.71A16.3,16.3,0,0,0,264,50.06c.32-1.77,1-4.88,1.31-7.07s.69-5.19.84-7.35a43.09,43.09,0,0,1,.73-5.89,17.47,17.47,0,0,1,1-3.33c.46-1.2,1-2.63,1.45-3.87s.95-2.73,1.33-3.87a11.34,11.34,0,0,0,.61-3.29,11.59,11.59,0,0,0-.71-4,9.43,9.43,0,0,1-.72-3.56,7.14,7.14,0,0,1,2.23-5A7.42,7.42,0,0,1,277.66.51Z"/><path class="cls-1" d="M401.9,151.37a12.15,12.15,0,0,1-1.07,4.5,12.11,12.11,0,0,0-1.09,4.31c0,1,.14,1.82.24,3.09a34.57,34.57,0,0,1,.22,4.69c-.16,2.39-.93,4-3.7,4.1a10.72,10.72,0,0,1-2.32-.36c-.85-.2-2.33-.57-3.36-.84s-2.63-.65-3.59-.84a15,15,0,0,0-2.79-.37,5,5,0,0,0-3.68,1.47,4.54,4.54,0,0,0-1.45,3.61,13,13,0,0,0,1.56,5.08,15.05,15.05,0,0,1,1.05,6.65c0,.65.12,1.51-.39,2.06a2,2,0,0,1-2.14.57c-1.1-.19-2-1.3-2.63-2.86s-1.75-4.24-2.38-6.11-1.8-4.52-2.51-6.12-1.69-2.71-3-2.84c-2.1-.2-3.41,1.23-4.39,2.45a7.56,7.56,0,0,0-1.74,3.76,4.35,4.35,0,0,0,.7,2.71,6.49,6.49,0,0,1,.72,2.4c.05,1.56-.12,3.44-.94,4.38a2.78,2.78,0,0,1-2.45,1,4.59,4.59,0,0,1-4.26-2.28,23.67,23.67,0,0,1-2.2-5.21c-.57-1.68-1-3.76-1.59-5.18s-.71-2.21-2.28-2.34c-.53,0-1.16,1.15-1.71,1.84s-1.48,1.86-2.92,1.74a7.92,7.92,0,0,1-3.47-1.81,7,7,0,0,0-3.5-1.81,3.78,3.78,0,0,0-2,.71,4.86,4.86,0,0,1-1.91.72,2.33,2.33,0,0,1-2.35-1.34,10.25,10.25,0,0,1-.86-3.15,16.27,16.27,0,0,1-.12-3.58,14.69,14.69,0,0,0-.09-2.51c-.11-1.92,0-3.06,0-4.78,0-1,.06-1.91.12-2.92s.11-2.09.12-3.17c0-1.76,0-3.57,0-5.34,0-2.59.1-4.66.25-7.4s.38-6.18.6-9.06.45-6.37.61-9.06.22-5,.25-7.34a27.44,27.44,0,0,1,.48-4.78c.28-1.57.73-3.4,1.08-4.71s.81-2.86,1.08-3.73a9.09,9.09,0,0,0,.5-2.09c-.16-2.63-1.3-3.27-3.66-3.5a4.75,4.75,0,0,0-1.68.36,5.6,5.6,0,0,1-1.69.35,1.79,1.79,0,0,1-1.83-1.44,10.1,10.1,0,0,1-.37-2.67,8.74,8.74,0,0,1,.14-2,8.55,8.55,0,0,1,.87-2.69A28.09,28.09,0,0,0,331.11,79a83.89,83.89,0,0,0,.62-9,40,40,0,0,1,1.56-11.1,33.27,33.27,0,0,0,1.6-9.52,8.17,8.17,0,0,0-.38-2.08c-.21-.8-.56-2-.84-3s-.64-2.45-.84-3.49a17.49,17.49,0,0,1-.37-3c0-1.53.12-3,.24-4.4s.26-2.74.24-4.15a19.55,19.55,0,0,0-.61-4.05,22.9,22.9,0,0,1-.6-4.49,9.44,9.44,0,0,1,.36-2.2,7.3,7.3,0,0,0,.36-2.24,7.43,7.43,0,0,0-1.21-3.12,6.73,6.73,0,0,1-1.19-3.37c.16-2.09.67-3.24,2.6-4.29a15,15,0,0,1,6.69-1.35c.43,0,1.52.07,2.17.12s2,.12,2.61.12A9.18,9.18,0,0,0,349,3.3a7.29,7.29,0,0,1,4.21-1.1,6.93,6.93,0,0,1,3.35,1.07,6,6,0,0,0,2.92,1.09,3.18,3.18,0,0,0,2.14-.73,4.43,4.43,0,0,1,2.85-.7,12.49,12.49,0,0,1,5.65,1.94,11.26,11.26,0,0,0,5.71,1.92,6.43,6.43,0,0,0,3.81-1.33,8.54,8.54,0,0,1,4.45-1.32,6.3,6.3,0,0,1,2.93.59,4.17,4.17,0,0,0,2.25.62,5.48,5.48,0,0,0,2.49-.85,5.4,5.4,0,0,1,4-.73c.77.21,1.62.78,2,2.88a45.23,45.23,0,0,1,.78,9.48c0,1.24.24,4.73.49,7.24s.8,7.16,1.2,10.31,1,7.9,1.2,10.92a78.33,78.33,0,0,1,.47,8.64c-.16,3.58-1.7,4.5-4.87,4.69-2.21.13-3.3-1.36-3.37-3.63,0-.46.05-1.48.11-2.19s.13-2.09.12-2.86.06-2.1.12-2.62.11-1.37.12-1.49c.11-3.07-.31-8.58-.44-10.8s-.42-4.66-1.66-4.92c-1.74-.37-1.77,1.11-2,2.48s-.28,3.76-.37,5.4-.36,3.9-.6,5.41-1,2.41-2.15,2.59a2.45,2.45,0,0,1-2.69-1.85c-.6-2-1-4.37-1.48-5.91a17.8,17.8,0,0,0-1-3c-1.4-.94-3.18-2.14-4.58-3a9.12,9.12,0,0,0-4.35-1.34,4.86,4.86,0,0,0-3.2,1,10.49,10.49,0,0,0-2.09,2.06c-.61.71-1.09,1.43-1.59,2.07a2.24,2.24,0,0,1-1.7,1,5.2,5.2,0,0,1-1.82-.22,3.47,3.47,0,0,0-1.37-.25c-2.7.3-4.39,1-5.34,3.84A31.27,31.27,0,0,0,354.41,49a32.36,32.36,0,0,0,1.43,9.53,29.45,29.45,0,0,0,3.5,7.18,16.65,16.65,0,0,0,4.25,4.41,6.69,6.69,0,0,0,3.8,1.54,9,9,0,0,0,1.58-.26c.64-.1,2.06-.4,2.86-.59s2.2-.46,2.85-.6,1.5-.2,1.84-.26a54.79,54.79,0,0,1,5.92-.59c1.53,0,3.31-.19,4.23-.11,1.83.15,2.26.41,3.17,1.74a7.45,7.45,0,0,1,1.1,4.46,13.59,13.59,0,0,1-1.09,3.84,12.69,12.69,0,0,0-1.07,4.6,23.14,23.14,0,0,0,.73,5c.42,1.78,1.07,4.3,1.57,6.13s1.14,4.34,1.56,5.89a20.24,20.24,0,0,1,.74,4.28,14.43,14.43,0,0,1-2,6.91c-1,1.83-2.11,3.41-3.75,3.58s-2-.71-2.49-2a33.63,33.63,0,0,1-.87-4.59,29.63,29.63,0,0,0-1.1-4.6,3,3,0,0,0-2.88-2.07,2.25,2.25,0,0,0-2.45,1.43,8.54,8.54,0,0,0-.51,3.05,15.14,15.14,0,0,1-.38,3,1.74,1.74,0,0,1-1.81,1.45,2.17,2.17,0,0,1-2-1.22,26.84,26.84,0,0,1-1.45-2.77,31.18,31.18,0,0,0-1.46-2.77c-.48-.76-.87-1.18-1.72-1.24a11.09,11.09,0,0,1-2.54-.49,6.43,6.43,0,0,0-2.53-.48c-1.81.3-3.11.11-3.17,2.55,0,1.47.31,2.1.88,4.58a53.1,53.1,0,0,1,.78,11.1,28.65,28.65,0,0,1-1.67,6.64c-.72,1.68-1.86,4.17-1.67,6,.29,2.78.84,3.9,3.17,6.11s7,3,10.71,3c.57,0,1.67,0,2.56-.12a27.89,27.89,0,0,1,3.07-.11,32.13,32.13,0,0,1,6.5,1,31,31,0,0,0,6.32,1,14.53,14.53,0,0,0,1.62-.12,10.67,10.67,0,0,1,1.84-.12,7.65,7.65,0,0,1,5.07,2.45A7.42,7.42,0,0,1,401.9,151.37Z"/><path class="cls-1" d="M617.46,1.8a4.73,4.73,0,0,1,2.55.49,6.67,6.67,0,0,1,2,1.21,7.43,7.43,0,0,0,2.09,1.22,9.26,9.26,0,0,0,3.17.49c.77,0,2.41-.15,3.31-.23a23.61,23.61,0,0,1,3.1-.23c3.25.31,5.38,1,7.61,3.5s3,5.27,3.17,8.88A15.9,15.9,0,0,1,644,20c-.26,1.15-.75,3.27-1.15,4.9s-.89,4.18-1.16,6a45.74,45.74,0,0,0-.49,6.25c0,2.7-.41,5.24-2.82,5.71-1.21.23-1.22-.15-2.17-.09s-.71-.45-1.95-.07c-2,.61-3.06,2.44-4.11,5.16A32.46,32.46,0,0,0,628,58.78a53.21,53.21,0,0,0,.79,7.67,36,36,0,0,1,.82,6.31,21.61,21.61,0,0,1-.39,4.1c-.27,2-.55,4.92-.62,7.19,0,1.08-.05,2.82-.15,3.81s-.14,1.65-.26,2.45a4.79,4.79,0,0,1-.63,1.84,11,11,0,0,1-1.47,1.79,18.42,18.42,0,0,0-3.57,5.24,27.85,27.85,0,0,0-1.79,6.31c-.48,2.62-.8,5.16-1.19,8.47s-.84,7.8-1.35,11.72c-.26,2-.83,5.17-1.28,7.51s-1.11,5.38-1.66,7.68-1.16,4.95-1.65,7-.74,3.51-1.06,5.24a44.15,44.15,0,0,1-2,7.6A56.4,56.4,0,0,0,608,170.77c-.65,4.14-1.61,11.63-1.76,16.14s-.46,16.27-.41,18.7c.24,12.16.57,26.23,1,35.56s1.2,21.42,1.44,26.77c.42,9.33.64,17.65-.78,22.73s-2.32,3.76-4.3,2-2.82-4.29-3.5-8.8A146.78,146.78,0,0,1,598.59,266c-.06-3.24-.41-13.9-.42-19.17s-.49-20.51-.43-24.49c.2-14.14,0-38.75-2.15-47.71s-1.86-2.25-4.94-4.47c-2-1.43-3.67,2.17-4.91,2.91s-3,3-4.44,3.09c-2.21.06-3-.39-4-2.09a10.59,10.59,0,0,1-1.3-5.42c-.05-1.16.21-3.68.27-4.89s.33-3.45.28-4.12c-.25-3.38-.43-4.59-2.09-7.59s-3.82-6.34-5.83-9.78c-1.1-1.88-2.93-4.85-4-7.14a16.77,16.77,0,0,1-1.87-7.29,36.68,36.68,0,0,1,1.39-8.41A38.54,38.54,0,0,0,565.5,111a79.62,79.62,0,0,0-.74-11.53c-.5-3.83-1.13-7.6-1.72-11.26s-1.19-7.21-1.71-10.71a68.39,68.39,0,0,1-.76-10,25.86,25.86,0,0,1,.4-3.8,22.28,22.28,0,0,0,.4-3.55c-.24-5.57-1.71-8.87-7.45-9.56a8.15,8.15,0,0,0-1.34.1,10.06,10.06,0,0,1-1.56.09,3.65,3.65,0,0,1-3-1.5,4.47,4.47,0,0,1-1-3.21c.1-2,1.07-3.73,2.27-5.76a16.33,16.33,0,0,0,2.23-7.58,23.72,23.72,0,0,0-1-6.86,24.78,24.78,0,0,1-1-6.78,30.59,30.59,0,0,0-.29-5.53,12.79,12.79,0,0,1-.33-3.22c.1-2.24.39-4.14,2-5.51s2.73-1.57,5-1.65a16,16,0,0,1,4.2,1.14,17.18,17.18,0,0,0,5.19,1.14,16,16,0,0,0,4.6-1,13.79,13.79,0,0,1,4.57-1c2.82.24,4.53.75,6.37,2.91a18.26,18.26,0,0,1,3.71,7.34,51.06,51.06,0,0,1,1.7,10.22c.27,3.59.36,7.86.34,11.75,0,.78-.09,2.09-.17,3.12s-.2,2.7-.28,3.77-.21,2.59-.29,3.43-.14,1.81-.15,2.29a43.5,43.5,0,0,0,.63,7.59c.39,2.28,1,4.86,1.46,6.7s1.11,3.85,1.48,5a13.58,13.58,0,0,1,.73,2.34,19.24,19.24,0,0,1-.37,3.48,28.18,28.18,0,0,0-.37,4.26,9.49,9.49,0,0,0,1.93,5.66c1.34,1.49,1.89,3.61,4.72,3,4.37-1,5-8.84,5.33-13.79.23-3.38.82-11.27.89-15.38s.28-8,.65-11.83a101.27,101.27,0,0,1,1.51-10.58,77.05,77.05,0,0,1,3.67-11.87c.86-4.85,2-11.9,3.31-16.1S614.15,2.49,617.46,1.8Z"/><path class="cls-1" d="M719.84,151.74a12.16,12.16,0,0,1-1.08,4.5,11.92,11.92,0,0,0-1.1,4.32c0,1,.13,1.82.23,3.1a33.32,33.32,0,0,1,.2,4.7c-.16,2.39-.93,4-3.71,4.1a10.33,10.33,0,0,1-2.32-.38c-.85-.2-2.33-.57-3.36-.85s-2.63-.66-3.59-.86a15,15,0,0,0-2.79-.37,5,5,0,0,0-3.69,1.45,4.61,4.61,0,0,0-1.46,3.62,13.27,13.27,0,0,0,1.55,5.1,15.11,15.11,0,0,1,1,6.67c0,.65.11,1.51-.4,2.06a2,2,0,0,1-2.15.56c-1.09-.19-2-1.31-2.62-2.88s-1.74-4.25-2.37-6.13-1.78-4.54-2.49-6.14-1.68-2.73-3-2.86c-2.1-.22-3.41,1.22-4.39,2.43a7.67,7.67,0,0,0-1.76,3.77,4.35,4.35,0,0,0,.7,2.71,6.79,6.79,0,0,1,.71,2.42c0,1.56-.12,3.45-1,4.38a2.78,2.78,0,0,1-2.46,1,4.59,4.59,0,0,1-4.25-2.31,23.12,23.12,0,0,1-2.19-5.23c-.56-1.68-1-3.77-1.58-5.19s-.7-2.23-2.27-2.36c-.53,0-1.17,1.15-1.72,1.84s-1.48,1.85-2.92,1.73a8,8,0,0,1-3.48-1.83,6.82,6.82,0,0,0-3.5-1.82,3.62,3.62,0,0,0-1.95.7,4.93,4.93,0,0,1-1.92.71,2.36,2.36,0,0,1-2.35-1.34,10.15,10.15,0,0,1-.85-3.17,15.74,15.74,0,0,1-.11-3.59,13.83,13.83,0,0,0-.09-2.52c-.1-1.92,0-3.07,0-4.79,0-1,.07-1.91.12-2.93s.12-2.1.13-3.17c0-1.77,0-3.58,0-5.36,0-2.6.11-4.67.26-7.41s.4-6.21.63-9.09.47-6.39.63-9.08.23-5,.27-7.36a27.42,27.42,0,0,1,.49-4.79c.29-1.58.74-3.4,1.1-4.72s.82-2.86,1.09-3.74a8.86,8.86,0,0,0,.5-2.09c-.15-2.63-1.28-3.28-3.65-3.52a5,5,0,0,0-1.68.35,5.43,5.43,0,0,1-1.69.35A1.78,1.78,0,0,1,645.75,95a9.68,9.68,0,0,1-.36-2.67,9.33,9.33,0,0,1,.14-2,8.68,8.68,0,0,1,.89-2.7,28.77,28.77,0,0,0,2.79-8.67,83.39,83.39,0,0,0,.68-8.91,39.82,39.82,0,0,1,1.65-11,33.79,33.79,0,0,0,1.69-9.42,7.63,7.63,0,0,0-.35-2c-.2-.8-.53-2-.8-3s-.6-2.42-.79-3.44a17.09,17.09,0,0,1-.33-3c0-1.5.16-2.92.29-4.34s.3-2.68.32-4.06a18.45,18.45,0,0,0-.52-3.94,21.77,21.77,0,0,1-.5-4.38,8.68,8.68,0,0,1,.41-2.15,6.83,6.83,0,0,0,.39-2.18A7,7,0,0,0,650.19,14,6.59,6.59,0,0,1,649,10.61c.18-2.09.67-3.26,2.58-4.33a14.59,14.59,0,0,1,6.63-1.42c.42,0,1.5,0,2.15.11s2,.1,2.59.09A9.17,9.17,0,0,0,667.83,4,7.28,7.28,0,0,1,672,2.82a6.78,6.78,0,0,1,3.31,1A5.89,5.89,0,0,0,678.22,5a3.27,3.27,0,0,0,2.13-.74,4.49,4.49,0,0,1,2.85-.7,12.3,12.3,0,0,1,5.62,1.92,11.07,11.07,0,0,0,5.68,1.92A6.4,6.4,0,0,0,698.3,6a8.68,8.68,0,0,1,4.47-1.3,6.32,6.32,0,0,1,2.92.6,4.12,4.12,0,0,0,2.24.62,5.46,5.46,0,0,0,2.49-.84,5.4,5.4,0,0,1,4-.71c.77.21,1.62.78,2,2.88a45,45,0,0,1,.73,9.48c-.06,1.24.22,4.72.46,7.24s.76,7.15,1.15,10.3.92,7.9,1.15,10.92a79.94,79.94,0,0,1,.43,8.63c-.18,3.59-1.73,4.5-4.89,4.67-2.22.12-3.3-1.38-3.37-3.66,0-.45.07-1.47.13-2.18s.13-2.09.13-2.86.07-2.09.13-2.61.12-1.38.13-1.5c.12-3.06-.27-8.57-.39-10.79s-.4-4.66-1.63-4.93c-1.74-.37-1.78,1.11-2,2.48s-.3,3.75-.4,5.39-.37,3.9-.62,5.4-1,2.41-2.16,2.58A2.46,2.46,0,0,1,702.64,44c-.59-2-1-4.37-1.45-5.91a18.34,18.34,0,0,0-1-3c-1.4-.94-3.17-2.14-4.57-3a9,9,0,0,0-4.33-1.35,5,5,0,0,0-3.19.94,10.82,10.82,0,0,0-2.11,2c-.62.71-1.11,1.41-1.61,2a2.31,2.31,0,0,1-1.71,1,5.44,5.44,0,0,1-1.82-.23,3.42,3.42,0,0,0-1.36-.25c-2.69.28-4.39,1-5.38,3.77a30.1,30.1,0,0,0-1.34,9.19,31.37,31.37,0,0,0,1.32,9.42,28.82,28.82,0,0,0,3.44,7.13,16.3,16.3,0,0,0,4.21,4.39,6.76,6.76,0,0,0,3.79,1.53,8.65,8.65,0,0,0,1.58-.24c.64-.1,2.06-.4,2.86-.59s2.2-.45,2.86-.59,1.5-.21,1.83-.26a54.86,54.86,0,0,1,5.92-.58c1.54,0,3.31-.18,4.23-.1,1.84.16,2.27.42,3.17,1.76a7.39,7.39,0,0,1,1.09,4.47,13.8,13.8,0,0,1-1.1,3.85,12.9,12.9,0,0,0-1.08,4.6,23,23,0,0,0,.72,5c.42,1.79,1,4.32,1.55,6.17s1.13,4.35,1.55,5.91a20.13,20.13,0,0,1,.73,4.29,14.59,14.59,0,0,1-2,6.92c-1,1.82-2.12,3.41-3.77,3.58s-2-.73-2.48-2.06a35.56,35.56,0,0,1-.86-4.61,29.73,29.73,0,0,0-1.09-4.61,3,3,0,0,0-2.87-2.09,2.25,2.25,0,0,0-2.46,1.43,8.51,8.51,0,0,0-.52,3,14.55,14.55,0,0,1-.39,3,1.73,1.73,0,0,1-1.81,1.44,2.15,2.15,0,0,1-2-1.23,28,28,0,0,1-1.45-2.78c-.43-.9-1-2-1.44-2.79s-.88-1.18-1.73-1.24A11.78,11.78,0,0,1,684,103a6.47,6.47,0,0,0-2.53-.5c-1.81.3-3.11.1-3.17,2.55-.05,1.47.29,2.1.86,4.6a52.2,52.2,0,0,1,.75,11.13,28.22,28.22,0,0,1-1.68,6.64c-.73,1.69-1.88,4.18-1.69,6,.28,2.78.84,3.92,3.16,6.14s7,3.07,10.71,3c.57,0,1.67,0,2.57-.1a27.7,27.7,0,0,1,3.06-.11,32.36,32.36,0,0,1,6.51,1,30.24,30.24,0,0,0,6.32,1,12.6,12.6,0,0,0,1.62-.11,9.83,9.83,0,0,1,1.84-.1,7.63,7.63,0,0,1,5.07,2.47A7.44,7.44,0,0,1,719.84,151.74Z"/><path class="cls-1" d="M818,162.73a7.7,7.7,0,0,1-2.16,5.76,23.86,23.86,0,0,1-4.74,3.57,40,40,0,0,0-4.63,3.08,5.18,5.18,0,0,0-2.08,4.35,11.21,11.21,0,0,0,.5,2.58,23.84,23.84,0,0,1,.47,4.67,46,46,0,0,1-1.3,10.45c-.72,2.44-1.22,4.51-3.32,4.74s-2.12-2.18-2.2-3.85a49,49,0,0,1,.23-5.1c.11-1.3.24-2.46.24-3.56,0-1.75-.11-3.12-.24-4.8s-.47-3.86-.72-5.42-.78-3.41-1.07-4.58-.84-1.88-1.55-2a3.75,3.75,0,0,0-2.47.55,6.91,6.91,0,0,0-1.6,1.21,13.86,13.86,0,0,0-1.12,1.23,1.76,1.76,0,0,1-1.46.6,2.33,2.33,0,0,1-1.48-.4c-.52-.4-.75-.6-.71-1.65a23.35,23.35,0,0,1,.74-3.89,23.49,23.49,0,0,0,.7-5.54,33.39,33.39,0,0,0-2.91-12.32,110.23,110.23,0,0,1-4.92-12.28,33.13,33.13,0,0,1-1.64-8.37,10.85,10.85,0,0,1,.23-3A19.83,19.83,0,0,0,779,126a13.94,13.94,0,0,0-2.4-7.49,12.75,12.75,0,0,1-2.44-6.25,10.23,10.23,0,0,1,.46-4,11.89,11.89,0,0,0,.48-3.72c0-1.4-.63-2.67-2.16-2.62a5,5,0,0,0-3.6,1.26c-1.31,1-1.55,3.58-1.55,5.26a14.51,14.51,0,0,0,.35,3.84,7,7,0,0,1,.38,2.22c0,.66-.1,1-.47,1.24a1.36,1.36,0,0,1-1,.26c-1-.08-1.37-.63-1.71-1.6s-.59-2.34-.85-3.37a28.27,28.27,0,0,0-.75-3.25c-.35-.89-.39-1.61-1.66-1.43s-1.54,2.9-1.36,4.48c0,.27.11,2.09.24,3.12s.3,3.52.36,4.87.24,3.63.36,4.77.25,2.1.24,2.82a37.5,37.5,0,0,1-.24,4.08c-.15,1.83-.39,4-.61,6.19s-.47,5.06-.6,7.36-.26,4.85-.23,7a39.43,39.43,0,0,0,1.34,9.77,48.41,48.41,0,0,1,1.32,10.32,70.62,70.62,0,0,1-.34,9c-.29,2.28-.93,2.31-2.29,2.6s-2.11-.54-2.7-1.52a12.84,12.84,0,0,1-1.11-3.39,33.56,33.56,0,0,0-.87-3.39c-.39-1-.82-1.61-2-1.57a5.58,5.58,0,0,0-4.13,2.31,8.06,8.06,0,0,0-1.93,5,32.27,32.27,0,0,0,.69,6.09,31.65,31.65,0,0,1,.73,4.21c-.08,2.32-1.22,2.41-2.9,2.58a1.84,1.84,0,0,1-2.18-1.56,18.39,18.39,0,0,1-.25-3.36c0-.58.08-1.89.11-2.75s.17-2.34.12-3.22a17.76,17.76,0,0,0-.66-5.11c-.62-2-3.06-3.82-4.93-4.9-1.44-.83-3.39-2.18-3.85-3.59a8,8,0,0,1-.52-3,7.18,7.18,0,0,1,.61-2.46c.33-1,1-2.51,1.44-3.6s1.11-2.81,1.44-3.83a11.47,11.47,0,0,0,.61-2.92,36.27,36.27,0,0,0-.72-6.88c-.42-2.27-1-5-1.45-7s-1-4.57-1.44-6.14a19.47,19.47,0,0,1-.74-4,42.94,42.94,0,0,1,.71-7.76c.42-2.52,1-5.3,1.45-7.51s1-4.6,1.44-6.29a17.84,17.84,0,0,0,.75-4.07,42.51,42.51,0,0,0-.61-6.83c-.34-2.51-.91-5.73-1.32-8.2s-1-5.68-1.32-7.69a32.92,32.92,0,0,1-.61-5.26,26.17,26.17,0,0,1,2.67-11,29.38,29.38,0,0,0,2.66-11.3,32.33,32.33,0,0,0-1.89-10.11c-.92-2.72-2-5-2.41-7.1a45.4,45.4,0,0,0-1.76-6.91A20.74,20.74,0,0,1,732,22.2a30.56,30.56,0,0,1,.71-6.13,36.75,36.75,0,0,0,.72-6.37,9.42,9.42,0,0,0-.49-2.3,10.17,10.17,0,0,1-.47-2.76A3.3,3.3,0,0,1,734,1.73a5.44,5.44,0,0,1,3.08-1,7.08,7.08,0,0,1,2.57.6c.91.34,2.25.86,3.25,1.2s2.38.88,3.24,1.2a7.32,7.32,0,0,0,2.32.62,26.23,26.23,0,0,0,5-.6,30,30,0,0,1,5-.6c3.36,0,6.51.28,9.78.6s6.47.58,9.75.61c0,0-.23,0-.18,0A91.2,91.2,0,0,1,796,9.62a39.45,39.45,0,0,1,10.33,6.43,14.77,14.77,0,0,1,4.5,6.46,27.23,27.23,0,0,1,1.51,5.4c.8,3.64,1.15,6.17,1.64,9.64a68.48,68.48,0,0,1,.6,10.13,34.59,34.59,0,0,1-1.32,7.67,33.9,33.9,0,0,0-1.33,7.75c-.07,3.7-.35,7.53-.74,11.09s-.68,7.79-.73,11a13.66,13.66,0,0,0,.35,3.69,9.67,9.67,0,0,1,.37,2,5.57,5.57,0,0,1-1.34,3.8,3.6,3.6,0,0,1-3.07,1.59c-1.43,0-2.59-1.36-3.38-2.52s-2-2.49-3.35-2.52c-1,0-1.23.36-1.25,1.2a8.42,8.42,0,0,0,1.8,5,8.57,8.57,0,0,1,1.81,5,7.78,7.78,0,0,1-.6,2.95,10.17,10.17,0,0,0-.6,3.41,17.14,17.14,0,0,0,1.42,6c.92,2.2,1.85,4.32,2.67,6.09a20.9,20.9,0,0,1,1.51,4.06,27.6,27.6,0,0,1,.73,4.73c.17,1.66.28,3.82.37,5.55s.15,3.72.24,5.33a11.82,11.82,0,0,0,.85,4.07,21.15,21.15,0,0,0,2,3.82c.89,1.41,2.07,3.31,3,4.83s2.06,3.58,2.78,5.06A11.39,11.39,0,0,1,818,162.73ZM783.88,60.6c0-2.68-.06-5.92-.8-7.61a8.31,8.31,0,0,1-.89-3.39,12.35,12.35,0,0,1,.33-3.81,8.6,8.6,0,0,0,.37-2.38c-.18-3.1-.62-5.8-2.48-8.28s-4.16-3.34-7.32-3.4A3.39,3.39,0,0,0,770,34.29a16.07,16.07,0,0,0-1,5.22c0,.49.06,1.64.11,2.14s.11,1.66.12,1.89c.07,1.28-.26,2.64-1.41,2.72s-1.56-.44-2-1.31A20.35,20.35,0,0,1,765,42a14.45,14.45,0,0,0-1-2.89c-.47-.79-.78-1.48-1.87-1.31s-1.25,1.84-1.16,3.31c0,.34.11,2.26.24,3.48s.39,4.13.6,5.7.47,4.42.6,5.71.24,2.93.25,3.51a11,11,0,0,1-.6,3.91,10.72,10.72,0,0,0-.6,3.55c0,2,1,3,2.88,3.17a4.66,4.66,0,0,0,2.32-.47,3.69,3.69,0,0,1,1.87-.47,2.4,2.4,0,0,1,1.83,1.1c.57.69,1.2,1.64,1.82,2.42a15.31,15.31,0,0,0,2.08,2.41,3.09,3.09,0,0,0,2.58,1.08c2.76-.35,4-1.75,5.24-4.6S783.82,63.61,783.88,60.6Z"/><path class="cls-1" d="M573.67,337.68c-.09-.55-.17-1-.25-1.43s.05-1,.05-1.55a27.84,27.84,0,0,0-.62-5.94c-1.92-6.75-5.16-6.17-3.23-19.17,0,0-9.41,8.57-10.86,25.11a23,23,0,0,0-.06,2.61h0s-1.31,1.56-.44,2.73c0,0,.48.62.86.58a18.07,18.07,0,0,0,.55,2.05q0,.17-.09.39c-.11.51.21.58.44.56a10.41,10.41,0,0,0,3.9,5.13c-.12.49-.16,1.08.34,1.25a1.06,1.06,0,0,0,.74,0c0,.65.15,1.22.5,1.36,0,0,1.23.47.88-2a3.58,3.58,0,0,0,1.38-.44c.06.46.19.82.46.93,0,0,1.24.46.88-2l0-.06a.61.61,0,0,0,.27.26s1.16.43.91-1.72c.2-.29.39-.6.58-.93.06.45.2.8.46.91,0,0,1.27.48.86-2-.07-.48-.14-.89-.21-1.27l.18-.5a.71.71,0,0,0,.35.42s1.26.47.86-2c-.07-.46-.14-.85-.2-1.22C573.52,339.65,573.92,339.25,573.67,337.68Z"/><path class="cls-1" d="M563.55,326.2c-.29-1-.78-.93-.49-2.9a6.1,6.1,0,0,0-1.64,3.8c-.11,1.21.5,2.23,1.11,2.23s1.11-1,1.11-2.23A4.29,4.29,0,0,0,563.55,326.2Z"/><path class="cls-2" d="M563.49,326.21c-.27-1-.77-.92-.49-2.77a6,6,0,0,0-1.51,3.61c-.1,1.14.46,2.09,1,2.09s1.05-.93,1.05-2.09A4.41,4.41,0,0,0,563.49,326.21Z"/><path class="cls-1" d="M385.3,236.41c.09-.55.17-1,.25-1.43s-.05-1-.05-1.55a27.84,27.84,0,0,1,.62-5.94c1.92-6.75,5.16-6.17,3.23-19.18,0,0,9.41,8.58,10.86,25.12a23,23,0,0,1,.06,2.61h0s1.32,1.55.45,2.72c0,0-.48.63-.86.58a17.52,17.52,0,0,1-.55,2.05q0,.18.09.39c.11.51-.21.58-.44.57a10.33,10.33,0,0,1-3.9,5.12c.12.49.16,1.08-.34,1.26a1.08,1.08,0,0,1-.74,0c0,.66-.15,1.22-.5,1.37,0,0-1.24.46-.88-2a3.44,3.44,0,0,1-1.38-.45c-.06.46-.19.82-.46.93,0,0-1.24.47-.88-2l-.05-.05a.54.54,0,0,1-.27.25s-1.16.43-.91-1.71c-.2-.3-.39-.61-.58-.94-.06.45-.2.81-.46.92,0,0-1.27.47-.87-2,.08-.49.15-.89.22-1.28l-.18-.5a.66.66,0,0,1-.35.42s-1.27.48-.86-2c.07-.46.14-.85.2-1.22C385.45,238.38,385.05,238,385.3,236.41Z"/><path class="cls-1" d="M395.42,224.93c.29-1,.78-.94.49-2.91a6.11,6.11,0,0,1,1.64,3.81c.11,1.21-.5,2.23-1.11,2.23s-1.12-1-1.12-2.23A4.2,4.2,0,0,1,395.42,224.93Z"/><path class="cls-2" d="M389.55,223.85c.45-.9.93-.77,1-2.63a6,6,0,0,1,.81,3.83c-.11,1.14-.85,2-1.42,1.86s-.85-1.12-.63-2.25A3.67,3.67,0,0,1,389.55,223.85Z"/><path class="cls-3" d="M501.42,337c-59.68,8.9-54,1.2-122.13,20-15.11,4.17-38.21,15.22-49.09,22-39,24.26-54.24,60.34-78.12,87.08h-.49l-1.67,0-1.51,0-.85,0h-.28l-.53,0-1.48.06-.47,0-.44,0h-.24l-.39,0-.63.06-.78.08-.55.06-.18,0-.2,0-.33.05-.51.08-.85.17-.26.06-.18.05-.94.25-.3.09-.77.26-.2.07-.27.1-.31.13-.16.06-.23.09-.19.08-.3.12-.26.12c-.8.35-1.66.76-2.63,1.23l-.21.1c-1.12.55-2.38,1.19-3.85,1.93a33.58,33.58,0,0,0-3.5,2l-.6.4-.86.6-.82.6-1.28,1-.25.19-.44.34-.12.09c-.77.59-1.54,1.16-2.34,1.69l-.44.29-.33.21-.17.1a17.77,17.77,0,0,1-1.62.88h0l-.57.27-.06,0-.55.23-.12.05q-.88.36-1.89.66l-.32.1-1.27.33-.35.07c-.28.07-.56.12-.85.18l-.59.1-.63.11-.72.1-.2,0-.52.06-.23,0-.48.05-.24,0-.49,0-.21,0-.51,0h-.2l-.53,0h-.16l-.58,0h-.12l-.62,0h-.07l-.67,0h0c-4.31.14-8.76-.06-13.3-.11A37.94,37.94,0,0,0,200.45,477c37.39-28.57,56.71-30.35,63.67-34.93,1.61-1.06,9.09-12.87,6.25-13-20.32-.8-17.67,3.81-29,10-8.33,4.52-20.43,12.65-30.87,13.92-15.4,1.88-28.71-5.31-45.89,6.66-.82.58-3,.91-5.47,1.25q-.65-2.39-1.42-4.7c10.4-2.13,23-7.66,31.78-8.73,56.24-6.81,80.37-33.48,80.37-38.59,0-1.89-.41-2.41-3.25-2.48-20.36-.52-23.56,7.19-35,13.26-8.41,4.48-17.46,5.15-28.14,8.36-12.19,7-30.32,6.59-50.76,4.7a36.85,36.85,0,0,0-8.34.9,34.22,34.22,0,0,0-4.28-3.51c11.9-11.35,24.79-20,36.71-20.72,10.06-.58,19.29-8.53,28.51-9.36,12.52-1.13,25,3.79,39.83-7.67,2.07-1.61,1.75-2.47.5-4-3.68-4.63-80.43-10.21-126.06,20.57a9.28,9.28,0,0,0-2.71-1.64c-7.44-1.86-9.08-1.18-14.54-1.66-6.21-.56-13.31,2.52-15.85,6.8-3.07,5.2-16.71,8.4-18,13.07-.78,2.61-7.38,9.19-7.44,10.92-.09,2.55.62,3.49.57,4.63a26.37,26.37,0,0,0,.06,3.71l-1.17.27-.44.11-1,.29c-1.09.32-2,.64-2.92,1l-.16.06-1.28.48-.11,0-1,.36-.14,0-.46.16-.35.11-.82.27c-5.68,1.77-9.81,6.57-9.28,10.67.29,2.17-1.4,4.78-3.24,7.35L38.51,467c-2.11,2.92-4.06,5.71-3.14,7.69h0a1.71,1.71,0,0,1,.07.18v0a1.33,1.33,0,0,1,0,.19v0a1.6,1.6,0,0,1,.05.21v0c0,.07,0,.14,0,.22v0l0,.22v0a1.94,1.94,0,0,1,0,.24v.07c0,.08,0,.15,0,.24v.08c0,.08,0,.16,0,.24v.1a1.28,1.28,0,0,1,0,.19v.68c0,3-.55,6.83.18,7.75,1.53,1.94,2.74,2.4,3.41,3.26a30.35,30.35,0,0,0,2.62,3,19.47,19.47,0,0,0-6,3.25c-6.07,6.73-5.79,8.42-8.95,13.52-3.59,5.8-2.21,13.13,3,16.35,6.3,3.9,4.94,17.47,11.25,19.59,3.5,1.22,10.26,8.74,12.8,9.13,3.71.56,5.4.85,7.07.32,9.21-2.91,15.49-4.87,19.58-6.3-.67,5.13-.6,10.86.27,11.93,2.56,3.14,10.37,14,25.11,12.78,17-1.41,39.93-7,44.84-7.15,56.14-1.9,48.86-21.38,36.45-23.11-9.13-1.28-24,5.93-34.68,7-15.07,1.45-23.84,5.86-36.68-10.41.9-.28,1.79-.57,2.68-.87,3.9,4.2,9.62,8.9,11.13,9.71,8.42,4.46,54.47-16.6,63.16-15.65,43.46,4.74,45.78-10.21,38.82-19,16.83-3.34,30.68-7.55,40.59-11.67,4.09-1.7,7.85-3.47,11.34-5.31,15.69,4,31.92-1,51.76-12.11,14.8-8.25,38.47-1.9,48.74-15.44,11.49-15.13,13.2-1.14,38.75-27,1.5-1.52,2.53-6,.21-6.24-5.47-.48-25.6,6.05-39.94,14.37-17.13,9.95-32.75,16.5-56.37,18.54a16.69,16.69,0,0,0-6.55,2,52.63,52.63,0,0,1-5.63,2.72c3.87-3.84,7.49-7.71,11.2-11.56a69,69,0,0,0,8.7-4.64c8-4.94,21.54,0,26.77-8.55,5.85-9.57,7.37-.33,20.7-16.48.78-.95,1.17-3.88-.14-4.09-3.09-.49-14.14,3.13-21.86,8.13a68.72,68.72,0,0,1-13.3,6.95c12.28-8.84,28.48-16.69,53.7-22.37,11.4-1.93,25.57-4.17,42-6.47,13.22-1.28,28.07-2.18,44.85-2.63,1.8,0,27.11-4.33,35.77-22.35C532.61,368.57,504,336.63,501.42,337ZM149,519.2l4.27.11c-1.66.27-3.42.58-5.3,1C148.31,519.91,148.65,519.55,149,519.2Zm42.1,1.13c-4.24-.44-7.86-.94-11.32-1.36,7.46-.36,14.66-.92,21.56-1.65C198,519.32,194.54,520.69,191.09,520.33ZM161.9,487.71c0-.62.08-1.25.1-1.88q1.84.1,3.87.12C164.55,486.46,163.23,487,161.9,487.71Z"/><path d="M510.05,284.47c-1.37-2.07-1.12-10.89,1.41-17.71,3-8.15,4.16-15.21.87-24.74a4.42,4.42,0,0,1,0-2.85c2.19-6.47-.41-11.74-5.1-16.21-.72-.69-.45-1.23.53-1.76a58.75,58.75,0,0,1,7.38-3.43,2.5,2.5,0,0,1,2.7.23c9.4,6,10.09,13.89,6.25,25.08-2.39,7,6.27,15.32-.37,21.31-7.43,6.7,1.83,5.33-9.71,19.09C513.31,284.28,510.63,285.34,510.05,284.47Z"/><path class="cls-4" d="M511.07,284c-1.9-.61-.4-12.42,1.52-18.84,2.29-7.68,3.16-14.32.66-23.31a4.76,4.76,0,0,1,0-2.67c1.77-6.13.65-11.36-2.9-15.57-.55-.64-.34-1.16.4-1.65a41.63,41.63,0,0,1,5.6-3.23,1.58,1.58,0,0,1,2,.21c9.51,7.79,7.74,13.94,4.75,23.63-2,6.52,5.2,16.3-.29,21.48-6.69,6.32-1.21,9.16-8.69,18.36C513.6,283.1,512,284.26,511.07,284Z"/><path d="M529.41,311.76c-2-3.76-1.67-19.8,2.1-32.21,4.51-14.82,6.23-27.67,1.31-45a9.59,9.59,0,0,1,0-5.18c3.27-11.77-.62-21.35-7.63-29.49-1.08-1.25-.67-2.24.79-3.2a83.45,83.45,0,0,1,11-6.23c1.66-.73,2.49-.79,4,.41,14.05,10.86,15.08,25.27,9.35,45.64-3.58,12.71,9.37,27.86-.56,38.75-11.11,12.18,2.74,9.69-14.52,34.72C534.29,311.43,530.27,313.36,529.41,311.76Z"/><path class="cls-5" d="M458.72,393.42c-8.85-44.81-14.55-38.74-16.39-92.17-.41-11.86,3.41-31.22,6.7-40.75C471.67,195,561.15,180.16,508.91,92.89c-1.23-2,16.39-8.36,17.79-5.56,20.6,41.25,24.58,79.29,22,99.66-7.87,61.12-70.31,50.41-23.6,176.8.47,1.29,3.74,20.44-10.94,31.37C497.89,407.24,459.11,395.37,458.72,393.42Z"/><path class="cls-6" d="M463.94,390.43C386.67,195.72,576.46,212.91,515.4,93.92c-1-2,10.72-2.75,11.9,0,69.47,162.31-68.61,106.44-6.94,263.14.49,1.23,4.71,26.72-8,35.49C497.58,402.77,464.65,392.21,463.94,390.43Z"/><g class="cls-7"><path d="M526,152c.62.67,1.22,1.35,1.8,2.05a80.41,80.41,0,0,1,9.74,14c.92,1.75,1.75,3.55,2.53,5.37,1.49,3.51,3,7,4.28,10.59.5,1.42,1,2.84,1.44,4.28,4.13-20.69.93-49-18.5-94.41-1.18-2.75-12.94-2-11.9,0C527.68,117.87,529.81,136.29,526,152Z"/></g><g class="cls-8"><path class="cls-9" d="M504.71,275.28c-7.44-10.74-6.56-43.5-3.59-81.32-32.86,36.75-87.83,80.47-37.18,196.47.77,1.76,33.64,12.34,48.44,2.12,12.69-8.77,8.29-34.2,8-35.49A827.89,827.89,0,0,1,504.71,275.28Z"/></g><g class="cls-10"><path d="M517.79,350.33c-3.95-6.22-33.58-34.79-42.13-86.23-2.53-15.18,1.82-38.49,2.72-44.61-30.8,35.24-53.83,71.68-14.44,170.94.71,1.78,33.64,12.34,48.44,2.12,12.69-8.77,8.47-34.26,8-35.49C515.19,343.91,520.39,360.74,517.79,350.33Z"/></g><path class="cls-11" d="M468.81,43.32c-22.78,14.85-45.28,44-33.59,62s61.12,14.45,83.9-.4S543,59.07,532.87,39.82C522.88,20.88,491.59,28.46,468.81,43.32Z"/><path class="cls-12" d="M465.83,37.31c-23.07,15-45.77,44.72-33.78,63.11s62.2,15.1,85.27.06,24-46.65,13.6-66.38C520.66,14.7,488.91,22.27,465.83,37.31Z"/><path d="M521.91,36.17c-15.07-4.47-21.42-3-31.52-2.41-10.95.69-13.89,0-17.05-5-1.39-2.33.09-7.37.79-8.29,4.66-6.09,6.35-6.34,10.3-9.94,4.49-4.09,11.89-5,16.46-2.22,5.56,3.44,18.11-1.12,22,2.81,2.18,2.16,11.32,5,12.43,6.68,1.61,2.49,2.38,3.62,2.36,4.95C537.18,56.34,537.87,40.9,521.91,36.17Z"/><path d="M439.4,67.19c-7,10.66-7.66,14.83-9.41,22.7-1.9,8.54-4.66,12.29-9.46,13.71-2.22.59-6-1.56-6.59-2.28-3.94-4.8-3.76-6.15-5.81-9.91-2.34-4.27-1.46-10.13,1.88-13.07,4.07-3.56,3.16-14.11,7.24-16.28,2.26-1.24,6.62-7.68,8.26-8.18,2.4-.74,3.51-.48,4.57-.82C444.45,48.51,446.86,55.91,439.4,67.19Z"/><path d="M460,209.7c4.88-1.36,23.32-25.59,13.47-67.4-2.08-8.83,1.6-24.73-3.16-32.1-1.39-2.16-8-8-11.42-7.47-11.18,1.8-5.05-1.44-11.07,5.48-1.85,2.13-.15,10,.88,11.84,7.74,14,13.38,26.84,10.27,37.35,0,8.45,2,15.06.21,22.24-2.48,9.74-8.9,14.06-2.49,28.4C457.55,210.05,458.16,210.2,460,209.7Z"/><path d="M490,196.8c2.34-6.17-1.57-20.38,14.82-54.54,4.65-9.69.35-25.55-4.58-32.87-1.45-2.15-8.8-9.82-12.36-9.27-11.61,1.78-4.45,2.46-10.72,9.33-1.92,2.11,1.46,10,.67,11.93-6.44,15.39,4.29,23,7,34.4,1.82,7.76-2.42,18.53-4.31,25.65-2.57,9.67-7.74,9-1.07,23.25C480.35,206.67,489.45,198.22,490,196.8Z"/><path d="M519.83,181.5c1.94-6.17.08-13.59,14.57-46.6,3.55-8.09.1-26.19-4-33.51C529.22,99.24,521,90.15,518.1,90.7c-9.6,1.78-4.39,2.51-9.57,9.39-1.58,2.11-3.21,7.12-3.87,9-5.32,15.39,5.25,26.16,7.48,37.6,1.5,7.76-2.64,9.87-4.21,17-2.12,9.67-2.25,8.48,3.26,22.72C512,188.42,519.38,182.93,519.83,181.5Z"/><path d="M554.87,122.37c-3.43-5.92,3.28-44.26-3.43-49.06-2-1.42-17.24-8.09-19.55-6.32-7.55,5.76-3.37,5.37-4.88,13.78-.46,2.58,3.47,10,3.73,12,2.06,16.12,6.6,20.67,12.7,31.36,3.89,6.83-6.18,17.28-4.45,24.35C541.34,158.06,579.31,164.63,554.87,122.37Z"/><path class="cls-13" d="M522,34.72c-14.23-4.16-21-3-30.56-2.45-10.34.64-13.35,1.1-16.33-3.55-1.32-2.17.08-6.85.74-7.7,4.41-5.67,6-5.9,9.73-9.24,4.25-3.81,11.23-4.7,15.55-2.07,5.25,3.2,17.1-1,20.75,2.61,2.06,2,10.69,4.63,11.74,6.21,1.52,2.32,2.25,3.36,2.23,4.6C535.41,54.36,537.08,39.11,522,34.72Z"/><path class="cls-13" d="M437.5,68.46c-6.65,9.9-7.25,15.25-8.9,22.56-1.8,7.94-2.1,10.3-6.63,11.61-2.1.56-5.67-1.44-6.23-2.11-3.72-4.46-3.55-5.72-5.49-9.21-2.2-4-1.38-9.42,1.78-12.15,3.84-3.31,3-13.11,6.84-15.13,2.13-1.15,6.25-7.14,7.8-7.6,2.26-.69,3.31-.45,4.32-.76C444.56,51.44,444.54,58,437.5,68.46Z"/><path d="M514.47,65a10.72,10.72,0,0,1-4.65,5.88c-3.49,2.16-8.12,2.57-12,2.06-6.25-.81-8.65-10.12-6.77-14.46s13.55-17.74,18.62-12.37c1.72,1.82.82,5.24,2.56,6.45C515.88,55.12,516.11,60.06,514.47,65Z"/><path d="M461.71,46.16c-1.73,1-.26.16-8.06,6.32-2.8,2.22-1.65,3.07-1.36,6.54.47,5.54,9.06,5.79,13.12,3.54,1.49-.83,4.91-1.38,5.07-3.56.51-6.69,10-19,6.62-18.16-2.94.71-3.94,1-5.84.9C466,41.52,464.86,44.28,461.71,46.16Z"/><path d="M480.19,72.05c-1.7,2.21-2.72,6.32-4.91,5.54s-1.66-5.67-1.48-7.41,5-6.29,5.13-4C479.25,72.13,481.63,70.19,480.19,72.05Z"/><path d="M465.09,68.09c-1.13,2.43-3.48,4-1.9,5.4s6-2.62,7.35-3.59,2.67-5.79.72-4.81C466.1,67.69,466.05,66.05,465.09,68.09Z"/><path d="M448.13,71.65c1.63.5,6.76,2.39,6.19,6.55a1,1,0,0,1-.35.64,7.6,7.6,0,0,0-2.44,3.51,1.64,1.64,0,0,0,0,.23c0,.89.24,6.54,2.15,7.66a1,1,0,0,0,.56.13c1.1,0,5.95-.13,7.5,1.32a1.05,1.05,0,0,0,1.15.15c1.35-.63,4.2-1.81,6.3-1.56a1.06,1.06,0,0,0,.94-.39c.73-.86,2.31-2.53,3.43-2,0,0,4,1.59,5.83.57a1,1,0,0,1,.56-.12,5.33,5.33,0,0,0,3.28-1,1,1,0,0,1,.78-.16,39.66,39.66,0,0,0,5.12.74,14.22,14.22,0,0,1,3.7,0,1.06,1.06,0,0,1,.8.85,3.36,3.36,0,0,1-.33,2.4,1.09,1.09,0,0,0-.15,1.09,2.63,2.63,0,0,1-1.29,3.43,1.08,1.08,0,0,1-.55.15c-1.39,0-7.41-.11-7.48-.91,0,0-.25-3.31-.75-3.48,0,0-1.53-.61-1.43,2.67a1.06,1.06,0,0,1-.28.76A6.25,6.25,0,0,1,476,96.61a5.52,5.52,0,0,1-3.77-1.72,1.06,1.06,0,0,0-1.54,0c-.88.9-2,2.44-1.65,4.1a1,1,0,0,1-.39,1c-1.27,1-4.52,2.77-8.22-.42a1,1,0,0,1-.17-.19,1.59,1.59,0,0,1-.07-2s-1.78,5-6.52,3.23l-.19-.05c-.8-.12-6.31-1.21-3.81-6.52h0a1.05,1.05,0,0,0-1.13-1.43c-1.64.25-3.63.32-4-.68a1,1,0,0,0-.24-.37c-.91-.86-4.75-4.91-.16-7.91a1.07,1.07,0,0,0,.26-1.53c-1.4-1.8-3.49-6,2.85-10.33A1,1,0,0,1,448.13,71.65Z"/><path class="cls-14" d="M448.36,74.45s4.89,3.53,2.16,5.35c0,0-2.74,3.89-4.64,0C445.88,79.8,445.55,74.57,448.36,74.45Z"/><path class="cls-14" d="M448.61,84.94s2.07,4,.33,4.55c0,0-4.3,1.82-2.65-2.28C446.29,87.21,448.18,84,448.61,84.94Z"/><path class="cls-14" d="M453,94.63c.49-.46,3.56-3.51,6.46-1.55,0,0-2.65,2.29-2.32,2.87,0,0,.33,3.28-2.48,2.43C454.66,98.38,449.61,97.77,453,94.63Z"/><path class="cls-14" d="M465.59,94.54c.31-.27,1.36-2.26,2.21-1.46,0,0,.72,4.77,0,5.56,0,0-2.35,2-3.36,1.37C464.44,100,460.62,98.93,465.59,94.54Z"/><path class="cls-14" d="M474,91.15c.33-.47,4.66-2.07,5.56,0,0,0-1.27,4.39-4.2,3.64C475.4,94.79,471.31,95,474,91.15Z"/><path class="cls-14" d="M485.38,89.41a4.92,4.92,0,0,1,4.47.7s2.07,3.11.5,3.52-5.63,1.83-5.55-.74A8.65,8.65,0,0,1,485.38,89.41Z"/><path class="cls-15" d="M522.41,56.55c.38.79-.16,1.81-.42,3.11-.08.42.69,1.48,1,1.71,1.38.89,4,2.42,3.62,4.33,0,.09-.63,2-.69,2.07-.72.86-2.82,4.3-4.67,4.5-.07,0-1.75,1-1.82,1-.77.2-3.2,1.46-3.25,3.91a1.13,1.13,0,0,1-.17.65,10.39,10.39,0,0,0,.33,1.84c.39.86-1.41,0-2-.55-.9-.89-.91-1-1.25-4.62,0-.1.1-.17.16-.24.65-.72,4.56-4.93,8.6-5.83a.85.85,0,0,0,.17-.06c.66-.28,4.44-2.16-.17-5.72a1.16,1.16,0,0,0-.35-.18c-1-.28-5.28-2.5-.84-6.84C521.26,55.13,522.1,55.91,522.41,56.55Z"/><path class="cls-13" d="M460.22,208.06c3.51-1.26,24.41-29.23,11-65.23-2.81-7.56,1.93-24.77-1.49-31.57-1-2-6.72-7.85-9.19-7.34-8,1.66-7.83-1.87-12.18,4.52-1.33,2-.06,9,.78,10.66,6.46,12.79,13.26,26,11,35.68-1.65,7.14,1.76,15.61.45,22.23-1.78,9-7.58,16.42-3,29.66C458.28,208.52,458.92,208.52,460.22,208.06Z"/><path class="cls-13" d="M489.48,195.07c1.63-5.73-1.36-19.75,12.13-50,3.29-7.36,1.94-24.76-1.49-31.57-1-2-9.52-13.13-12-12.62-8.05,1.66-5,3.42-9.37,9.81-1.33,2,1.33,8.89.77,10.66-4.46,14.31,5.48,24.72,7.34,35.35,1.27,7.22-2.66,17.43-4,24-1.78,9-5.37,8.37-.75,21.61C482.8,204.25,489.11,196.4,489.48,195.07Z"/><path class="cls-13" d="M517.78,179.41c1.63-5.74.75-13.22,14.24-43.42,3.29-7.36,1.94-24.77-1.49-31.57-1-2-9.52-13.14-12-12.63-8,1.66-5,3.42-9.37,9.81-1.33,2-1.53,8.65-2.09,10.42-4.46,14.31,5.86,24.7,7.72,35.34,1.26,7.22-3.66,8.78-5,15.4-1.78,9-1.89,7.88,2.73,21.12C513.21,185.73,517.4,180.73,517.78,179.41Z"/><path class="cls-13" d="M553.18,123.17C550,117.64,554.6,78.63,548.53,74c-1.79-1.35-14.35-7.58-16.34-6-6.49,5-3,5.29-4.08,12.94-.33,2.35,2.44,8.44,2.73,10.27,2.3,14.81,7.77,23.24,14.14,32,4.32,5.92-5.72,17.9-4,24.42C543.37,156.44,576,162.55,553.18,123.17Z"/><path d="M563,115.67c-3.88-6.16-1.33-18.67-3.45-26.52-3.24-12-1-19.67-25.67-24.44-1.72-.33.05-1.16-3.54-9s0-11.37-.27-12.75c-.6-2.63,16.32-8.23,18.68-7.61,3.74,1,16.37,3.67,19.49,14.48,3.62,12.49,4.94,30.24,6.21,33.79C589,124,568.3,124,563,115.67Z"/><path class="cls-13" d="M572,83.08c-1.26-3.18-.83-19.77-4.48-30.94-3.15-9.66-13.56-12-16.89-13.17-2.11-.74-17.05.71-18.48,2.79-4.65,6.78-1.25,6,0,13.56.4,2.34,3.9,8.63,5.73,9,22.14,4,19.91,15.43,23.2,26.14,2.16,7,0,18.78,3.66,24.46C569.7,122.6,586.24,119.46,572,83.08Z"/><path d="M468.94,39.15c-10.59,5-13.38,9.31-18.39,14.68-5.43,5.83-7.6,7.26-12.16,6.06-2.08-.6-4.19-4.13-4.34-5-1-5.7-.27-6.68-.23-10.64,0-4.51,3.42-8.72,7.49-9.43,4.93-.85,9-9.63,13.3-9.37,2.41.11,8.89-2.88,10.46-2.49,2.29.58,3.08,1.32,4.1,1.57C483,27.89,480.15,33.83,468.94,39.15Z"/><path class="cls-13" d="M468.1,38.61c-9.78,4.74-12.7,8.68-17.37,13.67-5.06,5.42-6.38,7.14-10.55,6.1-1.9-.53-3.79-3.74-3.92-4.53-.87-5.22-.16-6.13-.08-9.76.09-4.14,3.25-8.05,7-8.75,4.54-.84,8.37-9,12.32-8.76,2.21.07,8.2-2.75,9.63-2.41a36.07,36.07,0,0,1,3.75,1.39C481.47,28.46,478.46,33.59,468.1,38.61Z"/><path d="M433.31,197.92c-6.08-1.54-39.32-66.52-10.22-107.7,1.44-2,6.24-3.41,9.79-2.89,11.58,1.7,6,8.8,14.9,14.06,2.38,1.41-.66,3.63-1.87,5.33-9.28,13.1-15.73,26.72-12.51,36.66,2.37,7.31-2.53,16-.65,22.75,2.57,9.21,10.91,16.81,4.26,30.37C436.09,198.39,435.17,198.39,433.31,197.92Z"/><path class="cls-6" d="M530.94,310.88c-2.85-1.11-.6-22.59,2.27-34.27,3.42-14,4.72-26.05,1-42.4a10.78,10.78,0,0,1,0-4.86c2.64-11.15,1-20.66-4.34-28.32-.82-1.18-.51-2.11.6-3a60.51,60.51,0,0,1,8.37-5.87c1.26-.69,1.9-.77,3.06.38,14.21,14.17,11.56,25.35,7.09,43-3,11.86,7.79,29.65-.42,39.07-10,11.5-1.81,16.66-13,33.39C534.71,309.27,532.25,311.39,530.94,310.88Z"/><path class="cls-13" d="M430.88,193.33c-4.69-1.44-30.31-61.82-7.88-100.1,1.12-1.9,7.91-4.5,10.64-4,8.93,1.58,7,7.71,11.8,13.79,1.48,1.87-1.34,4.11-2.27,5.69C436,120.86,428.47,133.4,431,142.63c1.83,6.8-1.95,14.86-.5,21.15,2,8.56,8.41,15.63,3.29,28.22C433,193.76,432.32,193.77,430.88,193.33Z"/><path class="cls-16" d="M501.36,105.68a124,124,0,0,1-10.83-16.59,209.09,209.09,0,0,1-10.3-23c-2.41-6.19-4.56-12.47-6.66-18.77-1-3.1-2.08-6.21-3.14-9.3q-1.5.9-3,1.86c-23.07,15-45.78,44.71-33.79,63.1,9.88,15.15,45.67,15.59,70.88,6.88C503.48,108.45,502.41,107.07,501.36,105.68Z"/><g class="cls-17"><path d="M439.4,67.19c-7,10.66-7.66,14.83-9.41,22.7-1.9,8.54-4.66,12.29-9.46,13.71-2.22.59-6-1.56-6.59-2.28-3.94-4.8-3.76-6.15-5.81-9.91-2.34-4.27-1.46-10.13,1.88-13.07,4.07-3.56,3.16-14.11,7.24-16.28,2.26-1.24,6.62-7.68,8.26-8.18,2.4-.74,3.51-.48,4.57-.82C444.45,48.51,446.86,55.91,439.4,67.19Z"/></g><g class="cls-17"><path d="M460,209.7c4.88-1.36,23.32-25.59,13.47-67.4-2.08-8.83,1.6-24.73-3.16-32.1-1.39-2.16-8-8-11.42-7.47-11.18,1.8-5.05-1.44-11.07,5.48-1.85,2.13-.15,10,.88,11.84,7.74,14,13.38,26.84,10.27,37.35,0,8.45,2,15.06.21,22.24-2.48,9.74-8.9,14.06-2.49,28.4C457.55,210.05,458.16,210.2,460,209.7Z"/></g><g class="cls-17"><path d="M490,196.8c2.34-6.17-1.57-20.38,14.82-54.54,4.65-9.69.35-25.55-4.58-32.87-1.45-2.15-8.8-9.82-12.36-9.27-11.61,1.78-4.45,2.46-10.72,9.33-1.92,2.11,1.46,10,.67,11.93-6.44,15.39,4.29,23,7,34.4,1.82,7.76-2.42,18.53-4.31,25.65-2.57,9.67-7.74,9-1.07,23.25C480.35,206.67,489.45,198.22,490,196.8Z"/></g><g class="cls-17"><path d="M530.82,137.27c-5.17-4.56-10.09-9.39-14.78-14.43-4-4.33-7.8-8.84-11.47-13.46-5.11,15.25,5.36,26,7.57,37.34,1.5,7.76-2.64,9.87-4.21,17-2.12,9.67-2.25,8.48,3.26,22.72.77,2,8.19-3.5,8.64-4.93,1.86-5.91.23-13,12.85-42.61Z"/></g><g class="cls-17"><path d="M437.5,68.46c-6.65,9.9-7.25,15.25-8.9,22.56-1.8,7.94-2.1,10.3-6.63,11.61-2.1.56-5.67-1.44-6.23-2.11-3.72-4.46-3.55-5.72-5.49-9.21-2.2-4-1.38-9.42,1.78-12.15,3.84-3.31,3-13.11,6.84-15.13,2.13-1.15,6.25-7.14,7.8-7.6,2.26-.69,3.31-.45,4.32-.76C444.56,51.44,444.54,58,437.5,68.46Z"/></g><g class="cls-17"><path d="M471.94,44.76c-.33-1-.67-2-1-3-4.95-.1-6.14,2.58-9.22,4.42-1.73,1-.26.16-8.06,6.32-2.8,2.22-1.65,3.07-1.36,6.54.47,5.54,9.06,5.79,13.12,3.54,1.49-.83,4.91-1.38,5.07-3.56.2-2.53,1.67-5.85,3.24-9C473.12,48.27,472.53,46.52,471.94,44.76Z"/></g><g class="cls-17"><path d="M480.19,72.05c-1.7,2.21-2.72,6.32-4.91,5.54s-1.66-5.67-1.48-7.41,5-6.29,5.13-4C479.25,72.13,481.63,70.19,480.19,72.05Z"/></g><g class="cls-17"><path d="M465.09,68.09c-1.13,2.43-3.48,4-1.9,5.4s6-2.62,7.35-3.59,2.67-5.79.72-4.81C466.1,67.69,466.05,66.05,465.09,68.09Z"/></g><g class="cls-17"><path d="M489.66,88c-.34,0-.55,0-.55,0a39.66,39.66,0,0,1-5.12-.74,1,1,0,0,0-.78.16,5.33,5.33,0,0,1-3.28,1,1,1,0,0,0-.56.12c-1.79,1-5.83-.57-5.83-.57-1.12-.56-2.7,1.11-3.43,2a1.06,1.06,0,0,1-.94.39c-2.1-.25-4.95.93-6.3,1.56a1.05,1.05,0,0,1-1.15-.15c-1.55-1.45-6.4-1.36-7.5-1.32a1,1,0,0,1-.56-.13c-1.91-1.12-2.13-6.77-2.15-7.66a1.64,1.64,0,0,1,0-.23A7.6,7.6,0,0,1,454,78.84a1,1,0,0,0,.35-.64c.57-4.16-4.56-6-6.19-6.55a1,1,0,0,0-.89.14c-6.34,4.31-4.25,8.53-2.85,10.33a1.07,1.07,0,0,1-.26,1.53c-4.59,3-.75,7,.16,7.91a1,1,0,0,1,.24.37c.4,1,2.39.93,4,.68A1.05,1.05,0,0,1,449.69,94h0c-2.5,5.31,3,6.4,3.81,6.52l.19.05c3.63,1.32,5.52-1.27,6.21-2.56a1.81,1.81,0,0,0,.38,1.33,1,1,0,0,0,.17.19c3.7,3.19,6.95,1.39,8.22.42a1,1,0,0,0,.39-1c-.38-1.66.77-3.2,1.65-4.1a1.06,1.06,0,0,1,1.54,0A5.52,5.52,0,0,0,476,96.61,6.25,6.25,0,0,0,481.35,95a1.06,1.06,0,0,0,.28-.76c-.1-3.28,1.43-2.67,1.43-2.67.5.17.75,3.48.75,3.48.07.8,6.09.9,7.48.91a1.08,1.08,0,0,0,.55-.15,2.9,2.9,0,0,0,1.45-1.8C492,92,490.81,90,489.66,88Z"/><path d="M448.36,74.45s4.89,3.53,2.16,5.35c0,0-2.74,3.89-4.64,0C445.88,79.8,445.55,74.57,448.36,74.45Z"/><path d="M448.61,84.94s2.07,4,.33,4.55c0,0-4.3,1.82-2.65-2.28C446.29,87.21,448.18,84,448.61,84.94Z"/><path class="cls-18" d="M453,94.63c.49-.46,3.56-3.51,6.46-1.55,0,0-2.65,2.29-2.32,2.87,0,0,.33,3.28-2.48,2.43C454.66,98.38,449.61,97.77,453,94.63Z"/><path d="M465.59,94.54c.31-.27,1.36-2.26,2.21-1.46,0,0,.72,4.77,0,5.56,0,0-2.35,2-3.36,1.37C464.44,100,460.62,98.93,465.59,94.54Z"/><path d="M474,91.15c.33-.47,4.66-2.07,5.56,0,0,0-1.27,4.39-4.2,3.64C475.4,94.79,471.31,95,474,91.15Z"/><path d="M485.38,89.41a4.92,4.92,0,0,1,4.47.7s2.07,3.11.5,3.52-5.63,1.83-5.55-.74A8.65,8.65,0,0,1,485.38,89.41Z"/></g><g class="cls-17"><path d="M460.22,208.06c3.51-1.26,24.41-29.23,11-65.23-2.81-7.56,1.93-24.77-1.49-31.57-1-2-6.72-7.85-9.19-7.34-8,1.66-7.83-1.87-12.18,4.52-1.33,2-.06,9,.78,10.66,6.46,12.79,13.26,26,11,35.68-1.65,7.14,1.76,15.61.45,22.23-1.78,9-7.58,16.42-3,29.66C458.28,208.52,458.92,208.52,460.22,208.06Z"/></g><g class="cls-17"><path d="M489.48,195.07c1.63-5.73-1.36-19.75,12.13-50,3.29-7.36,1.94-24.76-1.49-31.57-1-2-9.52-13.13-12-12.62-8.05,1.66-5,3.42-9.37,9.81-1.33,2,1.33,8.89.77,10.66-4.46,14.31,5.48,24.72,7.34,35.35,1.27,7.22-2.66,17.43-4,24-1.78,9-5.37,8.37-.75,21.61C482.8,204.25,489.11,196.4,489.48,195.07Z"/></g><g class="cls-17"><path d="M530.82,137.27c-5.17-4.56-10.09-9.39-14.78-14.43-3.15-3.39-6.15-6.89-9.06-10.47-4.19,14.13,6,24.44,7.82,35,1.26,7.22-3.66,8.78-5,15.4-1.78,9-1.89,7.88,2.73,21.12.65,1.85,4.84-3.15,5.22-4.47,1.6-5.63.78-12.94,13.5-41.74Z"/></g><g class="cls-17"><path d="M465.7,26.7c-.45-1.24-.9-2.48-1.32-3.74-2.26.25-7.63,2.6-9.77,2.5-4.31-.26-8.37,8.52-13.3,9.37-4.07.71-7.45,4.92-7.49,9.43,0,4-.8,4.94.23,10.64.15.86,2.26,4.39,4.34,5,4.56,1.2,6.73-.23,12.16-6.06,5-5.37,7.8-9.66,18.39-14.68l1-.47C468.55,34.67,467.16,30.68,465.7,26.7Z"/></g><g class="cls-17"><path d="M465.7,26.7c-.31-.85-.62-1.7-.92-2.56-1.86.05-7.22,2.51-9.29,2.44-3.95-.19-7.78,7.92-12.32,8.76-3.74.7-6.9,4.61-7,8.75-.08,3.63-.79,4.54.08,9.76.13.79,2,4,3.92,4.53,4.17,1,5.49-.68,10.55-6.1,4.67-5,7.59-8.93,17.37-13.67.53-.25,1-.51,1.52-.76C468.35,34.12,467.06,30.4,465.7,26.7Z"/></g><g class="cls-17"><path d="M433.31,197.92c-6.08-1.54-39.32-66.52-10.22-107.7,1.44-2,6.24-3.41,9.79-2.89,11.58,1.7,6,8.8,14.9,14.06,2.38,1.41-.66,3.63-1.87,5.33-9.28,13.1-15.73,26.72-12.51,36.66,2.37,7.31-2.53,16-.65,22.75,2.57,9.21,10.91,16.81,4.26,30.37C436.09,198.39,435.17,198.39,433.31,197.92Z"/></g><g class="cls-17"><path d="M430.88,193.33c-4.69-1.44-30.31-61.82-7.88-100.1,1.12-1.9,7.91-4.5,10.64-4,8.93,1.58,7,7.71,11.8,13.79,1.48,1.87-1.34,4.11-2.27,5.69C436,120.86,428.47,133.4,431,142.63c1.83,6.8-1.95,14.86-.5,21.15,2,8.56,8.41,15.63,3.29,28.22C433,193.76,432.32,193.77,430.88,193.33Z"/></g></g></svg>