<svg xmlns="http://www.w3.org/2000/svg" width="1087.36" height="593.38" viewBox="0 0 1087.36 593.38"><defs><style>.cls-1{opacity:0.6;}.cls-2{fill:#6cd362;}.cls-3{fill:#020202;}</style></defs><g id="Layer_3" data-name="Layer 3"><rect class="cls-1" x="60.47" y="131.76" width="897.64" height="434.75" rx="26.41"/><path class="cls-2" d="M659.63,320.67h11.73q-2.6-28.23-5.19-69.78Q661,298.61,659.63,320.67Z"/><path class="cls-2" d="M386.42,320.67h11.73q-2.58-28.23-5.19-69.78Q387.76,298.61,386.42,320.67Z"/><path class="cls-2" d="M241,242.27v42.28c1,.07,1.8.1,2.5.1,3.13,0,5.31-1,6.52-2.92s1.82-6,1.82-12.16V255.92q0-8.52-2.1-11.08T241,242.27Z"/><path class="cls-2" d="M961.5,69H116.68A26.41,26.41,0,0,0,90.27,95.36V477.29a26.42,26.42,0,0,0,26.41,26.41h331V467.82A19.87,19.87,0,0,1,444.5,470c-5.28,2.84-13.74,3.5-17.23,3.18-.48-.05-1.14-.44-.6-1.54,4.09-8.27,13.73-11.61,17.5-12.29a14.58,14.58,0,0,0,3.54-1.24V424.79a32.49,32.49,0,0,1-5.09.67c-9.7.56-22.6-4.26-27.5-7.12-.68-.4-1.39-1.44.17-2.68,10.69-8.58,25.4-7.88,32.42-6.48V319.85l-23.95-106h31.29q7.33,48.63,8.28,65.47,2.84-26.6,9.49-65.47h31.29l-24.84,106V428.59c.29.07.58.15.85.2,4.05.72,14.36,4.3,18.74,13.15.58,1.17-.13,1.6-.64,1.65-3.74.34-12.79-.36-18.44-3.4-.18-.09-.34-.2-.51-.29v63.8H961.5a26.42,26.42,0,0,0,26.41-26.41V95.36A26.41,26.41,0,0,0,961.5,69ZM280.36,274.8q0,15.92-2.59,23.19a20.34,20.34,0,0,1-9.51,11.19q-6.93,3.9-18.09,3.9H241V380H207V213.85h34.31q13.92,0,21.4,2.77t11.25,8a30.64,30.64,0,0,1,5.1,12.67q1.34,7.44,1.34,23ZM344.93,380H290.15V213.85h34.07V346.74h20.71Zm90.76,0H400.87L399,350.12H386.86L384.81,380H349.59L367,213.85h49.24ZM617.33,275H583.26V259.92q0-14.27-1-17.85a4.39,4.39,0,0,0-4.62-3.6,4.24,4.24,0,0,0-4.28,3.08q-1.14,3.07-1.14,15.81v79.73q0,11.19,1.14,14.73t4.53,3.54q3.72,0,5.05-4t1.34-15.59V316.05h-6.88V290.81h39.9V380H595.92l-3.15-11.9q-3.49,7.69-8.79,11.55a20.78,20.78,0,0,1-12.51,3.84,27.39,27.39,0,0,1-16.08-5.28A35,35,0,0,1,544,365.1a48.73,48.73,0,0,1-4.86-16.36,251.07,251.07,0,0,1-1-25.71V273.67q0-23.81,2-34.58t11.61-19.75q9.58-9,24.8-9,15,0,24.85,7.8t12.86,18.52q3,10.73,3,31.14Zm56.75,105-1.83-29.86H660.06L658,380H622.79l17.38-166.13h49.24L708.89,380Zm145.72,0H790l0-112.16L778.13,380H757L744.5,270.39l0,109.59H714.68V213.85h44.08q2,15,4,35.32l4.84,42.26,7.83-77.58H819.8Zm72.75,0H833.48V213.85h56.81v33.24H867.55V278.6h21.28v31.6H867.55v36.54h25Z"/><path class="cls-3" d="M111.65,475.24c-1.11-3.73-1.67-5.79-4.77-3.42A56.5,56.5,0,0,1,85,481.8C72.87,484.61,43.29,498,33.4,525.36c-1.32,3.64,1.05,4.81,2.66,4.87,11.65.44,39.29-3.11,55.47-13.16,10-6.23,19.26-12.57,20-23.64a27.67,27.67,0,0,1,1.35-5.32l5.51-11.58c.75-1.31-1.54-1.6-2-3Z"/><path class="cls-2" d="M118.43,472.11a5,5,0,0,0-7.78-2.53c-5.6,4.3-14.37,10.3-21.7,12-10.83,2.53-37.85,13.65-46.67,38.14-1.17,3.26.93,4.31,2.37,4.36,10.36.39,35-2.81,49.37-11.81,9-5.59,16.22-13.08,16.91-23a5,5,0,0,1,.64-2.1L118,476a5,5,0,0,0,.45-3.87Z"/><path d="M111.8,477.76c-.54-.15-16.11,9.07-31.37,18.56-14.17,8.8-25.37,18.17-26.75,20.11"/><path class="cls-3" d="M116.87,484.73c-3.46-2.87-5.32-4.49-6.57,0a70.22,70.22,0,0,1-13.15,25.39c-9.14,11.45-27.05,45.69-18,79.58,1.21,4.5,4.12,4,5.61,2.87,10.82-7.88,33.45-31.12,41.45-52.52,5-13.29,9.13-26.08,2.53-37.48a34.7,34.7,0,0,1-2.28-6.18l-2.65-15.28c-.19-1.83-2.45-.48-3.8-1.59Z"/><path class="cls-2" d="M120.93,476.82c-3.09-2.57-7.6-1-8.69,3.07-2.23,8.22-6.21,20.36-11.7,27.27-8.12,10.21-25.2,40.42-17,70.72,1.08,4,3.67,3.55,5,2.58,9.62-7,29.73-27.73,36.83-46.84,4.4-11.87,6-24.42.14-34.62a6.27,6.27,0,0,1-.8-2.51l-1.6-15.56a6.17,6.17,0,0,0-2.14-4.11Z"/><path d="M118.66,487.09c-.58.24-8.57,20.4-16.12,40.6-7,18.75-11,35.93-10.91,38.82"/><path class="cls-3" d="M114,462c-.32-3.74-.43-5.79-5-5a92.37,92.37,0,0,1-30.34-.2c-16.11-2.54-57.15-2.94-77.47,17.07-2.7,2.66-.06,4.67,2,5.39,14.51,5.18,50.28,13.43,73.52,11.25,14.44-1.35,27.85-3.13,32-12.56a19.49,19.49,0,0,1,3.23-4.12l10.27-7.93c1.32-.84-1.48-2-1.6-3.5Z"/><path class="cls-2" d="M123.4,462c-.28-3.35-5-6.16-9.05-5.43-8.28,1.48-21,3.14-30.74,1.63-14.34-2.23-51.52-3.57-69.67,14.35-2.41,2.39-.06,4.17,1.72,4.81,12.92,4.61,44.77,11.92,65.48,9.93C94,486.1,105.31,482.5,109,474.06a3.67,3.67,0,0,1,1.41-1.58l11.28-7.23A3.39,3.39,0,0,0,123.4,462Z"/><path d="M113.44,464.28c-.64-.36-22.87,1.36-44.79,3.42-20.35,1.91-37.14,5.54-39.43,6.69"/><path class="cls-3" d="M953.49,88.89c-3.25-4.57-5.08-7,.35-8.44a81.31,81.31,0,0,0,30.65-15.88c14-11.29,55.32-32.92,95.06-19.88,5.28,1.74,4.51,5.46,3.15,7.33-9.81,13.58-38.33,41.72-64,51.15-16,5.85-31.3,10.67-44.51,1.73a38.65,38.65,0,0,0-7.22-3.18l-18-4c-2.15-.31-.45-3.16-1.71-4.93Z"/><path class="cls-2" d="M943.94,93.79a7.13,7.13,0,0,1,4-11.05c9.84-2.53,24.39-7.15,32.82-13.93,12.45-10,49-30.75,84.52-19.05,4.73,1.56,4,4.87,2.83,6.54-8.73,12.08-34.15,37.09-57.1,45.43-14.26,5.18-29.19,6.78-41-1.22a7.14,7.14,0,0,0-2.95-1.13L948.71,96.7a7.13,7.13,0,0,1-4.77-2.91Z"/><path d="M956.2,91.28c.32-.74,24.55-10.19,48.8-19.07,22.52-8.24,43-12.63,46.47-12.46"/><path class="cls-3" d="M948,92.86c-4.86-2.79-7.55-4.26-3.21-7.81A81,81,0,0,0,966,57.82c8-16.08,36.52-53,78.07-57.75,5.53-.63,6.38,3.07,5.93,5.34-3.24,16.44-17.4,53.92-36.82,73.21-12.07,12-24,22.77-39.72,20.16a39.23,39.23,0,0,0-7.89.13l-18,3.85c-2.08.62-1.73-2.68-3.62-3.77Z"/><path class="cls-2" d="M941.32,101.31a7.14,7.14,0,0,1-1-11.73c7.88-6.4,19.18-16.68,24-26.35,7.13-14.31,31.67-48.4,68.85-52.6,4.94-.56,5.7,2.73,5.3,4.75-2.89,14.63-15.55,48-32.92,65.13-10.79,10.66-23.69,18.35-37.77,16a7.14,7.14,0,0,0-3.15.2L946.87,102a7.13,7.13,0,0,1-5.55-.65Z"/><path d="M951.42,93.91c0-.81,18-19.51,36.37-37.71,17-16.89,33.85-29.45,37-30.73"/><path class="cls-3" d="M954.33,99.44c-.5-5.58-.85-8.63,4.55-7.11a81.23,81.23,0,0,0,34.48,1.72c17.75-2.71,64.37-.57,92.12,30.72,3.7,4.16,1.15,7-1,7.92-15.32,6.79-54.13,16.73-81.08,11.92-16.74-3-32.42-6.54-39.32-20.92a39.64,39.64,0,0,0-4.64-6.39L946,104.76c-1.7-1.35,1.2-3,1-5.13Z"/><path class="cls-2" d="M943.61,98.86a7.13,7.13,0,0,1,9-7.52c9.77,2.77,24.67,6.12,35.36,4.51,15.81-2.39,57.81-1.89,82.61,26.12,3.3,3.73,1,6.24-.84,7.08-13.64,6-48.19,14.83-72.22,10.47-14.92-2.71-28.63-8.85-34.81-21.71a7,7,0,0,0-2-2.46l-14.51-11.56a7.14,7.14,0,0,1-2.66-4.93Z"/><path d="M955.46,102.88c.65-.49,26.34,3.56,51.77,8.11,23.6,4.22,43.55,10.78,46.42,12.64"/><path class="cls-3" d="M952.34,107.21c1.59-5.37,2.4-8.33,6.86-4.93a81,81,0,0,0,31.39,14.35c17.5,4.05,60,23.28,74.24,62.61,1.89,5.24-1.52,6.92-3.83,7-16.74.64-56.48-4.48-79.74-18.91-14.45-9-27.7-18.07-28.79-34a39.74,39.74,0,0,0-2-7.65l-7.92-16.65c-1.08-1.88,2.22-2.31,2.83-4.39Z"/><path class="cls-2" d="M942.59,102.71a7.13,7.13,0,0,1,11.18-3.64c8.06,6.18,20.67,14.8,31.19,17.25,15.57,3.64,54.41,19.63,67.1,54.83,1.68,4.68-1.35,6.18-3.41,6.26-14.89.56-50.25-4-71-17-12.86-8-23.33-18.8-24.31-33a7.33,7.33,0,0,0-.92-3l-9.21-16.11a7.13,7.13,0,0,1-.65-5.55Z"/><path d="M952.12,110.82c.78-.21,23.16,13.05,45.1,26.68,20.37,12.65,36.47,26.12,38.45,28.92"/></g></svg>