<svg xmlns="http://www.w3.org/2000/svg" width="292.96" height="394.48" viewBox="0 0 292.96 394.48"><defs><style>.cls-1{fill:#227d99;}.cls-2{fill:#cfdee2;}</style></defs><g id="Layer_3" data-name="Layer 3"><path d="M280.57,189.94c-37.91-66.89-102.2-61.15-64-189.94,0,0-186.41,85-215,248.8-13.84,79.26,65.22,145.68,145.68,145.68C215.8,394.48,293,329.26,293,248.8A145.16,145.16,0,0,0,280.57,189.94Z"/><path class="cls-1" d="M267.89,190.29c-35.58-62.8-100.25-60.21-64.35-181.13,0,0-170.72,82.56-197.58,236.4C-7,320,67.2,382.34,142.75,382.34a136.83,136.83,0,0,0,125.14-192Z"/><path d="M96.41,164.58c-5.74-10.13-15.48-9.26-9.69-28.76,0,0-28.23,12.86-32.56,37.67-2.09,12,9.88,22.06,22.06,22.06,10.38,0,22.07-9.87,22.07-22.06A21.92,21.92,0,0,0,96.41,164.58Z"/><path class="cls-2" d="M95.17,164.63c-5.39-9.51-15.18-9.11-9.75-27.43,0,0-25.85,12.51-29.92,35.8-2,11.27,9.28,20.72,20.72,20.72a20.73,20.73,0,0,0,19-29.09Z"/></g></svg>