<svg xmlns="http://www.w3.org/2000/svg" width="284.09" height="446.14" viewBox="0 0 284.09 446.14"><defs><style>.cls-1{fill:#f3e200;}.cls-2{fill:#f32900;}</style></defs><g id="Layer_3" data-name="Layer 3"><path class="cls-1" d="M84.46,0C139.53,77.15,53.94,85.62,193.6,176.4c0,0,8.43-49.95,34.3-66.57,0,0-29.47,44.77,16.09,107.23a192.2,192.2,0,0,1,20.06,34.12C377,501.61-25.31,524.2,1.26,240.29A266.69,266.69,0,0,1,53.35,105.57C76.72,74.38,98.3,39.84,84.46,0Z"/><path class="cls-2" d="M198.61,3.82s-83.36,59.05,26.17,207.51a184.08,184.08,0,0,1,34.91,91.14C294.89,656.86-276,255.66,198.61,3.82Z"/><path class="cls-1" d="M140,184.67s16.72,23.71-31.82,99.57A141.39,141.39,0,0,0,95,310C41.16,451,291.41,484.08,205,327.13a123.46,123.46,0,0,0-16.4-22.8c-10-11.13-21.56-30.56-8.64-54,0,0-24.8,29.85-22.44,43.49C125.69,270.44,204.17,199.61,140,184.67Z"/></g></svg>