<svg xmlns="http://www.w3.org/2000/svg" xmlns:xlink="http://www.w3.org/1999/xlink" width="292.96" height="394.48" viewBox="0 0 292.96 394.48"><defs><style>.cls-1{fill:#70cc56;}.cls-2{fill:#9adb9a;}.cls-3{fill:#020202;}.cls-4{fill:url(#linear-gradient);}.cls-5{fill:url(#linear-gradient-2);}.cls-6{fill:url(#linear-gradient-3);}.cls-7{fill:url(#linear-gradient-4);}</style><linearGradient id="linear-gradient" x1="219.74" y1="236.92" x2="221.17" y2="195.12" gradientUnits="userSpaceOnUse"><stop offset="0" stop-color="#9adb9a"/><stop offset="0.98" stop-color="#70cc56"/></linearGradient><linearGradient id="linear-gradient-2" x1="-7276.37" y1="303.27" x2="-7274.95" y2="261.47" gradientTransform="matrix(-1, 0, 0, 1, -7179.33, 0)" xlink:href="#linear-gradient"/><linearGradient id="linear-gradient-3" x1="-7310.39" y1="334.88" x2="-7309.58" y2="311.24" gradientTransform="matrix(-1, 0, 0, 1, -7284.12, 0)" xlink:href="#linear-gradient"/><linearGradient id="linear-gradient-4" x1="324.2" y1="898.88" x2="325.63" y2="857.07" gradientTransform="matrix(0.99, -0.12, 0.23, 1.9, -264.03, -1308.89)" xlink:href="#linear-gradient"/></defs><g id="Layer_3" data-name="Layer 3"><path d="M280.57,189.94c-37.91-66.89-102.2-61.15-64-189.94,0,0-186.41,85-215,248.8-13.84,79.26,65.22,145.68,145.68,145.68C215.8,394.48,293,329.26,293,248.8A145.16,145.16,0,0,0,280.57,189.94Z"/><path class="cls-1" d="M272.37,191.78C236.78,129,172.12,131.57,208,10.65c0,0-170.73,82.56-197.58,236.4-13,74.42,61.24,136.78,136.78,136.78a136.84,136.84,0,0,0,125.15-192Z"/><path d="M96.41,164.58c-5.74-10.13-15.48-9.26-9.69-28.76,0,0-28.23,12.86-32.56,37.67-2.09,12,9.88,22.06,22.06,22.06,10.38,0,22.07-9.87,22.07-22.06A21.92,21.92,0,0,0,96.41,164.58Z"/><path class="cls-2" d="M95.17,164.63c-5.39-9.51-15.18-9.11-9.75-27.43,0,0-25.85,12.51-29.92,35.8-2,11.27,9.28,20.72,20.72,20.72a20.73,20.73,0,0,0,19-29.09Z"/><path class="cls-3" d="M215.34,192.37s9.13,19.26-2.86,28.59c0,0-16.26,16.51,1.47,19.63,0,0,24.36,4,19.44-9.41-4.86-13.27-9.14-16.4-6.6-42.7Z"/><path class="cls-4" d="M215.32,192s9.41,18.21,0,26.8c0,0-16.37,18-2.45,20.86,0,0,26.18,4.54,18-12.25s-4.9-38.06-4.09-39.3C227,187.78,215.32,192,215.32,192Z"/><path class="cls-3" d="M101.45,258.72s-9.13,19.26,2.86,28.59c0,0,16.26,16.51-1.47,19.63,0,0-24.36,4-19.44-9.41,4.86-13.27,9.14-16.4,6.59-42.7Z"/><path class="cls-5" d="M101.47,258.34s-9.41,18.2,0,26.8c0,0,16.36,18,2.45,20.86,0,0-26.18,4.54-18-12.25s4.89-38.06,4.09-39.3C89.8,254.13,101.47,258.34,101.47,258.34Z"/><path class="cls-3" d="M29.19,309.7s-6,10.88,1.88,16.16c0,0,10.73,9.32-1,11.09,0,0-16.08,2.27-12.83-5.32s6-9.27,4.35-24.13Z"/><path class="cls-6" d="M29.2,309.48s-6.21,10.29,0,15.15c0,0,10.8,10.16,1.62,11.78,0,0-17.28,2.57-11.88-6.92s3.23-21.5,2.7-22.2C21.5,307.11,29.2,309.48,29.2,309.48Z"/><path class="cls-3" d="M249.62,275.27s13.48,35.49,3.72,54.65c0,0-12.35,33.3,6,37.09,0,0,25.12,4.73,17.15-20.2-7.88-24.62-12.84-30.05-16.35-80.3Z"/><path class="cls-7" d="M249.51,274.55S263,308,255.66,325.44c0,0-12.11,36.13,2.36,39.91,0,0,27,5.49,15.06-25.42s-13.6-71.69-13.09-74.14C260.12,265.16,249.51,274.55,249.51,274.55Z"/></g></svg>