<svg xmlns="http://www.w3.org/2000/svg" width="810.09" height="690.06" viewBox="0 0 810.09 690.06"><defs><style>.cls-1{opacity:0.3;}.cls-2{fill:#fffdfd;}</style></defs><g id="Layer_3" data-name="Layer 3"><path class="cls-1" d="M808.21,272.68c-5.33-18.36-20.35-30.65-48.63-40.17,12.48-35.37-25.42-103.42-28.89-81.17C752,14.3,675.66,0,641.27,0c-61.92,0-56.57,77.29-86.5,75.59-38-2.16-78.6,18-85.48,74.37,2-16.44-133.45,48.15-101.81,125.2-36.17-88.07-139-4.13-139-4.13-48.94-31.84-77.05-45.4-158.22-1.37C47,282.3,31.9,326.19,34.54,350.83.72,373.12-6.82,411.31,5.65,451.26c26.83,86,43.67-5.57,68.79,92.87-70.18,75.5,91.49,135.51,100.82,119.22,11.52-20.13,56.66,36.42,98,25.24,26.57-1.25,39.27-22.29,58.47-28.9,9.25-3.18,88.15-32.76,63.29-47.46,79.11,46.78,124.64-3.42,160.28-77.73,21,1.44,33.74-29.55,46.09-17.2,41.27,41.27,140.36,5.18,136.89-80.48-14.52-74.07,36.15,10.21,70.43-138.55A51,51,0,0,0,808.21,272.68Z"/><path class="cls-2" d="M801.92,296.92c0-24.12-22.21-45.05-54.69-55.41a66.05,66.05,0,0,0-32.35-80.37A114.7,114.7,0,0,0,729.09,105c0-54.44-35.74-98.58-79.83-98.58-40.59,0-74.1,37.41-79.16,85.83a54.57,54.57,0,0,0-26.79-7.15c-33.88,0-62,32.38-67.5,74.92a52.57,52.57,0,0,0-16.7-2.75c-46.5,0-84.2,62.53-84.2,139.65,0,1.37,0,2.73,0,4.09l-.75-.15A78.06,78.06,0,0,0,230.42,290.5c-18.7-21.07-48.76-34.73-82.66-34.73-56.71,0-102.69,38.24-102.69,85.41a72.09,72.09,0,0,0,1.41,14.15c-19.52,11.73-33,37-33,66.36C13.44,462.18,39.19,495,71,495a46.07,46.07,0,0,0,6.13-.42q-.27,3-.27,6A67.94,67.94,0,0,0,90,540.31c-11.9,11-19,24.87-19,39.93,0,35.84,40.18,64.9,89.75,64.9a117.08,117.08,0,0,0,44-8.33,65.32,65.32,0,0,0,119,8.13c1.71.12,3.42.2,5.15.2a72.28,72.28,0,0,0,65.92-42.63c15.76,14.51,34.47,22.91,54.54,22.91,44.49,0,82.29-41.31,96-98.81,1.82.15,3.67.23,5.53.23,18.48,0,35.45-7.56,48.76-20.17,13.61,12.62,30.84,20.17,49.58,20.17,44,0,79.66-41.56,79.66-92.83a106.72,106.72,0,0,0-4.5-30.82c35.73-11.22,60.33-34.77,60.33-62a45.12,45.12,0,0,0-.85-8.71C795.26,322.39,801.92,310.14,801.92,296.92Z"/><path class="cls-1" d="M351.63,266.94c-22.67-19.41-44.72-19.41-51.48-19.41a78,78,0,0,0-69.73,43c-18.7-21.07-48.76-34.73-82.66-34.73-56.71,0-102.69,38.24-102.69,85.41a72.09,72.09,0,0,0,1.41,14.15c-19.52,11.73-33,37-33,66.36C13.44,462.18,39.19,495,71,495a46.07,46.07,0,0,0,6.13-.42q-.27,3-.27,6A67.94,67.94,0,0,0,90,540.31c-11.9,11-19,24.87-19,39.93,0,35.84,40.18,64.9,89.75,64.9a117.08,117.08,0,0,0,44-8.33,65.37,65.37,0,0,0,80.39,40C230.82,638.37,178.54,463.59,351.63,266.94Z"/><path class="cls-1" d="M297.88,247.57a78.05,78.05,0,0,0-67.46,42.93c-18.7-21.07-48.76-34.73-82.66-34.73-56.71,0-102.69,38.24-102.69,85.41a72.09,72.09,0,0,0,1.41,14.15c-19.52,11.73-33,37-33,66.36C13.44,462.18,39.19,495,71,495a46.07,46.07,0,0,0,6.13-.42q-.27,3-.27,6A67.94,67.94,0,0,0,90,540.31c-11.9,11-19,24.87-19,39.93,0,31.86,31.74,58.35,73.59,63.85C149.23,601,105.16,488.87,297.88,247.57Z"/></g></svg>