<svg xmlns="http://www.w3.org/2000/svg" width="809.16" height="399.67" viewBox="0 0 809.16 399.67"><defs><style>.cls-1{fill:#fffdfd;}.cls-2{opacity:0.2;}</style></defs><g id="Layer_3" data-name="Layer 3"><path d="M1,398.06H15.57c5-18.89,16-34.31,30-42.73a72.09,72.09,0,0,1-1.41-14.15c0-47.17,46-85.41,102.69-85.41,33.9,0,64,13.66,82.66,34.73a78.06,78.06,0,0,1,143.77,10.36l.75.15c0-1.36,0-2.72,0-4.09,0-77.12,37.7-139.65,84.21-139.65a52.57,52.57,0,0,1,16.7,2.75c5.49-42.54,33.62-74.92,67.5-74.92a54.51,54.51,0,0,1,26.78,7.15c5.07-48.42,38.58-85.83,79.17-85.83,44.09,0,79.83,44.14,79.83,98.58A114.7,114.7,0,0,1,714,161.14a66.05,66.05,0,0,1,32.35,80.37C778.78,251.87,801,272.8,801,296.92c0,13.22-6.66,25.47-18,35.55a45.12,45.12,0,0,1,.85,8.71c0,23.61-18.49,44.44-46.68,56.88h10.93c15.06-5.84,40.06-14.62,59.69-99.79a51,51,0,0,0-.48-25.59C802,254.32,786.93,242,758.65,232.51c12.48-35.37-25.43-103.42-28.89-81.17C751.09,14.3,674.73,0,640.33,0c-61.91,0-56.56,77.29-86.49,75.59-38-2.16-78.6,18-85.48,74.37,2-16.44-133.45,48.15-101.81,125.2-36.17-88.07-139-4.13-139-4.13-48.94-31.84-77-45.4-158.22-1.37C46.07,282.3,31,326.19,33.61,350.83,15.53,362.75,5,379.21,1,398.06Z"/><path class="cls-1" d="M18.41,392.1H749.22c21.95-12.63,35.76-31,35.76-51.38a45.2,45.2,0,0,0-.85-8.71c11.36-10.08,18-22.33,18-35.54,0-24.13-22.21-45.06-54.7-55.42a66,66,0,0,0-32.34-80.37,114.81,114.81,0,0,0,14.21-56.14C729.33,50.1,693.58,6,649.5,6c-40.59,0-74.11,37.41-79.17,85.84a54.47,54.47,0,0,0-26.78-7.16c-33.88,0-62,32.39-67.51,74.92a52.53,52.53,0,0,0-16.7-2.75c-46.5,0-84.2,62.53-84.2,139.66,0,1.36,0,2.72,0,4.08l-.75-.15A78.07,78.07,0,0,0,230.65,290C212,269,181.89,255.31,148,255.31c-56.71,0-102.68,38.24-102.68,85.41a71.43,71.43,0,0,0,1.41,14.16C34.09,362.46,24,375.73,18.41,392.1Z"/><rect x="2.47" y="392.1" width="745.6" height="5.96"/><g class="cls-2"><path d="M146.83,255.77c28.07,0,53.49,9.37,72,24.55,1.76-1.95,3.53-3.9,5.33-5.83q1.63-1.77,3.32-3.52c-48.89-31.8-77-45.31-158.13-1.31C46.07,282.3,31,326.19,33.61,350.83,15.53,362.75,5,379.21,1,398.06H15.57c5-18.89,16-34.31,30-42.73a72.09,72.09,0,0,1-1.41-14.15C44.14,294,90.12,255.77,146.83,255.77Z"/><path d="M219.59,279.51c-18.5-15-43.75-24.2-71.6-24.2-56.71,0-102.68,38.24-102.68,85.41a71.43,71.43,0,0,0,1.41,14.16C34.09,362.46,24,375.73,18.41,392.1H145.07C164.43,351.27,189.14,313.26,219.59,279.51Z"/><path d="M145.07,392.1H2.47v6H142.29Q143.65,395.08,145.07,392.1Z"/></g><g class="cls-2"><path d="M357.14,276c0-.23,0-.47.07-.7-.82-5.75-1.54-11.5-2.08-17.26-42.31-55.74-128.48,14.64-128.48,14.64-48.94-31.84-77.05-45.4-158.22-1.38C45.12,283.91,30,327.79,32.66,352.43,14.58,364.35,4,380.82,0,399.67H14.62c5-18.89,16-34.31,30-42.73a72.09,72.09,0,0,1-1.41-14.15c0-47.18,46-85.42,102.69-85.42,33.9,0,64,13.67,82.66,34.73A78,78,0,0,1,357.14,276Z"/><path d="M331.13,338.65C335.9,322,341.64,304.94,350.49,290c1.93-3.24,4-6.32,6.18-9.27q.21-2.76.54-5.51c0-.39-.1-.78-.16-1.16A78,78,0,0,0,229.7,291.65c-18.7-21.07-48.76-34.74-82.65-34.74-56.72,0-102.69,38.25-102.69,85.42a72.09,72.09,0,0,0,1.41,14.15C33.14,364.06,23,377.34,17.46,393.71H316C320.53,375.27,325.86,357,331.13,338.65Z"/><path d="M316,393.71H1.52v6h313Q315.24,396.69,316,393.71Z"/></g></g></svg>