<svg xmlns="http://www.w3.org/2000/svg" xmlns:xlink="http://www.w3.org/1999/xlink" width="482.98" height="471.71" viewBox="0 0 482.98 471.71"><defs><style>.cls-1{fill:none;}.cls-2{fill:#d2dbaf;}.cls-3{clip-path:url(#clip-path);}.cls-4{fill:#fffdfd;}</style><clipPath id="clip-path"><rect class="cls-1" y="615.34" width="1937.2" height="1089.68"/></clipPath></defs><g id="Layer_3" data-name="Layer 3"><path d="M384.28,129.45,264.7,27.69a19.53,19.53,0,0,0-25.32,0L119.8,129.45,28,207.55C14.17,219.33,22.5,242,40.67,242h0a19.54,19.54,0,0,1,19.54,19.54V452.17a19.54,19.54,0,0,0,19.54,19.54H200.08a19.54,19.54,0,0,0,19.54-19.54v-68a19.54,19.54,0,0,1,19.54-19.54h25.76a19.54,19.54,0,0,1,19.54,19.54v68A19.54,19.54,0,0,0,304,471.71H424.33a19.54,19.54,0,0,0,19.54-19.54V261.51A19.54,19.54,0,0,1,463.41,242h0c18.17,0,26.5-22.64,12.66-34.42ZM142.76,363.23H128a19.54,19.54,0,0,1-19.54-19.54V328.53A19.54,19.54,0,0,1,128,309h14.73a19.53,19.53,0,0,1,19.53,19.54v15.16A19.53,19.53,0,0,1,142.76,363.23Z"/><path class="cls-2" d="M363.18,106.41,243.61,4.66a19.55,19.55,0,0,0-25.33,0L98.71,106.41,6.91,184.52C-6.93,196.3,1.4,218.94,19.58,218.94h0a19.53,19.53,0,0,1,19.53,19.53V429.13a19.54,19.54,0,0,0,19.54,19.54H179a19.54,19.54,0,0,0,19.54-19.54v-68a19.53,19.53,0,0,1,19.53-19.53h25.77a19.53,19.53,0,0,1,19.53,19.53v68a19.54,19.54,0,0,0,19.54,19.54H403.24a19.54,19.54,0,0,0,19.54-19.54V238.47a19.53,19.53,0,0,1,19.53-19.53h0c18.18,0,26.5-22.64,12.66-34.42ZM121.66,340.2H106.93A19.53,19.53,0,0,1,87.4,320.66V305.5A19.53,19.53,0,0,1,106.93,286h14.73A19.54,19.54,0,0,1,141.2,305.5v15.16A19.54,19.54,0,0,1,121.66,340.2Z"/><g class="cls-3"><path d="M219.87,571c-5.6-14.59-21.4-24.35-51.14-31.91C181.85,511,142,456.9,138.34,474.57c22.44-108.86-57.87-120.22-94-120.22-65.11,0-59.49,61.4-91,60-40-1.72-82.66,14.27-89.89,59.08,2.11-13.06-140.35,38.25-107.07,99.46-38-70-146.14-3.28-146.14-3.28-51.46-25.3-81-36.07-166.39-1.1-24.52,10.05-40.39,44.91-37.62,64.49-35.56,17.7-43.49,48-30.38,79.78,28.21,68.31,45.93-4.43,72.34,73.77-73.8,60,96.22,107.65,106,94.71,12.12-16,59.59,28.93,103.05,20.05,27.94-1,41.29-17.7,61.49-23,9.72-2.53,92.7-26,66.56-37.71C-131.5,877.86-83.61,838-46.13,779c22,1.15,35.48-23.47,48.47-13.66,43.4,32.79,147.61,4.11,144-63.94-15.27-58.83,38,8.12,74.07-110.05A31,31,0,0,0,219.87,571Z"/><path class="cls-4" d="M213.26,590.23c0-19.17-23.36-35.79-57.53-44a41,41,0,0,0,3.82-17.14c0-20.37-15.38-38-37.83-46.71a74.36,74.36,0,0,0,14.94-44.6c0-43.25-37.59-78.31-83.95-78.31-42.69,0-77.94,29.72-83.26,68.19A72.12,72.12,0,0,0-58.72,422a71.92,71.92,0,0,0-71,59.52,71.77,71.77,0,0,0-17.56-2.18c-48.91,0-88.56,49.67-88.56,110.94,0,1.08,0,2.16.05,3.24l-.79-.12C-247.45,568.74-278.2,551-314.44,551c-32.07,0-59.83,13.89-73.34,34.13-19.67-16.73-51.28-27.59-86.93-27.59-59.64,0-108,30.38-108,67.86a43.73,43.73,0,0,0,1.48,11.24C-601.75,645.94-616,666-616,689.34c0,32.17,27.07,58.24,60.47,58.24a62.45,62.45,0,0,0,6.45-.33,39.17,39.17,0,0,0-.29,4.74c0,11.52,5,22.31,13.82,31.58-12.51,8.75-20,19.76-20,31.72,0,28.47,42.26,51.56,94.39,51.56a158.64,158.64,0,0,0,46.29-6.62c9.64,19.85,34.88,34,64.51,34,26.3,0,49.14-11.17,60.68-27.57,1.79.1,3.59.17,5.41.17,30.87,0,57.42-13.91,69.33-33.87a100,100,0,0,0,57.35,18.2c46.79,0,86.55-32.81,101-78.49q2.88.18,5.82.18a88,88,0,0,0,51.28-16,90.79,90.79,0,0,0,52.15,16c46.26,0,83.77-33,83.77-73.74a65.82,65.82,0,0,0-4.73-24.49c37.57-8.91,63.44-27.62,63.44-49.25a27.44,27.44,0,0,0-.89-6.93C206.25,610.45,213.26,600.72,213.26,590.23Z"/></g></g></svg>