<svg xmlns="http://www.w3.org/2000/svg" xmlns:xlink="http://www.w3.org/1999/xlink" width="548.43" height="482.1" viewBox="0 0 548.43 482.1"><defs><style>.cls-1{fill:none;}.cls-2{fill:#d82121;}.cls-3{fill:#d2dbaf;}.cls-4{fill:#a52323;}.cls-5{clip-path:url(#clip-path);}.cls-6{fill:#76b7ce;opacity:0.3;}</style><clipPath id="clip-path"><rect class="cls-1" x="-806.8" y="629.85" width="1920" height="1080"/></clipPath></defs><g id="Layer_3" data-name="Layer 3"><path d="M416.19,139.84,284,27.31,151.72,139.84,19.48,252.36h47.7c8.38,10.71,6.71,22.31,16.45,22.31,4.67,0,6.71-3.53,8.5-8.08V392.32l5.52,5.4L138,437.18,92.13,450.29V482.1H251.54V412.64c1.18-1.34,1.73-5.18,2.31-9.63a5.67,5.67,0,0,0,3.16-3.1l7.46-24.9h51.91V482.1H423.25l21.59-20.74,5,20.74h26V281.22a8.89,8.89,0,0,0,2.76.42c10.81,0,7.53-18.82,19.57-25.8a5.64,5.64,0,0,0,2.75-3.48H505c6.81,6.57,5,14.71,11.15,14.71s4.34-10.65,11.11-14.71h21.2ZM144.59,373.62,140.41,364V319.38h51.16l-11.69,54.24Z"/><path class="cls-2" d="M238,360.08c-4.24,7-3.08,25.79-6.88,25.79s-2.65-14.3-6.89-25.79c-3.61-9.79,5.3-7.59,6.89-25.79C232,323.72,242.29,353,238,360.08Z"/><path class="cls-3" d="M396.71,112.53,264.48,0,132.24,112.53,0,225.05H72.64V365l5.53,5.41,40.3,39.46L72.64,423v31.81H232.06V347.7h64.83V454.79H403.77l21.59-20.74,5,20.74h26V225.05H529Zm-222,233.78h-53.8V292.07h53.8Z"/><path class="cls-4" d="M138.08,376.28a8.21,8.21,0,0,0,2.06,3.64,14.06,14.06,0,0,0,.71,2.62c4.23,11.48,3.08,25.79,6.88,25.79s2.65-18.82,6.88-25.79c1.37-2.26,1.27-6.77.46-11.52l5.32-24.71H125.11Z"/><polygon class="cls-4" points="174.73 346.31 174.73 292.07 172.09 292.07 160.39 346.31 174.73 346.31"/><path class="cls-4" d="M529,225.05,396.71,112.53,264.48,0,132.24,112.53,0,225.05H47.7c8.37,10.7,6.71,22.31,16.45,22.31,7.08,0,8.13-8.08,11.39-15.62l45.39,104.9V292.07h51.16L176,273.75c5.9,18.78,4.31,42,9.69,42,5,0,4-26.33,8.55-39.36l32,94.61a5.87,5.87,0,0,0,11.23,1.64l18.71-62.48c3.51,7.77,4.39,14.3,11.69,14.3,8,0-1.25-29.73-1.62-47.9l2.25-7.51c2.76,15.51,2.62,30.29,6.91,30.29,5.4,0,3.76-30.85,9.78-42.29a13,13,0,0,0,1.2-4.11l30.72,90.82a6.49,6.49,0,0,0,4,3.91c2.35,8.9,2.43,17,6.5,17,5.4,0,3.76-18.81,9.78-25.79,3.09-3.58.91-12.77-2.17-19.67l5.59-25.12c4.56,8.79,4.8,16.72,12.85,16.72a7.14,7.14,0,0,0,6.35-3.73l31.31,130.34a4.5,4.5,0,0,0,8.75.1l50.29-190.16c1.82,4.16,3.84,7,8.65,7,10.81,0,7.53-18.82,19.57-25.8a5.59,5.59,0,0,0,2.74-3.48h4.11c6.81,6.57,5,14.71,11.15,14.71s4.34-10.65,11.1-14.71Z"/><polygon class="cls-4" points="120.93 346.31 125.11 346.31 120.93 336.64 120.93 346.31"/><g class="cls-5"><path class="cls-6" d="M973.65,705.9C958.56,683,907.16,600.55,918.26,557.54a10.76,10.76,0,0,0-8.77-13.27c-13.62-2.18-36-6.09-60.78-11.76A10.86,10.86,0,0,1,840.29,522c-.07-19.77-6.8-6.34-46.3-5.3a10.44,10.44,0,0,1-4.71-.92c-16.44-7.52-40.09-10-47.39-23.7a10.85,10.85,0,0,0-13-5.27c-56.65,18.76-169.39,4.93-226.76-39.51-2.52-3.55-8.27,89-43.8,78.4a10.82,10.82,0,0,0-14.08,9.47C442,573,412.05,590.74,370.47,590.44a10.85,10.85,0,0,0-10.89,9.26C354.46,634.89,333,747,311.46,769.5a11,11,0,0,0-2.72,9.74c48.8,249.16-35.84,107.44,139.73,307.25a10.75,10.75,0,0,0,5.89,3.45c20.68,4.34,127,27.58,160.51,55.37a10.85,10.85,0,0,0,16-2.31c11.22-17,35.44-35,55.63-21.83,5.68,3.7,13.28,1,15.84-5.27,13.56-33.26,36.36-2,70.89-47.9a10.7,10.7,0,0,1,10.27-4.24l.5.09a11,11,0,0,0,12.53-7.37c8.73-28.31,56.95-51,87.37-42.56a10.84,10.84,0,0,0,13.65-8.54c6.94-40,28.37-133,72.67-149a10.86,10.86,0,0,0,6.87-13.27c-7.7-26-23.88-91.52-3.24-125.72A10.77,10.77,0,0,0,973.65,705.9Z"/></g></g></svg>