<svg xmlns="http://www.w3.org/2000/svg" width="344.1" height="324.77" viewBox="0 0 344.1 324.77"><defs><style>.cls-1{fill:#f22525;}.cls-2{opacity:0.6;}.cls-3{fill:#fff;}</style></defs><g id="Layer_3" data-name="Layer 3"><path d="M344,92.72c3.3-94-112.85-124-174.27-55C108.38-31.25-2.49-.06.86,94,27,204.51,113.64,222,164.49,324.77,208.44,224.33,321,199.17,344,92.72Z"/><path class="cls-1" d="M318.34,114.74c3.31-94-92.44-114-153.86-45C103.1.75-3.28,18,.08,112,26.19,222.53,113.64,222,164.49,324.77,208.44,224.33,295.27,221.18,318.34,114.74Z"/><g class="cls-2"><path class="cls-3" d="M93.38,95.61C81.94,115.91,62.81,127.15,36.31,127S8.48,83.65,17.84,69.49s30.35-26.78,47-22.12S104.82,75.32,93.38,95.61Z"/></g></g></svg>