<svg xmlns="http://www.w3.org/2000/svg" width="879.77" height="253.48" viewBox="0 0 879.77 253.48"><defs><style>.cls-1{fill:#fff;}.cls-2{fill:#f22525;}.cls-3{opacity:0.6;}</style></defs><g id="Layer_3" data-name="Layer 3"><rect x="59.56" y="42.53" width="820.2" height="210.96" rx="105.48"/><rect class="cls-1" width="820.2" height="210.96" rx="105.48"/><path d="M245.82,67.68c1.79-51-61.24-67.31-94.57-29.87C118,.4,57.78,17.33,59.6,68.35c14.17,60,61.2,69.47,88.79,125.25C172.24,139.09,233.3,125.44,245.82,67.68Z"/><path class="cls-2" d="M231.88,79.62c1.79-51-50.16-61.88-83.49-24.44-33.31-37.41-91-28.08-89.21,22.95,14.17,60,61.62,59.69,89.21,115.47C172.24,139.09,219.36,137.38,231.88,79.62Z"/><g class="cls-3"><path class="cls-1" d="M109.81,69.24c-6.21,11-16.59,17.12-31,17s-15.1-23.5-10-31.18,16.48-14.53,25.51-12S116,58.23,109.81,69.24Z"/></g><path d="M515.12,67.68c1.79-51-61.24-67.31-94.56-29.87C387.25.4,327.08,17.33,328.9,68.35c14.18,60,61.2,69.47,88.79,125.25C441.54,139.09,502.6,125.44,515.12,67.68Z"/><path class="cls-2" d="M501.18,79.62c1.8-51-50.16-61.88-83.49-24.44-33.3-37.41-91-28.08-89.21,22.95,14.17,60,61.62,59.69,89.21,115.47C441.54,139.09,488.67,137.38,501.18,79.62Z"/><g class="cls-3"><path class="cls-1" d="M379.11,69.24c-6.21,11-16.59,17.12-31,17s-15.1-23.5-10-31.18,16.47-14.53,25.5-12S385.32,58.23,379.11,69.24Z"/></g></g></svg>