<svg xmlns="http://www.w3.org/2000/svg" width="410.02" height="408.9" viewBox="0 0 410.02 408.9"><defs><style>.cls-1{fill:#aaa;}</style></defs><g id="Layer_3" data-name="Layer 3"><path d="M397.31,182.23H364.24a158.58,158.58,0,0,0-22.83-57.86l23.38-18.52a12.56,12.56,0,0,0,2-17.72l-19-23.55a12.81,12.81,0,0,0-17.86-2L303.61,83.47A161.45,161.45,0,0,0,232.92,52.6v-35A12.69,12.69,0,0,0,220.21,5h-30.4A12.69,12.69,0,0,0,177.1,17.6v35a161.47,161.47,0,0,0-64.25,26.19L86.2,50.3a12.82,12.82,0,0,0-18-.67L46,70.13a12.56,12.56,0,0,0-.68,17.81l27.85,29.78a158.92,158.92,0,0,0-27.46,65.21H12.71A12.7,12.7,0,0,0,0,195.54v30.15a12.69,12.69,0,0,0,12.71,12.6H45.66A158.84,158.84,0,0,0,73,303.37l-27.81,22a12.58,12.58,0,0,0-2,17.72l19,23.55a12.82,12.82,0,0,0,17.87,2L113,342.55a161.8,161.8,0,0,0,64.09,26.08V401.3a12.69,12.69,0,0,0,12.71,12.6h30.4a12.69,12.69,0,0,0,12.71-12.6V368.63a161.63,161.63,0,0,0,65.26-26.89l25.63,27.41a12.83,12.83,0,0,0,18,.67l22.3-20.5a12.56,12.56,0,0,0,.67-17.81l-27.14-29a158.82,158.82,0,0,0,26.87-64.9h32.84A12.69,12.69,0,0,0,410,225V194.84A12.69,12.69,0,0,0,397.31,182.23Zm-192,108.89c-54.13,0-84.38-28-84.38-81.67s29.91-81.61,84-81.61,84,28.36,84,82S259.48,291.12,205.35,291.12Z"/><path class="cls-1" d="M386.56,183.54H355.34a151.82,151.82,0,0,0-21.55-55.09l22.07-17.64A12,12,0,0,0,357.75,94L339.83,71.52A12,12,0,0,0,323,69.64L298.1,89.5a151.85,151.85,0,0,0-66.74-29.38V26.8a12,12,0,0,0-12-12h-28.7a12,12,0,0,0-12,12V60.12A151.74,151.74,0,0,0,118,85.05L92.85,57.93a12,12,0,0,0-17-.64l-21,19.51a12,12,0,0,0-.64,17l26.29,28.36a151.92,151.92,0,0,0-25.92,62.09H23.46a12,12,0,0,0-12,12v28.7a12,12,0,0,0,12,12H54.57a151.83,151.83,0,0,0,25.84,62l-26.26,21a12,12,0,0,0-1.88,16.86l17.91,22.43A12,12,0,0,0,87.05,361l31.1-24.85A152,152,0,0,0,178.66,361v31.1a12,12,0,0,0,12,12h28.7a12,12,0,0,0,12-12V361A151.84,151.84,0,0,0,293,335.4l24.2,26.1a12,12,0,0,0,17,.64l21.05-19.52a12.05,12.05,0,0,0,.64-17L330.19,298a151.81,151.81,0,0,0,25.37-61.79h31a12,12,0,0,0,12-12v-28.7A12,12,0,0,0,386.56,183.54ZM205,302.42a92.54,92.54,0,1,1,92.53-92.53A92.54,92.54,0,0,1,205,302.42Z"/></g></svg>