<svg xmlns="http://www.w3.org/2000/svg" xmlns:xlink="http://www.w3.org/1999/xlink" width="480.36" height="547.79" viewBox="0 0 480.36 547.79"><defs><style>.cls-1{fill:none;}.cls-2{fill:#d2dbaf;}.cls-3{fill:#c92b2b;}.cls-4{clip-path:url(#clip-path);}.cls-5{fill:#756b6b;}</style><clipPath id="clip-path"><rect class="cls-1" x="-40.35" y="662.69" width="1920" height="1080"/></clipPath></defs><g id="Layer_3" data-name="Layer 3"><path d="M472.68,297.09,420,304.43a9.68,9.68,0,0,1,1.54,5,13.63,13.63,0,0,1-2.84,8.83c-1.58,1.81-2.27,2.5-2.14,5a20.19,20.19,0,0,0,2.46,8.54c2.65,4.85,1.63,11-3.57,10.81-2.93-.12-5.25-1.49-7.53-2.25-2-.68-2.61-.56-3.44,1.41-.93,2.2-1,5.28-2,8.1a6.1,6.1,0,0,1-3,3.46c-2.51,17.27-10.19,38.39-28.5,61.44-28.59,36-70.12,59.23-115.53,66.27-47,7.29-110.29,6.6-136.65-41.1,0,0-.67-1.1-1.85-3.17-1.43-2.53-2.79-5.1-4.12-7.67-2.65,1.94-6.37,1.67-8.86-1.49-1.87-2.38-2.83-5.19-4.36-7.71-1.36-2.25-.76-2.57-4.5-3.29-4.19-.8-7.52,3.45-11.62,5.23-7.31,3.18-6.5-6.93-4.16-11.41,1.32-2.52,6.11-8.48,8.59-9.15,2.22-.6,2.72-.19,2.38-1.87-.37-1.89-1.86-4.25-2.52-6.83-1.19-4.59,2.39-10,7.51-8.54l.18.06C79.62,325.29,87,261.31,112.63,208.19c-.67-1.26-.87-1.58-3.87-2.16-4.19-.8-7.52,3.45-11.63,5.23-7.3,3.18-6.5-6.93-4.15-11.41,1.32-2.52,6.11-8.48,8.59-9.15,2.22-.6,2.72-.19,2.38-1.88-.37-1.88-1.86-4.24-2.52-6.82-1.19-4.6,2.39-10,7.51-8.54,2.88.83,5,2.58,6.77,3.65,1.56,1,1.6.81,3,.48,1.5-.38-1-16.57-.38-18.83,1-4,7.32-6.72,10.53-1.93,1.55,2.32,4.33,10.69,5.75,14.72C161,135.39,197.67,108,242.28,96.84a21,21,0,0,0,4.35-1L255,120l.38,1.11.76,2.21h0l6.1,17.71,36.56-21.89a14.15,14.15,0,0,0,5.46-3.27h0l.38,0,0-.19,12.8-7.67.7-3.29,2.67-12.51,9.19,8.28,9.53-5.7h0c8.24-4.91,42.54-25.47,73-43.71L461,22,391.1,25.86h0l-32.19,1.76.1,9.1-9-4.82-6.42-3.44-19.87,1.09a3.86,3.86,0,0,0-3.82.21L278.82,32c-1.18-.35-3.22,0-6,.33l-6.91.37h0l-36.22,2,4.58,18.24c-.31,2.46.48,6,2.81,11.19h0l0,0q-12.28,3.13-24.08,7.15C202.88,74.46,193,78,185.2,82.22a301.37,301.37,0,0,0-69.13,43.06c-6.94,5.2-13.68,10.51-18.37,16.66C44.7,194.26,12.91,266,12.9,346.43c0,21.75,7.62,78.8,33.16,126.49-.26-5.08-1.19-12.58-.81-14.06,1-4,7.32-6.73,10.52-1.93,1.81,2.69,5.26,13.51,6.32,16.27,1,2.47.87,1.33,2,.89,1.31-.49,1.71-1.46,4-2.28a7,7,0,0,1,9,7.19A13.5,13.5,0,0,1,73.7,487c-1.64,1.71-2.35,2.37-2.44,4.54a14.32,14.32,0,0,0,1.61,7.24c1.82,3.47.95,8-2.48,9.35,21.78,24.08,51.21,40.3,90.64,38.53,0,0,16.6,1.55,43.2,1.09C321.68,545.64,427.12,473.5,469.6,364,481.13,334.24,485.22,308.64,472.68,297.09Z"/><path class="cls-2" d="M459.78,275.05l-52.67,7.35a9.64,9.64,0,0,1,1.54,5,13.66,13.66,0,0,1-2.84,8.84c-1.58,1.81-2.27,2.5-2.15,5a20.21,20.21,0,0,0,2.47,8.54c2.65,4.85,1.63,11-3.57,10.81-2.93-.12-5.25-1.49-7.53-2.25-2-.68-2.61-.56-3.44,1.41-.93,2.2-1,5.28-2,8.11a6.11,6.11,0,0,1-3,3.45c-2.52,17.27-10.19,38.39-28.51,61.44-28.58,36-70.11,59.24-115.52,66.28-47,7.28-110.29,6.59-136.65-41.11,0,0-.67-1.09-1.85-3.17-1.43-2.53-2.79-5.09-4.12-7.67-2.65,1.95-6.38,1.67-8.86-1.49-1.87-2.37-2.83-5.19-4.36-7.71-1.37-2.25-.77-2.57-4.5-3.28-4.19-.81-7.52,3.44-11.63,5.23-7.3,3.17-6.5-6.93-4.15-11.42,1.32-2.52,6.11-8.47,8.59-9.15,2.22-.6,2.72-.19,2.38-1.87-.37-1.89-1.86-4.24-2.52-6.83-1.19-4.59,2.39-10,7.51-8.54l.17.06c-15.84-58.85-8.48-122.83,17.17-175.94-.67-1.27-.88-1.59-3.88-2.17-4.19-.8-7.51,3.45-11.62,5.23-7.3,3.18-6.5-6.93-4.15-11.41,1.32-2.52,6.1-8.48,8.59-9.15,2.22-.6,2.71-.19,2.38-1.87-.37-1.89-1.86-4.25-2.53-6.83-1.18-4.59,2.4-10,7.52-8.54,2.88.83,5,2.58,6.77,3.65,1.56,1,1.6.82,2.94.48,1.51-.38-.94-16.57-.37-18.83,1-4,7.32-6.72,10.53-1.93,1.55,2.33,4.33,10.69,5.75,14.72C149,112.18,187.15,84.23,233.73,73.77L249.31,119l42-25.17.39,0,0-.19L304.48,86l.7-3.3,2.66-12.5,9.2,8.28,31.64-18.95L448.05,0,346,5.58l.1,9.1-9-4.81-6.42-3.45-114,6.24,7.4,29.44C92.06,75.79,0,187.48,0,324.39c0,21.75,7.62,78.8,33.16,126.49-.26-5.08-1.19-12.58-.81-14.06,1-4,7.31-6.72,10.52-1.93,1.81,2.69,5.25,13.51,6.32,16.28,1,2.46.87,1.32,2,.88,1.31-.49,1.71-1.45,4.05-2.27a7,7,0,0,1,9,7.19,13.54,13.54,0,0,1-3.43,7.94c-1.64,1.71-2.36,2.37-2.45,4.55A14.42,14.42,0,0,0,60,476.69c1.82,3.47,1,8-2.49,9.35,21.79,24.08,51.22,40.3,90.65,38.53a429.86,429.86,0,0,0,43.2,1.09C308.77,523.6,414.22,451.46,456.69,342,468.23,312.2,472.31,286.6,459.78,275.05Z"/><path class="cls-3" d="M378.2,3.82c5.31,19.86-29.92,20.38-42.71,19.44-11.13,1.27-26.56-27.46-30.95-11.09C300,22,268.72,43,264.62,20.82c5.87-15.73,1.3-9.89-11.66-10.14-3.2,26.79-42.49,1-28.82,31.42-19.39,5.78-45.46,12.42-58.87,22.52,8.87,7.42-.48,17.52-9.29,18.9-5,7.19-13.78,12.85-24.17,7.84-4.28,3.64-10.14,4-13.54.16C102.05,105.69,77.63,117,78.44,138.37c16.43,11.51,45.67-32.35,48.22.15,20.63-25.9,35.46-38.79,63.61-51,7.91-23.82,28-8.24,43.46-13.77l9.48,27.54a21.41,21.41,0,0,1,10.39-6.6s.05,0,.39-.13l-.39.13c15.83-6,26.11,9.81,37.72-.85,14.9-18.18-4.44-6.94-5.58-21.84.77-25.22,33-15.22,40.83.73C340.73,64.32,431.86,9.66,448.05,0Z"/><path class="cls-3" d="M63.61,255.21c-3.93.79-8.09-3.93-10.3.18-11.14,32.45-15.83-17.29-34.19,2.72-15.22.91,1.63-20.65,6.82-22.43C18.22,219.82,29,218,40.64,224.44c1.52-4.52-4.61-32.32,10.15-20.76,4.48,4.73,3.5,23.39,12.39,14.89,13.93-1.8,7.49,13.49,3.09,19.68C66,244,73.21,253.81,63.61,255.21Z"/><path class="cls-3" d="M68.89,289.26c-3.93.78-8.09-3.94-10.3.18-11.14,32.45-15.83-17.29-34.19,2.72-15.22.91,1.63-20.65,6.81-22.43C23.5,253.87,34.28,252,45.92,258.49c1.52-4.52-4.61-32.32,10.15-20.76,4.47,4.73,3.5,23.39,12.39,14.88,13.93-1.79,7.49,13.5,3.09,19.68C71.32,278,78.49,287.86,68.89,289.26Z"/><g class="cls-4"><path d="M532,672.08c-5.6-14.59-21.39-24.35-51.14-31.91,13.12-28.1-26.74-82.16-30.38-64.49,22.43-108.86-57.88-120.22-94.05-120.22-65.11,0-59.48,61.4-91,60.05-40-1.72-82.66,14.27-89.9,59.08,2.11-13.06-140.35,38.25-107.07,99.46-38-70-146.13-3.28-146.13-3.28-51.47-25.3-81-36.07-166.39-1.1-24.52,10.05-40.4,44.91-37.62,64.49-35.57,17.7-43.5,48-30.39,79.78,28.22,68.31,45.93-4.43,72.35,73.77-73.81,60,96.21,107.65,106,94.71,12.12-16,59.59,28.93,103,20.05,28-1,41.3-17.7,61.49-23,9.73-2.53,92.71-26,66.56-37.71C180.63,979,228.51,939.09,266,880.06c22,1.15,35.49-23.47,48.47-13.66,43.41,32.79,147.61,4.11,144-63.94-15.27-58.83,38,8.12,74.06-110.05A30.89,30.89,0,0,0,532,672.08Z"/><path class="cls-5" d="M525.38,691.34c0-19.17-23.36-35.79-57.52-44a41,41,0,0,0,3.81-17.14c0-20.37-15.37-38-37.83-46.71a74.36,74.36,0,0,0,14.94-44.6c0-43.25-37.58-78.31-83.95-78.31-42.69,0-77.93,29.72-83.26,68.19a72.19,72.19,0,0,0-99.16,53.83,71.65,71.65,0,0,0-17.56-2.18c-48.9,0-88.55,49.67-88.55,110.94,0,1.08,0,2.16,0,3.24l-.79-.12C64.68,669.85,33.92,652.1-2.32,652.1c-32.06,0-59.83,13.89-73.33,34.13-19.67-16.73-51.28-27.59-86.93-27.59-59.65,0-108,30.38-108,67.86a43.74,43.74,0,0,0,1.49,11.24c-20.53,9.31-34.75,29.41-34.75,52.71,0,32.17,27.08,58.24,60.48,58.24a62.45,62.45,0,0,0,6.45-.33,39.17,39.17,0,0,0-.29,4.74c0,11.52,5,22.31,13.82,31.58-12.52,8.75-20,19.76-20,31.72,0,28.47,42.26,51.56,94.38,51.56a158.66,158.66,0,0,0,46.3-6.62c9.63,19.85,34.88,34,64.51,34,26.3,0,49.13-11.17,60.67-27.57,1.79.1,3.6.17,5.42.17,30.87,0,57.42-13.91,69.33-33.87a100,100,0,0,0,57.35,18.2c46.79,0,86.54-32.81,101-78.49,1.92.12,3.86.18,5.81.18a88.06,88.06,0,0,0,51.29-16,90.78,90.78,0,0,0,52.14,16c46.27,0,83.78-33,83.78-73.74a65.83,65.83,0,0,0-4.74-24.49c37.57-8.91,63.45-27.62,63.45-49.25a27.45,27.45,0,0,0-.9-6.93C518.37,711.56,525.38,701.83,525.38,691.34Z"/></g></g></svg>