<svg xmlns="http://www.w3.org/2000/svg" width="377.58" height="435.36" viewBox="0 0 377.58 435.36"><defs><style>.cls-1{fill:#d2dbaf;}</style></defs><g id="Layer_3" data-name="Layer 3"><path d="M306,276.54c.76,31.22-10.81,59.14-34.34,75.12a85.86,85.86,0,0,1-18.3,8.81,124.15,124.15,0,1,1-3.94-240.07l-7.63,24.87,67.92,4.39,67.92,4.4-48-69.46L281.67,15.13l-10.9,35.53c-13.13-3.1-29.34-4.1-51.13-4.1-107.36,0-194.4,87-194.4,194.4s87,194.4,194.4,194.4a193.53,193.53,0,0,0,80.8-17.57l.19.23c5.15-2.46,7.05-5.35,11.25-8.82,37.44-30.91,55.87-79.68,51.65-132.66Z"/><path class="cls-1" d="M280.71,261.41c.76,31.21-10.81,59.14-34.34,75.11a86.13,86.13,0,0,1-18.3,8.82,124.15,124.15,0,1,1-3.94-240.08l-7.63,24.88,67.92,4.39,67.92,4.39-48-69.46L256.42,0l-10.9,35.53c-13.12-3.11-29.33-4.11-51.12-4.11C87,31.42,0,118.46,0,225.82s87,194.4,194.4,194.4a193.52,193.52,0,0,0,80.8-17.56l.19.23c5.15-2.46,7.05-5.36,11.25-8.82,37.43-30.91,55.87-79.69,51.65-132.66Z"/></g></svg>