<svg xmlns="http://www.w3.org/2000/svg" width="879.77" height="253.48" viewBox="0 0 879.77 253.48"><defs><style>.cls-1{fill:#fff;}.cls-2{fill:#227d99;}.cls-3{fill:#cfdee2;}</style></defs><g id="Layer_3" data-name="Layer 3"><rect x="59.56" y="42.53" width="820.2" height="210.96" rx="105.48"/><rect class="cls-1" width="820.2" height="210.96" rx="105.48"/><path d="M195.8,102c-18.55-32.74-50-29.93-31.3-93,0,0-91.24,41.57-105.24,121.77-6.77,38.79,31.93,71.3,71.31,71.3,33.53,0,71.3-31.93,71.3-71.3A71,71,0,0,0,195.8,102Z"/><path class="cls-2" d="M189.6,102.16c-17.42-30.73-49.06-29.47-31.49-88.65,0,0-83.56,40.41-96.7,115.7-6.36,36.42,30,66.94,66.94,66.94a67,67,0,0,0,61.25-94Z"/><path d="M105.67,89.58c-2.81-5-7.57-4.53-4.74-14.08,0,0-13.81,6.3-15.93,18.44-1,5.87,4.83,10.8,10.79,10.8,5.08,0,10.8-4.84,10.8-10.8A10.74,10.74,0,0,0,105.67,89.58Z"/><path class="cls-3" d="M105.07,89.6c-2.64-4.65-7.43-4.46-4.77-13.42,0,0-12.66,6.12-14.65,17.52-1,5.52,4.54,10.14,10.14,10.14a10.15,10.15,0,0,0,9.28-14.24Z"/></g></svg>