<svg xmlns="http://www.w3.org/2000/svg" width="879.77" height="253.48" viewBox="0 0 879.77 253.48"><defs><style>.cls-1{fill:#fff;}.cls-2{fill:#227d99;}.cls-3{fill:#cfdee2;}</style></defs><g id="Layer_3" data-name="Layer 3"><rect x="59.56" y="42.53" width="820.2" height="210.96" rx="105.48"/><rect class="cls-1" width="820.2" height="210.96" rx="105.48"/><path d="M195.8,102c-18.55-32.74-50-29.93-31.3-93,0,0-91.24,41.57-105.24,121.77-6.77,38.79,31.93,71.3,71.31,71.3,33.53,0,71.3-31.93,71.3-71.3A71,71,0,0,0,195.8,102Z"/><path class="cls-2" d="M189.6,102.16c-17.42-30.73-49.06-29.47-31.49-88.65,0,0-83.56,40.41-96.7,115.7-6.36,36.42,30,66.94,66.94,66.94a67,67,0,0,0,61.25-94Z"/><path d="M105.67,89.58c-2.81-5-7.57-4.53-4.74-14.08,0,0-13.81,6.3-15.93,18.44-1,5.87,4.83,10.8,10.79,10.8,5.08,0,10.8-4.84,10.8-10.8A10.74,10.74,0,0,0,105.67,89.58Z"/><path class="cls-3" d="M105.07,89.6c-2.64-4.65-7.43-4.46-4.77-13.42,0,0-12.66,6.12-14.65,17.52-1,5.52,4.54,10.14,10.14,10.14a10.15,10.15,0,0,0,9.28-14.24Z"/><path class="cls-2" d="M363.34,35.78V54.64H319.92v20q8.15-8.09,21-8.09,14.48,0,21.88,6.81t7.41,26.19v16.83q0,12.52-1.43,18.39a24.17,24.17,0,0,1-6.11,10.86q-4.68,5-13,7.65A68.07,68.07,0,0,1,329.19,156a66.2,66.2,0,0,1-23.83-4q-10.32-4-14.65-11.84t-4.33-24.33v-6.41h35v7.35q0,11.44,1,16.25c.63,3.21,2.83,4.81,6.58,4.81a6.18,6.18,0,0,0,4.21-1.39,4.5,4.5,0,0,0,1.73-3q.13-1.6.3-13.92V96.17q0-6.63-1.64-9t-5.46-2.4A6.58,6.58,0,0,0,324,86a5.72,5.72,0,0,0-2.12,2.66,26.83,26.83,0,0,0-.48,6.59H286.73l1.47-59.44Z"/><path class="cls-2" d="M476.29,33.52,434.79,156H408.27L450,33.52Z"/><path class="cls-2" d="M568.9,35.78V153.72h-35V90.49q0-13.69-.78-16.47t-4.29-4.19q-3.51-1.41-15.64-1.42h-3.47V54.66q25.4-4.59,38.57-18.88Z"/><path class="cls-2" d="M665.1,75.7V115q0,13.39-1.74,19.52A25.85,25.85,0,0,1,656.17,146,31.82,31.82,0,0,1,643,153.65,59.64,59.64,0,0,1,625.75,156q-12.57,0-20.88-2.44a29.27,29.27,0,0,1-13.26-7.62,31,31,0,0,1-7-10.89q-2.08-5.72-2.08-18.17V75.7q0-16.24,3.33-24.33t13.26-13q9.93-4.87,24-4.88a59,59,0,0,1,20.63,3.38q9.11,3.39,13.6,8.27a25.59,25.59,0,0,1,6.11,11Q665.09,62.29,665.1,75.7Zm-35-9.91c0-6.26-.37-10.19-1.09-11.76s-2.41-2.37-5.07-2.37-4.32.83-5.15,2.51-1.26,5.55-1.26,11.62v57.55q0,10.28,1.17,12.39c.78,1.4,2.47,2.11,5.07,2.11s4.3-.83,5.11-2.48,1.22-5.37,1.22-11.15Z"/></g></svg>