<svg xmlns="http://www.w3.org/2000/svg" xmlns:xlink="http://www.w3.org/1999/xlink" width="1920" height="1080" viewBox="0 0 1920 1080"><defs><style>.cls-1{fill:url(#linear-gradient);}.cls-2{opacity:0.3;}.cls-3{opacity:0.2;}.cls-4{fill:#fff;}.cls-5{fill:#070707;}</style><linearGradient id="linear-gradient" x1="454.44" y1="128.47" x2="1369.02" y2="872.94" gradientUnits="userSpaceOnUse"><stop offset="0" stop-color="#c8e7ed"/><stop offset="0.36" stop-color="#84e3f2"/><stop offset="0.71" stop-color="#fef8d8"/></linearGradient></defs><g id="Layer_3" data-name="Layer 3"><rect class="cls-1" width="1920" height="1080"/><g class="cls-2"><path d="M1090.86,10.63l2.75-.58c-3.59-3.44-2.2-2.36-5-3.11a4.92,4.92,0,0,0-3.27.57,44.18,44.18,0,0,0-6.18,5.71C1083.06,12.36,1087,11.48,1090.86,10.63Z"/><path d="M1071.1,15c-2.38-2.75-8.61-3-11.35-2.66l-2.86,2.7a31.41,31.41,0,0,0-1,3.4Q1063.51,16.7,1071.1,15Z"/><path d="M1090.86,10.63c-1.3-1.23-1-.76-3.06-1.31a4.64,4.64,0,0,0-3.12.55c-1.28,1-2.38,2-3.39,2.88C1084.48,12.05,1087.67,11.32,1090.86,10.63Z"/><path d="M1068.77,15.52a18.77,18.77,0,0,0-8.62-1l-2.73,2.6c-.08.22-.21.61-.35,1.08Z"/><path d="M1065.08,16.34a18.32,18.32,0,0,0-3.49.07l-1,1Z"/></g><g class="cls-3"><path d="M824.46,159.75l.59.12-5.48,3.41C821.19,162.1,822.83,160.92,824.46,159.75Z"/><path d="M821.09,162.18l.21,0-1.73,1.07Z"/></g><g class="cls-3"><path class="cls-4" d="M838,158l.59.12-5.48,3.41Z"/><path class="cls-4" d="M834.63,160.47l.21,0-1.73,1.08Z"/></g><g class="cls-3"><path d="M551.64,304.69l.59.12-5.49,3.41Z"/><path d="M548.26,307.13l.21,0-1.73,1.07Z"/></g><path class="cls-5" d="M993.63,648.46h0a.33.33,0,0,1-.23-.18l0,0-.23-.13c-.09-.06-.08-.23,0-.25l.23,0s0-.06,0-.14.12-.34.27-.32h.05a.09.09,0,0,0,.1-.08l0-.28s0,0,0-.06.33.14.26.33h0c0,.08.1.12.16.07l.18-.16c.08-.07.19,0,.16.15l-.15.29c0,.08.13.15.19.16l.19,0c.1,0,.19.24.11.3l-.35.13h0a.22.22,0,0,0,.07.35l.2.06a.14.14,0,0,1,.06.21.08.08,0,0,1-.08,0l-.23-.06c-.07,0-.18.12-.17.2l.1.23c0,.13-.11.19-.18.09l-.16-.23s-.11-.19-.16-.24a.58.58,0,0,1-.11-.15s-.05-.09-.07-.09l-.1,0A.3.3,0,0,0,993.63,648.46Z"/></g></svg>
