<svg xmlns="http://www.w3.org/2000/svg" width="470" height="440" viewBox="0 0 470 440"><defs><style>.cls-1{fill:#282724;}.cls-2{fill:#56503f;}.cls-3{fill:#898264;}.cls-4{fill:#54524a;}.cls-5{fill:#d6222c;}.cls-6{fill:#d3d324;}</style></defs><g id="Layer_3" data-name="Layer 3"><path d="M391.94,168.05c-7.71,9.32-38.59-6.12-71.44-33.33s-51.44-57.09-43.73-66.41,41.07,4.6,73.43,32.38C389.27,134.23,399.65,158.72,391.94,168.05Z"/><path d="M337.21,117c19.26,16.74,33.43,33.32,46.85,52.16,5.6,1,7.26,3.68,9.39,1.1,7.54-9.12-10.51-41.94-43.36-69.15S284.49,59.22,277,68.33c-1.49,1.8-1.87,4.4-1.29,7.61C297.07,88.06,318,100.31,337.21,117Z"/><path d="M326.23,124.57s8.22-47.16,59.18-45.81c0,0,27.58-25.55,30.68-29.41l3.86,2.4S393,81,385.33,83.38c0,0-35.62-8.57-55.58,42.79Z"/><path d="M393.45,170.26s-31.64-4.47-72.35-36.54-44.57-65.43-44.57-65.43l-23.11,40c-25.16-13.58-56.12-17.53-86.71-17.53C68.1,90.76-5.3,180.35.3,278.92,5.54,371.12,72.88,440,171.49,440s173.77-71.74,173.77-170.47a178.68,178.68,0,0,0-11-61.83Z"/><polygon points="429.12 121.09 406.45 93.29 376.99 113.73 384.56 78.65 350.23 68.33 382.35 52.39 369 19.08 401.48 34.28 419.17 3.07 427.54 37.96 462.95 32.35 440.92 60.66 467.38 84.87 431.54 85.28 429.12 121.09"/><polygon points="445.43 108.53 415.03 89.52 393.7 118.36 389.59 82.71 353.77 84.01 379.05 58.56 355.71 31.33 391.34 35.25 398.05 0 417.2 30.34 448.91 13.61 437.17 47.52 470 61.91 436.2 73.85 445.43 108.53"/><polygon points="424.58 83.34 410.36 74.71 400.65 88.22 398.53 71.71 381.93 72.53 393.49 60.58 382.5 48.09 399.04 49.69 401.94 33.31 411.01 47.25 425.61 39.3 420.37 55.1 435.68 61.57 420.08 67.31 424.58 83.34"/><path class="cls-1" d="M386.4,167.93c-7.3,8.83-36.54-5.79-67.65-31.56S270,82.31,277.34,73.48s38.89,4.36,69.54,30.67C383.87,135.91,393.7,159.1,386.4,167.93Z"/><path class="cls-2" d="M334.58,119.59c18.23,15.86,31.65,31.56,44.36,49.4,5.3.92,6.88,3.48,8.89,1,7.14-8.64-9.95-39.72-41.06-65.49s-62.12-39.66-69.25-31c-1.41,1.7-1.77,4.16-1.22,7.2C296.56,92.19,316.4,103.79,334.58,119.59Z"/><path class="cls-3" d="M324.18,126.76s7.78-44.66,56-43.38c0,0,26.12-24.19,29-27.85l3.65,2.27s-25.48,27.73-32.78,30c0,0-33.73-8.11-52.63,40.52Z"/><path class="cls-4" d="M387.83,170s-30-4.24-68.51-34.61-42.21-61.95-42.21-61.95L253.17,114.9a168.15,168.15,0,0,0-80-20.15C79.74,94.75,4,170.54,4,264S79.74,433.31,173.12,433.31,342.2,357.52,342.2,264a169.1,169.1,0,0,0-10.39-58.55Z"/><polygon class="cls-5" points="421.61 123.47 400.14 97.14 372.24 116.49 379.42 83.28 346.91 73.5 377.32 58.41 364.68 26.87 395.43 41.26 412.18 11.7 420.12 44.75 453.64 39.43 432.78 66.24 457.84 89.17 423.9 89.56 421.61 123.47"/><polygon class="cls-6" points="437.05 111.57 408.26 93.57 388.07 120.89 384.18 87.13 350.26 88.35 374.2 64.25 352.09 38.47 385.83 42.18 392.19 8.8 410.32 37.52 440.35 21.69 429.23 53.79 460.32 67.42 428.31 78.73 437.05 111.57"/><polygon class="cls-5" points="417.31 87.71 403.85 79.54 394.65 92.33 392.64 76.71 376.92 77.48 387.87 66.16 377.46 54.34 393.13 55.86 395.87 40.34 404.46 53.55 418.28 46.02 413.32 60.97 427.82 67.1 413.05 72.54 417.31 87.71"/></g></svg>
