<svg id="Layer_1" data-name="Layer 1" xmlns="http://www.w3.org/2000/svg" width="1880" height="440" viewBox="0 0 1880 440"><defs><style>.cls-1{fill:#010101;}.cls-2{fill:#f3e206;}.cls-3{fill:#ee3024;}.cls-4{fill:#292825;}.cls-5{fill:#57513f;}.cls-6{fill:#898365;}.cls-7{fill:#54534b;}.cls-8{fill:#d6232c;}.cls-9{fill:#d3d327;}</style></defs><path class="cls-1" d="M810,359.22c-7.65-3.67-16.08-8.7-19.6-16.41-2-4.5-1.62-9.39.1-13.94,1.34-3.53,3.69-6.76,5.86-9.85,7.88-11.18,17.64-21.46,27.06-31.49,5.28-5.63,10.62-11.26,16.11-16.77,0-.41,0-.82,0-1.23a168.8,168.8,0,0,0-11.7-61.83l63-37.44s-33.71-4.47-77.09-36.54-47.49-65.43-47.49-65.43l-24.62,40a134.33,134.33,0,0,0-20-8.07c-1.45,18.91-19.38,33.86-41.3,33.86-22.87,0-41.42-16.27-41.42-36.34a32.64,32.64,0,0,1,.72-6.73C539.53,96.25,466.2,183.36,472,278.92,477.57,371.12,549.33,440,654.4,440c68.67,0,126.65-30.64,158.6-79.42C812,360.14,811,359.69,810,359.22Z"/><path class="cls-2" d="M644.78,21.49c23.4,29.08-13,32.28,46.37,66.49,0,0,3.58-18.82,14.57-25.09,0,0-12.52,16.87,6.84,40.42a71.16,71.16,0,0,1,8.52,12.86c48,94.39-122.93,102.9-111.64-4.1a94.15,94.15,0,0,1,22.13-50.78C641.5,49.53,650.67,36.51,644.78,21.49Z"/><path class="cls-3" d="M693.28,22.94s-35.42,22.25,11.12,78.21a65.08,65.08,0,0,1,14.83,34.35C734.18,269.08,491.66,117.86,693.28,22.94Z"/><path class="cls-2" d="M668.37,91.1s7.11,8.94-13.51,37.53a51.52,51.52,0,0,0-5.59,9.71C626.39,191.49,732.7,204,696,144.8a47,47,0,0,0-7-8.6c-4.24-4.19-9.16-11.52-3.67-20.37,0,0-10.54,11.25-9.54,16.39C662.3,123.43,695.64,96.73,668.37,91.1Z"/><path class="cls-2" d="M800.38,43.33c-8,35-35.4,13.6-23,75.49,0,0,17.93-10.52,30.59-7.66,0,0-22.43,3.38-28.58,32a66.7,66.7,0,0,1-4.76,14.32c-44.89,95.58-168.54-9.6-72.82-75.31A121.22,121.22,0,0,1,758.63,61.9C775.08,60.33,792,57.4,800.38,43.33Z"/><path class="cls-3" d="M832.29,75.8S789.82,68,775.56,136.41a66.54,66.54,0,0,1-18.14,33.08C657.78,270.37,616.61,9.65,832.29,75.8Z"/><path class="cls-2" d="M759.23,106.16s-2.5,10.71-40.09,16.83a65.66,65.66,0,0,0-11.8,3c-59.32,21.41,3,99,26.58,34.74a41.88,41.88,0,0,0,2.32-10.39c.56-5.61,3.22-13.81,14.25-16.29,0,0-16.45.84-20,5C728.5,124.28,773.21,127.71,759.23,106.16Z"/><path class="cls-2" d="M847.12,137.84c-35.26,17.21-34.53-15.25-79.78,33,0,0,20.62,5.39,26.32,15.83,0,0-17.38-13-46,1.25a87.34,87.34,0,0,1-15.38,6C621.16,225.14,631.86,73.33,750.1,96a118,118,0,0,1,54.12,25.53C816.18,131.63,829.65,141.26,847.12,137.84Z"/><path class="cls-3" d="M839.78,180.46s-20.68-33.88-88.71.57a85.91,85.91,0,0,1-40.15,9C559.9,187.45,757.55-8.67,839.78,180.46Z"/><path class="cls-2" d="M766.55,150.43s-10.82,5.21-40.33-16.37A61.61,61.61,0,0,0,716,128c-56.68-26.48-83.19,65.85-12.74,40.46a54.91,54.91,0,0,0,10.43-5.13c5.18-3.24,13.95-6.72,23.19-.83,0,0-11.32-10.63-17.19-10.35C731.15,141.24,757,173.82,766.55,150.43Z"/><path class="cls-2" d="M737.66,184.86c23.39,29.08-13,32.27,46.37,66.49,0,0,3.58-18.83,14.57-25.09,0,0-12.52,16.87,6.83,40.42A71.22,71.22,0,0,1,814,279.54c48,94.39-122.93,102.9-111.64-4.11a94.22,94.22,0,0,1,22.13-50.78C734.37,212.9,743.54,199.88,737.66,184.86Z"/><path class="cls-3" d="M786.15,186.3s-35.41,22.26,11.12,78.21a65,65,0,0,1,14.83,34.36C827.06,432.44,584.53,281.23,786.15,186.3Z"/><path class="cls-2" d="M761.25,254.47s7.11,8.94-13.52,37.53a51.16,51.16,0,0,0-5.58,9.71c-22.88,53.14,83.43,65.61,46.72,6.45a46.59,46.59,0,0,0-7-8.59c-4.23-4.2-9.16-11.52-3.67-20.37,0,0-10.53,11.25-9.53,16.39C755.18,286.8,788.52,260.1,761.25,254.47Z"/><path class="cls-2" d="M893.25,206.69c-7.94,35-35.39,13.61-23,75.5,0,0,17.93-10.53,30.58-7.67,0,0-22.42,3.39-28.58,32a65.86,65.86,0,0,1-4.75,14.31c-44.89,95.59-168.54-9.59-72.83-75.3a121.19,121.19,0,0,1,56.87-20.29C868,223.69,884.92,220.76,893.25,206.69Z"/><path class="cls-3" d="M925.17,239.17s-42.48-7.81-56.74,60.61a66.42,66.42,0,0,1-18.13,33.07C750.66,433.74,709.48,173,925.17,239.17Z"/><path class="cls-2" d="M852.11,269.52s-2.5,10.72-40.09,16.84a66.49,66.49,0,0,0-11.8,3c-59.33,21.42,3,99,26.58,34.75a42,42,0,0,0,2.32-10.39c.55-5.61,3.21-13.81,14.24-16.29,0,0-16.44.84-20,5C821.37,287.64,866.09,291.07,852.11,269.52Z"/><path class="cls-2" d="M940,301.21c-35.26,17.21-34.53-15.26-79.78,33.05,0,0,20.61,5.39,26.31,15.83,0,0-17.37-13-46,1.25a87.34,87.34,0,0,1-15.38,6C714,388.5,724.73,236.69,843,259.31a118.06,118.06,0,0,1,54.13,25.54C909.06,295,922.52,304.63,940,301.21Z"/><path class="cls-3" d="M932.66,343.83S912,310,843.94,344.39a85.65,85.65,0,0,1-40.14,9C652.77,350.81,850.43,154.69,932.66,343.83Z"/><path class="cls-2" d="M859.43,313.79S848.6,319,819.09,297.43a60.84,60.84,0,0,0-10.19-6.08c-56.68-26.48-83.18,65.86-12.74,40.46a54.33,54.33,0,0,0,10.43-5.13c5.19-3.24,13.95-6.72,23.2-.82,0,0-11.33-10.63-17.19-10.36C824,304.61,849.91,337.19,859.43,313.79Z"/><path class="cls-1" d="M391.94,168.05c-7.71,9.32-38.59-6.12-71.44-33.33s-51.44-57.09-43.73-66.41,41.07,4.6,73.43,32.38C389.27,134.23,399.65,158.72,391.94,168.05Z"/><path class="cls-1" d="M337.21,117c19.26,16.74,33.43,33.32,46.85,52.16,5.6,1,7.26,3.68,9.39,1.1,7.54-9.12-10.51-41.94-43.36-69.15S284.49,59.22,277,68.33c-1.49,1.8-1.87,4.4-1.29,7.61C297.07,88.06,318,100.31,337.21,117Z"/><path class="cls-1" d="M326.23,124.57s8.22-47.16,59.18-45.81c0,0,27.58-25.55,30.68-29.41l3.86,2.4S393,81,385.33,83.38c0,0-35.62-8.57-55.58,42.79Z"/><path class="cls-1" d="M393.45,170.26s-31.64-4.47-72.35-36.54-44.57-65.43-44.57-65.43l-23.11,40c-25.16-13.58-56.12-17.53-86.71-17.53C68.1,90.76-5.3,180.35.3,278.92,5.54,371.12,72.88,440,171.49,440s173.77-71.74,173.77-170.47a178.68,178.68,0,0,0-11-61.83Z"/><polygon class="cls-1" points="429.12 121.09 406.45 93.29 376.99 113.73 384.56 78.65 350.23 68.33 382.35 52.39 369 19.08 401.48 34.28 419.17 3.07 427.54 37.96 462.95 32.35 440.92 60.66 467.38 84.87 431.54 85.28 429.12 121.09"/><polygon class="cls-1" points="445.43 108.53 415.03 89.52 393.7 118.36 389.59 82.71 353.77 84.01 379.05 58.56 355.71 31.33 391.34 35.25 398.05 0 417.2 30.34 448.91 13.61 437.17 47.52 470 61.91 436.2 73.85 445.43 108.53"/><polygon class="cls-1" points="424.58 83.34 410.36 74.71 400.65 88.22 398.53 71.71 381.93 72.53 393.49 60.58 382.5 48.09 399.04 49.69 401.94 33.31 411.01 47.25 425.61 39.3 420.37 55.1 435.68 61.57 420.08 67.31 424.58 83.34"/><path class="cls-4" d="M386.4,167.93c-7.3,8.83-36.54-5.79-67.65-31.56S270,82.31,277.34,73.48s38.89,4.36,69.54,30.67C383.87,135.91,393.7,159.1,386.4,167.93Z"/><path class="cls-5" d="M334.58,119.59c18.23,15.86,31.65,31.56,44.36,49.4,5.3.92,6.88,3.48,8.89,1,7.14-8.64-9.95-39.72-41.06-65.49s-62.12-39.66-69.25-31c-1.41,1.7-1.77,4.16-1.22,7.2C296.56,92.19,316.4,103.79,334.58,119.59Z"/><path class="cls-6" d="M324.18,126.76s7.78-44.66,56-43.38c0,0,26.12-24.19,29-27.85l3.65,2.27s-25.48,27.73-32.78,30c0,0-33.73-8.11-52.63,40.52Z"/><path class="cls-7" d="M387.83,170s-30-4.24-68.51-34.61-42.21-61.95-42.21-61.95L253.17,114.9a168.15,168.15,0,0,0-80-20.15C79.74,94.75,4,170.54,4,264S79.74,433.31,173.12,433.31,342.2,357.52,342.2,264a169.1,169.1,0,0,0-10.39-58.55Z"/><polygon class="cls-8" points="421.61 123.47 400.14 97.14 372.24 116.49 379.42 83.28 346.91 73.5 377.32 58.41 364.68 26.87 395.43 41.26 412.18 11.7 420.12 44.75 453.64 39.43 432.78 66.24 457.84 89.17 423.9 89.56 421.61 123.47"/><polygon class="cls-9" points="437.05 111.57 408.26 93.57 388.07 120.89 384.18 87.13 350.26 88.35 374.2 64.25 352.09 38.47 385.83 42.18 392.19 8.8 410.32 37.52 440.35 21.69 429.23 53.79 460.32 67.42 428.31 78.73 437.05 111.57"/><polygon class="cls-8" points="417.31 87.71 403.85 79.54 394.65 92.33 392.64 76.71 376.92 77.48 387.87 66.16 377.46 54.34 393.13 55.86 395.87 40.34 404.46 53.55 418.28 46.02 413.32 60.97 427.82 67.1 413.05 72.54 417.31 87.71"/><path class="cls-1" d="M889.3,168.05c-8.25,9.32-41.28-6.12-76.43-33.33s-55-57.09-46.79-66.41,43.94,4.6,78.56,32.38C886.44,134.23,897.54,158.72,889.3,168.05Z"/><path class="cls-1" d="M830.75,117c20.6,16.74,35.76,33.32,50.11,52.16,6,1,7.77,3.68,10,1.1,8.06-9.12-11.24-41.94-46.39-69.15s-70.18-41.89-78.23-32.78c-1.59,1.8-2,4.4-1.38,7.61C787.8,88.06,810.22,100.31,830.75,117Z"/><path class="cls-1" d="M789.26,141s8.8-47.16,63.31-45.81c0,0,29.51-25.55,32.83-29.41l4.12,2.39s-28.79,29.28-37,31.63c0,0-38.1-8.56-59.45,42.79Z"/><polygon class="cls-1" points="850.14 177.84 825.89 150.04 794.37 170.48 802.47 135.4 765.75 125.08 800.1 109.14 785.83 75.83 820.57 91.03 839.49 59.82 848.45 94.71 886.33 89.1 862.76 117.41 891.07 141.63 852.72 142.04 850.14 177.84"/><polygon class="cls-1" points="867.59 165.28 835.06 146.27 812.25 175.12 807.85 139.47 769.53 140.76 796.58 115.32 771.6 88.08 809.72 92.01 816.9 56.75 837.39 87.09 871.31 70.36 858.75 104.27 893.87 118.66 857.71 130.61 867.59 165.28"/><path class="cls-4" d="M883.37,167.93c-7.81,8.83-39.09-5.79-72.37-31.56s-52.11-54.06-44.31-62.89,41.61,4.36,74.4,30.67C880.66,135.91,891.18,159.1,883.37,167.93Z"/><path class="cls-5" d="M827.93,119.59A278.42,278.42,0,0,1,875.38,169c5.67.92,7.36,3.48,9.52,1,7.63-8.64-10.65-39.72-43.93-65.49s-66.45-39.66-74.09-31c-1.5,1.7-1.88,4.16-1.3,7.2C787.26,92.19,808.49,103.79,827.93,119.59Z"/><path class="cls-6" d="M816.72,127s4.52-26,38.88-24.23c0,0,18-13.63,20-15.71l2.64,1.41s-17.5,15.71-22.64,16.85c0,0-24.18-5.46-36.53,22.63Z"/><polygon class="cls-8" points="842.11 180.22 819.14 153.89 789.29 173.25 796.97 140.03 762.19 130.25 794.72 115.16 781.2 83.62 814.1 98.01 832.02 68.45 840.51 101.5 876.37 96.18 854.06 122.99 880.86 145.92 844.55 146.31 842.11 180.22"/><polygon class="cls-9" points="858.63 168.33 827.83 150.32 806.22 177.64 802.06 143.88 765.77 145.1 791.38 121.01 767.73 95.22 803.83 98.93 810.63 65.55 830.03 94.28 862.16 78.44 850.25 110.55 883.52 124.18 849.27 135.49 858.63 168.33"/><polygon class="cls-8" points="844.38 142.01 829.99 133.84 820.15 146.63 818 131 801.18 131.78 812.89 120.46 801.76 108.64 818.52 110.15 821.45 94.63 830.63 107.84 845.43 100.31 840.12 115.27 855.63 121.4 839.83 126.84 844.38 142.01"/><path class="cls-2" d="M736,386.69c-35.92-14-6.28-34-76-35.44,0,0,7.09,17.93,1,28.54,0,0,1.67-20.48-27.76-31.64A78,78,0,0,1,619,341.08c-92.46-58.75,50.37-146.89,98.53-49.23a91.9,91.9,0,0,1,8.38,54.27C723.69,361,722.82,376.52,736,386.69Z"/><path class="cls-3" d="M693.4,408.37s18.51-35.94-51.91-62.21a71.7,71.7,0,0,1-31.37-22.63C525,215.37,816,231.17,693.4,408.37Z"/><path class="cls-2" d="M678,337.79s-11-4.35-8.64-38.76a50.1,50.1,0,0,0-.44-11c-9-56.67-107.47-17.16-43.8,16.52a52.2,52.2,0,0,0,10.66,4.12c5.92,1.61,14.13,5.61,14.19,15.84,0,0,3-14.69-.65-18.65C665.76,307,651.44,345.83,678,337.79Z"/><path class="cls-2" d="M590,441.41c-12.1-34,23.17-28.47-21-76,0,0-9.77,17.55-22.23,21.06,0,0,17.51-13.52,7.32-41.13a66.28,66.28,0,0,1-3.64-14.6C537.46,227.05,701,259.33,654,361.26a110.34,110.34,0,0,1-38.08,44.39C602.61,414.78,589.56,425.33,590,441.41Z"/><path class="cls-3" d="M544.87,428.48s40.87-13.34,16.16-79.1a63.76,63.76,0,0,1-2.25-37.11C590.16,178.13,766.74,383.59,544.87,428.48Z"/><path class="cls-2" d="M591.48,367.76s-3.64-10.43,25.48-33.48a60.73,60.73,0,0,0,8.55-8.17c39.6-46.52-56.12-84-41.73-17.41a42.76,42.76,0,0,0,3.62,10.06c2.56,5.11,4.7,13.44-3.47,20.79,0,0,13.73-8.5,14.54-13.76C608.19,337.6,567.76,355.77,591.48,367.76Z"/><path class="cls-2" d="M498.51,382c21.11-31.51,38-3.16,51-66.23,0,0-20.7,5.1-31.27-1.21,0,0,22,3,39-22.81a78.67,78.67,0,0,1,10-12.45c79-79.43,151.93,56.59,37.69,93a122.63,122.63,0,0,1-60.51,3.56C528.57,372.71,511.74,370.76,498.51,382Z"/><path class="cls-3" d="M481.79,341.73S518,361.18,558,299.31a79,79,0,0,1,29.75-26.76C719.46,203.4,655.05,466,481.79,341.73Z"/><path class="cls-2" d="M561.21,333s6.52-9.62,43.65-4.95a65,65,0,0,0,12.08.42c63.23-3.95,36.13-96.14-10.9-40.93a49.92,49.92,0,0,0-6.22,9.36c-2.72,5.25-8.4,12.39-19.56,11.68,0,0,15.52,3.81,20.43.8C596.73,324.21,556.77,308.35,561.21,333Z"/><path class="cls-2" d="M1110.57,21.49c22.83,29.08-12.65,32.28,45.24,66.49,0,0,3.5-18.82,14.22-25.09,0,0-12.21,16.87,6.67,40.42a71.18,71.18,0,0,1,8.32,12.86c46.81,94.39-120,102.9-108.94-4.1a95.31,95.31,0,0,1,21.6-50.78C1107.36,49.53,1116.31,36.51,1110.57,21.49Z"/><path class="cls-3" d="M1157.89,22.94s-34.56,22.25,10.85,78.21a65.83,65.83,0,0,1,14.47,34.35C1197.8,269.08,961.15,117.86,1157.89,22.94Z"/><path class="cls-2" d="M1133.59,91.1s6.93,8.94-13.19,37.53a51.93,51.93,0,0,0-5.45,9.71c-22.33,53.15,81.41,65.61,45.59,6.46a47,47,0,0,0-6.8-8.6c-4.13-4.19-8.94-11.52-3.58-20.37,0,0-10.28,11.25-9.3,16.39C1127.66,123.43,1160.19,96.73,1133.59,91.1Z"/><path class="cls-2" d="M1262.39,43.33c-7.75,35-34.53,13.6-22.47,75.49,0,0,17.49-10.52,29.84-7.66,0,0-21.88,3.38-27.88,32a68,68,0,0,1-4.65,14.32c-43.8,95.58-164.45-9.6-71.06-75.31a116.57,116.57,0,0,1,55.49-20.29C1237.71,60.33,1254.26,57.4,1262.39,43.33Z"/><path class="cls-3" d="M1293.54,75.8s-41.45-7.81-55.36,60.61a67.09,67.09,0,0,1-17.7,33.08C1123.25,270.37,1083.07,9.65,1293.54,75.8Z"/><path class="cls-2" d="M1222.25,106.16s-2.44,10.71-39.12,16.83a62.44,62.44,0,0,0-11.51,3c-57.9,21.41,2.91,99,25.93,34.74a42.69,42.69,0,0,0,2.26-10.39c.54-5.61,3.14-13.81,13.9-16.29,0,0-16,.84-19.5,5C1192.26,124.28,1235.89,127.71,1222.25,106.16Z"/><path class="cls-2" d="M1308,137.84c-34.41,17.21-33.69-15.25-77.85,33,0,0,20.12,5.39,25.68,15.83,0,0-16.95-13-44.86,1.25a84,84,0,0,1-15,6c-108.45,31.17-98-120.64,17.36-98a113.93,113.93,0,0,1,52.82,25.53C1277.82,131.63,1291,141.26,1308,137.84Z"/><path class="cls-3" d="M1300.84,180.46s-20.18-33.88-86.56.57a82.16,82.16,0,0,1-39.17,9C1027.74,187.45,1220.61-8.67,1300.84,180.46Z"/><path class="cls-2" d="M1229.39,150.43s-10.56,5.21-39.36-16.37a59.35,59.35,0,0,0-9.94-6.07c-55.31-26.48-81.17,65.85-12.43,40.46a52.7,52.7,0,0,0,10.17-5.13c5.06-3.24,13.62-6.72,22.64-.83,0,0-11.06-10.63-16.78-10.35C1194.84,141.24,1220.1,173.82,1229.39,150.43Z"/><path class="cls-2" d="M1034.86,76.68c22.82,29.08-12.66,32.27,45.24,66.49,0,0,3.49-18.83,14.22-25.09,0,0-12.22,16.87,6.67,40.41a72.08,72.08,0,0,1,8.32,12.86c46.81,94.4-120,102.91-108.94-4.1A95.37,95.37,0,0,1,1022,116.47C1031.65,104.72,1040.6,91.7,1034.86,76.68Z"/><path class="cls-3" d="M1082.18,78.12s-34.56,22.26,10.85,78.21a65.8,65.8,0,0,1,14.46,34.36C1122.09,324.26,885.44,173,1082.18,78.12Z"/><path class="cls-2" d="M1057.88,146.29s6.93,8.93-13.19,37.52a51.7,51.7,0,0,0-5.45,9.72c-22.33,53.14,81.41,65.61,45.59,6.45a46.89,46.89,0,0,0-6.8-8.59c-4.13-4.2-8.94-11.52-3.58-20.38,0,0-10.29,11.26-9.31,16.4C1052,178.61,1084.48,151.92,1057.88,146.29Z"/><path class="cls-2" d="M1186.68,98.51c-7.75,35-34.53,13.61-22.47,75.49,0,0,17.49-10.52,29.84-7.66,0,0-21.88,3.39-27.89,32a67.35,67.35,0,0,1-4.64,14.31c-43.8,95.58-164.46-9.59-71.06-75.3A116.39,116.39,0,0,1,1146,117.09C1162,115.51,1178.55,112.58,1186.68,98.51Z"/><path class="cls-3" d="M1217.82,131s-41.44-7.81-55.36,60.6a67,67,0,0,1-17.69,33.08C1047.54,325.56,1007.36,64.84,1217.82,131Z"/><path class="cls-2" d="M1146.53,161.34s-2.44,10.72-39.12,16.84a62.84,62.84,0,0,0-11.51,3c-57.89,21.41,2.92,99,25.94,34.75a42.79,42.79,0,0,0,2.26-10.39c.54-5.62,3.14-13.81,13.9-16.29,0,0-16,.84-19.51,5C1116.54,179.46,1160.18,182.89,1146.53,161.34Z"/><path class="cls-2" d="M1232.3,193c-34.41,17.2-33.7-15.26-77.85,33.05,0,0,20.11,5.38,25.68,15.83,0,0-17-13-44.86,1.24a83.54,83.54,0,0,1-15,6c-108.46,31.16-98-120.65,17.36-98a114.09,114.09,0,0,1,52.81,25.53C1202.11,186.81,1215.24,196.44,1232.3,193Z"/><path class="cls-3" d="M1225.13,235.65s-20.18-33.88-86.56.56a82.17,82.17,0,0,1-39.18,9C952,242.63,1144.9,46.51,1225.13,235.65Z"/><path class="cls-2" d="M1153.68,205.61s-10.57,5.22-39.36-16.36a59.49,59.49,0,0,0-10-6.08c-55.3-26.48-81.17,65.86-12.43,40.46a52.5,52.5,0,0,0,10.18-5.13c5.06-3.24,13.61-6.72,22.63-.83,0,0-11-10.63-16.77-10.35C1119.13,196.43,1144.39,229,1153.68,205.61Z"/><path class="cls-2" d="M1159.52,273.94c37.89,2.58,17.12,30.32,82.06,10.93,0,0-12.53-14.88-10.43-26.75,0,0,5.27,19.91,36.21,21.71a77.38,77.38,0,0,1,15.59,2.42c105.07,28.11,2.33,154.24-74.72,76.05a96.05,96.05,0,0,1-25.83-48.93C1179.5,294.65,1175.11,279.64,1159.52,273.94Z"/><path class="cls-3" d="M1191.71,240.68s-5.15,39.58,68.72,43.48A72.36,72.36,0,0,1,1297,296.25C1411.78,373.36,1137.36,445.18,1191.71,240.68Z"/><path class="cls-2" d="M1229.45,303s11.59.85,20.91,34.16a50.85,50.85,0,0,0,4.07,10.31c27.21,51,105.1-15.79,35-28.72a51.3,51.3,0,0,0-11.23-.72c-6,.23-14.94-1.1-18.39-10.78,0,0,2.11,14.81,6.8,17.48C1251,328.48,1251.35,287.44,1229.45,303Z"/><path class="cls-2" d="M1276.35,178.52c22.51,28.6-11.95,33.89,44.72,65.79,0,0,3.18-19.55,13.54-26.6,0,0-11.69,18,6.93,41.17a69.6,69.6,0,0,1,8.23,12.75c46.54,94.39-115.49,112.58-106,1.95a105.85,105.85,0,0,1,20.43-53.42C1273.54,207.52,1282.1,193.63,1276.35,178.52Z"/><path class="cls-3" d="M1322.37,177.32s-33.35,24.84,11.41,79.79a66.56,66.56,0,0,1,14.44,34.5C1363.87,428.1,1132.15,286,1322.37,177.32Z"/><path class="cls-2" d="M1299.49,248.77s6.84,8.8-12.41,39.33a57.38,57.38,0,0,0-5.19,10.29c-21.12,55.9,79.87,62.84,44.39,4.06a44.33,44.33,0,0,0-6.7-8.45c-4.06-4.08-8.82-11.34-3.71-20.74,0,0-9.87,12.15-8.86,17.38C1294.08,282.34,1325.42,253.06,1299.49,248.77Z"/><path class="cls-2" d="M1380.73,207.58c-9,36.16-34.13,14.34-25,78,0,0,17.44-11,29.31-8.18,0,0-21.39,3.7-28.45,33.25a75.47,75.47,0,0,1-5.12,14.78c-46.63,98.85-159.35-8.32-65.82-76.87a114.81,114.81,0,0,1,54.77-21.42C1356,225.32,1372.23,222.14,1380.73,207.58Z"/><path class="cls-3" d="M1409.6,240.73s-39.93-7.65-56.36,62.94a74.87,74.87,0,0,1-18.61,34.23C1235.87,442.71,1208,174.6,1409.6,240.73Z"/><path class="cls-2" d="M1339.05,272.66s-2.83,11.06-38.72,17.71a62,62,0,0,0-11.31,3.2c-57.15,22.6-1.39,101.89,23.71,35.54a47.74,47.74,0,0,0,2.64-10.72c.77-5.79,3.64-14.25,14.2-16.91,0,0-15.62,1-19.16,5.34C1309.14,291.61,1351.38,294.73,1339.05,272.66Z"/><path class="cls-2" d="M1083.72,252.66c22.83,29.08-12.65,32.27,45.25,66.49,0,0,3.49-18.83,14.22-25.09,0,0-12.22,16.87,6.67,40.41a71.48,71.48,0,0,1,8.31,12.86c46.81,94.4-120,102.91-108.93-4.1a95.37,95.37,0,0,1,21.59-50.78C1080.52,280.7,1089.46,267.68,1083.72,252.66Z"/><path class="cls-3" d="M1131,254.1s-34.55,22.26,10.86,78.21a65.8,65.8,0,0,1,14.46,34.36C1171,500.24,934.3,349,1131,254.1Z"/><path class="cls-2" d="M1106.74,322.27s6.94,8.93-13.19,37.52a51.65,51.65,0,0,0-5.44,9.72c-22.33,53.14,81.4,65.61,45.58,6.45a46.41,46.41,0,0,0-6.79-8.59c-4.14-4.2-8.94-11.52-3.58-20.38,0,0-10.29,11.26-9.31,16.4C1100.82,354.59,1133.35,327.9,1106.74,322.27Z"/><path class="cls-2" d="M1235.55,274.49c-7.76,35-34.54,13.61-22.48,75.5,0,0,17.5-10.53,29.85-7.67,0,0-21.88,3.39-27.89,32a67.35,67.35,0,0,1-4.64,14.31c-43.8,95.58-164.46-9.59-71.06-75.3a116.39,116.39,0,0,1,55.49-20.29C1210.86,291.49,1227.42,288.56,1235.55,274.49Z"/><path class="cls-3" d="M1266.69,307s-41.45-7.81-55.36,60.6a67,67,0,0,1-17.69,33.08C1096.41,501.54,1056.23,240.82,1266.69,307Z"/><path class="cls-2" d="M1195.4,337.32S1193,348,1156.28,354.16a62.84,62.84,0,0,0-11.51,3c-57.89,21.41,2.91,99,25.94,34.75a43.75,43.75,0,0,0,2.26-10.39c.54-5.62,3.14-13.81,13.9-16.29,0,0-16,.84-19.51,5C1165.41,355.44,1209,358.87,1195.4,337.32Z"/><path class="cls-2" d="M1281.16,369c-34.4,17.2-33.69-15.26-77.84,33.05,0,0,20.11,5.38,25.67,15.83,0,0-17-13.05-44.85,1.24a83.54,83.54,0,0,1-15,6c-108.46,31.16-98-120.65,17.36-98a114.09,114.09,0,0,1,52.81,25.53C1251,362.79,1264.11,372.42,1281.16,369Z"/><path class="cls-3" d="M1274,411.63s-20.18-33.88-86.57.56a82.11,82.11,0,0,1-39.17,9C1000.89,418.61,1193.77,222.49,1274,411.63Z"/><path class="cls-2" d="M1202.55,381.59s-10.57,5.22-39.36-16.36a59.49,59.49,0,0,0-10-6.08c-55.31-26.48-81.17,65.86-12.43,40.46a52.78,52.78,0,0,0,10.18-5.13c5.06-3.24,13.61-6.72,22.63-.83,0,0-11-10.63-16.77-10.35C1168,372.41,1193.26,405,1202.55,381.59Z"/><path class="cls-2" d="M967.16,355.3c36.39-10.44,27.22,22.55,80.79-17.62,0,0-17.23-9.66-19.64-21.47,0,0,12.28,16.83,41.88,8a77.5,77.5,0,0,1,15.48-3c108.65-9.35,59.19,143.45-41.78,96.47a100.5,100.5,0,0,1-42.24-37C993.5,367.9,983.85,355.34,967.16,355.3Z"/><path class="cls-3" d="M985,313.27s9.82,38.77,80.35,17.36a73.24,73.24,0,0,1,38.65-1.09C1239.82,362.72,1009.73,523,985,313.27Z"/><path class="cls-2" d="M1043.3,358.74s11.15-3.14,32.17,24.85a53.84,53.84,0,0,0,7.62,8.27c44.3,38.48,92.46-50.42,22.12-38.73a50.45,50.45,0,0,0-10.77,3.13c-5.54,2.26-14.37,4-21.19-3.84,0,0,7.46,13.14,12.83,14C1072.9,375.27,1058,336.78,1043.3,358.74Z"/><path class="cls-2" d="M1041.16,226.44c31.62,19.11,1.35,35.74,66.13,46.36,0,0-4.24-19.37,2.84-29.47,0,0-4.27,20.83,21.69,36.15a72.39,72.39,0,0,1,12.41,9.13c78.41,72.49-66.39,144.46-98.36,37.76a104.24,104.24,0,0,1-.64-56.89C1049.25,254.51,1052.12,238.62,1041.16,226.44Z"/><path class="cls-3" d="M1083.75,209.71s-22,34.54,40.16,70.75a69.24,69.24,0,0,1,26.26,27.36C1215.25,430.16,946,375.9,1083.75,209.71Z"/><path class="cls-2" d="M1088.77,284.29s9.64,5.9,2.92,41a56.75,56.75,0,0,0-1,11.39c.91,59.44,97.92,31.68,43-11.26a47.23,47.23,0,0,0-9.39-5.63c-5.31-2.44-12.44-7.61-11.13-18.14,0,0-4.75,14.71-1.87,19.26C1096.12,317.52,1114.6,279.5,1088.77,284.29Z"/><path class="cls-2" d="M1149.52,218.21c4.92,36.88-26.62,25,5.38,81.4,0,0,12.24-16.2,24.4-17.58,0,0-18.65,10.71-14.33,40.74a74.75,74.75,0,0,1,.68,15.56c-7.08,108.26-152.11,46.26-90-49.57A110.4,110.4,0,0,1,1119,250.15C1133,243.18,1147,234.71,1149.52,218.21Z"/><path class="cls-3" d="M1188.77,239.42s-40.17,6.39-29.45,78a73,73,0,0,1-4.75,38.32C1101,487.24,975.76,246,1188.77,239.42Z"/><path class="cls-2" d="M1134.59,293.21s1.44,11.3-29.66,29.7a58.27,58.27,0,0,0-9.4,6.83c-45.1,40.52,36.35,95.76,35.31,25.19a47.19,47.19,0,0,0-1.5-10.92c-1.42-5.67-1.86-14.56,7-20.63,0,0-14.24,6.25-16,11.49C1113.62,321.07,1154.28,309.67,1134.59,293.21Z"/><path class="cls-2" d="M1112.11,173.28c22.83,29.08-12.65,32.27,45.25,66.48,0,0,3.49-18.82,14.22-25.09,0,0-12.22,16.88,6.66,40.42a70.65,70.65,0,0,1,8.32,12.86c46.81,94.39-120,102.91-108.94-4.1a95.39,95.39,0,0,1,21.6-50.78C1108.9,201.31,1117.85,188.29,1112.11,173.28Z"/><path class="cls-3" d="M1159.43,174.72s-34.56,22.25,10.85,78.21a65.83,65.83,0,0,1,14.47,34.35C1199.34,420.86,962.69,269.64,1159.43,174.72Z"/><path class="cls-2" d="M1135.13,242.88s6.93,8.94-13.19,37.53a51.93,51.93,0,0,0-5.45,9.71c-22.33,53.15,81.41,65.61,45.59,6.46a47.29,47.29,0,0,0-6.8-8.6c-4.13-4.19-8.93-11.51-3.58-20.37,0,0-10.28,11.25-9.3,16.39C1129.2,275.21,1161.74,248.51,1135.13,242.88Z"/><path class="cls-2" d="M1263.94,195.11c-7.76,35-34.54,13.6-22.48,75.49,0,0,17.49-10.52,29.84-7.66,0,0-21.88,3.39-27.88,32a67.44,67.44,0,0,1-4.64,14.32c-43.8,95.58-164.46-9.6-71.07-75.31a116.45,116.45,0,0,1,55.49-20.28C1239.25,212.11,1255.8,209.18,1263.94,195.11Z"/><path class="cls-3" d="M1295.08,227.58s-41.45-7.8-55.36,60.61a67,67,0,0,1-17.7,33.08C1124.79,422.15,1084.61,161.43,1295.08,227.58Z"/><path class="cls-2" d="M1223.79,257.94s-2.44,10.71-39.12,16.83a63.25,63.25,0,0,0-11.51,3c-57.89,21.41,2.91,99,25.93,34.75a42.87,42.87,0,0,0,2.26-10.4c.55-5.61,3.14-13.81,13.91-16.28,0,0-16,.83-19.51,5C1193.8,276.06,1237.43,279.49,1223.79,257.94Z"/><path class="cls-2" d="M1309.55,289.63c-34.41,17.2-33.69-15.26-77.85,33.05,0,0,20.12,5.38,25.68,15.82,0,0-17-13-44.86,1.25a83.85,83.85,0,0,1-15,6c-108.46,31.17-98-120.64,17.35-98a114,114,0,0,1,52.82,25.53C1279.36,283.41,1292.5,293,1309.55,289.63Z"/><path class="cls-3" d="M1302.38,332.25s-20.18-33.89-86.56.56a82.13,82.13,0,0,1-39.17,9C1029.28,339.23,1222.15,143.11,1302.38,332.25Z"/><path class="cls-2" d="M1230.93,302.21s-10.56,5.21-39.36-16.37a59.35,59.35,0,0,0-9.94-6.07c-55.31-26.48-81.17,65.86-12.43,40.46a52.7,52.7,0,0,0,10.17-5.13c5.06-3.24,13.62-6.72,22.64-.83,0,0-11-10.63-16.77-10.35C1196.38,293,1221.65,325.6,1230.93,302.21Z"/><path class="cls-2" d="M977.51,192.37c22.83,29.08-12.65,32.27,45.25,66.49,0,0,3.49-18.83,14.22-25.09,0,0-12.22,16.87,6.67,40.41A71.48,71.48,0,0,1,1052,287c46.81,94.4-120,102.91-108.93-4.1a95.33,95.33,0,0,1,21.59-50.78C974.31,220.41,983.25,207.39,977.51,192.37Z"/><path class="cls-3" d="M1024.83,193.81s-34.55,22.26,10.86,78.21a65.8,65.8,0,0,1,14.46,34.36C1064.75,440,828.09,288.73,1024.83,193.81Z"/><path class="cls-2" d="M1000.53,262s6.94,8.93-13.19,37.52a51.88,51.88,0,0,0-5.44,9.71c-22.33,53.15,81.4,65.62,45.58,6.46a46.8,46.8,0,0,0-6.79-8.6c-4.14-4.19-8.94-11.51-3.58-20.37,0,0-10.29,11.26-9.31,16.4C994.61,294.3,1027.14,267.61,1000.53,262Z"/><path class="cls-2" d="M1129.34,214.2c-7.76,35-34.54,13.61-22.48,75.49,0,0,17.5-10.52,29.85-7.66,0,0-21.88,3.39-27.89,32a67.54,67.54,0,0,1-4.64,14.31c-43.8,95.58-164.46-9.6-71.06-75.3a116.39,116.39,0,0,1,55.49-20.29C1104.65,231.2,1121.21,228.27,1129.34,214.2Z"/><path class="cls-3" d="M1160.48,246.68s-41.45-7.81-55.36,60.6a67,67,0,0,1-17.69,33.08C990.2,441.25,950,180.53,1160.48,246.68Z"/><path class="cls-2" d="M1089.19,277s-2.44,10.72-39.12,16.84a62.84,62.84,0,0,0-11.51,3c-57.89,21.41,2.91,99,25.94,34.75a43.75,43.75,0,0,0,2.26-10.39c.54-5.62,3.14-13.81,13.9-16.29,0,0-16.05.83-19.51,5C1059.2,295.15,1102.83,298.58,1089.19,277Z"/><path class="cls-2" d="M1175,308.72c-34.4,17.2-33.69-15.26-77.84,33,0,0,20.11,5.38,25.67,15.83,0,0-17-13.05-44.85,1.24a83.54,83.54,0,0,1-15,6c-108.46,31.16-98-120.65,17.36-98a114.09,114.09,0,0,1,52.81,25.53C1144.77,302.5,1157.9,312.13,1175,308.72Z"/><path class="cls-3" d="M1167.79,351.34s-20.18-33.88-86.57.56a82.11,82.11,0,0,1-39.17,9C894.68,358.32,1087.56,162.2,1167.79,351.34Z"/><path class="cls-2" d="M1096.34,321.3s-10.57,5.21-39.36-16.36a59.49,59.49,0,0,0-10-6.08c-55.31-26.48-81.17,65.86-12.43,40.46a52.78,52.78,0,0,0,10.18-5.13c5.06-3.24,13.61-6.72,22.63-.83,0,0-11.05-10.63-16.77-10.35C1061.79,312.12,1087.05,344.7,1096.34,321.3Z"/><path class="cls-2" d="M999.67,124.61c22.83,29.08-12.65,32.28,45.25,66.49,0,0,3.49-18.82,14.22-25.09,0,0-12.22,16.87,6.66,40.42a70.65,70.65,0,0,1,8.32,12.86c46.81,94.39-119.95,102.9-108.93-4.11a95.37,95.37,0,0,1,21.59-50.78C996.46,152.65,1005.41,139.63,999.67,124.61Z"/><path class="cls-3" d="M1047,126.05s-34.56,22.26,10.85,78.22a65.83,65.83,0,0,1,14.47,34.35C1086.9,372.19,850.25,221,1047,126.05Z"/><path class="cls-2" d="M1022.69,194.22s6.93,8.94-13.19,37.53a51.62,51.62,0,0,0-5.45,9.71c-22.33,53.14,81.41,65.61,45.59,6.45a46.89,46.89,0,0,0-6.8-8.59c-4.13-4.19-8.93-11.52-3.58-20.37,0,0-10.28,11.25-9.3,16.39C1016.76,226.55,1049.3,199.85,1022.69,194.22Z"/><path class="cls-2" d="M1151.5,146.44c-7.76,35-34.54,13.61-22.48,75.5,0,0,17.49-10.53,29.84-7.66,0,0-21.88,3.38-27.88,32a67.17,67.17,0,0,1-4.64,14.31c-43.8,95.59-164.46-9.59-71.07-75.3A116.46,116.46,0,0,1,1110.76,165C1126.81,163.44,1143.36,160.51,1151.5,146.44Z"/><path class="cls-3" d="M1182.64,178.92s-41.45-7.81-55.36,60.61a67.06,67.06,0,0,1-17.7,33.08C1012.35,373.49,972.18,112.77,1182.64,178.92Z"/><path class="cls-2" d="M1111.35,209.27s-2.44,10.72-39.12,16.84a63.22,63.22,0,0,0-11.51,3c-57.89,21.42,2.91,99,25.93,34.75a42.79,42.79,0,0,0,2.26-10.39c.55-5.61,3.14-13.81,13.91-16.29,0,0-16,.84-19.51,5C1081.36,227.39,1125,230.83,1111.35,209.27Z"/><path class="cls-2" d="M1197.11,241c-34.41,17.21-33.69-15.26-77.85,33,0,0,20.12,5.39,25.68,15.83,0,0-17-13-44.86,1.25a83.85,83.85,0,0,1-15,6c-108.46,31.16-98-120.65,17.35-98a114,114,0,0,1,52.82,25.54C1166.92,234.75,1180.06,244.38,1197.11,241Z"/><path class="cls-3" d="M1190,283.58s-20.19-33.88-86.57.56a81.9,81.9,0,0,1-39.17,9C916.84,290.56,1109.71,94.44,1190,283.58Z"/><path class="cls-2" d="M1118.49,253.55s-10.56,5.21-39.36-16.37a59.4,59.4,0,0,0-9.94-6.08c-55.31-26.47-81.17,65.86-12.43,40.47a53.86,53.86,0,0,0,10.17-5.13c5.06-3.25,13.62-6.72,22.64-.83,0,0-11-10.63-16.77-10.36C1083.94,244.36,1109.21,276.94,1118.49,253.55Z"/><path class="cls-2" d="M939.6,201c37.62,5,15,31.35,81.12,16.14,0,0-11.47-15.65-8.55-27.35,0,0,3.88,20.19,34.62,24a77.49,77.49,0,0,1,15.39,3.41c102.88,34.76-8.4,154-79.85,71.11A95.51,95.51,0,0,1,960,237.78C958.09,222.91,954.76,207.65,939.6,201Z"/><path class="cls-3" d="M974,169.84s-7.89,39.16,65.55,47.77A72,72,0,0,1,1075.21,232C1184.38,316.27,905.58,370.41,974,169.84Z"/><path class="cls-2" d="M1007.36,234.4s11.5,1.6,18.48,35.42a51,51,0,0,0,3.35,10.55c23.6,52.64,106-9,36.92-26.41a50.71,50.71,0,0,0-11.16-1.45c-6-.15-14.82-2-17.6-11.93,0,0,1.08,14.92,5.57,17.88C1027.11,261.23,1030.29,220.3,1007.36,234.4Z"/><path class="cls-2" d="M1062.81,113.22c20.47,30-14.28,33.05,40,68.49,0,0,4.54-19.3,15.37-25.67,0,0-12.92,17.25,4,41.52a69,69,0,0,1,7.32,13.25c39.88,97.15-123,105-105.84-4.82a106.45,106.45,0,0,1,24.1-52C1058,142,1067.49,128.66,1062.81,113.22Z"/><path class="cls-3" d="M1108.81,115s-35,22.65,5.83,80.34a66.09,66.09,0,0,1,12,35.34C1132.78,367.83,911.45,211.29,1108.81,115Z"/><path class="cls-2" d="M1081,184.79s6.21,9.21-15.12,38.45a58,58,0,0,0-5.89,9.94c-25,54.42,75.32,67.79,44,6.88a44.68,44.68,0,0,0-6.1-8.87c-3.77-4.32-8-11.87-2.25-20.92,0,0-10.7,11.49-10.06,16.77C1073.28,217.94,1106.59,190.72,1081,184.79Z"/><path class="cls-2" d="M1164.94,148.87c-11.52,35.51-35,12.13-30.42,76.19,0,0,18.16-9.87,29.82-6.28,0,0-21.61,2.32-30.71,31.35a76.74,76.74,0,0,1-6.13,14.42c-53.4,95.66-158.42-18.47-60.33-80.9a115.49,115.49,0,0,1,56.14-17.88C1139.05,165,1155.44,162.86,1164.94,148.87Z"/><path class="cls-3" d="M1191.44,183.79s-39.31-10.18-60.62,59.2a75.48,75.48,0,0,1-20.94,33C1004.05,374.24,994.85,104.94,1191.44,183.79Z"/><path class="cls-2" d="M1118.82,211.15s-3.59,10.86-39.86,15.2a61.33,61.33,0,0,0-11.51,2.47c-58.6,18.91-8.48,101.58,21.19,37a48.38,48.38,0,0,0,3.37-10.53c1.17-5.73,4.63-14,15.35-16,0,0-15.66,0-19.49,4.09C1087.66,228.15,1129.59,234,1118.82,211.15Z"/><path class="cls-2" d="M1177.55,114.87c22.83,29.08-12.66,32.27,45.24,66.49,0,0,3.49-18.83,14.22-25.09,0,0-12.22,16.87,6.67,40.41a71.72,71.72,0,0,1,8.32,12.86c46.81,94.4-120,102.91-108.94-4.1a95.3,95.3,0,0,1,21.59-50.78C1174.34,142.9,1183.29,129.88,1177.55,114.87Z"/><path class="cls-3" d="M1224.87,116.31s-34.56,22.26,10.85,78.21a65.89,65.89,0,0,1,14.47,34.36C1264.78,362.45,1028.13,211.23,1224.87,116.31Z"/><path class="cls-2" d="M1200.57,184.47s6.93,8.94-13.19,37.53a51.93,51.93,0,0,0-5.45,9.71c-22.33,53.15,81.41,65.62,45.59,6.46a47.29,47.29,0,0,0-6.8-8.6c-4.13-4.19-8.94-11.51-3.58-20.37,0,0-10.29,11.26-9.31,16.4C1194.64,216.8,1227.17,190.11,1200.57,184.47Z"/><path class="cls-2" d="M1329.37,136.7c-7.75,35-34.53,13.61-22.47,75.49,0,0,17.49-10.52,29.84-7.66,0,0-21.88,3.39-27.89,32a67.54,67.54,0,0,1-4.64,14.31c-43.8,95.58-164.46-9.6-71.06-75.3a116.39,116.39,0,0,1,55.49-20.29C1304.68,153.7,1321.24,150.77,1329.37,136.7Z"/><path class="cls-3" d="M1360.51,169.18s-41.44-7.81-55.36,60.6a67,67,0,0,1-17.69,33.08C1190.23,363.75,1150.05,103,1360.51,169.18Z"/><path class="cls-2" d="M1289.22,199.53s-2.44,10.71-39.12,16.84a62.84,62.84,0,0,0-11.51,3c-57.89,21.41,2.92,99,25.94,34.75a42.79,42.79,0,0,0,2.26-10.39c.54-5.62,3.14-13.81,13.9-16.29,0,0-16,.83-19.51,5C1259.23,217.65,1302.87,221.08,1289.22,199.53Z"/><path class="cls-2" d="M1375,231.22c-34.41,17.2-33.7-15.26-77.85,33,0,0,20.11,5.38,25.68,15.82,0,0-17-13-44.86,1.25a82.49,82.49,0,0,1-15,6c-108.46,31.17-98-120.64,17.36-98a114.07,114.07,0,0,1,52.82,25.53C1344.8,225,1357.94,234.63,1375,231.22Z"/><path class="cls-3" d="M1367.82,273.84s-20.18-33.88-86.56.56a82.17,82.17,0,0,1-39.18,9C1094.72,280.82,1287.59,84.7,1367.82,273.84Z"/><path class="cls-2" d="M1296.37,243.8S1285.8,249,1257,227.44a59.49,59.49,0,0,0-10-6.08c-55.3-26.48-81.16,65.86-12.43,40.46a52.5,52.5,0,0,0,10.18-5.13c5.06-3.24,13.61-6.72,22.63-.83,0,0-11-10.63-16.77-10.35C1261.82,234.62,1287.08,267.2,1296.37,243.8Z"/><path class="cls-7" d="M884.9,170s-32-4.24-73.29-34.61-45.15-61.95-45.15-61.95L740.84,114.9c-3.81-1.92-7.72-3.71-11.7-5.38-2.84,23.23-23.93,41.27-49.53,41.27-27.54,0-49.87-20.87-49.87-46.62a44.14,44.14,0,0,1,.72-7.84C542.27,107.62,474.32,178.39,474.32,264a159.79,159.79,0,0,0,18.93,75.46L539.54,337l16.14-59.18,35.86,51.05,62.9-16.53L625.07,366.9l46.76,42.66-65.23,3.5L603,426.16a192.35,192.35,0,0,0,52.17,7.15c63,0,118.52-30.16,150.9-75.9-6.58-3.48-13.09-8.08-16.07-14.6-2.06-4.5-1.62-9.39.1-13.94,1.34-3.53,3.7-6.76,5.88-9.85,7.91-11.18,17.71-21.46,27.17-31.49,4.13-4.39,8.31-8.78,12.55-13.11.23-3.44.36-6.9.36-10.39A159.48,159.48,0,0,0,825,205.48Z"/></svg>
