<svg id="Layer_1" data-name="Layer 1" xmlns="http://www.w3.org/2000/svg" xmlns:xlink="http://www.w3.org/1999/xlink" width="750" height="550" viewBox="0 0 750 550"><defs><style>.cls-1{fill:#231f20;}.cls-2{fill:#78c263;}.cls-3{fill:url(#linear-gradient);}.cls-4{fill:#030303;}.cls-5{fill:#010101;}.cls-6,.cls-7{fill:#7c2368;}.cls-7{opacity:0.3;}.cls-8{fill:#f8dae9;}.cls-9{fill:#d6c22f;}</style><linearGradient id="linear-gradient" x1="498.57" y1="128.26" x2="278.91" y2="486.82" gradientUnits="userSpaceOnUse"><stop offset="0" stop-color="#fff"/><stop offset="0.37" stop-color="#fdfeff"/><stop offset="0.5" stop-color="#f6fbfe"/><stop offset="0.59" stop-color="#ebf5fc"/><stop offset="0.67" stop-color="#daecf9"/><stop offset="0.74" stop-color="#c4e1f5"/><stop offset="0.79" stop-color="#a9d3f1"/><stop offset="0.81" stop-color="#9fceef"/><stop offset="0.89" stop-color="#9bc9ec"/><stop offset="0.96" stop-color="#91bde5"/></linearGradient></defs><rect x="354.85" width="92.04" height="23.21"/><ellipse class="cls-1" cx="396.04" cy="295.63" rx="257.69" ry="254.31"/><ellipse cx="396.04" cy="295.63" rx="239.96" ry="236.81"/><rect x="370.24" y="8.82" width="61.26" height="40"/><path class="cls-2" d="M427.36,51.36V12.46H374.85V50.34C245.53,60.85,143.92,166.65,143.92,295.63c0,136,112.88,246.16,252.12,246.16S648.15,431.58,648.15,295.63C648.15,170,551.81,66.42,427.36,51.36Z"/><ellipse class="cls-3" cx="396.04" cy="295.63" rx="233.99" ry="230.92"/><rect class="cls-2" x="359.42" y="2" width="82.9" height="18.18"/><path class="cls-4" d="M629.06,231a9.61,9.61,0,0,1,15.65-1.21c8.53,10.35,22.23,25.19,35.13,31.54,19.09,9.4,64.56,41.68,70.08,90.42.73,6.48-3.67,7.46-6.36,6.93-19.53-3.85-64-20.55-86.89-43.37-14.21-14.18-24.44-31.12-21.3-49.56a9.11,9.11,0,0,0-.26-4.12l-6.94-23.35a9.15,9.15,0,0,1,.89-7.28Z"/><path class="cls-2" d="M627.59,231.66a9,9,0,0,1,14.56-1.08c8,9.44,20.7,23,32.71,28.8,17.76,8.59,60.08,38.07,65.29,82.49.69,5.9-3.4,6.79-5.91,6.31-18.15-3.54-59.54-18.83-80.84-39.66-13.23-12.94-22.77-28.39-19.88-45.19a8.12,8.12,0,0,0-.25-3.76l-6.49-21.28a8.21,8.21,0,0,1,.81-6.63Z"/><path class="cls-5" d="M641.42,245.86c1,0,23.13,21.21,44.7,42.76,20,20,34.9,39.76,36.41,43.49"/><path class="cls-4" d="M170.39,221.8A9.52,9.52,0,0,0,158,212.27c-12.9,4-32.62,8.91-46.94,7.19-21.17-2.55-77.14-.38-109,37.27C-2.15,261.73,1,265,3.52,266c18.43,7.42,64.87,17.71,96.71,11.12C120,273,138,264.44,145.7,247.35a9.16,9.16,0,0,1,2.52-3.3l18.84-15.7a9.28,9.28,0,0,0,3.33-6.55Z"/><path class="cls-2" d="M171.21,223.19a9,9,0,0,0-11.53-8.83c-11.91,3.55-30.12,7.91-43.38,6.22-19.62-2.5-71.4-1-100.57,33.26-3.88,4.55-1,7.52,1.4,8.48,17.12,6.93,60.18,16.71,89.59,10.93,18.28-3.59,34.87-11.28,41.85-26.87a8.24,8.24,0,0,1,2.3-3l17.31-14.22a8.25,8.25,0,0,0,3-6Z"/><path class="cls-5" d="M151.74,227.51c-.78-.55-31.15,5.1-61.19,11.33C62.67,244.62,39.22,253,35.88,255.3"/><path class="cls-4" d="M152.16,248a5.79,5.79,0,0,0-9.43.63c-4.16,6.9-11,16.93-18.11,21.83-10.53,7.24-34.73,30.4-33.68,59.89.14,3.92,2.84,4.13,4.4,3.58,11.28-4,36.28-17.78,47.87-33.35,7.2-9.67,11.79-20.64,8.28-31.35a5.3,5.3,0,0,1-.22-2.47l2.06-14.5a5.55,5.55,0,0,0-1.17-4.26Z"/><path class="cls-2" d="M153.09,248.29a5.45,5.45,0,0,0-8.76.62c-3.89,6.31-10.28,15.48-16.91,20-9.81,6.65-32.39,27.87-31.54,54.76.11,3.58,2.62,3.75,4.07,3.25,10.5-3.68,33.78-16.37,44.61-30.61,6.72-8.85,11-18.88,7.82-28.63a4.94,4.94,0,0,1-.19-2.26l2-13.23a5,5,0,0,0-1.07-3.88Z"/><path class="cls-5" d="M146.12,258c-.57.06-11.89,14.63-22.81,29.32-10.15,13.64-17.24,26.69-17.81,29.05"/><path class="cls-4" d="M172.53,203.5a5.8,5.8,0,0,0-9.43.64c-4.16,6.9-11,16.92-18.11,21.82-10.53,7.25-34.73,30.4-33.68,59.89.14,3.93,2.84,4.13,4.4,3.58,11.28-4,36.28-17.78,47.87-33.34,7.2-9.67,11.79-20.64,8.28-31.35a5.64,5.64,0,0,1-.22-2.48l2.06-14.5a5.56,5.56,0,0,0-1.17-4.26Z"/><path class="cls-2" d="M173.46,203.8a5.44,5.44,0,0,0-8.76.62c-3.89,6.31-10.28,15.48-16.91,20-9.81,6.66-32.39,27.87-31.54,54.77.11,3.57,2.63,3.75,4.08,3.24,10.49-3.68,33.77-16.36,44.6-30.61,6.73-8.85,11-18.87,7.82-28.62a5,5,0,0,1-.19-2.26l2-13.23a5,5,0,0,0-1.07-3.88Z"/><path class="cls-5" d="M166.49,213.45c-.57.07-11.89,14.63-22.81,29.33-10.15,13.64-17.24,26.69-17.81,29"/><path class="cls-4" d="M152.64,293.17c-3.14-1.68-6.8.76-7.07,4.71-.53,8-1.92,20-5.53,27.49-5.34,11.11-15.08,42.47-2.76,68.43,1.64,3.45,3.82,2.44,4.81,1.27,7.2-8.52,21.22-31.85,24.13-50.88,1.82-11.82,1.09-23.65-5.81-31.7a5.82,5.82,0,0,1-1.13-2.13l-4.06-13.89a5.42,5.42,0,0,0-2.58-3.3Z"/><path class="cls-2" d="M153.48,293c-2.88-1.52-6.28.76-6.55,4.39-.56,7.36-1.94,18.38-5.33,25.32-5,10.26-14.25,39.17-3.1,62.89,1.48,3.15,3.5,2.21,4.43,1.12,6.71-7.9,19.82-29.48,22.66-47,1.77-10.88,1.2-21.75-5.1-29.07a5.18,5.18,0,0,1-1-1.94L155.83,296a4.83,4.83,0,0,0-2.35-3Z"/><path class="cls-5" d="M151.84,304.73c-.42.31-3.51,18.32-6.25,36.28-2.55,16.67-3,31.47-2.49,33.83"/><path class="cls-4" d="M633,340a4.44,4.44,0,0,1,6.48,3.28c.82,6.14,2.57,15.28,6.1,20.89,5.23,8.29,15.23,31.95,5.41,52.52-1.31,2.74-3.29,2.07-4.22,1.21-6.76-6.2-20.22-23.47-23.63-38-2.12-9-2-18.16,3.79-24.69a4.15,4.15,0,0,0,.91-1.69l3-10.88A4.34,4.34,0,0,1,633,340Z"/><path class="cls-2" d="M632.26,339.88a4.18,4.18,0,0,1,6,3.07c.81,5.63,2.51,14,5.82,19.22,4.9,7.65,14.36,29.45,5.47,48.24-1.18,2.5-3,1.87-3.88,1.08-6.3-5.75-18.88-21.72-22.17-35.06-2-8.28-2-16.67,3.28-22.62a3.67,3.67,0,0,0,.83-1.54l2.68-10a3.89,3.89,0,0,1,2-2.43Z"/><path class="cls-5" d="M634.23,348.81c.38.22,3.91,13.93,7.12,27.61,3,12.71,4,24.08,3.67,25.91"/><path class="cls-4" d="M641,276.48c3.61-2.54,8.43-.31,9.31,4.31,1.78,9.38,5.17,23.29,10.64,31.54,8.1,12.2,24.42,47.55,13,80.43-1.52,4.38-4.33,3.58-5.71,2.36-10-8.8-30.42-33.91-36.67-55.9-3.88-13.66-4.67-27.78,2.64-38.52a7,7,0,0,0,1.08-2.72l3-17.14a6.78,6.78,0,0,1,2.68-4.36Z"/><path class="cls-2" d="M639.91,276.46c3.31-2.3,7.78-.21,8.63,4,1.72,8.6,5,21.39,10.08,29,7.58,11.26,23,43.81,12.65,73.83-1.37,4-4,3.23-5.26,2.11-9.31-8.16-28.38-31.36-34.32-51.57-3.7-12.55-4.53-25.5,2.14-35.28a6.14,6.14,0,0,0,1-2.47l2.65-15.69a6,6,0,0,1,2.45-4Z"/><path class="cls-5" d="M643.56,290c.56.29,6.88,21.05,12.76,41.79,5.47,19.27,8.06,36.7,7.8,39.57"/><path class="cls-4" d="M625.09,210.33a4.44,4.44,0,0,1,6.48,3.28c.82,6.14,2.57,15.28,6.11,20.89,5.22,8.29,15.23,31.95,5.4,52.52-1.3,2.74-3.28,2.07-4.22,1.22-6.76-6.21-20.22-23.48-23.63-38-2.12-9-2-18.15,3.79-24.68a4.4,4.4,0,0,0,.92-1.7l3-10.88a4.37,4.37,0,0,1,2.15-2.67Z"/><path class="cls-2" d="M624.34,210.26a4.17,4.17,0,0,1,6,3.07c.81,5.64,2.51,14,5.83,19.22,4.89,7.66,14.35,29.45,5.47,48.25-1.19,2.5-3,1.87-3.89,1.07-6.3-5.75-18.88-21.72-22.16-35.06-2-8.28-2-16.67,3.27-22.61a3.77,3.77,0,0,0,.83-1.55l2.68-10a3.87,3.87,0,0,1,2-2.43Z"/><path class="cls-5" d="M626.3,219.19c.38.22,3.91,13.93,7.12,27.61,3,12.71,4,24.08,3.67,25.91"/><path class="cls-4" d="M635.81,188.76a4.45,4.45,0,0,1,3.63,6.3c-2.68,5.58-6.24,14.19-6.36,20.81-.18,9.8-4.78,35.07-24.28,46.89-2.6,1.57-3.89-.07-4.2-1.3-2.25-8.9-4-30.72,1.07-44.72,3.17-8.7,8.29-16.27,16.71-18.56a4.15,4.15,0,0,0,1.69-.91l8.49-7.45a4.32,4.32,0,0,1,3.25-1.06Z"/><path class="cls-2" d="M635.22,188.29a4.17,4.17,0,0,1,3.35,5.86c-2.41,5.16-5.6,13.13-5.67,19.27-.1,9.09-4.15,32.5-21.89,43.34-2.36,1.45-3.55-.09-3.84-1.23-2.11-8.26-3.87-28.52.7-41.47C610.71,206,615.34,199,623,197a3.89,3.89,0,0,0,1.53-.84l7.71-6.86a3.86,3.86,0,0,1,3-1Z"/><path class="cls-5" d="M632,196.83c.2.4-4.37,13.8-9.19,27-4.47,12.26-9.87,22.32-11.15,23.68"/><rect class="cls-6" x="389.82" y="84.66" width="12.44" height="34.22"/><rect class="cls-6" x="383.6" y="462.47" width="12.44" height="34.22"/><rect class="cls-6" x="578.96" y="275.29" width="12.27" height="34.68" transform="translate(292.47 877.73) rotate(-90)"/><rect class="cls-6" x="196.73" y="273.33" width="12.27" height="34.68" transform="translate(-87.81 493.53) rotate(-90)"/><polygon class="cls-6" points="273.41 166.42 264.61 175.09 240.09 150.89 248.88 142.22 273.41 166.42"/><polygon class="cls-6" points="513.57 165.81 522.36 174.49 546.88 150.28 538.09 141.61 513.57 165.81"/><polygon class="cls-6" points="557.35 419.95 548.56 428.63 524.03 404.43 532.83 395.75 557.35 419.95"/><polygon class="cls-6" points="243.44 432.39 252.24 441.07 276.76 416.87 267.96 408.19 243.44 432.39"/><path class="cls-7" d="M189.47,447.67c3.84-241.53,277.6-379.55,314-383.19l-.15-.07A260.28,260.28,0,0,0,431.5,43.69V23.21h15.39V0h-92V23.21h15.39V42.57c-88,8.82-169,62.11-208.5,147.18a257.06,257.06,0,0,0-9.8,24.3c-12.49,3.5-28.64,6.88-40.87,5.41-21.17-2.55-77.14-.38-109,37.27C-2.15,261.73,1,265,3.52,266c18.43,7.42,64.87,17.71,96.71,11.12a110.91,110.91,0,0,0,12-3.17,53.46,53.46,0,0,0-.93,8.37C101,293.47,90.23,310.47,90.94,330.35c.14,3.92,2.84,4.13,4.4,3.58,9.93-3.51,30.49-14.62,43.17-27.85q.42,9.66,1.56,19.22l0,.07c-5.34,11.11-15.08,42.47-2.76,68.43,1.64,3.45,3.82,2.44,4.81,1.27a111.77,111.77,0,0,0,10.6-15.81,254.18,254.18,0,0,0,36.78,68.42Z"/><path class="cls-4" d="M604.76,150c.42,2.35-2.28,4.3-5.21,3.77-5.93-1.08-15-2.31-21.33-1.3-9.41,1.5-34.61,2.25-50.28-10.42-2.09-1.68-.81-2.93.3-3.36,8-3.18,28.47-8.15,43-6.66,9,.93,17.42,3.52,21.5,9.46A3.65,3.65,0,0,0,594,142.6l9,5.13a3.35,3.35,0,0,1,1.74,2.27Z"/><path class="cls-2" d="M605.08,149.48c.36,2.15-2.15,4-4.85,3.49-5.48-.95-13.81-2-19.7-1.05-8.72,1.44-32,2.3-46.36-9.21-1.91-1.53-.71-2.67.31-3.08,7.43-3,26.4-7.66,39.81-6.39,8.34.79,16.07,3.1,19.77,8.52a3.33,3.33,0,0,0,1.15,1l8.29,4.64a3,3,0,0,1,1.58,2.07Z"/><path class="cls-5" d="M596.18,148.46c-.33.21-14.17-1-27.88-2.4-12.72-1.31-23.56-3.69-25.14-4.42"/><path class="cls-4" d="M601.49,165.53c2.38,0,3.88-2.93,2.89-5.73-2-5.7-4.65-14.42-4.66-20.86,0-9.53-3.26-34.53-18.25-48-2-1.79-3-.33-3.28.83-1.86,8.41-3.53,29.4.25,43.51,2.35,8.77,6.23,16.65,12.74,19.73a3.83,3.83,0,0,1,1.3,1.06l6.49,8.11a3.34,3.34,0,0,0,2.52,1.35Z"/><path class="cls-2" d="M601,165.93c2.18,0,3.57-2.75,2.68-5.34-1.81-5.26-4.18-13.32-4.15-19.29,0-8.83-2.8-32-16.44-44.31-1.81-1.65-2.76-.28-3,.8-1.75,7.8-3.38,27.28,0,40.32,2.1,8.1,5.61,15.37,11.54,18.17a3.32,3.32,0,0,1,1.19,1l5.89,7.45a3,3,0,0,0,2.29,1.23Z"/><path class="cls-5" d="M598.61,157.31c.16-.36-3.22-13.84-6.79-27.15-3.31-12.36-7.37-22.68-8.35-24.13"/><path class="cls-5" d="M630.7,113.34c-3.77-3.5-2.31-2.47-4.75-3.11a4.08,4.08,0,0,0-2.67.46c-10.1,7.74-9.88,12.68-9.73,24.85,0,1-.55,1.21,1,.86,9.78-2.26,2.2-1.31,10.51-1.36,1.31,0,1.27-.33,1.26-1-.14-8.62-.49-10.83,4-18C630.67,115.51,631.29,113.89,630.7,113.34Z"/><path class="cls-5" d="M645.09,121.53a4.11,4.11,0,0,0-2.06-3.27c-.23-.17-5.43-1.67-6.33-1.29-10.16,4.23-9.86,6.63-14.1,16.23-.34.77-.94.72.61,1.06,9.74,2.09,7.94,1.88,8.28,2,1.21.51,1.57.4,1.81-.14,3-6.8,3.73-7.93,10.38-11.74A3.89,3.89,0,0,0,645.09,121.53Z"/><path class="cls-5" d="M657.52,131.89a4,4,0,0,0-.77-3.76c-.16-.24-4.49-3.39-5.48-3.34-11,.55-11.61,2.9-19,10.48-.6.62-1.14.37.19,1.2,8.4,5.24,6.78,4.44,7,4.69,1,.89,1.33.91,1.74.48,5.22-5.38,6.33-6.19,13.93-7.52A4,4,0,0,0,657.52,131.89Z"/><path class="cls-5" d="M642.59,146.62a2.58,2.58,0,0,0,1.9,1.6c6.4,1.32,8.53,3.86,13.53,8.91.44.44,2.24,1.85,3.11,1.47.67-.3,1.67-1.13,2.26-3.49a13.45,13.45,0,0,0-.68-6.35c-4.34-10-3.49-7.82-12.86-10.74-3-.93-8.93,2.69-8.91,4.23Z"/><path class="cls-5" d="M640.6,151.28A4.13,4.13,0,0,0,642,154c6.38,6.07,7.68,9.73,11.06,17.6.29.68,1.68,3.2,2.78,3.58a3.73,3.73,0,0,0,3.83-.92c1-.86,1.91-3.79,1.81-5.46-.7-11.16-.64-8.82-9.6-18.48-2.86-3.08-10.74-5-11.33-3.76Z"/><path class="cls-5" d="M638.07,158.41a3.28,3.28,0,0,0,.93,2.52c5.07,5.57,5.77,8.92,7.83,16.15.18.62,1.12,2.93,2.07,3.29a3.74,3.74,0,0,0,3.66-.85,9.22,9.22,0,0,0,2.4-5c.85-10.23.59-8.09-6.37-17-2.21-2.83-9.21-4.55-9.92-3.44Z"/><path class="cls-5" d="M600,116.73c-.26.75-1.3,3.81-.77,4.51,3.9,5.09,6.72,7.48,7.39,14.2.06.58.55,2.72,1.41,3,.66.24,1.88.33,3.71-.88a11.19,11.19,0,0,0,3.25-4.75c2.71-9.6,2.06-7.59-3.07-15.73-1.63-2.59-7.21-2.86-9.59-2.55Z"/><path class="cls-5" d="M586.71,128.71c.18.77.93,3.88,1.76,4.2,6.06,2.4,9.74,3,13.92,8.39.36.46,1.93,2,2.83,1.88.69-.13,1.78-.65,2.69-2.58a10.8,10.8,0,0,0,.21-5.63c-2.85-9.47-2.32-7.45-11.06-11.81-2.78-1.39-7.67,1.13-9.53,2.57Z"/><path class="cls-5" d="M579.33,142.7c.52.7,2.61,3.55,3.52,3.5,6.66-.31,10.34-1.35,16.61,2.23.54.31,1.38-.15,2.13-.73a3.23,3.23,0,0,0,1.81-3.29c0-1.52-.12-4.24-1.54-5.11-10.1-6.18-6.42-4.45-16.43-4.92-3.2-.15-5.64,2.54-6.7,4.87Z"/><path class="cls-5" d="M574.67,156.31c.76.41,3.82,2.07,4.7,1.68,6.45-2.89,9.72-5.25,17.16-4.57.64.05,1.3-.68,1.84-1.48a3,3,0,0,0,.63-3.59c-.55-1.31-1.59-3.65-3.3-3.86-12.12-1.44-7.88-1.37-17.93,2.15-3.2,1.12-4.67,4.44-4.9,6.89Z"/><path class="cls-5" d="M580,172.11c.56.35,4.55.46,5,0,1.69-1.64,2.08-1.78,2.56-2.33,4.58-5.28,7.73-7.75,15-10,.63-.2.88-1.16,1-2.13a3.25,3.25,0,0,0-1.2-3.66c-1.17-1-3.31-2.85-5-2.38-12,3.38-9.63,1.07-17.25,8.35-1.91,1.83-3.38,4.15-2.9,6.4.22,1,1.88,5.2,2.78,5.77Z"/><path class="cls-5" d="M587.91,183.79c.56.16,4-1,4.31-1.55,1.11-2,1.42-2.29,1.71-3,2.84-6.28,5-9.52,10.78-13.87.5-.38.52-1.34.41-2.27a2.88,2.88,0,0,0-1.77-3c-1.22-.59-3.42-1.61-4.77-.64-9.59,6.84-8,4-13.05,13-1.25,2.28-2,4.87-1.17,6.79.4.87,2.67,4.21,3.55,4.45Z"/><path class="cls-5" d="M598.43,195.12c.7,0,4.45-2,4.66-2.75.75-2.56,1-2.92,1.21-3.73,1.61-7.75,3.29-11.93,8.89-18.17.49-.54.24-1.63-.15-2.66a3.53,3.53,0,0,0-2.94-3c-1.6-.38-4.49-1-5.82.38-9.44,9.94-8.39,6.33-11.81,17.74-.85,2.86-1.06,6,.51,8,.71.89,4.34,4.15,5.45,4.22Z"/><path class="cls-5" d="M614.69,200.77c.69-.11,3.2-1.51,3.25-2.34.16-3,.36-3.42.34-4.34-.16-8.82.54-13.77,4.59-21.85.35-.7-.13-1.83-.74-2.87-.47-.79-.92-2.49-3.52-2.58-1.64-.06-4.59-.1-5.57,1.73-6.95,13-6.74,8.82-7.51,22-.19,3.31.31,6.75,2.26,8.55.89.81,1.49,2.6,2.58,2.42Z"/><path class="cls-5" d="M647.07,187.27c-.87,2-1.78,3.38-4.39,2.32a6.63,6.63,0,0,1-2-1.73c-7.58-8.26-7.75-15.7-8.41-26.65-.06-1.09.41-.9.93-1.31,2.21-1.73,1,.23,6.31,2.6,4.94,2.19,7.46,10.14,7.69,10.89,2.25,7.58.35,1.15,1.61,9.07C649,183.25,647.82,185.56,647.07,187.27Z"/><path class="cls-5" d="M638.75,196.88c-1.3,1.52-2.49,2.51-4.79,1.14a5.71,5.71,0,0,1-1.52-1.82c-5.49-8.36-4-14.66-2.14-24,.19-.93.6-.68,1.2-.92,2.54-1.05.88.36,5.54,3.35,4.3,2.76,5,9.92,5,10.6.47,6.8.08,1-.48,7.93C641.5,193.84,639.86,195.58,638.75,196.88Z"/><path class="cls-5" d="M628.11,201.85c.58-.16,3-3.61,3-4.46-.18-3-.05-3.52-.17-4.47-1.11-9-1-14.12,1.61-22.71.23-.74-.32-1.86-1-2.87-.5-.77-1.08-2.48-3.36-2.37-1.44.07-5.69,1.44-6.35,3.4-4.65,13.83-3.24,8.36-2.46,21.95.19,3.41,1,6.89,2.91,8.57.87.76,4.88,3.22,5.82,3Z"/><path class="cls-8" d="M629.83,115.12c-3.61-3.36-2.21-2.37-4.54-3a3.84,3.84,0,0,0-2.56.44c-9.67,7.43-9.47,12.18-9.32,23.87,0,1-.53,1.16,1,.82,9.36-2.17,2.1-1.25,10.06-1.3,1.26,0,1.22-.32,1.21-1-.14-8.28-.47-10.4,3.82-17.23C629.81,117.2,630.4,115.65,629.83,115.12Z"/><path class="cls-8" d="M643.62,123a4,4,0,0,0-2-3.14c-.23-.16-5.2-1.61-6.07-1.24-9.73,4.06-9.44,6.36-13.5,15.59-.33.74-.9.7.58,1,9.33,2,7.61,1.81,7.94,1.95,1.15.5,1.5.39,1.72-.13,2.85-6.53,3.57-7.62,9.95-11.27A3.79,3.79,0,0,0,643.62,123Z"/><path class="cls-8" d="M655.52,132.94a3.9,3.9,0,0,0-.73-3.61c-.15-.23-4.31-3.26-5.25-3.21-10.57.53-11.12,2.79-18.21,10.07-.57.59-1.09.35.18,1.15,8,5,6.5,4.26,6.76,4.51.9.85,1.26.87,1.66.46,5-5.18,6.06-5.95,13.34-7.23A3.83,3.83,0,0,0,655.52,132.94Z"/><path class="cls-8" d="M641.22,147.09a2.48,2.48,0,0,0,1.82,1.54c6.13,1.27,8.18,3.7,13,8.56.41.42,2.14,1.77,3,1.4.64-.28,1.6-1.08,2.17-3.35a13.06,13.06,0,0,0-.66-6.1c-4.15-9.57-3.33-7.5-12.31-10.31-2.87-.89-8.56,2.58-8.54,4.06Z"/><path class="cls-8" d="M639.32,151.57a4,4,0,0,0,1.36,2.64c6.11,5.83,7.35,9.34,10.59,16.9.28.65,1.61,3.07,2.66,3.44a3.57,3.57,0,0,0,3.68-.88c1-.83,1.82-3.65,1.72-5.25-.66-10.71-.6-8.47-9.19-17.75-2.74-3-10.28-4.77-10.85-3.61Z"/><path class="cls-8" d="M636.89,158.41a3.15,3.15,0,0,0,.9,2.42c4.85,5.35,5.52,8.57,7.49,15.51.17.6,1.07,2.82,2,3.16a3.56,3.56,0,0,0,3.51-.82,8.93,8.93,0,0,0,2.29-4.82c.82-9.83.57-7.77-6.1-16.28-2.12-2.72-8.83-4.38-9.5-3.31Z"/><path class="cls-8" d="M600.46,118.38c-.25.72-1.25,3.66-.74,4.33,3.73,4.89,6.44,7.19,7.08,13.64.06.56.53,2.62,1.35,2.91.63.23,1.8.32,3.56-.84a10.76,10.76,0,0,0,3.1-4.57c2.6-9.22,2-7.28-2.93-15.1-1.57-2.49-6.91-2.75-9.19-2.46Z"/><path class="cls-8" d="M587.7,129.89c.18.74.89,3.72,1.69,4,5.8,2.31,9.33,2.91,13.33,8.06.35.44,1.85,2,2.71,1.8.66-.12,1.7-.62,2.57-2.47a10.29,10.29,0,0,0,.2-5.41c-2.72-9.1-2.21-7.15-10.58-11.34-2.67-1.34-7.36,1.08-9.14,2.46Z"/><path class="cls-8" d="M580.63,143.32c.5.68,2.5,3.41,3.38,3.37,6.37-.3,9.9-1.3,15.9,2.14.52.3,1.32-.15,2.05-.7a3.12,3.12,0,0,0,1.72-3.16c0-1.46-.1-4.07-1.47-4.91-9.67-5.94-6.15-4.27-15.74-4.73-3.06-.15-5.4,2.44-6.41,4.68Z"/><path class="cls-8" d="M576.17,156.39c.72.4,3.65,2,4.5,1.61,6.18-2.77,9.31-5,16.43-4.38.62,0,1.26-.65,1.77-1.42a2.92,2.92,0,0,0,.61-3.45c-.54-1.26-1.53-3.51-3.17-3.7-11.61-1.39-7.55-1.32-17.17,2.06-3.07,1.08-4.47,4.26-4.69,6.62Z"/><path class="cls-8" d="M581.27,171.57c.54.34,4.36.44,4.82,0,1.62-1.57,2-1.71,2.46-2.24,4.38-5.07,7.4-7.44,14.37-9.62.6-.19.84-1.11.94-2.05a3.11,3.11,0,0,0-1.15-3.51c-1.13-1-3.17-2.74-4.79-2.29-11.52,3.25-9.24,1-16.53,8-1.83,1.76-3.23,4-2.78,6.15.21,1,1.8,5,2.66,5.54Z"/><path class="cls-8" d="M588.85,182.79c.53.15,3.83-.95,4.12-1.49,1.07-2,1.37-2.2,1.65-2.83,2.72-6,4.81-9.15,10.33-13.33.47-.36.49-1.28.39-2.17a2.79,2.79,0,0,0-1.71-2.88c-1.16-.57-3.26-1.54-4.56-.61-9.18,6.57-7.69,3.81-12.5,12.52-1.2,2.18-2,4.67-1.12,6.51.38.84,2.56,4.05,3.4,4.28Z"/><path class="cls-8" d="M598.93,193.67c.66.05,4.26-2,4.46-2.64.72-2.45,1-2.8,1.16-3.58C606.09,180,607.7,176,613.07,170c.46-.51.23-1.56-.15-2.55a3.4,3.4,0,0,0-2.81-2.86c-1.54-.37-4.3-1-5.58.36-9,9.55-8,6.09-11.31,17.05-.82,2.74-1,5.73.49,7.63.67.85,4.15,4,5.22,4Z"/><path class="cls-8" d="M614.5,199.1c.66-.1,3.07-1.46,3.11-2.25.16-2.84.35-3.28.33-4.17-.16-8.47.52-13.22,4.39-21,.34-.67-.12-1.76-.71-2.75-.44-.76-.88-2.39-3.36-2.48-1.58-.05-4.4-.09-5.34,1.67-6.66,12.47-6.45,8.47-7.19,21.17-.19,3.18.29,6.49,2.17,8.21.84.78,1.42,2.5,2.47,2.33Z"/><path class="cls-8" d="M645.52,186.13c-.84,1.93-1.71,3.25-4.21,2.23a6.38,6.38,0,0,1-1.89-1.66c-7.26-7.94-7.42-15.08-8-25.6-.06-1,.39-.87.89-1.26,2.12-1.66.92.22,6,2.5,4.74,2.11,7.15,9.74,7.36,10.46,2.17,7.28.35,1.11,1.55,8.71C647.33,182.27,646.23,184.49,645.52,186.13Z"/><path class="cls-8" d="M637.55,195.36c-1.25,1.47-2.39,2.42-4.59,1.1a5.62,5.62,0,0,1-1.46-1.75c-5.26-8-3.8-14.08-2-23.06.17-.89.57-.65,1.14-.89,2.43-1,.85.35,5.31,3.22,4.11,2.66,4.74,9.53,4.78,10.18.46,6.54.08,1-.46,7.62C640.18,192.44,638.61,194.11,637.55,195.36Z"/><path class="cls-8" d="M627.35,200.14c.56-.16,2.89-3.47,2.84-4.29-.17-2.92-.05-3.38-.16-4.29-1.07-8.65-1-13.56,1.54-21.81.21-.71-.31-1.79-.92-2.76-.48-.74-1-2.38-3.22-2.27-1.38.06-5.45,1.38-6.08,3.25-4.45,13.29-3.1,8-2.36,21.09.19,3.27,1,6.62,2.79,8.24.83.73,4.67,3.09,5.57,2.84Z"/><path class="cls-6" d="M629.77,116.69c-3.45-3.25-2.11-2.29-4.34-2.89a3.68,3.68,0,0,0-2.44.43c-9.23,7.19-9,11.78-8.89,23.09,0,.91-.51,1.12.91.79,8.94-2.1,2-1.21,9.6-1.25,1.21,0,1.16-.32,1.15-1-.12-8-.44-10.06,3.65-16.67C629.74,118.7,630.31,117.2,629.77,116.69Z"/><path class="cls-6" d="M642.93,124.3a3.83,3.83,0,0,0-1.89-3c-.21-.16-5-1.56-5.79-1.21-9.28,3.93-9,6.16-12.88,15.08-.31.72-.86.68.55,1,8.91,1.95,7.26,1.75,7.58,1.89,1.09.48,1.43.38,1.64-.13,2.72-6.32,3.41-7.37,9.49-10.9A3.64,3.64,0,0,0,642.93,124.3Z"/><path class="cls-6" d="M654.29,133.92a3.82,3.82,0,0,0-.71-3.49c-.14-.22-4.1-3.15-5-3.11-10.08.52-10.61,2.7-17.37,9.75-.55.57-1.05.34.17,1.11,7.68,4.87,6.2,4.12,6.45,4.36.86.82,1.21.84,1.59.44,4.76-5,5.78-5.75,12.73-7A3.69,3.69,0,0,0,654.29,133.92Z"/><path class="cls-6" d="M640.64,147.61a2.37,2.37,0,0,0,1.74,1.49c5.84,1.23,7.79,3.58,12.37,8.28.39.4,2,1.71,2.84,1.35.61-.27,1.52-1,2.06-3.24a12.68,12.68,0,0,0-.62-5.89c-4-9.26-3.19-7.26-11.75-10-2.74-.86-8.17,2.5-8.15,3.92Z"/><path class="cls-6" d="M638.82,151.94a3.89,3.89,0,0,0,1.3,2.55c5.83,5.65,7,9,10.11,16.35.27.63,1.54,3,2.53,3.33a3.38,3.38,0,0,0,3.51-.85c.92-.81,1.75-3.53,1.65-5.08-.63-10.36-.58-8.19-8.77-17.17-2.62-2.86-9.81-4.61-10.35-3.49Z"/><path class="cls-6" d="M636.51,158.56a3,3,0,0,0,.85,2.34c4.63,5.18,5.27,8.29,7.15,15,.17.58,1,2.73,1.9,3.06a3.39,3.39,0,0,0,3.35-.79,8.59,8.59,0,0,0,2.18-4.67c.79-9.51.55-7.51-5.81-15.75-2-2.62-8.43-4.23-9.07-3.19Z"/><path class="cls-6" d="M601.73,119.84c-.23.7-1.19,3.54-.7,4.19,3.56,4.73,6.14,6.95,6.76,13.19.05.54.5,2.53,1.29,2.82.6.22,1.72.31,3.39-.82a10.46,10.46,0,0,0,3-4.41c2.47-8.92,1.88-7-2.81-14.61-1.49-2.41-6.59-2.67-8.77-2.38Z"/><path class="cls-6" d="M589.55,131c.18.72.86,3.6,1.62,3.91,5.53,2.22,8.9,2.81,12.72,7.79.33.43,1.77,1.89,2.59,1.74.63-.12,1.62-.6,2.45-2.39a10,10,0,0,0,.2-5.23c-2.61-8.8-2.12-6.92-10.11-11-2.54-1.29-7,1-8.71,2.39Z"/><path class="cls-6" d="M582.81,144c.47.66,2.39,3.3,3.22,3.26,6.09-.29,9.45-1.26,15.18,2.07.5.29,1.26-.14,1.95-.68a3,3,0,0,0,1.65-3.05c0-1.41-.1-3.94-1.4-4.75-9.23-5.74-5.87-4.13-15-4.57-2.92-.14-5.15,2.36-6.12,4.52Z"/><path class="cls-6" d="M578.55,156.61c.69.38,3.49,1.93,4.3,1.56,5.9-2.69,8.88-4.87,15.68-4.25.59.06,1.2-.62,1.69-1.37a2.85,2.85,0,0,0,.58-3.33c-.51-1.22-1.46-3.4-3-3.59-11.08-1.33-7.21-1.27-16.39,2-2.93,1-4.27,4.12-4.48,6.4Z"/><path class="cls-6" d="M583.42,171.29c.51.33,4.17.42,4.6,0,1.55-1.52,1.91-1.66,2.35-2.17,4.18-4.9,7.06-7.19,13.71-9.31.57-.18.81-1.07.9-2a3,3,0,0,0-1.1-3.39c-1.07-1-3-2.65-4.57-2.21-11,3.14-8.81,1-15.77,7.75-1.75,1.7-3.09,3.86-2.65,6,.19.94,1.71,4.83,2.53,5.36Z"/><path class="cls-6" d="M590.66,182.14c.5.15,3.65-.92,3.93-1.44,1-1.89,1.3-2.13,1.57-2.74,2.59-5.83,4.6-8.85,9.86-12.89.45-.35.47-1.24.37-2.1a2.72,2.72,0,0,0-1.62-2.79c-1.12-.54-3.13-1.48-4.36-.59-8.77,6.36-7.34,3.69-11.93,12.11-1.15,2.11-1.86,4.52-1.07,6.31.36.8,2.44,3.91,3.25,4.13Z"/><path class="cls-6" d="M600.27,192.67c.64,0,4.07-1.9,4.26-2.56.69-2.37,1-2.71,1.11-3.46,1.47-7.2,3-11.08,8.13-16.89.44-.5.22-1.51-.14-2.46a3.28,3.28,0,0,0-2.69-2.77c-1.46-.36-4.1-.95-5.32.35-8.63,9.23-7.67,5.88-10.79,16.48-.79,2.66-1,5.55.46,7.38.65.83,4,3.86,5,3.93Z"/><path class="cls-6" d="M615.14,197.92c.62-.1,2.92-1.41,3-2.18.15-2.75.34-3.17.32-4-.15-8.2.49-12.79,4.19-20.3.32-.65-.12-1.7-.68-2.66-.42-.74-.84-2.32-3.21-2.4-1.5-.06-4.2-.1-5.09,1.61-6.36,12.07-6.16,8.19-6.87,20.47-.18,3.09.28,6.28,2.07,7.95.81.76,1.36,2.41,2.36,2.25Z"/><path class="cls-6" d="M644.74,185.37c-.8,1.86-1.63,3.14-4,2.16a6,6,0,0,1-1.8-1.61c-6.93-7.67-7.08-14.58-7.69-24.76-.06-1,.38-.84.85-1.21,2-1.61.88.21,5.77,2.41,4.52,2,6.82,9.42,7,10.12,2.06,7,.32,1.07,1.48,8.42C646.47,181.63,645.42,183.79,644.74,185.37Z"/><path class="cls-6" d="M637.13,194.3c-1.19,1.42-2.28,2.34-4.38,1.06a5.32,5.32,0,0,1-1.39-1.69c-5-7.77-3.63-13.62-2-22.3.16-.87.55-.64,1.09-.87,2.32-1,.81.35,5.06,3.12,3.93,2.57,4.53,9.22,4.57,9.85.44,6.32.08,1-.44,7.37C639.64,191.48,638.14,193.09,637.13,194.3Z"/><path class="cls-6" d="M627.4,198.92c.53-.15,2.76-3.36,2.71-4.15-.17-2.82-.05-3.27-.16-4.15-1-8.37-1-13.12,1.47-21.09a3.92,3.92,0,0,0-.88-2.67c-.45-.72-1-2.3-3.06-2.2-1.32.06-5.21,1.34-5.81,3.15-4.25,12.85-3,7.77-2.25,20.4.18,3.16.92,6.4,2.66,8,.79.71,4.46,3,5.32,2.75Z"/><path class="cls-5" d="M642.35,153.52c0,11.7-8.88,23.37-22.25,23.37-2.36,0-13.6-2-19.37-7.41-5.05-4.71-4.84-12.79-4.84-13.76,0-11.7,13-22.3,27.22-22.37C636.49,133.28,642.35,141.83,642.35,153.52Z"/><path class="cls-9" d="M641.51,153.46c0,11.06-8.42,22.1-21.1,22.1-2.24,0-12.9-1.91-18.36-7-4.79-4.46-4.59-12.1-4.59-13,0-11.06,12.31-21.09,25.81-21.15C635.94,134.31,641.51,142.4,641.51,153.46Z"/><path class="cls-5" d="M659.49,169c-3.77-3.5-2.3-2.46-4.75-3.11a4.05,4.05,0,0,0-2.66.46c-10.1,7.74-9.89,12.68-9.73,24.86,0,1-.56,1.21,1,.85,9.78-2.26,2.2-1.3,10.51-1.35,1.32,0,1.27-.34,1.26-1-.14-8.62-.49-10.83,4-18C659.47,171.16,660.08,169.54,659.49,169Z"/><path class="cls-5" d="M673.89,177.18a4.13,4.13,0,0,0-2.07-3.26c-.23-.17-5.42-1.68-6.33-1.3-10.15,4.23-9.85,6.63-14.09,16.23-.34.77-.94.73.6,1.06,9.75,2.1,7.94,1.88,8.29,2,1.2.51,1.57.4,1.8-.14,3-6.8,3.73-7.93,10.38-11.74A3.93,3.93,0,0,0,673.89,177.18Z"/><path class="cls-5" d="M686.32,187.54a4,4,0,0,0-.78-3.75c-.15-.24-4.49-3.4-5.47-3.35-11,.55-11.61,2.9-19,10.49-.6.61-1.15.36.18,1.19,8.4,5.25,6.79,4.44,7.06,4.69.94.89,1.32.91,1.74.48,5.21-5.38,6.32-6.19,13.92-7.52A4,4,0,0,0,686.32,187.54Z"/><path class="cls-5" d="M671.38,202.27a2.59,2.59,0,0,0,1.91,1.61c6.39,1.32,8.53,3.85,13.53,8.91.43.43,2.24,1.84,3.11,1.46.66-.3,1.66-1.13,2.26-3.49a13.6,13.6,0,0,0-.69-6.35c-4.33-10-3.48-7.81-12.86-10.73-3-.93-8.93,2.68-8.91,4.22Z"/><path class="cls-5" d="M669.4,206.93a4.12,4.12,0,0,0,1.41,2.75c6.39,6.08,7.68,9.73,11.07,17.6.29.68,1.68,3.2,2.77,3.59a3.75,3.75,0,0,0,3.84-.93c1-.86,1.91-3.79,1.8-5.46-.69-11.15-.63-8.82-9.6-18.48-2.86-3.08-10.73-5-11.32-3.76Z"/><path class="cls-5" d="M666.86,214.06a3.24,3.24,0,0,0,.94,2.52c5.06,5.57,5.76,8.92,7.82,16.15.18.62,1.12,2.94,2.08,3.29a3.74,3.74,0,0,0,3.66-.85,9.28,9.28,0,0,0,2.39-5c.86-10.24.6-8.09-6.36-17-2.22-2.83-9.22-4.55-9.93-3.44Z"/><path class="cls-5" d="M628.82,172.38c-.25.76-1.3,3.81-.76,4.51,3.89,5.1,6.71,7.49,7.39,14.2.06.58.55,2.73,1.41,3,.66.23,1.88.33,3.71-.89a11.09,11.09,0,0,0,3.24-4.75c2.71-9.6,2.07-7.59-3.06-15.72-1.64-2.6-7.21-2.87-9.59-2.56Z"/><path class="cls-5" d="M615.5,184.37c.19.76.94,3.87,1.77,4.2,6.05,2.39,9.74,3,13.92,8.38.36.47,1.93,2,2.83,1.88.68-.13,1.77-.65,2.68-2.58a10.69,10.69,0,0,0,.21-5.63c-2.85-9.47-2.31-7.44-11-11.81-2.79-1.39-7.68,1.13-9.54,2.57Z"/><path class="cls-5" d="M608.12,198.35c.52.7,2.62,3.55,3.53,3.5,6.65-.31,10.33-1.35,16.6,2.24.55.31,1.38-.16,2.14-.74a3.24,3.24,0,0,0,1.8-3.29c0-1.52-.11-4.23-1.54-5.1-10.09-6.19-6.41-4.45-16.43-4.93-3.19-.15-5.64,2.54-6.7,4.87Z"/><path class="cls-5" d="M603.46,212c.76.41,3.82,2.07,4.71,1.68,6.45-2.89,9.71-5.24,17.15-4.57.65.06,1.31-.68,1.85-1.48a3,3,0,0,0,.63-3.58c-.56-1.32-1.6-3.66-3.3-3.86-12.12-1.44-7.89-1.37-17.93,2.14-3.21,1.12-4.67,4.44-4.9,6.89Z"/><path class="cls-5" d="M608.79,227.76c.56.36,4.56.46,5,0,1.7-1.63,2.09-1.78,2.57-2.33,4.58-5.28,7.73-7.75,15-10,.63-.2.88-1.15,1-2.13a3.27,3.27,0,0,0-1.21-3.66c-1.17-1-3.31-2.85-5-2.38-12,3.39-9.64,1.07-17.25,8.35-1.91,1.83-3.38,4.15-2.9,6.4.21,1,1.88,5.21,2.77,5.77Z"/><path class="cls-5" d="M616.71,239.45c.55.15,4-1,4.3-1.56,1.11-2,1.42-2.29,1.72-2.95,2.83-6.27,5-9.52,10.78-13.87.5-.38.52-1.34.41-2.27a2.91,2.91,0,0,0-1.78-3c-1.22-.59-3.41-1.6-4.77-.64-9.58,6.84-8,4-13,13-1.26,2.27-2,4.86-1.17,6.78.39.87,2.67,4.21,3.55,4.46Z"/><path class="cls-5" d="M627.22,250.77c.7,0,4.45-2,4.66-2.75.76-2.55,1-2.91,1.22-3.72,1.6-7.76,3.29-11.94,8.89-18.18.48-.54.24-1.63-.15-2.66a3.56,3.56,0,0,0-2.94-3c-1.61-.38-4.49-1-5.82.38-9.45,9.94-8.4,6.34-11.81,17.75-.86,2.86-1.06,6,.5,7.94.71.89,4.34,4.15,5.45,4.22Z"/><path class="cls-5" d="M643.49,256.42c.68-.1,3.2-1.51,3.24-2.34.16-3,.37-3.42.35-4.34-.17-8.82.54-13.76,4.58-21.85.35-.7-.13-1.83-.74-2.86-.46-.79-.92-2.5-3.52-2.59-1.64-.05-4.58-.1-5.56,1.73-7,13-6.74,8.82-7.52,22.05-.19,3.31.31,6.76,2.27,8.55.89.82,1.48,2.6,2.58,2.43Z"/><path class="cls-5" d="M675.87,242.92c-.88,2-1.79,3.38-4.4,2.33a6.62,6.62,0,0,1-2-1.73c-7.59-8.27-7.76-15.71-8.41-26.66-.07-1.09.41-.9.92-1.31,2.21-1.73,1,.23,6.32,2.6,4.94,2.19,7.46,10.14,7.68,10.89,2.26,7.59.36,1.16,1.62,9.07C677.76,238.9,676.61,241.22,675.87,242.92Z"/><path class="cls-5" d="M667.54,252.53c-1.3,1.53-2.49,2.52-4.79,1.15a5.75,5.75,0,0,1-1.51-1.83c-5.5-8.36-4-14.66-2.14-24,.18-.93.6-.69,1.19-.93,2.54-1,.89.37,5.54,3.36,4.3,2.75,4.95,9.91,5,10.59.48,6.8.09,1-.48,7.94C670.29,249.49,668.65,251.23,667.54,252.53Z"/><path class="cls-5" d="M656.9,257.5c.59-.16,3-3.61,3-4.46-.18-3-.06-3.52-.17-4.46-1.12-9-1.05-14.13,1.6-22.71.23-.75-.31-1.87-1-2.88-.49-.77-1.07-2.48-3.35-2.36-1.45.07-5.7,1.44-6.35,3.39-4.65,13.83-3.24,8.36-2.47,21.95.2,3.41,1,6.89,2.92,8.57.86.77,4.87,3.23,5.81,3Z"/><path class="cls-8" d="M658.63,170.78c-3.62-3.37-2.21-2.37-4.55-3a3.88,3.88,0,0,0-2.55.44c-9.68,7.44-9.47,12.18-9.32,23.87,0,1-.53,1.17.95.82,9.37-2.17,2.1-1.25,10.07-1.3,1.26,0,1.21-.32,1.2-1-.13-8.27-.47-10.39,3.82-17.23C658.6,172.86,659.19,171.3,658.63,170.78Z"/><path class="cls-8" d="M672.42,178.64a4,4,0,0,0-2-3.13c-.22-.17-5.2-1.61-6.07-1.25-9.72,4.06-9.44,6.37-13.5,15.59-.32.74-.9.7.58,1,9.34,2,7.61,1.8,7.94,1.94,1.15.5,1.5.4,1.73-.12,2.85-6.54,3.57-7.63,9.94-11.28A3.78,3.78,0,0,0,672.42,178.64Z"/><path class="cls-8" d="M684.32,188.59a3.89,3.89,0,0,0-.74-3.61c-.15-.22-4.3-3.26-5.25-3.21-10.57.53-11.12,2.79-18.2,10.07-.58.59-1.1.36.18,1.15,8,5,6.49,4.26,6.75,4.51.9.85,1.27.87,1.67.46,5-5.17,6.06-6,13.33-7.23A3.84,3.84,0,0,0,684.32,188.59Z"/><path class="cls-8" d="M670,202.74a2.46,2.46,0,0,0,1.82,1.54c6.12,1.27,8.17,3.7,13,8.56.42.42,2.15,1.77,3,1.4.63-.28,1.59-1.08,2.16-3.35a13,13,0,0,0-.65-6.09c-4.15-9.58-3.34-7.51-12.32-10.31-2.86-.9-8.56,2.57-8.53,4Z"/><path class="cls-8" d="M668.12,207.22a3.94,3.94,0,0,0,1.35,2.64c6.12,5.83,7.36,9.34,10.6,16.9.28.65,1.61,3.07,2.65,3.45a3.6,3.6,0,0,0,3.68-.89c1-.83,1.83-3.64,1.73-5.25-.67-10.71-.61-8.47-9.2-17.75-2.74-3-10.28-4.77-10.84-3.61Z"/><path class="cls-8" d="M665.69,214.06a3.16,3.16,0,0,0,.89,2.43c4.85,5.35,5.52,8.56,7.5,15.5.17.6,1.07,2.83,2,3.17a3.59,3.59,0,0,0,3.51-.82,8.86,8.86,0,0,0,2.29-4.83c.82-9.83.58-7.77-6.09-16.28-2.13-2.72-8.83-4.37-9.51-3.31Z"/><path class="cls-8" d="M629.25,174c-.24.73-1.25,3.66-.73,4.33,3.73,4.9,6.43,7.19,7.08,13.64,0,.56.52,2.62,1.35,2.92.63.22,1.8.31,3.55-.85a10.81,10.81,0,0,0,3.11-4.56c2.6-9.23,2-7.29-2.94-15.11-1.56-2.49-6.91-2.75-9.18-2.45Z"/><path class="cls-8" d="M616.49,185.54c.18.74.9,3.72,1.69,4,5.8,2.3,9.33,2.91,13.34,8,.34.45,1.84,2,2.71,1.8.65-.12,1.7-.62,2.57-2.47a10.28,10.28,0,0,0,.2-5.41c-2.73-9.1-2.22-7.15-10.59-11.34-2.67-1.34-7.35,1.08-9.13,2.46Z"/><path class="cls-8" d="M609.42,199c.5.68,2.51,3.41,3.38,3.37,6.38-.3,9.9-1.3,15.91,2.14.52.3,1.32-.14,2-.7a3.12,3.12,0,0,0,1.73-3.16c0-1.46-.11-4.07-1.47-4.91-9.67-5.94-6.15-4.27-15.75-4.73-3-.14-5.4,2.45-6.41,4.68Z"/><path class="cls-8" d="M605,212.05c.73.39,3.66,2,4.51,1.61,6.18-2.78,9.3-5,16.43-4.39.61,0,1.25-.65,1.77-1.42a2.93,2.93,0,0,0,.6-3.44c-.53-1.27-1.53-3.52-3.16-3.71-11.61-1.39-7.56-1.32-17.18,2.06-3.06,1.08-4.47,4.26-4.69,6.62Z"/><path class="cls-8" d="M610.06,227.22c.54.34,4.37.44,4.82,0,1.62-1.57,2-1.71,2.46-2.24,4.39-5.07,7.4-7.44,14.37-9.62.6-.19.85-1.11.94-2.05a3.11,3.11,0,0,0-1.15-3.51c-1.12-1-3.17-2.74-4.79-2.28-11.51,3.24-9.23,1-16.52,8-1.83,1.75-3.24,4-2.78,6.14.21,1,1.8,5,2.65,5.54Z"/><path class="cls-8" d="M617.65,238.45c.53.14,3.82-1,4.12-1.5,1.07-1.95,1.36-2.2,1.64-2.83,2.72-6,4.82-9.15,10.33-13.33.48-.36.5-1.28.39-2.17a2.79,2.79,0,0,0-1.7-2.88c-1.17-.56-3.27-1.54-4.57-.61-9.18,6.57-7.68,3.81-12.49,12.52-1.21,2.18-2,4.67-1.12,6.52.37.83,2.55,4,3.4,4.28Z"/><path class="cls-8" d="M627.72,249.33c.67,0,4.26-2,4.46-2.65.72-2.45,1-2.8,1.16-3.58,1.54-7.44,3.16-11.46,8.52-17.45.47-.52.23-1.57-.14-2.56a3.41,3.41,0,0,0-2.82-2.86c-1.54-.37-4.3-1-5.58.36-9,9.55-8,6.09-11.31,17-.82,2.75-1,5.74.49,7.63.68.86,4.16,4,5.22,4.06Z"/><path class="cls-8" d="M643.3,254.75c.65-.1,3.06-1.45,3.11-2.25.15-2.84.34-3.28.33-4.17-.16-8.47.51-13.22,4.39-21,.33-.67-.13-1.76-.71-2.76-.45-.75-.88-2.39-3.37-2.48-1.58-.05-4.4-.09-5.33,1.67-6.67,12.48-6.46,8.47-7.2,21.17-.18,3.18.29,6.49,2.17,8.22.85.78,1.42,2.49,2.47,2.32Z"/><path class="cls-8" d="M674.31,241.79c-.84,1.92-1.71,3.24-4.21,2.23a6.43,6.43,0,0,1-1.88-1.67c-7.27-7.93-7.43-15.08-8.06-25.6-.06-1,.4-.86.89-1.25,2.12-1.67.93.21,6.05,2.49,4.73,2.11,7.14,9.74,7.36,10.46,2.16,7.29.34,1.11,1.55,8.71C676.13,237.92,675,240.15,674.31,241.79Z"/><path class="cls-8" d="M666.34,251c-1.25,1.47-2.39,2.42-4.59,1.1a5.48,5.48,0,0,1-1.45-1.75c-5.26-8-3.81-14.08-2-23.06.17-.89.58-.65,1.14-.89,2.43-1,.85.36,5.31,3.23,4.12,2.65,4.74,9.52,4.79,10.17.45,6.54.08,1-.46,7.63C669,248.1,667.4,249.77,666.34,251Z"/><path class="cls-8" d="M656.14,255.79c.57-.16,2.9-3.47,2.85-4.29-.18-2.91-.06-3.38-.17-4.29-1.07-8.65-1-13.56,1.54-21.81.22-.71-.3-1.79-.92-2.76-.47-.74-1-2.38-3.21-2.27-1.38.07-5.46,1.38-6.08,3.26-4.46,13.29-3.11,8-2.37,21.08.19,3.27,1,6.62,2.8,8.24.82.73,4.67,3.09,5.56,2.84Z"/><path class="cls-6" d="M658.56,172.34c-3.45-3.25-2.11-2.29-4.34-2.88a3.62,3.62,0,0,0-2.43.42c-9.24,7.19-9,11.78-8.9,23.09,0,.92-.51,1.13.91.79,8.94-2.1,2-1.21,9.61-1.25,1.2,0,1.16-.31,1.15-.95-.13-8-.45-10.06,3.65-16.67C658.54,174.36,659.1,172.85,658.56,172.34Z"/><path class="cls-6" d="M671.72,180a3.85,3.85,0,0,0-1.88-3c-.22-.16-5-1.56-5.79-1.21-9.29,3.93-9,6.16-12.89,15.08-.31.72-.86.68.55,1,8.91,1.94,7.26,1.74,7.58,1.88,1.1.48,1.43.38,1.65-.12,2.72-6.33,3.41-7.38,9.49-10.91A3.67,3.67,0,0,0,671.72,180Z"/><path class="cls-6" d="M683.08,189.58a3.81,3.81,0,0,0-.7-3.49c-.15-.23-4.11-3.16-5-3.11-10.09.51-10.61,2.7-17.38,9.74-.54.57-1,.34.17,1.11,7.68,4.87,6.2,4.12,6.45,4.36.86.82,1.21.84,1.59.45,4.77-5,5.78-5.76,12.73-7A3.72,3.72,0,0,0,683.08,189.58Z"/><path class="cls-6" d="M669.43,203.26a2.37,2.37,0,0,0,1.74,1.49C677,206,679,208.33,683.54,213c.4.4,2.05,1.72,2.84,1.36.61-.28,1.52-1,2.07-3.24a12.73,12.73,0,0,0-.63-5.9c-4-9.26-3.18-7.26-11.75-10-2.73-.87-8.17,2.49-8.14,3.92Z"/><path class="cls-6" d="M667.62,207.59a3.85,3.85,0,0,0,1.29,2.56c5.84,5.64,7,9,10.11,16.34.27.64,1.54,3,2.54,3.34a3.41,3.41,0,0,0,3.51-.86c.92-.8,1.74-3.52,1.65-5.08-.64-10.36-.58-8.19-8.78-17.17-2.61-2.86-9.81-4.61-10.35-3.49Z"/><path class="cls-6" d="M665.3,214.21a3.09,3.09,0,0,0,.85,2.35c4.63,5.17,5.27,8.28,7.16,15,.16.58,1,2.73,1.89,3.05a3.36,3.36,0,0,0,3.35-.79,8.68,8.68,0,0,0,2.19-4.66c.78-9.51.54-7.52-5.82-15.76-2-2.62-8.43-4.22-9.07-3.19Z"/><path class="cls-6" d="M630.53,175.49c-.24.7-1.19,3.54-.7,4.19,3.56,4.73,6.14,7,6.75,13.19.06.54.5,2.54,1.29,2.82.6.22,1.72.31,3.39-.82a10.37,10.37,0,0,0,3-4.41c2.48-8.92,1.89-7.05-2.8-14.61-1.5-2.41-6.6-2.66-8.77-2.37Z"/><path class="cls-6" d="M618.35,186.63c.17.71.86,3.59,1.61,3.9,5.54,2.22,8.91,2.81,12.73,7.79.33.43,1.76,1.89,2.58,1.74.63-.11,1.63-.6,2.46-2.39a10.14,10.14,0,0,0,.19-5.23c-2.6-8.8-2.12-6.92-10.1-11-2.55-1.3-7,1.05-8.72,2.38Z"/><path class="cls-6" d="M611.6,199.62c.48.65,2.39,3.29,3.23,3.25,6.08-.29,9.44-1.26,15.18,2.08.49.28,1.26-.15,2-.69a3,3,0,0,0,1.65-3c0-1.41-.11-3.94-1.41-4.75-9.23-5.74-5.87-4.13-15-4.57-2.92-.14-5.16,2.36-6.12,4.53Z"/><path class="cls-6" d="M607.34,212.26c.7.38,3.5,1.93,4.31,1.56,5.89-2.68,8.88-4.87,15.68-4.24.59,0,1.19-.63,1.69-1.38a2.87,2.87,0,0,0,.57-3.33c-.51-1.22-1.46-3.4-3-3.58-11.08-1.34-7.21-1.28-16.39,2-2.93,1-4.27,4.12-4.48,6.4Z"/><path class="cls-6" d="M612.21,226.94c.52.33,4.17.43,4.6,0,1.55-1.52,1.91-1.65,2.35-2.17,4.18-4.9,7.06-7.19,13.71-9.3.58-.19.81-1.08.9-2a3,3,0,0,0-1.09-3.4c-1.08-1-3-2.65-4.58-2.21-11,3.14-8.81,1-15.77,7.76-1.74,1.69-3.09,3.85-2.65,5.94.2.94,1.72,4.83,2.53,5.36Z"/><path class="cls-6" d="M619.45,237.8c.51.14,3.65-.92,3.94-1.45,1-1.89,1.29-2.13,1.57-2.74,2.59-5.83,4.59-8.85,9.85-12.89.46-.35.47-1.24.37-2.1a2.69,2.69,0,0,0-1.62-2.78c-1.11-.55-3.12-1.49-4.36-.6-8.76,6.36-7.33,3.69-11.92,12.11-1.15,2.11-1.87,4.52-1.07,6.31.36.8,2.44,3.91,3.24,4.14Z"/><path class="cls-6" d="M629.07,248.32c.63,0,4.06-1.89,4.26-2.56.68-2.37.95-2.71,1.1-3.46,1.47-7.2,3-11.08,8.13-16.88.44-.51.22-1.52-.14-2.47a3.26,3.26,0,0,0-2.68-2.77c-1.47-.36-4.11-1-5.33.35-8.63,9.24-7.67,5.89-10.79,16.48-.78,2.66-1,5.55.46,7.39.65.82,4,3.85,5,3.92Z"/><path class="cls-6" d="M643.93,253.57c.63-.1,2.93-1.41,3-2.18.15-2.75.33-3.17.32-4-.16-8.2.49-12.79,4.18-20.3.32-.65-.11-1.7-.67-2.66-.43-.73-.84-2.32-3.22-2.4-1.5-.05-4.19-.09-5.09,1.61-6.36,12.07-6.16,8.19-6.86,20.48-.18,3.08.28,6.28,2.07,7.94.81.76,1.35,2.42,2.35,2.26Z"/><path class="cls-6" d="M673.53,241c-.8,1.86-1.63,3.13-4,2.15a6,6,0,0,1-1.79-1.6c-6.94-7.68-7.09-14.59-7.69-24.77-.06-1,.37-.84.84-1.21,2-1.61.89.21,5.78,2.41,4.51,2,6.82,9.42,7,10.12,2.06,7.05.33,1.07,1.48,8.43C675.26,237.29,674.21,239.44,673.53,241Z"/><path class="cls-6" d="M665.92,250c-1.19,1.42-2.28,2.34-4.38,1.06a5.33,5.33,0,0,1-1.38-1.69c-5-7.77-3.64-13.62-2-22.3.17-.86.55-.64,1.09-.86,2.32-1,.81.34,5.07,3.12,3.93,2.56,4.52,9.21,4.57,9.84.43,6.32.07,1-.44,7.37C668.44,247.13,666.94,248.75,665.92,250Z"/><path class="cls-6" d="M656.19,254.57c.54-.15,2.76-3.35,2.72-4.14-.17-2.83-.06-3.28-.16-4.15-1-8.38-1-13.12,1.47-21.1a4,4,0,0,0-.88-2.67c-.45-.72-1-2.3-3.07-2.2-1.32.07-5.2,1.34-5.8,3.15-4.25,12.86-3,7.77-2.26,20.4.18,3.16.93,6.4,2.67,8,.79.71,4.46,3,5.31,2.75Z"/><path class="cls-5" d="M671.15,209.18c0,11.69-8.88,23.36-22.25,23.36-2.37,0-13.61-2-19.37-7.41-5-4.71-4.85-12.79-4.85-13.76,0-11.69,13-22.3,27.23-22.37C665.28,188.94,671.15,197.48,671.15,209.18Z"/><path class="cls-9" d="M670.3,209.11c0,11.07-8.42,22.11-21.09,22.11-2.25,0-12.9-1.92-18.36-7-4.79-4.46-4.6-12.1-4.6-13,0-11.06,12.32-21.1,25.81-21.16C664.74,190,670.3,198.05,670.3,209.11Z"/></svg>
