<svg xmlns="http://www.w3.org/2000/svg" width="380" height="450" viewBox="0 0 380 450"><defs><style>.cls-1{fill:#d2dbaf;}</style></defs><g id="Layer_3" data-name="Layer 3"><path d="M307.91,285.84c.77,32.27-10.88,61.13-34.56,77.64a85.54,85.54,0,0,1-18.41,9.12,122,122,0,0,1-33.89,4.79c-69,0-125-57.45-125-128.33s55.94-128.33,125-128.33A122.07,122.07,0,0,1,251,124.45l-7.68,25.7,68.35,4.55L380,159.24l-48.26-71.8-48.27-71.8-11,36.72c-13.21-3.2-29.52-4.24-51.45-4.24-108,0-195.65,90-195.65,200.94S113,450,221.05,450a190.47,190.47,0,0,0,81.32-18.16l.19.24c5.18-2.54,7.1-5.53,11.32-9.12,37.68-31.94,56.23-82.36,52-137.12Z"/><path class="cls-1" d="M282.51,270.2c.77,32.26-10.88,61.13-34.56,77.64A85.12,85.12,0,0,1,229.53,357a121.55,121.55,0,0,1-33.88,4.8c-69,0-124.95-57.46-124.95-128.33s55.94-128.33,125-128.33a122.13,122.13,0,0,1,29.92,3.71l-7.68,25.71,68.35,4.54,68.36,4.55L306.33,71.8,258.07,0l-11,36.72c-13.21-3.21-29.52-4.24-51.45-4.24C87.6,32.48,0,122.44,0,233.42S87.6,434.36,195.65,434.36A190.47,190.47,0,0,0,277,416.2l.19.24c5.18-2.55,7.09-5.54,11.32-9.12,37.67-31.95,56.22-82.36,52-137.12Z"/></g></svg>
