<svg xmlns="http://www.w3.org/2000/svg" width="1007.57" height="949.46" viewBox="0 0 1007.57 949.46"><defs><style>.cls-1,.cls-15,.cls-5{opacity:0.3;}.cls-2{opacity:0.62;}.cls-3{fill:#020202;}.cls-4{fill:#6cd362;}.cls-10,.cls-5{fill:#070707;}.cls-6{fill:#ffd9f8;}.cls-7{fill:#7c2268;}.cls-8{fill:#d6c230;}.cls-14,.cls-9{fill:#0a0a0a;}.cls-11{fill:#f4f4f4;}.cls-12{opacity:0.2;}.cls-13{fill:#e5ac73;}.cls-14{opacity:0.18;}.cls-16{fill:#fff;}</style></defs><g id="Layer_3" data-name="Layer 3"><path class="cls-1" d="M807.3,633.75C703.74,623,626,651.19,554.67,691.76c-10.49,4.67-18.67,8.85-23.69,12.13-23.81,12.66-40.08,23.82-43.93,30.11q-14.94,9.9-29.92,20c.08-10-5.44-20.56-17.1-28.41-20.67-11.42-49.29-27.9-65.72-20.25,5.56,24.43,35.5,44.12,49.83,49.38,6.09,1,11.63,5.6,17,9.91-12.37,8.17-24.87,16.27-37.6,24.15a59.68,59.68,0,0,0-8.38-2.09,79.32,79.32,0,0,0-19.25-1.48,71.86,71.86,0,0,0-15.55,1c-1,0-2.09.06-3.14.1,4.68-1.09,9.22-2.16,13.5-3.27,7.91-1.24,15.49-2.9,21.19-6,6-2.32,11.3-6.07,10.23-12.34h0a18.54,18.54,0,0,0-.66-7.66,38.46,38.46,0,0,0-1.35-5.53,32.29,32.29,0,0,0-8.05-4.39c-9.33-4.36-24.19-4.43-40.74-1.67A199.14,199.14,0,0,0,330,750.1c.59-.3,1.18-.61,1.75-.92,11.72-5,26.84-14.94,25.13-26.93h0a56.53,56.53,0,0,0-46.41-11.81,78.13,78.13,0,0,0-18.32,4.8,16,16,0,0,0,2.73-7.41,12.8,12.8,0,0,0-1-6.49c-10.55-7.36-23-8-35.27-4.64-8.47,1.62-16.19,4.76-20.26,9.13l-.37.23v0c1.44-5.81.48-10.31-2.1-13.64a29.15,29.15,0,0,0-3.29-4.12c-17.52-6.78-32.5-4.35-44.09,2.92-6.51,3.3-11.76,7.8-14.17,13.22-.27.35-.53.71-.79,1.08a33.07,33.07,0,0,0-11.16-15.33,29,29,0,0,0-5.95-3.94c-27.24-8.08-39.72,8.74-40.89,28.76l-1.27-.44a33.84,33.84,0,0,0-11.85-3.23c-.87,0-1.71,0-2.53.05-10-1-17.47,2-21.85,7.39-5.82,5.87-6.12,14.54-2.67,23.56A43.89,43.89,0,0,0,79.52,751l-.73-.4a35.37,35.37,0,0,0-6.71-3.29c-.41-.39-.8-.78-1.18-1.17-3.49-1.57-8.39-2.07-13.49-1.77a45.23,45.23,0,0,0-7.19.2c-.95.43-1.85.87-2.71,1.31a36.23,36.23,0,0,0-9.4,3.61c-1.79,2.71-2.62,4.6-2.46,5.85-8.11,11.46.79,24.91,16,34.5A55.48,55.48,0,0,0,38.11,789a49,49,0,0,0-8.39.08c-3.47-1.61-8.71,1.17-12.44,3-1,.41-2.05.86-3.09,1.36h0l-1.1,1.42a8.6,8.6,0,0,0-4,5.25l-1.49,1.94a32,32,0,0,0,1.87,5.46c.06.2.13.4.19.61.69,5.61,4.5,10.31,10.25,14.05a23.44,23.44,0,0,0,10.85,5.54l.09,0h.05l3.93,1A93.86,93.86,0,0,0,44.18,831c2.75.63,5.21,1.16,7.4,1.59a78.4,78.4,0,0,0-7.68,4.18c-5.22,1.91-11.21,6.78-16.18,12.57C20,856,15.73,863,17.2,869.44a12.55,12.55,0,0,0,.23,1.93,9.1,9.1,0,0,0,.65,2.89c4.45,6.8,9.62,9.64,15.25,10,1.36.41,2.81.78,4.37,1.13a4.33,4.33,0,0,0,.91.23,6.36,6.36,0,0,0,.77.05,8.63,8.63,0,0,0,1.12-.07l.11,0,.62-.1a23.51,23.51,0,0,0,8-3.55l2.32-1.7a25.23,25.23,0,0,0,2.86-1.45c5.3-1,10.56-3.8,15.9-7.1q2.49-1.17,4.3-2.17l-.66.75c-6.66,5-10.72,13.21-11.42,21.58-1.78,7.21-.52,13.9,4.77,19a23.65,23.65,0,0,0,12.3,7.72,37.27,37.27,0,0,0,12,1.63h.11c6-1.46,9.39-4.84,11.94-9.13l.14-.12a20.17,20.17,0,0,0,5.86-3.5,38.44,38.44,0,0,0,.73,17.56,42.34,42.34,0,0,0,3.35,10.37,23.82,23.82,0,0,0,4.13,3.81,28.63,28.63,0,0,0,11.43,7.13,44.72,44.72,0,0,0,6,2.13,48.17,48.17,0,0,0,8.62.87c3.51.28,6.5-.13,8.41-1.47a12.68,12.68,0,0,0,2.84-1.68l0,0a10.79,10.79,0,0,0,1.46-1.4c1.9-2.12,3.13-4.78,2.95-6h0v0c-.09-.48-.19-.95-.27-1.42a12.55,12.55,0,0,0,1.92-3.43c1.79-2,3-4.43,2.82-5.52h0v0c-.14-.65-.26-1.29-.37-1.92.61-5.31-.84-11.43,0-18a24.21,24.21,0,0,1,1-2.59c.76-1,1.44-1.93,2-2.76l.4-.51a14.16,14.16,0,0,0-.53,2.93c-.6,2.56.06,5.93,1.79,9.66,2,11.77,12.91,21.14,28.23,26.85a62.75,62.75,0,0,0,26.71,6.81,96.92,96.92,0,0,0,38.92-4c7.17-2.54,10.61-5,11.34-7.43,1.1-2,.52-4.21-2.52-6.45a2.85,2.85,0,0,0,.13-.48c0-.07.05-.15.08-.23a93.76,93.76,0,0,0,18.9,1c9.52.94,18,.77,24.25-1,11.37-1.64,21.07-5.53,27.54-12.44.2-.32.38-.63.56-.94,1.57-1.86,2.3-3.73,1.65-5.4a6.55,6.55,0,0,0-2.56-5.17l-.52-.53H341a14.89,14.89,0,0,0-2.08-1.2c6.93-2.66,12.84-6.54,17.18-11.91,3.61-6.56,1.64-10.1-2.26-12,10.31-1.84,19.51-4.76,26.59-8.74.56-.29,1.13-.64,1.71-1,6.79-1.12,14.93-11.72,4.37-16.55l-.18-.13a86.73,86.73,0,0,0,9.84-3.39c1.8-.52,3.82-1.08,6.12-1.7.8-.59,1.56-1.16,2.3-1.73a34.69,34.69,0,0,0,10.56-9.58h0c6.13-5.22,5.87-9.24,2.27-12.31l.08,0c13.22-9.24,30.2-18.69,49.79-28,14.14,10.57,44.69,21.57,47.32,31.27,15.43,18.05,66.75,60.5,139,63.15,30.76-2.88-33.34-72.5-61.4-88.72-23.83-15.11-52.09-21.39-80.9-18a105.46,105.46,0,0,1-12-1.84c104.45-42.86,255.06-77.93,331.29-66.61C881.53,715.09,858.14,651.47,807.3,633.75Z"/><path class="cls-2" d="M863.21,360.2c2-1.31,3.91-2.87,5.9-4.24a29.71,29.71,0,0,1,3.41-2.1,51,51,0,0,1,5.43-2.34,9.5,9.5,0,0,1,1.64-.45,23.58,23.58,0,0,1,5.62-.64,27.12,27.12,0,0,1,4.76.65l.66.2A20.89,20.89,0,0,1,901.76,360c1.18-.35,2.35-.73,3.51-1.15,1.6-.75,3.19-1.55,4.78-2.35-7.85-14.7-41.32-22.6-47.73-5.57-.35.94-1.78,5.54-3.84,11.84A45.81,45.81,0,0,0,863.21,360.2Z"/><path class="cls-3" d="M858.44,421.43a9.74,9.74,0,0,1,15.34-4.83c10.91,8.59,28,20.59,42.35,24.1,21.22,5.21,74,27.68,90.81,76.11,2.23,6.44-1.93,8.46-4.75,8.54-20.37.55-68.64-6.27-96.73-24.29-17.46-11.2-31.58-26.12-32.7-45.65a9.73,9.73,0,0,0-1.21-4.14l-12.32-22.22a9.75,9.75,0,0,1-.79-7.62Z"/><path d="M848,421.85c2.31-2.35,1.22-6.42-2.1-7.85-6.75-2.9-16.67-7.78-22.15-13.33-8.09-8.22-33.79-22.82-59.52-19.43-3.43.45-1.25,5.65-.51,6.91,5.35,9.12,18.17,23.49,33.75,31.89,9.68,5.21,22.94,6.92,31.77,3.06a4.83,4.83,0,0,1,2.14-.39l13.08.49a4.66,4.66,0,0,0,3.54-1.35Z"/><path class="cls-4" d="M845.32,420.59c2.16-2.2,1.14-6-2-7.36-6.32-2.72-15.62-7.29-20.75-12.49-7.58-7.69-31.66-21.37-55.77-18.2-3.21.42-1.17,5.29-.47,6.47,5,8.55,17,22,31.62,29.88,9.06,4.88,21.49,6.48,29.76,2.87a4.67,4.67,0,0,1,2-.37l12.24.46a4.37,4.37,0,0,0,3.33-1.26Z"/><path class="cls-5" d="M840.7,413.07c-.9.37,6.28,2.55,5.3,2.43-.58,0-4.8-3.47-5.38-3.48-2.31,0-9.1,1.17-11.37.79a63,63,0,0,1-8.59-2,50.84,50.84,0,0,1-6.59-2.58,63.23,63.23,0,0,1-7.69-4.24,45.92,45.92,0,0,1-5.53-4.29,52.37,52.37,0,0,1-6.1-6.27,48.84,48.84,0,0,1-4.8-7.35,34.25,34.25,0,0,1-1.61-3.49c-5-.65-19-.84-24.2-.16-3.2.42,2,6.26,2.71,7.41,12.71,19.72,22.34,24.28,36.93,32.15,9.07,4.88,16.44-2.41,30.12-.24.66.1,1.3-.4,2-.37C835.9,421.38,839.08,423.69,840.7,413.07Z"/><path class="cls-5" d="M845.32,420.59h0c2.16-2.2,1.14-6-2-7.36-.51-.21-1-.44-1.57-.68a7.6,7.6,0,0,1-3.62.64c-.46,0-2.12,0-2.6-.07a17.2,17.2,0,0,1-3.84.34c-.58,0-1.16,0-1.75,0a46.68,46.68,0,0,1-6.88-.63,63.71,63.71,0,0,1-8.59-2,48.79,48.79,0,0,1-6.58-2.58,61.32,61.32,0,0,1-7.7-4.24,44.93,44.93,0,0,1-5.53-4.29,53.06,53.06,0,0,1-6.1-6.26,49.73,49.73,0,0,1-4.8-7.36,33.28,33.28,0,0,1-1.61-3.49,59.72,59.72,0,0,0-15.35-.06c-3.21.42-1.17,5.29-.47,6.47,5,8.55,17,22,31.62,29.88,9.06,4.88,21.49,6.48,29.76,2.87a4.67,4.67,0,0,1,2-.37l12.24.46A4.37,4.37,0,0,0,845.32,420.59Z"/><path d="M838.66,415.74c-.78-1.72-54.59-26.08-64.83-26.27"/><path class="cls-3" d="M893.88,375.34a87.77,87.77,0,0,1-8.59,21.17C870,423.33,847,526.73,842.64,571c-2.18,22,22.93,121.29,22.05,117.53,8.23,35.13-60.52,37.88-88.3,8.47-36.74-86.3-3.84-190.15,45-263.95,12.11-18.29,51.87-67.29,49.84-93.82-.56-7.37,32-5.89,26.38,20.5C896.85,363.52,898.2,359,893.88,375.34Z"/><path class="cls-4" d="M895.37,352c-1.49,38.05-26.78,65.11-31.35,88.48C854.77,487.83,839.9,542,836.76,586.27c-2.14,19.81,24.71,110.73,22.79,104.64,9.24,29.36-54.64,27.77-78.35,2.67-31.34-73.64-13.13-168.47,28.58-231.45,10.34-15.61,15.68-28.29,30.9-53.66,8.27-13.8,36.67-50.32,37.8-53.32C885.82,335.66,896.1,333.39,895.37,352Z"/><path class="cls-1" d="M860.46,690.78c.34,4.41-3.41-15.86-9.77-27.23a90.62,90.62,0,0,1-10.16-13.89c-10.27-18.73-18.51-38.6-26.84-58.28-8.86-22.24-9.88-46.45-11.52-69.94l-.26-26.88s1.74-16.5,3.05-24.84c-38.25,62.84-53.87,153.12-23.76,223.86C804.91,718.68,869.7,720.14,860.46,690.78Z"/><path class="cls-1" d="M860.46,690.78c.34,4.41.24-17.46-6.12-28.83-3.82-4.25-1.82-9.91-4.77-14.82-10.27-18.73-14.63-36.28-23-56-8.87-22.25-5.59-47.09-7.23-70.58L821,479s3.45-40.29,4.76-48.63c-38.25,62.84-84.21,151.14-50.44,259.26C785.62,722.64,869.7,720.14,860.46,690.78Z"/><path class="cls-4" d="M862.74,423.71a8.64,8.64,0,0,1,13.65-4.31c9.71,7.7,24.93,18.44,37.7,21.6C933,445.67,980,465.81,995,509.15c2,5.77-1.72,7.57-4.22,7.64-18.13.48-61.08-5.66-86.1-21.8-15.54-10-28.12-23.39-29.13-40.86a8.64,8.64,0,0,0-1.07-3.71l-11-19.89a8.77,8.77,0,0,1-.71-6.82Z"/><path d="M874.22,433.8c.95-.25,28,16.32,54.49,33.33,24.6,15.8,44,32.54,46.37,36"/><path d="M880.33,99.23c-12-11.35-7.31-8-15.06-10.08-.91-.25-5.87-.55-8.47,1.48-32.06,25.11-31.37,41.12-30.88,80.6,0,3.19-1.76,3.92,3.16,2.76,31-7.33,7-4.22,33.36-4.38,4.17,0,4-1.09,4-3.31-.43-27.94-1.54-35.1,12.68-58.18C880.25,106.25,882.21,101,880.33,99.23Z"/><path d="M926,125.79c-.45-2.26-.21-5.83-6.55-10.59-.74-.56-17.23-5.44-20.1-4.21-32.23,13.72-31.28,21.49-44.74,52.62-1.08,2.52-3,2.37,1.92,3.45,30.94,6.79,25.21,6.09,26.3,6.57,3.82,1.67,5,1.32,5.73-.43,9.44-22.07,11.83-25.73,32.95-38.07C923.25,134.13,926.62,128.74,926,125.79Z"/><path d="M965.48,159.38c.36-2.27,1.84-5.54-2.45-12.18-.5-.78-14.26-11-17.39-10.86-35,1.81-36.85,9.42-60.34,34-1.9,2-3.63,1.19.6,3.88,26.65,17,21.52,14.38,22.38,15.21,3,2.87,4.21,2.95,5.52,1.56,16.56-17.46,20.09-20.08,44.2-24.4C960,166.25,965,162.35,965.48,159.38Z"/><path d="M918.07,207.13a8.28,8.28,0,0,0,6,5.22c20.3,4.28,27.07,12.49,43,28.88,1.38,1.42,7.11,6,9.87,4.75,2.11-1,5.28-3.65,7.17-11.32,1.19-4.85-.11-15.73-2.17-20.58-13.76-32.31-11.06-25.34-40.81-34.81-9.49-3-28.36,8.71-28.28,13.69Z"/><path d="M911.78,222.26c0,2.84,1.71,6.22,4.49,8.92,20.26,19.68,24.37,31.53,35.11,57.05.93,2.21,5.34,10.38,8.81,11.63,2.65,1,7.14,1.43,12.19-3,3.19-2.8,6-12.3,5.72-17.72-2.2-36.16-2-28.58-30.47-59.92-9.08-10-34.07-16.11-35.94-12.19Z"/><path d="M903.73,245.36a10.72,10.72,0,0,0,3,8.19c16.08,18.06,18.31,28.93,24.85,52.35.56,2,3.55,9.53,6.58,10.68,2.32.87,6.39,1.3,11.62-2.77,3.31-2.57,7.19-11.3,7.6-16.28,2.72-33.2,1.89-26.24-20.2-55-7-9.17-29.26-14.76-31.5-11.16Z"/><path d="M783,110.21c-.82,2.45-4.14,12.36-2.44,14.62,12.37,16.53,21.33,24.28,23.47,46.06.18,1.88,1.73,8.83,4.47,9.84,2.09.76,6,1.07,11.78-2.86,3.67-2.48,9-10.74,10.3-15.41,8.6-31.14,6.55-24.6-9.73-51-5.2-8.41-22.9-9.29-30.45-8.28Z"/><path d="M740.7,149.08c.59,2.49,3,12.55,5.61,13.62,19.21,7.77,30.91,9.83,44.18,27.19,1.15,1.51,6.12,6.62,9,6.09,2.18-.41,5.64-2.1,8.52-8.36,1.82-4,2-13.64.67-18.25-9-30.72-7.35-24.15-35.08-38.3-8.85-4.51-24.38,3.67-30.28,8.33Z"/><path d="M717.27,194.42c1.65,2.28,8.3,11.51,11.2,11.37,21.13-1,32.8-4.4,52.71,7.23,1.72,1,4.38-.49,6.77-2.37,1.83-1.44,5.85-2.9,5.73-10.68-.08-4.92-.36-13.73-4.88-16.55-32-20-20.37-14.43-52.17-16-10.13-.49-17.89,8.25-21.25,15.8Z"/><path d="M702.48,238.55c2.41,1.34,12.13,6.73,14.94,5.45,20.48-9.37,30.84-17,54.45-14.82,2,.19,4.15-2.19,5.87-4.79,1.31-2,4.78-4.88,2-11.63-1.76-4.27-5.06-11.85-10.48-12.51-38.47-4.67-25-4.44-56.91,7-10.17,3.64-14.82,14.39-15.55,22.34Z"/><path d="M719.4,289.8c1.77,1.15,14.46,1.48,16,0,5.37-5.31,6.62-5.78,8.14-7.57,14.53-17.11,24.54-25.11,47.62-32.49,2-.64,2.8-3.74,3.13-6.91.25-2.42,2.08-6.55-3.81-11.86-3.73-3.35-10.51-9.25-15.89-7.7-38.16,11-30.59,3.46-54.76,27.07-6.06,5.92-10.72,13.45-9.2,20.74.69,3.29,6,16.88,8.8,18.72Z"/><path d="M744.53,327.69c1.75.49,12.67-3.22,13.66-5.06,3.53-6.59,4.51-7.42,5.45-9.55,9-20.35,16-30.88,34.22-45,1.58-1.22,1.64-4.33,1.29-7.35-.27-2.31.47-6.69-5.64-9.71-3.85-1.9-10.83-5.19-15.12-2.06C748,271.15,752.92,261.84,737,291.23c-4,7.37-6.48,15.78-3.72,22,1.25,2.81,8.48,13.65,11.27,14.45Z"/><path d="M777.91,364.42c2.21.15,14.12-6.62,14.79-8.93,2.39-8.28,3.32-9.45,3.85-12.08,5.09-25.14,10.45-38.69,28.22-58.94,1.54-1.75.77-5.28-.48-8.61-.95-2.55-1.27-7.68-9.33-9.66-5.09-1.25-14.25-3.33-18.48,1.22C766.5,299.65,769.84,288,759,325c-2.72,9.27-3.36,19.37,1.61,25.76,2.25,2.89,13.77,13.46,17.3,13.7Z"/><path d="M829.53,382.74c2.17-.35,10.16-4.92,10.31-7.6.51-9.59,1.15-11.08,1.09-14.07-.53-28.61,1.71-44.64,14.55-70.86,1.11-2.26-.41-5.94-2.35-9.29-1.48-2.56-2.91-8.08-11.16-8.37-5.22-.19-14.57-.33-17.68,5.61-22.08,42.13-21.39,28.6-23.84,71.48-.62,10.75,1,21.92,7.19,27.74,2.81,2.64,4.7,8.42,8.18,7.86Z"/><path d="M932.31,339c-2.77,6.49-5.66,11-13.95,7.53-2-.81-3.85-2.95-6.24-5.61-24.08-26.8-24.6-50.92-26.7-86.44-.2-3.53,1.31-2.92,2.94-4.23,7-5.62,3.07.73,20,8.43,15.68,7.1,23.68,32.87,24.39,35.31,7.16,24.59,1.13,3.74,5.14,29.41C938.33,325.91,934.68,333.43,932.31,339Z"/><path d="M905.89,370.11c-4.12,4.95-7.91,8.16-15.2,3.71-1.73-1.05-3.09-3.21-4.82-5.9-17.44-27.12-12.61-47.54-6.79-77.85.58-3,1.91-2.22,3.79-3,8.06-3.41,2.82,1.2,17.59,10.88,13.65,8.95,15.71,32.17,15.86,34.36,1.52,22.06.28,3.36-1.52,25.74C914.62,360.26,909.41,365.9,905.89,370.11Z"/><path d="M872.11,386.24c1.86-.53,9.58-11.72,9.42-14.47-.58-9.85-.18-11.43-.55-14.48-3.54-29.23-3.3-45.8,5.1-73.65.72-2.4-1-6-3.05-9.31-1.57-2.5-3.41-8-10.65-7.68-4.57.23-18.07,4.68-20.15,11-14.76,44.87-10.29,27.13-7.83,71.19.62,11.05,3.2,22.34,9.26,27.8,2.73,2.47,15.47,10.45,18.45,9.6Z"/><path class="cls-6" d="M877.59,105c-11.47-10.91-7-7.69-14.43-9.69-.87-.23-5.63-.53-8.11,1.42-30.71,24.12-30,39.5-29.58,77.42,0,3.07-1.69,3.77,3,2.65,29.74-7,6.68-4,32-4.21,4,0,3.85-1,3.82-3.17-.42-26.84-1.49-33.72,12.14-55.89C877.51,111.76,879.38,106.72,877.59,105Z"/><path class="cls-6" d="M921.35,130.52c-.43-2.16-.19-5.59-6.27-10.17-.7-.53-16.5-5.22-19.25-4C865,129.49,865.87,137,853,166.85c-1,2.42-2.86,2.28,1.83,3.31,29.64,6.53,24.15,5.86,25.2,6.32,3.66,1.6,4.77,1.26,5.48-.42,9-21.19,11.34-24.72,31.56-36.57C918.69,138.53,921.92,133.35,921.35,130.52Z"/><path class="cls-6" d="M959.14,162.79c.35-2.18,1.77-5.32-2.34-11.7-.48-.75-13.66-10.59-16.66-10.43-33.55,1.73-35.3,9.05-57.79,32.66-1.82,1.91-3.48,1.15.57,3.74,25.53,16.33,20.61,13.81,21.44,14.6,2.87,2.76,4,2.83,5.28,1.5,15.87-16.77,19.24-19.29,42.34-23.44C953.85,169.39,958.68,165.64,959.14,162.79Z"/><path class="cls-6" d="M913.74,208.65a7.89,7.89,0,0,0,5.79,5c19.44,4.11,25.93,12,41.14,27.75,1.32,1.36,6.81,5.75,9.45,4.55,2-.92,5.06-3.5,6.87-10.87,1.14-4.65-.11-15.11-2.08-19.77-13.18-31-10.59-24.34-39.09-33.43-9.09-2.89-27.16,8.36-27.09,13.15Z"/><path class="cls-6" d="M907.71,223.18c0,2.73,1.64,6,4.3,8.57,19.41,18.91,23.34,30.28,33.63,54.8.89,2.12,5.11,10,8.44,11.17,2.54.92,6.83,1.37,11.67-2.88,3.06-2.69,5.8-11.81,5.48-17-2.11-34.73-1.93-27.45-29.19-57.55-8.69-9.59-32.63-15.47-34.42-11.7Z"/><path class="cls-6" d="M900,245.37a10.3,10.3,0,0,0,2.84,7.87c15.4,17.34,17.53,27.78,23.79,50.28.54,1.94,3.4,9.15,6.31,10.25,2.22.84,6.12,1.25,11.13-2.66,3.16-2.47,6.88-10.85,7.27-15.63,2.61-31.89,1.82-25.2-19.34-52.81-6.75-8.81-28-14.18-30.17-10.71Z"/><path class="cls-6" d="M784.35,115.56c-.78,2.36-4,11.87-2.34,14.05,11.85,15.87,20.43,23.32,22.48,44.23.18,1.81,1.66,8.49,4.28,9.45,2,.74,5.72,1,11.28-2.74,3.52-2.39,8.63-10.32,9.87-14.81,8.24-29.9,6.28-23.62-9.32-49-5-8.09-21.93-8.93-29.16-8Z"/><path class="cls-6" d="M743.84,152.9c.57,2.39,2.85,12,5.38,13.08,18.4,7.46,29.61,9.43,42.31,26.12,1.1,1.44,5.87,6.35,8.6,5.84,2.1-.39,5.41-2,8.17-8,1.74-3.8,1.94-13.1.64-17.53-8.66-29.5-7-23.19-33.61-36.78-8.47-4.34-23.34,3.52-29,8Z"/><path class="cls-6" d="M721.41,196.45c1.58,2.19,8,11.05,10.72,10.91,20.23-1,31.42-4.22,50.49,6.95,1.65,1,4.19-.47,6.48-2.28,1.76-1.39,5.61-2.78,5.49-10.25-.08-4.73-.35-13.19-4.68-15.91-30.69-19.25-19.51-13.85-50-15.33-9.71-.48-17.14,7.92-20.36,15.18Z"/><path class="cls-6" d="M707.24,238.83c2.31,1.28,11.61,6.46,14.31,5.23,19.61-9,29.54-16.33,52.15-14.23,2,.18,4-2.1,5.62-4.6,1.25-1.92,4.58-4.69,1.91-11.17-1.69-4.1-4.85-11.39-10-12-36.85-4.49-24-4.26-54.51,6.69-9.74,3.49-14.2,13.82-14.9,21.45Z"/><path class="cls-6" d="M723.44,288.05c1.7,1.1,13.86,1.42,15.3,0,5.15-5.1,6.34-5.55,7.8-7.27,13.92-16.43,23.5-24.12,45.61-31.2,1.91-.62,2.68-3.6,3-6.64.24-2.32,2-6.29-3.66-11.39-3.57-3.22-10.06-8.88-15.21-7.4-36.55,10.53-29.3,3.32-52.45,26-5.81,5.69-10.27,12.92-8.82,19.92.66,3.16,5.71,16.21,8.43,18Z"/><path class="cls-6" d="M747.51,324.44c1.68.48,12.14-3.09,13.08-4.86,3.39-6.32,4.32-7.12,5.23-9.16,8.62-19.55,15.28-29.67,32.77-43.22,1.52-1.17,1.58-4.16,1.24-7.06-.26-2.21.45-6.42-5.4-9.32-3.7-1.83-10.38-5-14.49-2-29.15,21.3-24.39,12.36-39.66,40.59-3.83,7.08-6.2,15.16-3.56,21.13,1.19,2.71,8.12,13.12,10.79,13.88Z"/><path class="cls-6" d="M779.49,359.72c2.11.14,13.52-6.35,14.16-8.58,2.29-7.95,3.18-9.07,3.69-11.6,4.88-24.14,10-37.15,27-56.6,1.47-1.69.73-5.08-.46-8.28-.91-2.45-1.22-7.37-8.93-9.28-4.88-1.2-13.65-3.19-17.7,1.18-28.72,31-25.52,19.73-35.91,55.26-2.6,8.91-3.21,18.61,1.55,24.75,2.15,2.77,13.19,12.92,16.57,13.15Z"/><path class="cls-6" d="M828.92,377.32c2.09-.34,9.74-4.72,9.88-7.3.49-9.21,1.1-10.64,1.05-13.52-.52-27.48,1.63-42.87,13.93-68.05,1.06-2.18-.39-5.71-2.25-8.92-1.41-2.46-2.79-7.77-10.69-8-5-.18-14-.31-16.93,5.4-21.15,40.46-20.49,27.46-22.84,68.65-.59,10.33.93,21.05,6.89,26.64,2.69,2.53,4.51,8.09,7.84,7.55Z"/><path class="cls-6" d="M927.37,335.27c-2.65,6.23-5.42,10.52-13.36,7.23-1.88-.78-3.69-2.83-6-5.39-23.06-25.74-23.56-48.9-25.57-83-.19-3.39,1.25-2.81,2.82-4.06,6.73-5.4,2.94.7,19.2,8.09,15,6.83,22.68,31.58,23.36,33.92,6.86,23.62,1.09,3.59,4.92,28.24C933.14,322.73,929.64,330,927.37,335.27Z"/><path class="cls-6" d="M902.07,365.19c-4,4.75-7.58,7.84-14.57,3.56-1.65-1-3-3.08-4.61-5.67-16.7-26.05-12.08-45.65-6.5-74.77.55-2.89,1.83-2.13,3.63-2.89,7.72-3.27,2.7,1.15,16.85,10.46,13.07,8.59,15,30.89,15.19,33,1.45,21.19.26,3.23-1.46,24.72C910.43,355.73,905.44,361.15,902.07,365.19Z"/><path class="cls-6" d="M869.71,380.68c1.78-.51,9.18-11.25,9-13.9-.55-9.46-.17-11-.52-13.91-3.39-28.07-3.17-44,4.88-70.73.69-2.31-1-5.81-2.92-8.95-1.5-2.4-3.27-7.71-10.2-7.37-4.38.22-17.31,4.49-19.3,10.57-14.13,43.09-9.85,26.05-7.5,68.37.59,10.61,3.07,21.46,8.87,26.7,2.62,2.37,14.82,10,17.67,9.22Z"/><path class="cls-7" d="M877.38,110.1c-10.94-10.55-6.69-7.43-13.77-9.37-.83-.22-5.37-.51-7.74,1.38-29.3,23.33-28.68,38.2-28.23,74.88,0,3-1.61,3.64,2.89,2.56,28.38-6.81,6.37-3.92,30.5-4.07,3.81,0,3.67-1,3.64-3.07-.4-26-1.42-32.61,11.58-54.06C877.31,116.62,879.1,111.75,877.38,110.1Z"/><path class="cls-7" d="M919.15,134.77c-.41-2.1-.18-5.41-6-9.84-.68-.51-15.75-5.05-18.38-3.91-29.46,12.75-28.59,20-40.89,48.89-1,2.34-2.73,2.2,1.75,3.2,28.28,6.31,23,5.66,24.05,6.11,3.48,1.55,4.54,1.22,5.23-.4,8.63-20.51,10.81-23.91,30.12-35.37C916.61,142.52,919.69,137.51,919.15,134.77Z"/><path class="cls-7" d="M955.21,166c.33-2.11,1.69-5.15-2.23-11.32-.46-.72-13-10.23-15.9-10.09-32,1.68-33.69,8.76-55.15,31.6-1.74,1.85-3.32,1.1.54,3.61,24.36,15.79,19.67,13.36,20.46,14.12,2.74,2.67,3.84,2.74,5,1.45,15.14-16.22,18.37-18.65,40.41-22.67C950.16,172.36,954.78,168.74,955.21,166Z"/><path class="cls-7" d="M911.88,210.34a7.59,7.59,0,0,0,5.53,4.84c18.55,4,24.75,11.61,39.26,26.84,1.26,1.32,6.5,5.57,9,4.41,1.93-.89,4.83-3.39,6.56-10.52,1.09-4.5-.1-14.61-2-19.12-12.57-30-10.11-23.54-37.31-32.33-8.67-2.81-25.92,8.08-25.85,12.71Z"/><path class="cls-7" d="M906.13,224.39c0,2.65,1.56,5.78,4.1,8.29,18.53,18.29,22.28,29.29,32.1,53,.85,2.05,4.88,9.64,8,10.81,2.42.89,6.53,1.32,11.14-2.79,2.92-2.6,5.53-11.42,5.23-16.46-2-33.59-1.84-26.55-27.86-55.66-8.29-9.28-31.14-15-32.85-11.32Z"/><path class="cls-7" d="M898.77,245.86a10,10,0,0,0,2.71,7.6c14.7,16.78,16.73,26.87,22.71,48.64.52,1.88,3.24,8.85,6,9.91,2.11.82,5.83,1.21,10.62-2.57,3-2.39,6.57-10.49,6.94-15.12,2.49-30.84,1.74-24.38-18.46-51.08-6.44-8.51-26.75-13.71-28.79-10.36Z"/><path class="cls-7" d="M788.4,120.3c-.75,2.28-3.78,11.48-2.23,13.58,11.3,15.36,19.49,22.56,21.45,42.79.17,1.75,1.59,8.21,4.09,9.14,1.91.71,5.45,1,10.76-2.65,3.36-2.31,8.24-10,9.42-14.32,7.87-28.93,6-22.86-8.89-47.38-4.75-7.81-20.93-8.63-27.84-7.69Z"/><path class="cls-7" d="M749.74,156.41c.54,2.31,2.72,11.66,5.13,12.65,17.56,7.22,28.26,9.13,40.38,25.27,1,1.39,5.6,6.14,8.21,5.65,2-.38,5.16-1.95,7.79-7.77,1.67-3.67,1.85-12.67.61-17-8.26-28.54-6.71-22.43-32.07-35.58-8.08-4.2-22.28,3.4-27.67,7.73Z"/><path class="cls-7" d="M728.33,198.53c1.51,2.12,7.58,10.69,10.23,10.56,19.31-1,30-4.08,48.18,6.72,1.58.94,4-.46,6.19-2.21,1.68-1.33,5.35-2.68,5.24-9.91-.07-4.57-.33-12.76-4.46-15.38-29.3-18.63-18.62-13.4-47.69-14.84-9.26-.45-16.35,7.66-19.43,14.68Z"/><path class="cls-7" d="M714.81,239.53c2.2,1.24,11.08,6.25,13.65,5.06,18.72-8.7,28.19-15.79,49.78-13.77,1.86.18,3.79-2,5.36-4.45,1.2-1.85,4.37-4.53,1.82-10.8-1.61-4-4.62-11-9.58-11.63-35.17-4.34-22.88-4.12-52,6.47-9.29,3.38-13.55,13.37-14.21,20.76Z"/><path class="cls-7" d="M730.27,287.13c1.62,1.07,13.22,1.38,14.6,0,4.91-4.92,6-5.36,7.44-7,13.29-15.89,22.43-23.32,43.53-30.18,1.83-.59,2.56-3.47,2.86-6.41.23-2.25,1.9-6.09-3.48-11-3.41-3.12-9.61-8.6-14.53-7.16-34.88,10.18-28,3.21-50.05,25.15-5.54,5.5-9.8,12.5-8.42,19.26.63,3.06,5.45,15.69,8,17.39Z"/><path class="cls-7" d="M753.24,322.33c1.6.47,11.58-3,12.49-4.69,3.23-6.12,4.12-6.89,5-8.87,8.23-18.91,14.58-28.69,31.28-41.8,1.45-1.13,1.51-4,1.18-6.83-.25-2.14.43-6.21-5.15-9-3.53-1.78-9.9-4.83-13.83-1.92-27.82,20.6-23.28,12-37.85,39.26-3.65,6.85-5.92,14.66-3.4,20.44,1.14,2.62,7.75,12.69,10.3,13.42Z"/><path class="cls-7" d="M783.76,356.46c2,.14,12.91-6.15,13.52-8.3,2.18-7.69,3-8.78,3.51-11.22,4.66-23.35,9.55-35.94,25.8-54.75,1.41-1.63.7-4.91-.44-8-.87-2.36-1.16-7.13-8.52-9-4.66-1.16-13-3.09-16.9,1.14-27.4,29.94-24.35,19.08-34.26,53.45-2.49,8.62-3.07,18,1.47,23.94,2.06,2.68,12.59,12.49,15.82,12.72Z"/><path class="cls-7" d="M830.94,373.48c2-.33,9.29-4.57,9.42-7.06.47-8.91,1.06-10.29,1-13.07-.5-26.58,1.55-41.47,13.29-65.83,1-2.1-.37-5.52-2.14-8.63-1.36-2.38-2.67-7.51-10.21-7.78-4.77-.17-13.31-.3-16.16,5.22-20.18,39.14-19.55,26.57-21.79,66.4-.56,10,.88,20.36,6.57,25.77,2.57,2.45,4.3,7.82,7.48,7.3Z"/><path class="cls-7" d="M924.9,332.81c-2.54,6-5.18,10.17-12.76,7-1.79-.75-3.52-2.74-5.7-5.21-22-24.9-22.49-47.3-24.4-80.3-.19-3.28,1.19-2.72,2.68-3.93,6.42-5.22,2.81.68,18.33,7.83,14.33,6.6,21.64,30.54,22.29,32.81,6.55,22.84,1,3.46,4.7,27.31C930.4,320.68,927.06,327.67,924.9,332.81Z"/><path class="cls-7" d="M900.75,361.75c-3.78,4.59-7.24,7.58-13.9,3.45-1.58-1-2.82-3-4.4-5.49-16-25.2-11.54-44.16-6.21-72.32.53-2.8,1.74-2.06,3.46-2.8,7.37-3.16,2.58,1.11,16.08,10.12,12.47,8.31,14.36,29.88,14.5,31.91,1.38,20.5.25,3.12-1.39,23.91C908.73,352.6,904,357.84,900.75,361.75Z"/><path class="cls-7" d="M869.86,376.73c1.7-.49,8.77-10.88,8.62-13.44-.54-9.15-.17-10.61-.51-13.46-3.23-27.14-3-42.54,4.66-68.41.67-2.24-.91-5.62-2.78-8.66-1.44-2.32-3.12-7.46-9.74-7.12-4.18.21-16.52,4.34-18.42,10.22-13.49,41.67-9.4,25.2-7.15,66.13.56,10.26,2.92,20.75,8.46,25.83,2.5,2.29,14.14,9.7,16.86,8.91Z"/><path d="M917.33,229.53c0,37.92-28.18,75.77-70.63,75.77-7.51,0-43.18-6.58-61.47-24-16-15.29-15.39-41.48-15.39-44.64,0-37.92,41.23-72.3,86.42-72.53C898.71,163.9,917.33,191.61,917.33,229.53Z"/><path class="cls-8" d="M914.64,229.33c0,35.87-26.72,71.67-67,71.67-7.12,0-40.93-6.22-58.27-22.72-15.2-14.47-14.59-39.24-14.59-42.23,0-35.87,39.09-68.4,81.93-68.61C897,167.24,914.64,193.46,914.64,229.33Z"/><path class="cls-9" d="M803.49,283.77c14.14,5.55,21.07-8.64,27.39-2.3a1.21,1.21,0,0,0,2-.24h0c.42-.66,1-1.09-.14-2.14-8.75-7.91-14.48,7.3-28,2.09-1.79-.69-1.76,0-2.09.74h0C802.4,282.63,801.61,283,803.49,283.77Z"/><path class="cls-9" d="M830.4,221.56c7.76-3.43,21.91,4.75,23.11,13.25.16,1.13.65,1.57,1.66,1.44,0,.15,0,.13,0,0,1-.14,1.63-.31,1.44-1.58-1.38-9.53-18.55-20.43-27.37-15.92-1.17.6-1.11,1-.77,1.94-.14.09-.1.08,0,0C828.81,221.61,829.37,222,830.4,221.56Z"/><path class="cls-9" d="M798.61,222.76c-6.5-4.87-11.14,4.37-15.51,8.32-.58.52-1,.78-1.61.24h0c-.62-.53-1-1.1-.36-1.72,4.43-4.7,12-14.52,18.87-8.86.92.75.7,1,.27,1.71.12.12.11.12,0,0C799.84,223.15,799.47,223.41,798.61,222.76Z"/><path class="cls-10" d="M850,233.49c5.88,9.54,5.88,16-3.86,25.13-1.24,1.16-10.06,6.46-11.69,6-8.36-2.35-33.24-11.81-11.52-33.73C836.46,217.21,844,223.88,850,233.49Z"/><path class="cls-10" d="M800.33,230c3.95,9.41,4.51,24.32-9,28.12,0,0-22.82-3.38-1.32-32.8C792.69,221.64,798.57,225.78,800.33,230Z"/><path class="cls-11" d="M848.21,234.68c6,7.18,8,17.18-11.41,27a6,6,0,0,1-4.3.42c-7.37-2.07-26-7.24-9.33-28.76C833.74,219.7,841.81,227.08,848.21,234.68Z"/><path class="cls-11" d="M798.4,228.26c3.48,8.29,5.75,25.73-7.09,28.32,0,0-20.71-3.44-1.78-29.36A5.12,5.12,0,0,1,798.4,228.26Z"/><g class="cls-12"><path class="cls-13" d="M828.47,133.87c3.74,1.39,7.42,3,11,4.7,4.43,2.1,8.74,4.49,13.2,6.53,4.44,1.75,9,3.19,13.51,4.9.07-15.73,1.91-24.06,12.89-41.88,1.15-1.87,3.11-7.11,1.23-8.89-12-11.35-7.31-8-15.06-10.08-.91-.25-5.87-.55-8.47,1.48-19.4,15.2-26.81,27.07-29.53,42.82Z"/><path class="cls-13" d="M876.09,154.66a45.09,45.09,0,0,1,10.71,9.16c1.31,1.53,2.55,3.12,3.81,4.69,7.88-18,11.4-22,30.93-33.38,1.71-1,5.08-6.39,4.49-9.34-.45-2.26-.21-5.83-6.55-10.59-.74-.56-17.23-5.44-20.1-4.21-26.08,11.1-30.44,18.31-38.28,37.15A79.82,79.82,0,0,1,876.09,154.66Z"/><path class="cls-13" d="M893.23,171.67c5,5.69,10.86,10.44,16.26,15.69,1.35,1.31,2.64,2.65,3.89,4a5.16,5.16,0,0,0,.42-.4c16.56-17.46,20.09-20.08,44.2-24.4,2-.35,7-4.25,7.48-7.22.36-2.27,1.84-5.54-2.45-12.18-.5-.78-14.26-11-17.39-10.86-33.11,1.71-36.55,8.61-56.66,30.12C890.38,168.21,891.75,170,893.23,171.67Z"/><path class="cls-13" d="M981.94,214.08c-13.76-32.31-11.06-25.34-40.81-34.81-8.57-2.72-24.8,6.58-27.8,12.07a69.67,69.67,0,0,1,5.4,6.77,56,56,0,0,1,5.7,11.63c.39,1,.75,1.94,1.09,2.91,19.22,4.37,26.05,12.58,41.55,28.58,1.38,1.42,7.11,6,9.87,4.75,2.11-1,5.28-3.65,7.17-11.32C985.3,229.81,984,218.93,981.94,214.08Z"/><path class="cls-13" d="M978.1,279.15c-2.2-36.16-2-28.58-30.47-59.92-5.28-5.81-16-10.31-24.32-12.29.38.93.75,1.87,1.12,2.8,2.32,5.81,3.8,11.91,6.05,17.75,2.83,6.35,6.19,12.45,9.21,18.71a327.68,327.68,0,0,1,16.91,42.08q1.85,5.73,3.46,11.53l.13.05c2.65,1,7.14,1.43,12.19-3C975.57,294.07,978.43,284.57,978.1,279.15Z"/><path class="cls-13" d="M939.69,246.2a327.68,327.68,0,0,1,16.91,42.08c.41,1.24.79,2.49,1.18,3.75,2-26.08.27-22.72-18.58-46.83C939.36,245.54,939.53,245.87,939.69,246.2Z"/><path class="cls-13" d="M786.28,122.93c11.57,1.86,22.88,5,34.1,8.4,2.7.8,5.43,1.56,8.09,2.54,2.32.86,4.61,1.81,6.88,2.81-1-6.24-5.65-10.85-14.51-25.22-5.2-8.41-22.9-9.29-30.45-8.28l-7.4,7c-.62,1.85-2.66,8-2.89,11.81C782.16,122.29,784.23,122.6,786.28,122.93Z"/><path class="cls-13" d="M828.47,133.87c3.74,1.39,7.42,3,11,4.7,4.43,2.1,8.74,4.49,13.2,6.53,3.76,1.49,7.63,2.74,11.45,4.13.44-12.35,2.84-20.36,12.26-35.68,1.1-1.79,3-6.83,1.18-8.53-11.47-10.91-7-7.69-14.43-9.69-.87-.23-5.63-.53-8.11,1.42-16.79,13.19-24.2,23.76-27.4,36.83Z"/><path class="cls-13" d="M876.09,154.66a45.09,45.09,0,0,1,10.71,9.16c.91,1.06,1.78,2.15,2.65,3.24,6.29-13.55,10.65-17.63,27.6-27.57,1.64-1,4.87-6.14,4.3-9-.43-2.16-.19-5.59-6.27-10.17-.7-.53-16.5-5.22-19.25-4-23.08,9.85-28.4,16.51-35,31.74A81.19,81.19,0,0,1,876.09,154.66Z"/><path class="cls-13" d="M893.23,171.67c5,5.69,10.86,10.44,16.26,15.69,1,1,1.94,1.94,2.88,2.94,13.61-14.22,17.9-16.68,39.61-20.58,1.87-.33,6.7-4.08,7.16-6.93.35-2.18,1.77-5.32-2.34-11.7-.48-.75-13.66-10.59-16.66-10.43-30,1.55-34.57,7.56-51.26,25.68C890.31,168.13,891.72,170,893.23,171.67Z"/><path class="cls-13" d="M974.91,215.32c-13.18-31-10.59-24.34-39.09-33.43-6.61-2.1-18,3.27-23.64,8.2a71.54,71.54,0,0,1,6.55,8,56,56,0,0,1,5.7,11.63c.75,1.88,1.41,3.79,2,5.72,14.32,4.49,21,12.24,34.2,25.95,1.32,1.36,6.81,5.75,9.45,4.55,2-.92,5.06-3.5,6.87-10.87C978.13,230.44,976.88,220,974.91,215.32Z"/><path class="cls-13" d="M930.48,227.49c2.83,6.35,6.19,12.45,9.21,18.71a327.68,327.68,0,0,1,16.91,42.08q1.57,4.89,3,9.84a13.43,13.43,0,0,0,6.17-3.28c3.06-2.69,5.8-11.81,5.48-17-2.11-34.73-1.93-27.45-29.19-57.55-3.88-4.28-10.8-7.83-17.44-10.1C926.82,215.85,928.29,221.8,930.48,227.49Z"/><path class="cls-13" d="M952.35,276c-.28-6.5-2-10-6.19-15.53Q949.46,268.11,952.35,276Z"/><path class="cls-13" d="M786.28,122.93c11.57,1.86,22.88,5,34.1,8.4,2.7.8,5.43,1.56,8.09,2.54,1.37.51,2.73,1,4.09,1.61-2.2-4.18-6.13-9.23-12-18.71-5-8.09-21.93-8.93-29.16-8l-7.09,6.75c-.38,1.14-1.31,3.93-2,6.77C783.67,122.52,785,122.72,786.28,122.93Z"/><path class="cls-13" d="M839.5,138.57c4.43,2.1,8.74,4.49,13.2,6.53,4,1.56,8,2.87,12,4.34.76-10.11,3.42-17.73,11.51-31.09,1.06-1.73,2.85-6.6,1.13-8.25-10.94-10.55-6.69-7.43-13.77-9.37-.83-.22-5.37-.51-7.74,1.38-14.71,11.71-21.88,21.29-25.31,32.57C833.58,135.87,836.56,137.19,839.5,138.57Z"/><path class="cls-13" d="M876.09,154.66a45.09,45.09,0,0,1,10.71,9.16c1.06,1.23,2.07,2.51,3.09,3.78,5.43-11.15,10.05-15.19,25.16-24.15,1.56-.93,4.64-5.94,4.1-8.68-.41-2.1-.18-5.41-6-9.84-.68-.51-15.75-5.05-18.38-3.91-20.46,8.86-26.3,15-32.07,27.69A72.67,72.67,0,0,1,876.09,154.66Z"/><path class="cls-13" d="M893.23,171.67c5,5.69,10.86,10.44,16.26,15.69,1,1,2.07,2.07,3.07,3.14,11.48-11.92,16.19-14.24,35.82-17.82,1.78-.32,6.4-3.94,6.83-6.7.33-2.11,1.69-5.15-2.23-11.32-.46-.72-13-10.23-15.9-10.09-27.58,1.45-32.64,6.9-47.24,23C891,168.94,892.06,170.34,893.23,171.67Z"/><path class="cls-13" d="M970.26,216.79c-12.57-30-10.11-23.54-37.31-32.33-5.52-1.79-14.51,2-20.3,6.14a71.46,71.46,0,0,1,6.08,7.51,56,56,0,0,1,5.7,11.63c1.09,2.73,2,5.53,2.88,8.34,11.5,4.48,17.78,11.79,29.36,23.94,1.26,1.32,6.5,5.57,9,4.41,1.93-.89,4.83-3.39,6.56-10.52C973.34,231.41,972.15,221.3,970.26,216.79Z"/><path class="cls-13" d="M930.48,227.49c2.83,6.35,6.19,12.45,9.21,18.71a327.68,327.68,0,0,1,16.91,42.08q1.18,3.66,2.26,7.35a15.68,15.68,0,0,0,2.66-1.93c2.92-2.6,5.53-11.42,5.23-16.46-2-33.59-1.84-26.55-27.86-55.66-3-3.4-8-6.31-13.2-8.46C927.34,217.89,928.67,222.77,930.48,227.49Z"/><path class="cls-13" d="M820.38,131.33c2.7.8,5.43,1.56,8.09,2.54,1.11.42,2.22.85,3.32,1.3-2.15-3.34-5.06-7.56-8.79-13.71-4.75-7.81-20.93-8.63-27.84-7.69l-6.76,6.53c-.19.58-.53,1.6-.9,2.84C798.65,125,809.55,128.1,820.38,131.33Z"/></g><g class="cls-12"><path d="M927.94,138.26l-.72.14,6.71,4.19Q930.95,140.41,927.94,138.26Z"/><path d="M762.54,162.57a10.75,10.75,0,0,1-1.15-2.17c-.94-1.49-1.85-3-2.71-4.54a85.46,85.46,0,0,1-6.7-15.05,37,37,0,0,1-1.44-5.87l0-.11a48.54,48.54,0,0,0-7.22,4.57l-2.6,9.68c.59,2.49,3,12.55,5.61,13.62,8.28,3.35,15.17,5.64,21.38,8.55A91.31,91.31,0,0,0,762.54,162.57Z"/><path d="M786.84,208.41a223.12,223.12,0,0,1-12.27-22.8c-2.38-5.17-4.72-10.38-7.42-15.38-7.62-3.74-10.15-1.79-30.52-2.78-10.13-.49-17.89,8.25-21.25,15.8l1.89,11.17c1.65,2.28,8.3,11.51,11.2,11.37,21.13-1,32.8-4.4,52.71,7.23,1.72,1,4.38-.49,6.77-2.37l.19-.15Z"/><path d="M702.48,238.55c2.41,1.34,12.13,6.73,14.94,5.45,20.48-9.37,30.84-17,54.45-14.82,2,.19,4.15-2.19,5.87-4.79,1.31-2,4.78-4.88,2-11.63-1.76-4.27-5.06-11.85-10.48-12.51-38.47-4.67-25-4.44-56.91,7-10.17,3.64-14.82,14.39-15.55,22.34Z"/><path d="M719.4,289.8c1.77,1.15,14.46,1.48,16,0,5.37-5.31,6.62-5.78,8.14-7.57,14.53-17.11,24.54-25.11,47.62-32.49,2-.64,2.8-3.74,3.13-6.91.25-2.42,2.08-6.55-3.81-11.86-3.73-3.35-10.51-9.25-15.89-7.7-38.16,11-30.59,3.46-54.76,27.07-6.06,5.92-10.72,13.45-9.2,20.74.69,3.29,6,16.88,8.8,18.72Z"/><path d="M744.53,327.69c1.75.49,12.67-3.22,13.66-5.06,3.53-6.59,4.51-7.42,5.45-9.55,9-20.35,16-30.88,34.22-45,1.58-1.22,1.64-4.33,1.29-7.35-.27-2.31.47-6.69-5.64-9.71-3.85-1.9-10.83-5.19-15.12-2.06C748,271.15,752.92,261.84,737,291.23c-4,7.37-6.48,15.78-3.72,22,1.25,2.81,8.48,13.65,11.27,14.45Z"/><path d="M777.91,364.42c2.21.15,14.12-6.62,14.79-8.93,2.39-8.28,3.32-9.45,3.85-12.08,5.09-25.14,10.45-38.69,28.22-58.94,1.54-1.75.77-5.28-.48-8.61-.95-2.55-1.27-7.68-9.33-9.66-5.09-1.25-14.25-3.33-18.48,1.22C766.5,299.65,769.84,288,759,325c-2.72,9.27-3.36,19.37,1.61,25.76,2.25,2.89,13.77,13.46,17.3,13.7Z"/><path d="M852,278.66q-3.27-2.76-6.49-5.59a14.68,14.68,0,0,0-3.51-.52c-5.22-.19-14.57-.33-17.68,5.61-22.08,42.13-21.39,28.6-23.84,71.48-.62,10.75,1,21.92,7.19,27.74,2.81,2.64,4.7,8.42,8.18,7.86l13.71-2.5c2.17-.35,10.16-4.92,10.31-7.6.51-9.59,1.15-11.08,1.09-14.07-.53-28.61,1.71-44.64,14.55-70.86,1.11-2.26-.41-5.94-2.35-9.29C852.77,280.3,852.42,279.51,852,278.66Z"/><path d="M930.59,331.74a245.53,245.53,0,0,1-22.16-12.43c-5.12-3.15-10.24-6.29-15.27-9.56,3.71,10.53,9.52,20.62,19,31.13,2.39,2.66,4.27,4.8,6.24,5.61,8.29,3.42,11.18-1,13.95-7.53.71-1.66,1.53-3.49,2.33-5.32C933.28,333,931.93,332.38,930.59,331.74Z"/><path d="M914.93,323.24c-2.18-1.29-4.35-2.61-6.5-3.93-7.28-4.48-14.57-8.94-21.62-13.77q-4.77-3.27-9.41-6.71c-4.88,25.68-7.23,44.66,8.47,69.09,1.73,2.69,3.09,4.85,4.82,5.9,7.29,4.45,11.08,1.24,15.2-3.71,3.52-4.21,8.73-9.85,8.91-12.07,1.8-22.38,3-3.68,1.52-25.74A65.69,65.69,0,0,0,914.93,323.24Z"/><path d="M881,357.29c-2.71-22.34-3.2-37.29.46-55.52-6.47-4.64-12.78-9.5-19-14.47q-5.33-4.26-10.53-8.69c-14.37,43.65-9.95,26.49-7.51,70.23.62,11.05,3.2,22.34,9.26,27.8,2.73,2.47,15.47,10.45,18.45,9.6,1.86-.53,9.58-11.72,9.42-14.47C881,361.92,881.35,360.34,881,357.29Z"/><path d="M932.07,141.25l-.26,0,2.12,1.32Z"/><path d="M762.54,162.57a10.75,10.75,0,0,1-1.15-2.17c-.94-1.49-1.85-3-2.71-4.54a85.46,85.46,0,0,1-6.7-15.05l-.24-.78a43.15,43.15,0,0,0-5.4,3.57l-2.5,9.3c.57,2.39,2.85,12,5.38,13.08,7.64,3.1,14,5.25,19.83,7.91A98.45,98.45,0,0,0,762.54,162.57Z"/><path d="M786.84,208.41a223.12,223.12,0,0,1-12.27-22.8c-2-4.25-3.89-8.53-6-12.7-6.82-3.19-9.65-1.45-28.6-2.37-9.71-.48-17.14,7.92-20.36,15.18l1.81,10.73c1.59,2.19,8,11.05,10.73,10.91,20.23-1,31.42-4.22,50.49,6.95,1.65,1,4.19-.47,6.48-2.28C788.34,210.83,787.58,209.62,786.84,208.41Z"/><path d="M707.24,238.83c2.31,1.28,11.61,6.46,14.31,5.23,19.61-9,29.54-16.33,52.15-14.23,2,.18,4-2.1,5.62-4.6,1.25-1.92,4.58-4.69,1.91-11.17-1.69-4.1-4.85-11.39-10-12-36.85-4.49-24-4.26-54.51,6.69-9.74,3.49-14.2,13.82-14.9,21.45Z"/><path d="M723.44,288.05c1.7,1.1,13.86,1.42,15.3,0,5.15-5.1,6.34-5.55,7.8-7.27,13.92-16.43,23.5-24.12,45.61-31.2,1.91-.62,2.68-3.6,3-6.64.24-2.32,2-6.29-3.66-11.39-3.57-3.22-10.06-8.88-15.21-7.4-36.55,10.53-29.3,3.32-52.45,26-5.81,5.69-10.27,12.92-8.82,19.92.66,3.16,5.71,16.21,8.43,18Z"/><path d="M747.51,324.44c1.68.48,12.14-3.09,13.08-4.86,3.39-6.32,4.32-7.12,5.23-9.16,8.62-19.55,15.28-29.67,32.77-43.22,1.52-1.17,1.58-4.16,1.24-7.06-.26-2.21.45-6.42-5.4-9.32-3.7-1.83-10.38-5-14.49-2-29.15,21.3-24.39,12.36-39.66,40.59-3.83,7.08-6.2,15.16-3.56,21.13,1.19,2.71,8.12,13.12,10.79,13.88Z"/><path d="M779.49,359.72c2.11.14,13.52-6.35,14.16-8.58,2.29-7.95,3.18-9.07,3.69-11.6,4.88-24.14,10-37.15,27-56.6,1.47-1.69.73-5.08-.46-8.28-.91-2.45-1.22-7.37-8.93-9.28-4.88-1.2-13.65-3.19-17.7,1.18-28.72,31-25.52,19.73-35.91,55.26-2.6,8.91-3.21,18.61,1.55,24.75,2.15,2.77,13.19,12.92,16.57,13.15Z"/><path d="M850.41,277.33q-3.09-2.64-6.15-5.33a14.4,14.4,0,0,0-3.42-.52c-5-.18-14-.31-16.93,5.4-21.15,40.46-20.49,27.46-22.84,68.65-.59,10.33.93,21.05,6.89,26.64,2.69,2.53,4.51,8.09,7.84,7.55l13.12-2.4c2.09-.34,9.74-4.72,9.88-7.3.49-9.21,1.1-10.64,1.05-13.52-.52-27.48,1.63-42.87,13.93-68.05,1.06-2.18-.39-5.71-2.25-8.92C851.19,278.93,850.84,278.15,850.41,277.33Z"/><path d="M908.43,319.31c-6.17-3.8-12.35-7.59-18.39-11.6,3.57,9.94,9.1,19.48,18,29.4,2.29,2.56,4.1,4.61,6,5.39,7.94,3.29,10.71-1,13.36-7.23.57-1.32,1.2-2.76,1.84-4.21C922.07,327.54,915.21,323.48,908.43,319.31Z"/><path d="M910.86,320.79l-2.43-1.48c-7.28-4.48-14.57-8.94-21.62-13.77-4.08-2.8-8.1-5.71-12.06-8.68-4.66,24.59-6.87,42.81,8.14,66.22,1.66,2.59,3,4.66,4.61,5.67,7,4.28,10.62,1.19,14.57-3.56,3.37-4,8.36-9.46,8.53-11.6,1.72-21.49,2.91-3.53,1.46-24.72A63.67,63.67,0,0,0,910.86,320.79Z"/><path d="M878.21,352.87c-2.59-21.38-3.07-35.71.41-53.15-5.49-4-10.87-8.18-16.18-12.42q-6.12-4.91-12.07-10c-13.77,41.94-9.54,25.44-7.2,67.46.59,10.61,3.07,21.46,8.87,26.7,2.62,2.37,14.82,10,17.67,9.22,1.78-.51,9.18-11.25,9-13.9C878.18,357.32,878.56,355.81,878.21,352.87Z"/><path d="M762.54,162.57a10.75,10.75,0,0,1-1.15-2.17c-.94-1.49-1.85-3-2.71-4.54a87.54,87.54,0,0,1-4.75-9.79c-.68.47-1.28.92-1.81,1.34l-2.38,9c.54,2.31,2.72,11.66,5.13,12.65,5.47,2.25,10.27,4,14.66,5.79A103.31,103.31,0,0,0,762.54,162.57Z"/><path d="M786.84,208.41a223.12,223.12,0,0,1-12.27-22.8c-1.74-3.77-3.45-7.57-5.31-11.29-4.46-1-9.24-.16-23.24-.85-9.26-.45-16.35,7.66-19.43,14.68l1.74,10.38c1.51,2.12,7.58,10.69,10.23,10.56,19.31-1,30-4.08,48.18,6.72,1.12.67,2.67.15,4.26-.83Q788.87,211.74,786.84,208.41Z"/><path d="M714.81,239.53c2.2,1.24,11.08,6.25,13.65,5.06,18.72-8.7,28.19-15.79,49.78-13.77,1.86.18,3.79-2,5.36-4.45,1.2-1.85,4.37-4.53,1.82-10.8-1.61-4-4.62-11-9.58-11.63-35.17-4.34-22.88-4.12-52,6.47-9.29,3.38-13.55,13.37-14.21,20.76Z"/><path d="M730.27,287.13c1.62,1.07,13.22,1.38,14.6,0,4.91-4.92,6-5.36,7.44-7,13.29-15.89,22.43-23.32,43.53-30.18,1.83-.59,2.56-3.47,2.86-6.41.23-2.25,1.9-6.09-3.48-11-3.41-3.12-9.61-8.6-14.53-7.16-34.88,10.18-28,3.21-50.05,25.15-5.54,5.5-9.8,12.5-8.42,19.26.63,3.06,5.45,15.69,8,17.39Z"/><path d="M753.24,322.33c1.6.47,11.58-3,12.49-4.69,3.23-6.12,4.12-6.89,5-8.87,8.23-18.91,14.58-28.69,31.28-41.8,1.45-1.13,1.51-4,1.18-6.83-.25-2.14.43-6.21-5.15-9-3.53-1.78-9.9-4.83-13.83-1.92-27.82,20.6-23.28,12-37.85,39.26-3.65,6.85-5.92,14.66-3.4,20.44,1.14,2.62,7.75,12.69,10.3,13.42Z"/><path d="M783.76,356.46c2,.14,12.91-6.15,13.52-8.3,2.18-7.69,3-8.78,3.51-11.22,4.66-23.35,9.55-35.94,25.8-54.75,1.41-1.63.7-4.91-.44-8-.87-2.36-1.16-7.13-8.52-9-4.66-1.16-13-3.09-16.9,1.14-27.4,29.94-24.35,19.08-34.26,53.45-2.49,8.62-3.07,18,1.47,23.94,2.06,2.68,12.59,12.49,15.82,12.72Z"/><path d="M843.33,271.18c-.33,0-.66-.06-1-.07-4.77-.17-13.31-.3-16.16,5.22-20.18,39.14-19.55,26.57-21.79,66.4-.56,10,.88,20.36,6.57,25.77,2.57,2.45,4.3,7.82,7.48,7.3l12.53-2.32c2-.33,9.29-4.57,9.42-7.06.47-8.91,1.06-10.29,1-13.07-.5-26.58,1.55-41.47,13.29-65.83,1-2-.25-5.2-1.9-8.19Q848,275.31,843.33,271.18Z"/><path d="M908.43,319.31c-6.27-3.85-12.54-7.7-18.66-11.78a85.37,85.37,0,0,0,16.67,27.06c2.18,2.47,3.91,4.46,5.7,5.21,7.58,3.18,10.22-1,12.76-7,.43-1,.9-2.11,1.38-3.23C920.19,326.42,914.28,322.91,908.43,319.31Z"/><path d="M909.35,319.87l-.92-.56c-7.28-4.48-14.57-8.94-21.62-13.77q-6.25-4.29-12.32-8.88c-4.32,23.28-6.17,40.72,8,63,1.58,2.5,2.82,4.51,4.4,5.49,6.66,4.13,10.12,1.14,13.9-3.45,3.21-3.91,8-9.15,8.14-11.22,1.64-20.79,2.77-3.41,1.39-23.91A59.73,59.73,0,0,0,909.35,319.87Z"/><path d="M878,349.83c-2.42-20.28-2.9-34,.21-50.43-5.34-3.91-10.57-8-15.74-12.1q-5.78-4.62-11.4-9.43c-12.7,39.13-8.71,23.86-6.5,64.12.56,10.26,2.92,20.75,8.46,25.83,2.5,2.29,14.14,9.7,16.86,8.91,1.7-.49,8.77-10.88,8.62-13.44C877.94,354.14,878.31,352.68,878,349.83Z"/><path d="M862.44,287.3c-13.93-11.14-27.14-23.14-40.16-35.34A183.13,183.13,0,0,1,804,232.82a235.93,235.93,0,0,1-17.11-24.41q-2.31-3.78-4.46-7.61c-7.89,10.78-12.54,23.11-12.54,35.84,0,3.16-.64,29.35,15.39,44.64,18.29,17.44,54,24,61.47,24a66.24,66.24,0,0,0,30-7C871.85,294.72,867.12,291,862.44,287.3Z"/><path d="M862.44,287.3c-13.93-11.14-27.14-23.14-40.16-35.34A183.13,183.13,0,0,1,804,232.82a235.93,235.93,0,0,1-17.11-24.41c-.7-1.15-1.39-2.31-2.08-3.47-6.29,9.51-9.94,20.15-9.94,31.11,0,3-.61,27.76,14.59,42.23,17.34,16.5,51.15,22.72,58.27,22.72a63.25,63.25,0,0,0,25.55-5.29Q867.77,291.57,862.44,287.3Z"/><path d="M803.49,283.77c14.14,5.55,21.07-8.64,27.39-2.3a1.21,1.21,0,0,0,2-.24h0c.42-.66,1-1.09-.14-2.14-8.75-7.91-14.48,7.3-28,2.09-1.79-.69-1.76,0-2.09.74h0C802.4,282.63,801.61,283,803.49,283.77Z"/><path d="M793.87,219.23c-4.92,1.16-9.6,7-12.74,10.37-.59.62-.26,1.19.36,1.72s1,.28,1.61-.24c3.61-3.26,7.4-10.13,12.27-9.68Z"/><path d="M822.28,252c-2.65-2.48-5.26-5-7.81-7.51-2.42,12.44,13.57,18.38,19.95,20.17a2.7,2.7,0,0,0,1.35-.21Q829,258.25,822.28,252Z"/><path d="M800.33,230c3.95,9.41,4.51,24.32-9,28.12,0,0-22.82-3.38-1.32-32.8C792.69,221.64,798.57,225.78,800.33,230Z"/><path d="M822.28,252c-1.92-1.8-3.83-3.61-5.7-5.43-1.53,10.7,10.38,14,15.92,15.57a4.78,4.78,0,0,0,.93.18Q827.82,257.17,822.28,252Z"/><path d="M798.4,228.26c3.48,8.29,5.75,25.73-7.09,28.32,0,0-20.71-3.44-1.78-29.36A5.12,5.12,0,0,1,798.4,228.26Z"/></g><path class="cls-14" d="M927.52,334.92h0a159.72,159.72,0,0,1-24.35-5.41c-44.9-13.89-84.49-41-118-73.69-24.94-23.5-48.4-49.18-66.09-78.75-5.17,4.86-2.74,11.56-1.76,17.35a82.29,82.29,0,0,0,6.75,8.36c-13.39,3.52-27,12.05-27.23,26.77l5.69,9c2.41,1.34,12.13,6.73,14.94,5.45,3.34.38,5.49-.79,8.35.53-7.13,6.56-17.54,16.59-15.17,26.55,5.26,17.59,9.19,24.8,28.08,17-4.48,7.6-8.73,18-5.42,25.14,8.59,15.3,12.41,19.14,27,7.36-8.36,20.08-.51,35.79,17.63,43.82,4.68-.9,16.41-7.28,16.06-13.14,5.45-3.37,6.4-14.7,7.45-17.42-.81,12.32-3.69,34.88,6.22,43.52,2.81,2.64,4.7,8.42,8.18,7.86,6.81-1.4,20.93-2.31,24-10.1,2.15-19.45.59-27.29,2.35-44.29,1.19,13.91,1.07,35.27,11.47,45.79,2.73,2.47,15.47,10.45,18.45,9.6,9.25-7.66,10-16.25,9-26,5.35,10.66,15.16,23.28,24.73,9.84,11.49-10.81,8.5-17.1,10.74-24.66,7.84,5.15,13.16.79,15.68-6.49C935.34,334.45,931,335.64,927.52,334.92Z"/><g class="cls-15"><path class="cls-16" d="M839.34,124.11c9.8,2.74,19.83,6.15,27.66,12.91-.94-10.72,17.08-31.35,13.34-37.79-12-11.35-7.32-8-15.07-10.08-.91-.25-5.87-.55-8.47,1.48C844.56,101.12,819.17,123,839.34,124.11Z"/><path class="cls-16" d="M882.46,152.24a147.27,147.27,0,0,0,11,10c6.33-20.53,31.67-22.16,32.58-36.49-.45-2.26-.21-5.83-6.55-10.59-19.51-12.07-47.93,8.23-53.07,21.33C872.23,141.21,877.26,146.9,882.46,152.24Z"/><path class="cls-16" d="M963,147.2c-23.37-22.7-55.39-4.78-69.91,14.8,4,3.42,8.19,6.75,12.17,10.23C930,198.61,914.17,171,958,166.6,965.16,163.16,969.33,157.61,963,147.2Z"/><path class="cls-16" d="M981.94,214.08c-13.76-32.31-11.06-25.34-40.81-34.81-5.93-1.88-15.52,2-21.86,6.37,2.23,2.41,4.37,4.91,6.38,7.52a98,98,0,0,1,14.72,24.74c9.4,4.91,16,12.26,26.7,23.33C983.25,257.89,987.93,226,981.94,214.08Z"/><path class="cls-16" d="M978.1,279.15c-2.2-36.16-2-28.58-30.47-59.92a34.46,34.46,0,0,0-9.77-7c12.17,27.49,21.89,56.46,24.78,86.56.15,3.83,6.26.88,9.74-1.95C975.57,294.07,978.43,284.57,978.1,279.15Z"/><path class="cls-16" d="M783.46,111.91c14.68,1.78,29,5.72,43.44,9-1.75-2.62-3.76-5.69-6.06-9.42-5.2-8.41-22.9-9.29-30.45-8.28-.76,1-8.28,7.1-7.92,8.62Z"/><path class="cls-16" d="M839.34,124.11c9.32,2.64,18.89,5.78,26.52,12-.32-6.86,15.24-25.06,11.73-31.07-11.47-10.91-7-7.69-14.43-9.69-.87-.23-5.63-.53-8.11,1.42-11.64,9.15-18.77,17-23.12,25.37Q835.65,123,839.34,124.11Z"/><path class="cls-16" d="M882.46,152.24c3.11,3.21,6.45,6.19,9.86,9.09,4.7-14.23,29-18.5,29-30.81-.44-2.16-.2-5.59-6.28-10.17-17.91-10.61-41.58,5.18-48.41,16.39C872.38,141.38,877.34,147,882.46,152.24Z"/><path class="cls-16" d="M905.29,172.23c22.26,23.17,8.09,1.53,46.69-2.51,1.87-.33,6.7-4.08,7.16-6.93.35-2.18,1.77-5.32-2.34-11.7-19.75-20.71-52.13-5.59-63.82,10.79C897.08,165.35,901.27,168.71,905.29,172.23Z"/><path class="cls-16" d="M974.91,215.32c-13.18-31-10.59-24.34-39.09-33.43-4.48-1.42-11.13.58-16.73,3.56a111.13,111.13,0,0,1,23.78,38.63c7.59,4,16.11,21,27.25,21.88C978.17,243.2,978.91,223.4,974.91,215.32Z"/><path class="cls-16" d="M971.23,277.82c-1.65-34.52-3.33-29.12-30.37-58.74,10.37,25,18.86,51,21.59,78C968.54,294.58,971.28,284.93,971.23,277.82Z"/><path class="cls-16" d="M822,119.73l.57.13c-4-10.65-28.57-15.92-34.93-7.39C799.17,114.17,810.57,117.12,822,119.73Z"/><path class="cls-16" d="M839.34,124.11c9.83,2.75,19.89,6.18,27.73,13,.19-5.89,13.44-20.54,10.31-27-10.94-10.55-6.69-7.43-13.77-9.37-.83-.22-5.37-.51-7.74,1.38-9.48,7.55-15.83,14.21-20.07,21C837,123.45,838.16,123.77,839.34,124.11Z"/><path class="cls-16" d="M882.46,152.24c16.46,17.76,7.16,3.37,32.59-8.79,1.56-.93,4.64-5.94,4.1-8.68-.41-2.1-.18-5.41-6-9.84-16.86-9.64-36.67,3.34-44.53,13.48C873.54,142.68,877.94,147.59,882.46,152.24Z"/><path class="cls-16" d="M905.29,172.23c22.13,22.44,8,4.33,43.09.45,1.78-.32,6.4-3.94,6.83-6.7.33-2.11,1.69-5.15-2.23-11.32-17.14-19.22-48.84-6.1-58.84,8.2C897.86,166,901.64,169,905.29,172.23Z"/><path class="cls-16" d="M970.26,216.79c-12.57-30-10.11-23.54-37.31-32.33-3.49-1.13-8.37,0-13,2,11.77,12.46,19.65,27.73,25.31,43.84,5.63,4.07,11.59,16.11,20.38,16.16C973.4,243.72,974.07,224.57,970.26,216.79Z"/><path class="cls-16" d="M955.43,260.37A232.08,232.08,0,0,1,962,293.22c12-25.89,2.06-47.82-17.81-65.81A327.15,327.15,0,0,1,955.43,260.37Z"/><path class="cls-16" d="M821.56,119.63c-5.95-6.08-20-6.71-26.32-5.87C804.07,115.43,812.82,117.63,821.56,119.63Z"/></g><path class="cls-10" d="M789.36,251.6v0a.67.67,0,0,1-.48.31.23.23,0,0,0-.12.06l-.39.33c-.16.14-.47,0-.45-.17l.06-.45c0-.05-.1-.1-.24-.14-.38-.1-.58-.42-.43-.7l.05-.09a.18.18,0,0,0-.09-.23l-.5-.26a.15.15,0,0,1-.08-.12c-.08-.34.46-.53.76-.28h0c.17,0,.28-.13.23-.26l-.19-.44c-.08-.19.19-.34.39-.22l.44.48c.14.08.36-.15.42-.27l.07-.36c.09-.18.57-.22.63,0l0,.73h0a.44.44,0,0,0,.71.08l.23-.34a.28.28,0,0,1,.44,0,.14.14,0,0,1,0,.15l-.25.41c-.07.12.11.41.27.44l.48,0c.25,0,.28.31.06.39l-.53.17a4.44,4.44,0,0,0-.54.15,1.42,1.42,0,0,1-.35.11.38.38,0,0,0-.22.06.35.35,0,0,1-.14.17A.72.72,0,0,0,789.36,251.6Z"/><path class="cls-10" d="M826.29,255.18h0a.65.65,0,0,1-.44-.36l-.1-.1-.43-.26c-.19-.11-.18-.44,0-.48l.45-.09s.06-.13,0-.28c0-.39.22-.68.53-.63l.1,0a.18.18,0,0,0,.19-.16l.08-.56a.16.16,0,0,1,.09-.11c.29-.19.65.27.5.64h0c.05.16.21.23.31.14l.36-.32c.15-.14.38.07.33.31l-.31.57c0,.15.25.29.39.31l.36,0c.2,0,.38.47.22.59l-.68.25h0a.44.44,0,0,0,.15.7l.39.11a.28.28,0,0,1,.11.43.16.16,0,0,1-.15,0l-.46-.11c-.14,0-.35.23-.33.4l.19.45c0,.24-.21.36-.35.17l-.33-.46c-.07-.09-.21-.36-.31-.47a1,1,0,0,1-.21-.29c-.05-.1-.1-.19-.13-.19a.61.61,0,0,1-.21-.08A.61.61,0,0,0,826.29,255.18Z"/><g class="cls-12"><path d="M590.56,2.69l1.1.23L581.34,9.36Z"/><path d="M584.2,7.29l.4,0-3.26,2Z"/></g><g class="cls-12"><path d="M616.05-.54l1.1.23L606.83,6.13Z"/><path d="M609.69,4.06l.4,0-3.26,2Z"/></g><path d="M858.28,255.2a.35.35,0,0,0-.67-.17c-1.37,3.91-3.51,11.2-2.42,16.17a12,12,0,0,0,5.41,7.23.35.35,0,0,0,.43-.54c-1.75-2.14-4.12-5-4.39-5.84V272a10.08,10.08,0,0,1-.3-4.91C856.81,264.42,857.71,259.31,858.28,255.2Z"/><path d="M862.11,234.53c-.13.18.39.47.6.33,2.06-1.45,5.5-4.32,5.45-7.22,0,0-.07-2.83-3.66-5.65-.28-.22-.69-.13-.52.11a33.41,33.41,0,0,1,3,4.57v0a3,3,0,0,1-.69,2.58C865.3,230.44,863.46,232.67,862.11,234.53Z"/></g></svg>
