<svg xmlns="http://www.w3.org/2000/svg" width="750" height="670" viewBox="0 0 750 670"><defs><style>.cls-1{opacity:0.3;}.cls-2{fill:#eadf5c;}.cls-3{fill:#020202;}.cls-4{fill:#fff;}.cls-5{fill:#750d35;}.cls-6{fill:#b50f5a;}.cls-7{fill:#e51c6e;}.cls-8{fill:#bc961e;}.cls-9{fill:#bcaf33;}</style></defs><g id="Layer_3" data-name="Layer 3"><g class="cls-1"><path class="cls-2" d="M9.54,400.66c45.72,214.65,287.4,313.43,468.94,250.73S779.74,474.25,743.54,263.13,449.7-47.18,268.71,21.66-36.18,186,9.54,400.66Z"/></g><g class="cls-1"><path class="cls-2" d="M57.89,393.7C101.76,592.52,314.8,688,472.33,633.51S732.43,475.62,697,280.24,434.47-11.34,277.52,48.86,14,194.88,57.89,393.7Z"/></g><g class="cls-1"><path class="cls-2" d="M77.43,392.57c36.71,172.35,230.75,251.66,376.51,201.32S695.82,451.66,666.76,282.16,430.84,33,285.52,88.29,40.72,220.23,77.43,392.57Z"/></g><path d="M141.87,369.29C174,521.53,347.4,590.84,478.1,545.72S695.24,419,669.93,269.2,459.76,49.89,329.43,99.37,109.72,217.06,141.87,369.29Z"/><path class="cls-2" d="M151.06,369.15c30.11,144.29,197,209,323.44,165.4S684.83,412.93,661.31,271,459.8,64.1,333.72,111.85,121,224.87,151.06,369.15Z"/><path d="M342.17,315c-7.43-6.21-25-17.32-37.44-14.05,0,0-19.26,12.07-38.74-9.09,0,0-8.59-10.88-34.09-1.7a2.19,2.19,0,0,0,.62,4.24,58.59,58.59,0,0,0,11.65-.63s10.37-5.11,24.88,8.2c0,0,4.28,5.8,17.55,7.77a20,20,0,0,0,7.7-.46c2.24-.54,4.43-2.27,12.12-3.29,1.17-.15,3.24.23,11,1.69,2,.37,2.67,1.09,16.13,6.59,1.35.56,4.68,3.13,6.3,3.79C341.09,318.52,343.19,315.82,342.17,315Z"/><path d="M334.68,298.21c-6.07-5.24-20.4-14.66-30.45-12,0,0-15.5,9.88-31.46-7.92,0,0-7.06-9.15-27.62-1.73a1.84,1.84,0,0,0,.53,3.54,46,46,0,0,0,9.43-.42s8.36-4.17,20.23,7.06c0,0,3.52,4.87,14.28,6.64a16,16,0,0,0,6.24-.32c1.8-.44,3.57-1.85,9.78-2.63.95-.12,2.63.21,8.93,1.5,1.62.33,2.17.93,13.12,5.64,1.1.47,3.82,2.65,5.14,3.21C333.84,301.16,335.51,298.93,334.68,298.21Z"/><path d="M315,409.76s24.44,14,32.73,41.76a.44.44,0,0,1-.82.33c-.94-1.85-2.15-4.13-3.49-6.35-2.3-3.81-.8-.6-7.06-10.92,0,0-9.68-16.28-20.81-23.19S315,409.76,315,409.76Z"/><path d="M185.85,435.21c-1.2-3.57-.66-1.95-.36-11.95,0,0-.81-16,5-26.77"/><path d="M353.48,330.48c13.8,3.85,18.06,15.2,18,29.61,0,.46-.73.79-.83-.08-.68-5.78-.77-10.17-4-15.73-3.05-5.17-8.88-9.26-13.53-12.7C352.4,331.06,351.52,329.94,353.48,330.48Z"/><path d="M353.05,388.42c-13.13,10.69-31.28,9.41-51.26,2.87-.63-.21-.68-1,.58-.71,8.42,2,14.56,3.89,24.11,3.45,8.91-.42,17.87-3.82,25.27-6.45C352.87,387.19,354.91,386.91,353.05,388.42Z"/><path d="M283.69,347.71c3.64-14.42,15.91-20,31.7-21.67.5-.05.9.65-.05.85-6.32,1.36-11.12,2-17.07,5.92-5.55,3.69-9.78,10.06-13.37,15.16C284.36,348.74,283.17,349.75,283.69,347.71Z"/><path d="M250.53,319c6,13,.06,23.61-11,32.87-.35.29-1.08,0-.48-.68,4-4.26,7.27-7.16,9.4-13.25,2-5.67,1.33-12.76,1-18.54C249.39,318.51,249.68,317.12,250.53,319Z"/><path d="M243.76,353.91c-6.9,9.78-18.88,11.56-32.84,9.77-.44-.06-.59-.64.27-.61,5.77.21,10,.67,16.17-1.08,5.72-1.64,11-5.47,15.43-8.5C243.45,353,244.74,352.52,243.76,353.91Z"/><path d="M185.31,339c-8.85-8.06-9.13-20.18-5.63-33.82.11-.43.71-.51.57.34-.91,5.7-1.9,9.89-.92,16.2.91,5.88,4.06,11.62,6.52,16.37C186.22,338.77,186.56,340.11,185.31,339Z"/><path class="cls-3" d="M187.41,333.09c-6.48-15.26-8.82-35.93,22.18-41a20.62,20.62,0,0,1,17.76,5.74c6.94,6.7,16.67,17.53,20.41,28.62a15.74,15.74,0,0,1-5.3,17.52,56.61,56.61,0,0,1-18.88,9.13C208.82,356.82,193.88,348.34,187.41,333.09Z"/><path class="cls-4" d="M188.82,332.63c-6.25-14.32-8.54-33.71,21.29-38.41a20.22,20.22,0,0,1,17.11,5.41c6.68,6.29,16.06,16.46,19.68,26.86a14.53,14.53,0,0,1-5.08,16.43,54.85,54.85,0,0,1-18.16,8.55C209.46,354.93,195.06,347,188.82,332.63Z"/><path d="M231.11,334.24c.19-.05.16-.22.39-.12s.08.69,0,.95a5,5,0,0,0-.42,1.31c0,.87.69,1.18,1.38.55a8.78,8.78,0,0,0,.93-1.09,2,2,0,0,1,1.29-.76,8,8,0,0,0,1.15-.05,1.31,1.31,0,0,0,1.06-1.69c-.09-.29-.26-.45-.4-.79a1,1,0,0,1,.38-1.07,10.63,10.63,0,0,0,1-.81c.56-.6.34-1.5-.61-1.42a6,6,0,0,0-1.28.42c-.33.13-.87.16-1-.19a3.67,3.67,0,0,1,0-1c0-.71-.6-1.19-1.25-.75-.24.17-.41.47-.69.68s-.52-.07-.63-.37a4.25,4.25,0,0,0-.47-1c-.55-.69-1.31-.15-1.35.57a5.31,5.31,0,0,0,.11,1.15.75.75,0,0,1-.4.83c-.29.09-.63.09-.84.16-.56.19-1.79,1.29-1.39,1.85.15.22,1,.26,1.31.31s.75.31.68.62a3.85,3.85,0,0,0-.1.81A1,1,0,0,0,231.11,334.24Z"/><path d="M347.58,342c11,10.31,19.94,26.55-6.85,41.76a22,22,0,0,1-18.21,1.57c-8.57-3.07-21.08-8.56-28.16-16.39a13.15,13.15,0,0,1-.91-16.36,57.64,57.64,0,0,1,14.33-14.26C320.1,330,336.62,331.71,347.58,342Z"/><path class="cls-4" d="M347,342.2c10.63,9.79,19.26,25.28-7,40a21.81,21.81,0,0,1-17.77,1.63c-8.34-2.88-20.5-8-27.35-15.5a12.35,12.35,0,0,1-.77-15.65,56.71,56.71,0,0,1,14.06-13.75A31.6,31.6,0,0,1,347,342.2Z"/><path d="M313.49,363.86c.27-.06.23-.32.56-.17s.13,1,0,1.38a7.07,7.07,0,0,0-.61,1.87c0,1.26,1,1.71,2,.81a12.28,12.28,0,0,0,1.34-1.58,2.93,2.93,0,0,1,1.88-1.08,10.73,10.73,0,0,0,1.68-.07,1.86,1.86,0,0,0,1.53-2.42c-.13-.42-.38-.66-.59-1.15a1.48,1.48,0,0,1,.55-1.53c.43-.35,1.11-.83,1.42-1.16.81-.86.48-2.17-.9-2.06a8.78,8.78,0,0,0-1.86.6c-.49.19-1.27.23-1.4-.27a5.58,5.58,0,0,1,.05-1.38c0-1-.88-1.71-1.82-1.08-.36.24-.61.68-1,1s-.75-.1-.93-.54a6,6,0,0,0-.68-1.5c-.8-1-1.91-.22-2,.82a8.14,8.14,0,0,0,.16,1.65,1.06,1.06,0,0,1-.58,1.2c-.42.13-.91.12-1.22.23-.82.27-2.6,1.84-2,2.66.22.32,1.41.38,1.91.45s1.1.45,1,.9a5.49,5.49,0,0,0-.14,1.17A1.41,1.41,0,0,0,313.49,363.86Z"/><path d="M332,465.49s-33-94.11-100.61-98.1c0,0-38.9-4-31.69,48.39,0,0,12.2,61.82,78.5,61.81C278.23,477.59,316.15,479.69,332,465.49Z"/><path class="cls-5" d="M329.93,464.64s-31.87-91-97.26-94.84c0,0-37.62-3.86-30.64,46.78,0,0,11.79,59.77,75.89,59.76C277.92,476.34,314.58,478.37,329.93,464.64Z"/><path d="M268.53,380.72s-3,20.53-31.18,8.6c0,0-13.77-5.39-8.92-20a59.75,59.75,0,0,1,21,3.2S261,374.6,268.53,380.72Z"/><path d="M217.67,445.06c.57-.64,31.24-17.19,39.6-25.76,1.36-1.39.94-2.93-.49-4.21-1.23-1.09-1.59-1.06-4.93,0,0,0-17,9.49-32.48,2.21-2.22-1-4.77-3.77-6.46-5.52s-9.45-1.51-29.35,1.67c0,0-44.7,7.74-31.78-5.61,0,0,29.1-20.29,52.76-10.36,17.84,7.49,37.51,4.94,47,1.59a12.51,12.51,0,0,1,12.59,2.44c6.7,6.06,30.52,47.3,32.49,58.95C299.65,478.27,212.53,450.8,217.67,445.06Z"/><path class="cls-6" d="M219,445c.55-.62,30.87-16.82,38.94-25.23a3.37,3.37,0,0,0-.14-4.82c-1.2-1.09-3.19-1.85-6.43-.84,0,0-16.46,9.64-31.51,2.37a19.79,19.79,0,0,1-5.67-4.34c-1.78-1.88-7.67-4.85-27-1.82,0,0-45.78,10.64-33.3-2.45,0,0,30.94-18.4,54-8.46,17.36,7.49,34.56,3.67,43.78.42a12.09,12.09,0,0,1,12.23,2.48c6.54,6,29.91,46.83,31.89,58.33C298.84,478.2,214.09,450.6,219,445Z"/><path class="cls-7" d="M302.5,475.09a51.21,51.21,0,0,0,3.08-9.8,4.76,4.76,0,0,0-6.61-5.1c-6.46,2.8-17.91,6.74-25.44,3.54,0,0-26.7-6-45-21.5,0,0-11.13-10.34-15.3-15.71a2.84,2.84,0,0,0-4.21-.4c-2.88,2.94-2.52,6.28,3,14.48a79.42,79.42,0,0,0,17.6,20.14,73.08,73.08,0,0,0,29.7,13.74,107.13,107.13,0,0,0,11,1.57C281.38,477.14,297,477.09,302.5,475.09Z"/><path class="cls-7" d="M267.3,380.79s-2.53,19.25-28.48,7.81c0,0-12.67-5.19-8.35-18.86a53.88,53.88,0,0,1,19.29,3.19S260.33,375,267.3,380.79Z"/><path d="M236.16,392.09s5.58-4.24-.12-9.22c0,0-2.53-4.48-6.93,2.7,0,0-3.22,3,1.28,6.39C230.39,392,234.13,394.74,236.16,392.09Z"/><path class="cls-4" d="M235.88,391.71s5.13-3.88-.12-8.46c0,0-2.33-4.12-6.38,2.47,0,0-3,2.71,1.19,5.86C230.57,391.58,234,394.14,235.88,391.71Z"/><path d="M253.26,398.44s3.19-8.62-6-11c0,0-5.53-3.79-5.6,7.62,0,0-1.52,5.59,5.42,6.87C247.08,401.93,252.81,402.91,253.26,398.44Z"/><path class="cls-4" d="M252.46,398.39s2.79-8.11-5.58-10.47c0,0-5.06-3.65-5,7.14,0,0-1.31,5.27,5,6.56C246.89,401.62,252.1,402.61,252.46,398.39Z"/><path d="M219,432.77s4.79-6.52-3.45-9.88c0,0-4.47-3.94-6.87,5.33,0,0-2.59,4.31,3.74,6.43C212.46,434.65,217.7,436.33,219,432.77Z"/><path class="cls-4" d="M218.71,432.46s4.45-6-3.21-9.17c0,0-4.16-3.65-6.39,4.95,0,0-2.41,4,3.48,6C212.59,434.21,217.46,435.77,218.71,432.46Z"/><path d="M282.67,458.41s.46,8.18,8.83,6.86c0,0,5.87,1.13,1.87-8.23,0,0-.75-5.12-6.88-3.68C286.49,453.36,281.46,454.59,282.67,458.41Z"/><path d="M281.82,463.5s1.21-7.18-6.76-6.59c0,0-5.18-1.38-3.36,7.07,0,0-.33,4.52,5.6,3.68C277.3,467.66,282.18,466.92,281.82,463.5Z"/><path d="M254.22,457.36s4.37-5.8-3.13-8.77c0,0-4.06-3.49-6.25,4.75,0,0-2.36,3.83,3.39,5.7C248.23,459,253,460.53,254.22,457.36Z"/><path d="M242.52,451.2s4.43-5.7-3.15-8.6c0,0-4.1-3.41-6.35,4.68,0,0-2.4,3.77,3.43,5.59C236.45,452.87,241.26,454.32,242.52,451.2Z"/><path d="M268.13,460.36s2.84-5.92-4.23-7.39c0,0-4.14-2.49-4.67,5.29,0,0-1.41,3.83,3.94,4.58C263.17,462.84,267.59,463.41,268.13,460.36Z"/><path class="cls-4" d="M253.76,457s3.95-5.38-2.86-8.15c0,0-3.69-3.24-5.67,4.4,0,0-2.14,3.56,3.09,5.3C248.32,458.53,252.64,459.92,253.76,457Z"/><path class="cls-4" d="M283.34,458.25s.6,7.63,8.29,6.58c0,0,5.43,1.18,1.54-7.62,0,0-.8-4.78-6.43-3.58C286.74,453.63,282.13,454.67,283.34,458.25Z"/><path class="cls-4" d="M281.41,463.38s1.12-6.62-6.24-6.06c0,0-4.79-1.27-3.12,6.52,0,0-.31,4.17,5.18,3.39C277.23,467.23,281.74,466.54,281.41,463.38Z"/><path class="cls-4" d="M242,450.85s4-5.39-2.87-8.18c0,0-3.71-3.25-5.7,4.42,0,0-2.15,3.57,3.11,5.32C236.57,452.41,240.91,453.81,242,450.85Z"/><path class="cls-8" d="M267.76,460.54s2.47-5.4-3.81-6.8c0,0-3.7-2.3-4.11,4.8,0,0-1.22,3.5,3.54,4.23C263.38,462.77,267.3,463.33,267.76,460.54Z"/><path d="M232,444s4.28-5.87-3.1-8.91c0,0-4-3.55-6.15,4.81,0,0-2.31,3.89,3.36,5.8C226.11,445.71,230.8,447.23,232,444Z"/><path class="cls-4" d="M231.6,443.6s4-5.43-2.88-8.23c0,0-3.73-3.28-5.74,4.44,0,0-2.16,3.59,3.13,5.35C226.11,445.16,230.47,446.56,231.6,443.6Z"/><path class="cls-9" d="M422.51,279.69s-14,16.14-2.48,15.34,2.61,5.75-1,4.44S409,298,410.19,294s7.23-15.54,9.28-15S422.41,278,422.51,279.69Z"/><path class="cls-9" d="M390.8,316.35s11.69-17.9.36-15.54-3.36-5.34.36-4.53,10.2.14,9.53,4.24-5,16.39-7.15,16.14S391.12,318,390.8,316.35Z"/><path class="cls-9" d="M405.87,322s.11-21.38,8.25-13.16,5.76-2.6,2.2-4-8.58-5.51-10.28-1.72-4.83,16.45-2.94,17.4S404.69,323.17,405.87,322Z"/><path class="cls-9" d="M404.53,274.32s1.23,21.34-7.41,13.65-5.58,2.95-1.95,4.11,8.92,5,10.38,1.07,3.78-16.72,1.83-17.55S405.63,273.05,404.53,274.32Z"/></g></svg>
