<svg xmlns="http://www.w3.org/2000/svg" width="980" height="820" viewBox="0 0 980 820"><defs><style>.cls-1,.cls-6{opacity:0.3;}.cls-2{fill:#6cd362;}.cls-3{fill:#020202;}.cls-4{opacity:0.2;}.cls-5{fill:#e5ac73;}.cls-7{fill:#fff;}.cls-8{fill:#ffd9f8;}.cls-9{fill:#7c2268;}.cls-10{fill:#d6c230;}.cls-11,.cls-14{fill:#0a0a0a;}.cls-12{fill:#070707;}.cls-13{fill:#f4f4f4;}.cls-14{opacity:0.18;}</style></defs><g id="Layer_3" data-name="Layer 3"><path class="cls-1" d="M799,503.21C695.5,492.39,617.79,520.7,546.57,561.42c-10.48,4.68-18.65,8.87-23.66,12.17-23.79,12.71-40,23.9-43.9,30.21q-14.92,9.93-29.89,20c.09-10-5.43-20.63-17.07-28.51-20.65-11.46-49.24-28-65.66-20.32,5.55,24.52,35.46,44.28,49.78,49.55,6.08,1,11.61,5.62,16.95,10-12.36,8.19-24.84,16.32-37.56,24.23a61.34,61.34,0,0,0-8.37-2.1A78.73,78.73,0,0,0,368,655.13a72.37,72.37,0,0,0-15.53,1c-1,0-2.09.06-3.14.1,4.68-1.09,9.21-2.17,13.49-3.29,7.91-1.24,15.48-2.9,21.17-6,6-2.32,11.28-6.08,10.22-12.38h0a18.69,18.69,0,0,0-.66-7.69,38.68,38.68,0,0,0-1.35-5.55,32.08,32.08,0,0,0-8-4.4c-9.32-4.38-24.17-4.45-40.7-1.68A202.09,202.09,0,0,0,322.14,620c.6-.3,1.19-.61,1.76-.91,11.7-5,26.81-15,25.1-27h0a56.32,56.32,0,0,0-46.38-11.85A77.59,77.59,0,0,0,284.32,585a16.09,16.09,0,0,0,2.72-7.44,12.83,12.83,0,0,0-1-6.52c-10.53-7.38-23-8-35.24-4.65-8.45,1.63-16.17,4.78-20.23,9.16l-.37.24,0,0c1.45-5.84.49-10.35-2.1-13.69a28.51,28.51,0,0,0-3.28-4.13c-17.5-6.81-32.46-4.38-44,2.92-6.51,3.32-11.75,7.84-14.17,13.27-.26.35-.53.71-.79,1.08a33,33,0,0,0-11.15-15.38,28.62,28.62,0,0,0-5.94-4c-27.21-8.1-39.68,8.78-40.85,28.86l-1.27-.43A33.49,33.49,0,0,0,94.79,581c-.86,0-1.7,0-2.52,0-10-1-17.46,2-21.83,7.42-5.82,5.88-6.12,14.58-2.67,23.64a44.61,44.61,0,0,0,4.1,8.76l-.72-.4a35.45,35.45,0,0,0-6.71-3.31c-.4-.39-.8-.78-1.18-1.17-3.48-1.58-8.37-2.08-13.48-1.78a45.22,45.22,0,0,0-7.18.21c-.94.43-1.84.87-2.7,1.31a35.8,35.8,0,0,0-9.39,3.63c-1.79,2.71-2.62,4.61-2.46,5.86-8.1,11.5.79,25,16,34.62A55.52,55.52,0,0,0,30.5,659a48.93,48.93,0,0,0-8.38.08c-3.46-1.62-8.69,1.17-12.42,3.05-1,.41-2.06.86-3.1,1.36h0L5.51,664.9a8.58,8.58,0,0,0-4,5.27L0,672.11a31.8,31.8,0,0,0,1.87,5.48c.06.2.12.41.19.61.69,5.63,4.49,10.35,10.24,14.11a23.45,23.45,0,0,0,10.83,5.56l.09,0h.05l3.93,1c3,.89,6.13,1.64,9.37,2.26,2.75.63,5.21,1.16,7.4,1.59a80.74,80.74,0,0,0-7.68,4.19c-5.21,1.92-11.2,6.8-16.16,12.62-7.7,6.69-12,13.67-10.51,20.16a11.43,11.43,0,0,0,.23,1.93,9.1,9.1,0,0,0,.65,2.9c4.45,6.82,9.6,9.67,15.23,10.06,1.36.4,2.81.78,4.37,1.13A4.18,4.18,0,0,0,31,756a6.23,6.23,0,0,0,.77,0,8.74,8.74,0,0,0,1.12-.07l.1,0c.21,0,.41-.06.62-.11a23.41,23.41,0,0,0,8-3.55L44,750.55a24.41,24.41,0,0,0,2.86-1.45c5.3-1,10.55-3.82,15.89-7.12,1.66-.79,3.08-1.51,4.29-2.18l-.66.75c-6.65,5-10.7,13.26-11.4,21.65-1.79,7.23-.52,13.95,4.76,19.11,2.73,3.44,6.77,6.14,12.29,7.75a37.15,37.15,0,0,0,12,1.64h.1c6-1.46,9.38-4.85,11.94-9.15l.13-.12A20.21,20.21,0,0,0,102,777.9a38.74,38.74,0,0,0,.73,17.63,42.54,42.54,0,0,0,3.34,10.4,23.87,23.87,0,0,0,4.13,3.83,28.5,28.5,0,0,0,11.42,7.14,41.7,41.7,0,0,0,6,2.14,48.09,48.09,0,0,0,8.61.88c3.51.28,6.49-.13,8.4-1.48a12.33,12.33,0,0,0,2.84-1.69l.05,0a12.93,12.93,0,0,0,1.46-1.4c1.89-2.13,3.12-4.8,2.94-6h0v0c-.09-.48-.19-.95-.27-1.42a12.31,12.31,0,0,0,1.91-3.45c1.8-1.95,3-4.44,2.82-5.53h0v0c-.14-.65-.26-1.29-.37-1.92.61-5.33-.84-11.47,0-18,.31-1,.66-1.82,1-2.6.76-1,1.45-1.94,2-2.77l.41-.51a14.14,14.14,0,0,0-.54,2.94c-.59,2.56.06,5.94,1.79,9.69,2,11.81,12.9,21.22,28.21,26.95a62.77,62.77,0,0,0,26.68,6.83,96.56,96.56,0,0,0,38.88-4.06c7.17-2.55,10.61-5,11.34-7.46,1.09-2,.51-4.23-2.53-6.47a2.14,2.14,0,0,0,.13-.48,2.25,2.25,0,0,0,.08-.24,94.36,94.36,0,0,0,18.89,1c9.51.94,18,.77,24.22-1,11.36-1.64,21.05-5.54,27.52-12.48.2-.32.38-.63.55-.94,1.58-1.87,2.3-3.74,1.66-5.42a6.54,6.54,0,0,0-2.56-5.18l-.52-.54h-.18A14,14,0,0,0,331,775c6.92-2.67,12.83-6.56,17.16-11.94,3.61-6.59,1.65-10.14-2.26-12.08,10.3-1.84,19.5-4.77,26.57-8.76.56-.3,1.13-.65,1.71-1,6.78-1.13,14.92-11.76,4.37-16.61l-.19-.13a86.74,86.74,0,0,0,9.84-3.4c1.8-.52,3.82-1.08,6.11-1.71.8-.59,1.56-1.16,2.29-1.73A34.7,34.7,0,0,0,407.15,708h0c6.13-5.24,5.87-9.28,2.27-12.35l.08,0c13.21-9.28,30.17-18.76,49.75-28.08,14.13,10.61,44.65,21.65,47.27,31.39C522,717,573.22,759.63,645.44,762.28c30.73-2.89-33.31-72.74-61.34-89a122.6,122.6,0,0,0-80.82-18,108,108,0,0,1-11.95-1.85c104.35-43,254.82-78.19,331-66.84C873.13,584.82,849.75,521,799,503.21Z"/><path d="M822.25,302.31c.3-3.29-3.12-5.76-6.59-4.76-7.06,2-17.82,4.53-25.56,3.69-11.46-1.25-40.57,3.71-58.34,22.68-2.37,2.52,2.6,5.17,4,5.68,9.9,3.7,28.91,6.73,46.26,3.37,10.79-2.09,22.13-9.18,26.53-17.78a4.87,4.87,0,0,1,1.41-1.66l10.43-7.92a4.72,4.72,0,0,0,1.89-3.3Z"/><path class="cls-2" d="M819.39,303c.29-3.09-2.91-5.41-6.17-4.47-6.61,1.9-16.69,4.25-24,3.46-10.73-1.17-38,3.48-54.66,21.25-2.21,2.36,2.44,4.85,3.73,5.32,9.28,3.47,27.08,6.31,43.34,3.16,10.1-2,20.74-8.6,24.85-16.66a4.69,4.69,0,0,1,1.32-1.56l9.77-7.41a4.37,4.37,0,0,0,1.77-3.09Z"/><path class="cls-3" d="M821.66,238.87c3.62,3.86,6.82,2.26,16.8,18.68C878.84,324,842.8,373.32,835.32,441c-3.73,33.7,11.1,85.68,19.48,117.69,6.11,45.78-68.47,25-88.07,7.37-41.61-112,12.27-155.52,42.18-257.33,7.41-25.23,5.84-52.44-32.93-64.28-10.77-3.29,15.68-32.51,30.41-16.18C808.52,230.65,813.69,230.35,821.66,238.87Z"/><path class="cls-2" d="M797.55,227.34c40.22,14,44.88,44.06,52.16,74,14.75,60.69-15.47,98.89-20.77,155.31C826.47,491,862.19,594.9,849.84,561c7,39-63.11,15.69-78.1,1.22-36.07-90.46-4-145.64,33.34-224,9.24-19.42,6.4-30.13,11.23-51.06,2.63-11.39-18.78-38.33-21.14-40.74C779.85,230.75,777.86,220.46,797.55,227.34Z"/><path class="cls-1" d="M850.52,561.4c2.91,8.43-1.88-20-5.52-29.41-3.18-4.5-2.24-10-4.63-14.85-8.92-18.18-14.91-37.4-21.88-56.39-8.09-26.3-5.09-44.15-2.9-70.41,2-13.47,4-25.45,3.48-39.45s-3.72-29.18-7.93-42.53c-22.48,98.26-79.88,132.79-44.84,248.78C777,592.6,857.28,590.38,850.52,561.4Z"/><path class="cls-3" d="M831,295a9.73,9.73,0,0,1,15.34-4.84c10.89,8.62,28,20.66,42.3,24.18,21.21,5.22,74,27.78,90.73,76.37,2.23,6.47-1.94,8.49-4.75,8.57-20.35.55-68.57-6.29-96.64-24.38-17.44-11.23-31.55-26.2-32.67-45.79a9.67,9.67,0,0,0-1.21-4.17l-12.3-22.28A9.89,9.89,0,0,1,831,295Z"/><path class="cls-2" d="M835.3,297.25a8.63,8.63,0,0,1,13.64-4.32c9.7,7.72,24.91,18.5,37.66,21.67,18.88,4.68,65.86,24.9,80.79,68.39,2,5.78-1.72,7.59-4.22,7.66-18.11.48-61-5.68-86-21.88-15.53-10.06-28.1-23.46-29.1-41a8.88,8.88,0,0,0-1.08-3.72L836,304.1a8.89,8.89,0,0,1-.71-6.85Z"/><g class="cls-4"><path class="cls-5" d="M749.34,45.06c3.74,1.39,7.41,3,11,4.71,4.43,2.1,8.73,4.5,13.18,6.55,4.45,1.76,9,3.2,13.51,4.91.06-15.78,1.9-24.14,12.87-42,1.15-1.87,3.11-7.13,1.23-8.92-11.95-11.39-7.31-8-15-10.11-.9-.25-5.86-.56-8.46,1.48-19.38,15.26-26.78,27.16-29.5,43Z"/><path class="cls-5" d="M796.91,65.91a45,45,0,0,1,10.7,9.19c1.32,1.54,2.55,3.13,3.81,4.71,7.88-18,11.39-22.05,30.9-33.5,1.7-1,5.07-6.41,4.48-9.37-.45-2.26-.2-5.85-6.54-10.62-.74-.56-17.21-5.46-20.08-4.23-26,11.14-30.41,18.38-38.24,37.28A80,80,0,0,1,796.91,65.91Z"/><path class="cls-5" d="M814,83c5,5.71,10.84,10.48,16.24,15.75q2,2,3.88,4a3.1,3.1,0,0,0,.43-.39c16.54-17.52,20.06-20.15,44.16-24.49,2-.35,7-4.26,7.46-7.24.37-2.28,1.85-5.56-2.44-12.22-.5-.78-14.25-11.06-17.37-10.9-33.08,1.71-36.52,8.64-56.61,30.22C811.19,79.51,812.56,81.29,814,83Z"/><path class="cls-5" d="M902.66,125.54c-13.74-32.43-11-25.43-40.77-34.93-8.56-2.74-24.77,6.6-27.77,12.11a70.28,70.28,0,0,1,5.39,6.8,56,56,0,0,1,5.7,11.66c.39,1,.74,1.95,1.09,2.93,19.19,4.37,26,12.61,41.51,28.67,1.37,1.43,7.1,6,9.86,4.76,2.1-1,5.27-3.66,7.16-11.35C906,141.32,904.72,130.4,902.66,125.54Z"/><path class="cls-5" d="M898.82,190.83c-2.19-36.28-2-28.68-30.44-60.12-5.27-5.84-15.93-10.36-24.3-12.34.39.94.76,1.87,1.13,2.81,2.31,5.84,3.8,11.95,6,17.81,2.82,6.38,6.17,12.49,9.19,18.78A327.48,327.48,0,0,1,877.35,200c1.23,3.83,2.37,7.69,3.45,11.57l.13.05c2.65,1,7.14,1.44,12.18-3C896.3,205.8,899.15,196.27,898.82,190.83Z"/><path class="cls-5" d="M860.45,157.77A327.48,327.48,0,0,1,877.35,200c.4,1.25.79,2.5,1.18,3.76,2-26.16.27-22.79-18.56-47Z"/><path class="cls-5" d="M707.19,34.08c11.56,1.86,22.85,5.07,34.06,8.42,2.71.81,5.43,1.57,8.09,2.56,2.32.86,4.61,1.81,6.88,2.81-1-6.26-5.65-10.89-14.51-25.3-5.18-8.44-22.87-9.32-30.42-8.31l-7.39,7c-.61,1.86-2.66,8-2.89,11.85Q704.12,33.58,707.19,34.08Z"/><path class="cls-5" d="M749.34,45.06c3.74,1.39,7.41,3,11,4.71,4.43,2.1,8.73,4.5,13.18,6.55,3.76,1.49,7.63,2.75,11.44,4.14.45-12.38,2.85-20.43,12.25-35.8,1.1-1.8,3-6.85,1.18-8.56C787,5.16,791.41,8.39,784,6.38c-.86-.23-5.61-.53-8.1,1.43C759.12,21,751.72,31.65,748.52,44.76Z"/><path class="cls-5" d="M796.91,65.91a45,45,0,0,1,10.7,9.19c.91,1.06,1.79,2.16,2.65,3.25,6.29-13.59,10.64-17.69,27.58-27.66,1.63-1,4.86-6.16,4.3-9-.44-2.17-.2-5.61-6.27-10.2-.71-.54-16.48-5.24-19.24-4.06-23,9.89-28.36,16.57-35,31.85A80.53,80.53,0,0,1,796.91,65.91Z"/><path class="cls-5" d="M814,83c5,5.71,10.84,10.48,16.24,15.75,1,1,1.94,1.94,2.87,2.94C846.76,87.41,851,84.94,872.73,81c1.87-.34,6.7-4.1,7.15-7,.35-2.19,1.77-5.34-2.34-11.74-.48-.75-13.64-10.62-16.64-10.47-29.95,1.56-34.53,7.59-51.21,25.77C811.12,79.43,812.53,81.25,814,83Z"/><path class="cls-5" d="M895.64,126.79c-13.16-31.14-10.58-24.43-39.06-33.55-6.6-2.11-17.94,3.28-23.61,8.23a69.83,69.83,0,0,1,6.54,8,56,56,0,0,1,5.7,11.66c.75,1.89,1.41,3.81,2,5.74,14.31,4.5,20.94,12.28,34.16,26,1.32,1.36,6.81,5.77,9.44,4.57,2-.92,5.06-3.52,6.87-10.91C898.86,142,897.61,131.46,895.64,126.79Z"/><path class="cls-5" d="M851.26,139c2.82,6.38,6.17,12.49,9.19,18.78A327.48,327.48,0,0,1,877.35,200q1.57,4.9,3,9.88a13.52,13.52,0,0,0,6.16-3.3c3-2.69,5.79-11.84,5.47-17.07-2.1-34.85-1.93-27.55-29.16-57.75-3.87-4.3-10.79-7.85-17.42-10.14C847.59,127.32,849.06,133.28,851.26,139Z"/><path class="cls-5" d="M873.1,187.63c-.28-6.53-2-10-6.18-15.58Q870.21,179.76,873.1,187.63Z"/><path class="cls-5" d="M707.19,34.08c11.56,1.86,22.85,5.07,34.06,8.42,2.71.81,5.43,1.57,8.09,2.56,1.37.51,2.73,1,4.09,1.61-2.2-4.19-6.12-9.27-11.95-18.78-5-8.11-21.91-9-29.14-8l-7.08,6.77c-.38,1.14-1.31,3.95-2,6.79Z"/><path class="cls-5" d="M760.36,49.77c4.43,2.1,8.73,4.5,13.18,6.55,4,1.57,8,2.88,12,4.36.76-10.15,3.42-17.8,11.51-31.2,1-1.74,2.84-6.62,1.13-8.28-10.94-10.58-6.69-7.46-13.77-9.4-.82-.23-5.36-.51-7.72,1.38-14.7,11.75-21.86,21.36-25.3,32.68C754.45,47.05,757.42,48.38,760.36,49.77Z"/><path class="cls-5" d="M796.91,65.91a45,45,0,0,1,10.7,9.19c1.06,1.24,2.08,2.52,3.09,3.8,5.42-11.19,10-15.24,25.13-24.24,1.56-.93,4.64-6,4.1-8.71-.41-2.1-.18-5.43-6-9.87-.68-.51-15.74-5.06-18.36-3.92-20.45,8.88-26.27,15.1-32,27.79A72.53,72.53,0,0,1,796.91,65.91Z"/><path class="cls-5" d="M814,83c5,5.71,10.84,10.48,16.24,15.75q1.59,1.55,3.07,3.15c11.47-12,16.17-14.29,35.79-17.88,1.78-.33,6.39-4,6.82-6.73.33-2.12,1.68-5.16-2.23-11.36-.46-.72-13-10.27-15.89-10.12-27.55,1.45-32.6,6.92-47.18,23.06C811.76,80.25,812.87,81.64,814,83Z"/><path class="cls-5" d="M891,128.26c-12.56-30.12-10.09-23.63-37.27-32.45-5.51-1.79-14.5,2-20.28,6.17a69.5,69.5,0,0,1,6.07,7.54,56,56,0,0,1,5.7,11.66c1.09,2.75,2,5.55,2.88,8.37,11.48,4.49,17.76,11.83,29.33,24,1.25,1.33,6.49,5.59,9,4.42,1.93-.89,4.82-3.4,6.55-10.54C894.07,142.93,892.88,132.78,891,128.26Z"/><path class="cls-5" d="M851.26,139c2.82,6.38,6.17,12.49,9.19,18.78A327.48,327.48,0,0,1,877.35,200q1.18,3.67,2.26,7.38a15.19,15.19,0,0,0,2.65-1.94c2.92-2.6,5.53-11.46,5.23-16.52-2-33.7-1.84-26.63-27.83-55.85-3-3.41-8-6.33-13.2-8.49C848.12,129.36,849.44,134.26,851.26,139Z"/><path class="cls-5" d="M741.25,42.5c2.71.81,5.43,1.57,8.09,2.56,1.11.41,2.21.84,3.31,1.29-2.14-3.34-5-7.58-8.78-13.75-4.74-7.84-20.91-8.66-27.81-7.72l-6.75,6.55c-.19.58-.53,1.61-.9,2.85C719.54,36.17,730.44,39.26,741.25,42.5Z"/></g><g class="cls-6"><path class="cls-7" d="M760.2,35.26C770,38,780,41.43,787.84,48.21c-1-10.76,17.06-31.45,13.32-37.92-12-11.39-7.32-8-15.06-10.11-.9-.25-5.86-.56-8.46,1.48C765.41,12.19,740.05,34.1,760.2,35.26Z"/><path class="cls-7" d="M803.27,63.49c3.46,3.57,7.19,6.86,11,10.07,6.32-20.6,31.64-22.24,32.55-36.62-.46-2.26-.21-5.85-6.55-10.62-19.49-12.11-47.89,8.26-53,21.41C793.06,52.41,798.09,58.12,803.27,63.49Z"/><path class="cls-7" d="M883.77,58.43c-23.34-22.78-55.34-4.8-69.84,14.85,4,3.43,8.18,6.77,12.16,10.26,24.7,26.47,8.86-1.19,52.66-5.65C885.9,74.44,890.06,68.87,883.77,58.43Z"/><path class="cls-7" d="M902.66,125.54c-13.74-32.43-11-25.43-40.77-34.93-5.92-1.89-15.5,2-21.84,6.39,2.23,2.42,4.37,4.93,6.38,7.55a98.2,98.2,0,0,1,14.7,24.82c9.39,4.93,16,12.3,26.68,23.41C904,169.5,908.65,137.52,902.66,125.54Z"/><path class="cls-7" d="M898.82,190.83c-2.19-36.28-2-28.68-30.44-60.12a34.4,34.4,0,0,0-9.75-7c12.15,27.59,21.86,56.65,24.75,86.86.15,3.85,6.26.88,9.73-2C896.3,205.8,899.15,196.27,898.82,190.83Z"/><path class="cls-7" d="M704.38,23c14.66,1.79,29,5.74,43.39,9-1.74-2.63-3.76-5.71-6.06-9.45-5.18-8.44-22.87-9.32-30.42-8.31-.76,1-8.27,7.12-7.91,8.65Z"/><path class="cls-7" d="M760.2,35.26c9.31,2.65,18.87,5.8,26.49,12-.31-6.88,15.23-25.15,11.72-31.18C787,5.16,791.41,8.39,784,6.38c-.86-.23-5.61-.53-8.1,1.43C764.27,17,757.14,24.9,752.8,33.26,755.28,33.89,757.74,34.55,760.2,35.26Z"/><path class="cls-7" d="M803.27,63.49c3.12,3.21,6.45,6.2,9.86,9.11,4.7-14.27,29-18.56,29-30.91-.44-2.17-.2-5.61-6.27-10.2-17.9-10.65-41.54,5.19-48.36,16.45C793.21,52.58,798.16,58.2,803.27,63.49Z"/><path class="cls-7" d="M826.09,83.54c22.23,23.25,8.08,1.54,46.65-2.51,1.86-.34,6.69-4.1,7.14-7,.35-2.19,1.77-5.34-2.34-11.74-19.72-20.78-52.07-5.6-63.75,10.83C817.88,76.64,822.07,80,826.09,83.54Z"/><path class="cls-7" d="M895.64,126.79c-13.16-31.14-10.58-24.43-39.06-33.55-4.47-1.43-11.11.58-16.7,3.57a111.71,111.71,0,0,1,23.75,38.76c7.59,4,16.1,21.09,27.22,22C898.89,154.75,899.64,134.89,895.64,126.79Z"/><path class="cls-7" d="M892,189.5c-1.64-34.64-3.33-29.23-30.34-58.94,10.37,25.05,18.85,51.14,21.58,78.29C889.28,206.31,892,196.63,892,189.5Z"/><path class="cls-7" d="M742.84,30.86l.57.13c-4-10.68-28.55-16-34.91-7.41C720.07,25.28,731.46,28.25,742.84,30.86Z"/><path class="cls-7" d="M760.2,35.26c9.82,2.76,19.87,6.2,27.7,13,.19-5.9,13.43-20.61,10.31-27.06-10.94-10.58-6.69-7.46-13.77-9.4-.82-.23-5.36-.51-7.72,1.38-9.48,7.58-15.82,14.26-20.05,21.09C757.85,34.59,759,34.92,760.2,35.26Z"/><path class="cls-7" d="M803.27,63.49c16.46,17.82,7.16,3.38,32.57-8.83,1.55-.93,4.63-6,4.09-8.71-.41-2.1-.18-5.43-6-9.87-16.84-9.67-36.63,3.36-44.48,13.53C794.37,53.89,798.76,58.82,803.27,63.49Z"/><path class="cls-7" d="M826.09,83.54c22.1,22.52,8,4.35,43,.46,1.78-.33,6.39-4,6.82-6.73.33-2.12,1.68-5.16-2.23-11.36-17.13-19.28-48.8-6.12-58.78,8.23C818.67,77.27,822.44,80.34,826.09,83.54Z"/><path class="cls-7" d="M891,128.26c-12.56-30.12-10.09-23.63-37.27-32.45-3.48-1.13-8.36,0-12.94,2,11.76,12.5,19.63,27.83,25.29,44,5.62,4.09,11.57,16.17,20.36,16.22C894.13,155.28,894.8,136.06,891,128.26Z"/><path class="cls-7" d="M876.18,172a233.69,233.69,0,0,1,6.56,33c12-26,2.06-48-17.79-66A328,328,0,0,1,876.18,172Z"/><path class="cls-7" d="M742.44,30.77c-6-6.11-20-6.74-26.3-5.9C725,26.55,733.7,28.76,742.44,30.77Z"/></g><path d="M830.29,284.45c-.77-1.73-54.54-26.17-64.76-26.36"/><path class="cls-1" d="M847.39,565c-2-2.06-4.39-20.94-7.52-28.48a4.94,4.94,0,0,0-.63-1.06c-3.37-4.28-6.85-8.64-9.36-13.47-9.71-18.69-17.3-38.18-24.75-57.84,0-.1-.07-.2-.1-.3-7.11-22.38-7-45.22-6.77-68.49,0-.14,0-.27,0-.4.87-8.55.9-17.69,1.93-26.08,0-.09,0-.17,0-.26a4.78,4.78,0,0,0-8.9-3c-34.43,59.75-47.08,131.79-22.31,197.86a4.85,4.85,0,0,0,1.37,2c16.13,13.95,77.62,33.74,78.67,3.33A5.25,5.25,0,0,0,847.39,565Z"/><path d="M846.77,307.37c1-.25,28,16.38,54.44,33.45,24.58,15.86,44,32.65,46.33,36.12"/><path d="M801.15,10.29c-11.95-11.39-7.31-8-15-10.11-.9-.25-5.86-.56-8.46,1.48-32,25.2-31.34,41.26-30.85,80.88,0,3.2-1.76,3.94,3.16,2.77,31-7.35,7-4.24,33.33-4.4,4.16,0,4-1.09,4-3.31-.44-28-1.55-35.23,12.66-58.39C801.07,17.34,803,12.08,801.15,10.29Z"/><path d="M846.8,36.94c-.45-2.26-.2-5.85-6.54-10.62-.74-.56-17.21-5.46-20.08-4.23C788,35.86,788.93,43.66,775.49,74.9c-1.09,2.53-3,2.37,1.91,3.45,30.91,6.82,25.19,6.12,26.28,6.6,3.81,1.67,5,1.32,5.72-.43,9.43-22.15,11.82-25.83,32.92-38.21C844,45.31,847.39,39.9,846.8,36.94Z"/><path d="M886.21,70.65c.37-2.28,1.85-5.56-2.44-12.22-.5-.78-14.25-11.06-17.37-10.9-35,1.81-36.82,9.46-60.28,34.13-1.9,2-3.63,1.19.59,3.89,26.63,17.07,21.5,14.43,22.37,15.26,3,2.89,4.2,3,5.51,1.57,16.54-17.52,20.06-20.15,44.16-24.49C880.7,77.54,885.74,73.63,886.21,70.65Z"/><path d="M838.86,118.56a8.27,8.27,0,0,0,6,5.24c20.27,4.29,27.05,12.54,42.91,29,1.37,1.43,7.1,6,9.86,4.76,2.1-1,5.27-3.66,7.16-11.35,1.19-4.87-.11-15.79-2.17-20.65-13.74-32.43-11-25.43-40.77-34.93-9.48-3-28.33,8.73-28.25,13.73Z"/><path d="M832.57,133.74c0,2.86,1.71,6.24,4.49,8.95,20.24,19.76,24.34,31.64,35.07,57.25.93,2.22,5.34,10.42,8.8,11.67,2.65,1,7.14,1.44,12.18-3,3.19-2.81,6-12.34,5.71-17.78-2.19-36.28-2-28.68-30.44-60.12-9.06-10-34-16.17-35.9-12.23Z"/><path d="M824.53,156.93a10.72,10.72,0,0,0,3,8.21c16.06,18.12,18.29,29,24.82,52.53.56,2,3.55,9.56,6.57,10.71,2.32.88,6.39,1.31,11.61-2.77,3.31-2.58,7.18-11.34,7.59-16.34,2.72-33.31,1.9-26.33-20.17-55.17-7-9.2-29.24-14.81-31.47-11.19Z"/><path d="M703.9,21.31c-.81,2.46-4.13,12.4-2.43,14.67,12.35,16.59,21.3,24.37,23.44,46.22.18,1.89,1.73,8.86,4.47,9.87,2.09.77,6,1.07,11.76-2.87,3.67-2.49,9-10.77,10.29-15.46C760,42.5,758,49.05,741.71,22.57c-5.18-8.44-22.87-9.32-30.42-8.31Z"/><path d="M661.65,60.32c.6,2.5,3,12.59,5.61,13.66,19.19,7.8,30.88,9.86,44.14,27.29,1.14,1.51,6.11,6.63,9,6.1,2.19-.41,5.64-2.11,8.52-8.38,1.82-4,2-13.69.67-18.31-9-30.83-7.34-24.24-35-38.44-8.84-4.53-24.35,3.68-30.25,8.36Z"/><path d="M638.25,105.81c1.65,2.29,8.29,11.55,11.19,11.41,21.1-1,32.77-4.41,52.65,7.26,1.72,1,4.38-.5,6.77-2.39,1.83-1.44,5.85-2.9,5.72-10.71-.08-4.93-.36-13.77-4.87-16.61-32-20.12-20.36-14.48-52.12-16-10.13-.49-17.88,8.28-21.24,15.86Z"/><path d="M623.47,150.09c2.41,1.34,12.12,6.75,14.92,5.47,20.47-9.4,30.82-17.06,54.41-14.87,2,.19,4.14-2.19,5.85-4.81,1.31-2,4.78-4.89,2-11.67-1.76-4.28-5.06-11.89-10.48-12.55-38.43-4.69-25-4.46-56.85,7-10.16,3.65-14.81,14.44-15.54,22.42Z"/><path d="M640.37,201.51c1.78,1.16,14.45,1.49,16,0,5.38-5.32,6.62-5.79,8.14-7.59C679,176.75,689,168.72,712,161.32c2-.64,2.8-3.75,3.12-6.93.25-2.43,2.08-6.58-3.81-11.9-3.72-3.37-10.49-9.29-15.87-7.73-38.12,11-30.56,3.47-54.71,27.16-6,5.94-10.71,13.5-9.19,20.81.69,3.3,5.95,16.94,8.79,18.78Z"/><path d="M665.48,239.53c1.75.5,12.66-3.22,13.64-5.07,3.54-6.61,4.51-7.44,5.45-9.58,9-20.42,15.94-31,34.19-45.15,1.58-1.22,1.64-4.34,1.29-7.37-.27-2.32.46-6.71-5.63-9.74-3.86-1.92-10.83-5.21-15.12-2.07-30.4,22.25-25.44,12.91-41.37,42.4-4,7.4-6.47,15.84-3.71,22.08,1.25,2.83,8.47,13.71,11.26,14.5Z"/><path d="M698.83,276.39c2.2.15,14.11-6.64,14.78-9,2.38-8.31,3.31-9.48,3.84-12.12,5.09-25.23,10.44-38.82,28.2-59.14,1.53-1.76.76-5.3-.48-8.65-.95-2.55-1.28-7.7-9.32-9.69-5.09-1.25-14.24-3.34-18.47,1.23-30,32.34-26.61,20.61-37.45,57.73-2.71,9.31-3.35,19.44,1.62,25.86,2.24,2.9,13.75,13.5,17.28,13.74Z"/><path d="M750.39,294.77c2.18-.35,10.16-4.93,10.3-7.62.51-9.62,1.16-11.12,1.1-14.12-.54-28.71,1.7-44.79,14.53-71.1,1.11-2.27-.41-6-2.34-9.32-1.48-2.57-2.92-8.11-11.16-8.41-5.21-.18-14.55-.32-17.66,5.64-22,42.27-21.36,28.7-23.81,71.72-.62,10.79,1,22,7.18,27.84,2.81,2.64,4.7,8.44,8.17,7.88Z"/><path d="M853.08,250.84c-2.77,6.51-5.65,11-13.94,7.56-2-.82-3.84-3-6.23-5.63-24.06-26.89-24.58-51.09-26.67-86.74-.21-3.54,1.3-2.93,2.94-4.24,7-5.64,3.06.73,20,8.45,15.67,7.14,23.66,33,24.37,35.44,7.16,24.67,1.13,3.75,5.13,29.51C859.1,237.75,855.44,245.29,853.08,250.84Z"/><path d="M826.69,282.11c-4.12,5-7.91,8.18-15.19,3.72-1.73-1.06-3.08-3.22-4.81-5.93-17.43-27.21-12.61-47.7-6.79-78.12.58-3,1.91-2.22,3.79-3,8-3.42,2.81,1.2,17.57,10.92,13.63,9,15.7,32.27,15.85,34.47,1.51,22.14.27,3.37-1.52,25.83C835.41,272.22,830.2,277.88,826.69,282.11Z"/><path d="M792.93,298.29c1.86-.54,9.58-11.76,9.42-14.52-.58-9.89-.18-11.47-.55-14.54-3.54-29.32-3.3-46,5.09-73.89.73-2.42-1-6.07-3-9.35-1.57-2.51-3.41-8.06-10.64-7.7-4.57.23-18.05,4.69-20.13,11-14.75,45-10.28,27.22-7.82,71.43.61,11.08,3.19,22.42,9.24,27.89,2.74,2.48,15.46,10.49,18.43,9.64Z"/><path class="cls-8" d="M798.41,16.1C787,5.16,791.41,8.39,784,6.38c-.86-.23-5.61-.53-8.1,1.43-30.67,24.2-30,39.63-29.55,77.68,0,3.08-1.69,3.78,3,2.66,29.71-7.06,6.67-4.07,31.93-4.22,4,0,3.84-1.05,3.81-3.19-.41-26.93-1.48-33.83,12.13-56.08C798.33,22.86,800.2,17.81,798.41,16.1Z"/><path class="cls-8" d="M842.14,41.69c-.44-2.17-.2-5.61-6.27-10.2-.71-.54-16.48-5.24-19.24-4.06-30.84,13.22-29.93,20.72-42.8,50.72-1,2.43-2.86,2.28,1.83,3.32,29.6,6.55,24.12,5.87,25.17,6.33,3.65,1.61,4.76,1.28,5.48-.41,9-21.27,11.32-24.8,31.53-36.7C839.47,49.73,842.7,44.53,842.14,41.69Z"/><path class="cls-8" d="M879.88,74.07c.35-2.19,1.77-5.34-2.34-11.74-.48-.75-13.64-10.62-16.64-10.47C827.39,53.6,825.64,61,803.17,84.64c-1.82,1.92-3.48,1.15.57,3.74,25.5,16.39,20.59,13.86,21.42,14.66,2.86,2.77,4,2.84,5.28,1.5C846.28,87.71,849.66,85.19,872.73,81,874.6,80.69,879.43,76.93,879.88,74.07Z"/><path class="cls-8" d="M834.53,120.09a7.9,7.9,0,0,0,5.78,5c19.42,4.12,25.91,12,41.1,27.84,1.32,1.36,6.81,5.77,9.44,4.57,2-.92,5.06-3.52,6.87-10.91,1.14-4.67-.11-15.16-2.08-19.83-13.16-31.14-10.58-24.43-39.06-33.55-9.07-2.91-27.13,8.39-27.06,13.19Z"/><path class="cls-8" d="M828.5,134.67c0,2.74,1.64,6,4.3,8.59,19.39,19,23.32,30.39,33.6,55,.89,2.13,5.1,10,8.43,11.21,2.53.93,6.83,1.38,11.66-2.89,3-2.69,5.79-11.84,5.47-17.07-2.1-34.85-1.93-27.55-29.16-57.75-8.68-9.63-32.6-15.53-34.39-11.74Z"/><path class="cls-8" d="M820.8,156.94a10.34,10.34,0,0,0,2.84,7.89c15.38,17.4,17.51,27.87,23.77,50.45.54,1.95,3.4,9.18,6.3,10.29,2.22.84,6.11,1.25,11.11-2.67,3.17-2.48,6.88-10.88,7.27-15.69,2.61-32,1.82-25.29-19.32-53-6.74-8.83-28-14.22-30.14-10.75Z"/><path class="cls-8" d="M705.26,26.68c-.78,2.37-4,11.91-2.33,14.09,11.83,15.93,20.4,23.41,22.45,44.39.18,1.82,1.66,8.51,4.28,9.48,2,.74,5.71,1,11.27-2.75,3.52-2.4,8.62-10.35,9.86-14.85,8.24-30,6.27-23.71-9.31-49.15-5-8.11-21.91-9-29.14-8Z"/><path class="cls-8" d="M664.79,64.14c.57,2.4,2.85,12.1,5.37,13.13,18.39,7.49,29.58,9.47,42.28,26.21,1.1,1.45,5.86,6.37,8.59,5.86,2.09-.39,5.4-2,8.16-8,1.74-3.82,1.93-13.15.64-17.59-8.65-29.61-7-23.28-33.58-36.92-8.46-4.35-23.32,3.54-29,8Z"/><path class="cls-8" d="M642.38,107.84c1.58,2.2,7.94,11.09,10.71,11,20.22-1,31.39-4.24,50.44,7,1.65,1,4.19-.48,6.48-2.29,1.75-1.39,5.6-2.79,5.48-10.29-.07-4.74-.34-13.23-4.67-16-30.67-19.32-19.49-13.9-49.92-15.39-9.7-.47-17.12,8-20.34,15.23Z"/><path class="cls-8" d="M628.22,150.37c2.31,1.29,11.61,6.49,14.3,5.25,19.59-9,29.51-16.38,52.1-14.28,2,.18,4-2.11,5.61-4.62,1.26-1.92,4.58-4.7,1.91-11.2-1.68-4.12-4.84-11.43-10-12.07-36.81-4.5-24-4.27-54.46,6.72-9.72,3.5-14.18,13.86-14.88,21.53Z"/><path class="cls-8" d="M644.41,199.76c1.7,1.11,13.84,1.43,15.28,0,5.15-5.11,6.34-5.57,7.8-7.29,13.9-16.49,23.47-24.2,45.57-31.32,1.91-.61,2.67-3.6,3-6.65.24-2.34,2-6.32-3.65-11.43-3.57-3.23-10-8.92-15.2-7.43-36.52,10.57-29.28,3.33-52.4,26.09-5.8,5.71-10.26,13-8.81,20,.66,3.17,5.7,16.27,8.42,18Z"/><path class="cls-8" d="M668.46,236.28c1.67.47,12.12-3.1,13.07-4.88,3.38-6.34,4.31-7.14,5.22-9.2,8.61-19.61,15.26-29.76,32.74-43.36,1.51-1.17,1.57-4.17,1.24-7.08-.26-2.23.44-6.45-5.4-9.36-3.69-1.84-10.36-5-14.47-2-29.13,21.37-24.37,12.41-39.63,40.73-3.82,7.11-6.2,15.21-3.56,21.21,1.2,2.71,8.12,13.16,10.79,13.93Z"/><path class="cls-8" d="M700.4,271.68c2.11.14,13.52-6.38,14.16-8.61,2.28-8,3.17-9.11,3.68-11.64,4.87-24.23,10-37.29,27-56.8,1.48-1.69.74-5.09-.45-8.31-.92-2.45-1.23-7.4-8.93-9.3-4.87-1.21-13.64-3.21-17.69,1.17-28.69,31.07-25.49,19.8-35.87,55.46-2.6,8.93-3.21,18.67,1.55,24.83,2.15,2.78,13.18,13,16.55,13.2Z"/><path class="cls-8" d="M749.79,289.33c2.08-.33,9.73-4.73,9.87-7.32.49-9.24,1.1-10.68,1.05-13.56-.52-27.58,1.63-43,13.92-68.29,1.06-2.18-.4-5.73-2.25-8.95-1.42-2.47-2.79-7.79-10.68-8.07-5-.18-13.94-.32-16.92,5.41-21.12,40.6-20.46,27.56-22.81,68.89-.59,10.36.93,21.12,6.88,26.73,2.69,2.54,4.5,8.11,7.83,7.58Z"/><path class="cls-8" d="M848.15,247.14c-2.65,6.25-5.42,10.56-13.35,7.26-1.88-.78-3.68-2.84-6-5.41-23-25.83-23.55-49.07-25.55-83.31-.2-3.4,1.25-2.81,2.82-4.07,6.72-5.42,2.93.7,19.18,8.12,15,6.85,22.66,31.68,23.34,34,6.85,23.69,1.08,3.59,4.91,28.33C853.91,234.56,850.41,241.81,848.15,247.14Z"/><path class="cls-8" d="M822.87,277.17c-4,4.76-7.58,7.86-14.55,3.57-1.66-1-3-3.09-4.61-5.69-16.69-26.14-12.07-45.81-6.5-75,.56-2.9,1.83-2.13,3.63-2.9,7.71-3.28,2.7,1.15,16.83,10.49,13.06,8.63,15,31,15.18,33.11,1.45,21.27.26,3.24-1.46,24.81C831.22,267.67,826.24,273.11,822.87,277.17Z"/><path class="cls-8" d="M790.54,292.71c1.78-.51,9.17-11.29,9-13.95-.56-9.49-.18-11-.53-14-3.39-28.16-3.16-44.13,4.88-71,.69-2.32-1-5.83-2.92-9-1.5-2.41-3.27-7.74-10.19-7.39-4.38.22-17.29,4.5-19.28,10.6-14.12,43.23-9.84,26.14-7.49,68.6.59,10.65,3.06,21.54,8.85,26.8,2.62,2.38,14.81,10.07,17.66,9.25Z"/><path class="cls-9" d="M798.21,21.2c-10.94-10.58-6.69-7.46-13.77-9.4-.82-.23-5.36-.51-7.72,1.38-29.28,23.41-28.66,38.33-28.21,75.14,0,3-1.61,3.65,2.88,2.57,28.36-6.83,6.37-3.94,30.48-4.08,3.8,0,3.66-1,3.63-3.09-.39-26-1.41-32.72,11.58-54.24C798.13,27.74,799.92,22.86,798.21,21.2Z"/><path class="cls-9" d="M839.93,46c-.41-2.1-.18-5.43-6-9.87-.68-.51-15.74-5.06-18.36-3.92C786.16,45,787,52.2,774.74,81.22c-1,2.34-2.73,2.2,1.75,3.2,28.26,6.34,23,5.69,24,6.14,3.48,1.55,4.54,1.22,5.22-.41,8.62-20.57,10.81-24,30.09-35.49C837.39,53.73,840.47,48.7,839.93,46Z"/><path class="cls-9" d="M876,77.27c.33-2.12,1.68-5.16-2.23-11.36-.46-.72-13-10.27-15.89-10.12-32,1.68-33.65,8.79-55.1,31.7-1.73,1.86-3.31,1.12.55,3.63,24.34,15.85,19.65,13.4,20.44,14.17,2.74,2.68,3.84,2.75,5,1.46C843.89,90.47,847.11,88,869.14,84,870.92,83.67,875.53,80,876,77.27Z"/><path class="cls-9" d="M832.67,121.78a7.59,7.59,0,0,0,5.52,4.86c18.54,4,24.73,11.65,39.23,26.93,1.25,1.33,6.49,5.59,9,4.42,1.92-.89,4.82-3.4,6.55-10.54,1.09-4.52-.1-14.67-2-19.19-12.56-30.12-10.09-23.63-37.27-32.45-8.66-2.81-25.89,8.12-25.82,12.76Z"/><path class="cls-9" d="M826.92,135.88c0,2.66,1.56,5.8,4.1,8.32,18.51,18.35,22.26,29.39,32.07,53.18.85,2.06,4.87,9.68,8,10.85,2.43.89,6.52,1.33,11.13-2.8,2.92-2.6,5.53-11.46,5.23-16.52-2-33.7-1.84-26.63-27.83-55.85-8.29-9.31-31.12-15-32.82-11.36Z"/><path class="cls-9" d="M819.57,157.42a10.11,10.11,0,0,0,2.71,7.63C837,181.88,839,192,845,213.86c.51,1.88,3.24,8.88,6,9.95,2.11.81,5.83,1.21,10.61-2.58,3-2.4,6.56-10.53,6.94-15.18,2.48-31,1.73-24.46-18.45-51.25-6.43-8.55-26.72-13.76-28.76-10.4Z"/><path class="cls-9" d="M709.31,31.43c-.75,2.29-3.78,11.52-2.23,13.64C718.37,60.47,726.55,67.7,728.51,88c.17,1.75,1.58,8.23,4.08,9.17,1.91.71,5.45,1,10.76-2.66,3.35-2.32,8.22-10,9.4-14.37,7.87-29,6-22.93-8.88-47.54-4.74-7.84-20.91-8.66-27.81-7.72Z"/><path class="cls-9" d="M670.68,67.67c.55,2.32,2.72,11.7,5.13,12.7,17.54,7.24,28.23,9.15,40.35,25.35,1,1.4,5.58,6.16,8.19,5.66,2-.37,5.16-1.95,7.79-7.79,1.66-3.68,1.85-12.71.61-17-8.25-28.63-6.71-22.51-32-35.7-8.08-4.21-22.26,3.42-27.65,7.76Z"/><path class="cls-9" d="M649.29,109.94c1.51,2.12,7.58,10.72,10.23,10.59,19.29-1,30-4.1,48.13,6.75,1.58.93,4-.46,6.19-2.22,1.67-1.34,5.34-2.7,5.23-10-.07-4.59-.33-12.8-4.46-15.43C685.34,81,696,86.23,667,84.79c-9.26-.46-16.34,7.69-19.41,14.73Z"/><path class="cls-9" d="M635.78,151.07c2.21,1.25,11.08,6.28,13.64,5.08,18.71-8.73,28.17-15.85,49.73-13.81,1.87.17,3.79-2,5.36-4.47,1.2-1.86,4.36-4.55,1.82-10.84-1.61-4-4.62-11-9.57-11.66-35.13-4.36-22.86-4.14-52,6.49-9.28,3.39-13.53,13.41-14.2,20.82Z"/><path class="cls-9" d="M651.23,198.84c1.62,1.07,13.21,1.38,14.58,0,4.92-4.94,6.06-5.38,7.45-7.05,13.26-15.95,22.4-23.41,43.48-30.29,1.83-.59,2.56-3.48,2.86-6.44.23-2.25,1.9-6.11-3.48-11.05-3.41-3.13-9.6-8.63-14.51-7.19-34.85,10.22-27.94,3.23-50,25.24-5.53,5.52-9.79,12.54-8.4,19.33.62,3.07,5.44,15.74,8,17.45Z"/><path class="cls-9" d="M674.19,234.16c1.59.46,11.56-3,12.47-4.71,3.23-6.14,4.12-6.92,5-8.9,8.22-19,14.56-28.79,31.25-41.94,1.44-1.14,1.5-4,1.18-6.85-.25-2.15.42-6.24-5.15-9-3.53-1.78-9.9-4.84-13.82-1.93-27.79,20.68-23.26,12-37.81,39.4-3.65,6.87-5.92,14.71-3.4,20.51,1.14,2.63,7.74,12.73,10.3,13.47Z"/><path class="cls-9" d="M704.67,268.4c2,.14,12.9-6.16,13.51-8.32,2.18-7.72,3-8.81,3.51-11.26,4.65-23.44,9.54-36.06,25.77-54.94,1.41-1.63.7-4.93-.43-8-.87-2.38-1.17-7.16-8.52-9-4.65-1.16-13-3.1-16.88,1.14C694.25,208,697.3,197.13,687.4,231.62c-2.49,8.64-3.07,18.06,1.47,24,2,2.69,12.58,12.54,15.8,12.76Z"/><path class="cls-9" d="M751.8,285.48c2-.33,9.29-4.58,9.42-7.08.47-8.94,1.06-10.33,1-13.12-.49-26.67,1.56-41.61,13.29-66,1-2.11-.38-5.54-2.15-8.66-1.35-2.39-2.66-7.53-10.19-7.81-4.77-.17-13.3-.3-16.15,5.24-20.16,39.27-19.53,26.66-21.77,66.63-.56,10,.89,20.43,6.57,25.86,2.56,2.45,4.29,7.84,7.47,7.32Z"/><path class="cls-9" d="M845.67,244.67c-2.53,6.05-5.17,10.21-12.74,7-1.79-.76-3.51-2.75-5.7-5.23-22-25-22.46-47.47-24.38-80.58-.19-3.29,1.19-2.72,2.69-3.94,6.41-5.24,2.8.68,18.31,7.85,14.31,6.63,21.62,30.65,22.27,32.93,6.54,22.91,1,3.48,4.69,27.41C851.17,232.5,847.83,239.51,845.67,244.67Z"/><path class="cls-9" d="M821.55,273.71c-3.77,4.61-7.23,7.61-13.89,3.46-1.58-1-2.82-3-4.4-5.5-15.92-25.29-11.52-44.32-6.2-72.57.53-2.81,1.75-2.07,3.46-2.81,7.36-3.17,2.58,1.12,16.07,10.15,12.46,8.34,14.34,30,14.48,32,1.38,20.57.25,3.13-1.39,24C829.52,264.53,824.76,269.79,821.55,273.71Z"/><path class="cls-9" d="M790.69,288.75c1.7-.5,8.76-10.92,8.61-13.49-.53-9.19-.17-10.65-.5-13.5-3.24-27.25-3-42.69,4.65-68.65.66-2.25-.91-5.64-2.78-8.69-1.43-2.33-3.12-7.49-9.73-7.15-4.18.21-16.5,4.36-18.4,10.25-13.48,41.82-9.39,25.29-7.15,66.36.56,10.3,2.92,20.83,8.45,25.92,2.5,2.3,14.13,9.74,16.85,8.95Z"/><path d="M838.11,141c0,38.05-28.15,76-70.56,76-7.5,0-43.14-6.6-61.41-24.11-16-15.33-15.38-41.61-15.38-44.79,0-38,41.2-72.55,86.34-72.77C819.51,75.18,838.11,103,838.11,141Z"/><path class="cls-10" d="M835.43,140.84c0,36-26.69,71.91-66.9,71.91-7.11,0-40.89-6.24-58.22-22.8-15.18-14.51-14.57-39.37-14.57-42.37,0-36,39-68.63,81.85-68.84C817.79,78.54,835.43,104.84,835.43,140.84Z"/><path class="cls-11" d="M724.38,195.47c14.13,5.57,21-8.67,27.37-2.32a1.19,1.19,0,0,0,2-.23h0c.42-.67,1-1.1-.13-2.15-8.75-7.94-14.47,7.33-27.95,2.1-1.79-.7-1.76,0-2.09.74h0C723.29,194.32,722.5,194.73,724.38,195.47Z"/><path class="cls-11" d="M751.27,133c7.75-3.44,21.88,4.77,23.08,13.3.16,1.13.65,1.58,1.66,1.44,0,.15,0,.13,0,0,1-.14,1.63-.31,1.45-1.58-1.39-9.57-18.54-20.51-27.35-16-1.17.6-1.11,1-.77,1.95-.14.09-.1.08,0,0C749.68,133.1,750.23,133.5,751.27,133Z"/><path class="cls-11" d="M719.51,134.25c-6.5-4.89-11.14,4.38-15.5,8.34-.58.53-1,.78-1.61.25h0c-.61-.53-.95-1.11-.36-1.73,4.43-4.72,11.94-14.57,18.86-8.89.92.76.69,1,.27,1.72.12.12.11.12,0,0C720.74,134.63,720.37,134.9,719.51,134.25Z"/><path class="cls-12" d="M770.82,145c5.88,9.57,5.88,16-3.86,25.21-1.23,1.17-10.05,6.48-11.68,6-8.35-2.36-33.2-11.85-11.51-33.84C757.32,128.67,764.9,135.37,770.82,145Z"/><path class="cls-12" d="M721.22,141.49c3.95,9.44,4.51,24.4-9,28.22,0,0-22.8-3.39-1.33-32.91C713.59,133.12,719.46,137.28,721.22,141.49Z"/><path class="cls-13" d="M769.06,146.21c6,7.2,8,17.24-11.4,27.09a5.94,5.94,0,0,1-4.3.42c-7.36-2.07-26-7.26-9.31-28.85C754.6,131.17,762.67,138.58,769.06,146.21Z"/><path class="cls-13" d="M719.3,139.76c3.47,8.32,5.74,25.83-7.08,28.42,0,0-20.7-3.45-1.78-29.46A5.1,5.1,0,0,1,719.3,139.76Z"/><g class="cls-4"><path d="M848.71,49.45l-.72.15q3.36,2.1,6.71,4.21Q851.72,51.62,848.71,49.45Z"/><path d="M683.47,73.85a10.52,10.52,0,0,1-1.14-2.18c-.94-1.5-1.85-3-2.71-4.55A85.25,85.25,0,0,1,672.93,52a37.13,37.13,0,0,1-1.45-5.88l0-.12a48.28,48.28,0,0,0-7.21,4.59l-2.6,9.72c.6,2.5,3,12.59,5.61,13.66,8.27,3.36,15.15,5.66,21.36,8.58A91.78,91.78,0,0,0,683.47,73.85Z"/><path d="M707.75,119.85A225.32,225.32,0,0,1,695.49,97c-2.38-5.19-4.71-10.42-7.42-15.44-7.6-3.75-10.13-1.79-30.48-2.79-10.13-.49-17.88,8.28-21.24,15.86l1.9,11.21c1.65,2.29,8.29,11.55,11.19,11.41,21.1-1,32.77-4.41,52.65,7.26,1.72,1,4.38-.5,6.77-2.39l.19-.14C708.61,121.25,708.18,120.55,707.75,119.85Z"/><path d="M623.47,150.09c2.41,1.34,12.12,6.75,14.92,5.47,20.47-9.4,30.82-17.06,54.41-14.87,2,.19,4.14-2.19,5.85-4.81,1.31-2,4.78-4.89,2-11.67-1.76-4.28-5.06-11.89-10.48-12.55-38.43-4.69-25-4.46-56.85,7-10.16,3.65-14.81,14.44-15.54,22.42Z"/><path d="M640.37,201.51c1.78,1.16,14.45,1.49,16,0,5.38-5.32,6.62-5.79,8.14-7.59C679,176.75,689,168.72,712,161.32c2-.64,2.8-3.75,3.12-6.93.25-2.43,2.08-6.58-3.81-11.9-3.72-3.37-10.49-9.29-15.87-7.73-38.12,11-30.56,3.47-54.71,27.16-6,5.94-10.71,13.5-9.19,20.81.69,3.3,5.95,16.94,8.79,18.78Z"/><path d="M665.48,239.53c1.75.5,12.66-3.22,13.64-5.07,3.54-6.61,4.51-7.44,5.45-9.58,9-20.42,15.94-31,34.19-45.15,1.58-1.22,1.64-4.34,1.29-7.37-.27-2.32.46-6.71-5.63-9.74-3.86-1.92-10.83-5.21-15.12-2.07-30.4,22.25-25.44,12.91-41.37,42.4-4,7.4-6.47,15.84-3.71,22.08,1.25,2.83,8.47,13.71,11.26,14.5Z"/><path d="M698.83,276.39c2.2.15,14.11-6.64,14.78-9,2.38-8.31,3.31-9.48,3.84-12.12,5.09-25.23,10.44-38.82,28.2-59.14,1.53-1.76.76-5.3-.48-8.65-.95-2.55-1.28-7.7-9.32-9.69-5.09-1.25-14.24-3.34-18.47,1.23-30,32.34-26.61,20.61-37.45,57.73-2.71,9.31-3.35,19.44,1.62,25.86,2.24,2.9,13.75,13.5,17.28,13.74Z"/><path d="M772.82,190.34q-3.27-2.78-6.48-5.61a14.66,14.66,0,0,0-3.52-.53c-5.21-.18-14.55-.32-17.66,5.64-22,42.27-21.36,28.7-23.81,71.72-.62,10.79,1,22,7.18,27.84,2.81,2.64,4.7,8.44,8.17,7.88l13.69-2.51c2.18-.35,10.16-4.93,10.3-7.62.51-9.62,1.16-11.12,1.1-14.12-.54-28.71,1.7-44.79,14.53-71.1,1.11-2.27-.41-6-2.34-9.32C773.62,192,773.26,191.19,772.82,190.34Z"/><path d="M851.37,243.6a245.84,245.84,0,0,1-22.15-12.48c-5.11-3.15-10.22-6.3-15.26-9.58,3.71,10.56,9.52,20.69,18.95,31.23,2.39,2.67,4.27,4.81,6.23,5.63,8.29,3.43,11.17-1,13.94-7.56.71-1.66,1.53-3.5,2.33-5.33C854.05,244.88,852.7,244.24,851.37,243.6Z"/><path d="M835.71,235.07c-2.17-1.29-4.34-2.61-6.49-3.95-7.27-4.49-14.55-9-21.59-13.81q-4.77-3.28-9.41-6.73c-4.87,25.76-7.22,44.81,8.47,69.32,1.73,2.71,3.08,4.87,4.81,5.93,7.28,4.46,11.07,1.24,15.19-3.72,3.51-4.23,8.72-9.89,8.9-12.12,1.79-22.46,3-3.69,1.52-25.83A68.85,68.85,0,0,0,835.71,235.07Z"/><path d="M801.8,269.23c-2.7-22.41-3.2-37.41.46-55.71-6.46-4.65-12.77-9.52-19-14.51q-5.32-4.29-10.52-8.72c-14.36,43.8-9.94,26.58-7.5,70.47.61,11.08,3.19,22.42,9.24,27.89,2.74,2.48,15.46,10.49,18.43,9.64,1.86-.54,9.58-11.76,9.42-14.52C801.77,273.88,802.17,272.3,801.8,269.23Z"/><path d="M852.84,52.45l-.25,0,2.11,1.33Z"/><path d="M683.47,73.85a10.52,10.52,0,0,1-1.14-2.18c-.94-1.5-1.85-3-2.71-4.55A85.25,85.25,0,0,1,672.93,52c-.09-.26-.17-.52-.25-.77a43,43,0,0,0-5.39,3.57l-2.5,9.33c.57,2.4,2.85,12.1,5.37,13.13,7.64,3.11,14,5.27,19.82,7.94A99.83,99.83,0,0,0,683.47,73.85Z"/><path d="M707.75,119.85A225.32,225.32,0,0,1,695.49,97c-2-4.27-3.88-8.56-6-12.75-6.82-3.2-9.65-1.45-28.58-2.38-9.7-.47-17.12,8-20.34,15.23l1.82,10.77c1.58,2.2,7.94,11.09,10.71,11,20.22-1,31.39-4.24,50.44,7,1.65,1,4.19-.48,6.48-2.29C709.24,122.28,708.49,121.07,707.75,119.85Z"/><path d="M628.22,150.37c2.31,1.29,11.61,6.49,14.3,5.25,19.59-9,29.51-16.38,52.1-14.28,2,.18,4-2.11,5.61-4.62,1.26-1.92,4.58-4.7,1.91-11.2-1.68-4.12-4.84-11.43-10-12.07-36.81-4.5-24-4.27-54.46,6.72-9.72,3.5-14.18,13.86-14.88,21.53Z"/><path d="M644.41,199.76c1.7,1.11,13.84,1.43,15.28,0,5.15-5.11,6.34-5.57,7.8-7.29,13.9-16.49,23.47-24.2,45.57-31.32,1.91-.61,2.67-3.6,3-6.65.24-2.34,2-6.32-3.65-11.43-3.57-3.23-10-8.92-15.2-7.43-36.52,10.57-29.28,3.33-52.4,26.09-5.8,5.71-10.26,13-8.81,20,.66,3.17,5.7,16.27,8.42,18Z"/><path d="M668.46,236.28c1.67.47,12.12-3.1,13.07-4.88,3.38-6.34,4.31-7.14,5.22-9.2,8.61-19.61,15.26-29.76,32.74-43.36,1.51-1.17,1.57-4.17,1.24-7.08-.26-2.23.44-6.45-5.4-9.36-3.69-1.84-10.36-5-14.47-2-29.13,21.37-24.37,12.41-39.63,40.73-3.82,7.11-6.2,15.21-3.56,21.21,1.2,2.71,8.12,13.16,10.79,13.93Z"/><path d="M700.4,271.68c2.11.14,13.52-6.38,14.16-8.61,2.28-8,3.17-9.11,3.68-11.64,4.87-24.23,10-37.29,27-56.8,1.48-1.69.74-5.09-.45-8.31-.92-2.45-1.23-7.4-8.93-9.3-4.87-1.21-13.64-3.21-17.69,1.17-28.69,31.07-25.49,19.8-35.87,55.46-2.6,8.93-3.21,18.67,1.55,24.83,2.15,2.78,13.18,13,16.55,13.2Z"/><path d="M771.25,189c-2-1.76-4.1-3.55-6.13-5.34a13.52,13.52,0,0,0-3.42-.52c-5-.18-13.94-.32-16.92,5.41-21.12,40.6-20.46,27.56-22.81,68.89-.59,10.36.93,21.12,6.88,26.73,2.69,2.54,4.5,8.11,7.83,7.58l13.11-2.42c2.08-.33,9.73-4.73,9.87-7.32.49-9.24,1.1-10.68,1.05-13.56-.52-27.58,1.63-43,13.92-68.29,1.06-2.18-.4-5.73-2.25-8.95C772,190.6,771.69,189.83,771.25,189Z"/><path d="M829.22,231.12c-6.16-3.8-12.34-7.6-18.37-11.63,3.56,10,9.1,19.54,18,29.5,2.29,2.57,4.09,4.63,6,5.41,7.93,3.3,10.7-1,13.35-7.26.56-1.32,1.2-2.76,1.83-4.22C842.85,239.39,836,235.31,829.22,231.12Z"/><path d="M831.65,232.62l-2.43-1.5c-7.27-4.49-14.55-9-21.59-13.81-4.09-2.81-8.1-5.73-12-8.71-4.66,24.68-6.87,43,8.13,66.45,1.66,2.6,2.95,4.68,4.61,5.69,7,4.29,10.6,1.19,14.55-3.57,3.37-4.06,8.35-9.5,8.52-11.64,1.72-21.57,2.91-3.54,1.46-24.81A63.75,63.75,0,0,0,831.65,232.62Z"/><path d="M799,264.8c-2.58-21.45-3.06-35.83.41-53.33-5.48-4-10.85-8.2-16.16-12.46q-6.12-4.92-12.06-10c-13.76,42.08-9.53,25.53-7.19,67.69.59,10.65,3.06,21.54,8.85,26.8,2.62,2.38,14.81,10.07,17.66,9.25,1.78-.51,9.17-11.29,9-13.95C799,269.27,799.38,267.75,799,264.8Z"/><path d="M683.47,73.85a10.52,10.52,0,0,1-1.14-2.18c-.94-1.5-1.85-3-2.71-4.55a89.72,89.72,0,0,1-4.75-9.82c-.68.47-1.28.92-1.81,1.34l-2.38,9c.55,2.32,2.72,11.7,5.13,12.7,5.46,2.25,10.26,4,14.65,5.81A103.16,103.16,0,0,0,683.47,73.85Z"/><path d="M707.75,119.85A225.32,225.32,0,0,1,695.49,97c-1.74-3.79-3.45-7.6-5.3-11.33-4.46-1-9.24-.16-23.22-.85-9.26-.46-16.34,7.69-19.41,14.73l1.73,10.42c1.51,2.12,7.58,10.72,10.23,10.59,19.29-1,30-4.1,48.13,6.75,1.12.66,2.67.15,4.26-.84Q709.78,123.19,707.75,119.85Z"/><path d="M635.78,151.07c2.21,1.25,11.08,6.28,13.64,5.08,18.71-8.73,28.17-15.85,49.73-13.81,1.87.17,3.79-2,5.36-4.47,1.2-1.86,4.36-4.55,1.82-10.84-1.61-4-4.62-11-9.57-11.66-35.13-4.36-22.86-4.14-52,6.49-9.28,3.39-13.53,13.41-14.2,20.82Z"/><path d="M651.23,198.84c1.62,1.07,13.21,1.38,14.58,0,4.92-4.94,6.06-5.38,7.45-7.05,13.26-15.95,22.4-23.41,43.48-30.29,1.83-.59,2.56-3.48,2.86-6.44.23-2.25,1.9-6.11-3.48-11.05-3.41-3.13-9.6-8.63-14.51-7.19-34.85,10.22-27.94,3.23-50,25.24-5.53,5.52-9.79,12.54-8.4,19.33.62,3.07,5.44,15.74,8,17.45Z"/><path d="M674.19,234.16c1.59.46,11.56-3,12.47-4.71,3.23-6.14,4.12-6.92,5-8.9,8.22-19,14.56-28.79,31.25-41.94,1.44-1.14,1.5-4,1.18-6.85-.25-2.15.42-6.24-5.15-9-3.53-1.78-9.9-4.84-13.82-1.93-27.79,20.68-23.26,12-37.81,39.4-3.65,6.87-5.92,14.71-3.4,20.51,1.14,2.63,7.74,12.73,10.3,13.47Z"/><path d="M704.67,268.4c2,.14,12.9-6.16,13.51-8.32,2.18-7.72,3-8.81,3.51-11.26,4.65-23.44,9.54-36.06,25.77-54.94,1.41-1.63.7-4.93-.43-8-.87-2.38-1.17-7.16-8.52-9-4.65-1.16-13-3.1-16.88,1.14C694.25,208,697.3,197.13,687.4,231.62c-2.49,8.64-3.07,18.06,1.47,24,2,2.69,12.58,12.54,15.8,12.76Z"/><path d="M764.19,182.84c-.33,0-.67-.06-1-.08-4.77-.17-13.3-.3-16.15,5.24-20.16,39.27-19.53,26.66-21.77,66.63-.56,10,.89,20.43,6.57,25.86,2.56,2.45,4.29,7.84,7.47,7.32l12.51-2.33c2-.33,9.29-4.58,9.42-7.08.47-8.94,1.06-10.33,1-13.12-.49-26.67,1.56-41.61,13.29-66,1-2-.25-5.22-1.9-8.22Q768.86,187,764.19,182.84Z"/><path d="M829.22,231.12c-6.26-3.86-12.52-7.72-18.64-11.81a85.8,85.8,0,0,0,16.65,27.15c2.19,2.48,3.91,4.47,5.7,5.23,7.57,3.19,10.21-1,12.74-7,.43-1,.91-2.12,1.39-3.24C841,238.26,835.06,234.73,829.22,231.12Z"/><path d="M830.14,231.69l-.92-.57c-7.27-4.49-14.55-9-21.59-13.81-4.18-2.87-8.27-5.85-12.32-8.91-4.31,23.36-6.16,40.86,8,63.27,1.58,2.51,2.82,4.52,4.4,5.5,6.66,4.15,10.12,1.15,13.89-3.46,3.21-3.92,8-9.18,8.13-11.25,1.64-20.87,2.77-3.43,1.39-24A60.12,60.12,0,0,0,830.14,231.69Z"/><path d="M798.8,261.76c-2.42-20.35-2.91-34.13.2-50.61-5.33-3.93-10.56-8-15.72-12.14q-5.78-4.65-11.39-9.47c-12.69,39.27-8.71,24-6.5,64.34.56,10.3,2.92,20.83,8.45,25.92,2.5,2.3,14.13,9.74,16.85,8.95,1.7-.5,8.76-10.92,8.61-13.49C798.77,266.07,799.13,264.61,798.8,261.76Z"/><path d="M783.28,199c-13.92-11.18-27.12-23.23-40.13-35.46a183.65,183.65,0,0,1-18.31-19.21,235.72,235.72,0,0,1-17.09-24.49q-2.29-3.8-4.46-7.63c-7.88,10.81-12.53,23.18-12.53,35.95,0,3.18-.64,29.46,15.38,44.79,18.27,17.51,53.91,24.11,61.41,24.11a65.86,65.86,0,0,0,29.93-7C792.68,206.45,788,202.76,783.28,199Z"/><path d="M783.28,199c-13.92-11.18-27.12-23.23-40.13-35.46a183.65,183.65,0,0,1-18.31-19.21,235.72,235.72,0,0,1-17.09-24.49c-.7-1.16-1.39-2.32-2.08-3.49-6.28,9.54-9.93,20.23-9.93,31.22,0,3-.61,27.86,14.57,42.37,17.33,16.56,51.11,22.8,58.22,22.8a62.75,62.75,0,0,0,25.52-5.31Q788.61,203.3,783.28,199Z"/><path d="M724.38,195.47c14.13,5.57,21-8.67,27.37-2.32a1.19,1.19,0,0,0,2-.23h0c.42-.67,1-1.1-.13-2.15-8.75-7.94-14.47,7.33-27.95,2.1-1.79-.7-1.76,0-2.09.74h0C723.29,194.32,722.5,194.73,724.38,195.47Z"/><path d="M714.77,130.71c-4.92,1.15-9.59,7.06-12.73,10.4-.59.62-.25,1.2.36,1.73s1,.28,1.61-.25c3.6-3.27,7.4-10.16,12.26-9.71Z"/><path d="M743.15,163.55c-2.64-2.49-5.25-5-7.79-7.54-2.43,12.49,13.55,18.44,19.92,20.24a2.69,2.69,0,0,0,1.35-.21C752.1,171.92,747.62,167.74,743.15,163.55Z"/><path d="M721.22,141.49c3.95,9.44,4.51,24.4-9,28.22,0,0-22.8-3.39-1.33-32.91C713.59,133.12,719.46,137.28,721.22,141.49Z"/><path d="M743.15,163.55c-1.91-1.81-3.82-3.62-5.69-5.46-1.53,10.74,10.37,14.07,15.9,15.63a6.14,6.14,0,0,0,.93.19Q748.7,168.77,743.15,163.55Z"/><path d="M719.3,139.76c3.47,8.32,5.74,25.83-7.08,28.42,0,0-20.7-3.45-1.78-29.46A5.1,5.1,0,0,1,719.3,139.76Z"/></g><path class="cls-14" d="M848.3,246.79h0A158.46,158.46,0,0,1,824,241.36c-44.85-13.94-84.4-41.16-117.93-73.94-24.92-23.58-48.35-49.35-66-79-5.16,4.88-2.74,11.6-1.75,17.41A81.28,81.28,0,0,0,645,114.2c-13.38,3.53-26.93,12.09-27.21,26.86l5.69,9c2.41,1.34,12.12,6.75,14.92,5.47,3.34.38,5.49-.79,8.35.53-7.13,6.58-17.53,16.65-15.16,26.64,5.25,17.66,9.18,24.89,28.06,17.08-4.48,7.63-8.73,18.1-5.42,25.22,8.58,15.36,12.39,19.21,27,7.4-8.35,20.14-.51,35.91,17.62,44,4.67-.9,16.39-7.3,16-13.18,5.44-3.38,6.39-14.76,7.44-17.48-.82,12.36-3.69,35,6.21,43.67,2.81,2.64,4.7,8.44,8.17,7.88,6.8-1.4,20.91-2.31,24-10.13,2.15-19.51.6-27.38,2.35-44.44,1.2,14,1.07,35.39,11.46,46,2.74,2.47,15.46,10.48,18.43,9.63,9.25-7.69,10-16.31,9.05-26.06,5.35,10.69,15.14,23.35,24.71,9.87,11.48-10.84,8.48-17.15,10.73-24.75,7.83,5.17,13.15.79,15.66-6.51C856.11,246.32,851.77,247.51,848.3,246.79Z"/><path class="cls-12" d="M710.27,163.18l0,0a.64.64,0,0,1-.47.3.31.31,0,0,0-.13.06l-.38.34c-.17.14-.47,0-.45-.17l.06-.46s-.1-.09-.25-.13c-.37-.1-.57-.43-.42-.71l0-.09a.17.17,0,0,0-.1-.23l-.49-.26a.14.14,0,0,1-.08-.12c-.08-.34.46-.53.76-.28h0c.17,0,.28-.13.22-.26l-.18-.44c-.08-.19.19-.34.39-.22l.44.48c.13.08.36-.16.42-.28l.07-.36c.09-.18.57-.22.63,0l0,.73h0a.43.43,0,0,0,.7.08l.24-.34a.26.26,0,0,1,.43,0,.16.16,0,0,1,0,.15l-.25.41c-.08.12.1.41.27.44l.48,0c.24.05.28.31,0,.39l-.53.17c-.11,0-.41.09-.54.15a1.23,1.23,0,0,1-.34.11c-.11,0-.21,0-.22.07a.66.66,0,0,1-.14.17A.68.68,0,0,0,710.27,163.18Z"/><path class="cls-12" d="M747.17,166.77h0a.65.65,0,0,1-.44-.36.32.32,0,0,0-.1-.1l-.43-.27c-.19-.11-.18-.44,0-.48l.44-.09s.06-.12,0-.28c0-.39.22-.68.53-.63l.1,0a.18.18,0,0,0,.19-.16l.08-.56a.14.14,0,0,1,.09-.11c.3-.19.65.27.5.64h0c.05.16.21.23.31.14l.36-.32c.15-.14.38.07.33.3l-.31.58c0,.15.25.3.39.32l.36,0c.19,0,.38.48.22.6l-.68.25h0a.43.43,0,0,0,.15.7l.39.12a.28.28,0,0,1,.11.43.16.16,0,0,1-.15,0l-.46-.11c-.14,0-.35.23-.33.4l.19.45c0,.25-.21.37-.35.17l-.33-.45a5.5,5.5,0,0,0-.31-.48,1.27,1.27,0,0,1-.21-.29c0-.1-.1-.19-.13-.19a.55.55,0,0,1-.2-.08A.66.66,0,0,0,747.17,166.77Z"/><path d="M779.12,166.79a.34.34,0,0,0-.66-.16c-1.38,3.92-3.51,11.23-2.42,16.22a12.05,12.05,0,0,0,5.4,7.26.36.36,0,0,0,.43-.55c-1.75-2.14-4.12-5-4.39-5.86v0a10.21,10.21,0,0,1-.3-4.94C777.66,176,778.55,170.92,779.12,166.79Z"/><path d="M783,146.05c-.13.19.39.48.6.33,2.05-1.45,5.49-4.32,5.44-7.24,0,0-.07-2.83-3.66-5.67-.27-.22-.68-.13-.51.11a32.53,32.53,0,0,1,3,4.59v0a3.09,3.09,0,0,1-.68,2.59C786.14,142,784.29,144.19,783,146.05Z"/></g></svg>
