<svg xmlns="http://www.w3.org/2000/svg" width="520" height="540" viewBox="0 0 520 540"><defs><style>.cls-1{fill:#eadf5c;}.cls-2{fill:#227d99;}.cls-3{fill:#bac9cc;}.cls-4{fill:#cc6b36;}.cls-4,.cls-5,.cls-6{opacity:0.5;}.cls-5{fill:#cea934;}.cls-6{fill:#bc4a1d;}</style></defs><g id="Layer_3" data-name="Layer 3"><path d="M57.84,311.73C85.74,444.52,236.24,505,349.68,465.63s188.47-110.58,166.5-241.2S333.76,33.13,220.64,76.29,29.94,179,57.84,311.73Z"/><path class="cls-1" d="M60,304.73C86.11,430.59,231,487.05,340.71,449S523.27,342.92,502.85,219.08,328,38.65,218.52,80.3,33.85,178.88,60,304.73Z"/><path d="M469.7,213.8c1.54-9.38,8.21-10.41,0-25.43,0,0,21.67,5.52,30.12,25.18,4.09,9.51-1.62,19.95-9.72,22.14-6.91,1.86-16.9-4.18-19.63-14.21A22.7,22.7,0,0,1,469.7,213.8Z"/><path class="cls-2" d="M471,213.5c1.45-8.8,8.06-10.24.33-24.35,0,0,20,5.66,27.94,24.12,3.84,8.93-1.52,18.73-9.13,20.78s-15.86-3.92-18.43-13.34A21.45,21.45,0,0,1,471,213.5Z"/><path d="M476,205.09c.65-1.64,1.9-1.57,1-4.62a9,9,0,0,1,4.48,5.74,3.05,3.05,0,0,1-2.63,3.64c-1.33.07-2.9-1.41-3-3.34A4.4,4.4,0,0,1,476,205.09Z"/><path class="cls-3" d="M476.22,205.08c.61-1.54,1.87-1.54,1-4.4a8.67,8.67,0,0,1,4.12,5.46,2.86,2.86,0,0,1-2.47,3.41c-1.46.08-2.72-1.32-2.82-3.13A4,4,0,0,1,476.22,205.08Z"/><ellipse cx="180.22" cy="340.17" rx="43.62" ry="62.1"/><ellipse class="cls-1" cx="177.9" cy="338.89" rx="38.48" ry="57"/><ellipse cx="218.22" cy="341.62" rx="41.78" ry="61.88"/><ellipse class="cls-1" cx="218.22" cy="340.17" rx="38.48" ry="57"/><path class="cls-4" d="M79.37,29.71A164.83,164.83,0,0,0,69.6,66.85c-4.3,29.73,3.86,46.81-37.1,60.65,0,0,2.31,55.72-32.5,59.3,0,0,39.81,69,9.07,98.23,0,0,43.63,40.65,11.86,69.34,0,0,52.36,49.33,40.6,143.53,0,0,114.37-19.2,126.9,42.1,0,0,112.8-78.71,146.7-5.09,0,0,34-74,69.79-48.91,0,0,36.48-145.84,76.51-130.39,0,0-18.79-61.69,4.27-137,1.76-5.74-96.31-107.07-60.48-159.36,0,0-127.93,55.48-153-36.25,0,0-37.63,44-89.22-23C183,0,187.11,147.07,79.37,29.71Z"/><path class="cls-5" d="M176.23,49.17a122,122,0,0,0-20.18,25.37c-12.9,21.51-10.49,37.49-52.49,34.21,0,0-14.6,43.86-47.82,34.74,0,0,16.05,66.89-21.14,79,0,0,28.09,46.31-9.87,57.64,0,0,33.54,56-5.62,124.79,0,0,111.4,24.2,104.55,75.86,0,0,127.83-22.33,137,46.14,0,0,53.62-45.58,79.14-14,0,0,77.5-100.27,109.83-74.67,0,0,1.18-54.09,45.09-104.4,3.35-3.83-56.78-115.63-8-143.81,0,0-134.82-.79-130.41-80.24,0,0-48,21.19-75.49-48.26C280.87,61.58,240.48,176.66,176.23,49.17Z"/><path class="cls-6" d="M167.13,91.9a100.87,100.87,0,0,0-16.52,20.89c-10.56,17.7-8.64,30.83-42.86,28.24,0,0-12,36.06-39.07,28.66,0,0,12.92,54.91-17.42,65,0,0,22.78,38-8.19,47.38,0,0,27.2,45.93-4.89,102.54,0,0,90.73,19.61,85,62.06,0,0,104.24-18.65,111.56,37.58,0,0,43.82-37.58,64.54-11.69,0,0,63.42-82.57,89.7-61.61,0,0,1.1-44.44,37-85.89,2.74-3.16-46-94.86-6.15-118.14,0,0-109.87-.31-106.08-65.6,0,0-39.16,17.54-61.4-39.46C252.38,101.83,219.17,196.48,167.13,91.9Z"/></g></svg>
