<svg xmlns="http://www.w3.org/2000/svg" width="1420.5" height="720" viewBox="0 0 1420.5 720"><defs><style>.cls-1,.cls-18,.cls-4{opacity:0.3;}.cls-2{stroke:#000;stroke-miterlimit:10;}.cls-3{fill:#6cd362;}.cls-5{fill:#ba3a59;}.cls-6{fill:#020202;}.cls-7{opacity:0.2;}.cls-8{fill:#fff;}.cls-9{fill:#ffd9f8;}.cls-10{fill:#f9f;}.cls-11{fill:#7c2268;}.cls-12{fill:#050505;}.cls-13{fill:#ffef7d;}.cls-14{fill:#726a3b;}.cls-15{fill:#070707;}.cls-16,.cls-19{opacity:0.4;}.cls-17,.cls-18,.cls-19{fill:#d35224;}</style></defs><g id="Layer_3" data-name="Layer 3"><g class="cls-1"><path class="cls-2" d="M1263.9,487.17h0a2.13,2.13,0,0,0,.12-.44c0,.09,0,.19-.08.28,0-.1.06-.19.08-.28h0c.44-1.49.88-3,1.3-4.49-1.08-.62-1,1.64-1.17,3.38-.19.17-.14,1-.22,1.43l0,.13Z"/><path class="cls-2" d="M1394.28,657.88c-7.17-29.56-157.4-78.12-169.69-73.73-27.89-.37-56.62-21-82.27-26.1-9.77-6.42-20.25-13-31.28-19.69a24.88,24.88,0,0,0,1-2.78,36.41,36.41,0,0,0,7.42-2c.45-.15.87-.31,1.26-.46l.93-.54c5-2.59,7.45-6.28,8.07-10.42l0-.14a27,27,0,0,0,6.23,2.74c3.82,2.55,9.47,4.39,13.16,4.43,23.5-3.29,21-16.08,9.17-26.86a34.56,34.56,0,0,0,12.26,3.84,35.3,35.3,0,0,0,4.61,1.22,40.82,40.82,0,0,0,15.12,1.7c22.7-4.52,12.13-15.88-6.59-24.1a93.26,93.26,0,0,0,19.11,2.44c1.74.2,3.52.36,5.32.47a85.69,85.69,0,0,0,18.52.18c15.29-7.41-16-17.72-47.15-22.38.37-.07.76-.17,1.18-.28,1.4.16,2.83.35,4.29.56a11.67,11.67,0,0,0,3.88-.74l.65.09c3.09.22,10.78-3.47,12.69-4.38,6.57-7.14-6.1-13-17.09-15.37a40.64,40.64,0,0,0,6.84-4.09c-1.79-14.68-49.39-10.19-71-1.2.33-.34.65-.68,1-1a36.7,36.7,0,0,0,5-6.09,16.22,16.22,0,0,0,2.48-4.68c6.44-15.72-6.28-30.26-33.21-24.9-.44.5-.84,1-1.19,1.45a22.09,22.09,0,0,0-2.57-7.2c-1.86-5.3-5.14-9.53-9.83-11.78l-.87-.79c-3.25-2.48-16.16-2.36-21.78,2.7l-1,.5c-2.14.93-2,4.34-1.57,5.59v0c.17.42.33.84.48,1.25,0,.12,0,.24,0,.36-1.51,1.11-1.4,3.86-1,4.93a.16.16,0,0,0,0,.07c2.72,4.78,2.44,8.93,1.84,12.6-.56,1.75-1.22,3.45-1.91,5.08-6.38-7.42-20.19-15.14-19.28-13-15.11-6.66-33.48-8.61-44.88-.05a1.27,1.27,0,0,0-.28.82c-3.27-.9-6.9-1.83-11-2.81-6-.13-23.68,0-20,7.26a89.13,89.13,0,0,0,11.4,6.27c2.33,1.48,4.6,2.74,6.83,3.87-18.38-2.53-39.93-1.28-53.59,8.24-6.88,5.55-3.17,7.33,1.61,8,.29,1,1.56,1.67,3.2,2.07.55,1.18,2.57,1.76,4.85,2.07-10.24.87-19.22,3-24.33,6.83-31.73-8.45-61.13-12.18-85.21-8.73C704.06,429.68,563,323.12,402,381.39c80.62,62.82,282.46,123.59,406.5,92.52a66.83,66.83,0,0,0,4.68,5.37c3.47,59.6-94.71,91.94-94.71,92-203.37,53.45-191.64-13.38-336.84,16.51C411.57,674,519,692.35,519,692.35c107.66-62.51,199.42-16.46,287-53.58,95.25-49.65,245.56-32.89,312.64-44.72,37.32,87.51,219.3,95.57,292.94,101C1428.85,685.82,1417.77,672.09,1394.28,657.88ZM1015.72,438.34h0Zm115.55,37.06.09-.31c.77.21,1.45.38,1.94.5h1.12c-1.09,0-2.14.11-3.15.23C1131.28,475.68,1131.27,475.54,1131.27,475.4ZM990.43,445.56c-.45.22-.9.44-1.34.67a56,56,0,0,0-6.55-1.93C985.1,444.72,987.7,445.16,990.43,445.56Z"/></g><path d="M567.64,148.23s86.44,23.59-6.65,126c0,0-34.09,82.51-10,173.33a96.79,96.79,0,0,1,1.59,43c-4.39,22.88-8.61,29-22.72,55,0,0-41.36,96-4.79,143.94,0,0-67.48,59.94-208.21,12,11.85-42.26,23.37-93.51,82.69-132.78,0,0,24.65-7.51,17.42-114.17,0,0-12.19-93.91-103.06-139,0,0-50.48-2.81-55.71-25.35,0,0-5.24-64.77,63.47-78.4S457.94,150,567.64,148.23Z"/><path class="cls-3" d="M560.69,151.58c11.23,4.16,69.34,31-6.85,120.17a9,9,0,0,0-1.64,2.83c-4.51,12.46-32.17,95.4-4.12,182a9.22,9.22,0,0,1,.38,4c-1.49,11.53-9.46,67.78-25.3,86.08a8.94,8.94,0,0,0-1.55,2.56c-4.64,11.67-32.55,86-8.58,130.14a9.18,9.18,0,0,1-3,12c-19.14,13-77.27,42.31-176.84,9a9.19,9.19,0,0,1-6.12-10.57c4-19.37,18.22-69.87,62.41-104.53a7.11,7.11,0,0,1,.65-.47c4.35-2.84,55.44-38.58,30.39-136.65-.08-.32-.15-.65-.2-1-1-7-14.41-91.06-92.88-133.22a9.18,9.18,0,0,0-3.57-1.07c-8.41-.76-43.51-5-49-23.14a8.63,8.63,0,0,1-.39-2.36c-.29-8.37.15-62.68,58.37-74.86,62.8-13.13,124.59-59.3,224.44-61.48A9.23,9.23,0,0,1,560.69,151.58Z"/><path class="cls-4" d="M560.69,151.58a9.23,9.23,0,0,0-3.41-.57c-64.89,1.42-113.71,21.41-157.18,38.85,1.37.46,2.73.94,4.08,1.45,2.59,1,5.13,2.09,7.67,3.16s5,2,7.45,3.2a40.45,40.45,0,0,1,5,2.83c4.47,3,8.62,6.45,12.77,9.85a47.44,47.44,0,0,1,4.4,4.1c1.42,1.5,2.75,3.08,4,4.7,3.43,4.39,7,8.72,10.08,13.37a137.54,137.54,0,0,1,11.46,22.12c4.38,10.33,8.77,20.64,12.43,31.25,1,2.8,1.89,5.62,2.78,8.45l.91,1.6c5.95,10.66,10.73,21.81,15.4,33.08A225.44,225.44,0,0,1,513,380.44,323.11,323.11,0,0,1,517,417c.87,21.26-1.42,42.79-5.66,63.61s-11.82,40.8-21.16,59.8c-10.15,20.68-25,38.94-40,56.26q-3.3,3.81-6.65,7.58a31.19,31.19,0,0,1-4.12,11.59c-.24.87-.45,1.75-.65,2.64-.89,13.1.79,26.39,2.53,39.34q-.75-5.6-1.51-11.2,1.33,9.84,2.61,19.69a86.25,86.25,0,0,0,3.41,14.19,67,67,0,0,0,3.39,5.8,74,74,0,0,0,5.72,5.62,113,113,0,0,0,15.43,8.61c4.22,1.61,8.5,3.06,12.81,4.4a128.3,128.3,0,0,0,26.95-13.62,9.18,9.18,0,0,0,3-12c-24-44.1,3.94-118.47,8.58-130.14a8.94,8.94,0,0,1,1.55-2.56c15.84-18.3,23.81-74.55,25.3-86.08a9.22,9.22,0,0,0-.38-4C520,370,547.69,287,552.2,274.58a9,9,0,0,1,1.64-2.83C630,182.58,571.92,155.74,560.69,151.58Z"/><path d="M431.42,239.25s14.7,29.16,13,40.76c0,0,.38,12.79-13,19.61,0,0-6.72-1,2.86-8.19,0,0,10.51-5.42,6.11-23.87C440.39,267.56,424.92,234.3,431.42,239.25Z"/><path class="cls-5" d="M382.53,298.77c5.62,1,14.92,3.56,5.9,8.89-2.39,1.41-6.95,3.46-9.77,3-5.65-.95-12.3-4.95-3.08-10.59A10.1,10.1,0,0,1,382.53,298.77Z"/><path class="cls-6" d="M349.76,296.66s4.07,18,8.15,20.47c0,0,41,4.21,42.89,2.39,0,0-1.52-3.41-4.71-3.19,0,0-33.73.8-35.25-1.13C360.84,315.2,352.18,293.6,349.76,296.66Z"/><path class="cls-6" d="M435.17,350c1.58-.32,16.89,12.29,32.08-12.57.16-.26-.09-.57.06-.83,2.14-3.75.95-3.27-2.78-10.55-1.39-2.71-3.26-5.38-4.84-11.3,0,0,.45-6,3.31-.37,0,0,10.36,18.07,10.82,20.77a1,1,0,0,0,.42.64c3.5,2.37,26.84,16.88,30.18-14.47a1.11,1.11,0,0,1,1.69-.72c1.65,1,1,7.95.93,8-.25.58-.48,12-17.9,17-2.38.69-9.17-1.81-14.26-5.07a5,5,0,0,0-3.14-.38c-2.95,1.49-2.2,2.35-7.55,7.73-.19.19-7.47,6-7.76,6-11.82,2.39-16,4.94-22.69-1.16l-.07-.07C433.37,352.28,431.29,350.74,435.17,350Z"/><path class="cls-6" d="M451.42,371.1c1.22-.2,13.7,16.46,26.93-4.36.14-.21,0-.5.11-.72,1.88-3.14,1-2.79-1.34-9.29-.85-2.42-5-11.22-5.75-16.43,0,0,1-3.49,2.75,1.54,0,0,9.19,20.89,9.35,23.25a.81.81,0,0,0,.27.58c2.46,2.23,19.38,13.51,24.15-13.52.11-.63,1.46-.39,1.95,0,1.18.93-.84,8.87-.88,8.94-.23.49-1.22,10.37-14.71,13.84-1.84.47-6.77-2-10.37-5.12a3.36,3.36,0,0,0-2.34-.48c-2.33,1.15-1.83,1.92-6.25,6.33-.16.16-6.06,4.8-6.28,4.84-9.07,1.48-12.88.09-17.46-5.54C451.53,374.94,448.44,371.59,451.42,371.1Z"/><path class="cls-6" d="M459.43,392.59c1,0,6.86,15.25,20.74-.49.14-.17.87-3.14,0-8.8-.33-2.11-.09-9.55.09-14,0,0,1.33-2.77,2,1.6,0,0,2.27,20.1,2.38,20.25,1.67,2.13,18.31,16.87,26.27-5,.08-.22.21-.38.64,1.21.29,1.08.78,2.4.76,2.43-.27.38-4.16,10.27-15.62,11.6-1.56.18-8.3-3.18-10.75-6.15a2.67,2.67,0,0,0-1.83-.68c-2.06.69-1.77,1.39-6,4.54-.15.11-6.58,2.66-6.77,2.67-7.58.18-9.51-.79-12.37-6C458.94,395.79,456.94,392.66,459.43,392.59Z"/><path class="cls-6" d="M480.17,396.56s-.28,13.5,1.5,12.71,2.21-5,2.12-8.1,0-7.79,0-7.79S479.6,395.59,480.17,396.56Z"/><path d="M468.14,289.1s32.65-.57,47.59,26.56c.58,1.06,4.28,7.44,1.86,6.93-3.42-.73-8.89-10.78-12.12-12.52l-.06-.06a56.52,56.52,0,0,0-12.83-11.24C484.44,293.48,452.8,289.62,468.14,289.1Z"/><path d="M430.15,310.35s-22.37,17.59-12.93,44.79c.37,1.06,2.47,7.56,3.73,5.87,1.78-2.39-1.77-12.43-.85-15.43a.11.11,0,0,0,0-.08,44,44,0,0,1,.56-14.93C422.33,322.39,440.83,302.26,430.15,310.35Z"/><path d="M386.69,328.93s19,4,21.72,1.2,6.74,2.09,1.5,3.25-17.26.67-20.2-1.12S386.34,331.13,386.69,328.93Z"/><path d="M398.65,337.11s9.39,4.43,11.24,1.78,3.22,2.25.27,3.25-9.19.19-10.45-1.65S398.12,339.28,398.65,337.11Z"/><path d="M401.86,345.74s7.78,3.67,9.36,1.93,2.65,1.77.18,2.28-7.67-.43-8.69-1.8S401.39,347.21,401.86,345.74Z"/><path d="M530.84,292.66s-11.83,9.9-15.09,8.79-3.86,4,.49,3,12.77-5.77,14-8.18S532.15,294.19,530.84,292.66Z"/><path d="M528.37,300.66s-4.46,8.61-7.73,7.51-1,3.52,2,2.73,7.43-4.83,7.18-7S530.26,302.09,528.37,300.66Z"/><path d="M530.59,307s-2,7.66-4.46,7.59-.23,2.95,1.82,1.62,4.63-5.48,4.14-7.07S532.15,307.67,530.59,307Z"/><path d="M485.69,417.54c.3.07.46-.3.19-.42-2.52-1.17-7.35-2.66-9.95,1.56,0,0-5,6.33,3,9.92a6.67,6.67,0,0,0,7-.89c.82-.72,1.22-1.53.35-2.27a13.63,13.63,0,0,1-6.77,1.1s-5.33-2.36-2.08-6.66a6.76,6.76,0,0,1,3.25-2.14,8.72,8.72,0,0,1,5-.2Z"/><path d="M483.78,421.67a2.22,2.22,0,0,1-2.29,2.13,1.74,1.74,0,0,1-1.88-2.05c.26-1.05.56-2.08,1.86-2.15A2.13,2.13,0,0,1,483.78,421.67Z"/><path d="M510.43,432.1c1.49-3,10.57-21,19.87-29,.68-.58,0-1.58-.9-1.32-2.91.87-7.37,3.27-11.75,9.8,0,0-14.83,20.81-8,21A.92.92,0,0,0,510.43,432.1Z"/><path d="M456.51,433.33s-19.06-16.94-31.29-22.15a.87.87,0,0,1,.47-1.67c2.64.09,6.93,1.23,13.19,5.72C438.88,415.23,462.8,431.59,456.51,433.33Z"/><path d="M470.17,274.72s-20.43,11.77-27.3-13.64c0,0-1.72-13.3-3.82-14.67,0,0,.77,12.11,0,8.19,0,0,2.94,17.22,9.2,21.32C448.25,275.92,463.49,282.74,470.17,274.72Z"/><path class="cls-5" d="M503.62,238.19c4.59-2.31,12.76-5.4,9.66,3.76-.82,2.43-2.77,6.56-5.06,7.73-4.58,2.35-11.75,2.85-8.72-6.66A8.18,8.18,0,0,1,503.62,238.19Z"/><path class="cls-6" d="M529.62,208.44s24.18,31.38,20.36,38c0,0-26.6,34.22-30.67,34.22,0,0-1-.53,1.78-4.09l22-26.86c1.12-1.31,4.89-3.94,4.11-5.43-4.28-8.15.26-2.05-19.6-34.45C526.36,207.81,529.62,208.44,529.62,208.44Z"/><path class="cls-4" d="M566.75,263.72c.36-.94-.35-3.7.34-4.46,73.67-81.29,11.65-106.71.79-110.5a9.18,9.18,0,0,0-3.29-.52c-96.54,2-156.27,44.08-217,56-12.51,2.47-22.25,6.84-29.85,12.21a1.14,1.14,0,0,0,0,1.89h0l.08.07c5.08,4.85,13.68,23.08,15,24l.58.56a70.49,70.49,0,0,0,29,17.21c5.92,1.79,11.84,3.58,17.72,5.5,19.47,6.36,54.87,2.37,75.36.1,72.32-8,68.21-4.5,82.59-13.26,52.25-31.8,48.83-36.78,52.49-35"/><path class="cls-4" d="M431.42,239.25s14.7,29.16,13,40.76c0,0,.38,12.79-13,19.61,0,0-6.72-1,2.86-8.19,0,0,10.51-5.42,6.11-23.87C440.39,267.56,424.92,234.3,431.42,239.25Z"/><path class="cls-4" d="M501.8,338.74A17.15,17.15,0,0,0,507,328.58c0-.08.72-7.06-.93-8a1.11,1.11,0,0,0-1.69.72c-.86,8.09-3.06,13.12-5.9,16.1Z"/><path class="cls-4" d="M468.14,289.1s32.65-.57,47.59,26.56c.58,1.06,4.28,7.44,1.86,6.93-3.42-.73-8.89-10.78-12.12-12.52l-.06-.06a56.52,56.52,0,0,0-12.83-11.24C484.44,293.48,452.8,289.62,468.14,289.1Z"/><path class="cls-4" d="M432.61,310.51c1.3-2.14,1.29-2.85-1.49-.88Z"/><path class="cls-4" d="M530.84,292.66s-11.83,9.9-15.09,8.79-3.86,4,.49,3,12.77-5.77,14-8.18S532.15,294.19,530.84,292.66Z"/><path class="cls-4" d="M528.37,300.66s-4.46,8.61-7.73,7.51-1,3.52,2,2.73,7.43-4.83,7.18-7S530.26,302.09,528.37,300.66Z"/><path class="cls-4" d="M530.59,307s-2,7.66-4.46,7.59-.23,2.95,1.82,1.62,4.63-5.48,4.14-7.07S532.15,307.67,530.59,307Z"/><path class="cls-4" d="M470.17,274.72s-20.43,11.77-27.3-13.64c0,0-1.72-13.3-3.82-14.67,0,0,.77,12.11,0,8.19,0,0,2.94,17.22,9.2,21.32C448.25,275.92,463.49,282.74,470.17,274.72Z"/><path class="cls-4" d="M503.62,238.19c4.59-2.31,12.76-5.4,9.66,3.76-.82,2.43-2.77,6.56-5.06,7.73-4.58,2.35-11.75,2.85-8.72-6.66A8.18,8.18,0,0,1,503.62,238.19Z"/><path class="cls-4" d="M529.62,208.44s24.18,31.38,20.36,38c0,0-26.6,34.22-30.67,34.22,0,0-1-.53,1.78-4.09l22-26.86c1.12-1.31,4.89-3.94,4.11-5.43-4.28-8.15.26-2.05-19.6-34.45C526.36,207.81,529.62,208.44,529.62,208.44Z"/><path d="M411.27,221.28s-2.34-3-16.32-1.89-19.64.76-17.93,2.9,20.72-.76,20.72-.76S409.05,222.67,411.27,221.28Z"/><g class="cls-7"><path class="cls-8" d="M486.07,4l-.83.17L493,9Q489.53,6.48,486.07,4Z"/><path class="cls-8" d="M490.82,7.42l-.3,0L493,9Z"/></g><path d="M268.58,72.57c-3.84-14.22-3.21-9.43-1.39-15,.21-.64,2.21-3.48,5-3.43C307.28,54.74,320,66.25,352,94c2.59,2.24,4,1.8.82,3.59-20.07,11.27-6.61.74-18.72,14.55-1.91,2.18-2.71,1.36-4.5-.2C307,92.25,301.69,86.68,276.39,78.11,274.35,77.42,269.18,74.8,268.58,72.57Z"/><path d="M265.58,157.88c-1.95-.72-5.42-1.27-7.43-6.19-.23-.57,1.64-11.88,3.92-13.45,25.63-17.56,32.6-15.44,67.3-17.78,2.81-.19,3.41-1.42,2.5,1.87-5.74,20.77-4.15,17-4.13,17.82.08,2.72-.7,3.38-2.65,3.51-24.56,1.6-29,2.39-48.92,13.23C274.56,157.77,268.14,158.83,265.58,157.88Z"/><path d="M343.63,178.05a7.65,7.65,0,0,1-2.38,6.06c-12.6,12.84-14.44,21-19.75,38.44-.46,1.51-2.85,7-5.2,7.75-1.79.54-4.94.64-8.92-2.74-2.52-2.14-5.41-9-5.66-12.8-1.71-25.4-1.16-20.06,16.2-40.7,5.54-6.58,22.72-9.6,24.4-6.73Z"/><path d="M375.41,186.36c1,1.82,1.32,4.92.82,8.19-3.61,23.86-1.56,33.7,1.87,56,.3,1.93.9,9.6-.48,12.34a8.11,8.11,0,0,1-7.43,4.89c-2.67,0-7.53-4.47-9.28-8.11-11.68-24.29-9.09-19.35-5.32-55.21,1.21-11.44,12.11-29.29,14.48-27.83Z"/><path d="M397.6,22.47c.9,1.63,4.56,8.18,3.75,10.5-5.92,16.89-10.82,25.86-9.11,43.41.15,1.52.11,7.41-1.59,9.09-1.29,1.29-3.85,2.81-8.32,1.7-2.83-.7-7.61-5.31-9.15-8.5-10.28-21.23-8-16.85-.83-42.67,2.27-8.23,14-14.78,19.26-16.51Z"/><path d="M480.51,35.51c-.6,2.2-3,11.09-5.66,12.84C455.32,61.06,443.41,66.65,430,85.08c-1.16,1.59-4.15,2.49-7.07,3-2.22.41-6.44,2.19-9.4-1.88-1.87-2.57-5.1-7.26-2.12-11.54,21.1-30.34,12.75-20.15,40.93-40.86,9-6.6,19.47-7,25.5-5.22Z"/><path d="M513.53,122.07c-.67,1.42-9.23,6.58-11,6.22-6.22-1.27-7.31-1.09-9.2-1.63-18.14-5.21-28.83-6.39-48.21-2.08-1.68.38-3.71-1.28-5.45-3.17-1.32-1.44-4.55-3.35-3-9,1-3.59,2.81-10,7.24-11.09,31.45-7.91,22.67-9.73,50.53-4.15,7,1.4,13.79,4.37,16.21,9.58,1.1,2.36,4,13.05,2.88,15.33Z"/><path d="M519.55,195c-1.46,1.24-8.91,4-10.71,2.63-6.44-4.9-7.76-5.29-9.64-7-18-16-29.58-23.28-53.65-29.17-2.09-.5-3.58-3.52-4.63-6.62-.8-2.37-3.53-6.34.95-11.93,2.84-3.54,8-9.76,13.61-8.56,39.5,8.5,30.44,1.56,59.31,23.39,7.24,5.47,13.5,12.62,13.72,19.9.09,3.29,2.72,7.7.4,9.68Z"/><path d="M417,256c4.07,3.48,7.31,5.49,9.53-.22.52-1.36.43-3.61.33-6.44-.94-28.48-11.24-45.71-25.82-71.62-1.45-2.57-1.86-1.54-3.17-1.82-5.59-1.17-1.05,1.74-5.27,13.91-3.91,11.25,3.77,32.61,4.52,34.62,7.54,20.2,1.13,3.08,10.55,22.79C408.57,249.15,413.49,253,417,256Z"/><path d="M471.4,259.25c-1.13.29-9.94-5.28-11.13-7.42-4.24-7.63-5.15-8.67-6.38-11.11-11.72-23.34-19.43-35.74-36.21-53.61-1.45-1.55-2.3-4.93-2.82-8.15-.4-2.47-2.06-7.32,1.55-9.72,2.29-1.53,10.76-3.17,14.66.83,27.61,28.35,17.34,16.64,36.38,50.75,4.78,8.55,8.73,18,8.35,24.37-.18,2.88-2.59,13.6-4.4,14.06Z"/><path class="cls-9" d="M274.55,75.15c-3.7-13.64-3.09-9.05-1.36-14.35.2-.62,2.12-3.34,4.84-3.29,33.62.6,45.87,11.65,76.61,38.3,2.49,2.15,3.84,1.73.79,3.44-19.23,10.79-6.34.7-17.93,13.93-1.83,2.09-2.6,1.3-4.32-.2-21.72-18.91-26.85-24.26-51.13-32.51C280.09,79.8,275.13,77.29,274.55,75.15Z"/><path class="cls-9" d="M272.53,156c-1.88-.7-5.21-1.22-7.14-5.94-.23-.55,1.54-11.4,3.73-12.9,24.55-16.81,31.24-14.77,64.52-17,2.7-.18,3.27-1.35,2.41,1.81-5.46,19.91-3.95,16.32-3.92,17.08.08,2.61-.67,3.24-2.54,3.36-23.56,1.52-27.78,2.27-46.91,12.65C281.14,155.85,275,156.86,272.53,156Z"/><path class="cls-9" d="M347.17,176.69a7.33,7.33,0,0,1-2.27,5.82c-12.06,12.3-13.82,20.11-18.89,36.85-.44,1.45-2.73,6.76-5,7.43-1.72.52-4.73.61-8.55-2.64-2.42-2.06-5.2-8.63-5.45-12.29-1.67-24.38-1.13-19.25,15.49-39,5.3-6.31,21.77-9.19,23.39-6.43Z"/><path class="cls-9" d="M377.87,184.67c1,1.76,1.26,4.73.79,7.87-3.44,22.88-1.47,32.33,1.85,53.71.29,1.84.86,9.21-.45,11.83a7.77,7.77,0,0,1-7.13,4.68c-2.55,0-7.22-4.3-8.9-7.8-11.22-23.32-8.73-18.58-5.15-53,1.15-11,11.58-28.08,13.86-26.67Z"/><path class="cls-9" d="M397.86,26.48c.86,1.56,4.38,7.86,3.61,10.08-5.66,16.18-10.35,24.78-8.7,41.61.15,1.46.12,7.11-1.5,8.72-1.25,1.23-3.7,2.69-8,1.62-2.71-.68-7.3-5.11-8.78-8.17-9.89-20.37-7.66-16.18-.85-40.92,2.17-7.89,13.45-14.16,18.46-15.81Z"/><path class="cls-9" d="M477.69,39.17c-.57,2.12-2.84,10.64-5.41,12.31-18.72,12.16-30.15,17.51-43,35.16-1.11,1.53-4,2.39-6.78,2.9-2.14.39-6.18,2.09-9-1.81-1.8-2.46-4.91-7-2.06-11.06,20.21-29.07,12.21-19.31,39.23-39.14,8.61-6.32,18.67-6.68,24.46-5Z"/><path class="cls-9" d="M509.77,122.25c-.65,1.37-8.85,6.3-10.52,6-6-1.23-7-1.05-8.84-1.58-17.41-5-27.66-6.16-46.25-2-1.61.35-3.56-1.24-5.22-3-1.28-1.38-4.38-3.22-2.93-8.65.92-3.43,2.68-9.56,6.94-10.62,30.15-7.54,21.73-9.3,48.47-3.91,6.7,1.35,13.23,4.2,15.56,9.21,1.06,2.26,3.81,12.52,2.79,14.69Z"/><path class="cls-9" d="M516.41,191.6c-1.39,1.19-8.54,3.83-10.26,2.51-6.19-4.71-7.45-5.09-9.26-6.7-17.33-15.36-28.41-22.36-51.51-28-2-.49-3.44-3.38-4.45-6.36-.77-2.27-3.39-6.08.9-11.43,2.71-3.39,7.69-9.36,13-8.2,37.91,8.21,29.2,1.54,56.93,22.51,7,5.26,13,12.12,13.19,19.1.09,3.16,2.62,7.39.4,9.29Z"/><path class="cls-9" d="M417.55,251.41c3.92,3.34,7,5.27,9.14-.21.5-1.29.41-3.46.32-6.17-.94-27.33-10.84-43.88-24.84-68.76-1.39-2.47-1.79-1.48-3-1.75-5.36-1.14-1,1.66-5,13.34-3.73,10.78,3.65,31.3,4.37,33.22,7.25,19.39,1.08,3,10.14,21.89C409.5,244.85,414.22,248.56,417.55,251.41Z"/><path class="cls-9" d="M470,254.18c-1.09.27-9.54-5.09-10.68-7.14-4.08-7.33-5-8.33-6.13-10.68-11.26-22.4-18.67-34.31-34.78-51.49-1.39-1.49-2.21-4.73-2.71-7.83-.39-2.36-2-7,1.48-9.32,2.19-1.46,10.31-3,14.05.82,26.5,27.24,16.65,16,34.94,48.75,4.58,8.21,8.38,17.3,8,23.4-.16,2.76-2.46,13-4.19,13.49Z"/><path class="cls-10" d="M278.79,78.58c-3.64-13.11-3-8.7-1.4-13.79.19-.59,2-3.18,4.64-3.12,32.33.79,44.19,11.47,73.93,37.25,2.4,2.08,3.7,1.69.78,3.31-18.43,10.23-6.09.63-17.16,13.25-1.75,2-2.49,1.23-4.16-.22-21-18.28-26-23.45-49.38-31.52C284.15,83.08,279.36,80.64,278.79,78.58Z"/><path class="cls-10" d="M277.64,155.19c-1.81-.68-5-1.2-6.93-5.74-.22-.52,1.37-10.93,3.47-12.36,23.44-16,29.9-14,61.89-16,2.59-.16,3.13-1.29,2.33,1.74-5.06,19.08-3.63,15.65-3.6,16.38.1,2.5-.62,3.1-2.41,3.21-22.65,1.36-26.7,2.07-45,11.95C285.92,155.12,280,156.07,277.64,155.19Z"/><path class="cls-10" d="M349.05,176.7a7,7,0,0,1-2.15,5.58c-11.49,11.78-13.13,19.29-17.91,35.38-.41,1.39-2.57,6.49-4.72,7.13-1.65.48-4.53.55-8.21-2.61-2.33-2-5-8.35-5.29-11.87-1.73-23.49-1.19-18.55,14.63-37.5,5.05-6,20.82-8.7,22.38-6Z"/><path class="cls-10" d="M379.13,184.56c.93,1.7,1.23,4.56.79,7.58-3.2,22-1.26,31.11,2,51.71.29,1.78.87,8.87-.37,11.38a7.33,7.33,0,0,1-6.82,4.44c-2.45,0-6.94-4.2-8.57-7.58-10.87-22.54-8.46-18-5.18-51,1.05-10.54,11-26.92,13.17-25.55Z"/><path class="cls-10" d="M396.58,32.22c.85,1.5,4.27,7.57,3.53,9.7-5.35,15.49-9.82,23.71-8.13,39.88.14,1.4.15,6.82-1.41,8.35-1.18,1.18-3.53,2.56-7.67,1.5-2.61-.67-7-5-8.49-7.91-9.62-19.63-7.45-15.58-1-39.29,2-7.55,12.86-13.48,17.66-15Z"/><path class="cls-10" d="M473.38,45.08c-.53,2-2.65,10.17-5.11,11.76-17.95,11.58-28.92,16.65-41.18,33.51-1.06,1.46-3.82,2.27-6.51,2.74-2.06.37-5.94,2-8.72-1.76-1.76-2.37-4.78-6.69-2.07-10.61C429,53,421.4,62.28,447.28,43.4c8.26-6,18-6.32,23.54-4.68Z"/><path class="cls-10" d="M505.17,124.87c-.61,1.31-8.47,6-10.08,5.65-5.75-1.22-6.75-1.05-8.5-1.57-16.78-4.92-26.65-6.09-44.5-2.26-1.55.33-3.43-1.21-5-3-1.23-1.33-4.22-3.12-2.86-8.32.86-3.29,2.51-9.16,6.6-10.15,29-7.05,20.84-8.79,46.59-3.45,6.46,1.34,12.75,4.12,15,8.94,1,2.18,3.75,12,2.77,14.12Z"/><path class="cls-10" d="M512.81,190.83c-1.33,1.13-8.19,3.62-9.86,2.34-6-4.56-7.19-4.93-8.95-6.48-16.75-14.86-27.46-21.65-49.71-27.24-1.93-.49-3.33-3.27-4.32-6.14-.76-2.19-3.31-5.86.79-11,2.59-3.23,7.34-8.93,12.49-7.78,36.51,8.11,28.1,1.66,54.9,22,6.72,5.09,12.55,11.72,12.8,18.42.11,3,2.58,7.11.44,8.92Z"/><path class="cls-10" d="M417.59,248.69c3.76,3.24,6.76,5.12,8.75-.13.48-1.25.38-3.33.28-5.95-1-26.31-10.61-42.32-24.17-66.37-1.35-2.39-1.72-1.44-2.92-1.71-5.15-1.13-1,1.6-4.77,12.81-3.53,10.35,3.66,30.15,4.36,32,7.05,18.72,1.06,2.86,9.84,21.15C409.83,242.31,414.38,245.92,417.59,248.69Z"/><path class="cls-10" d="M468.11,251.26c-1,.25-9.17-5-10.27-6.95-3.95-7.09-4.79-8.06-5.94-10.32-10.91-21.66-18.07-33.18-33.6-49.83-1.34-1.44-2.14-4.58-2.64-7.56-.39-2.28-1.94-6.78,1.37-9,2.09-1.39,9.86-2.84,13.47.88,25.55,26.42,16,15.52,33.75,47.19,4.43,8,8.12,16.73,7.81,22.6-.14,2.65-2.29,12.54-3.95,13Z"/><path d="M305.14,58.74c3.84-13.57,1.88-9.06,6.69-14.07.56-.59,4.11-3.07,6.93-2.79,34.87,3.38,41.46,15.14,58.59,43.61,1.38,2.3,3,2-1.12,3.41-26.24,8.88-7,.15-26.65,12-3.1,1.87-3.46,1-4.42-.56C333.1,80.2,330.76,74.57,310,64.53,308.31,63.72,304.54,60.86,305.14,58.74Z"/><path d="M269.25,132c-1.27-1.46-3.82-3.12-3.58-9.83,0-.78,5.68-14.37,8.07-15.68,26.74-14.64,31.46-10,59.75-3.12,2.29.56,3.22-.8,1.28,3.05-12.2,24.29-9.57,20.08-9.84,21.06-.94,3.42-1.81,4-3.39,3.63-20-5-23.78-5.23-43.56,2.65C276.38,134.41,270.92,133.92,269.25,132Z"/><path d="M328.57,158.58a7.11,7.11,0,0,1-3.79,5.7c-15.91,8.45-19.59,16.75-28.89,33.88-.81,1.48-4.5,6.58-7.1,6.25-2-.25-5.28-1.64-8.7-7.35-2.16-3.61-3.69-12.7-3.13-17.12,3.71-29.43,3.13-23.15,25.68-38.12,7.19-4.77,25.75,0,26.88,4.05Z"/><path d="M353.94,182.3c.81,2.25.42,5.41-1.06,8.38-10.78,21.61-10.66,32.18-12,55.53-.11,2-1.31,9.79-3.78,11.82-1.89,1.56-5.41,3.28-10.83,1.3-3.42-1.24-8.53-7.87-9.85-12.25-8.79-29.16-6.72-23.13,7.33-56.39,4.48-10.61,23.09-22.95,25.77-20.41Z"/><path d="M430.65,30.87c.67,2.05,3.36,10.33,1.88,12.29-10.79,14.3-18.54,21.1-20.67,39.56-.19,1.6-1.61,7.51-4,8.44-1.8.7-5.11,1.06-10-2.1-3.11-2-7.55-8.84-8.58-12.76-6.92-26.08-5.26-20.62,9-43.36,4.55-7.25,19.68-8.47,26.11-7.82Z"/><path d="M498.6,77.49c-1.19,2.05-6,10.33-8.65,10.69-19.32,2.62-30.37,1.87-46.9,14.17-1.43,1.07-4,.33-6.46-.76-1.86-.83-5.7-1.31-6.63-7.41-.59-3.85-1.51-10.78,2.22-13.72,26.42-20.84,16.57-14.56,45.23-20.91,9.14-2,17.36,3.55,21.42,8.9Z"/><path d="M507,160.39c-1.08,1.15-10.81,3.46-12.36,2.59-5.53-3.1-6.62-3.25-8.26-4.35-15.69-10.46-25.5-14.83-45.28-16.61-1.71-.16-3.14-2.35-4.22-4.67-.82-1.78-3.31-4.58-.12-9.51,2-3.13,5.72-8.65,10.29-8.36,32.37,2,24.56-2.38,49.39,11.39,6.23,3.45,11.79,8.34,12.51,14,.32,2.58-.23,13.63-1.95,15.47Z"/><path d="M490.36,231.64c-1.77.74-9.71,1.11-11-.75-4.63-6.62-5.77-7.4-7.05-9.57-12.28-20.71-21-31.15-42.17-44.07-1.83-1.11-2.33-4.43-2.38-7.71,0-2.51-1.42-7.11,4.56-11.07,3.78-2.51,10.64-6.86,15.58-4,35,20.1,28.51,10.73,49.33,40.29,5.22,7.41,9,16.12,7,23.12-.92,3.16.24,8.16-2.58,9.34Z"/><path d="M369.19,260.57c4,4.44,7.54,7.23,13.51,2.27,1.41-1.18,2.41-3.39,3.7-6.16,12.92-27.88,7.05-47.3-.51-76.25-.75-2.87-1.84-2-3.54-2.59C375.07,175.23,380,179.25,368,190c-11.11,9.88-11,32.63-11,34.77.5,21.57,0,3.29,3.44,24.88C360.79,251.75,365.78,256.78,369.19,260.57Z"/><path d="M433.07,282.54c-1.68,0-10.9-8.07-11.45-10.59-1.95-9-2.68-10.28-3.13-13.12-4.29-27.09-8.6-41.89-22.51-64.72-1.2-2-.66-5.67.23-9.12.69-2.64.86-8.07,7-9.58,3.88-.95,16.23-.39,19.54,4.75,23.43,36.48,15.3,21.71,24.18,61.83,2.22,10.06,2.87,20.84-.83,27.27-1.67,2.91-10.32,13.28-13,13.28Z"/><path class="cls-9" d="M309.74,61.63c3.66-13,1.78-8.69,6.4-13.5.53-.56,3.93-2.93,6.63-2.67C356.2,48.74,362.53,60,379,87.38c1.34,2.22,2.92,1.93-1.06,3.28-25.15,8.49-6.75.13-25.54,11.53-3,1.8-3.31,1-4.23-.54C336.56,82.26,334.31,76.86,314.4,67.2,312.78,66.41,309.16,63.67,309.74,61.63Z"/><path class="cls-9" d="M275.45,131.56c-1.22-1.4-3.66-3-3.44-9.43,0-.75,5.43-13.79,7.71-15,25.62-14,30.16-9.59,57.28-2.93,2.19.54,3.08-.76,1.23,2.93-11.67,23.3-9.15,19.26-9.41,20.2-.9,3.28-1.73,3.86-3.25,3.48-19.18-4.78-22.79-5-41.74,2.5C282.29,133.88,277.06,133.4,275.45,131.56Z"/><path class="cls-9" d="M332.55,158.74a6.8,6.8,0,0,1-3.63,5.46c-15.23,8.11-18.75,16.07-27.65,32.51-.77,1.43-4.3,6.32-6.79,6-1.9-.25-5.06-1.58-8.34-7.07-2.07-3.47-3.54-12.2-3-16.44,3.53-28.26,3-22.23,24.57-36.58,6.88-4.58,24.67,0,25.76,3.9Z"/><path class="cls-9" d="M357.53,181.8c.78,2.16.41,5.2-1,8-10.31,20.74-10.19,30.89-11.41,53.31-.11,1.94-1.26,9.4-3.62,11.35-1.8,1.49-5.18,3.13-10.37,1.24-3.28-1.2-8.19-7.57-9.45-11.78-8.45-28-6.46-22.22,7-54.14,4.29-10.18,22.11-22,24.68-19.57Z"/><path class="cls-9" d="M430,35c.64,2,3.24,9.92,1.82,11.8-10.32,13.71-17.75,20.22-19.77,37.94-.17,1.53-1.53,7.21-3.78,8.09-1.72.67-4.9,1-9.6-2-3-1.92-7.24-8.48-8.24-12.24C383.77,53.54,385.37,58.79,399,37c4.36-7,18.86-8.1,25-7.47Z"/><path class="cls-9" d="M495.2,79.85c-1.14,2-5.74,9.91-8.28,10.25-18.51,2.49-29.11,1.76-44.93,13.55-1.37,1-3.88.31-6.2-.74-1.78-.8-5.47-1.26-6.37-7.12-.56-3.7-1.45-10.35,2.12-13.16,25.3-20,15.86-14,43.33-20,8.76-1.93,16.64,3.42,20.54,8.57Z"/><path class="cls-9" d="M503.3,159.42c-1,1.1-10.35,3.31-11.84,2.48-5.31-3-6.35-3.13-7.93-4.19-15-10.06-24.46-14.26-43.42-16-1.64-.15-3-2.25-4-4.48-.79-1.71-3.18-4.4-.14-9.13,1.93-3,5.48-8.29,9.86-8,31,2,23.54-2.26,47.36,11,6,3.32,11.31,8,12,13.5.32,2.48-.2,13.08-1.85,14.84Z"/><path class="cls-9" d="M488.4,227.49c-1.69.7-9.3,1-10.54-.73-4.45-6.37-5.54-7.11-6.77-9.19-11.8-19.9-20.21-29.93-40.47-42.35-1.76-1.07-2.24-4.26-2.29-7.41,0-2.4-1.37-6.82,4.35-10.62,3.63-2.4,10.2-6.57,14.94-3.84C481.21,172.68,475,163.68,495,192.07c5,7.12,8.64,15.48,6.7,22.2-.87,3,.25,7.83-2.46,9Z"/><path class="cls-9" d="M372.31,256.29c3.83,4.27,7.23,6.95,12.95,2.2,1.35-1.13,2.31-3.26,3.53-5.91,12.36-26.77,6.72-45.42-.54-73.22-.72-2.76-1.76-1.91-3.39-2.49-7-2.51-2.25,1.35-13.77,11.62-10.64,9.49-10.52,31.32-10.47,33.38.5,20.71,0,3.16,3.31,23.89C364.26,247.82,369,252.65,372.31,256.29Z"/><path class="cls-9" d="M433.69,277c-1.61,0-10.45-7.76-11-10.17-1.88-8.63-2.58-9.88-3-12.61-4.13-26-8.27-40.23-21.61-62.16-1.15-1.9-.64-5.45.22-8.76.65-2.54.81-7.75,6.68-9.2,3.71-.91,15.55-.36,18.72,4.58,22.47,35.05,14.67,20.86,23.2,59.39,2.14,9.66,2.77,20-.77,26.19C444.55,267,436.27,277,433.69,277Z"/><path class="cls-11" d="M312.14,65.17c3.43-12.52,1.66-8.36,6.05-13,.52-.54,3.75-2.81,6.34-2.53C356.58,53,362.7,63.94,378.62,90.39c1.29,2.14,2.81,1.87-1,3.15-24,8-6.46.09-24.39,11-2.84,1.72-3.17,1-4.06-.54-11.21-18.75-13.4-24-32.53-33.4C315.09,69.8,311.6,67.13,312.14,65.17Z"/><path class="cls-11" d="M279.78,132.06c-1.18-1.36-3.53-2.91-3.36-9.12,0-.72,5.12-13.25,7.3-14.44,24.46-13.37,28.83-9.07,54.85-2.5,2.11.53,2.95-.71,1.2,2.83-11,22.39-8.65,18.51-8.9,19.42-.84,3.16-1.63,3.71-3.09,3.33-18.4-4.72-21.86-5-40,2.17C286.34,134.33,281.32,133.83,279.78,132.06Z"/><path class="cls-11" d="M334.5,159.64a6.51,6.51,0,0,1-3.44,5.27c-14.52,7.78-17.86,15.46-26.31,31.31-.73,1.37-4.08,6.09-6.46,5.78-1.82-.24-4.85-1.54-8-6.86-2-3.36-3.43-11.8-2.94-15.89,3.28-27.29,2.78-21.47,23.35-35.26,6.57-4.4,23.57.12,24.63,3.86Z"/><path class="cls-11" d="M359.17,182.28c.76,2.09.42,5-.92,7.77-9.77,20-9.61,29.79-10.68,51.43-.1,1.88-1.16,9.07-3.41,10.94-1.72,1.43-4.94,3-9.91,1.16-3.14-1.17-7.86-7.34-9.09-11.41-8.19-27.09-6.27-21.48,6.45-52.25,4.05-9.81,21-21.17,23.5-18.81Z"/><path class="cls-11" d="M427.2,40.22c.63,1.91,3.16,9.58,1.81,11.39C419.2,64.76,412.12,71,410.29,88.06c-.16,1.47-1.42,6.94-3.57,7.77-1.65.64-4.69,1-9.21-2-2.87-1.88-7-8.23-8-11.85-6.52-24.18-5-19.11,8-40.05,4.13-6.68,18-7.7,23.92-7.06Z"/><path class="cls-11" d="M489.91,83.79c-1.09,1.89-5.44,9.52-7.88,9.83-17.72,2.3-27.87,1.53-43,12.81-1.31,1-3.71.27-5.94-.75-1.71-.78-5.25-1.25-6.14-6.9-.57-3.57-1.46-10,1.95-12.68,24.12-19.1,15.11-13.36,41.39-19,8.38-1.81,16,3.4,19.73,8.38Z"/><path class="cls-11" d="M498.13,160.52c-1,1.06-9.9,3.13-11.33,2.32-5.11-2.91-6.11-3.05-7.62-4.08-14.47-9.78-23.52-13.89-41.69-15.67-1.57-.15-2.9-2.19-3.9-4.34-.77-1.65-3.07-4.26-.18-8.8,1.83-2.87,5.2-8,9.39-7.66,29.74,2.08,22.55-2,45.44,10.86,5.74,3.24,10.88,7.8,11.57,13.08.32,2.39-.12,12.6-1.68,14.29Z"/><path class="cls-11" d="M485.21,225.65c-1.62.68-8.91,1-10.11-.76-4.29-6.16-5.34-6.88-6.53-8.89-11.42-19.24-19.53-29-39-41-1.68-1.05-2.16-4.12-2.23-7.15-.05-2.32-1.35-6.59,4.11-10.21,3.46-2.3,9.73-6.28,14.28-3.62C478,172.79,472,164.09,491.27,191.57c4.85,6.89,8.37,15,6.56,21.42-.82,2.92.27,7.55-2.31,8.63Z"/><path class="cls-11" d="M373.71,253.66c3.68,4.14,7,6.74,12.39,2.17,1.29-1.09,2.19-3.13,3.35-5.7,11.71-25.81,6.25-43.84-.79-70.73-.7-2.67-1.7-1.85-3.25-2.42-6.68-2.45-2.15,1.3-13.12,11.18-10.13,9.12-9.93,30.22-9.87,32.2.55,20,.05,3,3.25,23.1C366,245.45,370.58,250.13,373.71,253.66Z"/><path class="cls-11" d="M432.59,273.45c-1.55,0-10-7.54-10.52-9.87-1.83-8.34-2.5-9.56-2.92-12.19-4-25.16-8-38.9-20.84-60.15-1.11-1.83-.64-5.26.17-8.46.62-2.44.75-7.48,6.35-8.86,3.54-.87,14.86-.29,17.9,4.5,21.59,33.94,14.09,20.2,22.36,57.46,2.08,9.35,2.71,19.35-.65,25.3-1.52,2.69-9.39,12.28-11.85,12.27Z"/><path class="cls-12" d="M439.49,150.42c-1.14,14.65,1.36,28.13-12.07,32.17-10.1,3-17.36,15.38-39.24,31.85-9.49,7.14-22.68-4.86-18.7-8.59,7.23-6.8-13.62-13.23-16.6-15.17-20.69-13.45-21.6-9.47-21.38-52,.22-44.14,36.18-53.33,71.23-52.53C451.37,87.29,441.55,124,439.49,150.42Z"/><path class="cls-13" d="M438,153.81c-1,13.44.45,23.2-11.65,26.84-9.1,2.73-30.2,26.56-39.75,31S371,211.58,372,206.76c.74-3.71,3.05-4.35,0-6.27-9.55-6-8.52-7.29-22.34-14.27-18.13-9.15-16.53-25.83-16.9-46.33-.73-39.77,23.72-51.58,71.47-52.59S439.7,131.07,438,153.81Z"/><path class="cls-14" d="M420.94,156.79l.88.55c2.24,1.36,9.88,6.51,6.94,12.16-3.42,6.6-14.84,12.51-15.07,13,0,0-1.6-1.6-9.13,12.27,0,0-10.73,25.7-30.6,18.42,0,0-6.79-5.48-.39-10.71,0,0-1.81,4.46.83,6.67a11.24,11.24,0,0,0,3.29,2.09c2.68,1.13,7.55,3.43,19.33-7.82,0,0,9.37-16.83,11.19-21.38,0,0,12.79-7.28,15.53-12.28,0,0,5.25-.91,0-8C419.64,156.27,420.41,156.45,420.94,156.79Z"/><path d="M403.65,109.24s1.76-.94,1.9,1.29c.46,7.26,3.45,10.93,8.05,12.28a2.42,2.42,0,0,1,1.51,1.27c1.6,3.27,5.52,13.85,3.95,13.85,0,0-1-2-2.78-5.64-.44-.9-.42-4.07-.8-4.55-1-1.22-2.08-4.18-5.67-5.53a7.47,7.47,0,0,1-1.58-1.17,14,14,0,0,1-4.58-10.43Z"/><path d="M363.58,186.84s25.85-11.59,31.16-17.47c0,0,4.11,7.75-10.27,19.69C378.36,194.13,363.58,186.84,363.58,186.84Z"/><path d="M420.6,120s-8.62-13.12,4-15.09c0,0,11.19-3.5,6.22,12.7,0,0,3.83,5.89,3.26,11.09,0,0-3.58,7-7.7-.86,0,0-.35-2,1.36-.28,0,0,5,6.14,4.8-.63a17.44,17.44,0,0,0-2.61-7.36,4.11,4.11,0,0,1-.25-3.15c.51-3,2.68-10-1.14-10.63-1.1-.19-6.24.82-7.13,1.47-1.79,1.32-3.1,5-.69,8.65C420.77,115.9,423.34,121,420.6,120Z"/><path d="M372.93,150.51c-.37-.5,11-6.63,15.61-14,.56-.9,6-6.32,7.52-6.32,0,0,11.56,16.8,4.65,21.86,0,0-7,7.59-14.95,6.5C385.76,158.56,379.51,159.25,372.93,150.51Z"/><path d="M333.41,151.61c.18-1.2,13.43.14,18.47,2.71a8.06,8.06,0,0,0,3,.88A9.76,9.76,0,0,0,359,155s-3.5,12.69-7,13.82c0,0-6.62,4.1-15.09-1.69C336.91,167.1,331.94,161.5,333.41,151.61Z"/><path class="cls-8" d="M374.53,150.42c-.34-.47,10-6.26,14.22-13.21.51-.85,5.48-6,6.85-6,0,0,10.53,15.87,4.24,20.64,0,0-6.39,7.16-13.62,6.14C386.22,158,380.53,158.67,374.53,150.42Z"/><path class="cls-8" d="M334.29,152.39c.16-1.06,11.77.06,16.74,2.27a12.15,12.15,0,0,0,5.3,1.1,4.63,4.63,0,0,0,1.77-.3s-3.26,11.6-6.51,12.62c0,0-6.17,3.75-14-1.53C337.55,166.55,332.92,161.43,334.29,152.39Z"/><g class="cls-1"><path d="M276.39,78.11c19.71,6.68,27.31,11.53,40.4,22.67,2.56,0,5.13,0,7.7.06,4.8.12,9.6.4,14.36,1l4.91.59c1.79-.85,4.6-2.28,9.1-4.81C356,95.8,354.63,96.24,352,94c-32-27.75-44.76-39.26-79.8-39.83-2.84-.05-4.84,2.79-5.05,3.43-1.82,5.54-2.45.75,1.39,15C269.18,74.8,274.35,77.42,276.39,78.11Z"/><path d="M397.6,22.47c.9,1.63,4.56,8.18,3.75,10.5-5.92,16.89-10.82,25.86-9.11,43.41.15,1.52.11,7.41-1.59,9.09-1.29,1.29-3.85,2.81-8.32,1.7-2.83-.7-7.61-5.31-9.15-8.5-10.28-21.23-8-16.85-.83-42.67,2.27-8.23,14-14.78,19.26-16.51Z"/><path d="M480.51,35.51c-.6,2.2-3,11.09-5.66,12.84C455.32,61.06,443.41,66.65,430,85.08c-1.16,1.59-4.15,2.49-7.07,3-2.22.41-6.44,2.19-9.4-1.88-1.87-2.57-5.1-7.26-2.12-11.54,21.1-30.34,12.75-20.15,40.93-40.86,9-6.6,19.47-7,25.5-5.22Z"/><path d="M513.53,122.07c-.67,1.42-9.23,6.58-11,6.22-6.22-1.27-7.31-1.09-9.2-1.63-18.14-5.21-28.83-6.39-48.21-2.08-1.68.38-3.71-1.28-5.45-3.17-1.32-1.44-4.55-3.35-3-9,1-3.59,2.81-10,7.24-11.09,31.45-7.91,22.67-9.73,50.53-4.15,7,1.4,13.79,4.37,16.21,9.58,1.1,2.36,4,13.05,2.88,15.33Z"/><path d="M528.51,177.63c-.22-7.28-6.48-14.43-13.72-19.9-28.87-21.83-19.81-14.89-59.31-23.39-4.44-1-8.63,2.79-11.59,6.15A89.39,89.39,0,0,1,455,149.86a114.25,114.25,0,0,1,11.79,14.89,48.41,48.41,0,0,1,3,5c10.18,4.89,18.63,11.34,29.39,20.88,1.88,1.68,3.2,2.07,9.64,7,1.8,1.38,9.25-1.39,10.71-2.63l9.36-7.65C531.23,185.33,528.6,180.92,528.51,177.63Z"/><path d="M282.05,80.47c18,6.12,25.49,10.65,37,20.31,1.81,0,3.61,0,5.42.06,4.8.12,9.6.4,14.36,1,3.18.39,6.39.76,9.61,1.19,1.66-.84,3.91-2,7-3.75s1.7-1.29-.79-3.44c-30.74-26.65-43-37.7-76.61-38.3-2.72,0-4.64,2.67-4.84,3.29-1.73,5.3-2.34.71,1.36,14.35C275.13,77.29,280.09,79.8,282.05,80.47Z"/><path d="M397.86,26.48c.86,1.56,4.38,7.86,3.61,10.08-5.66,16.18-10.35,24.78-8.7,41.61.15,1.46.12,7.11-1.5,8.72-1.25,1.23-3.7,2.69-8,1.62-2.71-.68-7.3-5.11-8.78-8.17-9.89-20.37-7.66-16.18-.85-40.92,2.17-7.89,13.45-14.16,18.46-15.81Z"/><path d="M477.69,39.17c-.57,2.12-2.84,10.64-5.41,12.31-18.72,12.16-30.15,17.51-43,35.16-1.11,1.53-4,2.39-6.78,2.9-2.14.39-6.18,2.09-9-1.81-1.8-2.46-4.91-7-2.06-11.06,20.21-29.07,12.21-19.31,39.23-39.14,8.61-6.32,18.67-6.68,24.46-5Z"/><path d="M509.77,122.25c-.65,1.37-8.85,6.3-10.52,6-6-1.23-7-1.05-8.84-1.58-17.41-5-27.66-6.16-46.25-2-1.61.35-3.56-1.24-5.22-3-1.28-1.38-4.38-3.22-2.93-8.65.92-3.43,2.68-9.56,6.94-10.62,30.15-7.54,21.73-9.3,48.47-3.91,6.7,1.35,13.23,4.2,15.56,9.21,1.06,2.26,3.81,12.52,2.79,14.69Z"/><path d="M525,175c-.22-7-6.23-13.84-13.19-19.1-27.73-21-19-14.3-56.93-22.51-4.56-1-8.85,3.2-11.7,6.56.21.15.41.31.61.47A90.33,90.33,0,0,1,455,149.86a114.25,114.25,0,0,1,11.79,14.89c.55.81,1.08,1.63,1.58,2.47,9.89,4.73,18.06,10.94,28.49,20.19,1.81,1.61,3.07,2,9.26,6.7,1.72,1.32,8.87-1.32,10.26-2.51l9-7.32C527.61,182.38,525.08,178.15,525,175Z"/><path d="M286,83.74c15.61,5.38,23,9.48,32.46,17,2,0,4,0,6,.07,4.8.12,9.6.4,14.36,1,5,.6,10,1.16,15,2,.87-.47,1.83-1,2.89-1.58,2.92-1.62,1.62-1.23-.78-3.31C326.22,73.14,314.36,62.46,282,61.67c-2.62-.06-4.45,2.53-4.64,3.12-1.63,5.09-2.24.68,1.4,13.79C279.36,80.64,284.15,83.08,286,83.74Z"/><path d="M396.58,32.22c.85,1.5,4.27,7.57,3.53,9.7-5.35,15.49-9.82,23.71-8.13,39.88.14,1.4.15,6.82-1.41,8.35-1.18,1.18-3.53,2.56-7.67,1.5-2.61-.67-7-5-8.49-7.91-9.62-19.63-7.45-15.58-1-39.29,2-7.55,12.86-13.48,17.66-15Z"/><path d="M473.38,45.08c-.53,2-2.65,10.17-5.11,11.76-17.95,11.58-28.92,16.65-41.18,33.51-1.06,1.46-3.82,2.27-6.51,2.74-2.06.37-5.94,2-8.72-1.76-1.76-2.37-4.78-6.69-2.07-10.61C429,53,421.4,62.28,447.28,43.4c8.26-6,18-6.32,23.54-4.68Z"/><path d="M505.17,124.87c-.61,1.31-8.47,6-10.08,5.65-5.75-1.22-6.75-1.05-8.5-1.57-16.78-4.92-26.65-6.09-44.5-2.26-1.55.33-3.43-1.21-5-3-1.23-1.33-4.22-3.12-2.86-8.32.86-3.29,2.51-9.16,6.6-10.15,29-7.05,20.84-8.79,46.59-3.45,6.46,1.34,12.75,4.12,15,8.94,1,2.18,3.75,12,2.77,14.12Z"/><path d="M521,174.94c-.25-6.7-6.08-13.33-12.8-18.42-26.8-20.3-18.39-13.85-54.9-22-3.93-.88-7.63,2.23-10.31,5.19l.84.66A90.33,90.33,0,0,1,455,149.86a114.25,114.25,0,0,1,11.79,14.89c.82,1.2,1.59,2.44,2.3,3.7,8.4,4.42,15.74,10.13,24.88,18.24,1.76,1.55,3,1.92,8.95,6.48,1.67,1.28,8.53-1.21,9.86-2.34l8.58-7C523.53,182.05,521.06,178,521,174.94Z"/><path d="M305.14,58.74c3.84-13.57,1.88-9.06,6.69-14.07.56-.59,4.11-3.07,6.93-2.79,34.87,3.38,41.46,15.14,58.59,43.61,1.38,2.3,3,2-1.12,3.41-26.24,8.88-7,.15-26.65,12-3.1,1.87-3.46,1-4.42-.56C333.1,80.2,330.76,74.57,310,64.53,308.31,63.72,304.54,60.86,305.14,58.74Z"/><path d="M291.94,101.15c10.52,0,21-.54,31.56-.33-17.33-4.55-24.59-6.52-41.52,1.45A32.85,32.85,0,0,1,291.94,101.15Z"/><path d="M430.65,30.87c.67,2.05,3.36,10.33,1.88,12.29-10.79,14.3-18.54,21.1-20.67,39.56-.19,1.6-1.61,7.51-4,8.44-1.8.7-5.11,1.06-10-2.1-3.11-2-7.55-8.84-8.58-12.76-6.92-26.08-5.26-20.62,9-43.36,4.55-7.25,19.68-8.47,26.11-7.82Z"/><path d="M498.6,77.49c-1.19,2.05-6,10.33-8.65,10.69-19.32,2.62-30.37,1.87-46.9,14.17-1.43,1.07-4,.33-6.46-.76-1.86-.83-5.7-1.31-6.63-7.41-.59-3.85-1.51-10.78,2.22-13.72,26.42-20.84,16.57-14.56,45.23-20.91,9.14-2,17.36,3.55,21.42,8.9Z"/><path d="M508.9,144.92c-.72-5.71-6.28-10.6-12.51-14-24.83-13.77-17-9.38-49.39-11.39-4.57-.29-8.28,5.23-10.29,8.36-1.76,2.72-1.79,4.79-1.32,6.4,2.87,1.94,5.65,4,8.39,6.17,1,.73,2,1.47,3,2.23,16.12,2.1,25.48,6.58,39.59,16,1.64,1.1,2.73,1.25,8.26,4.35,1.55.87,11.28-1.44,12.36-2.59C508.67,158.55,509.22,147.5,508.9,144.92Z"/><path d="M497.23,194.73c-15.85-22.51-15.86-22.45-30.43-30l0,0a50.4,50.4,0,0,1,4.15,7.33,133.64,133.64,0,0,1,7.12,17.71c2.51,8.54,3.24,17.55,4.18,26.36.5,4.78,1.18,9.55,1.56,14.35.05.57.08,1.14.11,1.71a19.86,19.86,0,0,0,6.42-.57l11.26-4.45c2.82-1.18,1.66-6.18,2.58-9.34C506.22,210.85,502.45,202.14,497.23,194.73Z"/><path d="M314.4,67.2c19.91,9.66,22.16,15.06,33.75,34.45.42.71.72,1.26,1.21,1.47l.64.09a6.26,6.26,0,0,0,2.38-1c18.79-11.4.39-3,25.54-11.53,4-1.35,2.4-1.06,1.06-3.28C362.53,60,356.2,48.74,322.77,45.46c-2.7-.26-6.1,2.11-6.63,2.67-4.62,4.81-2.74.48-6.4,13.5C309.16,63.67,312.78,66.41,314.4,67.2Z"/><path d="M291.94,101.15c10.73,0,21.47-.56,32.2-.31-12.9-3.37-19.92-4.65-32.21.31Z"/><path d="M430,35c.64,2,3.24,9.92,1.82,11.8-10.32,13.71-17.75,20.22-19.77,37.94-.17,1.53-1.53,7.21-3.78,8.09-1.72.67-4.9,1-9.6-2-3-1.92-7.24-8.48-8.24-12.24C383.77,53.54,385.37,58.79,399,37c4.36-7,18.86-8.1,25-7.47Z"/><path d="M495.2,79.85c-1.14,2-5.74,9.91-8.28,10.25-18.51,2.49-29.11,1.76-44.93,13.55-1.37,1-3.88.31-6.2-.74-1.78-.8-5.47-1.26-6.37-7.12-.56-3.7-1.45-10.35,2.12-13.16,25.3-20,15.86-14,43.33-20,8.76-1.93,16.64,3.42,20.54,8.57Z"/><path d="M505.15,144.58c-.69-5.48-6-10.18-12-13.5-23.82-13.25-16.33-9-47.36-11-4.38-.28-7.93,5-9.86,8a7.41,7.41,0,0,0-1.39,5.57c3.18,2.1,6.23,4.39,9.24,6.74l2.7,2c14.9,2.09,23.79,6.41,37,15.27,1.58,1.06,2.62,1.2,7.93,4.19,1.49.83,10.81-1.38,11.84-2.48C505,157.66,505.47,147.06,505.15,144.58Z"/><path d="M495,192.07c-15.21-21.6-15.23-21.56-29.16-28.82l1,1.5a50.4,50.4,0,0,1,4.15,7.33,133.64,133.64,0,0,1,7.12,17.71c2.51,8.54,3.24,17.55,4.18,26.36.42,4,1,7.93,1.34,11.91a16.31,16.31,0,0,0,4.79-.57l10.79-4.26c2.71-1.13,1.59-5.93,2.46-9C503.59,207.55,500,199.19,495,192.07Z"/><path d="M316.64,70.56c18.8,9.27,21.24,14.47,32,32.46,1.88.26,3.77.53,5.65.85,16.22-9.93-.2-2.45,23.36-10.33,3.81-1.28,2.29-1,1-3.15-15.92-26.45-22-37.37-54.09-40.72-2.59-.28-5.82,2-6.34,2.53-4.39,4.61-2.62.45-6.05,13C311.6,67.13,315.09,69.8,316.64,70.56Z"/><path d="M318.29,100.77c-6.26-1.29-11.37-1.5-17.7.28C306.49,100.94,312.39,100.77,318.29,100.77Z"/><path d="M427.2,40.22c.63,1.91,3.16,9.58,1.81,11.39C419.2,64.76,412.12,71,410.29,88.06c-.16,1.47-1.42,6.94-3.57,7.77-1.65.64-4.69,1-9.21-2-2.87-1.88-7-8.23-8-11.85-6.52-24.18-5-19.11,8-40.05,4.13-6.68,18-7.7,23.92-7.06Z"/><path d="M489.91,83.79c-1.09,1.89-5.44,9.52-7.88,9.83-17.72,2.3-27.87,1.53-43,12.81-1.31,1-3.71.27-5.94-.75-1.71-.78-5.25-1.25-6.14-6.9-.57-3.57-1.46-10,1.95-12.68,24.12-19.1,15.11-13.36,41.39-19,8.38-1.81,16,3.4,19.73,8.38Z"/><path d="M499.81,146.23c-.69-5.28-5.83-9.84-11.57-13.08-22.89-12.9-15.7-8.78-45.44-10.86-4.19-.3-7.56,4.79-9.39,7.66a10,10,0,0,0-1.1,2.29,130.22,130.22,0,0,1,11.47,8.17c2,1.46,3.93,2.94,5.82,4.5,10.91,2.36,18.71,6.51,29.58,13.85,1.51,1,2.51,1.17,7.62,4.08,1.43.81,10.35-1.26,11.33-2.32C499.69,158.83,500.13,148.62,499.81,146.23Z"/><path d="M491.27,191.57C478.44,173.3,476.8,171,467.66,166a51.52,51.52,0,0,1,3.31,6.06,133.64,133.64,0,0,1,7.12,17.71c2.51,8.54,3.24,17.55,4.18,26.36.35,3.3.77,6.58,1.13,9.88a7,7,0,0,0,1.81-.38l10.31-4c2.58-1.08,1.49-5.71,2.31-8.63C499.64,206.53,496.12,198.46,491.27,191.57Z"/><path d="M363.52,105.89c7.64,2.1,15.28,4.16,22.82,6.58a300.71,300.71,0,0,1,33.58,13.21,117.75,117.75,0,0,1,10.87,5.64,107.35,107.35,0,0,1,9.92,6.73c2.47-24.22,3.4-50.93-38-51.89-22-.5-44.25,2.91-57.91,16.37A129.66,129.66,0,0,1,363.52,105.89Z"/><path d="M363.52,105.89c7.64,2.1,15.28,4.16,22.82,6.58a300.71,300.71,0,0,1,33.58,13.21,117.75,117.75,0,0,1,10.87,5.64,104.66,104.66,0,0,1,9,6c2.4-23,2.21-50.86-35.6-50.06-27.23.58-45.94,4.69-57.4,15.48A120.56,120.56,0,0,1,363.52,105.89Z"/><path d="M414.32,123.16a2.1,2.1,0,0,0-.72-.35l-.28-.09Z"/><path d="M411.23,121.82c-3.24-1.83-5.3-5.37-5.68-11.29-.14-2.23-1.9-1.29-1.9-1.29v1.37a14.09,14.09,0,0,0,3.74,9.6C408.68,120.74,410,121.27,411.23,121.82Z"/><path d="M420.77,115.9c-2.41-3.66-1.1-7.33.69-8.65.89-.65,6-1.66,7.13-1.47,3.82.65,1.65,7.64,1.14,10.63a4.11,4.11,0,0,0,.25,3.15,17.44,17.44,0,0,1,2.61,7.36c.17,6.77-4.8.63-4.8.63-1.71-1.71-1.36.28-1.36.28a13.93,13.93,0,0,0,.94,1.56c1.15.62,2.29,1.26,3.42,1.93l.29.17c1.83-.42,3.05-2.8,3.05-2.8.57-5.2-3.26-11.09-3.26-11.09,5-16.2-6.22-12.7-6.22-12.7-12.67,2-4,15.09-4,15.09C423.34,121,420.77,115.9,420.77,115.9Z"/></g><path class="cls-15" d="M384.34,153.66l0,0a.73.73,0,0,1-.55.35.27.27,0,0,0-.14.07l-.44.38c-.19.16-.54,0-.52-.19l.07-.52c0-.06-.11-.11-.28-.15-.43-.12-.66-.49-.49-.81l0-.1a.2.2,0,0,0-.1-.26l-.58-.29a.22.22,0,0,1-.09-.13c-.09-.39.53-.61.88-.32h0c.2,0,.32-.15.26-.3l-.21-.5c-.09-.21.21-.38.45-.25l.5.55c.16.09.42-.18.49-.31l.08-.41c.1-.21.65-.25.72,0l0,.83h0a.49.49,0,0,0,.81.1l.27-.39a.31.31,0,0,1,.49,0,.17.17,0,0,1,0,.18l-.29.46c-.08.14.12.46.31.5l.55,0c.28.05.33.35.07.43l-.61.2a5.83,5.83,0,0,0-.62.17,1.15,1.15,0,0,1-.4.12c-.12,0-.24,0-.26.08a.52.52,0,0,1-.15.19A.75.75,0,0,0,384.34,153.66Z"/><path class="cls-15" d="M352.72,162l0,0a.76.76,0,0,1-.55.35.35.35,0,0,0-.14.06l-.45.38c-.18.16-.54,0-.51-.19l.07-.52c0-.05-.12-.1-.29-.15-.43-.11-.65-.48-.48-.8l0-.1a.19.19,0,0,0-.11-.26l-.57-.29a.19.19,0,0,1-.09-.14c-.09-.39.53-.61.88-.32h0c.19,0,.32-.15.26-.29l-.22-.51c-.09-.21.22-.38.45-.24l.51.54c.15.09.41-.17.48-.31l.08-.41c.11-.2.66-.25.73,0l0,.83h0a.49.49,0,0,0,.81.09l.27-.38a.31.31,0,0,1,.5,0,.2.2,0,0,1,0,.17l-.29.47c-.09.13.12.46.31.49l.55,0c.28.05.32.35.06.44l-.61.2a6.33,6.33,0,0,0-.62.16,1.25,1.25,0,0,1-.4.13.46.46,0,0,0-.25.07.48.48,0,0,1-.16.2A.8.8,0,0,0,352.72,162Z"/><path class="cls-6" d="M587.28,173.89c-8.1-8.65-13.06-15.91-1.48-20,23.5-8.28,44.22-13.52,63.24-31.2,28.12-26.17,112.68-83,202.58-65,12,2.4,11.08,10.18,8.52,14.32-18.52,30-74.83,93.83-129.07,118.76-33.69,15.48-69.91,22.9-100.8,7.48a18.16,18.16,0,0,0-7.48-1.87l-23.19-1.54c-4.78-.16-8.81-11-12-14.34Z"/><path class="cls-3" d="M572.32,185.11c-7.27-7.71-4-19.89,6.39-23.51,21-7.33,51.87-20,68.83-35.7,25.09-23.25,100.57-73.7,181-57.51,10.7,2.16,9.92,9.09,7.65,12.77-16.5,26.65-66.71,83.43-115.15,105.53-30.1,13.73-62.46,20.28-90.1,6.49a16.45,16.45,0,0,0-6.7-1.68L583.42,190a16.08,16.08,0,0,1-11.1-4.93Z"/><path class="cls-16" d="M572.32,185.11c-7.27-7.71-4-19.89,6.39-23.51,21-7.33,51.87-20,68.83-35.7,25.09-23.25,100.57-73.7,181-57.51,10.7,2.16,9.92,9.09,7.65,12.77-16.5,26.65-66.71,83.43-115.15,105.53-30.1,13.73-62.46,20.28-90.1,6.49a16.45,16.45,0,0,0-6.7-1.68L583.42,190a16.08,16.08,0,0,1-11.1-4.93Z"/><path d="M598.64,177.3c.52-1.59,51.54-26.25,102.72-49.74,47.52-21.81,91.54-35.28,99.07-35.69"/><path class="cls-4" d="M598.64,177.3c.52-1.59,51.54-26.25,102.72-49.74,47.52-21.81,91.54-35.28,99.07-35.69"/><path class="cls-6" d="M283.82,284.92c-6.7-12.94-13.29-21.85-24.43-11.63-22.59,20.74-39.92,40.07-72.06,51.33C139.79,341.26,24.39,402.3.59,506.65c-3.16,13.88,7.11,16.86,13.65,16.23,47.36-4.56,157-32.1,216.51-77.05,37-27.93,65.05-62.58,61.59-103.08a18.13,18.13,0,0,1,1.51-8.87l10.06-25.35c2.27-5.15-9.3-14.86-11.9-19.88Z"/><path class="cls-3" d="M305.72,274.7c-6-11.58-23-14.2-33-5.05-20.1,18.56-52,44.93-80.62,55-42.3,14.89-145,69.51-166.15,162.89-2.81,12.42,6.32,15.08,12.15,14.52,42.14-4.08,139.71-28.73,192.64-68.95,32.88-25,57.88-56,54.8-92.24a16.27,16.27,0,0,1,1.35-7.94l19.26-44a16.49,16.49,0,0,0-.47-14.25Z"/><path d="M282.26,298.67c-2.28-.25-59.77,41.42-115.87,83.85-52.09,39.4-91.84,79.27-96.26,87.05"/><path class="cls-4" d="M282.26,298.67c-2.28-.25-59.77,41.42-115.87,83.85-52.09,39.4-91.84,79.27-96.26,87.05"/><g class="cls-7"><path class="cls-17" d="M567.9,144.21s86.43,23.59-6.65,126c0,0-34.1,82.51-10,173.33a96.79,96.79,0,0,1,1.59,43c-4.39,22.88-8.61,29-22.72,55,0,0-41.36,96-4.79,143.94,0,0-67.48,59.94-208.21,12,11.86-42.26,23.37-93.51,82.69-132.78,0,0,24.65-7.51,17.42-114.17,0,0-12.19-93.91-103.06-139,0,0-50.48-2.81-55.71-25.35,0,0-5.23-64.77,63.47-78.4S458.19,146,567.9,144.21Z"/><path class="cls-18" d="M560.94,147.56a9.18,9.18,0,0,0-3.4-.57c-64.9,1.42-113.72,21.41-157.18,38.85,1.36.46,2.73.94,4.08,1.45,2.58,1,5.12,2.09,7.66,3.16s5,2,7.46,3.2a42,42,0,0,1,5,2.83c4.46,3,8.61,6.45,12.77,9.85a48.63,48.63,0,0,1,4.39,4.1c1.43,1.5,2.75,3.08,4,4.7,3.43,4.39,7,8.72,10.07,13.37a137.54,137.54,0,0,1,11.46,22.12c4.38,10.33,8.77,20.64,12.43,31.25q1.45,4.2,2.78,8.45c.31.53.61,1.07.91,1.6,5.95,10.66,10.74,21.81,15.4,33.08a224.79,224.79,0,0,1,14.41,51.42,323.09,323.09,0,0,1,4,36.58c.87,21.26-1.42,42.79-5.65,63.61s-11.83,40.8-21.16,59.8c-10.16,20.68-25,38.94-40,56.26q-3.3,3.81-6.65,7.58a31,31,0,0,1-4.12,11.59c-.24.87-.45,1.75-.65,2.64-.88,13.1.79,26.39,2.53,39.34q-.75-5.6-1.51-11.2,1.33,9.84,2.61,19.69A86.25,86.25,0,0,0,446,676.5c1,2,2.17,3.93,3.39,5.8a74.11,74.11,0,0,0,5.73,5.62,112.26,112.26,0,0,0,15.42,8.61c4.22,1.61,8.5,3.06,12.81,4.4a128.17,128.17,0,0,0,27-13.62,9.17,9.17,0,0,0,3-12c-24-44.1,4-118.47,8.59-130.14a8.91,8.91,0,0,1,1.54-2.56c15.84-18.3,23.81-74.55,25.3-86.08a9.22,9.22,0,0,0-.38-4c-28.05-86.56-.39-169.5,4.12-182a9.23,9.23,0,0,1,1.64-2.83C630.29,178.56,572.17,151.72,560.94,147.56Z"/><path class="cls-17" d="M431.67,235.23s14.7,29.16,13,40.76c0,0,.38,12.79-13,19.61,0,0-6.71-1,2.86-8.19,0,0,10.52-5.42,6.11-23.87C440.64,263.54,425.18,230.28,431.67,235.23Z"/><path class="cls-17" d="M382.78,294.75c5.62,1,14.93,3.56,5.9,8.89-2.39,1.41-6.95,3.46-9.77,3-5.64-.95-12.29-4.95-3.08-10.59A10.11,10.11,0,0,1,382.78,294.75Z"/><path class="cls-17" d="M350,292.64s4.08,18,8.15,20.47c0,0,41,4.21,42.9,2.39,0,0-1.53-3.41-4.71-3.19,0,0-33.73.8-35.26-1.13C361.09,311.18,352.43,289.58,350,292.64Z"/><path class="cls-17" d="M435.42,345.93c1.59-.32,16.9,12.29,32.09-12.57.15-.26-.09-.57.05-.83,2.15-3.75,1-3.27-2.78-10.55-1.39-2.71-3.26-5.38-4.83-11.3,0,0,.44-6,3.31-.37,0,0,10.36,18.07,10.82,20.77a.94.94,0,0,0,.41.64c3.51,2.37,26.84,16.88,30.18-14.47a1.11,1.11,0,0,1,1.69-.72c1.65,1,1,8,.94,8-.26.58-.48,12-17.91,17-2.37.69-9.16-1.81-14.25-5.07a5,5,0,0,0-3.14-.38c-2.95,1.49-2.21,2.35-7.56,7.73-.19.19-7.47,6-7.76,6-11.82,2.39-16,4.94-22.68-1.16l-.08-.07C433.62,348.26,431.54,346.72,435.42,345.93Z"/><path class="cls-17" d="M451.67,367.08c1.22-.2,13.7,16.46,26.94-4.36.13-.21,0-.5.1-.72,1.88-3.14,1-2.79-1.34-9.29-.85-2.42-5-11.22-5.75-16.43,0,0,1-3.49,2.75,1.54,0,0,9.2,20.89,9.35,23.25a.9.9,0,0,0,.27.58c2.47,2.23,19.39,13.51,24.16-13.52.11-.63,1.46-.39,2,0,1.17.93-.85,8.87-.88,8.94-.24.49-1.23,10.37-14.71,13.84-1.84.47-6.78-2-10.38-5.12a3.36,3.36,0,0,0-2.34-.48c-2.33,1.15-1.83,1.92-6.24,6.33-.16.16-6.06,4.8-6.29,4.84-9.07,1.48-12.88.09-17.46-5.54C451.78,370.92,448.7,367.57,451.67,367.08Z"/><path class="cls-17" d="M459.68,388.57c1,0,6.87,15.25,20.74-.49.14-.17.87-3.14,0-8.8-.32-2.11-.08-9.55.09-14,0,0,1.34-2.77,2,1.6,0,0,2.28,20.1,2.38,20.25,1.67,2.13,18.31,16.87,26.27-5,.08-.22.21-.38.64,1.21.3,1.08.78,2.4.76,2.43-.27.38-4.16,10.27-15.62,11.6-1.56.18-8.3-3.18-10.75-6.15a2.65,2.65,0,0,0-1.82-.68c-2.07.69-1.78,1.39-6,4.54-.16.11-6.59,2.66-6.78,2.67-7.58.18-9.51-.79-12.37-6C459.19,391.77,457.19,388.64,459.68,388.57Z"/><path class="cls-17" d="M480.42,392.54s-.28,13.5,1.5,12.71,2.21-5,2.13-8.1,0-7.79,0-7.79S479.85,391.57,480.42,392.54Z"/><path class="cls-17" d="M468.39,285.08s32.66-.57,47.59,26.56c.58,1.06,4.28,7.44,1.86,6.93-3.42-.73-8.88-10.78-12.11-12.52l-.07-.06a56.25,56.25,0,0,0-12.83-11.24C484.69,289.46,453.05,285.6,468.39,285.08Z"/><path class="cls-17" d="M430.4,306.33S408,323.92,417.47,351.12c.37,1.06,2.47,7.56,3.73,5.87,1.78-2.39-1.77-12.43-.85-15.43a.19.19,0,0,0,0-.08,43.81,43.81,0,0,1,.55-14.93C422.58,318.37,441.08,298.24,430.4,306.33Z"/><path class="cls-17" d="M386.94,324.91s19.05,4,21.73,1.2,6.74,2.09,1.49,3.25-17.26.67-20.2-1.12S386.6,327.11,386.94,324.91Z"/><path class="cls-17" d="M398.9,333.09s9.4,4.43,11.24,1.78,3.22,2.25.28,3.25-9.2.19-10.46-1.65S398.37,335.26,398.9,333.09Z"/><path class="cls-17" d="M402.12,341.72s7.77,3.67,9.35,1.93,2.65,1.77.18,2.28-7.66-.43-8.69-1.8S401.65,343.19,402.12,341.72Z"/><path class="cls-17" d="M531.09,288.64s-11.83,9.9-15.09,8.79-3.85,4,.49,3,12.77-5.77,14-8.18S532.4,290.17,531.09,288.64Z"/><path class="cls-17" d="M528.62,296.64s-4.45,8.61-7.72,7.51-1,3.52,2,2.73,7.44-4.83,7.18-7S530.52,298.07,528.62,296.64Z"/><path class="cls-17" d="M530.84,303s-2,7.66-4.45,7.59-.24,2.95,1.81,1.62,4.63-5.48,4.14-7.07S532.4,303.65,530.84,303Z"/><path class="cls-17" d="M486,413.52c.29.07.46-.3.18-.42-2.52-1.17-7.35-2.66-9.95,1.56,0,0-5,6.33,3,9.92a6.67,6.67,0,0,0,7-.89c.82-.72,1.23-1.53.35-2.27a13.6,13.6,0,0,1-6.77,1.1s-5.32-2.36-2.07-6.66a6.67,6.67,0,0,1,3.25-2.14,8.72,8.72,0,0,1,5-.2Z"/><path class="cls-17" d="M484,417.65a2.2,2.2,0,0,1-2.28,2.13,1.73,1.73,0,0,1-1.88-2c.26-1.05.55-2.08,1.85-2.15A2.13,2.13,0,0,1,484,417.65Z"/><path class="cls-17" d="M510.68,428.08c1.49-3,10.57-21,19.87-29,.68-.58,0-1.58-.89-1.32-2.92.87-7.38,3.27-11.76,9.8,0,0-14.83,20.81-8,21A.91.91,0,0,0,510.68,428.08Z"/><path class="cls-17" d="M456.76,429.31s-19.06-16.94-31.29-22.15a.87.87,0,0,1,.47-1.67c2.64.09,6.94,1.23,13.2,5.72C439.14,411.21,463.06,427.57,456.76,429.31Z"/><path class="cls-17" d="M470.43,270.7S450,282.47,443.12,257.06c0,0-1.71-13.3-3.81-14.67,0,0,.76,12.11,0,8.19,0,0,2.93,17.22,9.2,21.32C448.51,271.9,463.74,278.72,470.43,270.7Z"/><path class="cls-17" d="M503.88,234.17c4.59-2.31,12.75-5.4,9.66,3.76-.82,2.43-2.78,6.56-5.07,7.73-4.58,2.35-11.75,2.85-8.71-6.66A8.15,8.15,0,0,1,503.88,234.17Z"/><path class="cls-17" d="M529.87,204.42s24.18,31.38,20.36,38c0,0-26.6,34.22-30.67,34.22,0,0-1-.53,1.78-4.09l22-26.86c1.12-1.31,4.9-3.94,4.11-5.43-4.27-8.15.26-2-19.6-34.45C526.61,203.79,529.87,204.42,529.87,204.42Z"/><path class="cls-18" d="M567,259.7c.36-.94-.34-3.7.35-4.46C641,174,579,148.53,568.13,144.74a9.13,9.13,0,0,0-3.28-.52c-96.54,2-156.28,44.08-217,56.05-12.51,2.47-22.25,6.84-29.85,12.21a1.15,1.15,0,0,0,0,1.89h0l.09.07c5.07,4.85,13.68,23.08,15,24l.57.56a70.49,70.49,0,0,0,29,17.21c5.93,1.79,11.85,3.58,17.72,5.5,19.47,6.36,54.88,2.37,75.36.1,72.32-8,68.21-4.5,82.59-13.26,52.25-31.8,48.83-36.78,52.5-35"/><path class="cls-18" d="M431.67,235.23s14.7,29.16,13,40.76c0,0,.38,12.79-13,19.61,0,0-6.71-1,2.86-8.19,0,0,10.52-5.42,6.11-23.87C440.64,263.54,425.18,230.28,431.67,235.23Z"/><path class="cls-18" d="M502.05,334.72a17.27,17.27,0,0,0,5.25-10.16c0-.08.71-7.06-.94-8a1.11,1.11,0,0,0-1.69.72c-.86,8.09-3.05,13.12-5.89,16.1Z"/><path class="cls-18" d="M468.39,285.08s32.66-.57,47.59,26.56c.58,1.06,4.28,7.44,1.86,6.93-3.42-.73-8.88-10.78-12.11-12.52l-.07-.06a56.25,56.25,0,0,0-12.83-11.24C484.69,289.46,453.05,285.6,468.39,285.08Z"/><path class="cls-18" d="M432.86,306.49c1.3-2.14,1.29-2.85-1.49-.88C431.87,305.9,432.37,306.19,432.86,306.49Z"/><path class="cls-18" d="M531.09,288.64s-11.83,9.9-15.09,8.79-3.85,4,.49,3,12.77-5.77,14-8.18S532.4,290.17,531.09,288.64Z"/><path class="cls-18" d="M528.62,296.64s-4.45,8.61-7.72,7.51-1,3.52,2,2.73,7.44-4.83,7.18-7S530.52,298.07,528.62,296.64Z"/><path class="cls-18" d="M530.84,303s-2,7.66-4.45,7.59-.24,2.95,1.81,1.62,4.63-5.48,4.14-7.07S532.4,303.65,530.84,303Z"/><path class="cls-18" d="M470.43,270.7S450,282.47,443.12,257.06c0,0-1.71-13.3-3.81-14.67,0,0,.76,12.11,0,8.19,0,0,2.93,17.22,9.2,21.32C448.51,271.9,463.74,278.72,470.43,270.7Z"/><path class="cls-18" d="M503.88,234.17c4.59-2.31,12.75-5.4,9.66,3.76-.82,2.43-2.78,6.56-5.07,7.73-4.58,2.35-11.75,2.85-8.71-6.66A8.15,8.15,0,0,1,503.88,234.17Z"/><path class="cls-18" d="M529.87,204.42s24.18,31.38,20.36,38c0,0-26.6,34.22-30.67,34.22,0,0-1-.53,1.78-4.09l22-26.86c1.12-1.31,4.9-3.94,4.11-5.43-4.27-8.15.26-2-19.6-34.45C526.61,203.79,529.87,204.42,529.87,204.42Z"/><path class="cls-17" d="M411.53,217.26s-2.34-3-16.33-1.89-19.63.76-17.92,2.9,20.72-.76,20.72-.76S409.3,218.65,411.53,217.26Z"/><g class="cls-7"><path class="cls-17" d="M486.32,0l-.83.17q3.87,2.37,7.72,4.76Q489.78,2.46,486.32,0Z"/><path class="cls-17" d="M491.07,3.4l-.29,0,2.43,1.5Z"/></g><path class="cls-17" d="M268.83,68.55c-3.83-14.22-3.21-9.43-1.39-15,.21-.64,2.21-3.48,5.05-3.43,35,.57,47.8,12.08,79.8,39.83,2.59,2.24,4,1.8.82,3.59-20.07,11.27-6.61.74-18.71,14.55-1.91,2.18-2.71,1.36-4.51-.2-22.61-19.69-27.95-25.26-53.24-33.83C274.6,73.4,269.43,70.78,268.83,68.55Z"/><path class="cls-17" d="M265.84,153.86c-2-.72-5.43-1.27-7.43-6.19-.24-.57,1.63-11.88,3.92-13.45,25.62-17.56,32.6-15.44,67.29-17.78,2.81-.19,3.41-1.42,2.5,1.87-5.73,20.77-4.14,17-4.12,17.82.07,2.72-.71,3.38-2.66,3.51-24.56,1.6-29,2.39-48.91,13.23C274.81,153.75,268.39,154.81,265.84,153.86Z"/><path class="cls-17" d="M343.89,174a7.68,7.68,0,0,1-2.38,6.06c-12.6,12.84-14.45,21-19.76,38.44-.46,1.51-2.84,7.05-5.19,7.75-1.8.54-4.94.64-8.93-2.74-2.51-2.14-5.4-9-5.66-12.8-1.71-25.4-1.16-20.06,16.2-40.7,5.54-6.58,22.72-9.6,24.41-6.73Z"/><path class="cls-17" d="M375.67,182.34c1,1.82,1.31,4.92.81,8.19-3.61,23.86-1.56,33.7,1.88,56,.29,1.93.89,9.6-.48,12.34a8.14,8.14,0,0,1-7.44,4.89c-2.66,0-7.53-4.47-9.28-8.11-11.67-24.29-9.08-19.35-5.31-55.21,1.2-11.44,12.1-29.29,14.47-27.83Z"/><path class="cls-17" d="M397.85,18.45c.9,1.63,4.56,8.18,3.75,10.5-5.92,16.89-10.82,25.86-9.11,43.41.15,1.52.11,7.41-1.58,9.09-1.3,1.29-3.86,2.81-8.33,1.7-2.83-.7-7.6-5.31-9.15-8.5-10.28-21.23-8-16.85-.83-42.67,2.28-8.23,14-14.78,19.26-16.51Z"/><path class="cls-17" d="M480.76,31.49c-.6,2.2-3,11.09-5.65,12.84C455.57,57,443.66,62.63,430.23,81.06c-1.16,1.59-4.16,2.49-7.07,3-2.23.41-6.45,2.19-9.41-1.88-1.87-2.57-5.1-7.26-2.12-11.54,21.1-30.34,12.75-20.15,40.94-40.86,9-6.6,19.46-7,25.49-5.22Z"/><path class="cls-17" d="M513.79,118.05c-.67,1.42-9.23,6.58-11,6.22-6.23-1.27-7.31-1.09-9.21-1.63-18.14-5.21-28.83-6.39-48.21-2.08-1.68.37-3.71-1.28-5.44-3.17-1.33-1.44-4.56-3.35-3-9,1-3.59,2.81-10,7.24-11.09,31.45-7.91,22.67-9.73,50.54-4.15,7,1.4,13.78,4.37,16.21,9.58,1.1,2.36,3.95,13,2.88,15.33Z"/><path class="cls-17" d="M519.8,190.94c-1.46,1.24-8.91,4-10.71,2.63-6.43-4.9-7.75-5.29-9.64-7-18-16-29.57-23.28-53.65-29.17-2.08-.5-3.58-3.52-4.63-6.62-.8-2.37-3.53-6.34,1-11.93,2.83-3.54,8-9.76,13.6-8.56,39.51,8.5,30.44,1.56,59.32,23.39,7.24,5.47,13.5,12.62,13.71,19.9.09,3.29,2.73,7.7.4,9.68Z"/><path class="cls-17" d="M417.21,252c4.08,3.48,7.32,5.49,9.53-.22.52-1.36.43-3.61.34-6.44-.95-28.48-11.25-45.71-25.83-71.62-1.45-2.57-1.86-1.54-3.16-1.82-5.6-1.17-1.06,1.74-5.28,13.91-3.9,11.25,3.78,32.61,4.52,34.62,7.54,20.2,1.13,3.08,10.55,22.79C408.82,245.13,413.74,249,417.21,252Z"/><path class="cls-17" d="M471.65,255.23c-1.13.29-9.94-5.28-11.13-7.42-4.24-7.63-5.15-8.67-6.38-11.11-11.72-23.34-19.43-35.74-36.21-53.61-1.45-1.55-2.3-4.93-2.82-8.15-.4-2.47-2.06-7.32,1.56-9.72,2.28-1.53,10.76-3.17,14.65.83,27.62,28.35,17.35,16.64,36.39,50.75,4.77,8.55,8.72,18,8.34,24.37-.17,2.88-2.59,13.6-4.4,14.06Z"/><path class="cls-17" d="M274.8,71.13c-3.7-13.64-3.09-9-1.36-14.35.21-.62,2.12-3.34,4.84-3.29,33.62.6,45.87,11.65,76.61,38.3,2.49,2.15,3.85,1.73.8,3.44-19.24,10.79-6.34.7-17.94,13.93-1.83,2.09-2.6,1.3-4.32-.2C311.71,90.05,306.58,84.7,282.3,76.45,280.34,75.78,275.38,73.27,274.8,71.13Z"/><path class="cls-17" d="M272.78,151.93c-1.87-.7-5.2-1.22-7.14-5.94-.22-.55,1.54-11.4,3.73-12.9,24.55-16.81,31.25-14.77,64.53-17,2.69-.18,3.26-1.35,2.4,1.81-5.46,19.91-3.94,16.32-3.92,17.08.08,2.61-.67,3.24-2.54,3.36-23.56,1.52-27.78,2.27-46.9,12.65C281.39,151.83,275.24,152.84,272.78,151.93Z"/><path class="cls-17" d="M347.43,172.67a7.38,7.38,0,0,1-2.28,5.82c-12.06,12.3-13.82,20.11-18.89,36.85-.44,1.45-2.72,6.76-5,7.43-1.72.52-4.73.61-8.55-2.64-2.42-2.06-5.19-8.63-5.44-12.29-1.67-24.38-1.14-19.25,15.48-39,5.3-6.31,21.77-9.19,23.39-6.43Z"/><path class="cls-17" d="M378.12,180.65c1,1.76,1.27,4.73.8,7.87-3.45,22.88-1.47,32.33,1.84,53.71.29,1.84.87,9.21-.45,11.83a7.77,7.77,0,0,1-7.12,4.68c-2.56,0-7.22-4.3-8.91-7.8-11.21-23.32-8.72-18.58-5.14-53,1.14-11,11.58-28.08,13.85-26.67Z"/><path class="cls-17" d="M398.11,22.46c.87,1.56,4.39,7.86,3.61,10.08-5.66,16.18-10.35,24.78-8.69,41.61.14,1.46.11,7.11-1.51,8.72-1.24,1.23-3.7,2.69-8,1.62-2.71-.68-7.3-5.11-8.78-8.17-9.89-20.37-7.66-16.18-.85-40.92,2.17-7.89,13.46-14.16,18.46-15.81Z"/><path class="cls-17" d="M477.94,35.15c-.57,2.12-2.83,10.64-5.4,12.31-18.73,12.16-30.15,17.51-43,35.16-1.11,1.53-4,2.39-6.78,2.9-2.14.39-6.18,2.09-9-1.81-1.8-2.46-4.9-7-2-11.06,20.2-29.07,12.2-19.31,39.22-39.14,8.61-6.32,18.67-6.68,24.46-5Z"/><path class="cls-17" d="M510,118.23c-.64,1.37-8.85,6.3-10.52,6-6-1.23-7-1-8.83-1.58-17.41-5-27.67-6.16-46.26-2-1.6.35-3.55-1.24-5.22-3-1.28-1.38-4.37-3.22-2.92-8.65.92-3.43,2.68-9.56,6.93-10.62,30.16-7.54,21.73-9.3,48.47-3.91,6.71,1.35,13.23,4.2,15.57,9.21,1.05,2.26,3.81,12.52,2.78,14.69Z"/><path class="cls-17" d="M516.67,187.58c-1.4,1.19-8.54,3.83-10.27,2.51-6.18-4.71-7.45-5.09-9.26-6.7-17.32-15.36-28.41-22.36-51.51-28-2-.49-3.44-3.38-4.45-6.36-.77-2.27-3.39-6.08.9-11.43,2.72-3.39,7.7-9.36,13-8.2,37.91,8.21,29.21,1.54,56.94,22.51,7,5.26,13,12.12,13.18,19.1.1,3.16,2.63,7.39.4,9.29Z"/><path class="cls-17" d="M417.81,247.39c3.91,3.34,7,5.27,9.13-.21.5-1.29.41-3.46.32-6.17-.94-27.33-10.83-43.88-24.84-68.76-1.39-2.47-1.78-1.48-3-1.75-5.37-1.14-1,1.66-5.05,13.34-3.73,10.78,3.66,31.3,4.38,33.22,7.24,19.39,1.08,3,10.13,21.89C409.75,240.83,414.47,244.54,417.81,247.39Z"/><path class="cls-17" d="M470.25,250.16c-1.09.27-9.54-5.09-10.68-7.14-4.07-7.33-4.95-8.33-6.13-10.68-11.26-22.4-18.67-34.31-34.77-51.49-1.4-1.49-2.21-4.73-2.72-7.83-.38-2.36-2-7,1.48-9.32,2.19-1.46,10.31-3,14.05.82,26.51,27.24,16.65,16,34.94,48.75,4.59,8.21,8.38,17.3,8,23.4-.16,2.76-2.46,13-4.19,13.49Z"/><path class="cls-17" d="M279,74.56c-3.64-13.11-3-8.7-1.39-13.79.19-.59,2-3.18,4.63-3.12,32.34.79,44.19,11.47,73.93,37.25,2.4,2.08,3.7,1.69.78,3.31-18.43,10.23-6.09.63-17.16,13.25-1.75,2-2.49,1.23-4.16-.22-21-18.28-26-23.45-49.38-31.52C284.4,79.06,279.61,76.62,279,74.56Z"/><path class="cls-17" d="M277.89,151.16c-1.81-.67-5-1.19-6.92-5.73-.23-.52,1.36-10.93,3.46-12.36,23.44-16,29.9-14,61.89-16,2.59-.16,3.13-1.29,2.33,1.74-5,19.08-3.63,15.65-3.6,16.38.1,2.5-.61,3.1-2.41,3.21-22.64,1.36-26.7,2.07-45,12C286.17,151.1,280.26,152.05,277.89,151.16Z"/><path class="cls-17" d="M349.3,172.68a7,7,0,0,1-2.14,5.58C335.66,190,334,197.55,329.25,213.64c-.42,1.39-2.57,6.49-4.73,7.13-1.65.48-4.53.55-8.21-2.61-2.33-2-5-8.35-5.29-11.87-1.73-23.49-1.19-18.55,14.64-37.5,5-6,20.81-8.7,22.37-6Z"/><path class="cls-17" d="M379.38,180.54c.93,1.7,1.23,4.56.79,7.58-3.2,22-1.26,31.11,2,51.71.28,1.78.87,8.87-.38,11.38a7.31,7.31,0,0,1-6.81,4.44c-2.45,0-6.95-4.2-8.58-7.58-10.86-22.54-8.45-18-5.17-51,1-10.54,11-26.92,13.16-25.55Z"/><path class="cls-17" d="M396.84,28.2c.84,1.5,4.26,7.57,3.53,9.7-5.36,15.49-9.83,23.71-8.14,39.88.15,1.4.15,6.82-1.4,8.35-1.19,1.18-3.54,2.56-7.67,1.5-2.62-.67-7.05-5-8.5-7.91-9.62-19.63-7.45-15.58-1-39.29,2-7.55,12.86-13.48,17.67-15Z"/><path class="cls-17" d="M473.63,41.06c-.53,2-2.64,10.17-5.11,11.76C450.57,64.4,439.6,69.47,427.35,86.33c-1.06,1.46-3.83,2.27-6.52,2.74-2.06.37-5.94,2-8.72-1.76-1.75-2.37-4.78-6.69-2.07-10.61,19.25-27.76,11.61-18.44,37.5-37.32,8.25-6,17.94-6.32,23.54-4.68Z"/><path class="cls-17" d="M505.43,120.85c-.61,1.31-8.47,6-10.08,5.65-5.75-1.22-6.75-1-8.51-1.57-16.78-4.92-26.65-6.09-44.5-2.26-1.54.33-3.43-1.21-5-3-1.24-1.33-4.23-3.12-2.87-8.32.86-3.29,2.52-9.16,6.6-10.15,29-7,20.85-8.79,46.6-3.45,6.45,1.34,12.75,4.12,15,8.94,1,2.18,3.74,12,2.77,14.12Z"/><path class="cls-17" d="M513.06,186.81c-1.33,1.13-8.18,3.62-9.85,2.34-6-4.56-7.2-4.93-8.95-6.48C477.5,167.81,466.8,161,444.54,155.43c-1.93-.49-3.33-3.27-4.32-6.14-.76-2.19-3.3-5.86.79-11,2.59-3.23,7.34-8.93,12.49-7.78,36.51,8.11,28.1,1.66,54.9,22,6.72,5.09,12.55,11.72,12.8,18.42.12,3,2.58,7.11.45,8.92Z"/><path class="cls-17" d="M417.84,244.67c3.77,3.24,6.76,5.12,8.76-.13.47-1.25.37-3.33.27-5.95-1-26.31-10.61-42.32-24.17-66.37-1.35-2.39-1.72-1.44-2.92-1.71-5.15-1.13-1,1.6-4.77,12.81-3.52,10.35,3.67,30.15,4.37,32,7.05,18.72,1.05,2.86,9.83,21.15C410.08,238.29,414.63,241.9,417.84,244.67Z"/><path class="cls-17" d="M468.36,247.24c-1,.25-9.17-5-10.27-7-3.94-7.09-4.79-8.06-5.93-10.32-10.91-21.66-18.08-33.18-33.61-49.83-1.34-1.44-2.14-4.58-2.64-7.56-.38-2.28-1.94-6.78,1.37-9,2.09-1.39,9.87-2.84,13.47.88,25.55,26.42,16,15.52,33.75,47.19,4.44,7.95,8.13,16.73,7.81,22.6-.14,2.65-2.29,12.54-3.95,13Z"/><path class="cls-17" d="M305.39,54.72c3.84-13.57,1.88-9.06,6.7-14.07.56-.59,4.1-3.07,6.92-2.79C353.88,41.24,360.47,53,377.6,81.47c1.39,2.3,3,2-1.11,3.41-26.25,8.88-7,.15-26.66,12.05-3.1,1.87-3.46,1-4.41-.56C333.35,76.18,331,70.55,310.25,60.51,308.57,59.7,304.79,56.84,305.39,54.72Z"/><path class="cls-17" d="M269.5,128c-1.27-1.46-3.81-3.12-3.58-9.83,0-.78,5.68-14.37,8.07-15.68,26.74-14.64,31.47-10,59.76-3.12,2.28.56,3.21-.8,1.28,3-12.21,24.29-9.57,20.08-9.84,21.06-.95,3.42-1.81,4-3.4,3.63-20-5-23.77-5.23-43.55,2.65C276.64,130.39,271.17,129.9,269.5,128Z"/><path class="cls-17" d="M328.82,154.56a7.11,7.11,0,0,1-3.79,5.7c-15.9,8.45-19.58,16.75-28.89,33.88-.81,1.48-4.49,6.58-7.09,6.25-2-.25-5.28-1.64-8.7-7.35-2.16-3.61-3.69-12.7-3.14-17.12,3.71-29.43,3.14-23.15,25.68-38.12,7.19-4.77,25.75,0,26.88,4Z"/><path class="cls-17" d="M354.19,178.28c.82,2.25.42,5.41-1.05,8.38-10.78,21.61-10.67,32.18-12,55.53-.12,2-1.32,9.79-3.79,11.82-1.88,1.56-5.41,3.28-10.82,1.3-3.43-1.24-8.54-7.87-9.86-12.25-8.79-29.16-6.72-23.13,7.34-56.39,4.48-10.61,23.09-22.95,25.76-20.41Z"/><path class="cls-17" d="M430.91,26.85c.66,2,3.36,10.33,1.88,12.29C422,53.44,414.24,60.24,412.11,78.7c-.18,1.6-1.6,7.51-3.95,8.44-1.8.7-5.11,1.06-10-2.1-3.1-2-7.54-8.84-8.58-12.76-6.92-26.08-5.26-20.62,9-43.36,4.55-7.25,19.68-8.47,26.12-7.82Z"/><path class="cls-17" d="M498.85,73.47c-1.19,2-6,10.33-8.65,10.69-19.31,2.62-30.37,1.87-46.89,14.17-1.43,1.07-4,.33-6.47-.76-1.85-.83-5.7-1.31-6.63-7.41-.58-3.85-1.51-10.78,2.22-13.72C458.85,55.6,449,61.88,477.67,55.53c9.14-2,17.35,3.55,21.41,8.9Z"/><path class="cls-17" d="M507.2,156.37c-1.07,1.15-10.8,3.46-12.35,2.59-5.54-3.1-6.63-3.25-8.27-4.35-15.68-10.46-25.5-14.83-45.28-16.61-1.71-.16-3.14-2.35-4.21-4.67-.83-1.78-3.31-4.58-.13-9.51,2-3.13,5.72-8.65,10.29-8.36,32.37,2,24.57-2.38,49.4,11.39,6.22,3.45,11.79,8.34,12.5,14.05.32,2.58-.23,13.63-1.95,15.47Z"/><path class="cls-17" d="M490.61,227.62c-1.76.74-9.71,1.11-11-.75-4.63-6.62-5.76-7.4-7.05-9.57-12.28-20.71-21-31.15-42.17-44.07-1.82-1.11-2.32-4.43-2.37-7.71,0-2.51-1.43-7.11,4.55-11.07,3.79-2.51,10.65-6.86,15.59-4,35,20.1,28.51,10.73,49.32,40.29,5.22,7.41,9,16.12,7,23.12-.91,3.16.24,8.16-2.58,9.34Z"/><path class="cls-17" d="M369.44,256.55c4,4.44,7.55,7.23,13.51,2.27,1.42-1.18,2.42-3.39,3.7-6.16,12.92-27.88,7.05-47.3-.5-76.25-.75-2.87-1.84-2-3.54-2.59-7.28-2.61-2.35,1.41-14.39,12.12-11.11,9.88-11,32.63-11,34.77.5,21.57,0,3.29,3.44,24.88C361.05,247.73,366,252.76,369.44,256.55Z"/><path class="cls-17" d="M433.32,278.52c-1.68,0-10.9-8.07-11.44-10.59-2-9-2.69-10.28-3.14-13.12-4.29-27.09-8.59-41.89-22.5-64.72-1.21-2-.67-5.67.23-9.12.68-2.64.85-8.07,7-9.58,3.87-.95,16.23-.39,19.53,4.75,23.43,36.48,15.31,21.71,24.18,61.83,2.22,10.06,2.87,20.84-.83,27.27-1.67,2.91-10.31,13.28-13,13.28Z"/><path class="cls-17" d="M310,57.61c3.66-13,1.79-8.69,6.4-13.5.54-.56,3.93-2.93,6.63-2.67,33.44,3.28,39.76,14.58,56.22,41.92,1.33,2.22,2.92,1.93-1.07,3.28-25.14,8.49-6.74.13-25.53,11.53-3,1.8-3.32,1-4.24-.54-11.58-19.39-13.84-24.79-33.75-34.45C313,62.39,309.42,59.65,310,57.61Z"/><path class="cls-17" d="M275.71,127.54c-1.23-1.4-3.67-3-3.45-9.43,0-.75,5.43-13.79,7.72-15,25.61-14,30.15-9.59,57.27-2.93,2.2.54,3.08-.76,1.23,2.93-11.67,23.3-9.14,19.26-9.4,20.2-.91,3.28-1.73,3.86-3.25,3.48-19.18-4.78-22.8-5-41.75,2.5C282.55,129.86,277.31,129.38,275.71,127.54Z"/><path class="cls-17" d="M332.8,154.72a6.79,6.79,0,0,1-3.62,5.46c-15.23,8.11-18.75,16.07-27.66,32.51-.77,1.43-4.3,6.32-6.79,6-1.9-.25-5.06-1.58-8.34-7.07-2.07-3.47-3.54-12.2-3-16.44,3.53-28.26,3-22.23,24.57-36.58,6.89-4.58,24.67,0,25.76,3.9Z"/><path class="cls-17" d="M357.78,177.78c.79,2.16.41,5.2-1,8.05-10.31,20.74-10.19,30.89-11.41,53.31-.11,1.94-1.25,9.4-3.62,11.35-1.8,1.49-5.18,3.13-10.37,1.24-3.28-1.2-8.18-7.57-9.45-11.78-8.45-28-6.46-22.22,7-54.14,4.28-10.18,22.1-22,24.67-19.57Z"/><path class="cls-17" d="M430.27,31c.64,2,3.23,9.92,1.81,11.8C421.76,56.52,414.33,63,412.31,80.75c-.17,1.53-1.53,7.21-3.78,8.09-1.72.67-4.9,1-9.6-2-3-1.92-7.24-8.48-8.24-12.24-6.66-25-5.06-19.8,8.59-41.61,4.35-7,18.85-8.1,25-7.47Z"/><path class="cls-17" d="M495.46,75.83c-1.15,2-5.74,9.91-8.28,10.25-18.52,2.49-29.12,1.76-44.94,13.55-1.37,1-3.87.31-6.2-.74-1.78-.8-5.47-1.26-6.36-7.12-.57-3.7-1.46-10.35,2.11-13.16,25.3-20,15.87-14,43.34-20,8.75-1.93,16.63,3.42,20.53,8.57Z"/><path class="cls-17" d="M503.56,155.4c-1,1.1-10.36,3.31-11.84,2.48-5.32-3-6.36-3.13-7.93-4.19-15.05-10.06-24.46-14.26-43.43-16-1.64-.15-3-2.25-4-4.48-.79-1.71-3.18-4.4-.13-9.13,1.92-3,5.47-8.29,9.85-8,31,2,23.55-2.26,47.36,11,6,3.32,11.31,8,12,13.5.31,2.48-.21,13.08-1.85,14.84Z"/><path class="cls-17" d="M488.66,223.47c-1.69.7-9.31,1.05-10.55-.73-4.44-6.37-5.53-7.11-6.77-9.19-11.79-19.9-20.2-29.93-40.47-42.35-1.75-1.07-2.24-4.26-2.29-7.41,0-2.4-1.37-6.82,4.36-10.62,3.62-2.4,10.19-6.57,14.93-3.84,33.59,19.33,27.34,10.33,47.33,38.72,5,7.12,8.64,15.48,6.71,22.2-.88,3,.24,7.83-2.47,9Z"/><path class="cls-17" d="M372.56,252.27c3.83,4.27,7.24,7,12.95,2.2,1.35-1.13,2.31-3.26,3.54-5.91,12.35-26.77,6.71-45.42-.55-73.22-.72-2.76-1.76-1.91-3.39-2.49-7-2.51-2.25,1.35-13.77,11.62-10.64,9.49-10.51,31.32-10.47,33.38.5,20.71.05,3.16,3.32,23.89C364.51,243.8,369.3,248.63,372.56,252.27Z"/><path class="cls-17" d="M434,272.93c-1.62,0-10.45-7.76-11-10.17-1.88-8.63-2.57-9.88-3-12.61-4.13-26-8.26-40.23-21.6-62.16-1.16-1.9-.65-5.45.21-8.76.66-2.54.81-7.75,6.68-9.2,3.71-.91,15.55-.36,18.72,4.58,22.47,35,14.68,20.86,23.2,59.39,2.14,9.66,2.77,20-.77,26.19-1.6,2.79-9.87,12.74-12.45,12.74Z"/><path class="cls-17" d="M312.4,61.15c3.43-12.52,1.66-8.36,6.05-13,.51-.54,3.75-2.81,6.34-2.53,32,3.35,38.17,14.27,54.09,40.72,1.28,2.14,2.8,1.87-1,3.15-24,8-6.45.09-24.39,11-2.83,1.72-3.17,1-4.06-.54-11.21-18.75-13.4-24-32.53-33.4C315.34,65.78,311.86,63.11,312.4,61.15Z"/><path class="cls-17" d="M280,128c-1.18-1.36-3.53-2.91-3.36-9.12,0-.72,5.12-13.25,7.31-14.44,24.45-13.37,28.83-9.07,54.85-2.5,2.1.53,2.94-.71,1.19,2.83-11,22.39-8.65,18.51-8.89,19.42-.85,3.16-1.64,3.71-3.1,3.33-18.4-4.72-21.86-5-40,2.17C286.6,130.31,281.57,129.81,280,128Z"/><path class="cls-17" d="M334.76,155.62a6.54,6.54,0,0,1-3.45,5.27c-14.52,7.78-17.86,15.46-26.31,31.31-.73,1.37-4.08,6.09-6.46,5.78-1.82-.24-4.84-1.54-8-6.86-2-3.36-3.43-11.8-2.94-15.89,3.27-27.29,2.77-21.47,23.35-35.26,6.56-4.4,23.56.12,24.62,3.86Z"/><path class="cls-17" d="M359.43,178.26c.76,2.09.41,5-.93,7.77-9.76,20-9.61,29.79-10.68,51.43-.09,1.88-1.16,9.07-3.41,10.94-1.72,1.43-4.94,3-9.91,1.16-3.14-1.17-7.86-7.34-9.08-11.41-8.2-27.09-6.27-21.48,6.44-52.25,4.05-9.81,21-21.17,23.5-18.81Z"/><path class="cls-17" d="M427.46,36.2c.62,1.91,3.15,9.58,1.8,11.39C419.46,60.74,412.38,67,410.55,84c-.16,1.47-1.43,6.94-3.58,7.77-1.65.64-4.69,1-9.21-2-2.86-1.88-7-8.23-8-11.85-6.53-24.18-5-19.11,8-40,4.13-6.68,18-7.7,23.93-7.06Z"/><path class="cls-17" d="M490.16,79.77c-1.08,1.89-5.44,9.52-7.87,9.83-17.72,2.3-27.88,1.53-43,12.81-1.3,1-3.71.27-5.94-.75-1.71-.78-5.25-1.25-6.14-6.9-.56-3.57-1.45-10,1.95-12.68,24.12-19.1,15.12-13.36,41.4-19,8.37-1.81,16,3.4,19.72,8.38Z"/><path class="cls-17" d="M498.38,156.5c-1,1.06-9.9,3.13-11.33,2.32-5.1-2.91-6.1-3-7.62-4.08C465,145,455.92,140.85,437.74,139.07c-1.57-.15-2.89-2.19-3.9-4.34-.76-1.65-3.07-4.26-.18-8.8,1.83-2.87,5.2-8,9.4-7.66,29.73,2.08,22.54-2,45.43,10.86,5.74,3.24,10.88,7.8,11.57,13.08.32,2.39-.11,12.6-1.68,14.29Z"/><path class="cls-17" d="M485.46,221.63c-1.61.68-8.9,1-10.1-.76-4.3-6.16-5.35-6.88-6.54-8.89-11.41-19.24-19.53-29-39-41-1.69-1.05-2.17-4.12-2.24-7.15-.05-2.32-1.35-6.59,4.11-10.21,3.46-2.3,9.73-6.28,14.28-3.62,32.29,18.81,26.26,10.11,45.57,37.59,4.84,6.89,8.36,15,6.55,21.42-.82,2.92.28,7.55-2.31,8.63Z"/><path class="cls-17" d="M374,249.64c3.67,4.14,6.94,6.74,12.38,2.17,1.29-1.09,2.2-3.13,3.36-5.7,11.7-25.81,6.24-43.84-.8-70.73-.7-2.67-1.69-1.85-3.25-2.42-6.68-2.45-2.14,1.3-13.12,11.18-10.13,9.12-9.93,30.22-9.87,32.2.55,20,.05,3,3.26,23.1C366.24,241.43,370.84,246.11,374,249.64Z"/><path class="cls-17" d="M432.84,269.43c-1.54,0-10-7.54-10.52-9.87-1.82-8.34-2.49-9.56-2.91-12.19-4-25.16-8-38.9-20.85-60.15-1.11-1.83-.63-5.26.17-8.46.62-2.44.76-7.48,6.36-8.86,3.54-.87,14.85-.29,17.9,4.5,21.58,33.94,14.08,20.2,22.36,57.46,2.07,9.35,2.71,19.35-.65,25.3-1.52,2.69-9.4,12.28-11.86,12.27Z"/><path class="cls-17" d="M439.75,146.4c-1.15,14.65,1.35,28.13-12.07,32.17-10.1,3-17.37,15.38-39.24,31.85-9.5,7.14-22.68-4.86-18.71-8.59,7.24-6.8-9.38-4.46-12.64-6.78-20.09-14.33-25.56-17.86-25.34-60.38C332,90.53,367.93,81.34,403,82.14,451.62,83.27,441.81,120,439.75,146.4Z"/><path class="cls-17" d="M438.24,149.79c-1,13.44.46,23.2-11.65,26.84-9.1,2.73-30.2,26.56-39.75,31s-15.58-.11-14.62-4.93c.74-3.71,3.58-5.83,0-6.27-28.75-3.58-41.41-20.88-39.25-60.6s23.72-51.58,71.47-52.59S440,127.05,438.24,149.79Z"/><path class="cls-17" d="M421.2,152.77l.88.55c2.24,1.36,9.87,6.51,6.93,12.16-3.42,6.6-14.84,12.51-15.06,13,0,0-1.6-1.6-9.14,12.27,0,0-10.73,25.7-30.59,18.42,0,0-6.79-5.48-.4-10.71,0,0-1.81,4.46.84,6.67a11.08,11.08,0,0,0,3.28,2.09c2.69,1.13,7.55,3.43,19.34-7.82,0,0,9.36-16.83,11.19-21.38,0,0,12.78-7.28,15.52-12.28,0,0,5.25-.91,0-8C419.89,152.25,420.66,152.43,421.2,152.77Z"/><path class="cls-17" d="M403.9,105.22s1.76-.94,1.9,1.29c.46,7.26,3.46,10.93,8.05,12.28a2.42,2.42,0,0,1,1.51,1.27c1.6,3.27,5.53,13.85,3.95,13.85,0,0-1-2-2.78-5.64-.43-.9-.42-4.07-.8-4.55-1-1.22-2.08-4.18-5.67-5.53a7.31,7.31,0,0,1-1.57-1.17,14,14,0,0,1-4.59-10.43Z"/><path class="cls-17" d="M363.83,182.82s25.86-11.59,31.16-17.47c0,0,4.11,7.75-10.27,19.69C378.62,190.11,363.83,182.82,363.83,182.82Z"/><path class="cls-17" d="M420.85,116s-8.62-13.12,4.06-15.09c0,0,11.18-3.5,6.22,12.7,0,0,3.82,5.89,3.25,11.09,0,0-3.58,7-7.7-.86,0,0-.35-2,1.36-.28,0,0,5,6.14,4.8-.63a17.51,17.51,0,0,0-2.6-7.36,4.07,4.07,0,0,1-.25-3.15c.5-3,2.67-10-1.15-10.63-1.09-.19-6.24.82-7.13,1.47-1.79,1.32-3.09,5-.69,8.65C421,111.88,423.59,117,420.85,116Z"/><path class="cls-17" d="M373.18,146.49c-.37-.5,11-6.63,15.61-14,.56-.9,6-6.32,7.52-6.32,0,0,11.56,16.8,4.65,21.86,0,0-7,7.59-14.95,6.5C386,154.54,379.76,155.23,373.18,146.49Z"/><path class="cls-17" d="M333.66,147.59c.18-1.2,13.43.14,18.47,2.71a8.12,8.12,0,0,0,3,.88,9.75,9.75,0,0,0,4.12-.23s-3.5,12.69-7,13.82c0,0-6.63,4.1-15.1-1.69C337.16,163.08,332.19,157.48,333.66,147.59Z"/><path class="cls-17" d="M374.79,146.4c-.34-.47,10-6.26,14.21-13.21.51-.85,5.48-6,6.85-6,0,0,10.53,15.87,4.24,20.64,0,0-6.39,7.16-13.62,6.14C386.47,154,380.78,154.65,374.79,146.4Z"/><path class="cls-17" d="M334.55,148.37c.16-1.06,11.76.06,16.73,2.27a12.17,12.17,0,0,0,5.31,1.1,4.61,4.61,0,0,0,1.76-.3s-3.26,11.6-6.51,12.62c0,0-6.16,3.75-14-1.53C337.8,162.53,333.18,157.41,334.55,148.37Z"/><g class="cls-1"><path class="cls-17" d="M276.65,74.09C296.36,80.77,304,85.62,317,96.76c2.57,0,5.13,0,7.7.06,4.8.12,9.6.4,14.36,1l4.91.59c1.79-.85,4.61-2.28,9.1-4.81,3.18-1.79,1.77-1.35-.82-3.59-32-27.75-44.76-39.26-79.8-39.83-2.84,0-4.84,2.79-5.05,3.43-1.82,5.54-2.44.75,1.39,15C269.43,70.78,274.6,73.4,276.65,74.09Z"/><path class="cls-17" d="M397.85,18.45c.9,1.63,4.56,8.18,3.75,10.5-5.92,16.89-10.82,25.86-9.11,43.41.15,1.52.11,7.41-1.58,9.09-1.3,1.29-3.86,2.81-8.33,1.7-2.83-.7-7.6-5.31-9.15-8.5-10.28-21.23-8-16.85-.83-42.67,2.28-8.23,14-14.78,19.26-16.51Z"/><path class="cls-17" d="M480.76,31.49c-.6,2.2-3,11.09-5.65,12.84C455.57,57,443.66,62.63,430.23,81.06c-1.16,1.59-4.16,2.49-7.07,3-2.23.41-6.45,2.19-9.41-1.88-1.87-2.57-5.1-7.26-2.12-11.54,21.1-30.34,12.75-20.15,40.94-40.86,9-6.6,19.46-7,25.49-5.22Z"/><path class="cls-17" d="M513.79,118.05c-.67,1.42-9.23,6.58-11,6.22-6.23-1.27-7.31-1.09-9.21-1.63-18.14-5.21-28.83-6.39-48.21-2.08-1.68.37-3.71-1.28-5.44-3.17-1.33-1.44-4.56-3.35-3-9,1-3.59,2.81-10,7.24-11.09,31.45-7.91,22.67-9.73,50.54-4.15,7,1.4,13.78,4.37,16.21,9.58,1.1,2.36,3.95,13,2.88,15.33Z"/><path class="cls-17" d="M528.76,173.61c-.21-7.28-6.47-14.43-13.71-19.9-28.88-21.83-19.81-14.89-59.32-23.39-4.43-1-8.63,2.79-11.59,6.15a88.67,88.67,0,0,1,11.14,9.37,115.18,115.18,0,0,1,11.8,14.89,50.25,50.25,0,0,1,3,5c10.17,4.89,18.62,11.34,29.38,20.88,1.89,1.68,3.21,2.07,9.64,7,1.8,1.38,9.25-1.39,10.71-2.63l9.36-7.65C531.49,181.31,528.85,176.9,528.76,173.61Z"/><path class="cls-17" d="M282.3,76.45c18,6.12,25.49,10.65,37,20.31,1.81,0,3.62,0,5.42.06,4.8.12,9.6.4,14.36,1,3.18.39,6.4.76,9.61,1.19,1.66-.84,3.91-2,7-3.75s1.69-1.29-.8-3.44c-30.74-26.65-43-37.7-76.61-38.3-2.72-.05-4.63,2.67-4.84,3.29-1.73,5.3-2.34.71,1.36,14.35C275.38,73.27,280.34,75.78,282.3,76.45Z"/><path class="cls-17" d="M398.11,22.46c.87,1.56,4.39,7.86,3.61,10.08-5.66,16.18-10.35,24.78-8.69,41.61.14,1.46.11,7.11-1.51,8.72-1.24,1.23-3.7,2.69-8,1.62-2.71-.68-7.3-5.11-8.78-8.17-9.89-20.37-7.66-16.18-.85-40.92,2.17-7.89,13.46-14.16,18.46-15.81Z"/><path class="cls-17" d="M477.94,35.15c-.57,2.12-2.83,10.64-5.4,12.31-18.73,12.16-30.15,17.51-43,35.16-1.11,1.53-4,2.39-6.78,2.9-2.14.39-6.18,2.09-9-1.81-1.8-2.46-4.9-7-2-11.06,20.2-29.07,12.2-19.31,39.22-39.14,8.61-6.32,18.67-6.68,24.46-5Z"/><path class="cls-17" d="M510,118.23c-.64,1.37-8.85,6.3-10.52,6-6-1.23-7-1-8.83-1.58-17.41-5-27.67-6.16-46.26-2-1.6.35-3.55-1.24-5.22-3-1.28-1.38-4.37-3.22-2.92-8.65.92-3.43,2.68-9.56,6.93-10.62,30.16-7.54,21.73-9.3,48.47-3.91,6.71,1.35,13.23,4.2,15.57,9.21,1.05,2.26,3.81,12.52,2.78,14.69Z"/><path class="cls-17" d="M525.24,171c-.22-7-6.23-13.84-13.18-19.1-27.73-21-19-14.3-56.94-22.51-4.55-1-8.84,3.2-11.69,6.56l.61.47a90.24,90.24,0,0,1,11.24,9.45,115.18,115.18,0,0,1,11.8,14.89c.55.81,1.07,1.63,1.58,2.47,9.88,4.73,18,10.94,28.48,20.19,1.81,1.61,3.08,2,9.26,6.7,1.73,1.32,8.87-1.32,10.27-2.51l9-7.32C527.87,178.36,525.34,174.13,525.24,171Z"/><path class="cls-17" d="M286.29,79.72c15.62,5.38,23,9.48,32.46,17,2,0,4,0,6,.07,4.8.12,9.6.4,14.36,1,5,.6,10,1.16,15,2,.87-.47,1.83-1,2.89-1.58,2.92-1.62,1.62-1.23-.78-3.31-29.74-25.78-41.59-36.46-73.93-37.25-2.62-.06-4.44,2.53-4.63,3.12-1.64,5.09-2.25.68,1.39,13.79C279.61,76.62,284.4,79.06,286.29,79.72Z"/><path class="cls-17" d="M396.84,28.2c.84,1.5,4.26,7.57,3.53,9.7-5.36,15.49-9.83,23.71-8.14,39.88.15,1.4.15,6.82-1.4,8.35-1.19,1.18-3.54,2.56-7.67,1.5-2.62-.67-7.05-5-8.5-7.91-9.62-19.63-7.45-15.58-1-39.29,2-7.55,12.86-13.48,17.67-15Z"/><path class="cls-17" d="M473.63,41.06c-.53,2-2.64,10.17-5.11,11.76C450.57,64.4,439.6,69.47,427.35,86.33c-1.06,1.46-3.83,2.27-6.52,2.74-2.06.37-5.94,2-8.72-1.76-1.75-2.37-4.78-6.69-2.07-10.61,19.25-27.76,11.61-18.44,37.5-37.32,8.25-6,17.94-6.32,23.54-4.68Z"/><path class="cls-17" d="M505.43,120.85c-.61,1.31-8.47,6-10.08,5.65-5.75-1.22-6.75-1-8.51-1.57-16.78-4.92-26.65-6.09-44.5-2.26-1.54.33-3.43-1.21-5-3-1.24-1.33-4.23-3.12-2.87-8.32.86-3.29,2.52-9.16,6.6-10.15,29-7,20.85-8.79,46.6-3.45,6.45,1.34,12.75,4.12,15,8.94,1,2.18,3.74,12,2.77,14.12Z"/><path class="cls-17" d="M521.2,170.92c-.25-6.7-6.08-13.33-12.8-18.42-26.8-20.3-18.39-13.85-54.9-22-3.93-.88-7.63,2.23-10.31,5.19l.85.66a90.24,90.24,0,0,1,11.24,9.45,115.18,115.18,0,0,1,11.8,14.89c.81,1.2,1.58,2.44,2.29,3.7,8.4,4.42,15.74,10.13,24.89,18.24,1.75,1.55,3,1.92,8.95,6.48,1.67,1.28,8.52-1.21,9.85-2.34l8.59-7C523.78,178,521.32,174,521.2,170.92Z"/><path class="cls-17" d="M305.39,54.72c3.84-13.57,1.88-9.06,6.7-14.07.56-.59,4.1-3.07,6.92-2.79C353.88,41.24,360.47,53,377.6,81.47c1.39,2.3,3,2-1.11,3.41-26.25,8.88-7,.15-26.66,12.05-3.1,1.87-3.46,1-4.41-.56C333.35,76.18,331,70.55,310.25,60.51,308.57,59.7,304.79,56.84,305.39,54.72Z"/><path class="cls-17" d="M292.19,97.13c10.52,0,21-.54,31.56-.33-17.33-4.55-24.59-6.52-41.52,1.45A32.85,32.85,0,0,1,292.19,97.13Z"/><path class="cls-17" d="M430.91,26.85c.66,2,3.36,10.33,1.88,12.29C422,53.44,414.24,60.24,412.11,78.7c-.18,1.6-1.6,7.51-3.95,8.44-1.8.7-5.11,1.06-10-2.1-3.1-2-7.54-8.84-8.58-12.76-6.92-26.08-5.26-20.62,9-43.36,4.55-7.25,19.68-8.47,26.12-7.82Z"/><path class="cls-17" d="M498.85,73.47c-1.19,2-6,10.33-8.65,10.69-19.31,2.62-30.37,1.87-46.89,14.17-1.43,1.07-4,.33-6.47-.76-1.85-.83-5.7-1.31-6.63-7.41-.58-3.85-1.51-10.78,2.22-13.72C458.85,55.6,449,61.88,477.67,55.53c9.14-2,17.35,3.55,21.41,8.9Z"/><path class="cls-17" d="M509.15,140.9c-.71-5.71-6.28-10.6-12.5-14.05-24.83-13.77-17-9.38-49.4-11.39-4.57-.29-8.28,5.23-10.29,8.36-1.75,2.72-1.78,4.79-1.32,6.4,2.88,1.94,5.66,4,8.4,6.17,1,.73,2,1.47,2.95,2.23,16.13,2.1,25.49,6.58,39.59,16,1.64,1.1,2.73,1.25,8.27,4.35,1.55.87,11.28-1.44,12.35-2.59C508.92,154.53,509.47,143.48,509.15,140.9Z"/><path class="cls-17" d="M497.48,190.71c-15.85-22.51-15.86-22.45-30.43-30l0,0a51.28,51.28,0,0,1,4.14,7.33,132.29,132.29,0,0,1,7.12,17.71c2.52,8.54,3.25,17.55,4.18,26.36.51,4.78,1.18,9.55,1.56,14.35q.07.86.12,1.71a19.76,19.76,0,0,0,6.41-.57l11.26-4.45c2.82-1.18,1.67-6.18,2.58-9.34C506.48,206.83,502.7,198.12,497.48,190.71Z"/><path class="cls-17" d="M314.65,63.18c19.91,9.66,22.17,15.06,33.75,34.45.43.71.73,1.26,1.22,1.47l.64.09a6.33,6.33,0,0,0,2.38-1c18.79-11.4.39-3,25.53-11.53,4-1.35,2.4-1.06,1.07-3.28C362.78,56,356.46,44.72,323,41.44c-2.7-.26-6.09,2.11-6.63,2.67-4.61,4.81-2.74.48-6.4,13.5C309.42,59.65,313,62.39,314.65,63.18Z"/><path class="cls-17" d="M292.19,97.13c10.74,0,21.47-.56,32.21-.31-12.91-3.37-19.93-4.65-32.22.31Z"/><path class="cls-17" d="M430.27,31c.64,2,3.23,9.92,1.81,11.8C421.76,56.52,414.33,63,412.31,80.75c-.17,1.53-1.53,7.21-3.78,8.09-1.72.67-4.9,1-9.6-2-3-1.92-7.24-8.48-8.24-12.24-6.66-25-5.06-19.8,8.59-41.61,4.35-7,18.85-8.1,25-7.47Z"/><path class="cls-17" d="M495.46,75.83c-1.15,2-5.74,9.91-8.28,10.25-18.52,2.49-29.12,1.76-44.94,13.55-1.37,1-3.87.31-6.2-.74-1.78-.8-5.47-1.26-6.36-7.12-.57-3.7-1.46-10.35,2.11-13.16,25.3-20,15.87-14,43.34-20,8.75-1.93,16.63,3.42,20.53,8.57Z"/><path class="cls-17" d="M505.41,140.56c-.7-5.48-6-10.18-12-13.5-23.81-13.25-16.33-9-47.36-11-4.38-.28-7.93,5-9.85,8a7.42,7.42,0,0,0-1.4,5.57c3.18,2.1,6.24,4.39,9.25,6.74l2.69,2c14.91,2.09,23.8,6.41,37.06,15.27,1.57,1.06,2.61,1.2,7.93,4.19,1.48.83,10.81-1.38,11.84-2.48C505.2,153.64,505.72,143,505.41,140.56Z"/><path class="cls-17" d="M495.2,188.05C480,166.45,480,166.49,466,159.23l1,1.5a51.28,51.28,0,0,1,4.14,7.33,132.29,132.29,0,0,1,7.12,17.71c2.52,8.54,3.25,17.55,4.18,26.36.42,4,1,7.93,1.34,11.91a16.45,16.45,0,0,0,4.8-.57l10.78-4.26c2.71-1.13,1.59-5.93,2.47-9C503.84,203.53,500.21,195.17,495.2,188.05Z"/><path class="cls-17" d="M316.89,66.54C335.7,75.81,338.13,81,348.86,99c1.89.26,3.77.53,5.65.85,16.22-9.93-.19-2.45,23.36-10.33,3.81-1.28,2.29-1,1-3.15C363,59.92,356.83,49,324.79,45.65c-2.59-.28-5.83,2-6.34,2.53-4.39,4.61-2.62.45-6.05,13C311.86,63.11,315.34,65.78,316.89,66.54Z"/><path class="cls-17" d="M318.54,96.75c-6.26-1.29-11.36-1.5-17.7.28C306.74,96.92,312.64,96.75,318.54,96.75Z"/><path class="cls-17" d="M427.46,36.2c.62,1.91,3.15,9.58,1.8,11.39C419.46,60.74,412.38,67,410.55,84c-.16,1.47-1.43,6.94-3.58,7.77-1.65.64-4.69,1-9.21-2-2.86-1.88-7-8.23-8-11.85-6.53-24.18-5-19.11,8-40,4.13-6.68,18-7.7,23.93-7.06Z"/><path class="cls-17" d="M490.16,79.77c-1.08,1.89-5.44,9.52-7.87,9.83-17.72,2.3-27.88,1.53-43,12.81-1.3,1-3.71.27-5.94-.75-1.71-.78-5.25-1.25-6.14-6.9-.56-3.57-1.45-10,1.95-12.68,24.12-19.1,15.12-13.36,41.4-19,8.37-1.81,16,3.4,19.72,8.38Z"/><path class="cls-17" d="M500.06,142.21c-.69-5.28-5.83-9.84-11.57-13.08-22.89-12.9-15.7-8.78-45.43-10.86-4.2-.3-7.57,4.79-9.4,7.66a10.47,10.47,0,0,0-1.1,2.29A131.88,131.88,0,0,1,444,136.39c1.95,1.46,3.92,2.94,5.82,4.5,10.9,2.36,18.71,6.51,29.57,13.85,1.52,1,2.52,1.17,7.62,4.08,1.43.81,10.35-1.26,11.33-2.32C500,154.81,500.38,144.6,500.06,142.21Z"/><path class="cls-17" d="M491.53,187.55C478.69,169.28,477.05,167,467.91,162a50.1,50.1,0,0,1,3.31,6.06,132.29,132.29,0,0,1,7.12,17.71c2.52,8.54,3.25,17.55,4.18,26.36.35,3.3.78,6.58,1.13,9.88a7,7,0,0,0,1.81-.38l10.31-4c2.59-1.08,1.49-5.71,2.31-8.63C499.89,202.51,496.37,194.44,491.53,187.55Z"/><path class="cls-17" d="M363.77,101.87c7.64,2.1,15.28,4.16,22.82,6.58a301.63,301.63,0,0,1,33.59,13.21A118.87,118.87,0,0,1,431,127.3,107.5,107.5,0,0,1,441,134c2.46-24.22,3.39-50.93-38-51.89-21.95-.5-44.25,2.91-57.92,16.37A129.17,129.17,0,0,1,363.77,101.87Z"/><path class="cls-17" d="M363.77,101.87c7.64,2.1,15.28,4.16,22.82,6.58a301.63,301.63,0,0,1,33.59,13.21A118.87,118.87,0,0,1,431,127.3a104.66,104.66,0,0,1,9,6c2.41-23,2.22-50.86-35.6-50.06-27.23.58-45.94,4.69-57.39,15.48A120.7,120.7,0,0,1,363.77,101.87Z"/><path class="cls-17" d="M414.58,119.14a2.14,2.14,0,0,0-.73-.35l-.27-.09Z"/><path class="cls-17" d="M411.49,117.8c-3.25-1.83-5.31-5.37-5.69-11.29-.14-2.23-1.9-1.29-1.9-1.29v1.37a14.05,14.05,0,0,0,3.75,9.6C408.93,116.72,410.21,117.25,411.49,117.8Z"/><path class="cls-17" d="M421,111.88c-2.4-3.66-1.1-7.33.69-8.65.89-.65,6-1.66,7.13-1.47,3.82.65,1.65,7.64,1.15,10.63a4.07,4.07,0,0,0,.25,3.15,17.51,17.51,0,0,1,2.6,7.36c.17,6.77-4.8.63-4.8.63-1.71-1.71-1.36.28-1.36.28a13.93,13.93,0,0,0,.94,1.56c1.15.62,2.29,1.26,3.42,1.93l.29.17c1.83-.42,3.05-2.8,3.05-2.8.57-5.2-3.25-11.09-3.25-11.09,5-16.2-6.22-12.7-6.22-12.7-12.68,2-4.06,15.09-4.06,15.09C423.59,117,421,111.88,421,111.88Z"/></g><path class="cls-17" d="M384.59,149.64v0a.77.77,0,0,1-.55.35.23.23,0,0,0-.14.07l-.45.38c-.19.16-.54,0-.51-.19l.06-.52c0-.06-.11-.11-.28-.15-.43-.12-.66-.49-.49-.81l.06-.1a.2.2,0,0,0-.11-.26l-.57-.29a.16.16,0,0,1-.09-.13c-.1-.39.52-.61.88-.32h0c.19,0,.32-.15.25-.3l-.21-.5c-.09-.21.22-.38.45-.25l.51.55c.15.09.41-.18.48-.31l.08-.41c.11-.21.65-.25.72,0l0,.83h0a.49.49,0,0,0,.81.1l.27-.39a.32.32,0,0,1,.5,0,.19.19,0,0,1,0,.18l-.29.46c-.08.14.13.46.31.5l.56,0c.28.05.32.35.06.43l-.61.2c-.12,0-.47.1-.62.17a1.09,1.09,0,0,1-.4.12c-.12,0-.23,0-.25.08a.53.53,0,0,1-.16.19A.75.75,0,0,0,384.59,149.64Z"/><path class="cls-17" d="M353,158l0,0a.76.76,0,0,1-.55.35.35.35,0,0,0-.14.06l-.44.38c-.19.16-.54,0-.52-.19l.07-.52c0-.05-.12-.1-.28-.15-.43-.11-.66-.48-.49-.8l0-.1a.2.2,0,0,0-.1-.26l-.58-.29a.28.28,0,0,1-.09-.14c-.09-.39.53-.61.88-.32h0c.19,0,.32-.15.26-.29l-.21-.51c-.1-.21.21-.38.45-.24l.5.54c.16.09.42-.17.49-.31l.08-.41c.1-.2.65-.25.72,0l0,.83h0a.49.49,0,0,0,.81.09l.27-.38a.3.3,0,0,1,.49,0,.15.15,0,0,1,0,.17l-.29.47c-.08.13.12.46.31.49l.55,0c.28,0,.33.35.07.44l-.61.2a5.83,5.83,0,0,0-.63.16,1.28,1.28,0,0,1-.39.13.51.51,0,0,0-.26.07.57.57,0,0,1-.15.2A.75.75,0,0,0,353,158Z"/><path class="cls-17" d="M587.54,169.87c-8.11-8.65-13.07-15.91-1.48-20,23.49-8.28,44.22-13.52,63.23-31.2,28.12-26.17,112.68-83,202.58-65,12,2.4,11.08,10.18,8.52,14.32-18.52,30-74.82,93.83-129.07,118.76-33.69,15.48-69.91,22.9-100.8,7.48a18.12,18.12,0,0,0-7.48-1.87l-23.19-1.54c-4.77-.16-8.8-11-12-14.34Z"/><path class="cls-17" d="M572.57,181.09c-7.26-7.71-4-19.89,6.4-23.51,21-7.33,51.86-20,68.83-35.7,25.09-23.25,100.57-73.7,181-57.51,10.69,2.16,9.92,9.09,7.64,12.77-16.5,26.65-66.71,83.43-115.15,105.53-30.09,13.73-62.46,20.28-90.1,6.49a16.37,16.37,0,0,0-6.69-1.68L583.67,186a16.08,16.08,0,0,1-11.1-4.93Z"/><path class="cls-19" d="M572.57,181.09c-7.26-7.71-4-19.89,6.4-23.51,21-7.33,51.86-20,68.83-35.7,25.09-23.25,100.57-73.7,181-57.51,10.69,2.16,9.92,9.09,7.64,12.77-16.5,26.65-66.71,83.43-115.15,105.53-30.09,13.73-62.46,20.28-90.1,6.49a16.37,16.37,0,0,0-6.69-1.68L583.67,186a16.08,16.08,0,0,1-11.1-4.93Z"/><path class="cls-17" d="M598.89,173.28c.52-1.59,51.54-26.25,102.73-49.74,47.52-21.81,91.53-35.28,99.06-35.69"/><path class="cls-18" d="M598.89,173.28c.52-1.59,51.54-26.25,102.73-49.74,47.52-21.81,91.53-35.28,99.06-35.69"/><path class="cls-17" d="M284.07,280.9c-6.7-12.94-13.28-21.85-24.43-11.63-22.59,20.74-39.92,40.07-72.06,51.33C140,337.24,24.65,398.28.84,502.63-2.32,516.51,8,519.49,14.49,518.86c47.37-4.56,157-32.1,216.52-77.05,36.95-27.93,65.05-62.58,61.58-103.08a18,18,0,0,1,1.52-8.87l10.05-25.35c2.27-5.15-9.3-14.86-11.9-19.88Z"/><path class="cls-17" d="M306,270.68c-6-11.58-23-14.2-33-5.05-20.11,18.56-52,44.93-80.62,55-42.3,14.89-145,69.51-166.15,162.89C23.43,495.94,32.57,498.6,38.39,498,80.53,494,178.1,469.31,231,429.09c32.89-25,57.88-56,54.8-92.24a16.27,16.27,0,0,1,1.35-7.94l19.26-44a16.42,16.42,0,0,0-.47-14.25Z"/><path class="cls-17" d="M282.51,294.65c-2.28-.25-59.76,41.42-115.87,83.85-52.09,39.4-91.84,79.27-96.25,87.05"/><path class="cls-18" d="M282.51,294.65c-2.28-.25-59.76,41.42-115.87,83.85-52.09,39.4-91.84,79.27-96.25,87.05"/></g></g></svg>
