<svg xmlns="http://www.w3.org/2000/svg" width="930" height="953.36" viewBox="0 0 930 953.36"><defs><style>.cls-1{fill:#451c54;}.cls-1,.cls-6{opacity:0.3;}.cls-2{fill:#727051;}.cls-3{fill:#070705;}.cls-4{fill:#d6d061;}.cls-5{opacity:0.2;}.cls-7{fill:#050505;}.cls-13,.cls-8{opacity:0.5;}.cls-9{fill:#070706;}.cls-10{fill:#acc642;}.cls-11{fill:#9422af;}.cls-12{fill:#d3d6bd;}.cls-14,.cls-15{opacity:0.1;}.cls-16{fill:#c1d687;}</style></defs><g id="Layer_3" data-name="Layer 3"><path class="cls-1" d="M799,556.71c-100.07,15-90.57,2-204.79,33.74-25.34,7-64.08,25.65-82.32,37-65.44,40.89-90.95,101.68-131,146.76H380l-2.79.05-2.55.06-1.42,0-.46,0c-.3,0-.6,0-.89,0l-2.49.11-.78,0-.75,0-.39,0-.66,0-1.06.09-1.3.14-.93.11-.3,0-.34,0-.55.09-.85.14c-.49.09-1,.18-1.42.29l-.44.1-.31.07c-.53.13-1.05.28-1.56.43l-.52.16c-.43.13-.86.28-1.29.43l-.33.12-.45.17-.53.21-.26.1-.38.16-.32.13-.5.21-.44.19c-1.35.59-2.79,1.28-4.41,2.08l-.35.17c-1.88.93-4,2-6.47,3.24A57.93,57.93,0,0,0,335.7,787c-.35.22-.68.45-1,.67l-1.45,1-1.37,1c-.74.55-1.45,1.1-2.16,1.64l-.41.32-.74.56-.19.16c-1.3,1-2.58,2-3.93,2.85-.24.17-.49.33-.74.48s-.36.24-.55.35l-.28.18c-.86.52-1.76,1-2.72,1.49h0l-1,.45-.11,0c-.29.13-.6.27-.91.39l-.2.09c-1,.4-2,.77-3.18,1.12l-.52.15c-.68.2-1.39.38-2.14.56l-.58.13-1.43.29-1,.18-1.07.17-1.2.18-.34,0-.86.11-.39,0-.82.09-.39,0-.82.08-.35,0L302,802l-.32,0-.9.06-.27,0-1,0h-.2l-1,0h-.13l-1.11,0h0c-7.22.24-14.68-.11-22.3-.18,7.49-2.34,14.31-5.48,19.55-9.5,62.69-48.13,95.08-51.14,106.76-58.86,2.7-1.78,15.24-21.69,10.48-21.88-34.08-1.34-29.64,6.43-48.61,16.78-14,7.62-34.26,21.32-51.78,23.46-25.81,3.16-48.13-9-76.94,11.22-1.38,1-5,1.53-9.17,2.1q-1.08-4-2.38-7.92c17.43-3.59,38.53-12.91,53.28-14.7,94.3-11.48,134.77-56.42,134.77-65,0-3.18-.68-4.06-5.45-4.18-34.14-.87-39.51,12.11-58.68,22.35-14.12,7.54-29.29,8.68-47.2,14.09-20.44,11.75-50.84,11.1-85.11,7.92-2.4-.22-8.36.33-14,1.52a55.28,55.28,0,0,0-7.18-5.92c20-19.12,41.57-33.76,61.57-34.93,16.87-1,32.35-14.37,47.81-15.77,21-1.9,42,6.4,66.79-12.93,3.46-2.69,2.93-4.15.83-6.8-6.18-7.8-134.87-17.21-211.39,34.67a15.39,15.39,0,0,0-4.53-2.77c-12.49-3.13-15.24-2-24.39-2.8-10.42-.93-22.32,4.26-26.57,11.47-5.16,8.76-28,14.15-30.21,22-1.3,4.39-12.38,15.48-12.48,18.4-.15,4.28,1,5.88,1,7.79a45.3,45.3,0,0,0,.11,6.25c-.7.16-1.35.31-2,.47l-.74.18-1.7.48c-1.83.54-3.35,1.09-4.9,1.68l-.27.1-2.15.81-.18.07-1.66.6-.23.08-.78.27-.59.19-1.37.45c-9.52,3-16.46,11.08-15.56,18,.48,3.67-2.35,8.05-5.43,12.39l-1.33,1.85c-3.53,4.91-6.81,9.61-5.27,12.94h0q.06.13.12.3l0,0,.09.32,0,.07c0,.11.05.22.08.34v.07c0,.12.05.25.07.38v.06c0,.12,0,.24.05.37v.07c0,.13,0,.27,0,.4a.49.49,0,0,1,0,.12l0,.4c0,.05,0,.1,0,.15s0,.27,0,.4v.17c0,.11,0,.21,0,.32V793a2.17,2.17,0,0,1,0,.26c0,.13,0,.27,0,.4v.19c0,5-.92,11.51.31,13.07,2.56,3.26,4.59,4,5.72,5.49a50.31,50.31,0,0,0,4.38,5c-4.61,1.61-9.11,4.38-10.11,5.49-10.18,11.34-9.71,14.19-15,22.78-6,9.78-3.71,22.13,5,27.55,10.56,6.58,8.27,29.45,18.86,33,5.87,2.07,17.21,14.74,21.46,15.39,6.22,1,9.06,1.44,11.86.55,15.44-4.91,26-8.22,32.83-10.63-1.12,8.65-1,18.31.46,20.11,4.29,5.28,17.39,23.58,42.11,21.53,28.58-2.37,66.94-11.77,75.19-12.05,94.12-3.19,81.92-36,61.12-38.95-15.32-2.15-40.31,10-58.16,11.72-25.26,2.44-40,9.88-61.51-17.54,1.5-.47,3-1,4.49-1.47,6.55,7.07,16.14,15,18.67,16.36,14.12,7.53,91.34-28,105.91-26.37,72.87,8,76.76-17.2,65.09-32.06,28.23-5.64,51.44-12.74,68.06-19.67,6.87-2.87,13.18-5.86,19-8.94,26.31,6.67,53.53-1.76,86.8-20.42,24.81-13.91,64.5-3.2,81.73-26,19.26-25.51,22.12-1.94,65-45.53,2.51-2.55,4.23-10.18.34-10.52-9.16-.8-42.92,10.2-67,24.23-28.73,16.76-54.92,27.8-94.53,31.24a27.64,27.64,0,0,0-11,3.32,90.77,90.77,0,0,1-9.45,4.58c6.49-6.47,12.57-13,18.79-19.48a113.2,113.2,0,0,0,14.58-7.83c13.39-8.32,36.12,0,44.89-14.4,9.81-16.12,12.36-.55,34.71-27.77,1.31-1.6,2-6.55-.23-6.9-5.18-.83-23.71,5.29-36.66,13.71a114.78,114.78,0,0,1-22.3,11.7c20.59-14.89,47.76-28.12,90-37.7,19.13-3.24,42.88-7,70.5-10.89,22.16-2.17,47.07-3.68,75.21-4.43,3-.08,45.46-7.31,60-37.67C851.27,609.88,803.34,556.06,799,556.71Zm-591,307c2.4.08,4.79.14,7.16.2-2.79.44-5.74,1-8.88,1.59C206.86,864.93,207.43,864.33,208,863.73Zm70.59,1.92c-7.1-.74-13.18-1.6-19-2.3,12.5-.6,24.57-1.55,36.14-2.79C290.09,863.93,284.37,866.25,278.59,865.65Zm-48.94-55c.07-1,.13-2.11.17-3.17,2.06.13,4.23.19,6.48.19Q233,809,229.65,810.67Z"/><path d="M813.43,468.16c-2.29-3.49-1.87-18.35,2.37-29.85,5.05-13.73,7-25.63,1.46-41.69a7.38,7.38,0,0,1,0-4.8c3.67-10.91-.7-19.79-8.57-27.32-1.2-1.16-.74-2.08.89-3a101.13,101.13,0,0,1,12.38-5.77c1.86-.68,2.79-.73,4.53.38,15.76,10.06,16.91,23.41,10.49,42.28-4,11.77,10.5,25.81-.64,35.9-12.45,11.29,3.08,9-16.27,32.17C818.91,467.85,814.4,469.63,813.43,468.16Z"/><path class="cls-2" d="M815.15,467.33c-3.19-1-.67-20.92,2.55-31.75,3.84-12.94,5.3-24.13,1.1-39.27a8.23,8.23,0,0,1,0-4.51c3-10.33,1.09-19.13-4.87-26.23-.92-1.09-.57-1.95.67-2.79a71.15,71.15,0,0,1,9.39-5.44c1.41-.64,2.14-.71,3.43.36,15.95,13.12,13,23.48,8,39.82-3.37,11,8.73,27.47-.48,36.2-11.23,10.65-2,15.43-14.57,30.93C819.38,465.85,816.62,467.81,815.15,467.33Z"/><path d="M845.9,514.16c-3.43-6.34-2.8-33.38,3.53-54.29,7.56-25,10.44-46.62,2.19-75.85a16.14,16.14,0,0,1,0-8.72c5.49-19.85-1-36-12.79-49.71-1.81-2.1-1.12-3.77,1.32-5.39a138.73,138.73,0,0,1,18.51-10.5c2.77-1.23,4.17-1.33,6.76.69,23.56,18.3,25.29,42.58,15.68,76.91-6,21.42,15.71,46.95-.94,65.31-18.62,20.53,4.59,16.33-24.34,58.51C854.09,513.6,847.35,516.85,845.9,514.16Z"/><path class="cls-3" d="M727.37,651.76c-14.85-75.51-24.39-65.28-27.49-155.33-.69-20,5.72-52.6,11.24-68.66,38-110.42,188-135.39,100.4-282.46-2.06-3.46,27.49-14.09,29.84-9.37,34.53,69.52,41.21,133.61,36.81,167.94-13.18,103-117.89,85-39.57,298,.8,2.17,6.28,34.43-18.33,52.85C793.06,675.06,728,655.06,727.37,651.76Z"/><path class="cls-4" d="M736.12,646.74C606.55,318.6,924.8,347.56,822.4,147.05c-1.73-3.41,18-4.64,20,0,116.49,273.52-115,179.36-11.64,443.45.81,2.07,7.9,45-13.38,59.8C792.53,667.52,737.3,649.73,736.12,646.74Z"/><g class="cls-5"><path d="M840.19,245c1,1.12,2.06,2.27,3,3.45,6.12,7.38,11.89,15.07,16.33,23.59,1.54,3,2.94,6,4.24,9.05,2.51,5.91,5,11.79,7.18,17.85.85,2.39,1.64,4.79,2.41,7.21,6.92-34.86,1.57-82.6-31-159.09-2-4.64-21.7-3.41-20,0C843,187.39,846.58,218.45,840.19,245Z"/></g><g class="cls-6"><path class="cls-7" d="M804.49,452.67c-12.47-18.1-11-73.3-6-137-55.1,61.94-147.28,135.62-62.35,331.12,1.28,3,56.41,20.78,81.23,3.56,21.28-14.77,13.9-57.64,13.38-59.8C811,508,804.77,453.07,804.49,452.67Z"/></g><g class="cls-8"><path d="M826.41,579.15c-6.61-10.48-56.3-58.64-70.64-145.32-4.24-25.58,3.06-64.87,4.56-75.17-51.65,59.39-90.27,120.78-24.21,288.08,1.18,3,56.41,20.78,81.23,3.56,21.28-14.77,14.19-57.73,13.38-59.8C822.05,568.34,830.78,596.7,826.41,579.15Z"/></g><path class="cls-9" d="M744.29,61.77C706.09,86.8,668.35,136,688,166.19s102.48,24.35,140.69-.68,40.09-77.2,23.06-109.64C835,23.94,782.49,36.73,744.29,61.77Z"/><path class="cls-10" d="M739.3,51.65C700.61,77,662.53,127,682.64,158s104.3,25.46,143,.11,40.31-78.62,22.81-111.86C831.23,13.53,778,26.3,739.3,51.65Z"/><path d="M833.32,49.71c-25.27-7.53-35.92-5.11-52.85-4.05-18.36,1.16-23.29,0-28.59-8.46-2.33-3.93.15-12.42,1.33-14C761,13,763.85,12.53,770.48,6.48,778-.42,790.41-2,798.08,2.74c9.31,5.8,30.37-1.89,36.83,4.73,3.66,3.64,19,8.4,20.84,11.26,2.71,4.19,4,6.09,4,8.33C858.93,83.7,860.09,57.68,833.32,49.71Z"/><path d="M695,102c-11.81,18-12.84,25-15.78,38.26-3.19,14.38-7.81,20.7-15.85,23.09-3.73,1-10.07-2.62-11.07-3.84-6.6-8.09-6.3-10.37-9.74-16.69-3.91-7.2-2.45-17.08,3.17-22,6.81-6,5.28-23.79,12.13-27.44,3.79-2.09,11.1-12.94,13.84-13.79,4-1.25,5.89-.81,7.67-1.38C703.43,70.52,707.47,83,695,102Z"/><path d="M729.45,342.15c8.18-2.28,39.09-43.12,22.58-113.57-3.49-14.88,2.68-41.68-5.29-54.1-2.34-3.65-13.41-13.52-19.16-12.59-18.74,3-8.46-2.44-18.57,9.24-3.1,3.58-.24,16.79,1.49,20,13,23.66,22.43,45.22,17.22,62.94.07,14.24,3.4,25.38.34,37.47-4.14,16.42-14.92,23.7-4.16,47.87C725.4,342.74,726.43,343,729.45,342.15Z"/><path d="M779.8,320.42c3.93-10.4-2.63-34.35,24.85-91.92,7.79-16.32.59-43.05-7.68-55.38-2.44-3.63-14.75-16.56-20.73-15.64-19.47,3-7.46,4.15-18,15.74-3.22,3.55,2.45,16.88,1.12,20.1-10.79,25.94,7.2,38.68,11.71,58,3,13.09-4.05,31.23-7.23,43.23-4.31,16.31-13,15.19-1.8,39.19C763.63,337.06,778.89,322.82,779.8,320.42Z"/><path d="M829.84,294.63c3.25-10.39.13-22.91,24.43-78.53,6-13.63.16-44.14-6.68-56.47-2-3.63-15.72-18.94-20.66-18-16.1,3-7.35,4.23-16,15.82-2.67,3.56-5.4,12-6.5,15.22-8.92,25.94,8.81,44.08,12.54,63.37,2.52,13.09-4.43,16.63-7.05,28.63-3.57,16.31-3.78,14.29,5.46,38.29C816.64,306.3,829.09,297,829.84,294.63Z"/><path d="M888.59,195c-5.75-10,5.51-74.59-5.75-82.69-3.3-2.38-28.9-13.62-32.79-10.64-12.66,9.7-5.63,9-8.16,23.23-.78,4.35,5.81,16.81,6.23,20.18,3.46,27.16,11.08,34.83,21.31,52.85C876,209.43,859.07,227,862,239,865.91,255.14,929.57,266.2,888.59,195Z"/><path class="cls-11" d="M833.48,47.27c-23.87-7-35.25-5.11-51.24-4.12-17.34,1.07-22.39,1.84-27.39-6-2.21-3.65.14-11.54,1.25-13,7.38-9.55,10.06-9.94,16.31-15.57,7.12-6.41,18.82-7.92,26.07-3.48,8.8,5.39,28.68-1.76,34.79,4.4,3.46,3.39,17.94,7.8,19.68,10.46,2.56,3.9,3.78,5.67,3.75,7.75C856,80.38,858.76,54.68,833.48,47.27Z"/><path class="cls-11" d="M691.78,104.13c-11.15,16.69-12.15,25.7-14.93,38-3,13.37-3.51,17.35-11.11,19.57-3.51.93-9.51-2.44-10.45-3.57-6.23-7.52-5.95-9.63-9.2-15.51-3.7-6.69-2.31-15.88,3-20.48,6.44-5.58,5-22.1,11.46-25.49,3.58-2,10.48-12,13.08-12.83,3.8-1.15,5.55-.75,7.24-1.28C703.61,75.46,703.59,86.45,691.78,104.13Z"/><path d="M820.85,98.3a18,18,0,0,1-7.79,9.91c-5.86,3.64-13.62,4.34-20.19,3.48-10.48-1.38-14.51-17.06-11.35-24.37s22.72-29.9,31.21-20.86c2.89,3.08,1.39,8.84,4.3,10.87C823.21,81.66,823.59,90,820.85,98.3Z"/><path d="M732.37,66.55c-2.88,1.73-.43.27-13.5,10.66-4.7,3.74-2.78,5.17-2.28,11,.78,9.33,15.19,9.75,22,6,2.51-1.4,8.23-2.33,8.51-6,.85-11.27,16.72-32,11.09-30.6-4.92,1.2-6.59,1.66-9.79,1.52C739.61,58.74,737.66,63.39,732.37,66.55Z"/><path d="M763.37,110.18c-2.85,3.73-4.56,10.65-8.23,9.35s-2.78-9.57-2.49-12.5,8.4-10.6,8.6-6.8C761.8,110.32,765.78,107,763.37,110.18Z"/><path d="M738.05,103.51c-1.9,4.09-5.83,6.75-3.19,9.1s10-4.41,12.33-6,4.47-9.75,1.2-8.1C739.74,102.83,739.66,100.07,738.05,103.51Z"/><path d="M709.61,109.52c2.72.83,11.34,4,10.37,11a1.8,1.8,0,0,1-.58,1.08c-1,.92-3.56,3.34-4.09,5.91a1.71,1.71,0,0,0,0,.39c0,1.51.4,11,3.61,12.91a1.67,1.67,0,0,0,.93.23c1.84-.07,10-.23,12.58,2.2a1.73,1.73,0,0,0,1.93.27c2.26-1.07,7-3.06,10.56-2.64a1.8,1.8,0,0,0,1.58-.64c1.21-1.47,3.87-4.28,5.74-3.34,0,0,6.78,2.68,9.78,1a1.69,1.69,0,0,1,.94-.2,8.92,8.92,0,0,0,5.5-1.6,1.77,1.77,0,0,1,1.32-.28c2,.38,7.33,1.37,8.57,1.25a24.36,24.36,0,0,1,6.21.05,1.78,1.78,0,0,1,1.33,1.44c.18,1.13.3,3-.54,4a1.86,1.86,0,0,0-.26,1.83c.56,1.46.88,3.93-2.16,5.78a1.79,1.79,0,0,1-.93.26c-2.32,0-12.42-.18-12.54-1.53,0,0-.41-5.59-1.25-5.87,0,0-2.57-1-2.39,4.5a1.78,1.78,0,0,1-.48,1.28c-1,1.1-3.81,3.26-8.93,2.74a9.25,9.25,0,0,1-6.33-2.9,1.76,1.76,0,0,0-2.57-.05c-1.48,1.51-3.41,4.11-2.78,6.9a1.74,1.74,0,0,1-.65,1.76c-2.13,1.63-7.59,4.66-13.79-.72a2,2,0,0,1-.28-.3,2.73,2.73,0,0,1-.12-3.39s-3,8.35-10.93,5.46a1.68,1.68,0,0,0-.32-.09c-1.34-.21-10.58-2-6.39-11h0a1.76,1.76,0,0,0-1.89-2.41c-2.76.41-6.1.53-6.76-1.15a2,2,0,0,0-.4-.63c-1.53-1.45-8-8.27-.28-13.33a1.78,1.78,0,0,0,.44-2.57c-2.34-3-5.85-10.14,4.78-17.41A1.74,1.74,0,0,1,709.61,109.52Z"/><path class="cls-12" d="M710,114.24s8.19,5.94,3.61,9c0,0-4.58,6.56-7.78,0C705.83,123.25,705.28,114.44,710,114.24Z"/><path class="cls-12" d="M710.41,131.9s3.48,6.7.56,7.68c0,0-7.22,3.07-4.44-3.84C706.53,135.74,709.7,130.33,710.41,131.9Z"/><path class="cls-12" d="M717.78,148.23c.82-.77,6-5.91,10.83-2.61,0,0-4.45,3.86-3.89,4.84,0,0,.55,5.54-4.17,4.09C720.55,154.55,712.08,153.53,717.78,148.23Z"/><path class="cls-12" d="M738.88,148.09c.52-.46,2.28-3.82,3.71-2.47,0,0,1.21,8,0,9.37,0,0-3.93,3.29-5.62,2.31C737,157.3,730.55,155.49,738.88,148.09Z"/><path class="cls-12" d="M753.05,142.37c.56-.79,7.83-3.49,9.33,0,0,0-2.12,7.39-7,6.14C755.33,148.51,748.48,148.79,753.05,142.37Z"/><path class="cls-12" d="M772.07,139.44a8.21,8.21,0,0,1,7.5,1.19s3.47,5.23.83,5.92-9.44,3.09-9.3-1.24S772.07,139.44,772.07,139.44Z"/><path class="cls-13" d="M834.17,84.07c.64,1.33-.27,3-.71,5.23-.14.71,1.16,2.49,1.76,2.89,2.31,1.5,6.75,4.07,6.07,7.3,0,.15-1.06,3.37-1.16,3.49-1.2,1.44-4.73,7.24-7.82,7.58-.12,0-2.94,1.65-3.06,1.68-1.3.35-5.37,2.46-5.44,6.59a2.11,2.11,0,0,1-.29,1.1,17.51,17.51,0,0,0,.55,3.1c.65,1.44-2.37,0-3.28-.94-1.52-1.49-1.54-1.71-2.1-7.78,0-.16.16-.28.26-.39,1.09-1.23,7.65-8.32,14.42-9.84a1.18,1.18,0,0,0,.3-.1c1.1-.48,7.44-3.64-.3-9.64a1.81,1.81,0,0,0-.57-.29c-1.61-.48-8.87-4.22-1.42-11.54C832.24,81.67,833.65,83,834.17,84.07Z"/><path class="cls-11" d="M729.88,339.39c5.89-2.11,40.93-49.25,18.43-109.93-4.72-12.73,3.24-41.74-2.5-53.2-1.68-3.37-11.26-13.22-15.41-12.36-13.5,2.79-13.13-3.16-20.42,7.61-2.23,3.31-.1,15.18,1.3,18,10.83,21.56,22.24,43.76,18.49,60.12-2.76,12,3,26.31.75,37.46-3,15.16-12.71,27.67-5,50C726.64,340.16,727.7,340.17,729.88,339.39Z"/><path class="cls-11" d="M779,317.51c2.73-9.67-2.29-33.29,20.34-84.19,5.52-12.41,3.24-41.74-2.5-53.21-1.68-3.36-16-22.13-20.11-21.28-13.5,2.8-8.43,5.76-15.71,16.54-2.24,3.3,2.22,15,1.3,18-7.48,24.11,9.18,41.66,12.31,59.58,2.12,12.17-4.47,29.37-6.67,40.52-3,15.15-9,14.12-1.25,36.43C767.74,333,778.32,319.74,779,317.51Z"/><path class="cls-11" d="M826.4,291.1c2.73-9.66,1.25-22.26,23.88-73.17,5.52-12.4,3.24-41.74-2.5-53.2-1.68-3.37-16-22.14-20.11-21.28-13.5,2.8-8.43,5.76-15.71,16.53-2.24,3.31-2.57,14.58-3.5,17.57-7.48,24.11,9.82,41.62,12.94,59.55,2.12,12.16-6.13,14.8-8.33,26-3,15.16-3.17,13.28,4.58,35.59C818.73,301.76,825.77,293.34,826.4,291.1Z"/><path class="cls-11" d="M885.75,196.33c-5.37-9.31,2.39-75.06-7.79-82.8-3-2.28-24.05-12.79-27.39-10.18-10.89,8.49-5,8.91-6.85,21.8-.55,4,4.09,14.22,4.57,17.31,3.87,25,13,39.17,23.72,53.87,7.24,10-9.59,30.16-6.67,41.15C869.31,252.4,924.08,262.69,885.75,196.33Z"/><path d="M902.29,183.69c-6.5-10.38-2.23-31.46-5.79-44.68-5.43-20.21-1.73-33.16-43-41.2-2.87-.56.09-2-5.93-15.16-6.08-13.37.06-19.17-.46-21.5-1-4.42,27.37-13.86,31.33-12.81,6.26,1.67,27.44,6.19,32.68,24.4,6.06,21.05,8.29,51,10.42,56.94C945.82,197.8,911.11,197.78,902.29,183.69Z"/><path class="cls-11" d="M917.24,128.78c-2.09-5.37-1.38-33.33-7.49-52.15C904.46,60.34,887,56.41,881.42,54.44c-3.54-1.25-28.6,1.19-31,4.7-7.8,11.42-2.1,10,.09,22.86.67,3.93,6.53,14.53,9.6,15.09,37.13,6.75,33.38,26,38.91,44,3.62,11.79,0,31.66,6.12,41.23C913.45,195.37,941.2,190.09,917.24,128.78Z"/><path d="M744.5,54.74c-17.76,8.46-22.43,15.68-30.83,24.74-9.11,9.83-12.75,12.24-20.39,10.21-3.49-1-7-7-7.28-8.4-1.72-9.61-.45-11.26-.39-17.94.07-7.59,5.74-14.69,12.55-15.88,8.28-1.44,15.09-16.24,22.31-15.81,4,.19,14.92-4.84,17.54-4.18,3.84,1,5.16,2.22,6.88,2.64C768,35.76,763.3,45.77,744.5,54.74Z"/><path class="cls-11" d="M743.1,53.83c-16.4,8-21.31,14.62-29.13,23-8.48,9.13-10.7,12-17.68,10.27-3.2-.88-6.36-6.3-6.58-7.62-1.46-8.8-.28-10.33-.14-16.46.16-7,5.45-13.56,11.72-14.73,7.61-1.43,14-15.09,20.67-14.78,3.7.12,13.74-4.63,16.14-4,3.51.84,4.71,2,6.28,2.33C765.51,36.73,760.47,45.37,743.1,53.83Z"/><path d="M684.75,322.3c-10.19-2.6-65.93-112.09-17.13-181.5,2.42-3.44,10.47-5.74,16.42-4.86,19.41,2.86,10.09,14.82,25,23.69,4,2.38-1.1,6.12-3.12,9-15.57,22.07-26.38,45-21,61.78,4,12.31-4.25,26.93-1.08,38.35,4.29,15.51,18.28,28.32,7.14,51.17C689.41,323.1,687.88,323.1,684.75,322.3Z"/><path class="cls-4" d="M848.46,512.66c-4.77-1.87-1-38.06,3.81-57.75,5.74-23.55,7.93-43.9,1.65-71.45a18.17,18.17,0,0,1,0-8.2c4.43-18.78,1.63-34.8-7.28-47.71-1.37-2-.85-3.56,1-5.08a102.9,102.9,0,0,1,14-9.9c2.11-1.15,3.19-1.29,5.13.66,23.84,23.87,19.4,42.71,11.9,72.44-5,20,13,50-.71,65.84-16.79,19.38-3,28.08-21.79,56.27C854.79,510,850.67,513.53,848.46,512.66Z"/><path class="cls-11" d="M680.68,314.56c-7.86-2.42-50.83-104.18-13.21-168.68,1.87-3.21,13.26-7.59,17.85-6.77,15,2.66,11.71,13,19.78,23.23,2.48,3.15-2.26,6.93-3.81,9.59-12,20.51-24.65,41.64-20.49,57.2,3.06,11.45-3.27,25-.83,35.65,3.31,14.42,14.09,26.32,5.5,47.55C684.27,315.3,683.09,315.3,680.68,314.56Z"/><path class="cls-14" d="M798.86,166.86a209.3,209.3,0,0,1-18.15-28,352.47,352.47,0,0,1-17.28-38.83c-4-10.42-7.64-21-11.16-31.62C750.52,63.21,748.78,58,747,52.76c-1.68,1-3.34,2.07-5,3.14-38.68,25.35-76.76,75.35-56.65,106.34,16.56,25.53,76.57,26.28,118.85,11.59Q801.52,170.37,798.86,166.86Z"/><g class="cls-15"><path d="M695,102c-11.81,18-12.84,25-15.78,38.26-3.19,14.38-7.81,20.7-15.85,23.09-3.73,1-10.07-2.62-11.07-3.84-6.6-8.09-6.3-10.37-9.74-16.69-3.91-7.2-2.45-17.08,3.17-22,6.81-6,5.28-23.79,12.13-27.44,3.79-2.09,11.1-12.94,13.84-13.79,4-1.25,5.89-.81,7.67-1.38C703.43,70.52,707.47,83,695,102Z"/></g><g class="cls-15"><path d="M729.45,342.15c8.18-2.28,39.09-43.12,22.58-113.57-3.49-14.88,2.68-41.68-5.29-54.1-2.34-3.65-13.41-13.52-19.16-12.59-18.74,3-8.46-2.44-18.57,9.24-3.1,3.58-.24,16.79,1.49,20,13,23.66,22.43,45.22,17.22,62.94.07,14.24,3.4,25.38.34,37.47-4.14,16.42-14.92,23.7-4.16,47.87C725.4,342.74,726.43,343,729.45,342.15Z"/></g><g class="cls-15"><path d="M779.8,320.42c3.93-10.4-2.63-34.35,24.85-91.92,7.79-16.32.59-43.05-7.68-55.38-2.44-3.63-14.75-16.56-20.73-15.64-19.47,3-7.46,4.15-18,15.74-3.22,3.55,2.45,16.88,1.12,20.1-10.79,25.94,7.2,38.68,11.71,58,3,13.09-4.05,31.23-7.23,43.23-4.31,16.31-13,15.19-1.8,39.19C763.63,337.06,778.89,322.82,779.8,320.42Z"/></g><g class="cls-15"><path d="M848.26,220.09c-8.66-7.68-16.92-15.82-24.77-24.32-6.75-7.29-13.09-14.9-19.24-22.68-8.57,25.71,9,43.75,12.69,62.93,2.52,13.09-4.43,16.63-7.05,28.63-3.57,16.31-3.78,14.29,5.46,38.29,1.29,3.36,13.74-5.9,14.49-8.31,3.12-10,.38-21.87,21.54-71.81Q849.81,221.47,848.26,220.09Z"/></g><g class="cls-15"><path d="M691.78,104.13c-11.15,16.69-12.15,25.7-14.93,38-3,13.37-3.51,17.35-11.11,19.57-3.51.93-9.51-2.44-10.45-3.57-6.23-7.52-5.95-9.63-9.2-15.51-3.7-6.69-2.31-15.88,3-20.48,6.44-5.58,5-22.1,11.46-25.49,3.58-2,10.48-12,13.08-12.83,3.8-1.15,5.55-.75,7.24-1.28C703.61,75.46,703.59,86.45,691.78,104.13Z"/></g><g class="cls-15"><path d="M749.54,64.19c-.57-1.7-1.13-3.4-1.7-5.09-8.31-.16-10.29,4.36-15.47,7.45-2.88,1.73-.43.27-13.5,10.66-4.7,3.74-2.78,5.17-2.28,11,.78,9.33,15.19,9.75,22,6,2.51-1.4,8.23-2.33,8.51-6,.32-4.26,2.79-9.86,5.43-15.11C751.52,70.12,750.52,67.15,749.54,64.19Z"/></g><g class="cls-15"><path d="M763.37,110.18c-2.85,3.73-4.56,10.65-8.23,9.35s-2.78-9.57-2.49-12.5,8.4-10.6,8.6-6.8C761.8,110.32,765.78,107,763.37,110.18Z"/></g><g class="cls-15"><path d="M738.05,103.51c-1.9,4.09-5.83,6.75-3.19,9.1s10-4.41,12.33-6,4.47-9.75,1.2-8.1C739.74,102.83,739.66,100.07,738.05,103.51Z"/></g><g class="cls-15"><path d="M779.25,137l-.93.08c-1.24.12-6.6-.87-8.57-1.25a1.77,1.77,0,0,0-1.32.28,8.92,8.92,0,0,1-5.5,1.6,1.69,1.69,0,0,0-.94.2c-3,1.71-9.78-1-9.78-1-1.87-.94-4.53,1.87-5.74,3.34a1.8,1.8,0,0,1-1.58.64c-3.53-.42-8.3,1.57-10.56,2.64a1.73,1.73,0,0,1-1.93-.27c-2.6-2.43-10.74-2.27-12.58-2.2a1.67,1.67,0,0,1-.93-.23c-3.21-1.89-3.57-11.4-3.61-12.91a1.71,1.71,0,0,1,0-.39c.53-2.57,3-5,4.09-5.91a1.8,1.8,0,0,0,.58-1.08c1-7-7.65-10.2-10.37-11a1.74,1.74,0,0,0-1.5.23c-10.63,7.27-7.12,14.37-4.78,17.41a1.78,1.78,0,0,1-.44,2.57c-7.69,5.06-1.25,11.88.28,13.33a2,2,0,0,1,.4.63c.66,1.68,4,1.56,6.76,1.15a1.76,1.76,0,0,1,1.89,2.41h0c-4.19,9,5,10.79,6.39,11a1.68,1.68,0,0,1,.32.09c6.08,2.21,9.25-2.15,10.41-4.33a3.17,3.17,0,0,0,.64,2.26,2,2,0,0,0,.28.3c6.2,5.38,11.66,2.35,13.79.72a1.74,1.74,0,0,0,.65-1.76c-.63-2.79,1.3-5.39,2.78-6.9a1.76,1.76,0,0,1,2.57.05,9.25,9.25,0,0,0,6.33,2.9c5.12.52,7.88-1.64,8.93-2.74a1.78,1.78,0,0,0,.48-1.28c-.18-5.53,2.39-4.5,2.39-4.5.84.28,1.25,5.87,1.25,5.87.12,1.35,10.22,1.51,12.54,1.53a1.79,1.79,0,0,0,.93-.26,4.8,4.8,0,0,0,2.43-3C783.2,143.84,781.17,140.45,779.25,137Z"/><path d="M710,114.24s8.19,5.94,3.61,9c0,0-4.58,6.56-7.78,0C705.83,123.25,705.28,114.44,710,114.24Z"/><path d="M710.41,131.9s3.48,6.7.56,7.68c0,0-7.22,3.07-4.44-3.84C706.53,135.74,709.7,130.33,710.41,131.9Z"/><path class="cls-16" d="M717.78,148.23c.82-.77,6-5.91,10.83-2.61,0,0-4.45,3.86-3.89,4.84,0,0,.55,5.54-4.17,4.09C720.55,154.55,712.08,153.53,717.78,148.23Z"/><path d="M738.88,148.09c.52-.46,2.28-3.82,3.71-2.47,0,0,1.21,8,0,9.37,0,0-3.93,3.29-5.62,2.31C737,157.3,730.55,155.49,738.88,148.09Z"/><path d="M753.05,142.37c.56-.79,7.83-3.49,9.33,0,0,0-2.12,7.39-7,6.14C755.33,148.51,748.48,148.79,753.05,142.37Z"/><path d="M772.07,139.44a8.21,8.21,0,0,1,7.5,1.19s3.47,5.23.83,5.92-9.44,3.09-9.3-1.24S772.07,139.44,772.07,139.44Z"/></g><g class="cls-15"><path d="M729.88,339.39c5.89-2.11,40.93-49.25,18.43-109.93-4.72-12.73,3.24-41.74-2.5-53.2-1.68-3.37-11.26-13.22-15.41-12.36-13.5,2.79-13.13-3.16-20.42,7.61-2.23,3.31-.1,15.18,1.3,18,10.83,21.56,22.24,43.76,18.49,60.12-2.76,12,3,26.31.75,37.46-3,15.16-12.71,27.67-5,50C726.64,340.16,727.7,340.17,729.88,339.39Z"/></g><g class="cls-15"><path d="M779,317.51c2.73-9.67-2.29-33.29,20.34-84.19,5.52-12.41,3.24-41.74-2.5-53.21-1.68-3.36-16-22.13-20.11-21.28-13.5,2.8-8.43,5.76-15.71,16.54-2.24,3.3,2.22,15,1.3,18-7.48,24.11,9.18,41.66,12.31,59.58,2.12,12.17-4.47,29.37-6.67,40.52-3,15.15-9,14.12-1.25,36.43C767.74,333,778.32,319.74,779,317.51Z"/></g><g class="cls-15"><path d="M848.26,220.09c-8.66-7.68-16.92-15.82-24.77-24.32-5.28-5.71-10.32-11.61-15.2-17.63-7,23.8,10,41.18,13.11,59,2.12,12.16-6.13,14.8-8.33,26-3,15.16-3.17,13.28,4.58,35.59,1.08,3.12,8.12-5.3,8.75-7.54,2.68-9.47,1.3-21.79,22.63-70.33Z"/></g><g class="cls-15"><path d="M739.07,33.76c-.76-2.09-1.51-4.19-2.22-6.3-3.79.41-12.79,4.37-16.38,4.2-7.22-.43-14,14.37-22.31,15.81-6.81,1.19-12.48,8.29-12.55,15.88-.06,6.68-1.33,8.33.39,17.94.26,1.44,3.79,7.39,7.28,8.4,7.64,2,11.28-.38,20.39-10.21,8.4-9.06,13.07-16.28,30.83-24.74.55-.27,1.09-.53,1.61-.8C743.84,47.19,741.52,40.46,739.07,33.76Z"/></g><g class="cls-15"><path d="M739.07,33.76c-.52-1.43-1-2.87-1.54-4.31-3.12.07-12.12,4.22-15.57,4.1-6.63-.31-13.06,13.35-20.67,14.78-6.27,1.17-11.56,7.76-11.72,14.73-.14,6.13-1.32,7.66.14,16.46.22,1.32,3.38,6.74,6.58,7.62,7,1.77,9.2-1.14,17.68-10.27,7.82-8.42,12.73-15.05,29.13-23,.88-.43,1.73-.86,2.54-1.29C743.52,46.26,741.36,40,739.07,33.76Z"/></g><g class="cls-15"><path d="M684.75,322.3c-10.19-2.6-65.93-112.09-17.13-181.5,2.42-3.44,10.47-5.74,16.42-4.86,19.41,2.86,10.09,14.82,25,23.69,4,2.38-1.1,6.12-3.12,9-15.57,22.07-26.38,45-21,61.78,4,12.31-4.25,26.93-1.08,38.35,4.29,15.51,18.28,28.32,7.14,51.17C689.41,323.1,687.88,323.1,684.75,322.3Z"/></g><g class="cls-15"><path d="M680.68,314.56c-7.86-2.42-50.83-104.18-13.21-168.68,1.87-3.21,13.26-7.59,17.85-6.77,15,2.66,11.71,13,19.78,23.23,2.48,3.15-2.26,6.93-3.81,9.59-12,20.51-24.65,41.64-20.49,57.2,3.06,11.45-3.27,25-.83,35.65,3.31,14.42,14.09,26.32,5.5,47.55C684.27,315.3,683.09,315.3,680.68,314.56Z"/></g></g></svg>
