<svg xmlns="http://www.w3.org/2000/svg" xmlns:xlink="http://www.w3.org/1999/xlink" width="1920" height="1080" viewBox="0 0 1920 1080"><defs><style>.cls-1{fill:none;}.cls-2{clip-path:url(#clip-path);}.cls-3{fill:#caa;}.cls-4{fill:#d3b5b2;}.cls-5{fill:#98b250;}.cls-6{clip-path:url(#clip-path-2);}.cls-7{fill:#c4a29d;}.cls-8{fill:#996874;}.cls-9{fill:#e5afa8;}.cls-10{fill:#d3847f;}.cls-11{fill:#f29985;}.cls-12{fill:#e27b6a;}.cls-13{fill:#ce7c6e;}.cls-14{fill:#998636;}.cls-15{fill:#e8c1b8;}.cls-16{fill:#d89785;}.cls-17{fill:#aac462;}.cls-18{fill:#b26d5d;}.cls-19{opacity:0.4;}.cls-20{fill:#a59599;}.cls-21{fill:#d1caaa;}.cls-22{fill:#c9b86f;}.cls-23{fill:#b7ad84;}.cls-24{fill:#c6ba89;}.cls-25{fill:#8e797f;}.cls-26{opacity:0.3;}.cls-27{opacity:0.2;}.cls-28{fill:#fff;}.cls-29{fill:#070707;}</style><clipPath id="clip-path"><rect class="cls-1" x="-8.75" y="-1206.63" width="1937.49" height="1116.29"/></clipPath><clipPath id="clip-path-2"><rect class="cls-1" x="-8.75" y="-7.72" width="1937.49" height="1116.29"/></clipPath></defs><g id="Layer_3" data-name="Layer 3"><g class="cls-2"><path class="cls-3" d="M-216.11-633.66c9.41-4.11,443.59-156.54,455.35-201.67,0,0,276.89,163.37,342.77,166.77l40.74-63.17S765-625.23,859.12-620.22L1091-654.81l143.62,22.47,174-52.7s182.26,99.92,234,84.88l122.34-20.06L1941.4-577.6l290.84-11.48-6.15,629.83H-226.69Z"/><path class="cls-4" d="M-273.67-630.9C-264.26-635,227.48-793,239.24-838.09c0,0,169.4,203.79,235.28,207.19L622.75-734.49s84.7,112,178.81,117L1091-657.58l77.65,26.68,240-56.9s124.7,105.44,176.46,90.4l122.35-20.06,176.46,42.62,290.83-11.48-6.14,629.83H-284.24Z"/><path class="cls-5" d="M2041.47-231.64c-10.88-56.61-99.23-145.26-349.59-193.23-101.77-19.51-248.73,46.19-371.83,35.1-112.07-10.1-248.61-55.16-369.18-55.16-191.47,0-315.27-88.25-483.24-42.62-298.19,81-560.34,187.37-560.34,255.91,0,102.42,519,303.18,1086.83,242.4C1569.62-50.84,2099.76,71.54,2041.47-231.64Z"/></g><g class="cls-6"><path class="cls-7" d="M1830.6,542.8c-.45-.14-2.56,2.37-6.62,4.43-9.48,7.08-13.3,7.27-16.52,9.24,0-1.72,1.51-4.33.92-6,12.52-6.4,11.39-1,15.39-11.29-.5-.06-1.6,4-2.41,2.27-2.43,6.87-4.17,2.26-12.94,7.84l-.85.07c.93-6.9-4.22-4.12,5.59-11.66-.39-.21-2.1,1.37-2.49,1.16-7,5.93-3.91,3.93-4.66,10.66l-.61.06c-.38.71-1,.69-5.27-1.51-.51.34-8.69-4.27-9.2-3.93,4.17,2.14,8.36,4.27,12.69,6.27.21.54.45,1.07.65,1.61-6.94-.93-3.83-.25-10.38-2.53-.27.24,10.07,3.74-7.06-.3,7,2.41,10.47,2.66,17.68,3.74a26.69,26.69,0,0,1,.07,5.72c-6.57-2.63-8.7-2.54-8.7-2.54,2.13-.09-8.69.43-8.63.73,7.1-.27,11.84-.63,17.43,3.13a19.71,19.71,0,0,1-1.68,7.44c-6-2.83-2-.7-16.39-5.58-.63.25-7.32-3.44-7.94-3.17,5.75,5.38,22.36,6.64,23,10.75-11.88,10.58-8.33,15.78-12.19,20.39l5.79-.27c-.38-13.61,11.7-15.32,12-30.69C1816.22,553.73,1824.55,549.82,1830.6,542.8Z"/><path class="cls-7" d="M1812.45,545c-.45-.14-2.57,2.37-6.63,4.43-9.48,7.08-13.3,7.27-16.51,9.25,0-1.73,1.5-4.34.92-6,12.51-6.39,11.39-1,15.39-11.29-.5-.06-1.6,4-2.41,2.27-2.44,6.87-4.18,2.26-13,7.85l-.85.07c.94-6.91-4.22-4.13,5.59-11.67-.38-.21-2.09,1.38-2.48,1.16-7,5.94-3.91,3.93-4.66,10.66l-.62.06c-.37.71-1,.69-5.27-1.5-.51.33-8.69-4.27-9.19-3.94,4.17,2.14,8.36,4.27,12.68,6.27.22.54.45,1.07.66,1.61-6.94-.93-3.83-.25-10.38-2.53-.28.25,10.07,3.74-7.07-.3,7,2.41,10.48,2.66,17.69,3.75a27.26,27.26,0,0,1,.07,5.71c-6.57-2.62-8.7-2.54-8.7-2.54,2.13-.08-8.69.43-8.64.74,7.1-.27,11.85-.64,17.44,3.12a19.64,19.64,0,0,1-1.69,7.44c-6-2.83-2-.7-16.39-5.58-.62.26-7.31-3.43-7.93-3.17,5.74,5.38,22.36,6.65,23,10.75-11.88,10.59-8.33,15.78-12.19,20.39l5.78-.26c-.37-13.62,11.71-15.32,12-30.7C1798.06,555.91,1806.4,552,1812.45,545Z"/><path class="cls-7" d="M1786.35,546.67c-.45-.14-2.57,2.37-6.63,4.43-9.47,7.08-13.3,7.27-16.51,9.24,0-1.72,1.5-4.33.92-6,12.51-6.39,11.39-1,15.39-11.29-.5-.06-1.6,4-2.41,2.27-2.43,6.87-4.17,2.26-12.94,7.85l-.85.06c.93-6.9-4.22-4.12,5.59-11.66-.39-.21-2.1,1.37-2.49,1.16-7,5.94-3.91,3.93-4.66,10.66l-.62.06c-.37.71-1,.69-5.27-1.5-.5.33-8.68-4.27-9.19-3.94,4.17,2.14,8.36,4.27,12.69,6.27.21.54.44,1.07.65,1.61-6.94-.93-3.83-.25-10.38-2.53-.28.25,10.07,3.74-7.06-.3,7,2.41,10.47,2.66,17.68,3.75a26.6,26.6,0,0,1,.07,5.71c-6.57-2.62-8.7-2.54-8.7-2.54,2.13-.08-8.69.43-8.63.74,7.09-.28,11.84-.64,17.43,3.12a19.86,19.86,0,0,1-1.68,7.44c-6-2.83-2-.7-16.39-5.58-.63.25-7.32-3.43-7.94-3.17,5.74,5.38,22.36,6.64,23,10.75-11.88,10.59-8.33,15.78-12.19,20.39l5.79-.27c-.38-13.61,11.7-15.31,12-30.69C1772,557.6,1780.3,553.69,1786.35,546.67Z"/><path class="cls-7" d="M1781,530.31c-.45-.14-2.56,2.37-6.62,4.44-9.48,7.07-13.3,7.27-16.51,9.24,0-1.73,1.5-4.34.91-6,12.52-6.39,11.39-1,15.4-11.29-.51-.06-1.6,4-2.41,2.27-2.44,6.87-4.18,2.27-13,7.85l-.85.07c.94-6.91-4.22-4.13,5.59-11.66-.39-.22-2.1,1.37-2.49,1.16-7,5.93-3.91,3.92-4.66,10.65l-.61.06c-.38.72-1,.69-5.27-1.5-.51.34-8.69-4.27-9.2-3.94,4.17,2.15,8.36,4.27,12.69,6.28.21.53.45,1.07.65,1.6-6.94-.93-3.83-.25-10.38-2.52-.27.24,10.08,3.73-7.06-.3,7,2.4,10.47,2.65,17.68,3.74a26.68,26.68,0,0,1,.07,5.72c-6.57-2.63-8.7-2.55-8.7-2.55,2.13-.08-8.68.43-8.63.74,7.1-.27,11.84-.64,17.43,3.13a19.52,19.52,0,0,1-1.68,7.44c-6-2.83-2-.71-16.39-5.59-.62.26-7.32-3.43-7.94-3.17,5.75,5.38,22.37,6.65,23,10.76-11.88,10.58-8.33,15.77-12.19,20.38l5.79-.26c-.37-13.62,11.7-15.32,12-30.7C1766.62,541.24,1775,537.33,1781,530.31Z"/><path class="cls-7" d="M1760.26,548.59c-.45-.14-2.57,2.37-6.63,4.43-9.48,7.08-13.3,7.27-16.51,9.24,0-1.72,1.5-4.33.92-6,12.51-6.4,11.39-1,15.39-11.29-.51-.06-1.6,4-2.41,2.27-2.44,6.87-4.18,2.26-13,7.85l-.85.06c.94-6.9-4.22-4.12,5.59-11.66-.38-.21-2.09,1.37-2.48,1.16-7,5.93-3.91,3.93-4.67,10.66l-.61.06c-.37.71-1,.69-5.27-1.5-.51.33-8.69-4.28-9.19-3.94,4.17,2.14,8.36,4.27,12.68,6.27.22.54.45,1.07.66,1.61-6.94-.93-3.83-.25-10.38-2.53-.28.24,10.07,3.74-7.07-.3,7,2.41,10.48,2.66,17.69,3.75a27.26,27.26,0,0,1,.07,5.71c-6.57-2.63-8.7-2.54-8.7-2.54,2.13-.09-8.69.43-8.64.74,7.1-.28,11.85-.64,17.44,3.12a19.72,19.72,0,0,1-1.69,7.44c-6-2.83-2-.7-16.39-5.58-.62.25-7.31-3.43-7.93-3.17,5.74,5.38,22.36,6.64,23,10.75-11.88,10.58-8.33,15.78-12.2,20.39l5.79-.27c-.37-13.61,11.71-15.31,12-30.69C1745.87,559.52,1754.21,555.61,1760.26,548.59Z"/><path class="cls-7" d="M1712.94,556.18c12.51-6.4,11.39-1,15.39-11.3-.51,0-1.6,4-2.41,2.28-2.44,6.87-4.18,2.26-13,7.84l-.85.07c.94-6.9-4.22-4.12,5.59-11.66-.38-.22-2.09,1.37-2.48,1.16-7,5.93-3.92,3.92-4.67,10.66l-.61.06c-.37.71-1,.69-5.27-1.51-.51.34-8.69-4.27-9.19-3.93,4.17,2.14,8.36,4.27,12.68,6.27.21.54.45,1.07.66,1.61-6.95-.93-3.83-.25-10.39-2.53-.27.24,10.08,3.74-7.06-.3,7,2.41,10.48,2.66,17.69,3.74a27.35,27.35,0,0,1,.07,5.72c-6.57-2.63-8.71-2.54-8.71-2.54,2.14-.09-8.68.43-8.63.73,7.1-.27,11.85-.63,17.44,3.13a19.72,19.72,0,0,1-1.69,7.44c-6-2.83-2-.71-16.39-5.59-.62.26-7.31-3.43-7.93-3.17,5.74,5.39,22.36,6.65,23,10.76-11.88,10.58-8.34,15.77-12.2,20.39l5.79-.27c-.37-13.61,11.71-15.32,12-30.69,8.92-5.12,17.26-9,23.31-16-.46-.14-2.57,2.37-6.63,4.43-9.48,7.08-13.3,7.27-16.51,9.24"/><path class="cls-7" d="M1794,555.85c-.45-.14-2.57,2.37-6.63,4.43-9.48,7.08-13.3,7.27-16.51,9.24,0-1.72,1.5-4.33.92-6,12.51-6.4,11.39-1,15.39-11.3-.5-.05-1.6,4-2.41,2.28-2.44,6.87-4.17,2.26-12.94,7.84l-.86.07c.94-6.9-4.22-4.12,5.59-11.66-.38-.22-2.09,1.37-2.48,1.16-7,5.93-3.91,3.92-4.66,10.66l-.62.06c-.37.71-1,.68-5.27-1.51-.51.34-8.68-4.27-9.19-3.93,4.17,2.14,8.36,4.27,12.68,6.27.22.54.45,1.07.66,1.61-6.94-.93-3.83-.26-10.38-2.53-.28.24,10.07,3.74-7.07-.3,7,2.41,10.48,2.66,17.69,3.74a27.35,27.35,0,0,1,.07,5.72c-6.57-2.63-8.7-2.55-8.7-2.55,2.13-.08-8.69.44-8.64.74,7.1-.27,11.85-.63,17.44,3.13a19.72,19.72,0,0,1-1.69,7.44c-6-2.83-2-.71-16.39-5.59-.62.26-7.31-3.43-7.93-3.17,5.74,5.39,22.36,6.65,23,10.76-11.88,10.58-8.33,15.77-12.19,20.39l5.78-.27c-.37-13.62,11.71-15.32,12-30.69C1779.58,566.78,1787.92,562.87,1794,555.85Z"/><path class="cls-7" d="M1755.66,562.62c-2.43,6.87-4.17,2.27-12.94,7.85l-.85.07c.93-6.91-4.22-4.12,5.59-11.66-.39-.22-2.1,1.37-2.49,1.16-7,5.93-3.91,3.92-4.66,10.65l-.61.06c-.38.72-1,.69-5.28-1.5-.5.34-8.68-4.27-9.19-3.94,4.17,2.15,8.36,4.27,12.69,6.28.21.53.45,1.07.65,1.6-6.94-.92-3.83-.25-10.38-2.52-.27.24,10.07,3.73-7.06-.3,6.95,2.4,10.47,2.65,17.68,3.74a26.68,26.68,0,0,1,.07,5.72c-6.57-2.63-8.7-2.55-8.7-2.55,2.13-.08-8.69.43-8.63.74,7.09-.27,11.84-.64,17.43,3.13a19.9,19.9,0,0,1-1.68,7.44c-6-2.83-2-.71-16.39-5.59-.63.26-7.32-3.43-7.94-3.17,5.75,5.38,22.36,6.65,23,10.76-11.88,10.58-8.33,15.77-12.19,20.38l5.79-.26c-.38-13.62,11.7-15.32,12-30.7,8.93-5.12,17.26-9,23.31-16-.45-.14-2.57,2.37-6.62,4.44-9.48,7.07-13.31,7.27-16.52,9.24"/><path class="cls-7" d="M1813.55,560.21c-.46-.14-2.57,2.37-6.63,4.43-9.48,7.07-13.3,7.27-16.51,9.24,0-1.73,1.5-4.33.91-6,12.52-6.39,11.39-1,15.4-11.29-.51-.05-1.6,4-2.41,2.27-2.44,6.87-4.18,2.27-13,7.85l-.85.07c.94-6.91-4.22-4.12,5.59-11.66-.38-.22-2.1,1.37-2.49,1.16-7,5.93-3.91,3.92-4.66,10.66l-.61.06c-.38.71-1,.68-5.27-1.51-.51.34-8.69-4.27-9.2-3.93,4.17,2.14,8.36,4.27,12.69,6.27.21.54.45,1.07.66,1.61-7-.93-3.84-.26-10.39-2.53-.27.24,10.08,3.73-7.06-.3,7,2.41,10.48,2.65,17.69,3.74a27.34,27.34,0,0,1,.06,5.72c-6.57-2.63-8.7-2.55-8.7-2.55,2.13-.08-8.68.44-8.63.74,7.1-.27,11.84-.63,17.43,3.13a19.52,19.52,0,0,1-1.68,7.44c-6-2.83-2-.71-16.39-5.59-.62.26-7.31-3.43-7.93-3.17,5.74,5.38,22.36,6.65,23,10.76-11.88,10.58-8.33,15.77-12.19,20.39l5.79-.27c-.37-13.62,11.7-15.32,12-30.7C1799.16,571.14,1807.5,567.23,1813.55,560.21Z"/><path class="cls-7" d="M1772.51,551.84c-.62.25-7.31-3.43-7.93-3.17,5.74,5.38,22.36,6.64,23,10.75-11.89,10.58-8.34,15.78-12.2,20.39l5.79-.27c-.37-13.61,11.71-15.31,12-30.69,8.92-5.12,17.26-9,23.31-16.05-.46-.14-2.57,2.37-6.63,4.43-9.48,7.08-13.3,7.27-16.51,9.24,0-1.72,1.5-4.33.92-6,12.51-6.4,11.39-1,15.39-11.29-.51-.06-1.6,4-2.41,2.27-2.44,6.87-4.18,2.26-13,7.85l-.85.06c.94-6.9-4.22-4.12,5.59-11.66-.38-.21-2.09,1.37-2.49,1.16-7,5.93-3.91,3.93-4.66,10.66l-.61.06c-.38.71-1,.69-5.27-1.5-.51.33-8.69-4.28-9.19-3.94,4.16,2.14,8.36,4.27,12.68,6.27.21.54.45,1.07.66,1.61-7-.93-3.83-.25-10.39-2.53-.27.24,10.08,3.74-7.06-.3,7,2.41,10.48,2.66,17.69,3.75a28,28,0,0,1,.07,5.71c-6.57-2.63-8.71-2.54-8.71-2.54,2.14-.09-8.68.43-8.63.74,7.1-.28,11.85-.64,17.44,3.12a19.72,19.72,0,0,1-1.69,7.44"/><path class="cls-7" d="M1831,562.18c-.46-.14-2.57,2.37-6.63,4.43-9.48,7.07-13.3,7.27-16.51,9.24,0-1.72,1.5-4.33.91-6,12.52-6.39,11.39-1,15.4-11.29-.51,0-1.6,4-2.41,2.27-2.44,6.87-4.18,2.27-13,7.85l-.85.07c.94-6.9-4.22-4.12,5.59-11.66-.39-.22-2.1,1.37-2.49,1.16-7,5.93-3.91,3.92-4.66,10.66l-.61.06c-.38.71-1,.68-5.27-1.51-.51.34-8.69-4.27-9.2-3.93,4.17,2.14,8.36,4.27,12.69,6.27.21.54.45,1.07.66,1.61-7-.93-3.84-.26-10.39-2.53-.27.24,10.08,3.74-7.06-.3,7,2.41,10.48,2.66,17.68,3.74A26.68,26.68,0,0,1,1805,578c-6.57-2.63-8.7-2.55-8.7-2.55,2.13-.08-8.68.44-8.63.74,7.1-.27,11.84-.63,17.43,3.13a19.52,19.52,0,0,1-1.68,7.44c-6-2.83-2-.71-16.39-5.59-.62.26-7.32-3.43-7.93-3.17,5.74,5.38,22.36,6.65,23,10.76-11.88,10.58-8.33,15.77-12.19,20.39l5.79-.27c-.37-13.62,11.7-15.32,12-30.7C1816.63,573.11,1825,569.2,1831,562.18Z"/><path class="cls-7" d="M1862.63,528.58c-.45-.14-2.56,2.37-6.62,4.43-9.48,7.08-13.3,7.27-16.51,9.24,0-1.72,1.5-4.33.91-6,12.52-6.4,11.39-1,15.39-11.29-.5-.06-1.59,4-2.4,2.27-2.44,6.87-4.18,2.26-13,7.84l-.85.07c.93-6.9-4.22-4.12,5.59-11.66-.39-.22-2.1,1.37-2.49,1.16-7,5.93-3.91,3.93-4.66,10.66l-.61.06c-.38.71-1,.69-5.27-1.51-.51.34-8.69-4.27-9.2-3.93,4.17,2.14,8.36,4.27,12.69,6.27.21.54.45,1.07.65,1.61-6.94-.93-3.83-.25-10.38-2.53-.27.24,10.08,3.74-7.06-.3,7,2.41,10.47,2.66,17.68,3.74a26.69,26.69,0,0,1,.07,5.72c-6.57-2.63-8.7-2.54-8.7-2.54,2.13-.09-8.68.43-8.63.73,7.1-.27,11.84-.63,17.43,3.13a19.52,19.52,0,0,1-1.68,7.44c-6-2.83-2-.7-16.39-5.58-.63.25-7.32-3.44-7.94-3.17,5.75,5.38,22.37,6.64,23,10.75-11.88,10.58-8.33,15.77-12.19,20.39l5.79-.27c-.37-13.61,11.7-15.32,12-30.69C1848.25,539.51,1856.59,535.6,1862.63,528.58Z"/><path class="cls-7" d="M1847.17,501.55c-.46-.14-2.57,2.37-6.63,4.44-9.48,7.07-13.3,7.27-16.51,9.24,0-1.73,1.5-4.34.91-6,12.52-6.39,11.39-1,15.4-11.29-.51-.06-1.6,4-2.41,2.27-2.44,6.87-4.18,2.26-13,7.85l-.85.07c.94-6.91-4.22-4.13,5.59-11.67-.38-.21-2.1,1.38-2.49,1.17-7,5.93-3.91,3.92-4.66,10.65l-.61.06c-.38.72-1,.69-5.27-1.5-.51.33-8.69-4.27-9.2-3.94,4.17,2.14,8.36,4.27,12.69,6.28.21.53.45,1.06.66,1.6-6.95-.93-3.84-.25-10.39-2.53-.27.25,10.08,3.74-7.06-.3,6.95,2.41,10.48,2.66,17.68,3.75a26.6,26.6,0,0,1,.07,5.71c-6.57-2.62-8.7-2.54-8.7-2.54,2.13-.08-8.68.43-8.63.74,7.1-.27,11.84-.64,17.43,3.12a19.44,19.44,0,0,1-1.68,7.44c-6-2.82-2-.7-16.39-5.58-.62.26-7.32-3.43-7.93-3.17,5.74,5.38,22.36,6.65,23,10.76-11.88,10.58-8.33,15.77-12.19,20.38l5.79-.26c-.37-13.62,11.7-15.32,12-30.7C1832.78,512.48,1841.12,508.57,1847.17,501.55Z"/><path class="cls-7" d="M1829,503.74c-.45-.14-2.57,2.37-6.63,4.43-9.47,7.07-13.3,7.27-16.51,9.24,0-1.72,1.5-4.33.92-6,12.51-6.39,11.39-1,15.39-11.29-.5-.05-1.6,4-2.41,2.27-2.43,6.87-4.17,2.27-12.94,7.85l-.85.07c.93-6.9-4.22-4.12,5.59-11.66-.39-.22-2.1,1.37-2.49,1.16-7,5.93-3.91,3.92-4.66,10.66l-.62.06c-.37.71-1,.68-5.27-1.51-.5.34-8.68-4.27-9.19-3.93,4.17,2.14,8.36,4.27,12.69,6.27.21.54.44,1.07.65,1.61-6.94-.93-3.83-.26-10.38-2.53-.28.24,10.07,3.73-7.06-.3,7,2.41,10.47,2.65,17.68,3.74a26.68,26.68,0,0,1,.07,5.72c-6.57-2.63-8.7-2.55-8.7-2.55,2.13-.08-8.69.44-8.64.74,7.1-.27,11.85-.63,17.44,3.13a19.9,19.9,0,0,1-1.68,7.44c-6-2.83-2-.71-16.39-5.59-.63.26-7.32-3.43-7.94-3.17,5.74,5.38,22.36,6.65,23,10.76-11.88,10.58-8.33,15.77-12.19,20.39l5.78-.27c-.37-13.62,11.71-15.32,12-30.7C1814.62,514.67,1823,510.76,1829,503.74Z"/><path class="cls-7" d="M1802.91,505.42c-.45-.14-2.56,2.38-6.62,4.44-9.48,7.07-13.3,7.27-16.52,9.24,0-1.73,1.51-4.34.92-6,12.52-6.39,11.39-1,15.39-11.29-.5-.06-1.6,4-2.41,2.27-2.43,6.87-4.17,2.27-12.94,7.85l-.85.07c.93-6.91-4.22-4.12,5.59-11.66-.39-.22-2.1,1.37-2.49,1.16-7,5.93-3.91,3.92-4.66,10.65l-.61.06c-.38.72-1,.69-5.27-1.5-.51.34-8.69-4.27-9.2-3.93,4.17,2.14,8.36,4.27,12.69,6.27.21.53.45,1.07.65,1.6-6.94-.92-3.83-.25-10.38-2.52-.27.24,10.07,3.73-7.06-.3,6.95,2.4,10.47,2.65,17.68,3.74a26.68,26.68,0,0,1,.07,5.72c-6.57-2.63-8.7-2.55-8.7-2.55,2.13-.08-8.68.43-8.63.74,7.1-.27,11.84-.64,17.43,3.13a19.52,19.52,0,0,1-1.68,7.44c-6-2.83-2-.71-16.39-5.59-.63.26-7.32-3.43-7.94-3.17,5.75,5.38,22.37,6.65,23,10.76-11.88,10.58-8.33,15.77-12.19,20.39l5.79-.27c-.37-13.62,11.7-15.32,12-30.7C1788.53,516.36,1796.87,512.44,1802.91,505.42Z"/><path class="cls-7" d="M1797.57,489.07c-.46-.14-2.57,2.37-6.63,4.43-9.48,7.08-13.3,7.27-16.51,9.24,0-1.72,1.5-4.33.91-6,12.52-6.4,11.39-1,15.4-11.3-.51-.05-1.6,4-2.41,2.28-2.44,6.86-4.18,2.26-12.95,7.84l-.85.07c.94-6.9-4.22-4.12,5.59-11.66-.38-.22-2.1,1.37-2.49,1.16-7,5.93-3.91,3.92-4.66,10.66l-.61.06c-.38.71-1,.68-5.27-1.51-.51.34-8.69-4.27-9.2-3.93,4.17,2.14,8.36,4.27,12.69,6.27.21.54.45,1.07.66,1.61-7-.93-3.84-.26-10.39-2.53-.27.24,10.08,3.74-7.06-.3,7,2.41,10.48,2.66,17.69,3.74a27.35,27.35,0,0,1,.06,5.72c-6.57-2.63-8.7-2.55-8.7-2.55,2.13-.08-8.68.44-8.63.74,7.1-.27,11.84-.63,17.43,3.13a19.52,19.52,0,0,1-1.68,7.44c-6-2.83-2-.71-16.39-5.59-.62.26-7.31-3.43-7.93-3.17,5.74,5.39,22.36,6.65,23,10.76-11.88,10.58-8.33,15.77-12.19,20.39l5.79-.27c-.37-13.62,11.7-15.32,12-30.7C1783.18,500,1791.52,496.09,1797.57,489.07Z"/><path class="cls-7" d="M1776.82,507.34c-.45-.14-2.57,2.37-6.63,4.44-9.47,7.07-13.3,7.27-16.51,9.24,0-1.73,1.5-4.34.92-6,12.51-6.39,11.39-1,15.39-11.29-.5-.06-1.6,4-2.41,2.27-2.44,6.87-4.17,2.27-12.94,7.85l-.86.07c.94-6.91-4.22-4.13,5.6-11.66-.39-.22-2.1,1.37-2.49,1.16-7,5.93-3.91,3.92-4.66,10.65l-.62.06c-.37.72-1,.69-5.27-1.5-.5.34-8.68-4.27-9.19-3.94,4.17,2.15,8.36,4.27,12.69,6.28.21.53.44,1.07.65,1.6-6.94-.93-3.83-.25-10.38-2.52-.28.24,10.07,3.73-7.07-.3,7,2.4,10.48,2.65,17.69,3.74a26.68,26.68,0,0,1,.07,5.72c-6.57-2.63-8.7-2.55-8.7-2.55,2.13-.08-8.69.43-8.64.74,7.1-.27,11.85-.64,17.44,3.13a19.9,19.9,0,0,1-1.68,7.44c-6-2.83-2-.71-16.39-5.59-.63.26-7.32-3.43-7.94-3.17,5.74,5.38,22.36,6.65,23,10.76-11.88,10.58-8.33,15.77-12.19,20.38l5.78-.26c-.37-13.62,11.71-15.32,12-30.7C1762.43,518.27,1770.77,514.36,1776.82,507.34Z"/><path class="cls-7" d="M1729.5,514.93c12.51-6.39,11.39-1,15.39-11.29-.5-.06-1.6,4-2.41,2.27-2.44,6.87-4.17,2.26-12.94,7.85l-.86.06c.94-6.9-4.22-4.12,5.59-11.66-.38-.21-2.09,1.37-2.48,1.16-7,5.94-3.91,3.93-4.66,10.66l-.62.06c-.37.71-1,.69-5.27-1.5-.51.33-8.68-4.27-9.19-3.94,4.17,2.14,8.36,4.27,12.68,6.27.22.54.45,1.07.66,1.61-6.94-.93-3.83-.25-10.38-2.53-.28.25,10.07,3.74-7.07-.3,7,2.41,10.48,2.66,17.69,3.75a27.26,27.26,0,0,1,.07,5.71c-6.57-2.62-8.7-2.54-8.7-2.54,2.13-.08-8.69.43-8.64.74,7.1-.28,11.85-.64,17.44,3.12a19.64,19.64,0,0,1-1.69,7.44c-6-2.83-2-.7-16.39-5.58-.62.25-7.31-3.43-7.93-3.17,5.74,5.38,22.36,6.65,23,10.75-11.88,10.59-8.33,15.78-12.19,20.39l5.78-.27c-.37-13.61,11.71-15.31,12-30.69,8.92-5.12,17.26-9,23.31-16-.45-.14-2.57,2.37-6.63,4.43-9.48,7.08-13.3,7.27-16.51,9.24"/><path class="cls-7" d="M1810.53,514.6c-.45-.14-2.57,2.37-6.63,4.43-9.47,7.08-13.3,7.27-16.51,9.24,0-1.72,1.5-4.33.92-6,12.51-6.39,11.39-1,15.39-11.29-.5-.06-1.6,4-2.41,2.27-2.43,6.87-4.17,2.26-12.94,7.85l-.85.06c.93-6.9-4.22-4.12,5.59-11.66-.39-.21-2.1,1.37-2.49,1.16-7,5.94-3.91,3.93-4.66,10.66l-.62.06c-.37.71-1,.69-5.27-1.5-.5.33-8.68-4.27-9.19-3.94,4.17,2.14,8.36,4.27,12.69,6.27.21.54.45,1.07.65,1.61-6.94-.93-3.83-.25-10.38-2.53-.28.25,10.07,3.74-7.06-.3,7,2.41,10.47,2.66,17.68,3.75a26.6,26.6,0,0,1,.07,5.71c-6.57-2.63-8.7-2.54-8.7-2.54,2.13-.09-8.69.43-8.63.74,7.09-.28,11.84-.64,17.43,3.12a19.9,19.9,0,0,1-1.68,7.44c-6-2.83-2-.7-16.39-5.58-.63.25-7.32-3.43-7.94-3.17,5.74,5.38,22.36,6.64,23,10.75-11.88,10.59-8.33,15.78-12.19,20.39l5.79-.27c-.38-13.61,11.7-15.31,12-30.69C1796.14,525.53,1804.48,521.62,1810.53,514.6Z"/><path class="cls-7" d="M1772.23,521.38c-2.44,6.87-4.18,2.26-13,7.84l-.85.07c.94-6.9-4.22-4.12,5.59-11.66-.39-.22-2.1,1.37-2.49,1.16-7,5.93-3.91,3.92-4.66,10.66l-.61.06c-.38.71-1,.68-5.27-1.51-.51.34-8.69-4.27-9.2-3.93,4.17,2.14,8.36,4.27,12.69,6.27.21.54.45,1.07.65,1.61-6.94-.93-3.83-.26-10.38-2.53-.27.24,10.08,3.74-7.06-.3,7,2.41,10.47,2.66,17.68,3.74a26.69,26.69,0,0,1,.07,5.72c-6.57-2.63-8.7-2.54-8.7-2.54,2.13-.09-8.68.43-8.63.73,7.1-.27,11.84-.63,17.43,3.13a19.52,19.52,0,0,1-1.68,7.44c-6-2.83-2-.71-16.39-5.59-.62.26-7.32-3.43-7.94-3.17,5.75,5.39,22.37,6.65,23,10.76-11.88,10.58-8.33,15.77-12.19,20.39l5.79-.27c-.37-13.61,11.7-15.32,12-30.69,8.93-5.12,17.27-9,23.31-16-.45-.14-2.56,2.37-6.62,4.43-9.48,7.08-13.3,7.27-16.51,9.24"/><path class="cls-7" d="M1830.11,519c-.45-.14-2.57,2.37-6.63,4.43-9.48,7.08-13.3,7.27-16.51,9.24,0-1.72,1.5-4.33.92-6,12.51-6.4,11.39-1,15.39-11.29-.51-.06-1.6,4-2.41,2.27-2.44,6.87-4.18,2.26-12.95,7.84l-.85.07c.94-6.9-4.22-4.12,5.59-11.66-.38-.21-2.09,1.37-2.48,1.16-7,5.93-3.92,3.93-4.67,10.66l-.61.06c-.37.71-1,.69-5.27-1.51-.51.34-8.69-4.27-9.19-3.93,4.17,2.14,8.36,4.27,12.68,6.27.22.54.45,1.07.66,1.61-6.94-.93-3.83-.25-10.39-2.53-.27.24,10.08,3.74-7.06-.3,7,2.41,10.48,2.66,17.69,3.74a27.35,27.35,0,0,1,.07,5.72c-6.57-2.63-8.7-2.54-8.7-2.54,2.13-.09-8.69.43-8.64.73,7.1-.27,11.85-.63,17.44,3.13a19.72,19.72,0,0,1-1.69,7.44c-6-2.83-2-.7-16.39-5.58-.62.25-7.31-3.44-7.93-3.17,5.74,5.38,22.36,6.64,23,10.75-11.88,10.58-8.33,15.78-12.2,20.39l5.79-.27c-.37-13.61,11.71-15.32,12-30.69C1815.72,529.89,1824.06,526,1830.11,519Z"/><path class="cls-7" d="M1789.07,510.59c-.62.26-7.31-3.43-7.93-3.17,5.74,5.38,22.36,6.65,23,10.76-11.88,10.58-8.33,15.77-12.19,20.38l5.78-.26c-.37-13.62,11.71-15.32,12-30.7,8.92-5.12,17.26-9,23.31-16.05-.45-.14-2.57,2.37-6.63,4.44-9.48,7.07-13.3,7.27-16.51,9.24,0-1.73,1.5-4.34.92-6,12.51-6.39,11.39-1,15.39-11.29-.5-.06-1.6,4-2.41,2.27-2.44,6.87-4.18,2.27-12.95,7.85l-.85.07c.94-6.91-4.22-4.13,5.59-11.66-.38-.22-2.09,1.37-2.48,1.16-7,5.93-3.91,3.92-4.66,10.65l-.62.06c-.37.72-1,.69-5.27-1.5-.51.34-8.69-4.27-9.19-3.94,4.17,2.15,8.36,4.27,12.68,6.28.22.53.45,1.07.66,1.6-6.94-.93-3.83-.25-10.38-2.52-.28.24,10.07,3.73-7.07-.3,7,2.4,10.48,2.65,17.69,3.74a27.35,27.35,0,0,1,.07,5.72c-6.57-2.63-8.7-2.55-8.7-2.55,2.13-.08-8.69.43-8.64.74,7.1-.27,11.85-.64,17.44,3.13a19.72,19.72,0,0,1-1.69,7.44"/><path class="cls-7" d="M1847.58,520.93c-.46-.14-2.57,2.37-6.63,4.43-9.48,7.08-13.3,7.27-16.51,9.24,0-1.72,1.5-4.33.92-6,12.51-6.4,11.39-1,15.39-11.29-.51-.06-1.6,4-2.41,2.27-2.44,6.87-4.18,2.26-12.95,7.85l-.85.06c.94-6.9-4.22-4.12,5.59-11.66-.38-.21-2.09,1.37-2.49,1.16-7,5.93-3.91,3.93-4.66,10.66l-.61.06c-.38.71-1,.69-5.27-1.5-.51.33-8.69-4.28-9.19-3.94,4.16,2.14,8.36,4.27,12.68,6.27.21.54.45,1.07.66,1.61-7-.93-3.83-.25-10.39-2.53-.27.24,10.08,3.74-7.06-.3,7,2.41,10.48,2.66,17.69,3.75a28,28,0,0,1,.07,5.71c-6.57-2.63-8.71-2.54-8.71-2.54,2.14-.09-8.68.43-8.63.74,7.1-.28,11.85-.64,17.44,3.12a19.72,19.72,0,0,1-1.69,7.44c-6-2.83-2-.7-16.39-5.58-.62.25-7.31-3.44-7.93-3.17,5.74,5.38,22.36,6.64,23,10.75-11.89,10.58-8.34,15.78-12.2,20.39l5.79-.27c-.37-13.61,11.71-15.31,12-30.69C1833.19,531.86,1841.53,528,1847.58,520.93Z"/><path class="cls-7" d="M1879.2,487.33c-.46-.14-2.57,2.37-6.63,4.43-9.48,7.08-13.3,7.27-16.51,9.25,0-1.73,1.5-4.34.91-6,12.52-6.39,11.39-1,15.4-11.29-.51-.06-1.6,4-2.41,2.27-2.44,6.87-4.18,2.26-13,7.85l-.85.07c.94-6.91-4.22-4.13,5.59-11.67-.38-.21-2.1,1.38-2.49,1.16-7,5.94-3.91,3.93-4.66,10.66l-.61.06c-.38.71-1,.69-5.27-1.5-.51.33-8.69-4.27-9.2-3.94,4.17,2.14,8.36,4.27,12.69,6.27.21.54.45,1.07.66,1.61-6.95-.93-3.84-.25-10.39-2.53-.27.25,10.08,3.74-7.06-.3,6.95,2.41,10.48,2.66,17.69,3.75a27.26,27.26,0,0,1,.06,5.71c-6.57-2.62-8.7-2.54-8.7-2.54,2.13-.08-8.68.43-8.63.74,7.1-.27,11.84-.64,17.43,3.12a19.44,19.44,0,0,1-1.68,7.44c-6-2.83-2-.7-16.39-5.58-.62.26-7.31-3.43-7.93-3.17,5.74,5.38,22.36,6.65,23,10.75-11.88,10.59-8.33,15.78-12.19,20.39l5.79-.26c-.37-13.62,11.7-15.32,12-30.7C1864.81,498.26,1873.15,494.35,1879.2,487.33Z"/><path class="cls-8" d="M1683.2,650.77c-.27-.06-1.54,1.07-4,2-5.64,3.21-7.91,3.31-9.82,4.21,0-.78.9-2,.56-2.71,7.44-2.91,6.76-.49,9.17-5.13-.3,0-1,1.8-1.44,1-1.47,3.1-2.49,1-7.7,3.58l-.51,0c.58-3.11-2.49-1.84,3.35-5.27-.23-.1-1.25.62-1.48.53-4.15,2.69-2.33,1.78-2.79,4.81l-.37,0c-.22.33-.6.32-3.12-.66-.3.15-5.14-1.9-5.44-1.74,2.46,1,4.94,1.9,7.5,2.78.13.25.27.48.39.73-4.12-.4-2.27-.11-6.15-1.11-.17.11,6,1.65-4.19-.11a61.83,61.83,0,0,0,10.48,1.63,9.22,9.22,0,0,1,0,2.57,20.28,20.28,0,0,0-5.15-1.12c1.26,0-5.16.23-5.13.36,4.21-.14,7-.32,10.34,1.36a7.27,7.27,0,0,1-1,3.36c-3.56-1.26-1.21-.32-9.71-2.47-.37.12-4.33-1.52-4.7-1.41,3.39,2.41,13.25,2.93,13.64,4.78-7.08,4.81-5,7.13-7.3,9.22l3.44-.13c-.18-6.14,7-6.94,7.2-13.87C1674.63,655.74,1679.59,654,1683.2,650.77Z"/><path class="cls-8" d="M1683.32,656.49c-.26-.08-1.45,1.34-3.73,2.5-5.34,4-7.49,4.09-9.3,5.2,0-1,.85-2.44.52-3.38,7-3.59,6.41-.58,8.66-6.35-.28,0-.9,2.24-1.35,1.28-1.38,3.86-2.35,1.27-7.29,4.41l-.48,0c.53-3.88-2.38-2.32,3.15-6.56-.22-.12-1.18.77-1.4.65-3.93,3.34-2.21,2.21-2.63,6l-.34,0c-.21.41-.57.39-3-.84-.29.19-4.89-2.41-5.18-2.22,2.35,1.21,4.71,2.41,7.15,3.53.12.31.25.6.36.91-3.9-.53-2.15-.14-5.84-1.43-.15.14,5.67,2.11-4-.16,3.92,1.35,5.9,1.49,10,2.1a15.07,15.07,0,0,1,0,3.22c-3.7-1.48-4.9-1.43-4.9-1.43,1.2,0-4.89.24-4.86.41,4-.15,6.67-.35,9.81,1.76a10.9,10.9,0,0,1-.94,4.19c-3.38-1.59-1.15-.39-9.23-3.14-.35.14-4.12-1.93-4.47-1.79,3.24,3,12.59,3.75,13,6.06-6.69,6-4.69,8.88-6.86,11.48l3.26-.15c-.21-7.67,6.59-8.63,6.74-17.28C1675.22,662.65,1679.91,660.44,1683.32,656.49Z"/><path class="cls-8" d="M1661,646.81c.26-.08,1.45,1.34,3.73,2.5,5.34,4,7.49,4.09,9.3,5.2,0-1-.85-2.44-.52-3.37-7-3.6-6.41-.59-8.67-6.36.29,0,.91,2.24,1.36,1.28,1.37,3.86,2.35,1.27,7.29,4.42l.48,0c-.53-3.88,2.37-2.32-3.15-6.56.22-.12,1.18.77,1.4.65,3.93,3.34,2.2,2.21,2.63,6l.34,0c.21.4.57.38,3-.85.28.19,4.89-2.41,5.17-2.22-2.34,1.21-4.7,2.41-7.14,3.53-.12.31-.25.61-.37.91,3.91-.52,2.16-.14,5.85-1.42.15.13-5.67,2.1,4-.17-3.91,1.35-5.89,1.49-10,2.1a15.08,15.08,0,0,0,0,3.22c3.7-1.48,4.9-1.43,4.9-1.43-1.2,0,4.89.24,4.86.42-4-.16-6.67-.36-9.82,1.76a11.1,11.1,0,0,0,.95,4.18c3.38-1.59,1.15-.39,9.23-3.14.35.14,4.11-1.93,4.46-1.79-3.23,3-12.58,3.75-13,6.06,6.69,6,4.69,8.88,6.87,11.48l-3.26-.15c.21-7.67-6.59-8.63-6.75-17.28C1669.14,653,1664.45,650.76,1661,646.81Z"/><path class="cls-9" d="M-161.76,386.62,96.13,206.17l82.79,166.15,42.87,70.2s70.39,150.89,96.61,172.29c0,0,101.36,159,91.79,186.37L198.76,894-71.79,849.42S-166.07,494.3-161.61,483.6-161.76,386.62-161.76,386.62Z"/><path class="cls-10" d="M-201.29,382.92,96.13,206.17l43.26,162.45,42.88,70.21S205.1,732.58,231.33,754c0,0,77.26,73.64,67.69,101L159.24,890.3l-270.56-44.58S-205.59,490.6-201.13,479.9-201.29,382.92-201.29,382.92Z"/><path class="cls-11" d="M-299.44,240.71l21.95-80.92L-23.18,320.94l99.31,62.68s64.33,226,112.71,238.54c0,0-34.16,103.9-31.61,141.5l146.3,172.27-398,81.72S-428,639.34-428,624.3-299.44,240.71-299.44,240.71Z"/><path class="cls-12" d="M-401,252.55l123.49-92.76,152.78,173,99.31,62.68S66.27,611.07,114.65,623.61c0,0-2.55,117.83,0,155.44L202,947.77l-398,81.72S-529.58,651.18-529.58,636.14-401,252.55-401,252.55Z"/><path class="cls-13" d="M2192.32,159.37,2082.83,79,1940.75,289.49,1766.37,425.1s-34.28,108.54-80.77,141.18c0,0-83.14,248.68-72.42,280.14l187.51,41.46,363.14-34.22s66-465.36,60.6-477.47S2192.32,159.37,2192.32,159.37Z"/><path class="cls-11" d="M2192.32,159.37,2082.83,79l-99.29,210.48-82.27,96.74S1881.52,602.54,1835,635.18c0,0-189.78,179.78-179.07,211.24l187.52,41.46,363.14-34.22s66-465.36,60.59-477.47S2192.32,159.37,2192.32,159.37Z"/><path class="cls-14" d="M1860.67,365.12c-.68-.14-1.37-.26-2.05-.36.35-4.48-6-9.19-15.56-11.17a43.05,43.05,0,0,0-11.89-.76,17.68,17.68,0,0,0-7.27-3.17c-9-1.85-19.15,1.73-22.66,8a8.6,8.6,0,0,0-1.06,5.74c-6.9-.58-13.53,1.59-15.65,5.38-2.43,4.35,2,9.19,9.89,10.81,6.81,1.4,14-.06,17.38-3.28-1.21,6.54-1.37,9.83,7.06,13,.12,1.38.51,2.82,0,4.35-4.71,1.12-6.23-.18-7.94-3.3h0a2.6,2.6,0,0,0-1,2.71c1.29,3.38,1.64,4.42,7.75,3.69-4.56,11.7-3.89,20.37-1.89,30.49.44,2.21,1.84,2,4.23,1.39l.21-.14c1-.63,3.71-2.26,3.24-4.39-2.12-9.6-2.34-16.15,1.11-27.23a34.8,34.8,0,0,0,7.28-1.26.85.85,0,0,0,.63-.64v0c.17-1.3-1-2.09-2.43-1.7a26.59,26.59,0,0,1-4.61.87c1.45-2.87.78-4.23.83-6.8,4.21-3,9-5.38,13.78-8a26.71,26.71,0,0,0,10.32,4.23c10.36,2.12,21.07-.28,23.92-5.37S1871,367.25,1860.67,365.12Zm-33.42,16.43c0-1.83.35-1.94-1.83-2.07,0,0-.43-1.06-1.36-.92s-4.24,1.37-4.21,3.59c0,.77-.4,2-.44,2.78-6.28-2.48-4.1-6.46-2.69-12.09a25.06,25.06,0,0,0,10.78-2.68,40.47,40.47,0,0,0,5.45,1.53c1.06.21,2.12.39,3.18.53a5.68,5.68,0,0,0,.95,4.09C1833.91,378,1830.73,379.53,1827.25,381.55Z"/><path class="cls-14" d="M1892.23,369.7c-.68-.14-1.37-.26-2-.36.35-4.48-6-9.19-15.56-11.17a43.05,43.05,0,0,0-11.89-.76,17.68,17.68,0,0,0-7.27-3.17c-9-1.85-19.15,1.73-22.66,8a8.6,8.6,0,0,0-1.06,5.74c-6.9-.58-13.53,1.59-15.65,5.38-2.43,4.35,2,9.19,9.89,10.81,6.81,1.4,14-.06,17.38-3.28-1.21,6.54-1.37,9.83,7.06,13,.12,1.38.51,2.82,0,4.35-4.71,1.12-6.23-.18-7.94-3.3h0a2.6,2.6,0,0,0-1,2.71c1.29,3.38,1.64,4.42,7.75,3.69-4.56,11.7-3.89,20.37-1.89,30.49.44,2.21,1.84,2,4.23,1.39l.21-.14c1-.63,3.71-2.26,3.24-4.39-2.12-9.6-2.34-16.15,1.11-27.23a35.4,35.4,0,0,0,7.28-1.25.88.88,0,0,0,.63-.65v0c.17-1.3-1-2.09-2.43-1.7a26.59,26.59,0,0,1-4.61.87c1.45-2.87.78-4.23.83-6.8,4.21-3.05,9-5.38,13.78-8a26.71,26.71,0,0,0,10.32,4.23c10.36,2.12,21.07-.28,23.92-5.37S1902.6,371.83,1892.23,369.7Zm-33.42,16.43c0-1.83.35-1.94-1.83-2.07,0,0-.43-1.06-1.36-.92s-4.24,1.37-4.21,3.59c0,.77-.4,1.95-.44,2.78-6.28-2.48-4.1-6.46-2.69-12.09a24.92,24.92,0,0,0,10.78-2.68,40.47,40.47,0,0,0,5.45,1.53c1.06.21,2.12.39,3.18.53a5.68,5.68,0,0,0,1,4.09C1865.47,382.54,1862.29,384.11,1858.81,386.13Z"/><path class="cls-14" d="M1945.45,376c-.68-.14-1.37-.26-2-.37.35-4.48-6-9.19-15.56-11.16a42.72,42.72,0,0,0-11.89-.76,17.42,17.42,0,0,0-7.27-3.17c-9-1.85-19.16,1.73-22.66,8a8.46,8.46,0,0,0-1.06,5.74c-6.9-.59-13.54,1.58-15.66,5.38-2.43,4.35,2,9.19,9.9,10.81,6.81,1.4,14-.06,17.37-3.29-1.2,6.55-1.36,9.83,7.07,13,.11,1.38.5,2.82,0,4.34-4.71,1.13-6.23-.17-8-3.3l0,0a2.57,2.57,0,0,0-1,2.7c1.29,3.39,1.64,4.43,7.74,3.69-4.55,11.7-3.88,20.38-1.88,30.5.44,2.21,1.83,2,4.22,1.39l.22-.14c1-.63,3.7-2.27,3.24-4.39-2.12-9.6-2.34-16.16,1.1-27.24a34.19,34.19,0,0,0,7.29-1.25.84.84,0,0,0,.62-.64v0c.17-1.3-1-2.09-2.43-1.7a26.57,26.57,0,0,1-4.61.86c1.44-2.86.78-4.23.83-6.79,4.21-3.05,9-5.38,13.77-8a26.84,26.84,0,0,0,10.32,4.22c10.37,2.13,21.08-.27,23.92-5.37S1955.81,378.08,1945.45,376ZM1912,392.39c0-1.83.35-1.95-1.83-2.07,0,0-.43-1.06-1.36-.93s-4.24,1.38-4.21,3.6c0,.76-.41,1.94-.44,2.78-6.28-2.48-4.1-6.47-2.69-12.09a24.93,24.93,0,0,0,10.78-2.69,37.72,37.72,0,0,0,5.45,1.53c1.06.22,2.12.4,3.17.53a5.72,5.72,0,0,0,1,4.09C1918.69,388.8,1915.5,390.36,1912,392.39Z"/><path class="cls-14" d="M1970.49,374.77c-.68-.14-1.37-.26-2-.36.36-4.48-6-9.19-15.56-11.16a42.69,42.69,0,0,0-11.89-.77,17.68,17.68,0,0,0-7.27-3.17c-9-1.85-19.15,1.74-22.65,8a8.55,8.55,0,0,0-1.07,5.74c-6.9-.58-13.53,1.59-15.65,5.38-2.43,4.35,2,9.19,9.89,10.81,6.81,1.4,14-.06,17.38-3.28-1.21,6.54-1.37,9.83,7.06,13,.12,1.39.51,2.82,0,4.35-4.71,1.13-6.22-.18-7.94-3.3h0a2.6,2.6,0,0,0-1,2.71c1.29,3.38,1.64,4.43,7.75,3.69-4.56,11.7-3.89,20.38-1.88,30.49.43,2.21,1.83,2,4.22,1.4l.22-.14c1-.64,3.7-2.27,3.23-4.4-2.12-9.6-2.34-16.15,1.11-27.23a34.1,34.1,0,0,0,7.28-1.25.88.88,0,0,0,.63-.65v0c.17-1.3-1-2.09-2.43-1.7a25.68,25.68,0,0,1-4.61.87c1.45-2.87.79-4.23.83-6.8,4.21-3,9-5.38,13.78-8a26.56,26.56,0,0,0,10.32,4.23c10.36,2.13,21.07-.28,23.92-5.37S1980.86,376.9,1970.49,374.77Zm-33.42,16.43c0-1.83.35-1.94-1.83-2.07,0,0-.43-1.06-1.36-.92s-4.24,1.38-4.21,3.59c0,.77-.4,1.95-.44,2.78-6.28-2.48-4.1-6.46-2.69-12.09a24.92,24.92,0,0,0,10.78-2.68,39,39,0,0,0,5.45,1.53c1.06.22,2.12.39,3.18.53a5.68,5.68,0,0,0,1,4.09C1943.73,387.61,1940.55,389.18,1937.07,391.2Z"/><path class="cls-14" d="M1932.69,379.35c-.68-.14-1.36-.26-2-.36.36-4.48-6-9.19-15.56-11.16a42.69,42.69,0,0,0-11.89-.77,17.56,17.56,0,0,0-7.27-3.17c-9-1.85-19.15,1.74-22.65,8a8.51,8.51,0,0,0-1.07,5.73c-6.9-.58-13.53,1.59-15.65,5.38-2.43,4.35,2,9.19,9.89,10.81,6.82,1.4,14-.06,17.38-3.28-1.2,6.54-1.37,9.83,7.06,13,.12,1.39.51,2.82,0,4.35-4.72,1.13-6.23-.18-8-3.3h0a2.57,2.57,0,0,0-1,2.71c1.28,3.38,1.63,4.43,7.74,3.69-4.56,11.7-3.89,20.38-1.88,30.49.44,2.21,1.83,2,4.22,1.4l.22-.14c1-.64,3.7-2.27,3.23-4.39-2.11-9.61-2.34-16.16,1.11-27.24a34.19,34.19,0,0,0,7.29-1.25.88.88,0,0,0,.62-.65v0c.18-1.3-1-2.09-2.42-1.7a26,26,0,0,1-4.61.87c1.44-2.87.78-4.23.82-6.8,4.22-3,9-5.38,13.78-8a26.56,26.56,0,0,0,10.32,4.23c10.37,2.13,21.07-.28,23.92-5.37S1943.06,381.48,1932.69,379.35Zm-33.42,16.43c0-1.83.36-1.94-1.82-2.07,0,0-.44-1.06-1.37-.92s-4.24,1.38-4.21,3.59c0,.77-.4,1.95-.44,2.78-6.27-2.48-4.09-6.46-2.69-12.08a25,25,0,0,0,10.78-2.69,37.51,37.51,0,0,0,5.46,1.53c1.06.22,2.12.39,3.17.53a5.73,5.73,0,0,0,.95,4.09C1905.93,392.19,1902.75,393.76,1899.27,395.78Z"/><path class="cls-15" d="M-296.66,661.62S161.5,653,193.65,644.46l29.74-5.39s-24.69,120.45-4.6,146.19L346.21,988.09l-66.62,101.44s-592.33-253.43-600.37-262,4-143.22,4-143.22Z"/><path class="cls-16" d="M-399.61,674.77S58.55,666.19,90.7,657.61l100.48-11.44S143,780.61,163,806.35l116.55,283.18L-30.47,1158.9S-415.69,849.26-423.73,840.68s4-143.22,4-143.22Z"/><polygon class="cls-17" points="-56.16 630.95 -74.02 644.24 -107.56 634.71 -142.68 660.85 -193.13 670.67 -150.44 719.75 -149.86 765.57 -103.29 722.71 -83.11 744.71 -69.1 700.19 -31.72 740.95 -12.19 678.89 26.57 654.45 -56.16 630.95"/><polygon class="cls-17" points="104.35 624.76 78.66 632.85 30.41 627.05 -20.13 642.96 -92.71 648.93 -31.29 678.81 -30.46 706.69 36.55 680.61 65.58 693.99 85.74 666.9 139.52 691.71 167.62 653.94 223.39 639.07 104.35 624.76"/><path class="cls-16" d="M1664.33,445.6s458.76-14.08,491-28.16l42.11,2.35s10.2,199.45,30.32,241.69l-58.33,481.05-226.66-46.93s-191.24-319.71-199.29-333.79-20.32-170.72-20.32-170.72Z"/><path class="cls-18" d="M1739.29,442s414.38-13.46,443.46-26.93l38,2.25s9.22,190.77,27.39,231.17l-52.69,460.1-118.32-58.36s-258.57-319.42-265.84-332.89-18.93-136.19-18.93-136.19Z"/><polygon class="cls-17" points="1782.51 398.58 1764.65 411.87 1731.11 402.35 1695.99 428.48 1645.54 438.3 1688.23 487.39 1688.81 533.21 1735.38 490.35 1755.56 512.34 1769.57 467.83 1806.95 508.58 1826.48 446.53 1865.24 422.09 1782.51 398.58"/><polygon class="cls-17" points="1940.27 398.58 1922.41 411.87 1888.88 402.35 1853.75 428.48 1803.3 438.3 1846 487.39 1846.57 533.21 1893.14 490.35 1913.32 512.34 1927.33 467.83 1964.72 508.58 1984.25 446.53 2023.01 422.09 1940.27 398.58"/><polygon class="cls-17" points="2100.79 392.4 2075.09 400.49 2026.84 394.69 1976.31 410.6 1903.72 416.57 1965.15 446.45 1965.97 474.33 2032.98 448.24 2062.01 461.63 2082.17 434.54 2135.95 459.34 2164.06 421.58 2219.82 406.7 2100.79 392.4"/><path class="cls-19" d="M5,644.06c0-11.45-1.39.37-21.5.37S-35,643.69-35,655.14c0,3.22-12.1,13.57-8.24,13.42,4.8-.18,23.36-13.47,12,2.66-2.85,4.07,11.45-2.33,15.46-2.67,2.32-.2-.65-4.34.68-4.75,5.22-1.61,4.86,1.66,9.22-.9,6.4-3.75-1.87-5.18.34-9.64C-2.36,647,5,648.15,5,644.06Z"/><path class="cls-19" d="M114.84,670.37c.43,11.44,1.38-.42,21.47-1.18s18.46,0,18-11.39c-.12-3.22,11.58-14,7.73-13.73-4.79.37-22.83,14.34-12.13-2.21,2.69-4.17-11.36,2.77-15.35,3.26-2.31.28.81,4.31-.5,4.77-5.16,1.81-4.92-1.47-9.18,1.25-6.25,4,2.06,5.1,0,9.65C122.06,667.21,114.69,666.28,114.84,670.37Z"/><path class="cls-19" d="M2102.57,417.44c0-18-77.16,12.52-187.07,12.52s-199,14.56-199,32.53c0,5.05,34.07,2.7,53.07,5.34,17,2.36,26.12-11.73,49.12-10.9,26.93,1,31.61,25.83,53.54,25.29,12.66-.3,44.14-21.22,51.4-21.87,28.56-2.52,26.57,2.61,50.43-1.41,35-5.89,101.72-20.23,113.78-27.24C2104.88,421.81,2102.57,423.86,2102.57,417.44Z"/><path class="cls-14" d="M1822.87,369.7c-.68-.14-1.36-.26-2-.36.36-4.48-6-9.19-15.56-11.17a43.05,43.05,0,0,0-11.89-.76,17.56,17.56,0,0,0-7.27-3.17c-9-1.85-19.15,1.73-22.65,8a8.55,8.55,0,0,0-1.07,5.74c-6.9-.58-13.53,1.59-15.65,5.38-2.43,4.35,2,9.19,9.89,10.81,6.82,1.4,14-.06,17.38-3.28-1.21,6.54-1.37,9.83,7.06,13a11,11,0,0,1,0,4.35c-4.72,1.12-6.23-.18-7.95-3.3h0a2.57,2.57,0,0,0-1,2.71c1.28,3.38,1.63,4.42,7.74,3.69-4.56,11.7-3.89,20.37-1.88,30.49.44,2.21,1.83,2,4.22,1.39,0,0-.64.42.22-.14s3.7-2.26,3.23-4.39c-2.11-9.6-2.34-16.15,1.11-27.23a35.61,35.61,0,0,0,7.29-1.25.88.88,0,0,0,.62-.65v0c.18-1.3-1-2.09-2.43-1.7a26.59,26.59,0,0,1-4.61.87c1.45-2.87.79-4.23.83-6.8,4.21-3.05,9-5.38,13.78-8a26.71,26.71,0,0,0,10.32,4.23c10.36,2.12,21.07-.28,23.92-5.37S1833.24,371.83,1822.87,369.7Zm-33.42,16.43c0-1.83.36-1.94-1.82-2.07,0,0-.44-1.06-1.37-.92s-4.24,1.37-4.21,3.59c0,.77-.4,1.95-.44,2.78-6.27-2.48-4.09-6.46-2.69-12.09a24.85,24.85,0,0,0,10.78-2.68,40.21,40.21,0,0,0,5.46,1.53c1.06.21,2.12.39,3.17.53a5.73,5.73,0,0,0,1,4.09C1796.11,382.54,1792.93,384.11,1789.45,386.13Z"/><path class="cls-20" d="M1905.83,372.43c-9.18,6.53-16.73,9.36-25.89,14.69,0-2.31.45-2.46-2.32-2.62,0,0-.55-1.34-1.72-1.17-1.33.19-5.37,1.74-5.34,4.55,0,1-.51,2.46-.55,3.52-9-3.54-4.32-9.5-2.8-18.11l-5.62.23c-2,13.19-5.59,18.41,7.72,23.44a19.75,19.75,0,0,1,.24,4.51c-3.55,9.51,1,13.37-2.81,16.08a3.41,3.41,0,0,0-1.57,3.72c1.92,7.53-1.35,15.67.25,23.75.55,2.8,2.32,2.48,5.35,1.77,0,0-.81.52.27-.18,1.23-.8,6.84.16,6.25-2.53-2.36-10.69-4.52-20.75-2-32.57-1.44-3.32-1.6-8,3.15-10.32.77-2.45.25-4.1.3-6.74,8.89-6.43,19.72-10.34,29.52-17.64A38.55,38.55,0,0,0,1905.83,372.43Z"/><ellipse class="cls-21" cx="1893.56" cy="363.17" rx="12.32" ry="26.24" transform="translate(1325.47 2205.66) rotate(-83.72)"/><ellipse class="cls-22" cx="1845.65" cy="375.71" rx="10.62" ry="18.95" transform="translate(1382.86 2201.47) rotate(-87.28)"/><ellipse class="cls-23" cx="1915.74" cy="377.99" rx="12.52" ry="24.72" transform="translate(1370.8 2253.09) rotate(-84.96)"/><ellipse class="cls-24" cx="1869.38" cy="362.15" rx="22.23" ry="14.89" transform="translate(-27.31 193.94) rotate(-5.9)"/><path class="cls-20" d="M1842.38,361c-4.35,7.86-8.39,15.59-11.17,23.71-.94-1.44-1.24-3.3-4.2-3-.94,0-.82-2.14-2.73-1s-2.48,4.52-.71,6.64c.61.74,1.68,3.18,2.49,4.13-13.26-4.64-13.77-14-16.76-22.34-1.64.6-3.18,1.26-4.73,1.94,4.29,11,5.75,21.19,24.69,25.91.71.74,2.19,2.72,2,3.36-1.38,4-3,8.23-9.88,9.25a19.68,19.68,0,0,0-5.81,1.38c-14.36,5.67-20.07,7.67-18.16,18.71.67,3.83,1.41,2,5,2.36-.25-.2-.51.44.52-.37s7.28.93,5.78-2.25c-5.94-12.65,10.91-13.3,25.36-21.72a13.82,13.82,0,0,1,5.79-7.89,10.87,10.87,0,0,0-2.65-5.93,88.86,88.86,0,0,1,9.59-27.27C1845.37,364.71,1844,362.81,1842.38,361Z"/><path class="cls-21" d="M1799,357.65c-7.47-4.79,5.17-13.7,17.72-15.54s34.32,4.25,34.8,13.81-13.66,10.66-23.82,9.36S1806.45,362.44,1799,357.65Z"/><path class="cls-22" d="M1773,377.77c.61-6.47,7.83-9,18.48-10.72s18.21,3.77,18.79,10.79-8.63,10.91-19.26,10.53S1772.39,384.23,1773,377.77Z"/><path class="cls-23" d="M1830.61,362.42c.81,8.58,9.61,17.14,22.23,18.33s22.22-1.92,24-9.52-11.65-14-23.57-17.24S1829.8,353.84,1830.61,362.42Z"/><path class="cls-24" d="M1783.81,363c5.32,5.78,8.72,11.07,23,11.54s18.92-15.79,17.28-20.5-23.75-6.84-31.61-5.4S1778.49,357.25,1783.81,363Z"/><path class="cls-20" d="M1714.53,387.67c9.18,6.53,16.72,9.35,25.89,14.69,0-2.32-.45-2.46,2.31-2.62,0,0,.55-1.34,1.73-1.17s5.37,1.74,5.33,4.55c0,1,.51,2.46.56,3.52,9-3.54,4.32-9.5,2.8-18.12l5.62.24c2,13.19,5.59,18.41-7.73,23.44a20.31,20.31,0,0,0-.23,4.51c3.55,9.51-1,13.37,2.81,16.08a3.41,3.41,0,0,1,1.57,3.72c-1.92,7.52,1.35,15.66-.25,23.75-.56,2.8-2.32,2.48-5.35,1.77,0,0,.81.52-.27-.18s-6.84.16-6.25-2.53c2.36-10.69,4.52-20.75,2-32.57,1.43-3.32,1.59-8-3.15-10.32-.77-2.46-.25-4.1-.3-6.74-8.9-6.43-19.72-10.34-29.52-17.64A38.55,38.55,0,0,1,1714.53,387.67Z"/><ellipse class="cls-21" cx="1726.8" cy="378.41" rx="26.24" ry="12.32" transform="translate(-31.03 191.13) rotate(-6.28)"/><ellipse class="cls-22" cx="1774.71" cy="390.95" rx="18.95" ry="10.62" transform="translate(-16.54 84.58) rotate(-2.72)"/><ellipse class="cls-23" cx="1704.62" cy="393.23" rx="24.72" ry="12.52" transform="translate(-27.97 151.37) rotate(-5.04)"/><ellipse class="cls-24" cx="1750.98" cy="377.39" rx="14.89" ry="22.23" transform="translate(1195.72 2080.34) rotate(-84.1)"/><path class="cls-20" d="M1778,376.24c4.35,7.86,8.38,15.59,11.16,23.71.94-1.44,1.25-3.3,4.21-3.05.93,0,.82-2.14,2.72-1s2.48,4.53.72,6.65c-.61.74-1.68,3.18-2.49,4.13,13.26-4.64,13.77-14,16.76-22.34,1.63.6,3.17,1.26,4.73,1.94-4.29,11-5.75,21.19-24.69,25.91-.71.74-2.19,2.72-2,3.36,1.38,4,3,8.23,9.88,9.25a19.83,19.83,0,0,1,5.81,1.38c14.35,5.67,20.06,7.67,18.15,18.71-.66,3.82-1.4,2-5,2.36.25-.2.5.44-.53-.37s-7.27.93-5.77-2.25c5.94-12.65-10.91-13.3-25.36-21.72a13.87,13.87,0,0,0-5.79-7.89,10.79,10.79,0,0,1,2.65-5.93,88.62,88.62,0,0,0-9.6-27.27C1775,380,1776.34,378.05,1778,376.24Z"/><path class="cls-21" d="M1821.38,372.89c7.46-4.79-5.18-13.7-17.72-15.54s-34.33,4.25-34.8,13.8,13.66,10.67,23.82,9.37S1813.91,377.68,1821.38,372.89Z"/><path class="cls-22" d="M1847.36,393c-.6-6.47-7.82-9-18.47-10.72s-18.21,3.77-18.79,10.78,8.63,10.92,19.25,10.54S1848,399.47,1847.36,393Z"/><path class="cls-23" d="M1789.75,377.66c-.81,8.57-9.62,17.14-22.24,18.33s-22.21-1.92-24-9.52,11.64-14,23.57-17.24S1790.56,369.08,1789.75,377.66Z"/><path class="cls-24" d="M1836.55,378.27c-5.33,5.78-8.72,11.07-23,11.54s-18.93-15.79-17.29-20.5,23.76-6.84,31.62-5.4S1841.87,372.49,1836.55,378.27Z"/><path class="cls-20" d="M1952.2,370.65c-4.35,7.86-8.39,15.59-11.17,23.72-.93-1.44-1.24-3.31-4.2-3.05-.94,0-.82-2.15-2.73-1s-2.48,4.52-.71,6.65c.61.73,1.68,3.17,2.49,4.12-13.26-4.64-13.77-14-16.76-22.34-1.64.6-3.18,1.26-4.73,1.94,4.29,11.05,5.75,21.19,24.69,25.92.71.73,2.19,2.72,2,3.35-1.38,4-3,8.24-9.88,9.26a19.36,19.36,0,0,0-5.81,1.37c-14.36,5.67-20.07,7.67-18.16,18.71.67,3.83,1.41,2,5,2.37-.25-.21-.51.43.52-.37s7.28.92,5.78-2.26c-5.94-12.65,10.91-13.3,25.36-21.71a13.84,13.84,0,0,1,5.79-7.9,10.87,10.87,0,0,0-2.65-5.93,89,89,0,0,1,9.59-27.27C1955.2,374.36,1953.84,372.46,1952.2,370.65Z"/><path class="cls-21" d="M1908.8,367.3c-7.47-4.79,5.17-13.7,17.72-15.54s34.32,4.25,34.8,13.81-13.66,10.66-23.82,9.36S1916.27,372.1,1908.8,367.3Z"/><path class="cls-22" d="M1882.82,387.42c.6-6.47,7.82-9,18.47-10.71s18.21,3.76,18.79,10.78-8.63,10.91-19.26,10.53S1882.21,393.89,1882.82,387.42Z"/><path class="cls-24" d="M1893.63,372.68c5.32,5.79,8.72,11.07,23,11.54s18.92-15.79,17.28-20.5-23.75-6.84-31.61-5.4S1888.31,366.9,1893.63,372.68Z"/><path class="cls-20" d="M1824.35,397.32c9.18,6.53,16.72,9.36,25.89,14.69,0-2.31-.45-2.46,2.31-2.62,0,0,.55-1.34,1.73-1.17s5.37,1.75,5.33,4.55c0,1,.51,2.47.56,3.52,8.95-3.54,4.32-9.49,2.8-18.11l5.62.23c2,13.19,5.59,18.41-7.73,23.44a20.34,20.34,0,0,0-.23,4.51c3.55,9.51-1,13.37,2.81,16.08a3.41,3.41,0,0,1,1.57,3.72c-1.92,7.53,1.35,15.67-.25,23.75-.56,2.81-2.32,2.48-5.35,1.77,0,0,.81.52-.27-.18-1.23-.8-6.84.16-6.25-2.52,2.36-10.7,4.52-20.76,2-32.58,1.44-3.32,1.59-8-3.15-10.32-.77-2.45-.25-4.1-.3-6.73-8.9-6.44-19.72-10.35-29.52-17.65A38.55,38.55,0,0,1,1824.35,397.32Z"/><ellipse class="cls-21" cx="1836.62" cy="388.06" rx="26.24" ry="12.32" transform="translate(-31.42 203.19) rotate(-6.28)"/><ellipse class="cls-22" cx="1884.53" cy="400.6" rx="18.95" ry="10.62" transform="translate(-16.87 89.8) rotate(-2.72)"/><ellipse class="cls-23" cx="1814.44" cy="402.88" rx="24.72" ry="12.52" transform="translate(-28.39 161.06) rotate(-5.04)"/><ellipse class="cls-24" cx="1860.8" cy="387.04" rx="14.89" ry="22.23" transform="translate(1284.66 2198.24) rotate(-84.1)"/><path class="cls-20" d="M1887.8,385.89c4.35,7.86,8.38,15.59,11.16,23.71.94-1.44,1.25-3.3,4.21-3,.93,0,.82-2.15,2.72-1s2.48,4.52.72,6.64c-.61.74-1.68,3.18-2.49,4.13,13.26-4.64,13.77-14,16.76-22.34,1.63.6,3.17,1.26,4.73,1.94-4.29,11.05-5.75,21.19-24.69,25.92-.71.73-2.19,2.71-2,3.35,1.38,4,3,8.23,9.88,9.25a19.83,19.83,0,0,1,5.81,1.38c14.35,5.67,20.06,7.67,18.15,18.71-.66,3.83-1.4,2-5,2.36.25-.2.5.44-.53-.36s-7.27.92-5.77-2.26c5.94-12.65-10.91-13.3-25.36-21.71a13.86,13.86,0,0,0-5.79-7.9,10.79,10.79,0,0,1,2.65-5.93,88.62,88.62,0,0,0-9.6-27.27C1884.8,389.6,1886.16,387.7,1887.8,385.89Z"/><path class="cls-21" d="M1931.2,382.54c7.46-4.79-5.18-13.7-17.72-15.54s-34.32,4.25-34.8,13.81,13.66,10.66,23.82,9.36S1923.73,387.34,1931.2,382.54Z"/><path class="cls-22" d="M1957.18,402.66c-.6-6.47-7.82-9-18.47-10.72s-18.21,3.77-18.79,10.79,8.63,10.91,19.25,10.53S1957.78,409.12,1957.18,402.66Z"/><path class="cls-23" d="M1899.57,387.31c-.81,8.58-9.62,17.14-22.24,18.33s-22.21-1.92-24-9.52,11.64-14,23.57-17.24S1900.38,378.73,1899.57,387.31Z"/><path class="cls-24" d="M1946.37,387.92c-5.33,5.78-8.72,11.07-23,11.54s-18.93-15.79-17.29-20.5,23.76-6.84,31.62-5.4S1951.69,382.14,1946.37,387.92Z"/><path class="cls-25" d="M18.92,507.53c-9.81,12.8-17.87,18.35-27.67,28.81-.05-4.54.48-4.82-2.47-5.13,0,0-.59-2.64-1.84-2.31-1.42.38-5.74,3.43-5.7,8.93,0,1.91-.55,4.84-.59,6.91-9.57-7-4.62-18.63-3-35.54l-6,.45c-2.12,25.89-6,36.13,8.25,46a71.2,71.2,0,0,1,.25,8.84c-3.79,18.66,1.07,26.23-3,31.55a9.83,9.83,0,0,0-1.68,7.3c2.06,14.76-1.44,30.73.27,46.59.59,5.5,2.48,4.87,5.71,3.47,0,0-.86,1,.3-.35,1.31-1.58,7.3.32,6.67-4.95-2.52-21-4.83-40.73-2.17-63.91-1.54-6.51-1.71-15.62,3.36-20.25.82-4.81.27-8,.32-13.21,9.5-12.63,21.07-20.3,31.54-34.62C20.64,513.21,19.94,510.19,18.92,507.53Z"/><ellipse class="cls-21" cx="5.81" cy="489.36" rx="23.35" ry="29.03" transform="translate(-430.4 267.49) rotate(-62.36)"/><ellipse class="cls-23" cx="29.5" cy="518.44" rx="23.73" ry="27.33" transform="translate(-422.88 263.49) rotate(-57.34)"/><ellipse class="cls-24" cx="-20.03" cy="487.36" rx="29.59" ry="23.45" transform="translate(-495.58 378.89) rotate(-79.5)"/><path class="cls-25" d="M179.09,521.57c-4.65,15.41-9,30.57-11.93,46.52-1-2.83-1.33-6.48-4.5-6-1,0-.87-4.21-2.9-2s-2.65,8.88-.77,13.05c.66,1.44,1.8,6.22,2.66,8.08-14.17-9.09-14.71-27.41-17.9-43.82-1.75,1.18-3.4,2.48-5.06,3.81,4.59,21.67,6.15,41.57,26.38,50.84.76,1.45,2.34,5.33,2.1,6.59-1.47,7.77-3.24,16.15-10.55,18.15-2.75.75-3.51.74-6.21,2.7-15.33,11.12-21.43,15-19.39,36.7.7,7.51,1.5,3.88,5.37,4.64-.27-.41-.54.85.56-.72s7.77,1.82,6.17-4.42c-6.35-24.83,11.65-26.11,27.09-42.61,1.07-5.87,2.54-11,6.18-15.49A31.89,31.89,0,0,0,173.57,586a281.71,281.71,0,0,1,10.25-53.5C182.29,528.83,180.84,525.12,179.09,521.57Z"/><path class="cls-21" d="M132.72,515c-8-9.41,5.53-26.89,18.93-30.5s36.67,8.35,37.18,27.09S174.24,532.51,163.38,530,140.7,524.4,132.72,515Z"/><path class="cls-22" d="M105,554.46c.64-12.69,8.36-17.72,19.74-21s19.45,7.39,20.08,21.15S135.55,576,124.2,575.25,104.32,567.14,105,554.46Z"/><path class="cls-23" d="M166.52,524.34c.86,16.83,10.27,33.63,23.75,36s23.73-3.77,25.65-18.68-12.45-27.4-25.18-33.82S165.65,507.52,166.52,524.34Z"/><path class="cls-24" d="M116.52,525.55c5.68,11.34,9.31,21.71,24.57,22.64s20.22-31,18.46-40.22-25.38-13.42-33.77-10.59S110.83,514.21,116.52,525.55Z"/><g class="cls-26"><path d="M1138.28,14.39l2.75-.58c-3.59-3.41-2.2-2.34-5-3.08a4.89,4.89,0,0,0-3.26.57,44,44,0,0,0-6.17,5.66C1130.5,16.11,1134.39,15.23,1138.28,14.39Z"/><path d="M1118.56,18.73c-2.37-2.73-8.59-3-11.33-2.64l-2.85,2.68a29.36,29.36,0,0,0-.94,3.37Z"/><path d="M1138.28,14.39c-1.3-1.22-1-.75-3-1.3a4.69,4.69,0,0,0-3.12.54c-1.27,1-2.38,1.94-3.38,2.87C1131.91,15.8,1135.09,15.08,1138.28,14.39Z"/><path d="M1116.24,19.24a18.83,18.83,0,0,0-8.61-1l-2.72,2.58c-.08.22-.21.61-.35,1.08Q1110.4,20.56,1116.24,19.24Z"/><path d="M1112.55,20.06a18.21,18.21,0,0,0-3.48.07l-1,1Z"/></g><g class="cls-27"><path d="M872.44,162.45l.59.12L867.55,166C869.18,164.78,870.81,163.62,872.44,162.45Z"/><path d="M869.07,164.87l.21,0L867.55,166Z"/></g><g class="cls-27"><path class="cls-28" d="M886,160.75l.59.12-5.47,3.39Z"/><path class="cls-28" d="M882.58,163.17l.21,0-1.72,1.07Z"/></g><g class="cls-27"><path d="M600.19,306.36l.59.12-5.48,3.39Z"/><path d="M596.82,308.78l.21,0-1.73,1.07Z"/></g><path class="cls-29" d="M1022.6,645.9v0a.32.32,0,0,1-.24.15l-.06,0-.19.17c-.09.07-.24,0-.23-.09l0-.22s0-.05-.12-.07-.29-.21-.22-.36l0,0a.09.09,0,0,0-.05-.12l-.25-.12a.08.08,0,0,1,0-.06c0-.17.23-.27.38-.14h0c.08,0,.14-.07.11-.13l-.09-.22c0-.1.09-.17.19-.11l.23.24c.07,0,.18-.08.21-.14l0-.18c0-.09.28-.11.31,0v.37h0a.22.22,0,0,0,.36,0l.12-.17a.14.14,0,0,1,.22,0,.08.08,0,0,1,0,.08l-.13.21c0,.05.06.2.14.21h.24c.13,0,.15.15,0,.19l-.27.09a1.8,1.8,0,0,0-.27.07.35.35,0,0,1-.18,0s-.1,0-.11,0,0,.07-.07.08A.53.53,0,0,0,1022.6,645.9Z"/><path class="cls-29" d="M1041.26,647.69h0a.3.3,0,0,1-.22-.18l0,0-.22-.13c-.1-.06-.09-.22,0-.24l.22-.05s0-.06,0-.13.11-.35.27-.32h0s.08,0,.09-.08l0-.28a.13.13,0,0,1,0-.06c.15-.09.33.14.25.32h0c0,.08.11.11.16.07l.18-.16c.08-.07.19,0,.17.15l-.16.29c0,.08.13.15.2.16l.18,0c.1,0,.19.24.11.3l-.35.13h0a.22.22,0,0,0,.08.35l.19.06a.13.13,0,0,1,.06.21.08.08,0,0,1-.08,0l-.23-.06c-.07,0-.18.12-.17.2l.1.23c0,.12-.1.18-.17.08l-.17-.23s-.11-.18-.16-.23a.58.58,0,0,1-.11-.15.21.21,0,0,0-.06-.1.2.2,0,0,1-.1,0A.33.33,0,0,0,1041.26,647.69Z"/><rect class="cls-1" x="4.11" y="1.84" width="1942.01" height="1106.72"/><g class="cls-27"><path d="M1801,596.31l2.06.41-19.18,11.87Q1792.44,602.42,1801,596.31Z"/><path d="M1789.2,604.78l.74.07-6,3.74Z"/></g><g class="cls-27"><path d="M1848.37,590.35l2.05.42-19.17,11.87Q1839.79,596.47,1848.37,590.35Z"/><path d="M1836.56,598.82l.73.08-6,3.74Z"/></g></g></g></svg>
