<svg xmlns="http://www.w3.org/2000/svg" width="1920" height="1080" viewBox="0 0 1920 1080"><defs><style>.cls-1{fill:#756b6b;}.cls-2{opacity:0.3;}.cls-3{fill:#848484;}.cls-4{opacity:0.2;}.cls-5{fill:#774c46;}.cls-6{fill:#875f58;}.cls-7{fill:#5e4843;}.cls-8{fill:#777c41;}.cls-9{opacity:0.4;}.cls-10{fill:#76575d;}.cls-11{fill:#664a48;}</style></defs><g id="Layer_3" data-name="Layer 3"><path d="M570.18-2.45C564.58-17,548.78-26.8,519-34.36c13.12-28.1-26.74-82.16-30.39-64.49,22.44-108.86-57.87-120.22-94-120.22-65.11,0-59.49,61.4-91,60-40-1.72-82.66,14.27-89.89,59.08C215.86-113,73.4-61.69,106.68-.48c-38-70-146.14-3.28-146.14-3.28-51.46-25.3-81-36.07-166.39-1.1-24.52,10.05-40.39,44.91-37.62,64.49-35.56,17.7-43.49,48-30.38,79.78,28.21,68.31,45.93-4.43,72.34,73.77-73.8,60,96.22,107.65,106,94.71,12.12-16,59.59,28.93,103.05,20.05,27.94-1,41.29-17.7,61.49-22.95,9.72-2.53,92.7-26,66.55-37.71,83.2,37.16,131.08-2.72,168.57-61.75,22,1.15,35.48-23.47,48.47-13.66,43.4,32.79,147.61,4.11,144-63.94-15.27-58.83,38,8.12,74.07-110A31,31,0,0,0,570.18-2.45Z"/><path class="cls-1" d="M563.57,16.81c0-19.17-23.36-35.79-57.53-44a41,41,0,0,0,3.82-17.14c0-20.37-15.38-38-37.83-46.71A74.36,74.36,0,0,0,487-135.66c0-43.25-37.59-78.31-84-78.31-42.69,0-77.94,29.72-83.26,68.19a72.12,72.12,0,0,0-28.17-5.69,71.92,71.92,0,0,0-71,59.52A71.77,71.77,0,0,0,203-94.13c-48.91,0-88.56,49.67-88.56,110.94,0,1.08,0,2.16,0,3.24l-.78-.12C102.86-4.68,72.11-22.43,35.87-22.43,3.8-22.43-24-8.54-37.47,11.7-57.14-5-88.75-15.89-124.4-15.89c-59.64,0-108,30.38-108,67.86a43.73,43.73,0,0,0,1.48,11.24c-20.53,9.31-34.74,29.41-34.74,52.71,0,32.17,27.07,58.24,60.47,58.24a62.45,62.45,0,0,0,6.45-.33,39.17,39.17,0,0,0-.29,4.74c0,11.52,5,22.31,13.82,31.58-12.51,8.75-20,19.76-20,31.72,0,28.47,42.26,51.56,94.39,51.56a158.64,158.64,0,0,0,46.29-6.62c9.64,19.85,34.88,34,64.51,34,26.3,0,49.14-11.17,60.68-27.57,1.79.1,3.59.17,5.41.17,30.87,0,57.42-13.91,69.33-33.87a100,100,0,0,0,57.35,18.2c46.79,0,86.55-32.81,101-78.49q2.88.18,5.82.18a88,88,0,0,0,51.28-16,90.79,90.79,0,0,0,52.15,16c46.26,0,83.77-33,83.77-73.74a65.82,65.82,0,0,0-4.73-24.49C519.63,92.31,545.5,73.6,545.5,52a27.44,27.44,0,0,0-.89-6.93C556.56,37,563.57,27.3,563.57,16.81Z"/><path class="cls-2" d="M90-7A97.78,97.78,0,0,0,35.87-22.43C3.8-22.43-24-8.54-37.47,11.7-57.14-5-88.75-15.89-124.4-15.89c-59.64,0-108,30.38-108,67.86a43.73,43.73,0,0,0,1.48,11.24c-20.53,9.31-34.74,29.41-34.74,52.71,0,32.17,27.07,58.24,60.47,58.24a62.45,62.45,0,0,0,6.45-.33,39.17,39.17,0,0,0-.29,4.74c0,11.52,5,22.31,13.82,31.58-12.51,8.75-20,19.76-20,31.72,0,28.47,42.26,51.56,94.39,51.56a158.64,158.64,0,0,0,46.29-6.62c9.64,19.85,34.88,34,64.51,34a89.22,89.22,0,0,0,20-2.25C-37,288.05-92,149.2,90-7Z"/><path class="cls-2" d="M33.48-22.4C2.43-21.73-24.3-8-37.47,11.7-57.14-5-88.75-15.89-124.4-15.89c-59.64,0-108,30.38-108,67.86a43.73,43.73,0,0,0,1.48,11.24c-20.53,9.31-34.74,29.41-34.74,52.71,0,32.17,27.07,58.24,60.47,58.24a62.45,62.45,0,0,0,6.45-.33,39.17,39.17,0,0,0-.29,4.74c0,11.52,5,22.31,13.82,31.58-12.51,8.75-20,19.76-20,31.72,0,25.31,33.38,46.35,77.4,50.72C-122.85,258.34-169.19,169.28,33.48-22.4Z"/><path d="M2002.48,328.9h-7.3c-2.51-12-8-21.78-15-27.13a57.68,57.68,0,0,0,.71-9c0-29.94-22.94-54.22-51.23-54.22-16.91,0-31.91,8.68-41.24,22.05-6.41-16.18-19.58-27.27-34.78-27.27-17.2,0-31.79,14.18-36.94,33.84l-.38.1c0-.86,0-1.73,0-2.59,0-49-18.81-88.65-42-88.65a21.1,21.1,0,0,0-8.33,1.75c-2.74-27-16.77-47.56-33.67-47.56a22.92,22.92,0,0,0-13.37,4.54c-2.52-30.73-19.24-54.48-39.49-54.48-22,0-39.82,28-39.82,62.57a89.09,89.09,0,0,0,7.08,35.64c-10.65,6.94-17.94,21-17.94,37.32a52,52,0,0,0,1.81,13.69c-16.21,6.58-27.29,19.86-27.29,35.18a33.94,33.94,0,0,0,9,22.56,36.19,36.19,0,0,0-.42,5.53c0,15,9.22,28.21,23.29,36.11h-5.46c-7.51-3.71-20-9.29-29.77-63.35a40.91,40.91,0,0,1,.23-16.24c2.66-11.66,10.15-19.46,24.26-25.5-6.22-22.45,12.69-65.65,14.42-51.52-10.64-87,27.45-96.07,44.61-96.07,30.89,0,28.22,49.07,43.15,48,19-1.37,39.21,11.41,42.64,47.21-1-10.44,66.58,30.57,50.79,79.47,18.05-55.9,69.33-2.62,69.33-2.62,24.41-20.21,38.43-28.82,78.93-.87,11.63,8,19.16,35.88,17.84,51.52C1995.2,306.48,2000.47,316.93,2002.48,328.9Z"/><path class="cls-3" d="M1993.77,325.11H1629.18c-11-8-17.84-19.66-17.84-32.61a36.19,36.19,0,0,1,.42-5.53,33.89,33.89,0,0,1-9-22.56c0-15.32,11.08-28.6,27.29-35.18a52.08,52.08,0,0,1-1.81-13.69c0-16.28,7.29-30.38,17.94-37.33a88.83,88.83,0,0,1-7.09-35.63c0-34.56,17.83-62.57,39.83-62.57,20.25,0,37,23.74,39.49,54.48a22.91,22.91,0,0,1,13.36-4.54c16.91,0,30.94,20.56,33.68,47.56a21.07,21.07,0,0,1,8.33-1.75c23.2,0,42,39.69,42,88.65,0,.86,0,1.73,0,2.59l.37-.1c5.16-19.67,19.75-33.85,36.94-33.85,15.21,0,28.38,11.1,34.79,27.28,9.33-13.37,24.33-22,41.24-22,28.29,0,51.23,24.28,51.23,54.22a57.68,57.68,0,0,1-.71,9C1985.94,306.3,1991,314.72,1993.77,325.11Z"/><rect x="1629.75" y="325.11" width="371.97" height="3.78" transform="translate(3631.47 654.01) rotate(-180)"/><g class="cls-4"><path d="M1719,134.78a21.95,21.95,0,0,1,27,.2q1.35-2.58,2.74-5.13a35.12,35.12,0,0,0-22.08-5.64c-14.93,1.08-12.26-48-43.15-48-17.16,0-55.25,9.08-44.61,96.07-1.73-14.13-20.64,29.07-14.42,51.52-14.11,6-21.6,13.84-24.26,25.5a40.76,40.76,0,0,0-.24,16.21c9.79,54.09,22.27,59.66,29.78,63.38h5.46c-14.07-7.9-23.29-21.12-23.29-36.11a36.19,36.19,0,0,1,.42-5.53,33.94,33.94,0,0,1-9-22.56c0-15.32,11.08-28.6,27.29-35.18a52,52,0,0,1-1.81-13.69c0-16.28,7.29-30.38,17.94-37.32a89.09,89.09,0,0,1-7.08-35.64c0-34.56,17.83-62.57,39.82-62.57C1699.76,80.3,1716.48,104.05,1719,134.78Z"/><path d="M1688.93,320.47c4.28-13.37,8-27,11.5-40.76,6.84-27,12.82-54.29,20.83-80.75a458.37,458.37,0,0,1,16-45.47c2.68-6.34,5.58-12.45,8.67-18.4a23.15,23.15,0,0,0-14.16-5.14,22.91,22.91,0,0,0-13.36,4.54C1715.9,103.75,1699.18,80,1678.93,80c-22,0-39.83,28-39.83,62.57a88.83,88.83,0,0,0,7.09,35.63c-10.65,6.95-17.94,21-17.94,37.33a52.08,52.08,0,0,0,1.81,13.69c-16.21,6.58-27.29,19.86-27.29,35.18a33.89,33.89,0,0,0,9,22.56,36.19,36.19,0,0,0-.42,5.53c0,12.95,6.89,24.59,17.84,32.61h58.13Q1688.13,322.8,1688.93,320.47Z"/><path d="M1686.07,328.58c.42-1.15.83-2.31,1.24-3.47h-57.56v3.79H1686Z"/></g><g class="cls-4"><path d="M1679.51,80.3c19,0,35,21,38.89,49.05q.9-2.55,1.79-5.12c.27-.85.53-1.7.8-2.55-9.22-9.91-11.2-45.46-37.49-45.46-17.16,0-55.25,9.08-44.61,96.07-1.73-14.13-20.64,29.07-14.42,51.52-14.11,6-21.6,13.84-24.26,25.5a40.91,40.91,0,0,0-.23,16.24c9.79,54.06,22.26,59.64,29.77,63.35h5.46c-14.07-7.9-23.29-21.12-23.29-36.11a36.19,36.19,0,0,1,.42-5.53,33.94,33.94,0,0,1-9-22.56c0-15.32,11.08-28.6,27.29-35.18a52,52,0,0,1-1.81-13.69c0-16.28,7.29-30.38,17.94-37.32a89.09,89.09,0,0,1-7.08-35.64C1639.69,108.31,1657.52,80.3,1679.51,80.3Z"/><path d="M1892.2,304.7c.71-1.5,1.39-3,2-4.57.1-1.4.2-2.81.29-4.21l-2,3.71c-.88,1.64-1.74,3.28-2.61,4.92C1890.7,304.56,1891.45,304.62,1892.2,304.7Z"/><path d="M1668.47,308.91c1-12.76,2.41-25.53,4.39-38.12,3.58-22.77,9.6-44.37,16.87-65.63-.85,2.55-1.69,5.1-2.54,7.65,5.53-16.68,11.64-32.9,18-49.06,4.37-11,8.73-22.05,12.76-33.29-3.6-28.75-19.72-50.45-39.07-50.45-22,0-39.83,28-39.83,62.57a88.83,88.83,0,0,0,7.09,35.63c-10.65,6.95-17.94,21-17.94,37.33a52.08,52.08,0,0,0,1.81,13.69c-16.21,6.58-27.29,19.86-27.29,35.18a33.89,33.89,0,0,0,9,22.56,36.19,36.19,0,0,0-.42,5.53c0,12.95,6.89,24.59,17.84,32.61h38.4C1667.8,319.71,1668,314.31,1668.47,308.91Z"/><path d="M1667.58,325.11h-37.83v3.79h37.67C1667.48,327.63,1667.53,326.37,1667.58,325.11Z"/></g><path class="cls-5" d="M2181.54,152.3,2072.06,71.94,1930,282.42,1755.59,418s-34.27,108.54-80.77,141.18c0,0-83.14,248.68-72.42,280.14l187.52,41.46,363.14-34.22s66-465.36,60.59-477.47S2181.54,152.3,2181.54,152.3Z"/><path class="cls-6" d="M-307.44,654.55S150.72,646,182.88,637.39L212.61,632S187.92,752.45,208,778.19L335.43,981l-66.61,101.44S-323.52,829-331.55,820.45s4-143.22,4-143.22Z"/><path class="cls-7" d="M-410.39,667.7s458.16-8.58,490.31-17.16L180.4,639.1s-48.23,134.44-28.13,160.18l116.55,283.18-310.07,69.37S-426.47,842.19-434.5,833.61s4-143.22,4-143.22Z"/><polygon class="cls-8" points="93.58 617.69 67.89 625.78 19.63 619.98 -30.9 635.89 -103.49 641.86 -42.06 671.74 -41.24 699.62 25.77 673.53 54.8 686.92 74.96 659.83 128.75 684.63 156.85 646.87 212.61 632 93.58 617.69"/><path class="cls-6" d="M1653.55,438.53s458.76-14.08,491-28.16l42.11,2.35s10.2,199.45,30.32,241.69l-58.33,481.05L1932,1088.52s-191.24-319.7-199.29-333.78S1712.34,584,1712.34,584Z"/><path class="cls-7" d="M1728.51,434.91S2142.89,421.45,2172,408l38,2.25S2219.22,601,2237.4,641.4l-52.69,460.1-118.33-58.36s-258.57-319.42-265.84-332.89-18.93-136.19-18.93-136.19Z"/><polygon class="cls-8" points="1771.73 391.51 1753.88 404.8 1720.34 395.27 1685.21 421.41 1634.76 431.23 1677.46 480.32 1678.03 526.14 1724.6 483.28 1744.78 505.27 1758.79 460.76 1796.17 501.51 1815.71 439.46 1854.47 415.02 1771.73 391.51"/><polygon class="cls-8" points="1929.49 391.51 1911.64 404.8 1878.1 395.27 1842.97 421.41 1792.53 431.23 1835.22 480.32 1835.79 526.14 1882.37 483.28 1902.54 505.27 1916.55 460.76 1953.94 501.51 1973.47 439.46 2012.23 415.02 1929.49 391.51"/><path class="cls-9" d="M2091.8,410.37c0-18-77.16,12.52-187.07,12.52s-199,14.56-199,32.53c0,5.05,34.07,2.7,53.07,5.34,17,2.36,26.12-11.73,49.12-10.9,26.94,1,31.61,25.83,53.55,25.29,12.65-.3,44.13-21.22,51.39-21.87,28.56-2.52,26.57,2.61,50.44-1.41,34.94-5.89,101.71-20.23,113.78-27.24C2094.1,414.74,2091.8,416.79,2091.8,410.37Z"/><path class="cls-10" d="M221.46,486.88c-1-.51-6,8-15.28,14.74-21.89,23.6-30.59,24-38,30.52.14-5.92,3.63-14.77,2.38-20.52,28.76-21,25.94-2.71,35.54-37.64-1.15-.23-3.83,13.56-5.59,7.62-5.87,23.41-9.6,7.47-29.81,26-.65,0-1.3.1-1.94.17,2.46-23.64-9.4-14.46,13.27-39.63-.86-.77-4.83,4.56-5.71,3.8-16.14,19.86-9.08,13.19-11.11,36.26l-1.4.16c-.88,2.42-2.31,2.28-11.91-5.55-1.17,1.11-19.54-15.3-20.71-14.18,9.38,7.65,18.8,15.27,28.54,22.46.46,1.86,1,3.7,1.41,5.56-15.74-3.69-8.7-1.14-23.48-9.44-.63.82,22.72,13.57-16-1.54,15.69,8.78,23.69,9.89,40,14.14.63,6.87.18,12.82-.12,19.63-14.81-9.5-19.65-9.37-19.65-9.37,4.84-.13-19.77.85-19.67,1.91,16.15-.42,27-1.32,39.49,12,0,8.07-1.9,17.7-4.19,25.42-13.51-10.15-4.6-2.57-37-20.38-1.43.84-16.47-12.31-17.89-11.46,12.8,18.9,50.52,24.46,51.86,38.61-27.52,35.47-19.7,53.55-28.7,69.12l13.17-.5c-.19-46.78,27.35-51.74,28.72-104.52C188.22,523.36,207.37,510.54,221.46,486.88Z"/><path class="cls-10" d="M-38.56,384.31c1.09-.84,6.36,12.91,16.34,23.93,23.4,38.32,32.71,38.95,40.61,49.56-.14-9.61-3.87-24-2.53-33.32-30.76-34.16-27.75-4.4-38-61.13,1.23-.37,4.1,22,6,12.38,6.28,38,10.27,12.13,31.87,42.22.7.08,1.39.16,2.08.28-2.64-38.38,10-23.49-14.2-64.36.93-1.25,5.17,7.4,6.11,6.18C27,392.3,19.4,381.46,21.57,418.92l1.5.26c.95,3.93,2.47,3.71,12.73-9,1.25,1.82,20.9-24.84,22.15-23-10,12.43-20.1,24.79-30.52,36.47-.49,3-1,6-1.51,9,16.83-6,9.3-1.86,25.11-15.33.68,1.33-24.29,22,17.16-2.51-16.79,14.25-25.33,16.06-42.8,23-.67,11.15-.19,20.81.13,31.88,15.83-15.43,21-15.22,21-15.22-5.19-.21,21.13,1.39,21,3.1-17.27-.68-28.83-2.14-42.22,19.49,0,13.12,2,28.75,4.48,41.29,14.44-16.49,4.92-4.18,39.55-33.09,1.53,1.36,17.61-20,19.13-18.61-13.69,30.68-54,39.71-55.45,62.7,29.43,57.59,21.07,87,30.69,112.23l-14.08-.81c.2-76-29.25-84-30.72-169.72C-3,443.55-23.5,422.73-38.56,384.31Z"/><path class="cls-11" d="M1992.11,323.57c-.78-.29-4.41,4.78-11.39,8.92-16.3,14.24-22.88,14.61-28.41,18.57,0-3.48,2.56-8.75,1.54-12.11,21.54-12.84,19.63-2,26.47-22.73-.87-.12-2.74,8-4.14,4.58-4.16,13.87-7.19,4.55-22.27,15.78l-1.47.13c1.58-13.95-7.3-8.36,9.57-23.54-.67-.43-3.61,2.76-4.28,2.33-12,11.95-6.72,7.91-8,21.52l-1.06.12c-.64,1.43-1.72,1.38-9.09-3.08-.87.68-15-8.69-15.87-8,7.2,4.35,14.43,8.68,21.9,12.76.37,1.08.78,2.16,1.14,3.25-12-1.92-6.6-.53-17.91-5.17-.47.48,17.39,7.61-12.18-.66,12,4.92,18.08,5.44,30.51,7.68a64.72,64.72,0,0,1,.16,11.56c-11.35-5.35-15-5.2-15-5.2,3.67-.15-15,.82-14.88,1.44,12.24-.51,20.42-1.21,30.08,6.43a45.39,45.39,0,0,1-2.86,15c-10.36-5.76-3.52-1.44-28.29-11.4-1.07.52-12.63-7-13.69-6.45,9.93,10.91,38.58,13.57,39.78,21.88-20.42,21.32-14.26,31.84-20.89,41.14l10-.51c-.72-27.52,20.08-30.88,20.47-62C1967.38,345.57,1981.73,337.72,1992.11,323.57Z"/><path class="cls-11" d="M1947.14,326.82c-.79-.29-4.42,4.78-11.4,8.92-16.29,14.24-22.88,14.61-28.4,18.57,0-3.48,2.56-8.75,1.54-12.11,21.53-12.85,19.63-2,26.46-22.73-.87-.12-2.73,8-4.14,4.58-4.16,13.87-7.18,4.55-22.26,15.78l-1.47.13c1.57-13.95-7.3-8.36,9.56-23.54-.66-.44-3.6,2.76-4.28,2.33-12,11.95-6.72,7.91-8,21.52l-1,.12c-.65,1.43-1.73,1.38-9.1-3.08-.87.68-15-8.69-15.87-8,7.2,4.35,14.44,8.68,21.91,12.76.37,1.08.78,2.16,1.14,3.25-12-1.92-6.61-.53-17.92-5.18-.47.49,17.39,7.62-12.17-.65,12,4.91,18.07,5.44,30.51,7.68a63.79,63.79,0,0,1,.15,11.56c-11.34-5.36-15-5.2-15-5.2,3.67-.16-15,.82-14.88,1.44,12.23-.51,20.41-1.21,30.07,6.43a45.63,45.63,0,0,1-2.85,15c-10.37-5.76-3.52-1.44-28.29-11.4-1.08.52-12.63-7-13.7-6.46,9.93,10.92,38.59,13.58,39.78,21.89-20.41,21.32-14.26,31.83-20.89,41.14l10-.51c-.73-27.52,20.08-30.89,20.46-62C1922.41,348.82,1936.75,341,1947.14,326.82Z"/><path class="cls-11" d="M1937.81,293.72c-.78-.29-4.41,4.78-11.39,8.92-16.29,14.24-22.88,14.61-28.41,18.57,0-3.48,2.57-8.75,1.55-12.11,21.53-12.85,19.63-2,26.46-22.73-.87-.12-2.73,8.05-4.14,4.58-4.16,13.87-7.18,4.55-22.27,15.78l-1.46.13c1.57-13.95-7.3-8.36,9.56-23.54-.66-.43-3.61,2.76-4.28,2.33-12,12-6.72,7.91-8,21.52l-1,.12c-.65,1.43-1.73,1.38-9.1-3.08-.87.68-15-8.69-15.87-8,7.2,4.35,14.44,8.68,21.91,12.76.36,1.08.78,2.16,1.14,3.25-12-1.92-6.61-.53-17.92-5.18-.47.49,17.39,7.62-12.17-.65,12,4.92,18.07,5.44,30.5,7.68a63.8,63.8,0,0,1,.16,11.56c-11.34-5.36-15-5.2-15-5.2,3.68-.16-15,.82-14.87,1.44,12.23-.51,20.41-1.21,30.07,6.43a45.63,45.63,0,0,1-2.85,15c-10.37-5.76-3.53-1.44-28.29-11.4-1.08.52-12.64-7-13.7-6.46,9.93,10.92,38.59,13.58,39.78,21.89-20.41,21.32-14.26,31.83-20.89,41.14l10-.51c-.73-27.52,20.08-30.89,20.46-62C1913.08,315.72,1927.43,307.87,1937.81,293.72Z"/><path class="cls-11" d="M1902.17,330.53c-.78-.28-4.41,4.78-11.4,8.92-16.29,14.24-22.88,14.61-28.4,18.58,0-3.49,2.56-8.75,1.54-12.12,21.53-12.84,19.63-2,26.46-22.72-.87-.12-2.73,8-4.14,4.57-4.15,13.87-7.18,4.55-22.26,15.78l-1.47.13c1.57-13.95-7.3-8.36,9.56-23.53-.66-.44-3.6,2.76-4.28,2.33-12,11.95-6.71,7.91-8,21.51l-1.06.12c-.64,1.44-1.73,1.38-9.09-3.08-.88.68-15-8.68-15.88-8,7.2,4.36,14.44,8.69,21.91,12.76.37,1.09.78,2.16,1.14,3.25-12-1.92-6.61-.53-17.91-5.17-.47.49,17.39,7.62-12.18-.65,12,4.91,18.07,5.43,30.51,7.68a63.7,63.7,0,0,1,.15,11.55c-11.34-5.35-15-5.2-15-5.2,3.67-.15-15,.82-14.88,1.44,12.24-.51,20.42-1.21,30.08,6.43a45.6,45.6,0,0,1-2.86,15c-10.37-5.76-3.52-1.44-28.29-11.39-1.07.51-12.63-7-13.7-6.46,9.94,10.91,38.59,13.58,39.78,21.89-20.41,21.31-14.26,31.83-20.88,41.13l10-.5c-.73-27.53,20.08-30.89,20.47-62C1877.44,352.54,1891.79,344.68,1902.17,330.53Z"/><path class="cls-11" d="M1819.2,361.7c21.54-12.84,19.63-2,26.47-22.72-.87-.12-2.74,8-4.14,4.57-4.16,13.87-7.19,4.55-22.27,15.78l-1.47.13c1.58-13.95-7.3-8.36,9.57-23.53-.67-.44-3.61,2.76-4.28,2.33-12,11.94-6.72,7.91-8,21.51l-1.06.12c-.64,1.44-1.73,1.38-9.09-3.08-.87.68-15-8.68-15.88-8,7.2,4.36,14.44,8.69,21.91,12.76.37,1.09.78,2.16,1.14,3.25-12-1.92-6.6-.53-17.91-5.17-.47.49,17.39,7.62-12.18-.65,12,4.91,18.08,5.43,30.51,7.68a64.62,64.62,0,0,1,.16,11.55c-11.35-5.35-15-5.2-15-5.2,3.67-.15-15,.82-14.88,1.44,12.24-.51,20.42-1.21,30.08,6.43a45.34,45.34,0,0,1-2.86,15c-10.36-5.76-3.52-1.44-28.29-11.39-1.07.51-12.63-7-13.69-6.46,9.93,10.91,38.58,13.58,39.78,21.89-20.42,21.31-14.26,31.83-20.89,41.13l10-.5c-.72-27.53,20.08-30.89,20.47-62,15.35-10.28,29.7-18.14,40.08-32.29-.78-.28-4.41,4.78-11.39,8.92-16.3,14.24-22.89,14.61-28.41,18.58"/><path class="cls-11" d="M1960.33,345.42c-.79-.29-4.42,4.77-11.4,8.91-16.29,14.25-22.88,14.62-28.4,18.58,0-3.48,2.56-8.75,1.54-12.11,21.53-12.85,19.63-2,26.46-22.73-.87-.12-2.73,8-4.14,4.57-4.16,13.88-7.18,4.56-22.26,15.79-.49,0-1,.08-1.47.13,1.57-13.95-7.3-8.36,9.56-23.54-.66-.44-3.6,2.76-4.28,2.33-12,11.95-6.72,7.91-8,21.52l-1,.11c-.65,1.44-1.73,1.39-9.1-3.07-.87.67-15-8.69-15.87-8,7.2,4.35,14.44,8.68,21.91,12.75.37,1.09.78,2.17,1.14,3.26-12-1.92-6.61-.54-17.92-5.18-.47.49,17.39,7.62-12.17-.65,12,4.91,18.07,5.44,30.51,7.68a63.7,63.7,0,0,1,.15,11.55c-11.34-5.35-15-5.19-15-5.19,3.67-.16-15,.82-14.88,1.43,12.23-.5,20.41-1.2,30.07,6.43a45.58,45.58,0,0,1-2.85,15c-10.37-5.75-3.52-1.43-28.29-11.39-1.08.51-12.63-7-13.7-6.46,9.93,10.92,38.59,13.58,39.78,21.89-20.41,21.31-14.26,31.83-20.89,41.14l10-.51c-.73-27.52,20.08-30.89,20.46-62C1935.6,367.42,1949.94,359.57,1960.33,345.42Z"/><path class="cls-11" d="M1894.34,358.87c-4.16,13.87-7.19,4.55-22.27,15.78l-1.47.13c1.58-13.95-7.3-8.36,9.57-23.54-.67-.43-3.61,2.76-4.28,2.33-12,11.95-6.72,7.91-8,21.52l-1.06.12c-.64,1.43-1.73,1.38-9.09-3.08-.87.68-15-8.69-15.88-8,7.2,4.35,14.44,8.68,21.91,12.76.37,1.08.78,2.16,1.14,3.25-12-1.92-6.6-.53-17.91-5.18-.47.49,17.39,7.62-12.18-.65,12,4.92,18.08,5.44,30.51,7.68a64.72,64.72,0,0,1,.16,11.56c-11.35-5.35-15-5.2-15-5.2,3.67-.15-15,.82-14.88,1.44,12.24-.51,20.42-1.21,30.08,6.43a45.39,45.39,0,0,1-2.86,15c-10.36-5.76-3.52-1.44-28.29-11.4-1.07.52-12.63-7-13.69-6.45,9.93,10.91,38.58,13.57,39.78,21.88-20.42,21.32-14.26,31.84-20.89,41.14l10-.51c-.72-27.52,20.08-30.89,20.47-62,15.35-10.29,29.7-18.14,40.08-32.29-.78-.29-4.41,4.78-11.39,8.92-16.3,14.24-22.89,14.61-28.41,18.57"/><path class="cls-11" d="M1994.1,354.35c-.78-.29-4.41,4.78-11.4,8.92-16.29,14.24-22.88,14.61-28.4,18.57,0-3.48,2.56-8.75,1.54-12.11,21.53-12.84,19.63-2,26.46-22.73-.87-.12-2.73,8.05-4.14,4.58-4.15,13.87-7.18,4.55-22.26,15.78l-1.47.13c1.57-13.95-7.3-8.36,9.56-23.54-.66-.43-3.6,2.76-4.28,2.33-12,12-6.71,7.91-8,21.52l-1.06.12c-.64,1.43-1.73,1.38-9.09-3.08-.88.68-15-8.69-15.88-8,7.2,4.35,14.44,8.68,21.91,12.76.37,1.08.78,2.16,1.14,3.25-12-1.92-6.61-.53-17.91-5.17-.47.48,17.39,7.61-12.18-.66,12,4.92,18.07,5.44,30.51,7.68a63.79,63.79,0,0,1,.15,11.56c-11.34-5.35-15-5.2-15-5.2,3.67-.15-15,.82-14.88,1.44,12.24-.51,20.42-1.21,30.08,6.43a45.65,45.65,0,0,1-2.86,15c-10.37-5.76-3.52-1.44-28.29-11.4-1.07.52-12.63-7-13.7-6.45,9.94,10.91,38.59,13.57,39.78,21.88-20.41,21.32-14.26,31.84-20.88,41.14l10-.5c-.73-27.53,20.08-30.89,20.47-62C1969.37,376.35,1983.72,368.5,1994.1,354.35Z"/><path class="cls-11" d="M1923.31,337.17c-1.07.52-12.63-7-13.7-6.45,9.94,10.91,38.59,13.57,39.78,21.88-20.41,21.32-14.26,31.84-20.88,41.14l10-.51c-.73-27.52,20.08-30.88,20.47-62C1974.3,321,1988.65,313.12,1999,299c-.78-.29-4.41,4.78-11.4,8.92-16.29,14.24-22.88,14.61-28.4,18.57,0-3.48,2.56-8.75,1.54-12.11,21.54-12.84,19.63-2,26.47-22.73-.88-.12-2.74,8.05-4.14,4.58-4.16,13.87-7.19,4.55-22.27,15.78l-1.47.13c1.57-13.95-7.3-8.36,9.57-23.54-.67-.43-3.61,2.76-4.28,2.33-12,12-6.72,7.91-8,21.52l-1.06.12c-.64,1.43-1.73,1.38-9.09-3.08-.88.68-15-8.69-15.88-8,7.2,4.35,14.44,8.68,21.91,12.76.37,1.08.78,2.16,1.14,3.25-12-1.92-6.61-.53-17.91-5.17-.47.48,17.39,7.61-12.18-.66,12,4.92,18.08,5.44,30.51,7.68a63.79,63.79,0,0,1,.15,11.56c-11.34-5.35-15-5.2-15-5.2,3.67-.15-15,.82-14.88,1.44,12.24-.51,20.42-1.21,30.08,6.43a45.39,45.39,0,0,1-2.86,15"/></g></svg>
