<svg xmlns="http://www.w3.org/2000/svg" xmlns:xlink="http://www.w3.org/1999/xlink" width="1915.97" height="1109.41" viewBox="0 0 1915.97 1109.41"><defs><style>.cls-1{fill:none;}.cls-2{clip-path:url(#clip-path);}.cls-3{fill:#756b6b;}.cls-4{fill:url(#linear-gradient);}</style><clipPath id="clip-path"><rect class="cls-1" x="-2.83" y="1204.21" width="1920" height="1080"/></clipPath><linearGradient id="linear-gradient" y1="554.71" x2="1915.97" y2="554.71" gradientUnits="userSpaceOnUse"><stop offset="0.13" stop-color="#846dca"/><stop offset="0.39" stop-color="#522753"/><stop offset="0.6" stop-color="#6e363b"/><stop offset="0.92" stop-color="#adaabe"/></linearGradient></defs><g id="Layer_3" data-name="Layer 3"><g class="cls-2"><path d="M569.52,1213.59c-5.61-14.58-21.4-24.35-51.15-31.91,13.12-28.1-26.74-82.15-30.38-64.48C510.42,1008.34,430.11,997,393.94,997c-65.11,0-59.48,61.4-91,60-40-1.72-82.66,14.27-89.9,59.08,2.11-13.07-140.35,38.25-107.07,99.45-38-70-146.13-3.28-146.13-3.28-51.47-25.29-81-36.06-166.39-1.09-24.52,10-40.4,44.91-37.62,64.48-35.56,17.71-43.5,48-30.39,79.79,28.22,68.3,45.94-4.43,72.35,73.77-73.81,60,96.22,107.65,106,94.7,12.12-16,59.59,28.94,103,20.06,28-1,41.3-17.71,61.49-23,9.73-2.52,92.71-26,66.56-37.7,83.2,37.16,131.08-2.72,168.56-61.75,22,1.14,35.49-23.47,48.47-13.66,43.41,32.78,147.61,4.11,144-63.94-15.27-58.84,38,8.11,74.07-110.06A31,31,0,0,0,569.52,1213.59Z"/><path class="cls-3" d="M562.9,1232.85c0-19.16-23.36-35.79-57.52-44a40.93,40.93,0,0,0,3.81-17.14c0-20.36-15.37-38-37.82-46.71a74.4,74.4,0,0,0,14.94-44.59c0-43.25-37.59-78.31-84-78.31-42.69,0-77.93,29.72-83.25,68.18a72.21,72.21,0,0,0-99.16,53.84,71.77,71.77,0,0,0-17.56-2.19c-48.91,0-88.56,49.67-88.56,110.94,0,1.09,0,2.17,0,3.25l-.79-.12c-10.87-24.62-41.63-42.36-77.87-42.36-32.06,0-59.82,13.88-73.33,34.13-19.67-16.74-51.28-27.59-86.93-27.59-59.65,0-108,30.38-108,67.85a43.68,43.68,0,0,0,1.49,11.24c-20.53,9.31-34.75,29.41-34.75,52.72,0,32.16,27.08,58.24,60.48,58.24,2.18,0,4.33-.12,6.45-.33a39.17,39.17,0,0,0-.29,4.74c0,11.51,5,22.3,13.82,31.57-12.52,8.75-20,19.76-20,31.73,0,28.47,42.26,51.55,94.39,51.55a158.31,158.31,0,0,0,46.29-6.62c9.63,19.86,34.88,34,64.51,34,26.3,0,49.14-11.17,60.67-27.57,1.8.1,3.6.16,5.42.16,30.87,0,57.42-13.9,69.33-33.86a100,100,0,0,0,57.35,18.2c46.79,0,86.54-32.82,101-78.5,1.92.12,3.86.19,5.81.19a88.06,88.06,0,0,0,51.29-16,90.78,90.78,0,0,0,52.14,16c46.27,0,83.78-33,83.78-73.74a65.59,65.59,0,0,0-4.74-24.49c37.57-8.91,63.45-27.62,63.45-49.26a27.88,27.88,0,0,0-.89-6.92C555.89,1253.08,562.9,1243.35,562.9,1232.85Z"/></g><rect class="cls-4" width="1915.97" height="1109.41"/></g></svg>
