<svg xmlns="http://www.w3.org/2000/svg" width="817.97" height="572.38" viewBox="0 0 817.97 572.38"><defs><style>.cls-1{fill:#a52323;}.cls-2{fill:#cc2f2f;}.cls-3{fill:#451c54;opacity:0.6;}.cls-4{fill:#727051;}.cls-5{fill:#070705;}.cls-6{fill:#d6d061;}.cls-7{opacity:0.2;}.cls-8{opacity:0.3;}.cls-9{fill:#050505;}.cls-10,.cls-15{opacity:0.5;}.cls-11{fill:#070706;}.cls-12{fill:#acc642;}.cls-13{fill:#9422af;}.cls-14{fill:#d3d6bd;}.cls-16,.cls-17{opacity:0.1;}.cls-18{fill:#c1d687;}</style></defs><g id="Layer_3" data-name="Layer 3"><path d="M82.49,166.24a8.08,8.08,0,0,1-.85,3.66,25.74,25.74,0,0,1-1.94,3.28c-.66,1-1.42,2-1.93,3a4.6,4.6,0,0,0-.85,2.73,6,6,0,0,0,1.72,3.29,8,8,0,0,1,1.66,4.39,5.28,5.28,0,0,1-1.18,3.74,3.34,3.34,0,0,1-2.45,1.13,3.4,3.4,0,0,1-3.07-1.68,17.12,17.12,0,0,1-1.83-3.72c-.46-1.16-.91-2.78-1.22-3.7s-.41-1.67-1.24-1.73-1.15,1.38-1.34,2-.75,2.09-1.55,2c-2.82-.26-3.31-2-3.45-4.63a32.47,32.47,0,0,1,.35-4.7,27.19,27.19,0,0,0,.34-4.93c-.1-1.11-.24-2.07-1.76-1.9-2.4.28-2.66,3.57-2.61,5.84a30.36,30.36,0,0,0,.47,4.77,20.4,20.4,0,0,1,.48,2.78c.17,3.16-.7,6.67-2.68,8.36a8.55,8.55,0,0,1-5.31,2.18,3,3,0,0,1-2.22-.71,3.88,3.88,0,0,1-1.46-2.14c-.54-2.41-1.58-5.66-3.35-7a7.19,7.19,0,0,0-4.29-1.56,9.4,9.4,0,0,0-2.2.24,19,19,0,0,0-2.91.72,7.55,7.55,0,0,0-2.54,1.56,3.85,3.85,0,0,0-1.1,2.54c0,3.81-.16,9.58-.24,12.73s-.65,5.55-3.1,5.84c-3.08.36-3.43-1.91-3.76-4.28,0-.27.09-1.58.13-2s.1-2,.11-2.26c.19-3.67-.22-10-1.24-12.68s-1.41-2.78-3.12-3.3c-1.22-.37-1.53.76-2.24,1.4s-1.24,1.51-2.46,1.41a5.27,5.27,0,0,1-3.3-1.25,4.86,4.86,0,0,1-1.56-3.88,14.83,14.83,0,0,1,.95-4.37,11.86,11.86,0,0,0,1-3.23c-.05-1.58-.7-1.64-2-1.79-.47-.05-.92.41-1.21,1S9.35,171,9,171.63s-1,1.59-1.45,2.15-1,1.08-1.71,1c-1.4-.25-1.92-.44-1.94-2.29a24.66,24.66,0,0,1,.73-4.63,33.22,33.22,0,0,0,.7-7,29.79,29.79,0,0,0-1.45-7.28,25.8,25.8,0,0,1-1.46-7.1,8.41,8.41,0,0,1,.6-3.08,9.15,9.15,0,0,0,.6-3.06,20,20,0,0,0-.24-2.67c-.13-.9-.29-2.33-.36-3.22a23.94,23.94,0,0,0-.36-2.74,12.43,12.43,0,0,1-.24-1.47c0-1.3,0-2.6.11-3.67s.12-2.6.12-3.35a13.87,13.87,0,0,0-.72-4.75,23.49,23.49,0,0,0-1.59-3.33c-.59-1.12-1.09-1.79-1.6-3A8,8,0,0,1-2,108.47a11.77,11.77,0,0,1,2-6.19,12.91,12.91,0,0,0,1.93-6.94c0-.92-.07-3.09-.11-4s-.12-2.65-.12-3.1a39.7,39.7,0,0,1,.48-5.62,47,47,0,0,0,.48-4.77,10.34,10.34,0,0,0-.48-3.93,11.59,11.59,0,0,1-.48-4.11A15.78,15.78,0,0,1,2,67.41c.2-.85.5-2.37.73-3.47s.5-2.45.72-3.61A18.42,18.42,0,0,0,3.82,57c.11-3.21-.16-6.36.06-9.74S4.73,39,5.17,35.84A19.9,19.9,0,0,1,7.52,28.1a15.4,15.4,0,0,1,5-5.43c2.37-1.8,5.93-3.27,8.94-4.46,1.9-.75,4.3-1.84,6.05-2.76a50,50,0,0,1,4.71-2.32,22.85,22.85,0,0,1,5.09-1.59A33.69,33.69,0,0,1,44.45,11C49.94,11.11,56,12,60.91,14.59a35.09,35.09,0,0,1,11.9,9.75,40.23,40.23,0,0,1,7.1,14A59,59,0,0,1,82.22,55.2,53.54,53.54,0,0,1,81,62.6a68.53,68.53,0,0,0-1.17,12.57c0,1.11.12,4,.24,5.77s.28,4.91.23,6.91a8.48,8.48,0,0,1-.52,3.43c-.49,1.14-1.53,1.5-3,1.42a2.18,2.18,0,0,1-1.89-2,18.16,18.16,0,0,1-.48-3.9,23.29,23.29,0,0,1,.38-3.09,25.62,25.62,0,0,0,.33-5.17,3,3,0,0,0-3.41-3.06,2.33,2.33,0,0,0-2.3,1.57,14.46,14.46,0,0,0-.85,3.62c-.13,1.16-.46,2.59-.6,3.6a1.84,1.84,0,0,1-1.53,1.6,5.72,5.72,0,0,1-3.79-.79,2.17,2.17,0,0,1-.91-1.87,11,11,0,0,1,.47-2.87,21.09,21.09,0,0,0,.47-2.84,5.53,5.53,0,0,0-1.57-4.19,27,27,0,0,0-3.44-2.72,17.42,17.42,0,0,1-3.43-3,7.08,7.08,0,0,1-1.55-4.9,23.8,23.8,0,0,1,1-5.35,26.36,26.36,0,0,0,1-5.33,19.74,19.74,0,0,0-.82-6.2,10.63,10.63,0,0,0-1.93-3.56,4.16,4.16,0,0,0-2.17-1.5,4.38,4.38,0,0,0-1.6-.27c-2.1.18-3.53.34-3.7,2.74a18,18,0,0,0,.71,4.2,26.91,26.91,0,0,1,.72,4.87,25.75,25.75,0,0,1-.84,6.4c-.49,1.82-1.18,2.88-2.79,3.09a3.33,3.33,0,0,1-2.36-.61,2.3,2.3,0,0,1-1.08-2.31,11.83,11.83,0,0,1,.72-3.82,12.53,12.53,0,0,0,.73-3.61,4.24,4.24,0,0,0-.81-2.76c-.48-.56-.89-.9-1.35-.88a2.84,2.84,0,0,0-2.37,1.34,11.23,11.23,0,0,0-1.82,3.37,42.11,42.11,0,0,0-1.22,4.19,21.35,21.35,0,0,0-.49,3.84c0,2.15.09,4.55.24,6.28a39.56,39.56,0,0,0,.6,4.17c.25,1.31.48,2,.74,3.1a11.09,11.09,0,0,1,.36,3.07,12.79,12.79,0,0,1-2.43,6.9A11.63,11.63,0,0,0,29.25,91c0,.43.18,1.8.38,3.18s.56,4.23.84,6.33.63,5.58.84,7.89.34,5.84.37,7.77a53.42,53.42,0,0,1-.82,10,33.64,33.64,0,0,0-.88,5.32,10.28,10.28,0,0,0,.5,4.43c.51,1.86,1.15,3.7,1.7,5.71.43,1.57.81,3.62,1.1,5.29a18.6,18.6,0,0,0,1.23,4.84,6.8,6.8,0,0,0,2.75,3.54,8.54,8.54,0,0,0,5.54,1.29,9.27,9.27,0,0,0,7.11-4,14,14,0,0,0,1.93-14.11A14,14,0,0,1,50.75,134a9.4,9.4,0,0,1,.49-2.71,34.08,34.08,0,0,1,1.21-3.47c.41-1,.91-2.52,1.2-3.34a10,10,0,0,0,.49-2.3,5.61,5.61,0,0,0-2.67-5.08,9.05,9.05,0,0,0-3.58-1.51,4.24,4.24,0,0,0-2.27.46,1.67,1.67,0,0,0-1.21,1.68,21.11,21.11,0,0,0,.71,5.57,23.92,23.92,0,0,1,.72,5.52c-.06,2.45-.58,4.56-3.16,4.6s-3-2-3.18-4.37c0-.39.08-1.89.12-2.61s.14-2.12.12-2.84A17.66,17.66,0,0,0,38,116.48a19.72,19.72,0,0,1-1.68-8.21,19.07,19.07,0,0,1,2.45-9.89c1.82-2.89,4.1-3.64,7.32-3.94a17.62,17.62,0,0,1,2.17.11c.66,0,1,.14,1.75.12a25.73,25.73,0,0,0,4.28-.73,26.28,26.28,0,0,1,4.93-.71,8.58,8.58,0,0,1,3.48.85c1.24.5,2.68,1.15,3.89,1.69s2.84,1.18,3.86,1.68a10.93,10.93,0,0,0,3.36.85c2.28.17,4.85-.27,6.49.9s1.3,2.3,1.42,4.37a32.73,32.73,0,0,1-.95,6.91,32.6,32.6,0,0,0-1,6.79,19.52,19.52,0,0,0,.36,3.31c.21,1.24.51,2.93.73,4.33s.52,3.2.72,4.56a25.3,25.3,0,0,1,.37,3.79,91.61,91.61,0,0,1-.85,10.58,85,85,0,0,0-.84,10.63,23.16,23.16,0,0,0,1.1,5.43A25.89,25.89,0,0,1,82.49,166.24Z"/><path d="M121.35,11.81c2.06-.15,3.78,1.28,5.79,2a25.06,25.06,0,0,0,7.08,1.52,20.07,20.07,0,0,0,8.05-1.54,12.62,12.62,0,0,1,6.13-1.57c2.09.12,3.23,0,4,2.27s1.12,4.83,2,7.83c.49,1.62,1.63,5.7,2.13,7.78.4,1.65.71,3.41,1,5a40.52,40.52,0,0,1,.71,4.51,24.43,24.43,0,0,1-.46,4.61,36.29,36.29,0,0,0-.48,4.79,115,115,0,0,0,1.51,18.11c.06.39.6,2.59,1.26,4.67s1.83,6.7,2.64,10.13,2,9,2.64,12.92a84,84,0,0,1,1.22,12.61,44.27,44.27,0,0,0,.85,8.76c.57,2.68,1.16,4.44,1.84,6.75s1.24,3.78,1.84,6.15a27.06,27.06,0,0,1,.86,6.82c.06,2.19.24,4.65.64,7.82a106.12,106.12,0,0,0,2.75,12.37c.91,3.22,2,8,2.9,10.74a63.45,63.45,0,0,1,1.73,7.09c.41,2.12.54,3.4.76,5.05a36.89,36.89,0,0,1,.24,4.71c0,4.7-1.05,9.55-6,9.93-3.17.25-3.62-1.6-4-4a12.16,12.16,0,0,1,.24-2.65,20.8,20.8,0,0,0,.23-2.63c-.07-1.64-.48-2.85-2.19-2.91-1.13,0-1.66.66-2.08,1.69a16.83,16.83,0,0,0-.85,3.61c-.18,1.15-.35,2.55-.62,3.61S165,192,163.88,192s-1.5-.72-2-1.71a23.92,23.92,0,0,1-1.21-3.7,32.17,32.17,0,0,0-1.09-3.69c-.37-.84-.66-2-1.6-1.66-1.51.5-1.44,2.68-1.46,4.39a32.39,32.39,0,0,0,.36,3.55,33.69,33.69,0,0,1,.36,4.26,5.79,5.79,0,0,1-.84,3.5c-.66.84-1.12,1.19-2.1,1.11-1.39-.1-2-.73-2.69-2.22a19,19,0,0,1-1.34-5.32c-.23-2-.38-4.53-.48-6.74s0-4.48-.15-6.8a45.09,45.09,0,0,0-1.58-9,46.27,46.27,0,0,1-1.32-10.33,39.38,39.38,0,0,0-1.09-9.6c-.74-2.61-1.49-3.64-3.8-4-1.06-.16-1.49.76-2,1.7a21.52,21.52,0,0,0-1.22,3.71,18.71,18.71,0,0,1-1.34,3.72,2.57,2.57,0,0,1-2.31,1.7,3.66,3.66,0,0,1-2.6-1.34,30.55,30.55,0,0,1-2.65-3c-.75-.91-1.79-2.25-2.41-3s-1.14-1.37-1.84-1.35c-1.65,0-1.68,1.62-1.74,2.87a6.21,6.21,0,0,0,.72,3.54,5.42,5.42,0,0,1,.69,3.63c-.06.89-1.2,2-2.45,2.6a4,4,0,0,0-2.38,3.62,11.36,11.36,0,0,0,.85,3.62,13.89,13.89,0,0,1,.84,4.27c0,1.65-.2,3.09-1.43,3.91s-2,.78-3.24,1.55a7.42,7.42,0,0,0-3.21,2.78c-1.12,1.72-1.46,4.89-1.41,7.46a32.75,32.75,0,0,1-.37,5.26,2.8,2.8,0,0,1-3,2.4,3.11,3.11,0,0,1-3.18-1.92,20.12,20.12,0,0,1-1.12-4.24c-.28-1.4-.48-2.95-.87-4.22s-.87-1.87-2.22-1.95c-.58,0-1.11.45-1.58,1a20.85,20.85,0,0,0-1.56,2c-.44.65-1.12,1.51-1.57,2a2.34,2.34,0,0,1-1.58,1c-2-.08-2.6-1.09-2.7-2.89a13,13,0,0,1,.23-2.94c.18-1.1.38-1.7.62-3.1a44.34,44.34,0,0,0,.61-4.54c.15-2,.22-4.4.24-7s-.06-6.35,0-9.34a39.23,39.23,0,0,1,.75-8.36c.81-3.9,1.13-5.85,2.29-11s3.77-15.63,5.2-21.43a26.35,26.35,0,0,0,1-5.94c0-1.15-.14-1.07-.61-1.91a3.48,3.48,0,0,1-.59-2.41,24.74,24.74,0,0,1,.62-4.59c.4-1.75,1.19-4,1.8-6a54.59,54.59,0,0,0,1.48-6.55c.41-2.38.56-3.84.88-6.81s.57-5.36,1.12-9.48,1.52-9.62,2.43-15c.58-3.44,1.23-9.55,1.57-13.89s.94-10.85,1.44-15.07a69.76,69.76,0,0,1,2.42-12.15C117.61,13.67,118.46,12,121.35,11.81Zm10.24,76.62c-1,0-1.48.7-2,1.84a32.39,32.39,0,0,0-1.33,4.33,44.86,44.86,0,0,0-.85,5.39c-.14,1.6-.22,3.69-.24,5a9.77,9.77,0,0,0,.7,4c.49,1.2.84,1.37,1,2.67.08.77-.44,1-.85,2.13s-1.12,2-.74,4.12,5,3,7.57,2.69c1.39-.16,4.4-.13,5.56-.94s1.55-1.08,1.66-2.24a9.84,9.84,0,0,0-.48-3.2,26.48,26.48,0,0,1-.47-4.54c0-2.86-.07-7.2-.11-9.52a43.9,43.9,0,0,0-.46-5.49,6.41,6.41,0,0,0-.72-2.38c-.28-.58-.42-.55-.63-.55-.88,0-1.05.51-1.25,1.32s-.32,2-.49,2.88a14.59,14.59,0,0,1-.74,2.89c-.36.82-.75,1.37-1.72,1.32s-1.35-.76-1.58-1.84a25.23,25.23,0,0,1-.36-4.06,31.75,31.75,0,0,0-.24-4C132.66,89.27,132.61,88.43,131.59,88.43Z"/><path d="M267.52,11.45a9.38,9.38,0,0,1,5.15,1.7,12.82,12.82,0,0,0,6.53,1.66,40.81,40.81,0,0,0,8.21-.82,25.84,25.84,0,0,1,5.74-.86,12.06,12.06,0,0,1,2.1.13,6.74,6.74,0,0,1,5,3.07,8,8,0,0,1,.95,4.1,12.32,12.32,0,0,1-.24,2.3c-.18.81-.32,1.43-.49,2.46s-.35,1.89-.49,3.32a41,41,0,0,0-.23,5.11,17.58,17.58,0,0,0,.87,4.59c.54,1.61,1.28,3.88,1.94,5.77s1.42,4.39,1.93,6.38a26.31,26.31,0,0,1,.86,6.14,10.47,10.47,0,0,1-1,4.65c-.68,1.51-1.34,2.57-2.09,4.05a46.27,46.27,0,0,0-2.07,4.64,19.62,19.62,0,0,0-1,6.09c0,3.35-.11,7.61-.36,10.42a60.44,60.44,0,0,0-.37,6.37,22.18,22.18,0,0,0,.74,5.27c.43,1.93,1.1,4.17,1.69,6.15s1.26,4.35,1.7,6.27a27.64,27.64,0,0,1,.74,5.56,8,8,0,0,1-.6,3.3c-.41,1-.8,1.66-1.23,2.59s-.83,1.72-1.22,2.69a10,10,0,0,0-.61,3.36,72.59,72.59,0,0,0,.36,7.56c.24,2.15.53,3.72.85,5.52s.62,2.95.86,4.67a25,25,0,0,1,.35,4.91,10,10,0,0,1-1.85,5.26,13.16,13.16,0,0,0-1.76,7.38,5.3,5.3,0,0,0,1.49,3.43c1.08,1.25,1.47,3.43,1.41,5.58a55.83,55.83,0,0,1-.37,5.61,25.87,25.87,0,0,1-1.34,5.52,12.11,12.11,0,0,1-2.46,4.14,5,5,0,0,1-3.94,1.58,5.16,5.16,0,0,1-3-1.21,26.05,26.05,0,0,1-3-2.76c-.83-.92-2.12-2.07-2.88-2.76a4.68,4.68,0,0,0-2.42-1.23,2.88,2.88,0,0,0-2.72,1.06,3.09,3.09,0,0,0-.74,2.34,15.83,15.83,0,0,0,.6,2.66,33.39,33.39,0,0,1,.34,5.62c0,2.48,0,7,0,9.09a24,24,0,0,1-.35,4.89c-.28,1.28-.3,1.54-1,2s-.93.47-1.9.38c-1.75-.16-2.67-1.65-3.24-3.54a26.55,26.55,0,0,1-1.08-6.81,31.77,31.77,0,0,1,.71-6.46,30.29,30.29,0,0,0,.74-4.59,8.73,8.73,0,0,0-.92-4.15,35,35,0,0,1-2.33-5.76,17.24,17.24,0,0,1-.39-4.63,20.22,20.22,0,0,1,1.33-6.44,23.25,23.25,0,0,0,1.33-6.19,44.19,44.19,0,0,0-.45-7.51,20.17,20.17,0,0,0-1.1-4c-.45-1.31-.72-1.49-1.12-2.66a7.91,7.91,0,0,1-.48-3.32A62.83,62.83,0,0,1,270.79,130a70,70,0,0,0,1.57-14.58c0-1.7-.06-4.44-.12-6.5s-.28-5.29-.48-7.29a31,31,0,0,0-1.19-6c-.49-1.35-.89-2.82-2.09-2.58-1.94.39-1.91,1.27-2,4s-.25,7.32-.5,11.13a83.35,83.35,0,0,1-1.58,12.19c-.87,3.63-1.85,7.64-2.8,11.14s-1.83,7-2.57,10.31a49.21,49.21,0,0,0-1.11,9.61,31.69,31.69,0,0,1-1.11,7.77c-.69,2.56-1.58,5.12-2.43,7.52s-1.74,4.73-2.43,7a20.72,20.72,0,0,0-1.1,6.39,14.51,14.51,0,0,0,1,4.67,22,22,0,0,1,.93,6.76,17.2,17.2,0,0,1-1,5.38c-.65,1.58-1.54,2.79-3.42,2.76s-2.38-1.62-2.42-3.38a37.15,37.15,0,0,1,.35-5,28.43,28.43,0,0,0,.36-3.6c-.14-3.51-.44-6.38-4.17-6.91-.66-.09-1.39.48-2.08.84a4.93,4.93,0,0,1-2.54.81,2.21,2.21,0,0,1-2-1.36,12,12,0,0,1-1.09-3.38c-.21-1.23-.46-2.8-.6-4.09a31.25,31.25,0,0,1-.25-3.57c0-1.38.06-2.93.12-4.49s.23-4,.37-5.49.29-3.84.36-4.87.12-2.42.12-2.68a17.25,17.25,0,0,0-2-8.28,21.27,21.27,0,0,0-4.05-4.59c-1.56-1.52-2.65-2.2-3.95-4.11s-1.68-4.1-1.68-6.83c0-1.72.1-4.5.24-6.6s.39-5.24.6-7.3.51-4.78.72-6.34a37.21,37.21,0,0,0,.37-4c0-1.83,0-2.71-.75-4s-2.17-1.08-3.39-1.27a9.22,9.22,0,0,0-3.18,2,9,9,0,0,0-2.09,3.47,18.58,18.58,0,0,0-.84,6c0,.53.05,1.78.13,2.65s.22,2.47.36,3.46.29,2.5.36,3.34.13,1.79.12,2.3c0,2.38-.07,4.65-.24,6.85s-.2,5.58-.24,7.47a126.16,126.16,0,0,0,1.74,22.46c1.11,5.3,1.79,8.64,1.88,11.93.09,3.73-.26,4.36-1.33,6.7s-2.73,2-4.76,2.43a7.17,7.17,0,0,1-1.68-.24,5.5,5.5,0,0,0-1.46-.24c-3,.56-3.34,2.67-3.42,5.7a57.05,57.05,0,0,0,.48,7,67.55,67.55,0,0,1,.48,7.09,35.62,35.62,0,0,1-1.66,10.89c-1,2.81-1.63,4.42-4.23,4.84-.78.13-.92-1.12-1.09-2.28a43.08,43.08,0,0,1-.35-5.72c0-.79,0-2.94,0-4,0-1.71.11-4.42.24-6s.22-4.64.24-5.46a41.91,41.91,0,0,0-.33-7.44c-.32-1.48-.16-1.39-.91-1.65s-1.44,1-2.08,1.41-1.82,1.48-2.76,1.39c-2.08-.2-2.67-1.41-2.69-3.42a67.8,67.8,0,0,1,1.55-14.16,65.88,65.88,0,0,0,1.59-12.32,69,69,0,0,0-1.64-15c-.89-3.79-1.65-7.17-2.22-9.36-1.14-4.33-1.66-5.72-1.73-9.59a40.12,40.12,0,0,1,.84-7.26,42.48,42.48,0,0,0,.85-7.33c0-1.33-.11-2.61-.25-4.29s-.39-4-.6-6-.48-4.54-.61-6.61-.26-3.48-.23-5.68a35.23,35.23,0,0,1,.62-5.4c.34-2.14.83-5.13,1.2-7.69s.86-5.76,1.21-8.43a59.34,59.34,0,0,0,.61-7.82,13.58,13.58,0,0,0-.37-2.68c-.21-1-.51-2.45-.72-3.6s-.53-2.73-.72-3.84a15.82,15.82,0,0,1-.37-3.15,17.12,17.12,0,0,1,1.12-5.84,25.3,25.3,0,0,0,1.06-8.13,11,11,0,0,0-1.21-3.77,10.51,10.51,0,0,1-1.2-3.54c0-2.68.36-5.19,2.65-6.35s3.53-1.1,6.29-1.28c1.18-.07,3.16,0,5.12,0a50.34,50.34,0,0,1,7.58.62,42.58,42.58,0,0,1,7.76,1.83c2.4.92,4,1.44,5.81,3.73a31.17,31.17,0,0,1,4.4,8.18,123.72,123.72,0,0,1,4,11.91c1.11,4,2.29,9.16,3,13.37a81.08,81.08,0,0,1,1.23,12.72c0,4.39.12,9,.25,13.07s.52,8.83.83,12.14A71.47,71.47,0,0,0,241,99.6c.5,2.09,1.14,3.7,2.42,3.65,2.56-.11,3.06-.51,4-3.41s.91-9.08,1-12.66a42.62,42.62,0,0,0-.45-7.73c-.41-1.81-.55-1.48-.51-3a12.24,12.24,0,0,1,.78-4.13c.61-2,2.26-4.36,3.91-6.68a16.25,16.25,0,0,0,1.67-4.82c.33-1.76,1-4.86,1.31-7s.7-5.17.85-7.32a42.45,42.45,0,0,1,.73-5.86,17.16,17.16,0,0,1,1-3.32c.47-1.2,1-2.62,1.46-3.86s.95-2.71,1.33-3.85a11.28,11.28,0,0,0,.61-3.27,11.54,11.54,0,0,0-.71-4,9.16,9.16,0,0,1-.72-3.55,7.14,7.14,0,0,1,2.23-5A7.47,7.47,0,0,1,267.52,11.45Z"/><path d="M392.07,161.68a11.87,11.87,0,0,1-1.08,4.48,12,12,0,0,0-1.09,4.29c0,1,.14,1.81.24,3.08a34.19,34.19,0,0,1,.22,4.67c-.16,2.37-.93,4-3.7,4.08a10.62,10.62,0,0,1-2.33-.36c-.85-.2-2.34-.56-3.37-.84s-2.64-.64-3.6-.83a15.11,15.11,0,0,0-2.8-.37,5,5,0,0,0-3.69,1.46,4.54,4.54,0,0,0-1.45,3.6A12.74,12.74,0,0,0,371,190a15.06,15.06,0,0,1,1.05,6.62c0,.65.11,1.5-.4,2a2,2,0,0,1-2.14.57c-1.1-.19-2-1.29-2.63-2.85s-1.77-4.22-2.39-6.08-1.81-4.5-2.52-6.09-1.69-2.71-3-2.84c-2.1-.2-3.41,1.23-4.39,2.44a7.47,7.47,0,0,0-1.75,3.75,4.21,4.21,0,0,0,.7,2.69,6.49,6.49,0,0,1,.72,2.4c.05,1.55-.12,3.43-.93,4.35a2.83,2.83,0,0,1-2.47,1,4.61,4.61,0,0,1-4.26-2.28,23.52,23.52,0,0,1-2.22-5.18c-.56-1.68-1-3.75-1.59-5.16s-.7-2.21-2.28-2.33c-.53,0-1.17,1.14-1.71,1.83s-1.49,1.85-2.93,1.73a7.88,7.88,0,0,1-3.48-1.8,7,7,0,0,0-3.51-1.8,3.75,3.75,0,0,0-2,.71,4.93,4.93,0,0,1-1.92.71,2.33,2.33,0,0,1-2.35-1.33,10,10,0,0,1-.87-3.14,16.11,16.11,0,0,1-.12-3.56,14.69,14.69,0,0,0-.09-2.51c-.11-1.91,0-3,0-4.75,0-1,.07-1.9.12-2.92s.12-2.08.12-3.14c0-1.76,0-3.56,0-5.33,0-2.58.1-4.64.25-7.36s.39-6.16.61-9,.45-6.34.6-9,.23-4.93.25-7.31a27.07,27.07,0,0,1,.49-4.76c.28-1.57.73-3.39,1.08-4.69s.82-2.85,1.09-3.72a8.81,8.81,0,0,0,.5-2.08c-.16-2.61-1.31-3.25-3.67-3.49a5,5,0,0,0-1.69.36,5.62,5.62,0,0,1-1.69.36,1.78,1.78,0,0,1-1.83-1.44,9.66,9.66,0,0,1-.38-2.66,9.28,9.28,0,0,1,.14-2,8.62,8.62,0,0,1,.88-2.68,27.78,27.78,0,0,0,2.75-8.65,83.17,83.17,0,0,0,.62-8.92,39.67,39.67,0,0,1,1.57-11.06,33,33,0,0,0,1.6-9.48,8,8,0,0,0-.38-2.07c-.21-.8-.56-2-.84-3s-.64-2.44-.84-3.47a16.47,16.47,0,0,1-.37-3c0-1.52.12-2.95.24-4.38s.25-2.73.23-4.14a19.44,19.44,0,0,0-.6-4,21.21,21.21,0,0,1-.6-4.47,8.49,8.49,0,0,1,.36-2.19,7,7,0,0,0,.35-2.23A7.31,7.31,0,0,0,321.23,24,6.57,6.57,0,0,1,320,20.68c.16-2.08.67-3.23,2.6-4.28a15.21,15.21,0,0,1,6.72-1.34c.42,0,1.51.07,2.17.12s2,.12,2.62.12a9.24,9.24,0,0,0,4.9-1.08,7.27,7.27,0,0,1,4.21-1.09,7,7,0,0,1,3.37,1.07,6,6,0,0,0,2.92,1.08,3.26,3.26,0,0,0,2.14-.72,4.54,4.54,0,0,1,2.86-.71,12.63,12.63,0,0,1,5.67,1.93,11.2,11.2,0,0,0,5.72,1.92,6.46,6.46,0,0,0,3.82-1.33,8.6,8.6,0,0,1,4.47-1.31,6.33,6.33,0,0,1,2.93.59,4.19,4.19,0,0,0,2.25.61,5.36,5.36,0,0,0,2.5-.85,5.48,5.48,0,0,1,4-.72c.77.21,1.63.78,2,2.87a44.88,44.88,0,0,1,.78,9.44c-.05,1.24.24,4.71.49,7.21s.8,7.13,1.21,10.27,1,7.86,1.2,10.87a80.16,80.16,0,0,1,.47,8.6c-.16,3.57-1.71,4.49-4.88,4.68-2.22.13-3.31-1.36-3.39-3.62,0-.46.06-1.47.12-2.18S384,60.74,384,60s.05-2.09.12-2.6.11-1.38.12-1.49c.11-3.06-.31-8.55-.44-10.76s-.42-4.64-1.67-4.9c-1.74-.37-1.77,1.11-2,2.48s-.29,3.74-.38,5.37-.35,3.89-.6,5.39-1,2.4-2.15,2.58a2.47,2.47,0,0,1-2.7-1.85c-.6-2-1-4.35-1.48-5.88a18,18,0,0,0-1-3c-1.41-.94-3.19-2.13-4.6-3a9,9,0,0,0-4.36-1.34,4.91,4.91,0,0,0-3.2.94,10.55,10.55,0,0,0-2.1,2.06c-.61.71-1.09,1.42-1.59,2.06a2.3,2.3,0,0,1-1.71,1,5,5,0,0,1-1.83-.23,3.59,3.59,0,0,0-1.36-.24c-2.71.29-4.4,1-5.36,3.82a31.07,31.07,0,0,0-1.23,9.29,31.7,31.7,0,0,0,1.44,9.48,28.87,28.87,0,0,0,3.51,7.15,16.45,16.45,0,0,0,4.25,4.4,6.78,6.78,0,0,0,3.81,1.53,9,9,0,0,0,1.59-.26c.63-.1,2.06-.4,2.86-.59s2.21-.45,2.86-.59,1.5-.21,1.84-.26a52.69,52.69,0,0,1,5.94-.59c1.53,0,3.31-.19,4.24-.12,1.83.16,2.26.42,3.17,1.74a7.34,7.34,0,0,1,1.11,4.44,13.6,13.6,0,0,1-1.1,3.83,12.74,12.74,0,0,0-1.07,4.58,22.84,22.84,0,0,0,.74,5c.42,1.78,1.07,4.29,1.57,6.12s1.14,4.31,1.56,5.86a18.79,18.79,0,0,1,.74,4.26,14.24,14.24,0,0,1-2,6.88c-1,1.82-2.12,3.4-3.76,3.57s-2-.71-2.49-2a33.47,33.47,0,0,1-.88-4.58,28.55,28.55,0,0,0-1.1-4.58,3,3,0,0,0-2.88-2.06,2.26,2.26,0,0,0-2.47,1.43,8.65,8.65,0,0,0-.51,3,14.36,14.36,0,0,1-.38,3,1.74,1.74,0,0,1-1.81,1.44,2.14,2.14,0,0,1-2-1.21,24.93,24.93,0,0,1-1.46-2.76,31,31,0,0,0-1.46-2.76,2.07,2.07,0,0,0-1.73-1.23,12,12,0,0,1-2.55-.49,6.39,6.39,0,0,0-2.53-.48c-1.81.3-3.11.11-3.18,2.54,0,1.47.31,2.09.88,4.56a52,52,0,0,1,.79,11.06,28.44,28.44,0,0,1-1.68,6.6c-.72,1.68-1.86,4.16-1.67,6,.29,2.77.84,3.89,3.18,6.09s7,3,10.73,2.93c.58,0,1.68,0,2.57-.11a27.82,27.82,0,0,1,3.08-.12,33.15,33.15,0,0,1,6.52,1,30.3,30.3,0,0,0,6.33,1,12.48,12.48,0,0,0,1.62-.11,9.86,9.86,0,0,1,1.85-.12,7.68,7.68,0,0,1,5.08,2.44A7.39,7.39,0,0,1,392.07,161.68Z"/><path d="M608.16,12.73a4.81,4.81,0,0,1,2.55.48,7,7,0,0,1,2,1.21,7.63,7.63,0,0,0,2.1,1.22,9.29,9.29,0,0,0,3.18.48c.77,0,2.42-.14,3.32-.22a22.13,22.13,0,0,1,3.11-.24c3.25.32,5.38,1,7.62,3.5s3,5.24,3.18,8.83a15.9,15.9,0,0,1-.46,2.89c-.27,1.14-.75,3.25-1.16,4.88s-.88,4.15-1.16,6a45.32,45.32,0,0,0-.49,6.22c0,2.69-.41,5.22-2.83,5.69-1.21.23-1.22-.15-2.17-.09s-.72-.45-2-.07c-2,.6-3.06,2.42-4.11,5.14a31.91,31.91,0,0,0-2.15,10.86,54.28,54.28,0,0,0,.8,7.64,35.64,35.64,0,0,1,.82,6.28,21.33,21.33,0,0,1-.39,4.08c-.27,2-.56,4.91-.62,7.16,0,1.08,0,2.82-.15,3.8s-.14,1.65-.26,2.44a4.76,4.76,0,0,1-.64,1.83,9.33,9.33,0,0,1-1.47,1.78,18.6,18.6,0,0,0-3.58,5.23,27.59,27.59,0,0,0-1.79,6.28c-.48,2.61-.8,5.13-1.19,8.44s-.85,7.76-1.35,11.66c-.27,2-.84,5.15-1.29,7.48s-1.11,5.36-1.66,7.65-1.17,4.93-1.66,6.94-.74,3.5-1.06,5.22a43.57,43.57,0,0,1-2,7.56A56.34,56.34,0,0,0,598.7,181c-.65,4.13-1.62,11.59-1.77,16.08s-.45,16.2-.41,18.62c.24,12.11.57,26.12,1,35.41s1.2,21.33,1.44,26.66c.42,9.3.64,17.58-.78,22.64s-2.32,3.74-4.32,2-2.82-4.28-3.5-8.77a147.06,147.06,0,0,1-1.15-17.81c-.06-3.22-.41-13.84-.41-19.09s-.49-20.43-.44-24.39c.2-14.08,0-38.59-2.15-47.51s-1.87-2.24-5-4.45c-2-1.43-3.69,2.16-4.93,2.9s-3,3-4.45,3.07c-2.22.07-3-.38-4.06-2.08a10.38,10.38,0,0,1-1.3-5.39c0-1.16.21-3.67.27-4.87s.32-3.44.27-4.11c-.25-3.36-.42-4.57-2.08-7.55s-3.83-6.32-5.85-9.75c-1.1-1.87-2.94-4.83-4-7.11a16.46,16.46,0,0,1-1.87-7.25,35.89,35.89,0,0,1,1.39-8.38,38.18,38.18,0,0,0,1.39-8.31,77.64,77.64,0,0,0-.74-11.48c-.5-3.81-1.13-7.56-1.72-11.21s-1.2-7.18-1.72-10.67a69.13,69.13,0,0,1-.76-10,25.31,25.31,0,0,1,.4-3.77,22.29,22.29,0,0,0,.4-3.54c-.24-5.55-1.72-8.84-7.47-9.53a9.42,9.42,0,0,0-1.34.1,10.12,10.12,0,0,1-1.57.09,3.66,3.66,0,0,1-3-1.49,4.4,4.4,0,0,1-1-3.2c.1-2,1.07-3.71,2.27-5.73A16.26,16.26,0,0,0,542,43.53a23.19,23.19,0,0,0-1-6.83A24.63,24.63,0,0,1,540,30a30.35,30.35,0,0,0-.29-5.51,12.65,12.65,0,0,1-.33-3.2c.1-2.24.39-4.13,2-5.5s2.73-1.55,5-1.64a16.21,16.21,0,0,1,4.21,1.14,17.18,17.18,0,0,0,5.2,1.13,16.33,16.33,0,0,0,4.61-1,13.9,13.9,0,0,1,4.59-1c2.82.24,4.54.75,6.38,2.9a18,18,0,0,1,3.72,7.31,49.85,49.85,0,0,1,1.7,10.17c.28,3.59.37,7.84.34,11.71,0,.78-.08,2.08-.16,3.1s-.21,2.7-.29,3.76-.21,2.58-.29,3.42-.14,1.8-.15,2.28a43.09,43.09,0,0,0,.64,7.55c.38,2.28,1,4.84,1.46,6.67s1.11,3.84,1.49,5a12.42,12.42,0,0,1,.72,2.33,20.11,20.11,0,0,1-.36,3.47,26.85,26.85,0,0,0-.38,4.25,9.44,9.44,0,0,0,1.94,5.63c1.34,1.49,1.89,3.6,4.73,3,4.38-1,5-8.81,5.34-13.73.23-3.37.82-11.23.89-15.32s.29-8,.65-11.78a101,101,0,0,1,1.52-10.54,75.8,75.8,0,0,1,3.68-11.82c.86-4.82,2-11.84,3.32-16S604.85,13.41,608.16,12.73Z"/><path d="M710.8,162a12.13,12.13,0,0,1-1.09,4.49,11.81,11.81,0,0,0-1.1,4.3,29.68,29.68,0,0,0,.23,3.08,34.65,34.65,0,0,1,.21,4.69c-.17,2.37-.95,4-3.72,4.08a10.82,10.82,0,0,1-2.33-.38c-.86-.2-2.34-.57-3.37-.85s-2.64-.66-3.6-.85a16.12,16.12,0,0,0-2.8-.38,5,5,0,0,0-3.7,1.45,4.59,4.59,0,0,0-1.46,3.61,13.06,13.06,0,0,0,1.55,5.08,14.94,14.94,0,0,1,1,6.63c0,.65.11,1.51-.4,2.06a2,2,0,0,1-2.15.56c-1.1-.2-2-1.3-2.62-2.87s-1.76-4.24-2.38-6.11-1.79-4.51-2.5-6.11-1.69-2.72-3-2.85c-2.11-.21-3.42,1.22-4.41,2.43a7.59,7.59,0,0,0-1.76,3.74,4.27,4.27,0,0,0,.7,2.71,7,7,0,0,1,.72,2.4c0,1.56-.13,3.44-1,4.37a2.8,2.8,0,0,1-2.46,1,4.61,4.61,0,0,1-4.27-2.3,23.39,23.39,0,0,1-2.2-5.2c-.56-1.68-1-3.76-1.58-5.18s-.7-2.21-2.28-2.34c-.53-.05-1.17,1.14-1.71,1.83a3.55,3.55,0,0,1-2.94,1.72A7.92,7.92,0,0,1,651,185a7,7,0,0,0-3.51-1.82,3.78,3.78,0,0,0-2,.71,5.06,5.06,0,0,1-1.92.7,2.33,2.33,0,0,1-2.35-1.34,10,10,0,0,1-.86-3.15,15.57,15.57,0,0,1-.11-3.57,13.83,13.83,0,0,0-.09-2.52c-.1-1.91,0-3.05,0-4.76,0-1,.07-1.91.12-2.92s.13-2.09.13-3.16c0-1.76,0-3.57,0-5.34,0-2.58.11-4.65.26-7.38s.41-6.18.63-9.05.47-6.36.63-9,.24-5,.27-7.33a27.27,27.27,0,0,1,.5-4.77c.28-1.57.74-3.39,1.1-4.7s.82-2.85,1.09-3.72a9,9,0,0,0,.51-2.09c-.16-2.61-1.29-3.26-3.66-3.5a4.78,4.78,0,0,0-1.69.35,5.43,5.43,0,0,1-1.7.35,1.81,1.81,0,0,1-1.83-1.45,9.56,9.56,0,0,1-.36-2.66,9.24,9.24,0,0,1,.14-2,8.76,8.76,0,0,1,.89-2.68A28.14,28.14,0,0,0,640,89.55a78.08,78.08,0,0,0,.69-8.87,39.53,39.53,0,0,1,1.65-11A33.18,33.18,0,0,0,644,60.3a7.57,7.57,0,0,0-.35-2c-.2-.8-.53-2-.8-3s-.61-2.41-.8-3.43a15.86,15.86,0,0,1-.32-3,42.9,42.9,0,0,1,.29-4.32c.13-1.41.3-2.67.31-4a18.17,18.17,0,0,0-.51-3.92,20.23,20.23,0,0,1-.5-4.36,8.66,8.66,0,0,1,.4-2.14,7.11,7.11,0,0,0,.4-2.18A7.07,7.07,0,0,0,641,24.83a6.52,6.52,0,0,1-1.16-3.33c.18-2.07.67-3.24,2.59-4.31a14.74,14.74,0,0,1,6.65-1.41c.42,0,1.5.05,2.15.1s1.95.11,2.59.1a9.24,9.24,0,0,0,4.87-1.11,7.27,7.27,0,0,1,4.18-1.12,6.81,6.81,0,0,1,3.33,1,6,6,0,0,0,2.9,1.08,3.22,3.22,0,0,0,2.14-.73,4.57,4.57,0,0,1,2.85-.7,12.34,12.34,0,0,1,5.64,1.92,11.18,11.18,0,0,0,5.69,1.91,6.61,6.61,0,0,0,3.82-1.32,8.5,8.5,0,0,1,4.47-1.3,6.33,6.33,0,0,1,2.93.6,4.13,4.13,0,0,0,2.24.61,5.23,5.23,0,0,0,2.5-.84,5.45,5.45,0,0,1,4-.7c.76.2,1.61.78,2,2.87a44.45,44.45,0,0,1,.74,9.43c-.06,1.24.22,4.71.46,7.21s.76,7.13,1.15,10.27S710.61,53,710.83,56a76.77,76.77,0,0,1,.43,8.59c-.17,3.58-1.73,4.48-4.9,4.65-2.22.12-3.31-1.38-3.37-3.64,0-.45.06-1.46.13-2.17s.13-2.08.13-2.85.06-2.08.13-2.6.12-1.37.12-1.49c.13-3.05-.26-8.53-.38-10.75s-.4-4.64-1.64-4.9c-1.74-.38-1.78,1.1-2,2.46a51.16,51.16,0,0,0-.4,5.37c-.1,1.63-.38,3.88-.63,5.38s-1,2.4-2.16,2.57a2.47,2.47,0,0,1-2.69-1.86c-.6-2-1-4.35-1.46-5.88a17,17,0,0,0-1-3c-1.39-.94-3.17-2.14-4.57-3a9,9,0,0,0-4.34-1.34,5,5,0,0,0-3.2.94,10.31,10.31,0,0,0-2.12,2c-.62.7-1.11,1.4-1.62,2a2.31,2.31,0,0,1-1.71,1,5.44,5.44,0,0,1-1.82-.23,3.62,3.62,0,0,0-1.36-.24c-2.7.27-4.41,1-5.4,3.75A30.2,30.2,0,0,0,663.59,60a31.43,31.43,0,0,0,1.33,9.38,28.85,28.85,0,0,0,3.45,7.11,16.17,16.17,0,0,0,4.22,4.36,6.79,6.79,0,0,0,3.8,1.53,8.85,8.85,0,0,0,1.59-.24c.63-.1,2.06-.4,2.86-.59s2.21-.45,2.87-.59,1.5-.2,1.84-.25a52.37,52.37,0,0,1,5.93-.58c1.54,0,3.32-.18,4.24-.1,1.84.16,2.27.42,3.17,1.75a7.28,7.28,0,0,1,1.1,4.45A13.47,13.47,0,0,1,698.88,90a12.74,12.74,0,0,0-1.08,4.58,22.93,22.93,0,0,0,.72,5c.42,1.78,1.06,4.3,1.56,6.14s1.13,4.33,1.55,5.88a19.55,19.55,0,0,1,.73,4.27,14.26,14.26,0,0,1-2,6.9c-1,1.82-2.13,3.4-3.78,3.56s-2-.72-2.49-2a34.93,34.93,0,0,1-.86-4.59,29.49,29.49,0,0,0-1.09-4.59,3,3,0,0,0-2.88-2.08,2.27,2.27,0,0,0-2.47,1.42,8.68,8.68,0,0,0-.52,3,14.28,14.28,0,0,1-.38,3A1.76,1.76,0,0,1,684,122a2.17,2.17,0,0,1-2-1.23,26.9,26.9,0,0,1-1.46-2.77,30.16,30.16,0,0,0-1.45-2.78,2.07,2.07,0,0,0-1.72-1.24,10.67,10.67,0,0,1-2.55-.5,6.68,6.68,0,0,0-2.54-.49c-1.81.3-3.11.1-3.18,2.54,0,1.47.3,2.09.87,4.58a52.42,52.42,0,0,1,.75,11.08,28.14,28.14,0,0,1-1.69,6.62c-.73,1.68-1.88,4.16-1.69,6,.28,2.77.84,3.9,3.17,6.11s7,3.06,10.73,3c.57,0,1.68,0,2.57-.1a28.08,28.08,0,0,1,3.08-.11,32.34,32.34,0,0,1,6.52,1,31.21,31.21,0,0,0,6.34,1,12.48,12.48,0,0,0,1.62-.11,10.83,10.83,0,0,1,1.85-.11,7.7,7.7,0,0,1,5.08,2.47A7.42,7.42,0,0,1,710.8,162Z"/><path d="M809.17,173a7.63,7.63,0,0,1-2.16,5.73,23.53,23.53,0,0,1-4.76,3.56,38.84,38.84,0,0,0-4.64,3.07,5.15,5.15,0,0,0-2.08,4.33,11.24,11.24,0,0,0,.5,2.57,24.55,24.55,0,0,1,.46,4.65,45.6,45.6,0,0,1-1.29,10.4c-.73,2.44-1.23,4.49-3.33,4.72s-2.13-2.16-2.21-3.82a48.77,48.77,0,0,1,.23-5.09c.12-1.29.24-2.45.24-3.54,0-1.74-.11-3.11-.24-4.78s-.47-3.84-.72-5.4-.78-3.4-1.07-4.56-.85-1.87-1.56-2a3.8,3.8,0,0,0-2.47.56,6.69,6.69,0,0,0-1.61,1.2,15.35,15.35,0,0,0-1.12,1.22,1.76,1.76,0,0,1-1.46.6,2.29,2.29,0,0,1-1.48-.39c-.53-.4-.75-.6-.72-1.65a23.17,23.17,0,0,1,.74-3.87,23.83,23.83,0,0,0,.71-5.52,33.39,33.39,0,0,0-2.92-12.27,111.85,111.85,0,0,1-4.94-12.22,33.37,33.37,0,0,1-1.64-8.34,11.13,11.13,0,0,1,.23-3,18.36,18.36,0,0,0,.23-2.72,13.83,13.83,0,0,0-2.4-7.45,12.64,12.64,0,0,1-2.45-6.24,10.18,10.18,0,0,1,.46-4,11.45,11.45,0,0,0,.48-3.7c0-1.4-.63-2.65-2.16-2.61a5.07,5.07,0,0,0-3.61,1.26c-1.32,1-1.55,3.57-1.55,5.24a14.4,14.4,0,0,0,.35,3.82,7.19,7.19,0,0,1,.37,2.21c0,.65-.1,1-.47,1.23a1.32,1.32,0,0,1-1,.26c-1-.07-1.37-.63-1.71-1.59s-.6-2.33-.85-3.35a28.09,28.09,0,0,0-.75-3.24c-.36-.88-.4-1.61-1.67-1.43s-1.54,2.89-1.36,4.47c0,.26.11,2.07.24,3.11s.29,3.49.36,4.85.24,3.61.36,4.75.25,2.09.24,2.8a40.18,40.18,0,0,1-.24,4.07c-.15,1.81-.4,4-.61,6.16s-.47,5-.6,7.32-.26,4.84-.24,7a39.65,39.65,0,0,0,1.34,9.73A47.43,47.43,0,0,1,754,181.39a71.92,71.92,0,0,1-.35,8.92c-.28,2.27-.93,2.3-2.3,2.59s-2.11-.54-2.7-1.52A13.22,13.22,0,0,1,747.5,188a33.36,33.36,0,0,0-.87-3.38c-.38-1-.82-1.6-2-1.57a5.61,5.61,0,0,0-4.14,2.31,8,8,0,0,0-1.94,4.94,32.75,32.75,0,0,0,.7,6.06,33.5,33.5,0,0,1,.73,4.19c-.08,2.31-1.23,2.4-2.91,2.57a1.84,1.84,0,0,1-2.18-1.55,18.12,18.12,0,0,1-.26-3.34c0-.58.09-1.89.12-2.75s.16-2.33.11-3.2a17.33,17.33,0,0,0-.66-5.09c-.62-2-3.06-3.81-4.94-4.88-1.45-.83-3.4-2.17-3.86-3.57a8,8,0,0,1-.52-3,7.13,7.13,0,0,1,.61-2.45c.33-1,1-2.5,1.45-3.59s1.11-2.8,1.44-3.82A11.17,11.17,0,0,0,729,163a36,36,0,0,0-.72-6.85c-.43-2.26-1-4.93-1.45-7s-1-4.55-1.45-6.12a19.21,19.21,0,0,1-.74-4,42.6,42.6,0,0,1,.71-7.73c.42-2.51,1-5.27,1.45-7.48s1-4.58,1.45-6.26a17.79,17.79,0,0,0,.75-4,42.14,42.14,0,0,0-.61-6.8c-.34-2.5-.91-5.71-1.32-8.17s-1-5.66-1.33-7.66a32.59,32.59,0,0,1-.61-5.24,26.1,26.1,0,0,1,2.67-10.93A29,29,0,0,0,730.5,63.4a31.74,31.74,0,0,0-1.89-10.07,61,61,0,0,1-2.42-7.07,43.84,43.84,0,0,0-1.76-6.88A20.58,20.58,0,0,1,723,33.05a29.66,29.66,0,0,1,.72-6.11,37.51,37.51,0,0,0,.72-6.34,10.15,10.15,0,0,0-.49-2.29,9.79,9.79,0,0,1-.47-2.75,3.28,3.28,0,0,1,1.57-2.9,5.55,5.55,0,0,1,3.09-1,7.1,7.1,0,0,1,2.57.61c.92.33,2.26.84,3.26,1.19s2.39.87,3.25,1.19a7.37,7.37,0,0,0,2.33.62,26.33,26.33,0,0,0,5-.6,29.21,29.21,0,0,1,5-.59,96,96,0,0,1,9.8.6c3.28.32,6.5.57,9.78.6,0,0-.23,0-.18,0a93.26,93.26,0,0,1,18.19,5.18,39.59,39.59,0,0,1,10.35,6.41A14.82,14.82,0,0,1,802,33.35a27.21,27.21,0,0,1,1.52,5.38c.79,3.62,1.15,6.14,1.63,9.6a66.6,66.6,0,0,1,.61,10.08,34.42,34.42,0,0,1-1.32,7.65,33,33,0,0,0-1.34,7.72c-.06,3.68-.35,7.49-.74,11s-.68,7.77-.73,10.91A13.62,13.62,0,0,0,802,99.4a9.49,9.49,0,0,1,.37,2,5.56,5.56,0,0,1-1.34,3.79,3.65,3.65,0,0,1-3.08,1.58c-1.43,0-2.59-1.36-3.38-2.51s-2-2.48-3.37-2.52c-1,0-1.23.37-1.25,1.21a8.3,8.3,0,0,0,1.81,5,8.54,8.54,0,0,1,1.81,5,7.56,7.56,0,0,1-.61,2.94,10.32,10.32,0,0,0-.59,3.4,16.87,16.87,0,0,0,1.42,6c.92,2.19,1.85,4.3,2.67,6.06a20.16,20.16,0,0,1,1.52,4,27.51,27.51,0,0,1,.73,4.71c.17,1.66.28,3.81.37,5.54s.16,3.69.25,5.3a11.37,11.37,0,0,0,.85,4.06,21.33,21.33,0,0,0,2,3.8l3,4.81c1,1.52,2.06,3.56,2.78,5A11.17,11.17,0,0,1,809.17,173ZM775,71.28c0-2.67,0-5.89-.8-7.58a8.24,8.24,0,0,1-.89-3.37,12.28,12.28,0,0,1,.33-3.8,8.07,8.07,0,0,0,.37-2.36c-.18-3.09-.62-5.78-2.48-8.25s-4.17-3.33-7.34-3.38a3.39,3.39,0,0,0-3.13,2.54,16.27,16.27,0,0,0-1,5.2c0,.49.06,1.63.12,2.13s.11,1.66.12,1.89c.07,1.27-.27,2.62-1.41,2.71s-1.57-.44-2-1.31a19,19,0,0,1-.87-2.9,14,14,0,0,0-1-2.88c-.47-.78-.77-1.47-1.87-1.3s-1.26,1.83-1.17,3.29c0,.34.12,2.26.25,3.47s.39,4.11.6,5.68.47,4.4.6,5.69.24,2.91.25,3.49a10.89,10.89,0,0,1-.6,3.89,10.66,10.66,0,0,0-.6,3.54c0,2,1,3,2.88,3.15a4.63,4.63,0,0,0,2.34-.46,3.54,3.54,0,0,1,1.87-.47,2.42,2.42,0,0,1,1.83,1.1c.57.68,1.21,1.63,1.83,2.4a14.81,14.81,0,0,0,2.08,2.4,3.13,3.13,0,0,0,2.58,1.08c2.77-.35,4-1.74,5.26-4.58S774.94,74.28,775,71.28Z"/><path d="M564.26,347.21c-.09-.54-.17-1-.24-1.42s0-1,0-1.54a27.58,27.58,0,0,0-.62-5.92c-1.92-6.72-5.18-6.15-3.24-19.09,0,0-9.43,8.54-10.88,25a20.57,20.57,0,0,0-.07,2.59v0s-1.32,1.54-.44,2.71c0,0,.48.62.85.58a20.24,20.24,0,0,0,.55,2c0,.11-.06.24-.09.38-.11.51.22.58.45.57a10.27,10.27,0,0,0,3.91,5.1c-.13.49-.16,1.08.34,1.25a1.06,1.06,0,0,0,.74,0c0,.65.15,1.21.5,1.36,0,0,1.24.46.88-1.95a3.53,3.53,0,0,0,1.38-.44c.06.46.2.82.47.93,0,0,1.24.46.88-2l.05-.05a.54.54,0,0,0,.27.25s1.16.43.92-1.7c.19-.3.39-.61.57-.93.06.44.2.8.47.9,0,0,1.27.48.86-2-.07-.48-.15-.88-.21-1.26l.18-.5a.71.71,0,0,0,.35.42s1.27.47.86-2c-.07-.45-.14-.84-.2-1.21C564.11,349.18,564.51,348.77,564.26,347.21Z"/><path d="M554.12,335.78c-.29-1-.79-.93-.49-2.89a6,6,0,0,0-1.65,3.79c-.11,1.2.5,2.21,1.12,2.21s1.11-1,1.11-2.21A4.22,4.22,0,0,0,554.12,335.78Z"/><path d="M554.05,335.79c-.27-1-.76-.92-.49-2.76a5.94,5.94,0,0,0-1.51,3.6c-.1,1.13.47,2.08,1.05,2.08s1-.93,1-2.08A3.67,3.67,0,0,0,554.05,335.79Z"/><path d="M375.43,246.36c.09-.55.17-1,.24-1.42s-.05-1-.05-1.55a27.53,27.53,0,0,1,.63-5.91c1.92-6.73,5.17-6.15,3.24-19.1,0,0,9.43,8.54,10.88,25a22.83,22.83,0,0,1,.06,2.6h0s1.32,1.55.44,2.72c0,0-.48.62-.86.57a17.35,17.35,0,0,1-.55,2q0,.18.09.39c.11.51-.21.58-.44.57a10.32,10.32,0,0,1-3.91,5.1c.12.49.16,1.08-.34,1.25a1.08,1.08,0,0,1-.74,0c0,.65-.15,1.22-.5,1.36,0,0-1.24.47-.88-1.94a3.57,3.57,0,0,1-1.39-.44c-.06.46-.2.82-.46.93,0,0-1.25.46-.88-2l-.06-.05a.54.54,0,0,1-.27.25s-1.15.43-.91-1.71a10.45,10.45,0,0,1-.57-.93c-.07.45-.2.8-.47.91,0,0-1.27.48-.87-2,.08-.48.15-.89.22-1.27l-.18-.49a.66.66,0,0,1-.35.41s-1.27.48-.87-2c.08-.45.14-.85.21-1.21C375.57,248.32,375.18,247.92,375.43,246.36Z"/><path d="M385.57,234.93c.29-1,.78-.93.49-2.89a6,6,0,0,1,1.65,3.78c.1,1.21-.5,2.22-1.12,2.22s-1.12-1-1.12-2.22A4.18,4.18,0,0,1,385.57,234.93Z"/><path d="M379.69,233.85c.45-.89.92-.76,1-2.62a6,6,0,0,1,.81,3.82c-.11,1.13-.85,2-1.42,1.85s-.85-1.11-.64-2.24A3.84,3.84,0,0,1,379.69,233.85Z"/><path class="cls-1" d="M640.55,405.16c-21,19.8-160.9,9.07-183.18,8s-141.06-.55-121-19.8,120.59-32.91,167.73-26.71S661.58,385.35,640.55,405.16Z"/><path class="cls-1" d="M91.29,157.69a8.24,8.24,0,0,1-.84,3.66,27,27,0,0,1-2,3.28c-.66,1-1.42,2-1.93,3a4.67,4.67,0,0,0-.85,2.73,5.94,5.94,0,0,0,1.72,3.28,8.13,8.13,0,0,1,1.67,4.4,5.35,5.35,0,0,1-1.18,3.73,3.3,3.3,0,0,1-2.46,1.13,3.4,3.4,0,0,1-3.07-1.67,17.66,17.66,0,0,1-1.83-3.73c-.46-1.16-.91-2.77-1.21-3.69s-.42-1.67-1.25-1.73-1.15,1.38-1.34,2-.75,2.08-1.55,2c-2.82-.27-3.31-2-3.45-4.63a32.36,32.36,0,0,1,.35-4.7,27.3,27.3,0,0,0,.34-4.94c-.1-1.1-.24-2.06-1.76-1.89-2.39.27-2.66,3.57-2.61,5.83a30.49,30.49,0,0,0,.47,4.78,20.58,20.58,0,0,1,.48,2.77c.18,3.16-.7,6.68-2.68,8.37a8.61,8.61,0,0,1-5.31,2.18,3,3,0,0,1-2.22-.72,3.78,3.78,0,0,1-1.45-2.14c-.55-2.41-1.59-5.66-3.36-6.94a7.13,7.13,0,0,0-4.29-1.56,9,9,0,0,0-2.2.24,17.53,17.53,0,0,0-2.9.72,7.34,7.34,0,0,0-2.55,1.56,3.83,3.83,0,0,0-1.1,2.54c0,3.81-.16,9.58-.24,12.73s-.65,5.55-3.1,5.84c-3.07.35-3.43-1.91-3.75-4.29a19.47,19.47,0,0,1,.12-2c.05-.43.1-2,.11-2.25.19-3.67-.22-10-1.24-12.68s-1.41-2.78-3.11-3.3c-1.23-.37-1.54.75-2.24,1.4s-1.25,1.51-2.47,1.4a5.26,5.26,0,0,1-3.3-1.24,4.88,4.88,0,0,1-1.56-3.88,15.08,15.08,0,0,1,.95-4.37,11.91,11.91,0,0,0,1-3.24c-.05-1.57-.7-1.64-2-1.78-.47-.05-.92.41-1.21,1s-.8,1.5-1.2,2.15a19.69,19.69,0,0,1-1.45,2.15c-.47.56-1,1.09-1.71,1-1.4-.24-1.92-.44-1.94-2.28a24.66,24.66,0,0,1,.73-4.63,33.29,33.29,0,0,0,.7-7A29.7,29.7,0,0,0,12.63,145a25.87,25.87,0,0,1-1.46-7.11,8.35,8.35,0,0,1,.6-3.07,9.21,9.21,0,0,0,.6-3.07,18.36,18.36,0,0,0-.24-2.66c-.12-.9-.29-2.34-.36-3.22a26.65,26.65,0,0,0-.35-2.74,11.06,11.06,0,0,1-.25-1.47c0-1.3.05-2.6.11-3.67s.12-2.6.12-3.35a14,14,0,0,0-.72-4.76,23.35,23.35,0,0,0-1.59-3.32c-.59-1.12-1.09-1.79-1.59-3a7.94,7.94,0,0,1-.72-3.66,11.63,11.63,0,0,1,2-6.18,12.91,12.91,0,0,0,1.93-6.94c0-.93-.07-3.09-.11-4s-.12-2.64-.12-3.09a40,40,0,0,1,.48-5.63,46.42,46.42,0,0,0,.48-4.77,10.32,10.32,0,0,0-.48-3.92,11.62,11.62,0,0,1-.48-4.11,15.85,15.85,0,0,1,.38-2.4c.19-.86.49-2.37.72-3.47s.5-2.45.73-3.62a19.28,19.28,0,0,0,.36-3.31c.11-3.2-.16-6.35.06-9.73s.85-8.28,1.29-11.45a19.86,19.86,0,0,1,2.35-7.73,15.42,15.42,0,0,1,5-5.44c2.37-1.8,5.93-3.27,8.94-4.46,1.9-.75,4.3-1.84,6.05-2.75A50.13,50.13,0,0,1,41,4.57,23.55,23.55,0,0,1,46.08,3a33.07,33.07,0,0,1,7.17-.58C58.74,2.56,64.82,3.45,69.71,6a34.77,34.77,0,0,1,11.9,9.75,40.06,40.06,0,0,1,7.1,14A59.34,59.34,0,0,1,91,46.64a55.61,55.61,0,0,1-1.24,7.41,68.44,68.44,0,0,0-1.17,12.57c0,1.1.12,4,.24,5.77s.28,4.91.23,6.91a8.51,8.51,0,0,1-.52,3.43c-.49,1.14-1.53,1.5-3,1.41a2.16,2.16,0,0,1-1.89-2,17.58,17.58,0,0,1-.47-3.9,21.5,21.5,0,0,1,.37-3.09A25.67,25.67,0,0,0,84,70a3,3,0,0,0-3.41-3,2.33,2.33,0,0,0-2.3,1.57,14.49,14.49,0,0,0-.85,3.61c-.12,1.17-.45,2.59-.6,3.6a1.81,1.81,0,0,1-1.53,1.6,5.58,5.58,0,0,1-3.78-.79,2.15,2.15,0,0,1-.92-1.87A11.11,11.11,0,0,1,71,71.82,20.84,20.84,0,0,0,71.5,69a5.53,5.53,0,0,0-1.57-4.18,26.76,26.76,0,0,0-3.43-2.72,17.46,17.46,0,0,1-3.43-3,7.06,7.06,0,0,1-1.56-4.91,23.82,23.82,0,0,1,1-5.34,26.36,26.36,0,0,0,1-5.33,19.74,19.74,0,0,0-.82-6.2,10.79,10.79,0,0,0-1.93-3.57A4.94,4.94,0,0,0,56.92,32c-2.1.18-3.52.34-3.7,2.73a17.83,17.83,0,0,0,.71,4.2,27,27,0,0,1,.72,4.88,25.82,25.82,0,0,1-.84,6.4C53.32,52,52.63,53.1,51,53.3a3.39,3.39,0,0,1-2.36-.6,2.34,2.34,0,0,1-1.08-2.32,11.88,11.88,0,0,1,.72-3.82A12.4,12.4,0,0,0,49,43a4.28,4.28,0,0,0-.8-2.76c-.49-.57-.9-.9-1.36-.89a2.84,2.84,0,0,0-2.37,1.34A11.51,11.51,0,0,0,42.68,44a38.2,38.2,0,0,0-1.21,4.19A19.59,19.59,0,0,0,41,52.06c0,2.15.08,4.55.23,6.28a39.56,39.56,0,0,0,.6,4.17c.25,1.31.49,2,.74,3.09a11.18,11.18,0,0,1,.36,3.07,12.83,12.83,0,0,1-2.42,6.9,11.62,11.62,0,0,0-2.44,6.84c0,.44.18,1.8.38,3.19s.56,4.22.84,6.33.63,5.58.84,7.89.34,5.83.37,7.77a53.42,53.42,0,0,1-.82,10,34.65,34.65,0,0,0-.88,5.32,10.13,10.13,0,0,0,.51,4.43c.5,1.85,1.14,3.7,1.69,5.7.43,1.58.82,3.62,1.1,5.29a18.39,18.39,0,0,0,1.24,4.85,6.75,6.75,0,0,0,2.75,3.54A8.59,8.59,0,0,0,51.61,148a9.29,9.29,0,0,0,7.1-4,16.18,16.18,0,0,0,3-9.34,16.47,16.47,0,0,0-1.07-4.78,13.31,13.31,0,0,1-1.09-4.36,8.72,8.72,0,0,1,.49-2.71,34,34,0,0,1,1.2-3.47c.41-1,.91-2.52,1.2-3.34a10.25,10.25,0,0,0,.49-2.3,5.63,5.63,0,0,0-2.66-5.08A9.14,9.14,0,0,0,56.69,107a4.06,4.06,0,0,0-2.27.46,1.65,1.65,0,0,0-1.21,1.67,21.86,21.86,0,0,0,.71,5.57,24,24,0,0,1,.72,5.52c-.06,2.46-.58,4.56-3.16,4.61s-3-2-3.18-4.37c0-.4.08-1.9.12-2.61s.14-2.13.12-2.85a17.42,17.42,0,0,0-1.72-7.12,19.54,19.54,0,0,1-1.67-8.2c.06-3.49.61-7,2.44-9.89s4.1-3.64,7.32-4a17.92,17.92,0,0,1,2.18.12,16.24,16.24,0,0,0,1.74.11,26.76,26.76,0,0,0,4.28-.72A25.49,25.49,0,0,1,68,84.68a8.42,8.42,0,0,1,3.48.85c1.24.5,2.68,1.15,3.89,1.68s2.84,1.18,3.86,1.69a11.54,11.54,0,0,0,3.36.85c2.28.17,4.85-.27,6.49.9s1.3,2.29,1.42,4.37a31.39,31.39,0,0,1-1,6.9,32.79,32.79,0,0,0-1,6.8A20.59,20.59,0,0,0,89,112c.21,1.23.51,2.93.73,4.32s.52,3.21.72,4.57a25.29,25.29,0,0,1,.37,3.78A91.43,91.43,0,0,1,90,135.28a83.36,83.36,0,0,0-.83,10.63,22.69,22.69,0,0,0,1.09,5.44A25.81,25.81,0,0,1,91.29,157.69Z"/><path class="cls-1" d="M130.15,3.26c2.06-.16,3.78,1.28,5.79,2A24.81,24.81,0,0,0,143,6.76a20.2,20.2,0,0,0,8-1.54,12.51,12.51,0,0,1,6.13-1.57c2.09.11,3.23,0,4,2.27s1.11,4.82,2,7.83c.49,1.62,1.63,5.7,2.13,7.77.41,1.65.71,3.42,1,5A40.52,40.52,0,0,1,167,31a23.71,23.71,0,0,1-.46,4.61,36.32,36.32,0,0,0-.48,4.78,114.82,114.82,0,0,0,1.51,18.11,48,48,0,0,0,1.27,4.67c.66,2.08,1.82,6.71,2.63,10.13s2,9,2.65,12.92a86.83,86.83,0,0,1,1.22,12.62,43.39,43.39,0,0,0,.84,8.75c.58,2.68,1.16,4.44,1.84,6.76s1.24,3.77,1.84,6.15a26.59,26.59,0,0,1,.86,6.81c.06,2.19.24,4.65.64,7.83a106.58,106.58,0,0,0,2.75,12.37c.91,3.22,2.05,8,2.9,10.74a63.07,63.07,0,0,1,1.74,7.08c.4,2.12.53,3.41.75,5.05a37.13,37.13,0,0,1,.24,4.72c0,4.7-1,9.54-6,9.93-3.17.25-3.62-1.6-4-4a12.16,12.16,0,0,1,.24-2.65,20.8,20.8,0,0,0,.23-2.63c-.07-1.64-.48-2.85-2.19-2.91-1.13,0-1.66.66-2.08,1.69a16.89,16.89,0,0,0-.85,3.6c-.18,1.16-.35,2.55-.62,3.61s-.75,1.71-1.82,1.7-1.5-.73-2-1.71a23.92,23.92,0,0,1-1.21-3.7,32.17,32.17,0,0,0-1.09-3.69c-.37-.85-.65-2-1.6-1.66-1.5.49-1.44,2.68-1.46,4.39a32.39,32.39,0,0,0,.36,3.55,31.64,31.64,0,0,1,.36,4.25,5.83,5.83,0,0,1-.84,3.51,2.16,2.16,0,0,1-2.1,1.11c-1.38-.1-2-.74-2.69-2.22a18.83,18.83,0,0,1-1.33-5.33c-.24-2-.39-4.53-.49-6.74s0-4.47-.15-6.8a45.91,45.91,0,0,0-1.57-9A46.28,46.28,0,0,1,155.57,149a39.81,39.81,0,0,0-1.08-9.59c-.75-2.61-1.49-3.64-3.81-4-1.06-.16-1.49.75-2,1.7a22.42,22.42,0,0,0-1.22,3.71,19,19,0,0,1-1.33,3.71,2.56,2.56,0,0,1-2.32,1.7,3.61,3.61,0,0,1-2.6-1.33,33.24,33.24,0,0,1-2.65-3c-.75-.92-1.79-2.25-2.4-3s-1.15-1.37-1.85-1.35c-1.64,0-1.68,1.62-1.74,2.86a6.26,6.26,0,0,0,.72,3.54,5.43,5.43,0,0,1,.69,3.63c-.06.89-1.19,2-2.45,2.61a4,4,0,0,0-2.38,3.62,11.64,11.64,0,0,0,.85,3.62,13.83,13.83,0,0,1,.84,4.27c0,1.65-.2,3.09-1.43,3.91s-1.95.77-3.24,1.54A7.45,7.45,0,0,0,123,170c-1.11,1.72-1.46,4.89-1.4,7.45a34.22,34.22,0,0,1-.38,5.27,2.8,2.8,0,0,1-3,2.39,3.09,3.09,0,0,1-3.18-1.92,20.12,20.12,0,0,1-1.12-4.24c-.28-1.39-.48-2.94-.86-4.22s-.87-1.87-2.23-1.95c-.58,0-1.11.46-1.58,1a21.39,21.39,0,0,0-1.56,2,25.1,25.1,0,0,1-1.57,2,2.32,2.32,0,0,1-1.58,1c-2-.08-2.6-1.09-2.7-2.89a12.42,12.42,0,0,1,.24-2.94c.18-1.11.37-1.71.61-3.1a44.58,44.58,0,0,0,.61-4.55c.16-2,.22-4.4.24-7s-.06-6.35,0-9.35a39.85,39.85,0,0,1,.75-8.35c.82-3.9,1.13-5.86,2.29-11s3.78-15.64,5.2-21.43a26.33,26.33,0,0,0,1-6c0-1.14-.14-1.06-.61-1.91a3.5,3.5,0,0,1-.59-2.4,24.94,24.94,0,0,1,.62-4.6c.4-1.75,1.19-4,1.81-6a56.82,56.82,0,0,0,1.47-6.56c.41-2.37.56-3.83.88-6.8s.57-5.37,1.12-9.48,1.52-9.62,2.43-15c.58-3.44,1.23-9.54,1.57-13.88s.94-10.85,1.45-15.07a68.7,68.7,0,0,1,2.41-12.15C126.41,5.11,127.26,3.48,130.15,3.26Zm10.24,76.61c-1,0-1.48.71-1.95,1.85a31.94,31.94,0,0,0-1.33,4.33,42.78,42.78,0,0,0-.84,5.38c-.15,1.6-.23,3.69-.25,5a9.56,9.56,0,0,0,.71,4c.48,1.21.84,1.37,1,2.68.07.77-.45,1-.85,2.13s-1.13,2-.75,4.11,5,3,7.57,2.7c1.39-.17,4.4-.13,5.56-.94s1.55-1.08,1.66-2.24a10.11,10.11,0,0,0-.47-3.21,24.43,24.43,0,0,1-.47-4.53c0-2.87-.07-7.2-.12-9.53a41.72,41.72,0,0,0-.46-5.48,6.41,6.41,0,0,0-.72-2.38c-.28-.58-.41-.55-.63-.55-.87,0-1.05.51-1.25,1.32s-.32,2-.49,2.88a14.32,14.32,0,0,1-.74,2.88c-.36.82-.75,1.38-1.72,1.32s-1.35-.75-1.58-1.84a25,25,0,0,1-.36-4.06,29.87,29.87,0,0,0-.24-4C141.46,80.72,141.42,79.87,140.39,79.87Z"/><path class="cls-1" d="M276.32,2.9a9.3,9.3,0,0,1,5.15,1.7A12.84,12.84,0,0,0,288,6.26a41.55,41.55,0,0,0,8.21-.82A25.38,25.38,0,0,1,302,4.57a12,12,0,0,1,2.1.13,6.67,6.67,0,0,1,2.67.86A6.42,6.42,0,0,1,309,7.78a7.9,7.9,0,0,1,.95,4.1,12.32,12.32,0,0,1-.24,2.3c-.17.81-.32,1.42-.49,2.46s-.35,1.89-.49,3.32a40.91,40.91,0,0,0-.23,5.11,17.51,17.51,0,0,0,.87,4.58c.54,1.61,1.28,3.89,1.94,5.78s1.42,4.39,1.94,6.37a26.43,26.43,0,0,1,.85,6.14,10.4,10.4,0,0,1-1,4.66c-.68,1.51-1.34,2.57-2.09,4A49.59,49.59,0,0,0,309,61.28a19.62,19.62,0,0,0-1,6.09c0,3.35-.11,7.62-.36,10.43a62.93,62.93,0,0,0-.37,6.37,22.09,22.09,0,0,0,.74,5.26c.44,1.94,1.1,4.18,1.69,6.16s1.26,4.35,1.7,6.26a27.64,27.64,0,0,1,.74,5.56,8.05,8.05,0,0,1-.6,3.31c-.41,1-.79,1.66-1.23,2.58s-.83,1.72-1.22,2.69a10,10,0,0,0-.61,3.36,72.92,72.92,0,0,0,.36,7.57c.24,2.15.53,3.71.85,5.51s.62,2.95.86,4.67A25.13,25.13,0,0,1,311,142a9.93,9.93,0,0,1-1.85,5.26,13.28,13.28,0,0,0-1.76,7.39,5.3,5.3,0,0,0,1.49,3.42c1.08,1.25,1.47,3.43,1.41,5.58a55.82,55.82,0,0,1-.37,5.62,25.28,25.28,0,0,1-1.34,5.52,12,12,0,0,1-2.46,4.13,5,5,0,0,1-3.93,1.59,5.12,5.12,0,0,1-3-1.22,25.19,25.19,0,0,1-3-2.76c-.83-.91-2.11-2.06-2.88-2.75a4.68,4.68,0,0,0-2.42-1.23,2.86,2.86,0,0,0-2.72,1.06,3.08,3.08,0,0,0-.74,2.33,15.7,15.7,0,0,0,.6,2.67,33.33,33.33,0,0,1,.34,5.61c0,2.48,0,7,0,9.09a23.36,23.36,0,0,1-.35,4.9c-.28,1.28-.3,1.54-1,2a2.13,2.13,0,0,1-1.9.38c-1.74-.16-2.67-1.65-3.24-3.54a26.55,26.55,0,0,1-1.08-6.82,31.85,31.85,0,0,1,.71-6.46,30,30,0,0,0,.74-4.58,8.94,8.94,0,0,0-.91-4.16,33.54,33.54,0,0,1-2.34-5.76,17.16,17.16,0,0,1-.38-4.62,20.05,20.05,0,0,1,1.32-6.45,23.17,23.17,0,0,0,1.33-6.19,43,43,0,0,0-.45-7.5,20.1,20.1,0,0,0-1.1-4c-.45-1.3-.72-1.48-1.12-2.65a8.1,8.1,0,0,1-.48-3.32,63.5,63.5,0,0,1,1.59-13.12,70.07,70.07,0,0,0,1.57-14.59c0-1.7-.06-4.43-.12-6.5s-.28-5.29-.48-7.28a31,31,0,0,0-1.19-6c-.48-1.36-.89-2.83-2.09-2.58-1.94.39-1.9,1.26-2,4s-.25,7.32-.5,11.13a83.65,83.65,0,0,1-1.58,12.2c-.87,3.63-1.85,7.64-2.8,11.13s-1.83,7-2.56,10.31a48.58,48.58,0,0,0-1.12,9.62,31.75,31.75,0,0,1-1.11,7.77c-.69,2.56-1.58,5.11-2.43,7.51s-1.74,4.73-2.43,7a20.91,20.91,0,0,0-1.1,6.39,14.84,14.84,0,0,0,1,4.67,21.93,21.93,0,0,1,.93,6.76,17,17,0,0,1-1,5.38c-.64,1.57-1.54,2.79-3.42,2.75s-2.38-1.62-2.42-3.37a37.3,37.3,0,0,1,.35-5,30.47,30.47,0,0,0,.37-3.59c-.15-3.51-.45-6.38-4.18-6.91-.66-.1-1.39.48-2.08.83a4.82,4.82,0,0,1-2.54.82,2.18,2.18,0,0,1-1.95-1.36,11.74,11.74,0,0,1-1.1-3.39c-.21-1.22-.46-2.79-.6-4.08a31.59,31.59,0,0,1-.25-3.58c0-1.37.06-2.93.13-4.48s.22-4,.36-5.49.29-3.84.36-4.88.12-2.41.12-2.68a17.32,17.32,0,0,0-2-8.27,21.33,21.33,0,0,0-4.06-4.59,24.19,24.19,0,0,1-3.95-4.12c-1.31-1.91-1.67-4.1-1.68-6.83,0-1.72.1-4.49.24-6.59s.39-5.25.6-7.3.51-4.78.72-6.35a32.33,32.33,0,0,0,.37-4c0-1.84,0-2.71-.75-4s-2.17-1.07-3.38-1.27a9.34,9.34,0,0,0-3.19,2,9.2,9.2,0,0,0-2.09,3.46,18.42,18.42,0,0,0-.83,6c0,.53.05,1.77.12,2.65s.22,2.46.36,3.45.29,2.51.36,3.34.13,1.8.13,2.31c0,2.37-.08,4.65-.25,6.85s-.2,5.57-.24,7.46A126.2,126.2,0,0,0,226,150.75c1.11,5.29,1.79,8.64,1.88,11.92.1,3.73-.26,4.37-1.33,6.71s-2.73,2-4.76,2.42a7.24,7.24,0,0,1-1.68-.24,5.9,5.9,0,0,0-1.46-.23c-3,.55-3.34,2.67-3.41,5.69a55.23,55.23,0,0,0,.47,7,67.37,67.37,0,0,1,.48,7.08,35.38,35.38,0,0,1-1.66,10.9c-1,2.8-1.63,4.42-4.22,4.84-.78.13-.93-1.12-1.1-2.28a41.73,41.73,0,0,1-.34-5.72c0-.79,0-2.95,0-4,0-1.72.11-4.43.24-6s.22-4.64.24-5.45A41.86,41.86,0,0,0,209,176c-.32-1.48-.16-1.39-.91-1.65s-1.44.95-2.08,1.4-1.81,1.49-2.76,1.4c-2.08-.2-2.66-1.42-2.68-3.42a67.14,67.14,0,0,1,1.54-14.16,65.16,65.16,0,0,0,1.59-12.32,68.57,68.57,0,0,0-1.64-15c-.89-3.78-1.64-7.16-2.22-9.35-1.14-4.34-1.66-5.73-1.73-9.6a40.32,40.32,0,0,1,.84-7.26,42.36,42.36,0,0,0,.85-7.32c0-1.33-.11-2.61-.25-4.29s-.39-4-.6-6-.48-4.54-.6-6.61-.27-3.47-.24-5.68a35.25,35.25,0,0,1,.62-5.39c.34-2.15.83-5.13,1.2-7.69s.86-5.77,1.21-8.43a57.94,57.94,0,0,0,.61-7.82,13,13,0,0,0-.37-2.69c-.2-1-.51-2.45-.72-3.6s-.53-2.72-.72-3.83a16.69,16.69,0,0,1-.37-3.15,17.17,17.17,0,0,1,1.12-5.85,25.23,25.23,0,0,0,1.06-8.13,11.29,11.29,0,0,0-1.2-3.77,10.22,10.22,0,0,1-1.21-3.53c0-2.69.36-5.19,2.65-6.35s3.53-1.11,6.29-1.28c1.18-.08,3.16,0,5.12,0a50.47,50.47,0,0,1,7.59.61A44.41,44.41,0,0,1,228.73,7c2.4.93,4,1.45,5.81,3.74A31.27,31.27,0,0,1,239,18.93a125,125,0,0,1,4,11.92c1.11,4,2.29,9.16,3,13.36a80,80,0,0,1,1.23,12.72c0,4.4.12,9,.25,13.08s.52,8.82.83,12.14a71.8,71.8,0,0,0,1.54,8.9c.5,2.09,1.14,3.7,2.42,3.65,2.57-.12,3.06-.51,4-3.42s.9-9.07,1-12.65a42.62,42.62,0,0,0-.45-7.73c-.41-1.81-.54-1.48-.51-3a12.23,12.23,0,0,1,.78-4.12c.61-2,2.27-4.36,3.91-6.68a16.25,16.25,0,0,0,1.67-4.82c.33-1.76,1-4.87,1.31-7.05s.7-5.16.85-7.31a46.14,46.14,0,0,1,.73-5.87,17.79,17.79,0,0,1,1-3.31c.47-1.21,1-2.63,1.46-3.86s.95-2.72,1.33-3.86a11.16,11.16,0,0,0,.61-3.27,11.58,11.58,0,0,0-.71-4,9.33,9.33,0,0,1-.72-3.54,7.1,7.1,0,0,1,2.23-5A7.47,7.47,0,0,1,276.32,2.9Z"/><path class="cls-1" d="M400.87,153.13a12.09,12.09,0,0,1-1.07,4.48,12,12,0,0,0-1.1,4.29c0,1,.14,1.81.24,3.07a31.47,31.47,0,0,1,.22,4.68c-.15,2.37-.93,4-3.7,4.08a11.36,11.36,0,0,1-2.33-.36c-.85-.2-2.34-.57-3.37-.84s-2.64-.65-3.6-.84a15,15,0,0,0-2.79-.36,5,5,0,0,0-3.7,1.46,4.56,4.56,0,0,0-1.45,3.6,13,13,0,0,0,1.57,5.06,15,15,0,0,1,1,6.62c0,.64.11,1.5-.4,2a2,2,0,0,1-2.14.58c-1.1-.2-2-1.3-2.63-2.86s-1.76-4.22-2.39-6.08-1.8-4.5-2.52-6.09-1.69-2.7-3-2.83c-2.1-.2-3.41,1.23-4.39,2.44a7.48,7.48,0,0,0-1.75,3.74,4.32,4.32,0,0,0,.7,2.7,6.74,6.74,0,0,1,.73,2.39c0,1.55-.12,3.43-.94,4.36a2.82,2.82,0,0,1-2.47,1,4.58,4.58,0,0,1-4.26-2.27,23.29,23.29,0,0,1-2.21-5.19c-.57-1.67-1-3.74-1.59-5.15s-.71-2.21-2.29-2.33c-.53,0-1.17,1.14-1.71,1.83a3.56,3.56,0,0,1-2.93,1.73,8,8,0,0,1-3.48-1.8,6.91,6.91,0,0,0-3.51-1.81,3.75,3.75,0,0,0-2,.71,5.07,5.07,0,0,1-1.92.72,2.34,2.34,0,0,1-2.35-1.33,10,10,0,0,1-.87-3.15,16.09,16.09,0,0,1-.12-3.56,13.59,13.59,0,0,0-.09-2.5c-.11-1.91,0-3,0-4.76,0-1,.07-1.9.12-2.91s.12-2.08.12-3.15c0-1.75,0-3.55,0-5.33,0-2.57.1-4.63.25-7.36s.39-6.16.61-9,.45-6.35.6-9,.23-4.94.25-7.32a27.28,27.28,0,0,1,.49-4.76c.28-1.56.73-3.38,1.08-4.69s.82-2.84,1.09-3.71a8.92,8.92,0,0,0,.5-2.08c-.16-2.62-1.31-3.26-3.67-3.49a4.8,4.8,0,0,0-1.69.36,5.31,5.31,0,0,1-1.69.35,1.78,1.78,0,0,1-1.83-1.44,9.2,9.2,0,0,1-.37-2.65,9.66,9.66,0,0,1,1-4.7,27.69,27.69,0,0,0,2.75-8.65,83,83,0,0,0,.62-8.92,39.72,39.72,0,0,1,1.57-11.06,32.88,32.88,0,0,0,1.6-9.47,8,8,0,0,0-.38-2.07c-.21-.8-.56-2-.84-3s-.64-2.44-.84-3.47a16.47,16.47,0,0,1-.37-3c0-1.52.12-2.94.24-4.37s.25-2.73.24-4.14a19.37,19.37,0,0,0-.61-4,21.39,21.39,0,0,1-.6-4.48,8.49,8.49,0,0,1,.36-2.19,6.91,6.91,0,0,0,.35-2.23A7.31,7.31,0,0,0,330,15.47a6.63,6.63,0,0,1-1.19-3.34c.16-2.09.67-3.24,2.6-4.28a15.21,15.21,0,0,1,6.72-1.34c.42,0,1.51.06,2.17.12s2,.12,2.62.12a9.24,9.24,0,0,0,4.9-1.08,7.37,7.37,0,0,1,4.21-1.1,7.11,7.11,0,0,1,3.37,1.07,6,6,0,0,0,2.92,1.09A3.22,3.22,0,0,0,360.49,6a4.47,4.47,0,0,1,2.86-.7A12.63,12.63,0,0,1,369,7.23a11.3,11.3,0,0,0,5.72,1.92,6.46,6.46,0,0,0,3.82-1.33A8.6,8.6,0,0,1,383,6.51,6.2,6.2,0,0,1,386,7.1a4.28,4.28,0,0,0,2.25.61,5.48,5.48,0,0,0,2.5-.85,5.45,5.45,0,0,1,4-.72c.76.2,1.62.78,2,2.87a44.82,44.82,0,0,1,.78,9.44c-.05,1.23.24,4.7.5,7.21s.79,7.13,1.2,10.27,1,7.86,1.2,10.87a77.65,77.65,0,0,1,.47,8.6c-.16,3.57-1.71,4.49-4.88,4.67-2.22.14-3.31-1.36-3.38-3.62,0-.45,0-1.47.11-2.17s.12-2.09.12-2.85.06-2.09.12-2.61.11-1.37.12-1.49c.11-3-.31-8.54-.44-10.75s-.42-4.64-1.66-4.9c-1.75-.37-1.78,1.11-2,2.47s-.29,3.74-.38,5.38-.35,3.88-.6,5.38-1,2.41-2.15,2.58a2.45,2.45,0,0,1-2.7-1.84c-.6-2-1-4.35-1.48-5.88a18,18,0,0,0-1-3c-1.41-.94-3.19-2.13-4.6-3a9.23,9.23,0,0,0-4.36-1.34,5,5,0,0,0-3.2.95,10.55,10.55,0,0,0-2.1,2.06c-.61.7-1.09,1.42-1.59,2a2.29,2.29,0,0,1-1.7,1,5.59,5.59,0,0,1-1.84-.23,3.59,3.59,0,0,0-1.36-.24c-2.71.29-4.4,1-5.36,3.82a31,31,0,0,0-1.23,9.28,31.77,31.77,0,0,0,1.44,9.49,28.87,28.87,0,0,0,3.51,7.15,16.55,16.55,0,0,0,4.25,4.39,6.78,6.78,0,0,0,3.81,1.53,9.84,9.84,0,0,0,1.59-.25c.63-.1,2.06-.4,2.86-.59s2.21-.46,2.86-.6,1.5-.2,1.84-.25a55.55,55.55,0,0,1,5.94-.6c1.53,0,3.32-.19,4.24-.11,1.83.16,2.26.42,3.17,1.74a7.3,7.3,0,0,1,1.11,4.44,13.69,13.69,0,0,1-1.1,3.83,12.94,12.94,0,0,0-1.07,4.57,23.54,23.54,0,0,0,.74,5c.42,1.77,1.07,4.28,1.57,6.11s1.14,4.32,1.57,5.87a19.3,19.3,0,0,1,.73,4.25,14.24,14.24,0,0,1-2,6.89c-1,1.81-2.11,3.4-3.76,3.56s-2-.71-2.49-2a34.58,34.58,0,0,1-.88-4.57,28.05,28.05,0,0,0-1.1-4.58,3,3,0,0,0-2.88-2.06,2.24,2.24,0,0,0-2.46,1.42,8.46,8.46,0,0,0-.52,3,13.73,13.73,0,0,1-.38,3,1.74,1.74,0,0,1-1.81,1.44,2.15,2.15,0,0,1-2-1.21,24.22,24.22,0,0,1-1.46-2.77c-.44-.88-1-2-1.46-2.76a2.11,2.11,0,0,0-1.72-1.23,11.37,11.37,0,0,1-2.56-.49,6.38,6.38,0,0,0-2.53-.47c-1.81.3-3.11.11-3.17,2.54,0,1.46.3,2.08.88,4.56a52.65,52.65,0,0,1,.78,11,28,28,0,0,1-1.68,6.61c-.72,1.67-1.86,4.15-1.67,6,.29,2.76.84,3.89,3.18,6.09s7.05,3,10.73,2.93c.58,0,1.68,0,2.58-.12a27.79,27.79,0,0,1,3.07-.11,32.42,32.42,0,0,1,6.52,1,30.3,30.3,0,0,0,6.33,1,14.53,14.53,0,0,0,1.62-.12,10.83,10.83,0,0,1,1.85-.11,7.69,7.69,0,0,1,5.09,2.43A7.42,7.42,0,0,1,400.87,153.13Z"/><path class="cls-1" d="M617,4.18a4.67,4.67,0,0,1,2.56.48,6.54,6.54,0,0,1,2,1.21,8.17,8.17,0,0,0,2.1,1.22,9.54,9.54,0,0,0,3.18.48c.77,0,2.42-.15,3.32-.23a23.63,23.63,0,0,1,3.11-.23c3.26.31,5.38,1,7.62,3.49s3,5.24,3.18,8.84a15.82,15.82,0,0,1-.46,2.88c-.27,1.14-.75,3.26-1.16,4.88s-.88,4.16-1.16,6a45.32,45.32,0,0,0-.49,6.22c0,2.69-.41,5.21-2.83,5.68-1.21.24-1.22-.15-2.17-.08s-.72-.46-2-.08c-2,.61-3.06,2.43-4.11,5.14a31.73,31.73,0,0,0-2.14,10.87,52.81,52.81,0,0,0,.79,7.64,35.52,35.52,0,0,1,.82,6.28,21.33,21.33,0,0,1-.39,4.08c-.27,1.94-.55,4.91-.62,7.16,0,1.07-.05,2.82-.15,3.8s-.14,1.64-.26,2.44a4.82,4.82,0,0,1-.64,1.83,10,10,0,0,1-1.47,1.78,18.7,18.7,0,0,0-3.58,5.22,28.2,28.2,0,0,0-1.79,6.29c-.48,2.61-.8,5.13-1.19,8.43s-.85,7.76-1.35,11.67c-.26,2-.84,5.14-1.29,7.48s-1.11,5.35-1.66,7.65-1.17,4.92-1.66,6.94-.74,3.49-1.06,5.22a42.91,42.91,0,0,1-2,7.56,56.12,56.12,0,0,0-2.53,10.05c-.65,4.12-1.61,11.59-1.77,16.07s-.45,16.21-.4,18.62c.24,12.11.56,26.13,1,35.42s1.2,21.33,1.44,26.66c.42,9.29.64,17.58-.78,22.63s-2.32,3.75-4.32,2-2.82-4.28-3.5-8.77A147.21,147.21,0,0,1,598,267.23c-.06-3.23-.41-13.84-.41-19.1s-.49-20.42-.44-24.38c.2-14.09,0-38.59-2.15-47.51s-1.87-2.24-4.95-4.46c-2-1.42-3.68,2.16-4.92,2.9s-3,3-4.45,3.07c-2.23.07-3-.38-4.07-2.07a10.48,10.48,0,0,1-1.3-5.39c-.05-1.16.21-3.68.27-4.88s.33-3.43.28-4.11c-.25-3.36-.43-4.56-2.09-7.55S570,147.44,568,144c-1.1-1.87-2.94-4.83-4-7.11a16.5,16.5,0,0,1-1.87-7.26,36,36,0,0,1,1.39-8.38,38.85,38.85,0,0,0,1.4-8.3,78.9,78.9,0,0,0-.75-11.48c-.5-3.82-1.13-7.57-1.72-11.21s-1.2-7.19-1.72-10.67a69.13,69.13,0,0,1-.76-10,24.3,24.3,0,0,1,.41-3.78,22.07,22.07,0,0,0,.39-3.53c-.24-5.55-1.71-8.85-7.46-9.53a8.19,8.19,0,0,0-1.35.1,10.12,10.12,0,0,1-1.57.09,3.65,3.65,0,0,1-3-1.5,4.42,4.42,0,0,1-1.05-3.19c.1-2,1.07-3.71,2.27-5.74A16.07,16.07,0,0,0,550.8,35a23.19,23.19,0,0,0-1-6.83,24.63,24.63,0,0,1-1-6.75,31.51,31.51,0,0,0-.28-5.52,12.73,12.73,0,0,1-.34-3.2c.1-2.23.4-4.12,2-5.49s2.73-1.56,5-1.64a16.21,16.21,0,0,1,4.21,1.14,17.18,17.18,0,0,0,5.2,1.13,16.33,16.33,0,0,0,4.61-1,13.9,13.9,0,0,1,4.59-1c2.82.24,4.54.75,6.38,2.9a18.19,18.19,0,0,1,3.73,7.3,50.79,50.79,0,0,1,1.69,10.18c.28,3.58.37,7.83.34,11.71,0,.78-.08,2.08-.16,3.1s-.21,2.7-.29,3.76-.2,2.57-.28,3.42-.15,1.79-.16,2.27a43.12,43.12,0,0,0,.64,7.56c.38,2.27,1,4.84,1.46,6.67s1.11,3.84,1.49,5a12.42,12.42,0,0,1,.72,2.33A19.27,19.27,0,0,1,589,75.5a26.62,26.62,0,0,0-.38,4.24,9.41,9.41,0,0,0,1.94,5.63c1.34,1.49,1.89,3.6,4.73,3,4.38-1,5-8.81,5.34-13.74.23-3.37.82-11.23.89-15.31s.29-8,.65-11.78A103.48,103.48,0,0,1,603.71,37a75.36,75.36,0,0,1,3.68-11.81c.86-4.83,2-11.85,3.32-16S613.65,4.86,617,4.18Z"/><path class="cls-1" d="M719.6,153.49a12.08,12.08,0,0,1-1.09,4.48,11.86,11.86,0,0,0-1.1,4.3c0,1,.13,1.82.23,3.09a34.5,34.5,0,0,1,.21,4.68c-.17,2.38-.94,4-3.72,4.08a10.81,10.81,0,0,1-2.33-.37c-.85-.2-2.34-.57-3.37-.85s-2.64-.66-3.6-.85a14.39,14.39,0,0,0-2.8-.38,5,5,0,0,0-3.7,1.45,4.57,4.57,0,0,0-1.46,3.6,13,13,0,0,0,1.56,5.08,15.14,15.14,0,0,1,1,6.64c0,.65.11,1.51-.4,2.05a2,2,0,0,1-2.14.57c-1.11-.2-2-1.31-2.63-2.87s-1.75-4.24-2.38-6.11-1.79-4.52-2.5-6.11-1.69-2.72-3-2.85c-2.11-.22-3.42,1.21-4.41,2.42a7.62,7.62,0,0,0-1.76,3.75,4.29,4.29,0,0,0,.7,2.71,6.89,6.89,0,0,1,.72,2.4c0,1.55-.13,3.44-1,4.36a2.79,2.79,0,0,1-2.46,1,4.61,4.61,0,0,1-4.27-2.3,23.67,23.67,0,0,1-2.2-5.21c-.55-1.67-1-3.75-1.57-5.17s-.71-2.21-2.29-2.35c-.53,0-1.17,1.15-1.71,1.83s-1.49,1.85-2.94,1.73a7.92,7.92,0,0,1-3.48-1.82,6.89,6.89,0,0,0-3.51-1.82,3.69,3.69,0,0,0-2,.7,4.82,4.82,0,0,1-1.92.71,2.35,2.35,0,0,1-2.35-1.34,10.38,10.38,0,0,1-.86-3.16,16.16,16.16,0,0,1-.11-3.57,13.71,13.71,0,0,0-.09-2.51c-.1-1.92,0-3.05,0-4.77,0-.95.07-1.9.12-2.92s.13-2.08.13-3.15c0-1.76,0-3.57,0-5.35,0-2.58.11-4.64.27-7.37s.4-6.18.62-9.05.47-6.36.63-9,.24-4.95.27-7.34a28.37,28.37,0,0,1,.5-4.77c.28-1.56.74-3.38,1.1-4.69s.82-2.86,1.09-3.73a8.57,8.57,0,0,0,.51-2.08c-.15-2.62-1.29-3.26-3.66-3.51a5,5,0,0,0-1.69.36,5.71,5.71,0,0,1-1.7.34A1.77,1.77,0,0,1,645.33,97a9.32,9.32,0,0,1-.37-2.66,9.2,9.2,0,0,1,.14-2,8.9,8.9,0,0,1,.89-2.69,28.28,28.28,0,0,0,2.8-8.63,80.53,80.53,0,0,0,.68-8.88,39.09,39.09,0,0,1,1.66-11,33.23,33.23,0,0,0,1.69-9.39,8,8,0,0,0-.34-2c-.21-.79-.54-2-.81-3s-.61-2.42-.8-3.43a16,16,0,0,1-.32-3c0-1.49.15-2.91.29-4.32s.3-2.67.32-4a19,19,0,0,0-.52-3.93,20.16,20.16,0,0,1-.5-4.36,8.66,8.66,0,0,1,.4-2.14,6.76,6.76,0,0,0,.4-2.17,7,7,0,0,0-1.17-3.07A6.65,6.65,0,0,1,648.61,13c.18-2.08.68-3.25,2.59-4.32a14.74,14.74,0,0,1,6.65-1.4c.42,0,1.5,0,2.15.1s2,.1,2.59.09a9.24,9.24,0,0,0,4.87-1.11,7.35,7.35,0,0,1,4.18-1.12,6.82,6.82,0,0,1,3.33,1,6,6,0,0,0,2.9,1.08A3.27,3.27,0,0,0,680,6.58a4.46,4.46,0,0,1,2.86-.7,12.44,12.44,0,0,1,5.63,1.91,11.09,11.09,0,0,0,5.69,1.91A6.52,6.52,0,0,0,698,8.38a8.58,8.58,0,0,1,4.47-1.29,6.33,6.33,0,0,1,2.93.59,4.23,4.23,0,0,0,2.24.62,5.46,5.46,0,0,0,2.5-.84,5.5,5.5,0,0,1,4-.71c.76.21,1.62.78,2,2.87a44.55,44.55,0,0,1,.74,9.44c-.06,1.24.22,4.7.46,7.21s.77,7.13,1.16,10.26.92,7.86,1.14,10.88a76.66,76.66,0,0,1,.43,8.59c-.17,3.57-1.73,4.48-4.9,4.65-2.22.12-3.31-1.38-3.37-3.64,0-.45.06-1.47.13-2.17s.13-2.09.13-2.85.06-2.09.13-2.6.12-1.38.13-1.49c.12-3.06-.27-8.54-.39-10.75s-.4-4.64-1.64-4.91c-1.74-.37-1.78,1.1-2,2.47s-.3,3.73-.4,5.37-.38,3.87-.63,5.37-1,2.4-2.16,2.57a2.45,2.45,0,0,1-2.69-1.85c-.59-2-1-4.36-1.46-5.89a18.07,18.07,0,0,0-1-3c-1.4-.94-3.18-2.14-4.58-3A9.06,9.06,0,0,0,691,33a5,5,0,0,0-3.2.93,10.31,10.31,0,0,0-2.12,2c-.62.7-1.11,1.41-1.61,2a2.34,2.34,0,0,1-1.71,1,5.5,5.5,0,0,1-1.83-.23,3.46,3.46,0,0,0-1.36-.25c-2.7.28-4.4,1-5.4,3.75a30,30,0,0,0-1.34,9.16,31,31,0,0,0,1.32,9.37,28.68,28.68,0,0,0,3.45,7.11,16.37,16.37,0,0,0,4.22,4.37,6.89,6.89,0,0,0,3.8,1.53,10,10,0,0,0,1.59-.25c.63-.1,2.06-.39,2.86-.58s2.21-.45,2.87-.59,1.5-.2,1.84-.26a54.61,54.61,0,0,1,5.93-.57c1.54,0,3.32-.19,4.24-.11,1.84.16,2.27.42,3.18,1.75a7.38,7.38,0,0,1,1.09,4.46,13.6,13.6,0,0,1-1.1,3.83,12.64,12.64,0,0,0-1.09,4.59,23.06,23.06,0,0,0,.73,5c.41,1.78,1,4.3,1.55,6.13s1.13,4.33,1.55,5.89a19.36,19.36,0,0,1,.73,4.27,14.32,14.32,0,0,1-2,6.9c-1,1.81-2.13,3.39-3.77,3.56s-2.05-.73-2.49-2a33.65,33.65,0,0,1-.86-4.59,28.54,28.54,0,0,0-1.1-4.6A3,3,0,0,0,698,104.5a2.25,2.25,0,0,0-2.47,1.42,8.68,8.68,0,0,0-.52,3,14.28,14.28,0,0,1-.38,3,1.75,1.75,0,0,1-1.82,1.44,2.17,2.17,0,0,1-2-1.22,28,28,0,0,1-1.46-2.78,28.73,28.73,0,0,0-1.45-2.77,2.07,2.07,0,0,0-1.72-1.24,11.76,11.76,0,0,1-2.55-.5,6.64,6.64,0,0,0-2.54-.49c-1.81.3-3.11.1-3.18,2.54,0,1.46.3,2.09.87,4.57a51.86,51.86,0,0,1,.75,11.09,28.27,28.27,0,0,1-1.69,6.62c-.73,1.67-1.88,4.16-1.69,6,.28,2.78.84,3.91,3.17,6.12s7,3,10.73,3c.58,0,1.68,0,2.58-.1a27.79,27.79,0,0,1,3.07-.11,32.31,32.31,0,0,1,6.52,1,30.55,30.55,0,0,0,6.34,1,14.53,14.53,0,0,0,1.62-.11,10.83,10.83,0,0,1,1.85-.11,7.66,7.66,0,0,1,5.08,2.46A7.45,7.45,0,0,1,719.6,153.49Z"/><path class="cls-1" d="M818,164.44a7.64,7.64,0,0,1-2.16,5.73,23.91,23.91,0,0,1-4.76,3.56,38.84,38.84,0,0,0-4.64,3.07,5.14,5.14,0,0,0-2.08,4.32,11.21,11.21,0,0,0,.5,2.58,23.68,23.68,0,0,1,.46,4.65,45.12,45.12,0,0,1-1.29,10.4c-.73,2.43-1.23,4.49-3.33,4.72s-2.13-2.17-2.21-3.83a48.58,48.58,0,0,1,.23-5.08c.12-1.3.24-2.45.24-3.54,0-1.74-.11-3.11-.24-4.79s-.47-3.84-.72-5.39-.78-3.4-1.07-4.56-.84-1.88-1.56-2a3.81,3.81,0,0,0-2.47.56,6.69,6.69,0,0,0-1.61,1.2,13.79,13.79,0,0,0-1.12,1.22,1.72,1.72,0,0,1-1.46.59,2.23,2.23,0,0,1-1.48-.39c-.53-.4-.75-.59-.71-1.64a22.84,22.84,0,0,1,.73-3.87,23.92,23.92,0,0,0,.71-5.53A33.19,33.19,0,0,0,785,154.16a112,112,0,0,1-4.94-12.23,33.29,33.29,0,0,1-1.64-8.34,11.21,11.21,0,0,1,.23-3,18.12,18.12,0,0,0,.23-2.71,13.84,13.84,0,0,0-2.4-7.46,12.67,12.67,0,0,1-2.45-6.23,10.15,10.15,0,0,1,.46-4,11.52,11.52,0,0,0,.48-3.7c0-1.4-.63-2.66-2.16-2.61a5.07,5.07,0,0,0-3.61,1.26c-1.32,1-1.55,3.56-1.55,5.24a14.4,14.4,0,0,0,.35,3.82,7.51,7.51,0,0,1,.38,2.2c0,.66-.11,1-.47,1.24a1.38,1.38,0,0,1-1,.26c-1-.08-1.37-.63-1.71-1.59s-.6-2.33-.85-3.36a28.59,28.59,0,0,0-.75-3.24c-.36-.88-.4-1.6-1.66-1.42s-1.55,2.89-1.37,4.47c0,.26.11,2.07.24,3.1s.3,3.5.36,4.85.24,3.61.36,4.75.25,2.09.25,2.81a39.85,39.85,0,0,1-.25,4.06c-.15,1.82-.39,4-.61,6.16s-.47,5-.6,7.33-.26,4.83-.24,7a39.11,39.11,0,0,0,1.35,9.72,48.1,48.1,0,0,1,1.33,10.28,71.66,71.66,0,0,1-.35,8.91c-.28,2.28-.93,2.31-2.3,2.6s-2.11-.54-2.7-1.52a13.16,13.16,0,0,1-1.12-3.38,31.32,31.32,0,0,0-.87-3.37c-.38-1-.82-1.6-2-1.57a5.57,5.57,0,0,0-4.14,2.3,8,8,0,0,0-1.94,4.94,32.64,32.64,0,0,0,.7,6.06,33.29,33.29,0,0,1,.73,4.2c-.08,2.31-1.23,2.4-2.91,2.57a1.84,1.84,0,0,1-2.18-1.55,19.23,19.23,0,0,1-.26-3.35c0-.58.09-1.88.12-2.74s.17-2.33.12-3.21a17.62,17.62,0,0,0-.67-5.08c-.62-2-3.06-3.81-4.94-4.89-1.44-.82-3.4-2.16-3.86-3.56a8.23,8.23,0,0,1-.52-3,7.19,7.19,0,0,1,.61-2.45c.33-1,1-2.49,1.45-3.58s1.11-2.8,1.44-3.82a11.32,11.32,0,0,0,.61-2.91,35.33,35.33,0,0,0-.72-6.85c-.42-2.25-1-4.92-1.45-7s-1-4.56-1.44-6.12a18.69,18.69,0,0,1-.75-4,41.62,41.62,0,0,1,.72-7.73c.41-2.51,1-5.28,1.45-7.48s1-4.58,1.44-6.26a17.79,17.79,0,0,0,.75-4,42.16,42.16,0,0,0-.61-6.81c-.34-2.49-.91-5.71-1.32-8.16s-1-5.66-1.32-7.67A31.53,31.53,0,0,1,734,77a26.1,26.1,0,0,1,2.68-10.93,29.18,29.18,0,0,0,2.66-11.26,31.73,31.73,0,0,0-1.89-10.06A61.61,61.61,0,0,1,735,37.71a43.55,43.55,0,0,0-1.76-6.88,20.64,20.64,0,0,1-1.47-6.34,30.27,30.27,0,0,1,.72-6.1A37.51,37.51,0,0,0,733.2,12a9.35,9.35,0,0,0-.49-2.29A10,10,0,0,1,732.24,7a3.27,3.27,0,0,1,1.57-2.9,5.5,5.5,0,0,1,3.09-1,7.08,7.08,0,0,1,2.57.6c.92.33,2.26.85,3.26,1.2s2.39.87,3.25,1.19a7.33,7.33,0,0,0,2.33.61,26.34,26.34,0,0,0,5-.59,30.28,30.28,0,0,1,5-.6c3.36,0,6.52.28,9.79.6s6.5.58,9.78.61c0,0-.23,0-.18,0A92.57,92.57,0,0,1,795.93,12a39.68,39.68,0,0,1,10.35,6.4,14.7,14.7,0,0,1,4.51,6.44,27,27,0,0,1,1.52,5.38c.8,3.62,1.15,6.14,1.64,9.6a69.12,69.12,0,0,1,.61,10.08,35.16,35.16,0,0,1-1.33,7.65,34,34,0,0,0-1.34,7.71c-.06,3.68-.34,7.5-.74,11s-.68,7.76-.73,10.91a13.54,13.54,0,0,0,.35,3.67,9.72,9.72,0,0,1,.37,2,5.55,5.55,0,0,1-1.34,3.79,3.62,3.62,0,0,1-3.08,1.58c-1.43,0-2.59-1.36-3.38-2.51s-2-2.48-3.37-2.51c-1,0-1.23.36-1.24,1.2a8.2,8.2,0,0,0,1.8,5,8.59,8.59,0,0,1,1.81,5,7.47,7.47,0,0,1-.61,2.93,10.41,10.41,0,0,0-.59,3.4,17.09,17.09,0,0,0,1.42,6c.93,2.19,1.85,4.3,2.68,6.06a20.73,20.73,0,0,1,1.51,4,28.5,28.5,0,0,1,.74,4.71c.16,1.65.27,3.81.36,5.53s.16,3.7.25,5.31a11.31,11.31,0,0,0,.85,4,21.41,21.41,0,0,0,2,3.81c.89,1.4,2.08,3.29,3,4.81s2.06,3.56,2.78,5A11.08,11.08,0,0,1,818,164.44ZM783.79,62.73c.05-2.67,0-5.89-.8-7.58a8.4,8.4,0,0,1-.89-3.37,12.28,12.28,0,0,1,.33-3.8,8.12,8.12,0,0,0,.37-2.36c-.18-3.1-.62-5.78-2.48-8.25S776.15,34,773,34a3.41,3.41,0,0,0-3.13,2.55,16.17,16.17,0,0,0-1,5.2c0,.49.07,1.63.12,2.13s.11,1.66.12,1.89c.07,1.27-.27,2.62-1.41,2.7s-1.57-.43-2-1.3a20.22,20.22,0,0,1-.87-2.9,13.57,13.57,0,0,0-1-2.88c-.47-.78-.77-1.47-1.87-1.3s-1.26,1.82-1.16,3.29c0,.34.11,2.26.24,3.47s.4,4.11.6,5.68.48,4.4.6,5.68.25,2.91.25,3.5a10.93,10.93,0,0,1-.6,3.89,10.62,10.62,0,0,0-.6,3.54c0,2,1,3,2.88,3.15a4.86,4.86,0,0,0,2.34-.46,3.67,3.67,0,0,1,1.87-.48,2.43,2.43,0,0,1,1.83,1.1c.57.69,1.21,1.63,1.83,2.41a15.24,15.24,0,0,0,2.08,2.4,3.12,3.12,0,0,0,2.58,1.07c2.77-.34,4-1.73,5.26-4.58S783.74,65.72,783.79,62.73Z"/><path class="cls-1" d="M573.06,338.66c-.09-.55-.17-1-.24-1.43s0-1,0-1.54a27.55,27.55,0,0,0-.62-5.91c-1.92-6.73-5.17-6.15-3.24-19.1,0,0-9.43,8.54-10.88,25a19,19,0,0,0-.06,2.6h0s-1.32,1.55-.44,2.72c0,0,.48.61.86.57a15.6,15.6,0,0,0,.55,2l-.1.39c-.1.51.22.58.45.57a10.32,10.32,0,0,0,3.91,5.1c-.13.49-.16,1.08.34,1.25a1.08,1.08,0,0,0,.74,0c0,.65.15,1.22.5,1.36,0,0,1.24.47.88-1.94a3.53,3.53,0,0,0,1.38-.44c.07.45.2.81.47.93,0,0,1.24.46.88-2l.06-.06a.57.57,0,0,0,.27.26s1.15.43.91-1.71c.19-.29.39-.6.57-.93.06.45.2.8.47.91,0,0,1.27.48.86-2-.07-.48-.14-.89-.21-1.27l.18-.5a.66.66,0,0,0,.35.42s1.27.48.87-2c-.08-.46-.15-.85-.21-1.21C572.91,340.62,573.31,340.22,573.06,338.66Z"/><path class="cls-1" d="M562.92,327.23c-.29-1-.78-.93-.49-2.89a6,6,0,0,0-1.65,3.78c-.1,1.21.5,2.22,1.12,2.22s1.11-1,1.11-2.22A4.13,4.13,0,0,0,562.92,327.23Z"/><path class="cls-2" d="M562.86,327.23c-.28-1-.77-.91-.5-2.75a5.89,5.89,0,0,0-1.51,3.59c-.1,1.14.47,2.09,1,2.09s1.05-.94,1.05-2.09A4.41,4.41,0,0,0,562.86,327.23Z"/><path class="cls-1" d="M384.23,237.81c.09-.55.17-1,.24-1.43s-.05-1-.05-1.54a27.63,27.63,0,0,1,.63-5.92c1.92-6.72,5.17-6.14,3.24-19.09,0,0,9.43,8.54,10.88,25a18.92,18.92,0,0,1,.06,2.6h0s1.32,1.55.44,2.71c0,0-.48.62-.86.58a16,16,0,0,1-.55,2c0,.12.06.24.09.39.11.51-.21.57-.44.56a10.35,10.35,0,0,1-3.91,5.11c.12.49.16,1.07-.34,1.25a1.08,1.08,0,0,1-.74,0c0,.65-.15,1.22-.5,1.36,0,0-1.24.46-.88-1.94a3.63,3.63,0,0,1-1.39-.44c-.06.45-.19.81-.46.92,0,0-1.25.47-.88-2l-.06-.06a.57.57,0,0,1-.27.26s-1.15.43-.91-1.71a10.45,10.45,0,0,1-.57-.93c-.07.45-.2.8-.47.91,0,0-1.27.47-.87-2,.08-.48.15-.89.22-1.27l-.18-.5a.68.68,0,0,1-.35.42s-1.27.48-.87-2c.08-.46.15-.85.21-1.22C384.37,239.77,384,239.36,384.23,237.81Z"/><path class="cls-1" d="M394.37,226.37c.29-1,.78-.93.49-2.89a6.07,6.07,0,0,1,1.65,3.79c.1,1.21-.5,2.22-1.12,2.22s-1.11-1-1.11-2.22A4.29,4.29,0,0,1,394.37,226.37Z"/><path class="cls-2" d="M388.49,225.3c.45-.89.93-.76,1-2.62a6,6,0,0,1,.81,3.82c-.11,1.13-.85,1.95-1.42,1.85s-.85-1.11-.64-2.24A3.67,3.67,0,0,1,388.49,225.3Z"/><path class="cls-3" d="M500.64,338c-59.83,8.86-54.15,1.2-122.44,19.93-15.14,4.16-38.31,15.16-49.21,21.9-39.12,24.16-54.37,60.08-78.31,86.72h-.5l-1.66,0-1.53,0-.85,0h-.27l-.54,0-1.49.07-.46,0-.45,0-.23,0-.4,0-.63.06-.78.08-.55.06-.18,0-.21,0-.32.05-.51.08-.85.17-.26.06-.19.05c-.32.07-.63.16-.93.25l-.31.09-.77.26-.2.07-.27.1-.32.12-.15.06-.23.09-.19.08-.3.13-.26.11c-.81.35-1.67.76-2.64,1.23l-.21.1-3.87,1.91a37.64,37.64,0,0,0-3.5,2l-.6.4c-.3.2-.59.4-.86.6l-.82.59-1.29,1-.25.19-.44.34-.12.08c-.78.59-1.54,1.16-2.35,1.69l-.44.29-.33.2-.17.11c-.51.31-1.05.6-1.62.88h0l-.58.26-.06,0-.55.23-.12.05a20,20,0,0,1-1.9.66l-.31.1c-.41.11-.83.22-1.28.32l-.35.08-.85.17-.59.11-.64.1-.71.1-.21,0-.51.06-.24,0-.48.05-.23,0-.5,0-.21,0-.52,0-.19,0-.54,0h-.16l-.57,0H202c-.21,0-.41,0-.62,0h-.08l-.66,0h0c-4.32.14-8.78-.06-13.33-.1a38.1,38.1,0,0,0,11.68-5.62c37.48-28.44,56.85-30.22,63.83-34.78,1.61-1.05,9.11-12.82,6.26-12.93-20.37-.79-17.71,3.8-29.06,9.92-8.35,4.5-20.48,12.6-30.95,13.86-15.43,1.87-28.77-5.3-46,6.63-.82.57-3,.9-5.48,1.24q-.65-2.37-1.43-4.68c10.42-2.12,23-7.63,31.86-8.69,56.38-6.78,80.57-33.34,80.57-38.43,0-1.88-.41-2.4-3.26-2.47-20.41-.52-23.62,7.16-35.08,13.21-8.44,4.45-17.51,5.13-28.22,8.32-12.22,7-30.39,6.56-50.88,4.69a36.85,36.85,0,0,0-8.36.89,33.59,33.59,0,0,0-4.3-3.5c11.94-11.3,24.86-19.95,36.81-20.63,10.09-.58,19.34-8.5,28.58-9.33,12.55-1.12,25.11,3.78,39.93-7.63,2.07-1.6,1.76-2.46.5-4-3.69-4.61-80.63-10.17-126.38,20.48a9,9,0,0,0-2.71-1.63c-7.46-1.86-9.1-1.17-14.58-1.66-6.22-.55-13.34,2.52-15.88,6.78-3.09,5.17-16.76,8.36-18.06,13-.78,2.6-7.4,9.15-7.46,10.88-.09,2.53.62,3.47.57,4.6a26.1,26.1,0,0,0,.07,3.7l-1.18.27-.44.11-1,.28c-1.1.32-2,.65-2.93,1l-.16.06-1.28.48-.12,0-1,.36-.13.05-.47.15-.35.12-.82.26c-5.69,1.77-9.84,6.55-9.3,10.63.28,2.17-1.41,4.76-3.25,7.32l-.8,1.09c-2.11,2.91-4.07,5.68-3.14,7.65h0a1.34,1.34,0,0,0,.07.18v0a1.06,1.06,0,0,1,.06.19v0a1.17,1.17,0,0,1,0,.2v0c0,.07,0,.15,0,.22v0l0,.22v0c0,.08,0,.16,0,.24v.07c0,.08,0,.15,0,.24v.08c0,.08,0,.16,0,.24v.1c0,.06,0,.13,0,.19v.67c0,3-.56,6.8.18,7.73,1.53,1.92,2.75,2.38,3.42,3.24a30,30,0,0,0,2.62,3,19.43,19.43,0,0,0-6,3.25c-6.09,6.7-5.81,8.38-9,13.46-3.6,5.78-2.22,13.07,3,16.28,6.31,3.88,4.94,17.4,11.27,19.51,3.51,1.22,10.29,8.7,12.83,9.09,3.72.56,5.42.85,7.09.32,9.23-2.9,15.53-4.86,19.63-6.28-.67,5.11-.6,10.82.27,11.89,2.57,3.12,10.4,13.93,25.18,12.72,17.08-1.4,40-7,45-7.12,56.27-1.89,49-21.29,36.54-23-9.16-1.27-24.1,5.91-34.77,6.93-15.1,1.44-23.9,5.83-36.77-10.37.9-.28,1.79-.57,2.68-.87,3.92,4.18,9.65,8.87,11.16,9.67,8.44,4.45,54.61-16.52,63.32-15.58,43.56,4.71,45.89-10.17,38.91-18.95,16.88-3.33,30.76-7.52,40.69-11.62,4.11-1.7,7.88-3.46,11.37-5.29,15.73,3.95,32-1,51.9-12.06,14.83-8.22,38.56-1.89,48.86-15.37,11.51-15.07,13.22-1.15,38.84-26.9,1.51-1.51,2.54-6,.21-6.22-5.48-.47-25.66,6-40,14.32-17.17,9.9-32.83,16.43-56.51,18.46a16.51,16.51,0,0,0-6.56,2,54.77,54.77,0,0,1-5.65,2.71c3.88-3.83,7.51-7.69,11.23-11.51a69.06,69.06,0,0,0,8.72-4.63c8-4.92,21.59,0,26.84-8.51,5.86-9.53,7.38-.33,20.74-16.41.79-1,1.19-3.87-.13-4.08-3.1-.49-14.17,3.13-21.92,8.11a69.3,69.3,0,0,1-13.33,6.91c12.31-8.8,28.56-16.62,53.83-22.28,11.43-1.92,25.64-4.15,42.15-6.43,13.25-1.29,28.14-2.18,45-2.63,1.8,0,27.18-4.31,35.85-22.26C531.91,369.42,503.25,337.61,500.64,338ZM147.33,519.42l4.28.11c-1.67.27-3.43.58-5.31.94C146.65,520.13,147,519.77,147.33,519.42Zm42.2,1.13c-4.24-.44-7.88-.94-11.34-1.36,7.48-.35,14.69-.91,21.61-1.64C196.41,519.54,193,520.91,189.53,520.55Zm-29.26-32.48c0-.63.08-1.25.11-1.88q1.85.1,3.87.12A41.71,41.71,0,0,0,160.27,488.07Z"/><path d="M509.28,285.67c-1.37-2.06-1.12-10.85,1.42-17.64,3-8.11,4.17-15.15.87-24.64a4.29,4.29,0,0,1,0-2.83c2.19-6.45-.42-11.7-5.12-16.15-.72-.68-.45-1.22.53-1.75a59.63,59.63,0,0,1,7.4-3.41,2.54,2.54,0,0,1,2.71.22c9.42,5.95,10.11,13.83,6.27,25-2.4,6.95,6.28,15.25-.38,21.21-7.45,6.67,1.84,5.31-9.73,19C512.56,285.48,509.86,286.54,509.28,285.67Z"/><path class="cls-4" d="M510.31,285.18c-1.91-.61-.4-12.36,1.52-18.76,2.3-7.65,3.17-14.26.66-23.21a4.9,4.9,0,0,1,0-2.66c1.77-6.11.66-11.31-2.91-15.5-.55-.65-.34-1.16.4-1.65a41.81,41.81,0,0,1,5.62-3.22,1.6,1.6,0,0,1,2,.21c9.53,7.76,7.75,13.88,4.76,23.54-2,6.49,5.22,16.23-.29,21.39-6.71,6.29-1.21,9.12-8.71,18.27C512.84,284.3,511.19,285.46,510.31,285.18Z"/><path d="M528.69,312.85c-2-3.75-1.67-19.73,2.11-32.08C535.33,266,537,253.22,532.11,236a9.52,9.52,0,0,1,0-5.16c3.28-11.73-.62-21.27-7.65-29.37-1.08-1.24-.67-2.23.79-3.18A83.19,83.19,0,0,1,536.3,192c1.66-.73,2.49-.78,4,.41,14.09,10.81,15.12,25.16,9.38,45.44-3.59,12.66,9.38,27.75-.57,38.6-11.13,12.13,2.75,9.65-14.55,34.58C533.59,312.52,529.56,314.44,528.69,312.85Z"/><path class="cls-5" d="M457.83,394.16c-8.87-44.62-14.58-38.58-16.44-91.78-.41-11.81,3.43-31.09,6.73-40.58,22.69-65.25,112.39-80,60-166.91-1.23-2,16.44-8.33,17.84-5.54,20.65,41.08,24.64,79,22,99.24-7.89,60.87-70.48,50.2-23.66,176.07.48,1.29,3.75,20.35-11,31.23C497.1,407.93,458.22,396.11,457.83,394.16Z"/><path class="cls-6" d="M463.06,391.19C385.6,197.29,575.86,214.4,514.65,95.92c-1-2,10.75-2.75,11.93,0,69.65,161.63-68.78,106-7,262,.48,1.22,4.72,26.61-8,35.34C496.78,403.48,463.77,393,463.06,391.19Z"/><g class="cls-7"><path d="M525.28,153.79c.62.67,1.23,1.35,1.81,2a79.89,79.89,0,0,1,9.76,13.94c.93,1.75,1.76,3.53,2.54,5.35,1.5,3.49,3,7,4.29,10.54.51,1.42,1,2.84,1.44,4.27,4.14-20.6.94-48.81-18.54-94-1.18-2.75-13-2-11.93,0C527,119.76,529.1,138.11,525.28,153.79Z"/></g><g class="cls-8"><path class="cls-9" d="M503.94,276.51c-7.46-10.69-6.58-43.31-3.61-81-32.94,36.6-88,80.14-37.27,195.66.77,1.75,33.72,12.29,48.57,2.11,12.72-8.73,8.3-34.06,8-35.34A812.16,812.16,0,0,1,503.94,276.51Z"/></g><g class="cls-10"><path d="M517,351.26c-3.95-6.2-33.66-34.66-42.23-85.88-2.53-15.12,1.83-38.33,2.73-44.42-30.88,35.09-54,71.38-14.48,170.23.71,1.77,33.72,12.29,48.57,2.11,12.72-8.73,8.48-34.12,8-35.34C514.44,344.86,519.65,361.62,517,351.26Z"/></g><path class="cls-11" d="M468,45.52c-22.84,14.79-45.4,43.85-33.68,61.71s61.27,14.39,84.11-.4,24-45.62,13.78-64.79C522.15,23.17,490.79,30.73,468,45.52Z"/><path class="cls-12" d="M465,39.54c-23.13,15-45.89,44.53-33.87,62.84s62.35,15.05,85.48.07S540.67,56,530.21,36.34C519.92,17,488.09,24.56,465,39.54Z"/><path d="M521.17,38.4c-15.1-4.45-21.47-3-31.59-2.39-11,.68-13.93,0-17.09-5-1.4-2.32.08-7.33.79-8.25,4.67-6.07,6.36-6.32,10.32-9.9,4.51-4.07,11.92-5,16.51-2.21,5.56,3.43,18.15-1.12,22,2.8,2.19,2.15,11.36,5,12.46,6.65,1.62,2.48,2.4,3.6,2.38,4.92C536.48,58.48,537.17,43.11,521.17,38.4Z"/><path d="M438.46,69.3c-7.06,10.61-7.68,14.76-9.43,22.6-1.91,8.5-4.67,12.24-9.48,13.65-2.23.59-6-1.55-6.61-2.27-3.95-4.78-3.78-6.12-5.83-9.86-2.34-4.26-1.46-10.1,1.89-13,4.08-3.55,3.16-14.06,7.25-16.21,2.27-1.24,6.64-7.65,8.28-8.15,2.41-.74,3.52-.48,4.59-.82C443.52,50.7,445.94,58.06,438.46,69.3Z"/><path d="M459.08,211.21c4.89-1.35,23.37-25.48,13.49-67.12-2.08-8.79,1.61-24.63-3.16-32-1.4-2.15-8-8-11.45-7.43-11.21,1.79-5.06-1.44-11.1,5.45-1.86,2.12-.15,9.93.89,11.8,7.76,14,13.41,26.72,10.29,37.19,0,8.41,2,15,.21,22.14-2.48,9.7-8.92,14-2.49,28.29C456.65,211.55,457.27,211.71,459.08,211.21Z"/><path d="M489.17,198.36c2.36-6.14-1.56-20.29,14.86-54.31,4.66-9.65.36-25.44-4.59-32.73-1.45-2.14-8.82-9.78-12.39-9.24-11.64,1.78-4.46,2.45-10.74,9.3-1.93,2.1,1.46,10,.66,11.88-6.45,15.33,4.31,22.86,7,34.25,1.83,7.73-2.42,18.45-4.32,25.55-2.57,9.63-7.76,9-1.07,23.16C479.51,208.2,488.63,199.78,489.17,198.36Z"/><path d="M519.09,183.13c1.95-6.14.08-13.54,14.61-46.41,3.56-8.06.09-26.08-4-33.37-1.2-2.14-9.39-11.19-12.35-10.65-9.62,1.78-4.39,2.5-9.58,9.35-1.6,2.1-3.23,7.1-3.89,9-5.33,15.33,5.27,26.05,7.5,37.44,1.51,7.73-2.65,9.83-4.22,16.92-2.13,9.64-2.25,8.44,3.27,22.63C511.2,190,518.64,184.55,519.09,183.13Z"/><path d="M554.21,124.25c-3.43-5.91,3.3-44.08-3.43-48.87-2-1.4-17.28-8-19.6-6.29-7.57,5.74-3.37,5.35-4.89,13.73-.46,2.57,3.48,9.93,3.73,11.92,2.07,16.06,6.63,20.59,12.74,31.24,3.9,6.8-6.19,17.2-4.46,24.24C540.66,159.79,578.71,166.32,554.21,124.25Z"/><path class="cls-13" d="M521.27,37c-14.27-4.13-21.08-3-30.64-2.43-10.36.63-13.38,1.09-16.37-3.54-1.32-2.16.08-6.82.75-7.67,4.41-5.64,6-5.87,9.75-9.2,4.25-3.79,11.25-4.68,15.59-2,5.25,3.18,17.14-1,20.79,2.59,2.07,2,10.73,4.62,11.77,6.19,1.53,2.3,2.26,3.34,2.24,4.57C534.71,56.52,536.38,41.33,521.27,37Z"/><path class="cls-13" d="M436.55,70.55c-6.66,9.87-7.26,15.19-8.92,22.48-1.8,7.9-2.1,10.25-6.64,11.56-2.11.55-5.69-1.44-6.25-2.11-3.73-4.44-3.56-5.69-5.5-9.16-2.21-4-1.38-9.38,1.79-12.1,3.84-3.3,3-13.07,6.85-15.07C420,65,424.15,59,425.7,58.57c2.27-.68,3.32-.44,4.33-.75C443.63,53.61,443.61,60.11,436.55,70.55Z"/><path d="M513.72,67.11A10.69,10.69,0,0,1,509.06,73c-3.5,2.15-8.14,2.56-12.07,2-6.27-.81-8.68-10.08-6.79-14.4S503.78,43,508.86,48.3c1.73,1.81.83,5.22,2.57,6.42C515.13,57.28,515.36,62.19,513.72,67.11Z"/><path d="M460.82,48.35c-1.72,1-.26.16-8.07,6.3-2.81,2.21-1.66,3.05-1.37,6.51.47,5.52,9.08,5.76,13.15,3.52,1.5-.83,4.93-1.37,5.09-3.55.51-6.65,10-18.88,6.63-18.07-2.94.7-3.94,1-5.85.89C465.15,43.73,464,46.48,460.82,48.35Z"/><path d="M479.35,74.13c-1.7,2.2-2.72,6.3-4.92,5.52s-1.66-5.65-1.49-7.38,5-6.26,5.15-4C478.41,74.21,480.79,72.28,479.35,74.13Z"/><path d="M464.22,70.19c-1.14,2.42-3.49,4-1.91,5.38s6-2.61,7.37-3.58,2.67-5.76.72-4.79C465.23,69.79,465.18,68.15,464.22,70.19Z"/><path d="M447.21,73.74c1.63.49,6.78,2.37,6.2,6.52a1,1,0,0,1-.35.64,7.55,7.55,0,0,0-2.44,3.49,1.64,1.64,0,0,0,0,.23c0,.89.24,6.51,2.16,7.63a1,1,0,0,0,.55.13c1.11,0,6-.13,7.53,1.31a1.05,1.05,0,0,0,1.15.15c1.35-.63,4.21-1.8,6.31-1.56a1.05,1.05,0,0,0,.95-.38c.72-.86,2.31-2.52,3.43-2,0,0,4.05,1.59,5.85.57a1,1,0,0,1,.56-.11,5.36,5.36,0,0,0,3.29-1,1,1,0,0,1,.79-.16,41.23,41.23,0,0,0,5.12.74,14.3,14.3,0,0,1,3.71,0,1,1,0,0,1,.8.85,3.22,3.22,0,0,1-.33,2.38,1.1,1.1,0,0,0-.15,1.08A2.6,2.6,0,0,1,491,97.78a1.09,1.09,0,0,1-.56.15c-1.39,0-7.42-.1-7.49-.9,0,0-.25-3.3-.75-3.47,0,0-1.54-.61-1.43,2.66a1,1,0,0,1-.29.76,6.26,6.26,0,0,1-5.34,1.61,5.57,5.57,0,0,1-3.78-1.71,1.06,1.06,0,0,0-1.54,0c-.88.89-2,2.43-1.66,4.08a1,1,0,0,1-.39,1c-1.27,1-4.53,2.75-8.24-.42a1.54,1.54,0,0,1-.17-.19,1.6,1.6,0,0,1-.07-2s-1.78,4.94-6.53,3.23l-.2,0c-.8-.13-6.32-1.21-3.82-6.5h0a1,1,0,0,0-1.13-1.43c-1.64.24-3.64.31-4-.68a1.07,1.07,0,0,0-.24-.37c-.91-.86-4.76-4.89-.16-7.88a1,1,0,0,0,.26-1.52c-1.4-1.79-3.5-6,2.86-10.28A1,1,0,0,1,447.21,73.74Z"/><path class="cls-14" d="M447.45,76.53s4.89,3.51,2.15,5.32c0,0-2.74,3.88-4.64,0C445,81.85,444.62,76.64,447.45,76.53Z"/><path class="cls-14" d="M447.69,87s2.08,4,.34,4.53c0,0-4.32,1.82-2.66-2.27C445.37,89.23,447.27,86,447.69,87Z"/><path class="cls-14" d="M452.1,96.61c.49-.45,3.56-3.49,6.47-1.54,0,0-2.66,2.29-2.32,2.86,0,0,.33,3.27-2.49,2.42C453.76,100.35,448.69,99.75,452.1,96.61Z"/><path class="cls-14" d="M464.71,96.53c.31-.27,1.37-2.25,2.22-1.46,0,0,.73,4.75,0,5.54,0,0-2.35,1.94-3.36,1.36C463.57,102,459.73,100.9,464.71,96.53Z"/><path class="cls-14" d="M473.18,93.15c.34-.47,4.68-2.06,5.58,0,0,0-1.27,4.37-4.21,3.63C474.55,96.78,470.45,96.94,473.18,93.15Z"/><path class="cls-14" d="M484.55,91.42a5,5,0,0,1,4.49.7s2.07,3.09.5,3.5-5.65,1.83-5.57-.73A8.86,8.86,0,0,1,484.55,91.42Z"/><path class="cls-15" d="M521.68,58.7c.38.78-.16,1.8-.42,3.09-.08.42.69,1.48,1,1.71,1.38.88,4,2.41,3.63,4.31,0,.09-.64,2-.7,2.07-.72.85-2.82,4.27-4.67,4.48-.07,0-1.76,1-1.83,1-.78.2-3.21,1.45-3.26,3.89a1.13,1.13,0,0,1-.17.65,10.29,10.29,0,0,0,.33,1.83c.39.85-1.41,0-2-.55-.91-.88-.92-1-1.26-4.6,0-.09.1-.16.16-.23.66-.73,4.58-4.92,8.62-5.81l.18-.06c.66-.28,4.45-2.15-.18-5.7a.91.91,0,0,0-.34-.17c-1-.28-5.3-2.5-.85-6.82C520.53,57.28,521.37,58.06,521.68,58.7Z"/><path class="cls-13" d="M459.33,209.57c3.52-1.24,24.47-29.1,11-64.95-2.82-7.53,1.94-24.67-1.49-31.44-1-2-6.74-7.81-9.21-7.31-8.08,1.66-7.86-1.86-12.21,4.5-1.34,2-.07,9,.77,10.62,6.48,12.74,13.3,25.86,11.05,35.53-1.65,7.11,1.77,15.54.45,22.14-1.78,9-7.6,16.35-3,29.53C457.39,210,458,210,459.33,209.57Z"/><path class="cls-13" d="M488.67,196.64c1.63-5.71-1.37-19.66,12.16-49.75,3.3-7.33,1.94-24.66-1.49-31.44-1-2-9.55-13.08-12-12.57-8.07,1.65-5,3.41-9.39,9.77-1.34,1.95,1.33,8.85.77,10.62-4.47,14.24,5.5,24.61,7.36,35.2,1.27,7.19-2.67,17.35-4,23.95-1.79,9-5.38,8.34-.75,21.52C482,205.78,488.29,198,488.67,196.64Z"/><path class="cls-13" d="M517,181c1.63-5.71.74-13.15,14.27-43.24,3.3-7.33,1.94-24.66-1.49-31.44-1-2-9.55-13.08-12-12.57-8.07,1.65-5,3.41-9.39,9.77-1.33,2-1.53,8.61-2.09,10.38-4.47,14.25,5.87,24.6,7.74,35.19,1.26,7.18-3.67,8.74-5,15.34-1.79,8.95-1.9,7.84,2.74,21C512.45,187.34,516.66,182.36,517,181Z"/><path class="cls-13" d="M552.52,125c-3.22-5.5,1.43-44.35-4.66-48.93-1.79-1.34-14.38-7.56-16.38-6-6.51,5-3,5.27-4.09,12.89-.33,2.33,2.45,8.4,2.73,10.23,2.32,14.74,7.8,23.14,14.18,31.83,4.33,5.89-5.73,17.82-4,24.31C542.69,158.17,575.43,164.25,552.52,125Z"/><path d="M562.4,117.57c-3.88-6.14-1.33-18.59-3.45-26.4-3.25-12-1-19.6-25.74-24.35-1.71-.33.06-1.15-3.54-9s0-11.33-.28-12.7c-.59-2.62,16.37-8.19,18.73-7.57,3.75,1,16.41,3.65,19.54,14.42,3.63,12.44,5,30.11,6.23,33.64C588.43,125.91,567.68,125.89,562.4,117.57Z"/><path class="cls-13" d="M571.35,85.12c-1.26-3.17-.83-19.69-4.49-30.82-3.16-9.62-13.59-11.94-16.93-13.11-2.12-.74-17.1.71-18.53,2.78-4.66,6.75-1.25,5.92.05,13.51.4,2.32,3.91,8.58,5.74,8.91,22.2,4,20,15.37,23.27,26,2.16,7,0,18.71,3.66,24.37C569.08,124.47,585.67,121.35,571.35,85.12Z"/><path d="M468.07,41.37c-10.62,5-13.41,9.27-18.43,14.62-5.45,5.81-7.62,7.23-12.19,6-2.09-.59-4.2-4.11-4.35-5-1-5.68-.27-6.66-.24-10.6.05-4.49,3.43-8.69,7.51-9.39,4.95-.85,9-9.59,13.34-9.34,2.41.12,8.91-2.86,10.48-2.47,2.3.58,3.09,1.31,4.11,1.56C482.12,30.16,479.31,36.07,468.07,41.37Z"/><path class="cls-13" d="M467.23,40.83c-9.8,4.72-12.73,8.64-17.41,13.62-5.07,5.39-6.4,7.11-10.57,6.07-1.91-.53-3.8-3.73-3.94-4.51-.87-5.2-.16-6.1-.08-9.72.1-4.12,3.26-8,7-8.71,4.55-.84,8.39-8.92,12.35-8.73,2.22.07,8.22-2.74,9.66-2.4A39.4,39.4,0,0,1,468,27.83C480.64,30.73,477.62,35.83,467.23,40.83Z"/><path d="M432.35,199.48c-6.09-1.54-39.41-66.24-10.24-107.25,1.45-2,6.26-3.4,9.82-2.88,11.6,1.69,6,8.76,14.93,14,2.39,1.41-.66,3.62-1.87,5.31-9.31,13-15.77,26.61-12.54,36.5,2.37,7.28-2.54,15.92-.65,22.67,2.57,9.16,10.93,16.73,4.27,30.23C435.14,200,434.22,200,432.35,199.48Z"/><path class="cls-6" d="M530.23,312c-2.86-1.11-.6-22.5,2.27-34.13,3.43-13.92,4.74-25.94,1-42.22a10.6,10.6,0,0,1,0-4.85c2.65-11.1,1-20.57-4.35-28.19-.82-1.17-.5-2.1.61-3a60.83,60.83,0,0,1,8.39-5.85c1.26-.68,1.9-.76,3.06.39,14.25,14.1,11.6,25.24,7.11,42.8-3,11.81,7.81,29.52-.42,38.91-10,11.45-1.82,16.59-13,33.25C534,310.37,531.54,312.48,530.23,312Z"/><path class="cls-13" d="M429.92,194.9c-4.7-1.42-30.39-61.56-7.9-99.68,1.12-1.89,7.93-4.48,10.67-4,8.94,1.58,7,7.68,11.83,13.73,1.48,1.86-1.35,4.1-2.28,5.67-7.18,12.12-14.74,24.61-12.25,33.8,1.83,6.77-2,14.79-.5,21.07,2,8.51,8.43,15.55,3.29,28.1C432.07,195.34,431.36,195.34,429.92,194.9Z"/><path class="cls-16" d="M500.57,107.62A122.77,122.77,0,0,1,489.72,91.1a207.1,207.1,0,0,1-10.33-22.95C477,62,474.82,55.74,472.71,49.47q-1.56-4.65-3.14-9.27c-1,.61-2,1.22-3,1.86-23.13,15-45.89,44.52-33.87,62.84,9.9,15.08,45.78,15.52,71.06,6.84C502.7,110.38,501.63,109,500.57,107.62Z"/><g class="cls-17"><path d="M438.46,69.3c-7.06,10.61-7.68,14.76-9.43,22.6-1.91,8.5-4.67,12.24-9.48,13.65-2.23.59-6-1.55-6.61-2.27-3.95-4.78-3.78-6.12-5.83-9.86-2.34-4.26-1.46-10.1,1.89-13,4.08-3.55,3.16-14.06,7.25-16.21,2.27-1.24,6.64-7.65,8.28-8.15,2.41-.74,3.52-.48,4.59-.82C443.52,50.7,445.94,58.06,438.46,69.3Z"/></g><g class="cls-17"><path d="M459.08,211.21c4.89-1.35,23.37-25.48,13.49-67.12-2.08-8.79,1.61-24.63-3.16-32-1.4-2.15-8-8-11.45-7.43-11.21,1.79-5.06-1.44-11.1,5.45-1.86,2.12-.15,9.93.89,11.8,7.76,14,13.41,26.72,10.29,37.19,0,8.41,2,15,.21,22.14-2.48,9.7-8.92,14-2.49,28.29C456.65,211.55,457.27,211.71,459.08,211.21Z"/></g><g class="cls-17"><path d="M489.17,198.36c2.36-6.14-1.56-20.29,14.86-54.31,4.66-9.65.36-25.44-4.59-32.73-1.45-2.14-8.82-9.78-12.39-9.24-11.64,1.78-4.46,2.45-10.74,9.3-1.93,2.1,1.46,10,.66,11.88-6.45,15.33,4.31,22.86,7,34.25,1.83,7.73-2.42,18.45-4.32,25.55-2.57,9.63-7.76,9-1.07,23.16C479.51,208.2,488.63,199.78,489.17,198.36Z"/></g><g class="cls-17"><path d="M530.1,139.08c-5.17-4.54-10.11-9.35-14.81-14.37-4-4.31-7.82-8.81-11.5-13.4-5.12,15.19,5.37,25.85,7.59,37.18,1.51,7.73-2.65,9.83-4.22,16.92-2.13,9.64-2.25,8.44,3.27,22.63.77,2,8.21-3.49,8.66-4.91,1.87-5.89.23-12.93,12.88-42.44C531.34,140.16,530.72,139.62,530.1,139.08Z"/></g><g class="cls-17"><path d="M436.55,70.55c-6.66,9.87-7.26,15.19-8.92,22.48-1.8,7.9-2.1,10.25-6.64,11.56-2.11.55-5.69-1.44-6.25-2.11-3.73-4.44-3.56-5.69-5.5-9.16-2.21-4-1.38-9.38,1.79-12.1,3.84-3.3,3-13.07,6.85-15.07C420,65,424.15,59,425.7,58.57c2.27-.68,3.32-.44,4.33-.75C443.63,53.61,443.61,60.11,436.55,70.55Z"/></g><g class="cls-17"><path d="M471.08,47c-.33-1-.67-2-1-3-5-.09-6.15,2.58-9.25,4.41-1.72,1-.26.16-8.07,6.3-2.81,2.21-1.66,3.05-1.37,6.51.47,5.52,9.08,5.76,13.15,3.52,1.5-.83,4.93-1.37,5.09-3.55.19-2.51,1.67-5.82,3.25-8.93Q472,49.59,471.08,47Z"/></g><g class="cls-17"><path d="M479.35,74.13c-1.7,2.2-2.72,6.3-4.92,5.52s-1.66-5.65-1.49-7.38,5-6.26,5.15-4C478.41,74.21,480.79,72.28,479.35,74.13Z"/></g><g class="cls-17"><path d="M464.22,70.19c-1.14,2.42-3.49,4-1.91,5.38s6-2.61,7.37-3.58,2.67-5.76.72-4.79C465.23,69.79,465.18,68.15,464.22,70.19Z"/></g><g class="cls-17"><path d="M488.85,90l-.56.06a41.23,41.23,0,0,1-5.12-.74,1,1,0,0,0-.79.16,5.36,5.36,0,0,1-3.29,1,1,1,0,0,0-.56.11c-1.8,1-5.85-.57-5.85-.57-1.12-.55-2.71,1.11-3.43,2a1.05,1.05,0,0,1-.95.38c-2.1-.24-5,.93-6.31,1.56a1.05,1.05,0,0,1-1.15-.15c-1.56-1.44-6.42-1.35-7.53-1.31a1,1,0,0,1-.55-.13c-1.92-1.12-2.13-6.74-2.16-7.63a1.64,1.64,0,0,1,0-.23,7.55,7.55,0,0,1,2.44-3.49,1,1,0,0,0,.35-.64c.58-4.15-4.57-6-6.2-6.52a1,1,0,0,0-.89.14c-6.36,4.29-4.26,8.49-2.86,10.28a1,1,0,0,1-.26,1.52c-4.6,3-.75,7,.16,7.88a1.07,1.07,0,0,1,.24.37c.4,1,2.4.92,4,.68A1,1,0,0,1,448.77,96h0c-2.5,5.29,3,6.37,3.82,6.5l.2,0A4.83,4.83,0,0,0,459,100a1.86,1.86,0,0,0,.38,1.33,1.54,1.54,0,0,0,.17.19c3.71,3.17,7,1.38,8.24.42a1,1,0,0,0,.39-1c-.37-1.65.78-3.19,1.66-4.08a1.06,1.06,0,0,1,1.54,0,5.57,5.57,0,0,0,3.78,1.71A6.26,6.26,0,0,0,480.51,97a1,1,0,0,0,.29-.76c-.11-3.27,1.43-2.66,1.43-2.66.5.17.75,3.47.75,3.47.07.8,6.1.89,7.49.9a1.09,1.09,0,0,0,.56-.15A2.85,2.85,0,0,0,492.48,96C491.21,94,490,92,488.85,90Z"/><path d="M447.45,76.53s4.89,3.51,2.15,5.32c0,0-2.74,3.88-4.64,0C445,81.85,444.62,76.64,447.45,76.53Z"/><path d="M447.69,87s2.08,4,.34,4.53c0,0-4.32,1.82-2.66-2.27C445.37,89.23,447.27,86,447.69,87Z"/><path class="cls-18" d="M452.1,96.61c.49-.45,3.56-3.49,6.47-1.54,0,0-2.66,2.29-2.32,2.86,0,0,.33,3.27-2.49,2.42C453.76,100.35,448.69,99.75,452.1,96.61Z"/><path d="M464.71,96.53c.31-.27,1.37-2.25,2.22-1.46,0,0,.73,4.75,0,5.54,0,0-2.35,1.94-3.36,1.36C463.57,102,459.73,100.9,464.71,96.53Z"/><path d="M473.18,93.15c.34-.47,4.68-2.06,5.58,0,0,0-1.27,4.37-4.21,3.63C474.55,96.78,470.45,96.94,473.18,93.15Z"/><path d="M484.55,91.42a5,5,0,0,1,4.49.7s2.07,3.09.5,3.5-5.65,1.83-5.57-.73A8.86,8.86,0,0,1,484.55,91.42Z"/></g><g class="cls-17"><path d="M459.33,209.57c3.52-1.24,24.47-29.1,11-64.95-2.82-7.53,1.94-24.67-1.49-31.44-1-2-6.74-7.81-9.21-7.31-8.08,1.66-7.86-1.86-12.21,4.5-1.34,2-.07,9,.77,10.62,6.48,12.74,13.3,25.86,11.05,35.53-1.65,7.11,1.77,15.54.45,22.14-1.78,9-7.6,16.35-3,29.53C457.39,210,458,210,459.33,209.57Z"/></g><g class="cls-17"><path d="M488.67,196.64c1.63-5.71-1.37-19.66,12.16-49.75,3.3-7.33,1.94-24.66-1.49-31.44-1-2-9.55-13.08-12-12.57-8.07,1.65-5,3.41-9.39,9.77-1.34,1.95,1.33,8.85.77,10.62-4.47,14.24,5.5,24.61,7.36,35.2,1.27,7.19-2.67,17.35-4,23.95-1.79,9-5.38,8.34-.75,21.52C482,205.78,488.29,198,488.67,196.64Z"/></g><g class="cls-17"><path d="M530.1,139.08c-5.17-4.54-10.11-9.35-14.81-14.37-3.15-3.38-6.16-6.86-9.08-10.42-4.2,14.07,6,24.33,7.84,34.84,1.26,7.18-3.67,8.74-5,15.34-1.79,8.95-1.9,7.84,2.74,21,.64,1.84,4.85-3.14,5.23-4.46,1.59-5.6.78-12.88,13.52-41.56Z"/></g><g class="cls-17"><path d="M464.83,29c-.46-1.23-.91-2.47-1.33-3.72-2.27.24-7.65,2.58-9.79,2.48-4.32-.25-8.39,8.49-13.34,9.34-4.08.7-7.46,4.9-7.51,9.39,0,3.94-.79,4.92.24,10.6.15.85,2.26,4.37,4.35,5,4.57,1.2,6.74-.22,12.19-6,5-5.35,7.81-9.62,18.43-14.62l1-.47C467.68,36.91,466.29,32.93,464.83,29Z"/></g><g class="cls-17"><path d="M464.83,29c-.31-.84-.62-1.69-.92-2.54-1.87,0-7.25,2.49-9.32,2.42-4-.19-7.8,7.89-12.35,8.73-3.75.69-6.91,4.59-7,8.71-.08,3.62-.79,4.52.08,9.72.14.78,2,4,3.94,4.51,4.17,1,5.5-.68,10.57-6.07,4.68-5,7.61-8.9,17.41-13.62.53-.25,1-.5,1.53-.76C467.49,36.36,466.19,32.66,464.83,29Z"/></g><g class="cls-17"><path d="M432.35,199.48c-6.09-1.54-39.41-66.24-10.24-107.25,1.45-2,6.26-3.4,9.82-2.88,11.6,1.69,6,8.76,14.93,14,2.39,1.41-.66,3.62-1.87,5.31-9.31,13-15.77,26.61-12.54,36.5,2.37,7.28-2.54,15.92-.65,22.67,2.57,9.16,10.93,16.73,4.27,30.23C435.14,200,434.22,200,432.35,199.48Z"/></g><g class="cls-17"><path d="M429.92,194.9c-4.7-1.42-30.39-61.56-7.9-99.68,1.12-1.89,7.93-4.48,10.67-4,8.94,1.58,7,7.68,11.83,13.73,1.48,1.86-1.35,4.1-2.28,5.67-7.18,12.12-14.74,24.61-12.25,33.8,1.83,6.77-2,14.79-.5,21.07,2,8.51,8.43,15.55,3.29,28.1C432.07,195.34,431.36,195.34,429.92,194.9Z"/></g></g></svg>
