<svg xmlns="http://www.w3.org/2000/svg" width="1920" height="1080" viewBox="0 0 1920 1080"><defs><style>.cls-1{fill:#443135;}</style></defs><g id="Layer_3" data-name="Layer 3"><path class="cls-1" d="M1891.8,1103.2h14.82c35.39-37.4,89.91-80.3,104.16-130.12-5.87-1.31-42.71,60.56-48.59,59.32C1920.53,1076.78,1902.45,1093.46,1891.8,1103.2Z"/><path class="cls-1" d="M1866,992.16a8.12,8.12,0,0,1,1-.38C1864.26,992.58,1864.2,992.63,1866,992.16Z"/><path class="cls-1" d="M1832.92,1103.2a276.17,276.17,0,0,1-18.45-41.56c28-59.62,66.28-68.75,122.44-85.56-.71-3.12-61.55,13.64-70.93,16.08-4.11,1.83-21.42,11.4-56.11,53.8-8.78-22.94-17.13-42.74-22.8-66.89,51.47-33,77.77-45.79,121.86-93.47C1792.52,981,1858.51,911.05,1855.4,909c-41.52,45-20.16,28.35-70.2,58.73-.6-6.86-.93-13.73-1.48-20.59,25.38-35.54,49.19-72.17,72.78-108.9-5.31-2.49-49.93,74.29-55.24,71.79-24.13,37.59-28.91,39.65-34.73,32.4-1.66.35-3.33.68-5,1-33.3-76.44-1.34-61.64-79.63-111.22-2.17,3.56-21.92-10.14-24-6.54,106.84,60.34,55.5,42.41,90.94,120.32-2.31.49-4.6,1-6.88,1.61-90.79-40.46-85.48,18.18-132.4-55.12.71,22.28-24.28-21.8-28-19.71,72.9,108.43,42.3,49,165.43,88.4,2.25,21,24.35,47.33,31.57,67.37-32.94-13.95-63.37-5.46-165.74-61.33-39.88-12.63-66.53-36-69.47-33.06,75.55,64.88,156.16,87,246.25,121.61a468.81,468.81,0,0,0,20.1,47.44Z"/><path class="cls-1" d="M7.54,829.71a8.37,8.37,0,0,1,1.28.38C11.15,830.42,11.06,830.36,7.54,829.71Z"/><path class="cls-1" d="M10.72,1086.92C-5,1102.23-19.08,1117-31.77,1131.3l43.43,9.53C49.12,1085.5,85.39,1019.1,112,909.4c112.28-69.5,213.52-118.61,304.58-230.27-4-3.74-36.09,36.33-86,63.11C204.39,845.87,164.72,839.34,123.78,866.7c7.51-31.27,33.52-74.81,34.59-106.57,154.15-83.23,120.12,11.26,204-164.68-4.89-2.36-33.05,68.23-34.06,34.94-53.73,118.45-52,30.15-164.66,108.53-3-.39-5.95-.75-8.94-1,38.62-123-25.52-86,106-197.25-3-4.93-27.09,19.41-30.17,14.55-95.91,89.45-56.3,61-92.3,181.44l-6.49-.52c-6.82,12-13.11,9.84-47.23-41.24C78,699.66,14.26,594.37,7.68,599.14c33.35,49.91,67,99.64,102.51,147.44-.11,10.32,0,20.61-.12,30.94C43.42,742.34,72.2,762.83,15.19,704.2c-3.8,3.7,86.65,94.48-70.51-24.07,60.53,62.11,95.27,75.92,164,114.66-5.17,37.06-14.14,68.21-23.4,104.09-48-56.13-71-66.89-76.43-68.79-12.23-1.76-91.5-14.51-92.14-9.72C-10,834.12,39.75,840,80.71,923.14,71.24,966,51.52,1015.24,32.24,1054c-49.1-67.25-17.77-18.19-143-144.73-7.42,3-59.89-81.64-67.28-78.52C-142.41,943.65,21.16,1010.45,10.72,1086.92Z"/></g></svg>
