<svg xmlns="http://www.w3.org/2000/svg" width="180" height="170" viewBox="0 0 180 170"><defs><style>.cls-1{fill:#f22525;}.cls-2{opacity:0.6;}.cls-3{fill:#fff;}</style></defs><g id="Layer_2" data-name="Layer 2"><g id="Layer_3" data-name="Layer 3"><path d="M180,48.53c1.73-49.18-59-64.92-91.16-28.8C56.69-16.36-1.31,0,.45,49.19c13.66,57.86,59,67,85.59,120.81C109,117.43,167.89,104.25,180,48.53Z"/><path class="cls-1" d="M166.53,60.06C168.26,10.87,118.17.36,86,36.48,53.93.39-1.71,9.4,0,58.62,13.7,116.48,59.45,116.2,86,170,109,117.43,154.46,115.77,166.53,60.06Z"/><g class="cls-2"><path class="cls-3" d="M48.85,50.05c-6,10.62-16,16.51-29.86,16.4S4.43,43.79,9.33,36.37s15.88-14,24.59-11.58S54.83,39.42,48.85,50.05Z"/></g></g></g></svg>
