<svg xmlns="http://www.w3.org/2000/svg" width="340" height="320" viewBox="0 0 340 320"><defs><style>.cls-1{fill:#f22525;}.cls-2{opacity:0.6;}.cls-3{fill:#fff;}</style></defs><g id="Layer_3" data-name="Layer 3"><path d="M339.93,91.36c3.26-92.59-111.5-122.21-172.19-54.22C107.09-30.8-2.47-.06.85,92.58,26.66,201.51,112.29,218.73,162.53,320,206,221,317.13,196.24,339.93,91.36Z"/><path class="cls-1" d="M314.56,113.05c3.26-92.59-91.35-112.37-152-44.38C101.88.74-3.24,17.69.08,110.34,25.88,219.26,112.29,218.73,162.53,320,206,221,291.76,217.93,314.56,113.05Z"/><g class="cls-2"><path class="cls-3" d="M92.27,94.21c-11.31,20-30.21,31.07-56.39,30.87S8.38,82.42,17.63,68.47s30-26.39,46.44-21.8S103.57,74.21,92.27,94.21Z"/></g></g></svg>
