<svg xmlns="http://www.w3.org/2000/svg" width="284.09" height="446.14" viewBox="0 0 284.09 446.14"><defs><style>.cls-1{fill:#f3e200;}.cls-2{fill:#f32900;}</style></defs><g id="Layer_3" data-name="Layer 3"><path class="cls-1" d="M87.34-3.86C141.61,74,57.25,82.5,194.91,174.06c0,0,8.3-50.37,33.8-67.14,0,0-29,45.15,15.85,108.16a194.23,194.23,0,0,1,19.78,34.41c111.3,252.6-285.19,275.38-259-11A272.56,272.56,0,0,1,56.68,102.62C79.71,71.16,101,36.32,87.34-3.86Z"/><path class="cls-2" d="M199.84,0s-82.16,59.56,25.8,209.3A188.34,188.34,0,0,1,260,301.23C294.74,658.68-267.92,254,199.84,0Z"/><path class="cls-1" d="M142.07,182.41s16.48,23.92-31.37,100.43a144.42,144.42,0,0,0-13,26C44.66,451.05,291.31,484.4,206.14,326.1a124.29,124.29,0,0,0-16.16-23c-9.83-11.22-21.25-30.82-8.52-54.52,0,0-24.44,30.11-22.12,43.87C128,268.92,205.32,197.48,142.07,182.41Z"/></g></svg>
