<svg id="Layer_1" data-name="Layer 1" xmlns="http://www.w3.org/2000/svg" xmlns:xlink="http://www.w3.org/1999/xlink" width="1300" height="600" viewBox="0 0 1300 600"><defs><style>.cls-1{fill:#8dacc6;}.cls-2{fill:#78c14b;}.cls-3{fill:#dd1c59;}.cls-4{fill:#030303;}.cls-5{fill:url(#linear-gradient);}.cls-6{fill:url(#linear-gradient-2);}.cls-7{fill:url(#linear-gradient-3);}.cls-8{fill:url(#linear-gradient-4);}.cls-32,.cls-9{fill:#010101;}.cls-10{fill:#78c258;}.cls-11{fill:#fff;}.cls-12{fill:url(#linear-gradient-5);}.cls-13{fill:url(#linear-gradient-6);}.cls-14{fill:url(#linear-gradient-7);}.cls-15{fill:url(#linear-gradient-8);}.cls-16{fill:url(#linear-gradient-9);}.cls-17{fill:url(#linear-gradient-10);}.cls-18{fill:url(#linear-gradient-11);}.cls-19{fill:url(#linear-gradient-12);}.cls-20{fill:url(#linear-gradient-13);}.cls-21{fill:url(#linear-gradient-14);}.cls-22{fill:#292825;}.cls-23{fill:#57513f;}.cls-24{fill:#898365;}.cls-25{fill:#54534b;}.cls-26{fill:#d6232c;}.cls-27{fill:#d3d327;}.cls-28{fill:#f3e206;}.cls-29{fill:#ee3024;}.cls-30{fill:#267d99;}.cls-31{fill:#cfdee3;}.cls-32{opacity:0.62;isolation:isolate;}.cls-33{fill:#78c263;}.cls-34{fill:#f8dae9;}.cls-35{fill:#7c2368;}.cls-36{fill:#d6c22f;}.cls-37{fill:#0c0c0c;}.cls-38{fill:#d3ca1a;}</style><linearGradient id="linear-gradient" x1="1080.14" y1="135.54" x2="1080.68" y2="151.33" gradientTransform="matrix(1, 0, 0, -1, 0, 599.89)" gradientUnits="userSpaceOnUse"><stop offset="0" stop-color="#9dd199"/><stop offset="0.98" stop-color="#78c258"/></linearGradient><linearGradient id="linear-gradient-2" x1="-11233.5" y1="90.76" x2="-11233.19" y2="99.9" gradientTransform="translate(-10147.47 599.89) rotate(180)" xlink:href="#linear-gradient"/><linearGradient id="linear-gradient-3" x1="-11328.97" y1="98.63" x2="-11328.66" y2="107.56" gradientTransform="translate(-10252.26 599.89) rotate(180)" xlink:href="#linear-gradient"/><linearGradient id="linear-gradient-4" x1="1297.34" y1="-948.98" x2="1297.88" y2="-933.2" gradientTransform="matrix(0.99, -0.12, -0.23, -1.9, -337.13, -1135.75)" xlink:href="#linear-gradient"/><linearGradient id="linear-gradient-5" x1="1152.38" y1="87.58" x2="1152.78" y2="99.48" xlink:href="#linear-gradient"/><linearGradient id="linear-gradient-6" x1="1157.58" y1="140.36" x2="1157.99" y2="152.26" xlink:href="#linear-gradient"/><linearGradient id="linear-gradient-7" x1="-11241.55" y1="110.31" x2="-11241.24" y2="119.45" gradientTransform="translate(-10147.47 599.89) rotate(180)" xlink:href="#linear-gradient"/><linearGradient id="linear-gradient-8" x1="-11273.79" y1="150.2" x2="-11273.48" y2="159.34" gradientTransform="translate(-10147.47 599.89) rotate(180)" xlink:href="#linear-gradient"/><linearGradient id="linear-gradient-9" x1="-11259.82" y1="136.75" x2="-11259.51" y2="145.9" gradientTransform="translate(-10147.47 599.89) rotate(180)" xlink:href="#linear-gradient"/><linearGradient id="linear-gradient-10" x1="-11286.75" y1="162.88" x2="-11286.21" y2="178.82" gradientTransform="translate(-10147.47 599.89) rotate(180)" xlink:href="#linear-gradient"/><linearGradient id="linear-gradient-11" x1="-11243.61" y1="79.53" x2="-11243.06" y2="95.47" gradientTransform="translate(-10147.47 599.89) rotate(180)" xlink:href="#linear-gradient"/><linearGradient id="linear-gradient-12" x1="-11286.76" y1="77.16" x2="-11286.22" y2="93.1" gradientTransform="translate(-10147.47 599.89) rotate(180)" xlink:href="#linear-gradient"/><linearGradient id="linear-gradient-13" x1="1275.18" y1="-931.02" x2="1275.54" y2="-920.56" gradientTransform="matrix(0.99, -0.12, -0.23, -1.9, -337.13, -1135.75)" xlink:href="#linear-gradient"/><linearGradient id="linear-gradient-14" x1="1260.22" y1="-940.26" x2="1260.58" y2="-929.8" gradientTransform="matrix(0.99, -0.12, -0.23, -1.9, -337.13, -1135.75)" xlink:href="#linear-gradient"/></defs><rect class="cls-1" width="1300" height="600" rx="60.93"/><rect class="cls-2" x="103.38" y="295.04" width="309.88" height="242.23"/><rect class="cls-3" x="719.22" y="295.04" width="532.81" height="242.23"/><path class="cls-4" d="M1078.5,447.52s3.4,7.27-1.07,10.8c0,0-6.06,6.23.55,7.41,0,0,9.08,1.52,7.24-3.55s-3.4-6.2-2.45-16.13Z"/><path class="cls-5" d="M1078.49,447.38s3.51,6.87,0,10.12c0,0-6.1,6.79-.91,7.87,0,0,9.75,1.72,6.7-4.62s-1.82-14.37-1.52-14.84C1082.84,445.79,1078.49,447.38,1078.49,447.38Z"/><path class="cls-4" d="M1087.29,499.4s-2.59,4.21.81,6.24c0,0,4.61,3.61-.42,4.29,0,0-6.9.88-5.51-2.06s2.59-3.58,1.87-9.32Z"/><path class="cls-6" d="M1087.29,499.32s-2.66,4,0,5.85c0,0,4.64,3.93.7,4.55,0,0-7.42,1-5.1-2.67a11.34,11.34,0,0,0,1.16-8.58C1084,498.4,1087.29,499.32,1087.29,499.32Z"/><path class="cls-4" d="M1077.8,491.75s-2.24,4.11.71,6.1c0,0,4,3.52-.37,4.19,0,0-6,.86-4.78-2s2.25-3.5,1.63-9.11Z"/><path class="cls-7" d="M1077.81,491.67s-2.32,3.88,0,5.72c0,0,4,3.84.6,4.45,0,0-6.44,1-4.43-2.61a12.25,12.25,0,0,0,1-8.39C1074.94,490.77,1077.81,491.67,1077.81,491.67Z"/><path class="cls-4" d="M1159.94,478.75s5,13.4,1.39,20.64c0,0-4.6,12.57,2.22,14,0,0,9.36,1.79,6.39-7.62s-4.78-11.35-6.09-30.33Z"/><path class="cls-8" d="M1159.9,478.48s5,12.63,2.3,19.22c0,0-4.52,13.64.87,15.07,0,0,10.08,2.07,5.62-9.6s-5.07-27.08-4.88-28C1163.86,474.93,1159.9,478.48,1159.9,478.48Z"/><path class="cls-9" d="M1171.52,445.44c-14-25.61-37.69-23.41-23.59-72.73,0,0-68.77,32.53-79.32,95.27-5.1,30.35,24.06,55.78,53.74,55.78,25.28,0,53.74-25,53.74-55.78A57.45,57.45,0,0,0,1171.52,445.44Z"/><path class="cls-10" d="M1168.5,446.15c-13.13-24-37-23.06-23.74-69.36,0,0-63,31.61-72.88,90.52-4.79,28.49,22.59,52.37,50.46,52.37s50.45-23.45,50.45-52.37A54,54,0,0,0,1168.5,446.15Z"/><path class="cls-9" d="M1103.59,435.73c-2.12-3.88-5.71-3.54-3.57-11,0,0-10.41,4.92-12,14.42-.78,4.6,3.64,8.45,8.14,8.45,3.82,0,8.13-3.78,8.13-8.45A8.54,8.54,0,0,0,1103.59,435.73Z"/><path class="cls-11" d="M1103.13,435.75c-2-3.64-5.6-3.49-3.59-10.5,0,0-9.54,4.79-11,13.71-.72,4.31,3.42,7.93,7.64,7.93a7.79,7.79,0,0,0,7.64-7.93A8,8,0,0,0,1103.13,435.75Z"/><path class="cls-4" d="M1148.11,500s8.15,3.13,2.47,6.45c0,0-7.69,5.88.7,7,0,0,8.51,1.41,6-6.6-1.55-5-4.44.92-3.23-8.44Z"/><path class="cls-12" d="M1148.11,500s8.27,2.61,3.82,5.67c0,0-7.75,6.41-1.16,7.43,0,0,10,1.88,4.92-7.39-.3-.55-3.75-4.5-1.61-7.31C1154.17,498.28,1148.11,500,1148.11,500Z"/><path class="cls-4" d="M1153.32,447.22s8.14,3.13,2.47,6.45c0,0-7.7,5.88.69,7,0,0,8.52,1.41,6-6.6-1.56-5-4.44.92-3.24-8.44Z"/><path class="cls-13" d="M1153.32,447.22s8.27,2.61,3.81,5.67c0,0-7.75,6.41-1.16,7.43,0,0,10,1.88,4.92-7.39-.3-.55-3.75-4.5-1.61-7.31C1159.37,445.5,1153.32,447.22,1153.32,447.22Z"/><path class="cls-4" d="M1095.34,479.85s-2.59,4.2.81,6.24c0,0,4.61,3.61-.42,4.29,0,0-6.91.88-5.51-2.06s2.59-3.58,1.87-9.32Z"/><path class="cls-14" d="M1095.34,479.76s-2.67,4,0,5.86c0,0,4.64,3.92.7,4.55,0,0-7.43,1-5.11-2.67a11.32,11.32,0,0,0,1.16-8.59C1092,478.85,1095.34,479.76,1095.34,479.76Z"/><path class="cls-4" d="M1127.57,440s-2.59,4.21.82,6.25c0,0,4.61,3.6-.42,4.28,0,0-6.91.88-5.51-2s2.59-3.58,1.87-9.33Z"/><path class="cls-15" d="M1127.58,439.88s-2.67,4,0,5.85c0,0,4.64,3.93.7,4.56,0,0-7.43,1-5.11-2.68a11.29,11.29,0,0,0,1.16-8.58C1124.27,439,1127.58,439.88,1127.58,439.88Z"/><path class="cls-4" d="M1113.61,453.4s-2.59,4.21.81,6.25c0,0,4.61,3.6-.42,4.28,0,0-6.91.88-5.51-2.05s2.59-3.58,1.87-9.32Z"/><path class="cls-16" d="M1113.61,453.32s-2.67,4,0,5.85c0,0,4.64,3.93.7,4.56,0,0-7.43,1-5.11-2.68a11.29,11.29,0,0,0,1.16-8.58C1110.3,452.4,1113.61,453.32,1113.61,453.32Z"/><path class="cls-4" d="M1140.92,420s-3.37,7.34,1,10.9c0,0,6,6.3-.54,7.49,0,0-9,1.53-7.17-3.59s3.37-6.26,2.43-16.29Z"/><path class="cls-17" d="M1140.92,419.87s-3.47,6.94,0,10.22c0,0,6,6.86.91,8,0,0-9.66,1.73-6.64-4.67s1.8-14.52,1.51-15C1136.62,418.27,1140.92,419.87,1140.92,419.87Z"/><path class="cls-4" d="M1097.77,503.37s-3.37,7.35,1,10.9c0,0,6,6.3-.54,7.49,0,0-9,1.54-7.17-3.59s3.37-6.26,2.43-16.28Z"/><path class="cls-18" d="M1097.77,503.22s-3.47,6.95,0,10.22c0,0,6,6.87.91,8,0,0-9.66,1.73-6.64-4.67s1.81-14.52,1.51-15C1093.47,501.62,1097.77,503.22,1097.77,503.22Z"/><path class="cls-4" d="M1140.92,505.74s-3.37,7.35,1,10.91c0,0,6,6.29-.54,7.48,0,0-9,1.54-7.17-3.59s3.37-6.25,2.43-16.28Z"/><path class="cls-19" d="M1140.92,505.6s-3.47,6.94,0,10.22c0,0,6,6.86.91,7.95,0,0-9.66,1.74-6.64-4.67s1.8-14.52,1.51-15C1136.62,504,1140.92,505.6,1140.92,505.6Z"/><path class="cls-4" d="M1135.78,458s3.27,8.88.9,13.68c0,0-3,8.34,1.45,9.29,0,0,6.08,1.18,4.15-5.06s-3.11-7.53-4-20.1Z"/><path class="cls-20" d="M1135.76,457.82s3.27,8.37,1.49,12.74c0,0-2.94,9,.57,10,0,0,6.54,1.38,3.64-6.36a61,61,0,0,1-3.17-18.56C1138.33,455.47,1135.76,457.82,1135.76,457.82Z"/><path class="cls-4" d="M1123.09,477.33s3.27,8.89.91,13.68c0,0-3,8.34,1.44,9.29,0,0,6.08,1.19,4.15-5.06s-3.11-7.52-4-20.1Z"/><path class="cls-21" d="M1123.07,477.15s3.27,8.38,1.49,12.74c0,0-2.93,9.05.57,10,0,0,6.55,1.37,3.64-6.37a60.41,60.41,0,0,1-3.16-18.56C1125.64,474.8,1123.07,477.15,1123.07,477.15Z"/><path class="cls-9" d="M1028.34,425.31c-2.84,3.48-14.22-2.29-26.33-12.45s-19-21.33-16.13-24.81,15.14,1.72,27.08,12.1C1027.36,412.68,1031.18,421.83,1028.34,425.31Z"/><path class="cls-9" d="M1008.17,406.24a106.43,106.43,0,0,1,17.27,19.49c2.06.36,2.68,1.37,3.46.41,2.78-3.41-3.87-15.67-16-25.84s-24.18-15.65-27-12.24a3.48,3.48,0,0,0-.47,2.84C993.37,395.43,1001.09,400,1008.17,406.24Z"/><path class="cls-9" d="M1004.12,409.07s3-17.62,21.82-17.12c0,0,10.16-9.54,11.31-11l1.42.89s-9.92,10.94-12.76,11.82c0,0-13.14-3.2-20.49,16Z"/><path class="cls-9" d="M1028.9,426.14s-11.66-1.68-26.67-13.66S985.8,388,985.8,388l-8.52,15c-9.28-5.07-20.69-6.54-32-6.54-36.35,0-63.41,33.46-61.35,70.29,1.93,34.45,26.76,60.18,63.11,60.18s64.07-26.81,64.07-63.69a67.4,67.4,0,0,0-4-23.1Z"/><polygon class="cls-9" points="1042.05 407.77 1033.69 397.38 1022.83 405.02 1025.62 391.91 1012.97 388.06 1024.81 382.1 1019.89 369.66 1031.86 375.33 1038.38 363.67 1041.47 376.71 1054.52 374.61 1046.4 385.19 1056.15 394.24 1042.94 394.39 1042.05 407.77"/><polygon class="cls-9" points="1048.06 403.07 1036.86 395.97 1028.99 406.75 1027.48 393.43 1014.27 393.91 1023.59 384.41 1014.99 374.23 1028.12 375.7 1030.6 362.53 1037.66 373.86 1049.35 367.61 1045.02 380.28 1057.12 385.66 1044.66 390.12 1048.06 403.07"/><polygon class="cls-9" points="1040.38 393.66 1035.14 390.44 1031.56 395.49 1030.77 389.32 1024.65 389.63 1028.92 385.16 1024.86 380.5 1030.96 381.09 1032.03 374.97 1035.37 380.18 1040.76 377.21 1038.83 383.11 1044.47 385.53 1038.72 387.68 1040.38 393.66"/><path class="cls-22" d="M1026.3,425.27c-2.69,3.3-13.47-2.17-24.94-11.79s-18-20.2-15.27-23.5,14.34,1.63,25.64,11.46C1025.37,413.3,1029,422,1026.3,425.27Z"/><path class="cls-23" d="M1007.2,407.21a100.72,100.72,0,0,1,16.35,18.45c2,.35,2.54,1.3,3.28.39,2.63-3.23-3.67-14.84-15.14-24.47s-22.9-14.81-25.53-11.59a3.25,3.25,0,0,0-.45,2.69C993.18,397,1000.5,401.3,1007.2,407.21Z"/><path class="cls-24" d="M1003.36,409.89s2.87-16.69,20.66-16.21c0,0,9.63-9,10.71-10.4l1.35.84s-9.39,10.36-12.09,11.19c0,0-12.43-3-19.4,15.14Z"/><path class="cls-25" d="M1026.83,426.05s-11-1.58-25.26-12.93S986,390,986,390l-8.82,15.47a61.39,61.39,0,0,0-29.52-7.53c-34.42,0-62.33,28.32-62.33,63.25s27.91,63.24,62.33,63.24S1010,496.1,1010,461.17a63.94,63.94,0,0,0-3.83-21.87Z"/><polygon class="cls-26" points="1039.28 408.65 1031.37 398.82 1021.08 406.05 1023.73 393.64 1011.74 389.99 1022.95 384.35 1018.29 372.56 1029.63 377.94 1035.81 366.9 1038.73 379.25 1051.09 377.26 1043.4 387.28 1052.64 395.84 1040.13 395.99 1039.28 408.65"/><polygon class="cls-27" points="1044.97 404.21 1034.36 397.49 1026.92 407.69 1025.48 395.08 1012.98 395.54 1021.8 386.53 1013.65 376.9 1026.09 378.29 1028.43 365.82 1035.12 376.55 1046.19 370.63 1042.09 382.63 1053.55 387.72 1041.75 391.94 1044.97 404.21"/><polygon class="cls-26" points="1037.7 395.3 1032.73 392.25 1029.34 397.02 1028.6 391.19 1022.81 391.48 1026.84 387.25 1023.01 382.83 1028.78 383.4 1029.79 377.6 1032.96 382.53 1038.06 379.72 1036.23 385.31 1041.57 387.6 1036.13 389.63 1037.7 395.3"/><path class="cls-28" d="M772,366.3c19,27.7-10.58,30.7,37.74,63.28,0,0,2.91-17.91,11.86-23.88,0,0-10.19,16.06,5.56,38.47a69.3,69.3,0,0,1,7,12.24c39.06,89.84-100.1,97.94-90.91-3.91a97.79,97.79,0,0,1,18-48.33C769.31,393,776.77,380.59,772,366.3Z"/><path class="cls-29" d="M811.47,367.67s-28.84,21.19,9,74.44a67.68,67.68,0,0,1,12.08,32.7C844.77,601.94,647.3,458,811.47,367.67Z"/><path class="cls-28" d="M791.19,432.55s5.79,8.51-11,35.72a51.42,51.42,0,0,0-4.54,9.24c-18.64,50.58,67.93,62.45,38,6.15a44.8,44.8,0,0,0-5.67-8.19c-3.45-4-7.46-11-3-19.38,0,0-8.58,10.71-7.77,15.6C786.24,463.32,813.39,437.91,791.19,432.55Z"/><path class="cls-9" d="M287.65,416.56c-15.59-27.84-42-25.45-26.3-79.06,0,0-76.67,35.36-88.43,103.56-5.69,33,26.82,60.64,59.91,60.64,28.19,0,59.92-27.15,59.92-60.64A61,61,0,0,0,287.65,416.56Z"/><path class="cls-30" d="M282.44,416.71c-14.63-26.14-41.23-25.06-26.46-75.4,0,0-70.22,34.37-81.26,98.4-5.34,31,25.19,56.94,56.25,56.94s56.26-25.49,56.26-56.94A57.22,57.22,0,0,0,282.44,416.71Z"/><path class="cls-9" d="M211.92,406c-2.36-4.22-6.37-3.86-4-12,0,0-11.61,5.36-13.39,15.69-.86,5,4.07,9.18,9.08,9.18,4.26,0,9.07-4.11,9.07-9.18A9.37,9.37,0,0,0,211.92,406Z"/><path class="cls-31" d="M211.41,406c-2.22-4-6.25-3.8-4-11.42,0,0-10.63,5.21-12.31,14.9-.8,4.69,3.82,8.62,8.52,8.62a8.57,8.57,0,0,0,8.52-8.62h0A8.69,8.69,0,0,0,211.41,406Z"/><path class="cls-11" d="M184.48,320.36v-3.1h-3.06v-3.45h3.06v-3.09h3.41v3.09h3.05v3.45h-3.05v3.1Z"/><path class="cls-11" d="M195.1,324.84V304.66a3.67,3.67,0,0,1-1.46,1,4.43,4.43,0,0,1-1.75.4v-4.18a6.55,6.55,0,0,0,1.68-.52,6.08,6.08,0,0,0,1.66-1.08,4.53,4.53,0,0,0,1.19-1.68h4.15v26.21Z"/><path class="cls-11" d="M209.66,324.84V298.65h6.83a4.85,4.85,0,0,1,5.2,3.72,14.5,14.5,0,0,1,.54,4.25,16.56,16.56,0,0,1-.46,4.15,4.5,4.5,0,0,1-4.93,3.69h-2.1v10.38Zm5.08-15.08H215c1,0,1.55-.27,1.77-.82a7,7,0,0,0,.32-2.41,6.58,6.58,0,0,0-.32-2.29,1.4,1.4,0,0,0-1.49-.82h-.57Z"/><path class="cls-11" d="M230,325.08a6,6,0,0,1-4.73-1.9,8.19,8.19,0,0,1-1.64-5.49V305.25a7.2,7.2,0,0,1,1.63-5.1,7.34,7.34,0,0,1,9.49,0,7.2,7.2,0,0,1,1.63,5.1v12.44a8.19,8.19,0,0,1-1.64,5.49A5.92,5.92,0,0,1,230,325.08Zm0-4.83c.78,0,1.17-.76,1.17-2.3V305.16c0-1.28-.38-1.93-1.14-1.93s-1.29.66-1.29,2V318a3.87,3.87,0,0,0,.29,1.75,1,1,0,0,0,1,.5Z"/><path class="cls-11" d="M238.25,324.84V298.65h5v26.19Z"/><path class="cls-11" d="M245.29,324.84V298.65h5.32L253,311.19V298.65h5v26.19H253l-2.58-13.1v13.1Z"/><path class="cls-11" d="M262.49,324.84V303.68h-3.07v-5h11.31v5h-3.07v21.16Z"/><path class="cls-11" d="M107.7,119.89a7.1,7.1,0,0,1-6.84-4.19q-2.1-4.19-2.1-13.33v-6h6.85V104a11.73,11.73,0,0,0,.37,3.34c.24.8.66,1.2,1.27,1.2a1.32,1.32,0,0,0,1.31-1,10.22,10.22,0,0,0,.36-3.21,30,30,0,0,0-.31-4.73,14.92,14.92,0,0,0-1.1-3.63,40.47,40.47,0,0,0-2.15-4l-3.12-5.24a25.59,25.59,0,0,1-3.48-13.34q0-7.86,2.06-12c1.37-2.74,3.35-4.12,6-4.12a6.92,6.92,0,0,1,6.77,4.51q2,4.5,2,13.68h-7V71.29a4,4,0,0,0-.41-2A1.2,1.2,0,0,0,107,68.6a1.27,1.27,0,0,0-1.21.82,4.94,4.94,0,0,0-.38,2.11,11,11,0,0,0,.39,2.79,13.65,13.65,0,0,0,1.56,3.46l4,6.81a40.25,40.25,0,0,1,2.21,4.28,25.15,25.15,0,0,1,1.62,5.23,37.8,37.8,0,0,1,.61,7.28q0,8.67-1.81,13.57C112.82,118.22,110.71,119.86,107.7,119.89Z"/><path class="cls-11" d="M117.14,119.34l3.34-61.46h11.76l3.29,61.46H129l-.49-9.92h-4.17l-.44,9.92Zm7.66-19.73H128l-1.52-31.25h-.31Z"/><path class="cls-11" d="M140,119.34l-4.27-61.49h6.6l2.54,41.83,2.26-41.83h6.6l-4.27,61.49Z"/><path class="cls-11" d="M155.72,119.34V57.88h13.87V69.75h-6.82v12h6.54V93.29h-6.54v14.07H170v12Z"/><path class="cls-11" d="M190,119.89a7.1,7.1,0,0,1-6.84-4.19q-2.1-4.19-2.1-13.33v-6h6.86V104a12.53,12.53,0,0,0,.36,3.34c.24.8.67,1.2,1.27,1.2a1.31,1.31,0,0,0,1.31-1,10.23,10.23,0,0,0,.37-3.21,30,30,0,0,0-.32-4.73,14.65,14.65,0,0,0-1.08-3.6,38.56,38.56,0,0,0-2.16-4l-3.11-5.24a25.41,25.41,0,0,1-3.49-13.34q0-7.86,2.06-12c1.37-2.74,3.36-4.12,6-4.12a6.92,6.92,0,0,1,6.77,4.51q2,4.5,2,13.68h-7v-4.2a4.06,4.06,0,0,0-.4-2,1.2,1.2,0,0,0-1.09-.69,1.28,1.28,0,0,0-1.22.82,4.94,4.94,0,0,0-.38,2.11,11,11,0,0,0,.39,2.79,14.18,14.18,0,0,0,1.56,3.46l4,6.81A40.25,40.25,0,0,1,196,88.87a25.74,25.74,0,0,1,1.61,5.23,37,37,0,0,1,.61,7.28q0,8.67-1.8,13.57C195.19,118.22,193.06,119.86,190,119.89Z"/><path class="cls-11" d="M203.37,119.34V69.68h-4.12V57.88h15.17v11.8H210.3v49.66Z"/><path class="cls-11" d="M216.35,119.34V57.88h13.87V69.75H223.4v12h6.54V93.29H223.4v14.07h7.27v12Z"/><path class="cls-11" d="M236.15,119.34l-4.28-61.49h6.6L241,99.68l2.27-41.83h6.6l-4.28,61.49Z"/><path class="cls-11" d="M251.88,119.34V57.88h13.87V69.75h-6.81v12h6.54V93.29h-6.54v14.07h7.26v12Z"/><path class="cls-11" d="M280.92,119.34V69.68H276.8V57.88H292v11.8h-4.12v49.66Z"/><path class="cls-11" d="M293.9,119.34V57.88h6.89v22h3.27v-22H311v61.46h-6.9V91.47h-3.27v27.87Z"/><path class="cls-11" d="M314,119.34V57.88h13.9V69.75h-6.82v12h6.54V93.29h-6.54v14.07h7.27v12Z"/><path class="cls-11" d="M340.09,119.34V57.88h9.53a6,6,0,0,1,5.63,3.69q1.9,3.67,1.9,10.77v28.77q0,8.73-1.73,13.48c-1.15,3.16-3.16,4.75-6,4.75Zm7-10.86h1.2c1.28,0,1.91-1.1,1.91-3.29V73.49a10.42,10.42,0,0,0-.46-4,1.92,1.92,0,0,0-1.88-.89h-.77Z"/><path class="cls-11" d="M359,119.34l3.35-61.46H374.1l3.29,61.46h-6.55l-.5-9.92h-4.17l-.44,9.92Zm7.66-19.73h3.15l-1.52-31.25H368Z"/><path class="cls-11" d="M379.25,119.34V57.88h6.69v61.46Z"/><path class="cls-11" d="M396.93,119.89a7.1,7.1,0,0,1-6.84-4.19q-2.1-4.19-2.1-13.33v-6h6.86V104a12.53,12.53,0,0,0,.36,3.34c.24.8.67,1.2,1.27,1.2a1.31,1.31,0,0,0,1.31-1,10.23,10.23,0,0,0,.37-3.21,30,30,0,0,0-.32-4.73,14.67,14.67,0,0,0-1.09-3.6,38.56,38.56,0,0,0-2.16-4l-3.11-5.24A25.49,25.49,0,0,1,388,73.42q0-7.86,2.06-12c1.37-2.74,3.36-4.12,6-4.12a6.92,6.92,0,0,1,6.77,4.51q2,4.5,2,13.68h-7v-4.2a4.06,4.06,0,0,0-.4-2,1.2,1.2,0,0,0-1.09-.69,1.28,1.28,0,0,0-1.22.82,4.94,4.94,0,0,0-.38,2.11,11,11,0,0,0,.39,2.79,14.18,14.18,0,0,0,1.56,3.46l4,6.81a40.25,40.25,0,0,1,2.21,4.28,25.74,25.74,0,0,1,1.61,5.23,37,37,0,0,1,.61,7.28q0,8.67-1.8,13.57C402.12,118.22,400,119.86,396.93,119.89Z"/><path class="cls-11" d="M411.51,119.34V99.12L406,57.88h6.87l1.93,20.81,1.93-20.81h6.85l-5.51,41.24v20.22Z"/><path class="cls-11" d="M434.77,119.34V57.88h13.87v12h-6.89v9.77h6.54V91.47h-6.54v27.87Z"/><path class="cls-11" d="M450.87,119.34V57.88H461.5a4.47,4.47,0,0,1,4,2.15,14.41,14.41,0,0,1,1.82,6,78.49,78.49,0,0,1,.46,9.07,36.42,36.42,0,0,1-.71,8,6.16,6.16,0,0,1-2.71,4.15,3.94,3.94,0,0,1,2.29,2.88,21.87,21.87,0,0,1,.66,5.92v23.26H460.5v-24c0-1.79-.21-2.91-.62-3.34a2.65,2.65,0,0,0-2-.64v28Zm7.05-38.69h1.67q1.44,0,1.44-5.55a21.35,21.35,0,0,0-.32-4.72c-.21-.74-.6-1.12-1.18-1.12h-1.61Z"/><path class="cls-11" d="M478.36,119.89q-4.16,0-6.35-4.45t-2.2-12.86V73.38q0-7.89,2.18-12a7,7,0,0,1,12.75,0q2.17,4.08,2.17,12v29.2q0,8.42-2.2,12.86C483.24,118.4,481.13,119.88,478.36,119.89Zm.06-11.31c1.05,0,1.57-1.8,1.58-5.41v-30q0-4.53-1.54-4.53c-1.15,0-1.73,1.54-1.73,4.64v30a14.87,14.87,0,0,0,.39,4.1c.26.79.7,1.2,1.3,1.2Z"/><path class="cls-11" d="M489.71,119.34V57.88h10.56l2.91,37.47,2.9-37.47h10.65v61.46h-6.34V75.06l-4,44.28h-6.22L496,75.06v44.28Z"/><path class="cls-11" d="M532.24,119.34V69.68h-4.12V57.88h15.17v11.8h-4.12v49.66Z"/><path class="cls-11" d="M545.21,119.34V57.88h6.9v22h3.27v-22h6.89v61.46h-6.89V91.47h-3.27v27.87Z"/><path class="cls-11" d="M565.35,119.34V57.88h13.86V69.75H572.4v12h6.54V93.29H572.4v14.07h7.27v12Z"/><path class="cls-11" d="M591.41,119.34V57.88h6.89v22h3.27v-22h6.89v61.46h-6.89V91.47H598.3v27.87Z"/><path class="cls-11" d="M610.59,119.34l3.35-61.46H625.7l3.3,61.46h-6.56l-.49-9.92h-4.18l-.43,9.92Zm7.66-19.73h3.15l-1.51-31.25h-.32Z"/><path class="cls-11" d="M631.12,119.34V57.88h10.63a4.47,4.47,0,0,1,4,2.15,14.41,14.41,0,0,1,1.82,6A78.49,78.49,0,0,1,648,75.1a36.42,36.42,0,0,1-.71,8,6.16,6.16,0,0,1-2.71,4.15,3.94,3.94,0,0,1,2.29,2.88,21.87,21.87,0,0,1,.66,5.92v23.26h-6.83v-24c0-1.79-.21-2.91-.62-3.34a2.65,2.65,0,0,0-2-.64v28Zm7-38.69h1.67q1.44,0,1.44-5.55a21.35,21.35,0,0,0-.32-4.72c-.21-.74-.6-1.12-1.18-1.12h-1.61Z"/><path class="cls-11" d="M658.57,119.89a7.1,7.1,0,0,1-6.84-4.19q-2.1-4.19-2.1-13.33v-6h6.85V104a12.1,12.1,0,0,0,.37,3.34c.24.8.67,1.2,1.27,1.2a1.31,1.31,0,0,0,1.31-1,10.22,10.22,0,0,0,.36-3.21,30,30,0,0,0-.31-4.73,15.12,15.12,0,0,0-1.09-3.6,38.56,38.56,0,0,0-2.16-4l-3.11-5.24a25.41,25.41,0,0,1-3.49-13.34q0-7.86,2.06-12c1.37-2.74,3.36-4.12,6-4.12a6.91,6.91,0,0,1,6.76,4.51q2,4.5,2,13.68h-7v-4.2a4.06,4.06,0,0,0-.4-2,1.23,1.23,0,0,0-1.1-.69,1.27,1.27,0,0,0-1.21.82,4.94,4.94,0,0,0-.38,2.11,11,11,0,0,0,.39,2.79,13.65,13.65,0,0,0,1.56,3.46l4,6.81a40.17,40.17,0,0,1,2.2,4.28A25.35,25.35,0,0,1,666,94.14a37.8,37.8,0,0,1,.61,7.28q0,8.67-1.8,13.57T658.57,119.89Z"/><path class="cls-11" d="M669,119.34V57.88h6.9v22h3.27v-22H686v61.46h-6.89V91.47h-3.27v27.87Z"/><path class="cls-11" d="M697.59,119.34l3.35-61.46H712.7l3.3,61.46h-6.56l-.49-9.92h-4.18l-.43,9.92Zm7.66-19.73h3.16l-1.52-31.25h-.31Z"/><path class="cls-11" d="M726.13,119.89c-2.88,0-5-1.43-6.38-4.31s-2-7.1-2-12.69v-45h6.74V102.4a28.59,28.59,0,0,0,.1,2.95,8,8,0,0,0,.45,2.32,1.2,1.2,0,0,0,1.14.91,1.24,1.24,0,0,0,1.17-.89,8,8,0,0,0,.44-2.32c.06-1,.09-1.94.09-3V57.88h6.73v45q0,8.39-2,12.69C731.15,118.46,729,119.89,726.13,119.89Z"/><path class="cls-11" d="M745.46,119.89a7.1,7.1,0,0,1-6.85-4.19q-2.1-4.19-2.1-13.33v-6h6.86V104a12.53,12.53,0,0,0,.36,3.34c.25.8.67,1.2,1.27,1.2a1.31,1.31,0,0,0,1.31-1,10,10,0,0,0,.37-3.21,30,30,0,0,0-.32-4.73,14.67,14.67,0,0,0-1.09-3.6,38.56,38.56,0,0,0-2.16-4L740,86.76a25.6,25.6,0,0,1-3.49-13.34q0-7.86,2.06-12c1.38-2.74,3.36-4.12,6-4.12a6.92,6.92,0,0,1,6.77,4.51q2,4.5,2,13.68h-7v-4.2a4,4,0,0,0-.41-2,1.2,1.2,0,0,0-1.09-.69,1.27,1.27,0,0,0-1.21.82,5,5,0,0,0-.39,2.11,10.57,10.57,0,0,0,.4,2.79,14.15,14.15,0,0,0,1.55,3.46l4,6.81a40.25,40.25,0,0,1,2.21,4.28A24.54,24.54,0,0,1,753,94.1a37,37,0,0,1,.61,7.28q0,8.67-1.8,13.57C750.62,118.22,748.5,119.86,745.46,119.89Z"/><path class="cls-11" d="M758.81,119.34V69.68H754.7V57.88h15.16v11.8h-4.11v49.66Z"/><path class="cls-11" d="M771.79,119.34V57.88h10.64a4.47,4.47,0,0,1,4,2.15,14.71,14.71,0,0,1,1.82,6,78.49,78.49,0,0,1,.46,9.07,35.78,35.78,0,0,1-.72,8,6.13,6.13,0,0,1-2.71,4.15,4,4,0,0,1,2.3,2.88,21.87,21.87,0,0,1,.66,5.92v23.26H781.4v-24c0-1.79-.2-2.91-.62-3.34a2.65,2.65,0,0,0-2-.64v28Zm7.05-38.69h1.68q1.44,0,1.44-5.55a21.35,21.35,0,0,0-.32-4.72c-.21-.74-.6-1.12-1.18-1.12h-1.62Z"/><path class="cls-11" d="M790.07,119.34l3.35-61.46h11.76l3.29,61.46h-6.56l-.49-9.92h-4.18l-.43,9.92Zm7.66-19.73h3.15l-1.51-31.25h-.32Z"/><path class="cls-11" d="M810.6,119.34V57.88h6.93v51h7.13v10.48Z"/><path class="cls-11" d="M826.32,119.34V57.88H833v61.46Z"/><path class="cls-11" d="M834.82,119.34l3.35-61.46h11.76l3.29,61.46h-6.56l-.49-9.92H842l-.43,9.92Zm7.67-19.73h3.15l-1.52-31.25h-.31Z"/><path class="cls-11" d="M855.35,119.34V57.88h7.13l3.19,29.44V57.88h6.7v61.46h-6.78l-3.47-30.73v30.73Z"/><path class="cls-11" d="M887.61,119.34l-3.72-61.46h6.78l1.91,38.79,1.95-38.79H901l1.85,38.79,1.85-38.79h6.85l-3.78,61.46h-8.31l-1.73-29.58-1.66,29.58Z"/><path class="cls-11" d="M913.61,119.34V57.88h13.87V69.75h-6.82v12h6.54V93.29h-6.54v14.07h7.27v12Z"/><path class="cls-11" d="M929.27,119.34l3.35-61.46h11.76l3.29,61.46h-6.56l-.49-9.92h-4.18l-.43,9.92Zm7.66-19.73h3.16l-1.52-31.25h-.32Z"/><path class="cls-11" d="M952.26,119.34V69.68h-4.12V57.88h15.17v11.8h-4.12v49.66Z"/><path class="cls-11" d="M965.24,119.34V57.88h6.89v22h3.27v-22h6.9v61.46h-6.9V91.47h-3.27v27.87Z"/><path class="cls-11" d="M985.37,119.34V57.88h13.87V69.75h-6.82v12H999V93.29h-6.54v14.07h7.27v12Z"/><path class="cls-11" d="M1002,119.34V57.88h10.64a4.47,4.47,0,0,1,4,2.15,14.41,14.41,0,0,1,1.82,6,78.49,78.49,0,0,1,.46,9.07,36.42,36.42,0,0,1-.71,8,6.16,6.16,0,0,1-2.71,4.15,3.94,3.94,0,0,1,2.29,2.88,21.87,21.87,0,0,1,.66,5.92v23.26h-6.83v-24c0-1.79-.21-2.91-.62-3.34a2.65,2.65,0,0,0-2-.64v28Zm7-38.69h1.67q1.44,0,1.44-5.55a21.35,21.35,0,0,0-.32-4.72c-.21-.74-.6-1.12-1.18-1.12H1009Z"/><path class="cls-11" d="M1022.12,102.61l-1.37-44.73h7l-1.38,44.73Zm-1.37,16.69V108.9h7v10.4Z"/><path class="cls-32" d="M1121.2,178.79c.92-.6,1.76-1.31,2.66-1.94a13.09,13.09,0,0,1,1.54-1,21.36,21.36,0,0,1,2.45-1.07,4.79,4.79,0,0,1,.74-.21,10.82,10.82,0,0,1,2.54-.29,12.1,12.1,0,0,1,2.15.3,1.14,1.14,0,0,1,.3.09,9.47,9.47,0,0,1,5,4c.53-.16,1.06-.33,1.58-.52l2.16-1.07c-3.55-6.73-18.66-10.35-21.56-2.55-.16.42-.8,2.53-1.73,5.41A19.55,19.55,0,0,0,1121.2,178.79Z"/><path class="cls-4" d="M1113.05,192.31c-.16-1.54,1.07-2.62,2.37-2.08,2.64,1.1,6.65,2.51,9.5,2.29,4.22-.33,15.47.89,22.3,10.13.91,1.23.32,1.94-.17,2.15-3.61,1.5-12.81,3.32-19.27,1.37-4-1.21-7.73-3.45-9.47-7.55a2.64,2.64,0,0,0-.55-.81l-4-3.92a2.56,2.56,0,0,1-.75-1.58Z"/><path class="cls-9" d="M1103.88,190.79c.16-.9-.73-1.53-1.72-1.22a22.64,22.64,0,0,1-7.2,1.28c-3.15-.21-11.36,1.47-16.75,6.84-.72.71.6,1.38,1,1.5a26.25,26.25,0,0,0,12.79.41c3-.69,6.37-2.75,7.79-5.14a1.75,1.75,0,0,1,.43-.47l3.09-2.28a1.47,1.47,0,0,0,.6-.92Z"/><path class="cls-33" d="M1103.07,191c.15-.85-.68-1.44-1.61-1.15a21.21,21.21,0,0,1-6.74,1.2c-3-.2-10.65,1.37-15.7,6.4-.67.67.57,1.3.91,1.42a24.75,24.75,0,0,0,12,.38c2.86-.65,6-2.58,7.3-4.82a1.43,1.43,0,0,1,.41-.44l2.89-2.13a1.4,1.4,0,0,0,.56-.86Z"/><path class="cls-9" d="M1100.78,191.23c-.45-.21-16.67,4.57-19.06,6.39"/><path class="cls-4" d="M1120.53,166a25.85,25.85,0,0,1-1.18,8c-3.36,10.89-1.07,47.07,2.2,61.68,1.64,7.27,23.77,34.45,23,33.41,7.56,9.72-21.2,21.6-36.36,16.82-25.55-21.24-23.68-59.15-11.57-90.19,3-7.69,14.13-29.46,10.2-37.47-1.1-2.23,12.83-7,13.54,2.21A48.91,48.91,0,0,1,1120.53,166Z"/><path class="cls-33" d="M1118.46,158.39c3.78,12.19-3.78,24.76-3,32.83,1.58,16.36,1.57,35.76,5.38,50.19,1.39,6.57,23.29,30.84,21.78,29.23,7.31,7.75-19.89,17.49-32.83,13.4-21.8-18.12-25.1-50.84-14.76-77.33,2.56-6.56,3.35-11.4,6.84-21.81,1.9-5.67,9.67-21.7,9.8-22.82C1112.52,154.77,1116.6,152.41,1118.46,158.39Z"/><path class="cls-33" d="M1114,192.51c-.14-1.38,1-2.34,2.11-1.85,2.35,1,5.93,2.25,8.47,2.06,3.75-.28,13.78.83,19.89,9.1.81,1.1.29,1.74-.16,1.92-3.21,1.34-11.4,2.95-17.16,1.19-3.58-1.09-6.89-3.1-8.45-6.77a2.4,2.4,0,0,0-.49-.73l-3.54-3.51a2.42,2.42,0,0,1-.67-1.41Z"/><path class="cls-9" d="M1116.86,193.89c.15-.12,6.31,1.59,12.41,3.43a54.66,54.66,0,0,1,11.16,4.56"/><path class="cls-9" d="M1128.93,59.36c-5.41-5.2-3.31-3.66-6.81-4.62a5.66,5.66,0,0,0-3.82.68c-14.48,11.49-14.17,18.82-14,36.89,0,1.46-.79,1.79,1.43,1.26,14-3.35,3.15-1.93,15.07-2,1.88,0,1.81-.5,1.8-1.52-.2-12.79-.7-16.06,5.72-26.63C1128.89,62.57,1129.78,60.17,1128.93,59.36Z"/><path class="cls-9" d="M1149.56,71.51c-.2-1-.09-2.67-3-4.85-.34-.25-7.78-2.48-9.08-1.92-14.56,6.28-14.13,9.84-20.2,24.08-.49,1.15-1.35,1.08.86,1.58,14,3.11,11.39,2.79,11.88,3,1.72.76,2.25.6,2.59-.2,4.26-10.1,5.34-11.78,14.88-17.43C1148.31,75.33,1149.83,72.86,1149.56,71.51Z"/><path class="cls-9" d="M1167.38,86.88c.16-1,.83-2.53-1.11-5.57-.22-.36-6.44-5-7.85-5-15.82.83-16.64,4.31-27.25,15.56-.85.91-1.64.55.27,1.78,12,7.78,9.72,6.58,10.11,7,1.35,1.32,1.9,1.35,2.49.72,7.48-8,9.07-9.19,20-11.17C1164.88,90,1167.16,88.24,1167.38,86.88Z"/><path class="cls-9" d="M1146,108.74a3.75,3.75,0,0,0,2.73,2.39c9.17,2,12.23,5.71,19.4,13.22.62.65,3.21,2.74,4.45,2.17,1-.44,2.39-1.67,3.24-5.18a19.82,19.82,0,0,0-1-9.42c-6.21-14.79-5-11.6-18.43-15.93-4.28-1.38-12.8,4-12.77,6.26Z"/><path class="cls-9" d="M1143.13,115.66a6.23,6.23,0,0,0,2,4.08c9.15,9,11,14.43,15.85,26.11.42,1,2.41,4.76,4,5.33,1.2.44,3.22.65,5.5-1.37,1.45-1.28,2.74-5.63,2.59-8.11-1-16.55-.91-13.08-13.76-27.42-4.1-4.58-15.39-7.38-16.23-5.58Z"/><path class="cls-9" d="M1139.49,126.24a5,5,0,0,0,1.34,3.74c7.26,8.27,8.27,13.24,11.22,24,.26.93,1.6,4.36,3,4.89,1,.4,2.89.59,5.25-1.27,1.49-1.18,3.25-5.17,3.43-7.45,1.23-15.19.86-12-9.12-25.16-3.18-4.2-13.21-6.76-14.22-5.11Z"/><path class="cls-9" d="M1085,64.38c-.37,1.12-1.87,5.66-1.1,6.69,5.58,7.57,9.63,11.12,10.59,21.08.09.86.79,4,2,4.5,1,.35,2.7.49,5.32-1.3,1.66-1.14,4.07-4.92,4.65-7.06,3.89-14.25,3-11.26-4.39-23.33-2.34-3.86-10.34-4.26-13.75-3.8Z"/><path class="cls-9" d="M1065.87,82.17c.27,1.14,1.34,5.75,2.53,6.23,8.68,3.56,14,4.5,20,12.45.51.69,2.76,3,4,2.78,1-.18,2.55-1,3.85-3.82.82-1.81.91-6.24.3-8.35-4.08-14.06-3.32-11-15.84-17.53-4-2.07-11,1.68-13.67,3.81Z"/><path class="cls-9" d="M1055.29,102.92c.75,1,3.75,5.27,5.06,5.2,9.54-.46,14.81-2,23.8,3.32.78.46,2-.23,3.06-1.09.83-.66,2.64-1.33,2.59-4.89,0-2.25-.17-6.28-2.21-7.57-14.47-9.18-9.2-6.61-23.55-7.31-4.58-.23-8.09,3.77-9.6,7.23Z"/><path class="cls-9" d="M1048.61,123.12c1.09.61,5.48,3.08,6.75,2.49,9.25-4.29,13.93-7.78,24.59-6.78.92.09,1.87-1,2.65-2.19.59-.92,2.16-2.24.9-5.32-.8-2-2.29-5.43-4.74-5.73-17.37-2.14-11.3-2-25.7,3.18-4.59,1.67-6.69,6.59-7,10.23Z"/><path class="cls-9" d="M1056.25,146.57c.8.53,6.53.68,7.21,0,2.43-2.43,3-2.64,3.68-3.46,6.56-7.83,11.08-11.49,21.51-14.87.9-.29,1.26-1.71,1.41-3.16.11-1.11.94-3-1.72-5.43-1.69-1.54-4.75-4.23-7.18-3.53-17.23,5-13.81,1.59-24.73,12.39-2.73,2.71-4.84,6.16-4.15,9.49.31,1.51,2.69,7.73,4,8.57Z"/><path class="cls-9" d="M1067.6,163.91c.79.23,5.72-1.47,6.17-2.31,1.6-3,2-3.4,2.46-4.37,4.07-9.32,7.21-14.14,15.45-20.59.72-.56.75-2,.59-3.37-.12-1.05.21-3.06-2.55-4.44-1.74-.87-4.89-2.38-6.83-.94-13.74,10.15-11.5,5.89-18.7,19.34-1.8,3.37-2.92,7.22-1.68,10.07.57,1.29,3.83,6.25,5.09,6.61Z"/><path class="cls-9" d="M1082.68,180.72c1,.07,6.37-3,6.68-4.08,1.07-3.79,1.49-4.33,1.73-5.53,2.3-11.51,4.72-17.71,12.75-27,.69-.8.34-2.41-.22-3.94-.43-1.17-.58-3.51-4.21-4.42-2.3-.57-6.44-1.52-8.35.56-13.54,14.75-12,9.4-16.92,26.33-1.23,4.25-1.52,8.87.72,11.79,1,1.33,6.22,6.16,7.82,6.27Z"/><path class="cls-9" d="M1106,189.11c1-.16,4.6-2.25,4.66-3.48.23-4.39.52-5.07.5-6.44-.25-13.1.77-20.43,6.56-32.43.51-1-.18-2.72-1.06-4.25-.66-1.17-1.31-3.7-5-3.83-2.35-.09-6.57-.15-8,2.57-10,19.28-9.66,13.09-10.77,32.71-.27,4.92.44,10,3.25,12.7,1.27,1.2,2.13,3.85,3.7,3.59Z"/><path class="cls-9" d="M1152.4,169.07c-1.25,3-2.56,5-6.3,3.45a9.61,9.61,0,0,1-2.82-2.57c-10.87-12.27-11.11-23.3-12-39.56-.1-1.62.59-1.34,1.33-1.94,3.17-2.57,1.38.34,9,3.86,7.08,3.25,10.69,15.05,11,16.16,3.24,11.25.51,1.71,2.32,13.46C1155.12,163.1,1153.47,166.54,1152.4,169.07Z"/><path class="cls-9" d="M1140.47,183.33c-1.86,2.26-3.57,3.73-6.87,1.7a8.49,8.49,0,0,1-2.17-2.7c-7.88-12.42-5.7-21.76-3.07-35.63.26-1.38.87-1,1.71-1.38,3.64-1.56,1.28.55,8,5,6.16,4.1,7.09,14.72,7.16,15.72.68,10.1.12,1.54-.69,11.78C1144.41,178.82,1142.06,181.4,1140.47,183.33Z"/><path class="cls-9" d="M1125.21,190.71c.84-.24,4.33-5.36,4.26-6.62-.26-4.51-.08-5.23-.25-6.63-1.6-13.38-1.49-21,2.3-33.7.33-1.11-.45-2.77-1.37-4.27-.71-1.14-1.55-3.67-4.81-3.51-2.07.1-8.16,2.14-9.1,5-6.67,20.54-4.65,12.42-3.54,32.58.28,5.06,1.45,10.23,4.18,12.73,1.24,1.13,7,4.78,8.33,4.39Z"/><path class="cls-34" d="M1127.69,62c-5.18-5-3.17-3.51-6.52-4.43a5.32,5.32,0,0,0-3.66.65c-13.87,11-13.57,18.08-13.36,35.43,0,1.41-.76,1.73,1.37,1.22,13.43-3.22,3-1.86,14.43-1.93,1.8,0,1.74-.48,1.72-1.45-.19-12.29-.67-15.43,5.48-25.58C1127.65,65.09,1128.5,62.79,1127.69,62Z"/><path class="cls-34" d="M1147.45,73.68c-.19-1-.08-2.56-2.83-4.66-.32-.24-7.45-2.39-8.69-1.85-13.94,6-13.53,9.45-19.35,23.14-.47,1.1-1.3,1,.82,1.51,13.39,3,10.91,2.68,11.38,2.89,1.65.73,2.15.58,2.48-.19,4.08-9.7,5.12-11.31,14.25-16.74C1146.25,77.34,1147.71,75,1147.45,73.68Z"/><path class="cls-34" d="M1164.52,88.44c.15-1,.79-2.43-1.06-5.35-.22-.34-6.17-4.84-7.52-4.77-15.15.79-15.94,4.14-26.1,15-.82.87-1.57.52.26,1.7,11.52,7.48,9.3,6.32,9.68,6.69,1.29,1.26,1.82,1.29,2.38.68,7.17-7.67,8.69-8.82,19.12-10.72C1162.13,91.46,1164.31,89.75,1164.52,88.44Z"/><path class="cls-34" d="M1144,109.43a3.61,3.61,0,0,0,2.62,2.3c8.78,1.88,11.71,5.49,18.58,12.7.59.62,3.07,2.63,4.26,2.08.92-.42,2.29-1.6,3.11-5a20.14,20.14,0,0,0-.94-9.05c-6-14.2-4.79-11.14-17.66-15.3-4.1-1.33-12.26,3.82-12.23,6Z"/><path class="cls-34" d="M1141.29,116.08a6,6,0,0,0,1.94,3.92c8.77,8.66,10.54,13.86,15.19,25.08.4,1,2.31,4.57,3.81,5.12,1.15.42,3.09.62,5.27-1.32,1.38-1.23,2.62-5.4,2.48-7.79-1-15.89-.88-12.56-13.18-26.34-3.93-4.39-14.74-7.08-15.55-5.35Z"/><path class="cls-34" d="M1137.81,126.24a4.74,4.74,0,0,0,1.28,3.6c7,7.94,7.92,12.71,10.75,23,.24.89,1.53,4.19,2.84,4.69,1,.39,2.77.58,5-1.21,1.43-1.13,3.11-5,3.29-7.16,1.17-14.59.82-11.53-8.74-24.17-3-4-12.66-6.49-13.62-4.9Z"/><path class="cls-34" d="M1085.58,66.83c-.35,1.08-1.78,5.43-1,6.43,5.35,7.26,9.22,10.67,10.15,20.24.08.83.75,3.89,1.93,4.33.91.33,2.58.47,5.1-1.26,1.59-1.09,3.89-4.72,4.45-6.77,3.68-13.69,2.79-10.8-4.21-22.42-2.24-3.7-9.9-4.08-13.17-3.64Z"/><path class="cls-34" d="M1067.29,83.92c.26,1.09,1.29,5.52,2.43,6,8.31,3.42,13.37,4.32,19.11,12,.49.66,2.65,2.9,3.88,2.67,1-.18,2.44-.92,3.69-3.67.79-1.74.87-6,.29-8-3.91-13.51-3.18-10.62-15.18-16.84-3.82-2-10.54,1.61-13.09,3.66Z"/><path class="cls-34" d="M1057.16,103.85c.71,1,3.59,5.06,4.84,5,9.14-.44,14.19-1.93,22.8,3.18.75.45,1.89-.21,2.93-1,.79-.63,2.53-1.27,2.48-4.69,0-2.16-.16-6-2.11-7.28-13.87-8.81-8.81-6.34-22.57-7-4.38-.22-7.74,3.63-9.19,7Z"/><path class="cls-34" d="M1050.76,123.25c1,.58,5.25,3,6.46,2.39,8.86-4.12,13.34-7.47,23.56-6.51.88.08,1.79-1,2.53-2.11.57-.88,2.07-2.14.86-5.11-.76-1.88-2.18-5.21-4.53-5.5-16.64-2-10.83-2-24.62,3.06-4.39,1.6-6.41,6.32-6.72,9.82Z"/><path class="cls-34" d="M1058.08,145.77c.77.51,6.25.65,6.9,0,2.33-2.33,2.87-2.54,3.53-3.32,6.28-7.53,10.61-11,20.6-14.29.86-.28,1.21-1.64,1.35-3,.11-1.07.9-2.88-1.65-5.21-1.61-1.48-4.54-4.07-6.87-3.39-16.51,4.82-13.23,1.52-23.69,11.9-2.62,2.6-4.64,5.91-4,9.11.3,1.45,2.58,7.42,3.81,8.23Z"/><path class="cls-34" d="M1069,162.43c.76.22,5.48-1.42,5.91-2.23,1.53-2.89,2-3.26,2.35-4.19,3.9-8.95,6.9-13.58,14.81-19.78.68-.54.71-1.9.55-3.23-.11-1,.21-2.94-2.43-4.27-1.67-.84-4.69-2.28-6.55-.9-13.16,9.74-11,5.65-17.91,18.57-1.73,3.24-2.8,6.94-1.61,9.68C1064.66,157.31,1067.79,162.08,1069,162.43Z"/><path class="cls-34" d="M1083.39,178.57c.95.07,6.11-2.9,6.39-3.92,1-3.64,1.44-4.16,1.67-5.31,2.2-11.05,4.52-17,12.21-25.91.66-.77.33-2.32-.21-3.79-.41-1.12-.55-3.37-4-4.24-2.2-.55-6.16-1.46-8,.53-13,14.18-11.52,9-16.21,25.3-1.18,4.07-1.45,8.51.69,11.32,1,1.27,6,5.92,7.49,6Z"/><path class="cls-34" d="M1105.71,186.63c.94-.16,4.4-2.16,4.46-3.34.22-4.22.5-4.87.48-6.19-.24-12.58.73-19.62,6.29-31.14.48-1-.18-2.62-1-4.09-.64-1.12-1.26-3.55-4.83-3.68-2.25-.08-6.3-.14-7.64,2.47-9.55,18.52-9.25,12.57-10.31,31.42-.27,4.72.41,9.63,3.1,12.19,1.22,1.16,2,3.7,3.55,3.46Z"/><path class="cls-34" d="M1150.17,167.38c-1.2,2.85-2.45,4.82-6,3.31a9.08,9.08,0,0,1-2.7-2.46c-10.42-11.79-10.64-22.39-11.55-38-.09-1.55.56-1.28,1.27-1.86,3-2.47,1.33.32,8.67,3.7,6.78,3.13,10.25,14.46,10.55,15.53,3.1,10.81.49,1.64,2.22,12.92C1152.78,161.64,1151.19,165,1150.17,167.38Z"/><path class="cls-34" d="M1138.74,181.08c-1.78,2.17-3.42,3.58-6.57,1.63a8.11,8.11,0,0,1-2.09-2.6c-7.54-11.92-5.45-20.89-2.93-34.22.25-1.32.82-1,1.64-1.32,3.48-1.5,1.22.52,7.61,4.78,5.9,3.94,6.79,14.14,6.86,15.11.65,9.69.11,1.47-.66,11.31C1142.52,176.75,1140.27,179.23,1138.74,181.08Z"/><path class="cls-34" d="M1124.13,188.17c.81-.24,4.15-5.15,4.08-6.36-.26-4.33-.08-5-.24-6.37-1.53-12.85-1.43-20.13,2.2-32.37.32-1.06-.43-2.66-1.31-4.1-.68-1.1-1.48-3.53-4.61-3.37-2,.1-7.82,2.05-8.72,4.83-6.38,19.72-4.45,11.93-3.38,31.3.26,4.85,1.38,9.82,4,12.22,1.18,1.08,6.69,4.59,8,4.22Z"/><path class="cls-35" d="M1127.6,64.33c-4.95-4.83-3-3.4-6.22-4.29a5.16,5.16,0,0,0-3.5.63c-13.23,10.68-13,17.49-12.75,34.27,0,1.36-.72,1.67,1.31,1.18,12.81-3.12,2.87-1.8,13.77-1.87,1.72,0,1.66-.46,1.64-1.4-.18-11.88-.64-14.93,5.24-24.74C1127.56,67.31,1128.37,65.09,1127.6,64.33Z"/><path class="cls-35" d="M1146.46,75.62c-.19-1-.09-2.48-2.7-4.5-.31-.24-7.12-2.31-8.3-1.79-13.31,5.83-12.92,9.14-18.47,22.37-.45,1.08-1.23,1,.79,1.47,12.77,2.89,10.41,2.59,10.86,2.79,1.58.71,2,.56,2.36-.18,3.9-9.38,4.89-10.94,13.6-16.19C1145.31,79.17,1146.7,76.87,1146.46,75.62Z"/><path class="cls-35" d="M1162.74,89.9c.15-1,.76-2.35-1-5.18-.2-.33-5.88-4.68-7.18-4.61-14.45.77-15.21,4-24.9,14.46-.79.84-1.5.5.24,1.65,11,7.23,8.89,6.11,9.24,6.46,1.24,1.23,1.74,1.26,2.28.67,6.84-7.43,8.29-8.54,18.25-10.38C1160.46,92.82,1162.55,91.17,1162.74,89.9Z"/><path class="cls-35" d="M1143.18,110.21a3.42,3.42,0,0,0,2.49,2.21c8.38,1.82,11.18,5.32,17.73,12.29.57.6,2.94,2.54,4.07,2,.87-.4,2.18-1.55,3-4.81a19.39,19.39,0,0,0-.89-8.75c-5.68-13.74-4.57-10.77-16.85-14.8-3.91-1.28-11.7,3.7-11.67,5.82Z"/><path class="cls-35" d="M1140.58,116.64a5.79,5.79,0,0,0,1.85,3.79c8.37,8.37,10.06,13.41,14.49,24.26.39.94,2.21,4.41,3.64,4.94a4.65,4.65,0,0,0,5-1.27c1.32-1.19,2.5-5.23,2.36-7.53-.9-15.38-.83-12.15-12.58-25.48-3.74-4.25-14.06-6.85-14.83-5.18Z"/><path class="cls-35" d="M1137.25,126.46a4.65,4.65,0,0,0,1.23,3.48c6.63,7.68,7.55,12.3,10.25,22.26.24.86,1.47,4.05,2.72,4.54,1,.37,2.64.55,4.8-1.18,1.36-1.09,3-4.8,3.13-6.92,1.13-14.11.79-11.15-8.33-23.38-2.91-3.89-12.08-6.27-13-4.74Z"/><path class="cls-35" d="M1087.41,69c-.34,1-1.71,5.25-1,6.22,5.1,7,8.8,10.32,9.68,19.58.08.8.72,3.75,1.85,4.18.86.33,2.46.46,4.86-1.21,1.52-1.06,3.72-4.57,4.25-6.56,3.56-13.23,2.71-10.46-4-21.68-2.15-3.58-9.46-4-12.57-3.52Z"/><path class="cls-35" d="M1070,85.53c.25,1,1.23,5.33,2.32,5.79,7.93,3.3,12.76,4.17,18.24,11.56.47.64,2.52,2.81,3.7,2.58.91-.17,2.33-.89,3.52-3.55.75-1.68.84-5.8.28-7.76-3.73-13.06-3-10.27-14.48-16.28-3.65-1.92-10.06,1.56-12.5,3.54Z"/><path class="cls-35" d="M1060.28,104.8c.69,1,3.43,4.9,4.63,4.84,8.72-.44,13.54-1.87,21.75,3.07.72.43,1.81-.21,2.8-1,.76-.61,2.42-1.23,2.36-4.54,0-2.09-.14-5.83-2-7-13.23-8.52-8.41-6.13-21.53-6.79-4.19-.21-7.39,3.51-8.78,6.72Z"/><path class="cls-35" d="M1054.18,123.57c1,.56,5,2.86,6.16,2.31,8.46-4,12.74-7.23,22.48-6.3.85.08,1.71-.93,2.42-2,.54-.84,2-2.07.83-4.94-.73-1.81-2.09-5-4.33-5.32-15.88-2-10.33-1.89-23.49,3-4.2,1.55-6.12,6.12-6.42,9.5Z"/><path class="cls-35" d="M1061.16,145.35c.73.49,6,.63,6.59,0,2.22-2.25,2.74-2.45,3.37-3.21,6-7.28,10.12-10.68,19.65-13.82.83-.27,1.16-1.59,1.3-2.93.1-1,.85-2.79-1.58-5-1.54-1.42-4.34-3.93-6.56-3.27-15.75,4.66-12.63,1.47-22.6,11.51-2.5,2.51-4.43,5.72-3.8,8.81.28,1.4,2.46,7.18,3.63,8Z"/><path class="cls-35" d="M1071.54,161.46c.72.21,5.23-1.36,5.63-2.15,1.46-2.8,1.87-3.15,2.25-4.06,3.72-8.65,6.59-13.13,14.13-19.12.65-.52.68-1.85.53-3.13-.11-1,.2-2.84-2.32-4.13-1.6-.81-4.48-2.2-6.25-.87-12.56,9.42-10.51,5.47-17.09,18-1.65,3.14-2.68,6.71-1.54,9.36.52,1.2,3.5,5.81,4.66,6.14Z"/><path class="cls-35" d="M1085.32,177.08c.91.06,5.83-2.81,6.1-3.8,1-3.52,1.37-4,1.59-5.13,2.1-10.69,4.31-16.45,11.65-25.06.64-.74.32-2.25-.2-3.66-.39-1.09-.53-3.27-3.85-4.11-2.1-.53-5.88-1.41-7.63.52-12.37,13.7-11,8.73-15.47,24.46-1.12,3.95-1.39,8.24.66,11,.93,1.23,5.69,5.72,7.15,5.82Z"/><path class="cls-35" d="M1106.62,184.87c.9-.15,4.2-2.09,4.26-3.23.21-4.08.47-4.71.45-6-.22-12.17.7-19,6-30.13.45-1-.17-2.53-1-3.95-.61-1.09-1.21-3.44-4.61-3.56-2.16-.08-6-.14-7.3,2.39-9.11,17.91-8.83,12.16-9.84,30.39-.25,4.57.4,9.32,3,11.79,1.16,1.12,1.94,3.58,3.38,3.34Z"/><path class="cls-35" d="M1149.05,166.25c-1.14,2.76-2.33,4.66-5.76,3.21a8.88,8.88,0,0,1-2.57-2.39c-9.94-11.39-10.16-21.65-11-36.75-.09-1.5.53-1.24,1.21-1.8,2.9-2.39,1.27.31,8.28,3.58,6.47,3,9.77,14,10.06,15,3,10.45.47,1.59,2.12,12.5C1151.54,160.71,1150,163.9,1149.05,166.25Z"/><path class="cls-35" d="M1138.15,179.5c-1.71,2.1-3.27,3.47-6.28,1.58a8,8,0,0,1-2-2.51c-7.2-11.53-5.21-20.21-2.8-33.1.24-1.28.79-.94,1.56-1.28,3.33-1.45,1.17.51,7.27,4.63,5.63,3.8,6.48,13.67,6.54,14.6.63,9.38.11,1.43-.63,11C1141.75,175.31,1139.6,177.71,1138.15,179.5Z"/><path class="cls-35" d="M1124.2,186.36c.77-.23,4-5,3.89-6.15-.24-4.19-.07-4.86-.23-6.16-1.46-12.43-1.36-19.47,2.11-31.31.3-1-.42-2.57-1.26-4-.65-1.07-1.41-3.42-4.4-3.27-1.89.1-7.46,2-8.32,4.68-6.09,19.08-4.24,11.53-3.23,30.27.26,4.69,1.32,9.5,3.82,11.82,1.13,1,6.39,4.44,7.62,4.08Z"/><path class="cls-9" d="M1145.63,119c0,17.35-12.72,34.67-31.89,34.67-3.39,0-19.5-3-27.76-11-7.24-7-7-19-7-20.43,0-17.35,18.62-33.09,39-33.19C1137.23,89,1145.63,101.64,1145.63,119Z"/><path class="cls-36" d="M1144.42,118.9c0,16.41-12.06,32.8-30.24,32.8-3.21,0-18.48-2.85-26.31-10.4-6.87-6.62-6.59-18-6.59-19.33,0-16.41,17.65-31.3,37-31.4C1136.45,90.48,1144.42,102.48,1144.42,118.9Z"/><path class="cls-37" d="M1094.23,143.81c6.38,2.54,9.51-3.95,12.37-1.05a.54.54,0,0,0,.76.1.65.65,0,0,0,.16-.21h0c.19-.3.46-.5-.06-1-4-3.62-6.54,3.34-12.63,1-.81-.32-.8,0-.95.33h0C1093.73,143.29,1093.38,143.48,1094.23,143.81Z"/><path class="cls-37" d="M1104.63,124.62c3-1.73,10.7-.62,12.53,1.77a.79.79,0,0,0,1,.28h0c.44-.14.7-.25.42-.6-2.07-2.69-11.53-4.32-14.87-2.18-.44.29-.35.41-.06.65h0A.81.81,0,0,0,1104.63,124.62Z"/><path class="cls-37" d="M1104.45,132c1.85-2,7.28-1.7,8.84.49.21.29.42.35.71.17h0c.28-.18.45-.31.21-.63-1.77-2.46-8.49-3.12-10.51-.65-.27.32-.19.43,0,.64h0a.45.45,0,0,0,.61.13A.4.4,0,0,0,1104.45,132Z"/><path class="cls-37" d="M1086.79,130.16c1.93-1.74,6.77-.69,7.92,1.7.15.32.33.4.61.26h0c.28-.13.44-.24.27-.6-1.29-2.67-7.27-4.24-9.39-2.07-.28.28-.23.4,0,.64h0C1086.34,130.33,1086.54,130.4,1086.79,130.16Z"/><path class="cls-37" d="M1093.21,125.2c-2.55-1.86-6.39.6-9.25,1.51-.38.12-.64.17-.87,0h0c-.23-.2-.3-.39.1-.54,3-1.12,8.42-3.58,11.06-1.46.35.29.19.35-.14.53h0A.71.71,0,0,1,1093.21,125.2Z"/><path class="cls-9" d="M1120,144.86a.15.15,0,0,0,.25.18c1.26-1.4,3.42-4.09,3.84-6.38a5.59,5.59,0,0,0-1-4,.17.17,0,0,0-.23,0,.16.16,0,0,0,0,.15,21.29,21.29,0,0,1,.8,3.24h0a4.77,4.77,0,0,1-.74,2.13C1122.23,141.23,1121,143.22,1120,144.86Z"/><path class="cls-9" d="M1125.09,117.37c.06.09.27-.07.24-.19-.23-1.12-.81-3.09-2-3.59a3.67,3.67,0,0,0-3,.53c-.14.08-.18.26,0,.23a15.46,15.46,0,0,1,2.43-.43h0a1.41,1.41,0,0,1,1,.76A21.24,21.24,0,0,0,1125.09,117.37Z"/><path class="cls-9" d="M1086.58,134.52c-.68-1.22-1.84-1.12-1.15-3.46,0,0-3.36,1.54-3.88,4.53a2.51,2.51,0,0,0,2.36,2.65h.27a2.78,2.78,0,0,0,2.62-2.65A2.63,2.63,0,0,0,1086.58,134.52Z"/><path class="cls-30" d="M1086.35,134.52c-.64-1.14-1.81-1.09-1.16-3.3,0,0-3.07,1.51-3.56,4.31a2.35,2.35,0,0,0,2.2,2.49h.27a2.48,2.48,0,0,0,2.46-2.48h0A2.5,2.5,0,0,0,1086.35,134.52Z"/><path class="cls-9" d="M1083.26,134.05c-.1-.18-.28-.16-.17-.52a1.07,1.07,0,0,0-.59.69.4.4,0,0,0,.4.4.41.41,0,0,0,.4-.4A.47.47,0,0,0,1083.26,134.05Z"/><path class="cls-31" d="M1083.24,134.06c-.1-.18-.27-.17-.18-.5a1,1,0,0,0-.53.65.36.36,0,0,0,.32.38h.05a.38.38,0,0,0,.37-.38A.4.4,0,0,0,1083.24,134.06Z"/><path class="cls-11" d="M842.37,347V316.61h8.13q3.29,0,4.77,1.62c1,1.08,1.49,2.85,1.49,5.33v1.33a7,7,0,0,1-.76,3.48,3.58,3.58,0,0,1-2.31,1.74,3.7,3.7,0,0,1,2.72,2.43,13.66,13.66,0,0,1,.7,4.66,22,22,0,0,1-.55,5.17,6.33,6.33,0,0,1-2,3.44A6.1,6.1,0,0,1,850.5,347Zm5.87-19h1.22a1,1,0,0,0,1.08-.65,4.7,4.7,0,0,0,.24-1.58v-3.06c0-1-.43-1.47-1.28-1.47h-1.26Zm.59,13.61q2.34,0,2.34-2.25v-3.8a4.67,4.67,0,0,0-.38-2.05,1.48,1.48,0,0,0-1.45-.75h-1.1v8.81a3.84,3.84,0,0,0,.59.11Z"/><path class="cls-11" d="M858.26,347l2.9-30.43h10.19L874.2,347h-5.68l-.43-4.91h-3.62L864.1,347Zm6.64-9.77h2.73l-1.31-15.47H866Z"/><path class="cls-11" d="M876,347V316.61h8.25a6.18,6.18,0,0,1,4.88,1.83,7.66,7.66,0,0,1,1.64,5.33V338a12.54,12.54,0,0,1-1.49,6.68c-1,1.56-2.74,2.35-5.23,2.35Zm6-5.38h1a1.45,1.45,0,0,0,1.65-1.22,1.34,1.34,0,0,0,0-.4V324.3a3.17,3.17,0,0,0-.4-2,2.17,2.17,0,0,0-1.63-.44H882Z"/><path class="cls-11" d="M908.58,347.31q-4.11,0-5.92-2.07c-1.21-1.38-1.81-3.58-1.82-6.6v-3h5.94v3.81a3.6,3.6,0,0,0,.31,1.65,1.14,1.14,0,0,0,1.1.59,1.25,1.25,0,0,0,1.14-.48,3,3,0,0,0,.31-1.59,8.37,8.37,0,0,0-.27-2.34,5.23,5.23,0,0,0-1-1.8,19.67,19.67,0,0,0-1.87-2l-2.69-2.59a8.94,8.94,0,0,1-3-6.61,8.77,8.77,0,0,1,1.78-5.93,6.53,6.53,0,0,1,5.16-2c2.75,0,4.71.75,5.86,2.24s1.73,3.74,1.73,6.77h-6.1v-2.09a1.2,1.2,0,0,0-1.08-1.31h-.22a1.26,1.26,0,0,0-1.05.4,1.59,1.59,0,0,0-.33,1.05,3.3,3.3,0,0,0,.34,1.38,5.91,5.91,0,0,0,1.35,1.71l3.46,3.37a21.38,21.38,0,0,1,1.91,2.12,9.16,9.16,0,0,1,1.4,2.59,10.79,10.79,0,0,1,.53,3.61A12.28,12.28,0,0,1,914,344.9Q912.46,347.32,908.58,347.31Z"/><path class="cls-11" d="M920.15,347V322.45h-3.57v-5.84h13.14v5.84h-3.57V347Z"/><path class="cls-11" d="M938.33,347.31q-3.75,0-5.52-2.13T931,338.89V316.61h5.84v22a11.8,11.8,0,0,0,.08,1.46,2.63,2.63,0,0,0,.39,1.15,1.36,1.36,0,0,0,1.91.09l.09-.09a2.49,2.49,0,0,0,.38-1.15,14.48,14.48,0,0,0,.08-1.47v-22h5.83v22.28q0,4.15-1.77,6.29C942.68,346.6,940.83,347.31,938.33,347.31Z"/><path class="cls-11" d="M947.94,347V316.61h12v5.93h-6v4.84h5.67v5.86H954V347Z"/><path class="cls-11" d="M961.87,347V316.61h12v5.93h-6v4.84h5.66v5.86h-5.66V347Z"/><path class="cls-11" d="M984,347V316.61h8.25a6.18,6.18,0,0,1,4.88,1.83,7.71,7.71,0,0,1,1.64,5.33V338a12.53,12.53,0,0,1-1.5,6.68c-1,1.56-2.73,2.35-5.22,2.35Zm6-5.38h1a1.45,1.45,0,0,0,1.65-1.21,1.13,1.13,0,0,0,0-.41V324.3a3.18,3.18,0,0,0-.4-2,2.17,2.17,0,0,0-1.63-.44H990Z"/><path class="cls-11" d="M1008.39,347.31a6.85,6.85,0,0,1-5.5-2.2c-1.27-1.47-1.9-3.6-1.91-6.37V324.29a8.38,8.38,0,0,1,1.89-5.93,8.53,8.53,0,0,1,11,0,8.44,8.44,0,0,1,1.88,5.93v14.45q0,4.17-1.9,6.37A6.87,6.87,0,0,1,1008.39,347.31Zm.05-5.6c.91,0,1.36-.89,1.36-2.68V324.18c0-1.49-.44-2.24-1.33-2.24s-1.5.76-1.5,2.3v14.83a4.43,4.43,0,0,0,.34,2A1.19,1.19,0,0,0,1008.44,341.71Z"/><path class="cls-11" d="M1018.21,347V316.61h6.18l2.76,14.57V316.61h5.8V347h-5.87l-3-15.22V347Z"/><path class="cls-11" d="M1038.19,347V322.45h-3.57v-5.84h13.14v5.84h-3.57V347Z"/><path class="cls-11" d="M1060.19,347V322.45h-3.56v-5.84h13.13v5.84h-3.56V347Z"/><path class="cls-11" d="M1078.6,347.31a6.87,6.87,0,0,1-5.51-2.2,9.53,9.53,0,0,1-1.9-6.37V324.29a8.38,8.38,0,0,1,1.89-5.93,8.51,8.51,0,0,1,11,0,8.38,8.38,0,0,1,1.89,5.93v14.45q0,4.17-1.9,6.37A6.85,6.85,0,0,1,1078.6,347.31Zm.05-5.6c.91,0,1.36-.89,1.36-2.68V324.18c0-1.49-.44-2.24-1.33-2.24s-1.5.76-1.5,2.3v14.83a4.43,4.43,0,0,0,.34,2A1.19,1.19,0,0,0,1078.65,341.71Z"/><path class="cls-11" d="M1095.36,347.31q-3.75,0-5.52-2.13t-1.78-6.29V316.61h5.84v22a11.8,11.8,0,0,0,.08,1.46,2.63,2.63,0,0,0,.39,1.15,1.36,1.36,0,0,0,1.91.09l.09-.09a2.45,2.45,0,0,0,.38-1.15,14.48,14.48,0,0,0,.08-1.47v-22h5.83v22.28q0,4.15-1.77,6.29T1095.36,347.31Z"/><path class="cls-11" d="M1112,347.31a6.94,6.94,0,0,1-5.24-2.05,7.91,7.91,0,0,1-2-5.76v-14q0-4.42,1.73-6.77t5.64-2.36a8.7,8.7,0,0,1,3.79.8,6,6,0,0,1,2.62,2.38,7.56,7.56,0,0,1,1,4v5.26h-6v-4.5a3.36,3.36,0,0,0-.35-1.84,1.16,1.16,0,0,0-1-.47,1.12,1.12,0,0,0-1.13.61,4,4,0,0,0-.29,1.63v15.23a3.14,3.14,0,0,0,.37,1.78,1.17,1.17,0,0,0,1,.52,1.1,1.1,0,0,0,1.08-.64,3.78,3.78,0,0,0,.32-1.66V334h6v5.76q0,4-2,5.82A8,8,0,0,1,1112,347.31Z"/><path class="cls-11" d="M1121.53,347V316.61h6v10.88h2.83V316.61h6V347h-6V333.2h-2.83V347Z"/><path class="cls-11" d="M99.26,162V131.55h6v10.87h2.83V131.55h6V162h-6V148.18h-2.83V162Z"/><path class="cls-11" d="M116.69,162V131.55h12v5.87h-5.9v5.93h5.66v5.73H122.8v7h6.29V162Z"/><path class="cls-11" d="M139.26,162V131.55h6.18l2.76,14.57V131.55H154V162h-5.87l-3-15.21V162Z"/><path class="cls-11" d="M156.66,162V131.55h12v5.87h-5.9v5.93h5.66v5.73h-5.66v7h6.29V162Z"/><path class="cls-11" d="M171,162V131.55h12v5.87h-5.9v5.93h5.66v5.73H177.1v7h6.29V162Z"/><path class="cls-11" d="M185.42,162V131.55h8.25a6.22,6.22,0,0,1,4.88,1.82,7.76,7.76,0,0,1,1.64,5.33V153a12.49,12.49,0,0,1-1.49,6.67q-1.5,2.36-5.23,2.35Zm6-5.37h1a1.45,1.45,0,0,0,1.65-1.22,1.41,1.41,0,0,0,0-.41V139.3a3.17,3.17,0,0,0-.4-2,2.27,2.27,0,0,0-1.63-.44h-.66Z"/><path class="cls-11" d="M209.78,162.25q-4.11,0-5.93-2.08t-1.82-6.6v-3h6v3.8a3.6,3.6,0,0,0,.31,1.65,1.14,1.14,0,0,0,1.1.6,1.24,1.24,0,0,0,1.14-.49,3,3,0,0,0,.31-1.59,8.37,8.37,0,0,0-.27-2.34,5.28,5.28,0,0,0-1-1.8,20.77,20.77,0,0,0-1.86-2l-2.7-2.6a9.57,9.57,0,0,1-1.22-12.53,6.5,6.5,0,0,1,5.16-2q4.14,0,5.86,2.23c1.16,1.49,1.73,3.75,1.73,6.78h-6.1v-2.1a1.21,1.21,0,0,0-1.1-1.31h-.2a1.27,1.27,0,0,0-1,.41,1.58,1.58,0,0,0-.33,1,3.35,3.35,0,0,0,.34,1.39,6.38,6.38,0,0,0,1.35,1.71l3.46,3.37a20.2,20.2,0,0,1,1.91,2.12,8.91,8.91,0,0,1,1.4,2.59,10.73,10.73,0,0,1,.53,3.6,12.33,12.33,0,0,1-1.56,6.72Q213.65,162.26,209.78,162.25Z"/><path class="cls-11" d="M230.59,162V152l-4.8-20.41h6l1.67,10.3,1.67-10.3H241L236.25,152v10Z"/><path class="cls-11" d="M249.71,162.25a6.88,6.88,0,0,1-5.5-2.21c-1.27-1.46-1.91-3.59-1.91-6.37V139.22a8.38,8.38,0,0,1,1.89-5.93,8.55,8.55,0,0,1,11,0,8.45,8.45,0,0,1,1.88,5.93v14.45c0,2.78-.63,4.91-1.9,6.37A6.87,6.87,0,0,1,249.71,162.25Zm0-5.6c.91,0,1.36-.9,1.36-2.68V139.12c0-1.5-.44-2.25-1.33-2.25s-1.5.77-1.5,2.3V154a4.57,4.57,0,0,0,.34,2,1.19,1.19,0,0,0,1.18.65Z"/><path class="cls-11" d="M266.47,162.25q-3.75,0-5.52-2.14c-1.18-1.42-1.78-3.51-1.78-6.28V131.55H265v22a14.13,14.13,0,0,0,.08,1.46,2.64,2.64,0,0,0,.4,1.15,1.09,1.09,0,0,0,1,.45,1.14,1.14,0,0,0,1-.44,2.5,2.5,0,0,0,.39-1.15,14.46,14.46,0,0,0,.07-1.47v-22h5.84v22.28c0,2.77-.6,4.86-1.78,6.28S269,162.25,266.47,162.25Z"/><path class="cls-11" d="M276.08,162V131.55h9.21a5,5,0,0,1,3.48,1.06,5.42,5.42,0,0,1,1.58,3,22.52,22.52,0,0,1,.4,4.49,10.3,10.3,0,0,1-.63,4,3.57,3.57,0,0,1-2.34,2.06,2.7,2.7,0,0,1,2,1.43,6.56,6.56,0,0,1,.57,2.93V162h-5.92V150.06q0-1.34-.54-1.65a3.56,3.56,0,0,0-1.73-.32V162Zm6.11-19.15h1.44c.83,0,1.25-.92,1.25-2.75a6.12,6.12,0,0,0-.27-2.33,1,1,0,0,0-1-.56h-1.39Z"/><path class="cls-11" d="M300.91,162V131.55h6v10.87h2.84V131.55h6V162h-6V148.18h-2.84V162Z"/><path class="cls-11" d="M318.35,162V131.55h12v5.87h-5.91v5.93h5.67v5.73h-5.67v7h6.3V162Z"/><path class="cls-11" d="M332.73,162V131.55h6v25.24h6.18V162Z"/><path class="cls-11" d="M346.61,162V131.55h7.93a6.33,6.33,0,0,1,3.95,1.12,6.16,6.16,0,0,1,2.09,3.2,17.18,17.18,0,0,1,.63,4.94,19.1,19.1,0,0,1-.53,4.82,5.24,5.24,0,0,1-5.73,4.29h-2.44V162Zm5.9-17.51h.34c1.12,0,1.8-.32,2-1a8,8,0,0,0,.38-2.8,7.81,7.81,0,0,0-.37-2.67,1.64,1.64,0,0,0-1.73-.94h-.67Z"/><path class="cls-11" d="M363.91,153.69l-1.2-22.14h6.11l-1.19,22.14Zm-1.2,8.26V156.8h6.11V162Z"/><path class="cls-11" d="M106.25,204.73a7,7,0,0,1-5.24-2A7.91,7.91,0,0,1,99,197V183c0-2.95.58-5.2,1.73-6.77s3-2.35,5.64-2.36a8.74,8.74,0,0,1,3.8.8,6,6,0,0,1,2.61,2.38,7.56,7.56,0,0,1,1,4v5.26h-6v-4.5a3.45,3.45,0,0,0-.34-1.84,1.21,1.21,0,0,0-1.06-.47,1.12,1.12,0,0,0-1.12.61,3.63,3.63,0,0,0-.29,1.63v15.23a3.23,3.23,0,0,0,.36,1.78,1.21,1.21,0,0,0,1,.52,1.1,1.1,0,0,0,1.08-.64,3.78,3.78,0,0,0,.32-1.66v-5.48h6v5.76q0,4-2,5.82A8,8,0,0,1,106.25,204.73Z"/><path class="cls-11" d="M123,204.73a6.85,6.85,0,0,1-5.5-2.2c-1.27-1.47-1.9-3.6-1.91-6.37V181.71q0-3.92,1.89-5.93a8.53,8.53,0,0,1,11,0q1.88,2,1.88,5.93v14.45q0,4.17-1.9,6.37A6.87,6.87,0,0,1,123,204.73Zm0-5.6c.91,0,1.36-.89,1.36-2.68V181.6c0-1.5-.44-2.24-1.33-2.24s-1.5.76-1.5,2.29v14.84a4.57,4.57,0,0,0,.34,2,1.19,1.19,0,0,0,1.08.64Z"/><path class="cls-11" d="M132.81,204.46V174h6v25.24H145v5.19Z"/><path class="cls-11" d="M146.7,204.46V174h6v25.24h6.18v5.19Z"/><path class="cls-11" d="M160.58,204.46V174h12v5.88h-5.9v5.93h5.66v5.72h-5.66v7H173v5.93Z"/><path class="cls-11" d="M182,204.73a7,7,0,0,1-5.25-2,8,8,0,0,1-2-5.76V183c0-2.95.58-5.2,1.74-6.77s3-2.35,5.63-2.36a8.74,8.74,0,0,1,3.8.8,6,6,0,0,1,2.62,2.38,7.68,7.68,0,0,1,1,4v5.26h-6v-4.5a3.45,3.45,0,0,0-.34-1.84,1.21,1.21,0,0,0-1.06-.47A1.1,1.1,0,0,0,181,180a3.63,3.63,0,0,0-.29,1.63v15.23a3.23,3.23,0,0,0,.36,1.78,1.21,1.21,0,0,0,1.05.52,1.12,1.12,0,0,0,1.09-.64,3.78,3.78,0,0,0,.31-1.66v-5.48h6v5.76q0,4-2,5.82A8,8,0,0,1,182,204.73Z"/><path class="cls-11" d="M194.1,204.46V179.87h-3.56V174h13.13v5.84H200.1v24.59Z"/><path class="cls-11" d="M213.53,204.46V174h12v5.88h-5.9v5.93h5.66v5.72h-5.66v7h6.29v5.93Z"/><path class="cls-11" d="M227.91,204.46V174h6.17l2.77,14.57V174h5.8v30.43h-5.87l-3-15.22v15.22Z"/><path class="cls-11" d="M252.47,204.73a6.85,6.85,0,0,1-5.5-2.2,9.43,9.43,0,0,1-1.9-6.37V181.71q0-3.92,1.88-5.93a8.53,8.53,0,0,1,11,0c1.26,1.34,1.88,3.32,1.88,5.93v14.45q0,4.17-1.9,6.37A6.87,6.87,0,0,1,252.47,204.73Zm.05-5.6c.91,0,1.37-.89,1.37-2.68V181.6c0-1.5-.45-2.24-1.33-2.24s-1.5.76-1.5,2.29v14.84a4.43,4.43,0,0,0,.34,2,1.16,1.16,0,0,0,1.12.64Z"/><path class="cls-11" d="M269.24,204.73c-2.5,0-4.35-.71-5.53-2.13s-1.77-3.52-1.77-6.29V174h5.83v22a11.8,11.8,0,0,0,.09,1.46,2.36,2.36,0,0,0,.39,1.15,1.09,1.09,0,0,0,1,.45,1.17,1.17,0,0,0,1-.44,2.49,2.49,0,0,0,.38-1.15,14.48,14.48,0,0,0,.08-1.47V174h5.83v22.28c0,2.77-.59,4.86-1.77,6.29S271.74,204.73,269.24,204.73Z"/><path class="cls-11" d="M285,204.73q-6.42,0-6.43-9.33V182.28q0-8.52,7.37-8.53A7.61,7.61,0,0,1,290.6,175a6.37,6.37,0,0,1,2.23,3.6,23,23,0,0,1,.62,5.78h-5.87v-2.7a4.64,4.64,0,0,0-.26-1.65,1.07,1.07,0,0,0-1.1-.66,1.35,1.35,0,0,0-1.38.7,3.8,3.8,0,0,0-.33,1.56v14.75a5.24,5.24,0,0,0,.31,2,1.41,1.41,0,0,0,1.9.61,1.38,1.38,0,0,0,.61-.61,5.45,5.45,0,0,0,.32-2V192H286v-5.25h7.34v17.72H291l-1-2.56A5.24,5.24,0,0,1,285,204.73Z"/><path class="cls-11" d="M295.78,204.46V174h6v10.9h2.83V174h6v30.43h-6v-13.8h-2.83v13.8Z"/><path class="cls-11" d="M323.75,204.46,320.53,174h5.87l1.65,19.21L329.74,174h5.6l1.6,19.21,1.6-19.21h5.94l-3.28,30.43H334l-1.5-14.65-1.43,14.65Z"/><path class="cls-11" d="M345,204.46,347.9,174h10.19l2.85,30.43h-5.68l-.43-4.91h-3.62l-.37,4.91Zm6.64-9.77h2.73L353,179.22h-.27Z"/><path class="cls-11" d="M364.88,204.46V179.87h-3.57V174h13.14v5.84h-3.57v24.59Z"/><path class="cls-11" d="M376.12,204.46V174h12v5.88h-5.9v5.93h5.66v5.72h-5.66v7h6.29v5.93Z"/><path class="cls-11" d="M390.5,204.46V174h9.21a5.08,5.08,0,0,1,3.48,1.06,5.36,5.36,0,0,1,1.58,3,21.77,21.77,0,0,1,.4,4.48,10.68,10.68,0,0,1-.62,4,3.63,3.63,0,0,1-2.35,2.06,2.67,2.67,0,0,1,2,1.42,6.56,6.56,0,0,1,.57,2.93v11.52h-5.92V192.54q0-1.32-.54-1.65a3.56,3.56,0,0,0-1.73-.32v13.89Zm6.11-19.16h1.45c.83,0,1.24-.91,1.24-2.75a6.54,6.54,0,0,0-.27-2.33,1,1,0,0,0-1-.55h-1.39Z"/><path class="cls-11" d="M415.33,204.46V174h8.14c2.19,0,3.77.54,4.77,1.62s1.49,2.85,1.49,5.33v1.33a7,7,0,0,1-.76,3.48,3.58,3.58,0,0,1-2.31,1.74,3.72,3.72,0,0,1,2.72,2.43,13.65,13.65,0,0,1,.69,4.66,22.48,22.48,0,0,1-.54,5.17,6.49,6.49,0,0,1-2,3.44,6.11,6.11,0,0,1-4.08,1.23Zm5.87-19h1.23a1,1,0,0,0,1.08-.66,4.68,4.68,0,0,0,.24-1.57v-3c0-1-.43-1.47-1.28-1.47H421.2Zm.6,13.61q2.34,0,2.34-2.25V193a4.52,4.52,0,0,0-.39-2.05,1.46,1.46,0,0,0-1.44-.75H421.2V199a4.09,4.09,0,0,0,.6.07Z"/><path class="cls-11" d="M432.05,204.46V174h12v5.88h-5.9v5.93h5.66v5.72h-5.66v7h6.29v5.93Z"/><path class="cls-11" d="M446.43,204.46V174h12v6h-6v4.84h5.66v5.86h-5.66v13.8Z"/><path class="cls-11" d="M467.53,204.73a6.85,6.85,0,0,1-5.5-2.2c-1.27-1.47-1.9-3.6-1.9-6.37V181.71q0-3.92,1.88-5.93a8.53,8.53,0,0,1,11,0c1.26,1.34,1.88,3.32,1.88,5.93v14.45q0,4.17-1.9,6.37A6.87,6.87,0,0,1,467.53,204.73Zm.05-5.6c.91,0,1.37-.89,1.37-2.68V181.6c0-1.5-.45-2.24-1.33-2.24s-1.5.76-1.5,2.29v14.84a4.43,4.43,0,0,0,.34,2,1.16,1.16,0,0,0,1.12.64Z"/><path class="cls-11" d="M477.36,204.46V174h9.21a5.08,5.08,0,0,1,3.48,1.06,5.29,5.29,0,0,1,1.57,3,21.78,21.78,0,0,1,.41,4.48,10.49,10.49,0,0,1-.63,4,3.61,3.61,0,0,1-2.34,2.06,2.67,2.67,0,0,1,2,1.42,6.43,6.43,0,0,1,.58,2.93v11.52H485.7V192.54q0-1.32-.54-1.65a3.56,3.56,0,0,0-1.73-.32v13.89Zm6.1-19.16h1.45c.83,0,1.25-.91,1.25-2.75a6.12,6.12,0,0,0-.28-2.33,1,1,0,0,0-1-.55h-1.4Z"/><path class="cls-11" d="M494,204.46V174h12v5.88h-5.9v5.93h5.66v5.72H500.1v7h6.3v5.93Z"/><path class="cls-11" d="M101.84,246.94V222.36H98.27v-5.84h13.14v5.84h-3.57v24.58Z"/><path class="cls-11" d="M113.08,246.94V216.52h6v10.87h2.83V216.52h6v30.42h-6V233.15h-2.83v13.79Z"/><path class="cls-11" d="M130.51,246.94V216.52h12v5.87h-5.9v5.93h5.66V234h-5.66v7h6.29v5.93Z"/><path class="cls-11" d="M155.65,246.94V222.36h-3.56v-5.84h13.13v5.84h-3.56v24.58Z"/><path class="cls-11" d="M166.62,246.94V216.52h5.8v30.42Z"/><path class="cls-11" d="M174.81,246.94V216.52H184l2.53,18.54,2.5-18.54h9.23v30.42h-5.49V225l-3.45,21.92h-5.39L180.23,225v21.92Z"/><path class="cls-11" d="M200.87,246.94V216.52h12v5.87H207v5.93h5.66V234H207v7h6.29v5.93Z"/><path class="cls-11" d="M215.25,246.94V216.52h9.21a5,5,0,0,1,3.48,1.06,5.33,5.33,0,0,1,1.58,3,21.81,21.81,0,0,1,.4,4.49,10.68,10.68,0,0,1-.62,4,3.63,3.63,0,0,1-2.35,2.06,2.7,2.7,0,0,1,2,1.43,6.56,6.56,0,0,1,.57,2.93V247H223.6V235q0-1.33-.54-1.65a3.56,3.56,0,0,0-1.73-.32v13.88Zm6.11-19.15h1.45c.83,0,1.24-.92,1.24-2.75a6.4,6.4,0,0,0-.27-2.34,1,1,0,0,0-1-.55h-1.4Z"/><path class="cls-11" d="M240.09,246.94V216.52h9.21a5,5,0,0,1,3.48,1.06,5.42,5.42,0,0,1,1.58,3,22.52,22.52,0,0,1,.4,4.49,10.3,10.3,0,0,1-.63,4,3.61,3.61,0,0,1-2.34,2.06,2.7,2.7,0,0,1,2,1.43,6.56,6.56,0,0,1,.57,2.93V247h-5.92V235q0-1.33-.54-1.65a3.56,3.56,0,0,0-1.73-.32v13.88Zm6.1-19.15h1.45c.83,0,1.25-.92,1.25-2.75a6.4,6.4,0,0,0-.27-2.34,1,1,0,0,0-1-.55h-1.4Z"/><path class="cls-11" d="M263.68,247.22c-2.5,0-4.35-.71-5.53-2.14s-1.77-3.52-1.77-6.28V216.52h5.83v22a11.8,11.8,0,0,0,.09,1.46,2.47,2.47,0,0,0,.39,1.15,1.09,1.09,0,0,0,1,.45,1.14,1.14,0,0,0,1-.45,2.32,2.32,0,0,0,.39-1.14,14.48,14.48,0,0,0,.08-1.47v-22H271V238.8c0,2.76-.59,4.86-1.77,6.28S266.18,247.22,263.68,247.22Z"/><path class="cls-11" d="M273.28,246.94V216.52h6.18l2.76,14.57V216.52H288v30.42h-5.87l-3-15.21v15.21Z"/><path class="cls-11" d="M297.81,247.22q-4.11,0-5.93-2.08c-1.21-1.39-1.82-3.59-1.81-6.6v-3H296v3.8a3.48,3.48,0,0,0,.32,1.65,1.14,1.14,0,0,0,1.1.6,1.27,1.27,0,0,0,1.13-.49,3,3,0,0,0,.32-1.59,8,8,0,0,0-.28-2.34,5.09,5.09,0,0,0-.94-1.8,19.67,19.67,0,0,0-1.87-2l-2.7-2.59a8.9,8.9,0,0,1-3-6.6,8.72,8.72,0,0,1,1.78-5.93,6.5,6.5,0,0,1,5.16-2c2.75,0,4.71.74,5.86,2.23s1.73,3.75,1.73,6.78H298.5v-2.1a1.24,1.24,0,0,0-.35-1,1.26,1.26,0,0,0-.94-.35,1.3,1.3,0,0,0-1,.41,1.52,1.52,0,0,0-.34,1,3.17,3.17,0,0,0,.35,1.38,6.05,6.05,0,0,0,1.34,1.72l3.47,3.37a21.26,21.26,0,0,1,1.91,2.11,9.18,9.18,0,0,1,1.39,2.6,10.73,10.73,0,0,1,.53,3.6,12.33,12.33,0,0,1-1.56,6.72Q301.67,247.22,297.81,247.22Z"/><path class="cls-11" d="M322.15,247.22a6.88,6.88,0,0,1-5.5-2.21q-1.9-2.2-1.9-6.37V224.19a8.45,8.45,0,0,1,1.88-5.93,8.55,8.55,0,0,1,11,0c1.26,1.35,1.88,3.33,1.88,5.93v14.45q0,4.17-1.9,6.37A6.87,6.87,0,0,1,322.15,247.22Zm.05-5.6c.91,0,1.37-.9,1.37-2.68V224.09c0-1.5-.45-2.25-1.33-2.25s-1.5.77-1.5,2.3V239a4.43,4.43,0,0,0,.34,2,1.18,1.18,0,0,0,1.12.62Z"/><path class="cls-11" d="M338.92,247.22c-2.5,0-4.35-.71-5.53-2.14s-1.77-3.52-1.77-6.28V216.52h5.83v22a11.8,11.8,0,0,0,.09,1.46,2.47,2.47,0,0,0,.39,1.15,1.09,1.09,0,0,0,1,.45,1.14,1.14,0,0,0,1-.45,2.32,2.32,0,0,0,.39-1.14,14.48,14.48,0,0,0,.08-1.47v-22h5.83V238.8c0,2.76-.59,4.86-1.77,6.28S341.42,247.22,338.92,247.22Z"/><path class="cls-11" d="M351.1,246.94V222.36h-3.57v-5.84h13.14v5.84H357.1v24.58Z"/><path class="cls-11" d="M363.14,238.66,362,216.52h6.1l-1.19,22.14ZM362,246.92v-5.15h6.1v5.15Z"/><path class="cls-11" d="M378.25,246.94V216.52h5.8v30.42Z"/><path class="cls-11" d="M386.44,246.94V216.52h12v5.92h-6v4.85h5.66v5.86h-5.66v13.79Z"/><path class="cls-11" d="M412.2,246.94v-10l-4.8-20.41h6l1.67,10.3,1.67-10.3h5.94l-4.78,20.41v10Z"/><path class="cls-11" d="M431.32,247.22a6.88,6.88,0,0,1-5.5-2.21q-1.9-2.2-1.9-6.37V224.19c0-2.6.62-4.58,1.88-5.93a8.55,8.55,0,0,1,11,0,8.45,8.45,0,0,1,1.88,5.93v14.45q0,4.17-1.9,6.37A6.87,6.87,0,0,1,431.32,247.22Zm.05-5.6c.91,0,1.36-.9,1.36-2.68V224.09c0-1.5-.44-2.25-1.33-2.25s-1.5.77-1.5,2.3V239a4.57,4.57,0,0,0,.34,2A1.19,1.19,0,0,0,431.37,241.62Z"/><path class="cls-11" d="M448.08,247.22q-3.75,0-5.52-2.14c-1.18-1.42-1.77-3.52-1.77-6.28V216.52h5.83v22a14.13,14.13,0,0,0,.08,1.46,2.64,2.64,0,0,0,.4,1.15,1.09,1.09,0,0,0,1,.45,1.14,1.14,0,0,0,1-.45,2.43,2.43,0,0,0,.39-1.14,14.46,14.46,0,0,0,.07-1.47v-22h5.84V238.8c0,2.76-.6,4.86-1.78,6.28S450.59,247.22,448.08,247.22Z"/><path class="cls-11" d="M465.88,246.94V216.52h8.25a6.22,6.22,0,0,1,4.88,1.82,7.71,7.71,0,0,1,1.64,5.33v14.25a12.49,12.49,0,0,1-1.49,6.67q-1.5,2.35-5.23,2.35Zm6-5.38h1a1.45,1.45,0,0,0,1.65-1.22,1.34,1.34,0,0,0,0-.4v-15.7a3.17,3.17,0,0,0-.4-2,2.27,2.27,0,0,0-1.63-.44h-.66Z"/><path class="cls-11" d="M490.27,247.22a6.88,6.88,0,0,1-5.5-2.21q-1.9-2.2-1.9-6.37V224.19c0-2.6.62-4.58,1.88-5.93a8.55,8.55,0,0,1,11,0,8.45,8.45,0,0,1,1.88,5.93v14.45q0,4.17-1.9,6.37A6.87,6.87,0,0,1,490.27,247.22Zm.05-5.6c.91,0,1.36-.9,1.36-2.68V224.09c0-1.5-.44-2.25-1.33-2.25s-1.5.77-1.5,2.3V239a4.57,4.57,0,0,0,.34,2,1.19,1.19,0,0,0,1.13.62Z"/><path class="cls-11" d="M500.09,246.94V216.52h6.18L509,231.09V216.52h5.8v30.42H509l-3-15.21v15.21Z"/><path class="cls-11" d="M520.07,246.94V222.36H516.5v-5.84h13.14v5.84h-3.57v24.58Z"/><path class="cls-11" d="M532,251l1.12-4.08H531v-5.15h6.38v5L535.56,251Z"/><path class="cls-11" d="M554.88,247.22q-4.11,0-5.92-2.08c-1.22-1.38-1.82-3.58-1.82-6.6v-3h5.93v3.8a3.48,3.48,0,0,0,.32,1.65,1.14,1.14,0,0,0,1.1.6,1.24,1.24,0,0,0,1.13-.49,3,3,0,0,0,.32-1.59,8.37,8.37,0,0,0-.27-2.34,5.28,5.28,0,0,0-.95-1.8,19.67,19.67,0,0,0-1.87-2l-2.69-2.59a8.83,8.83,0,0,1-3-6.6,8.72,8.72,0,0,1,1.78-5.93,6.5,6.5,0,0,1,5.16-2c2.75,0,4.71.74,5.86,2.23s1.73,3.74,1.73,6.78h-6.11v-2.1a1.24,1.24,0,0,0-.35-1,1.43,1.43,0,0,0-1.94.06,1.58,1.58,0,0,0-.33,1,3.3,3.3,0,0,0,.34,1.38,6.09,6.09,0,0,0,1.35,1.72l3.46,3.37A21.26,21.26,0,0,1,560,231.8a9.62,9.62,0,0,1,1.4,2.6A10.73,10.73,0,0,1,562,238a12.33,12.33,0,0,1-1.56,6.72Q558.74,247.22,554.88,247.22Z"/><path class="cls-11" d="M566.45,246.94V222.36h-3.57v-5.84H576v5.84h-3.57v24.58Z"/><path class="cls-11" d="M577.69,246.94V216.52h12v5.87h-5.91v5.93h5.67V234h-5.67v7h6.3v5.93Z"/><path class="cls-11" d="M594.83,246.94l-3.7-30.44h5.71l2.2,20.71,2-20.71h5.71L603,246.94Z"/><path class="cls-11" d="M608.46,246.94V216.52h12v5.87h-5.9v5.93h5.66V234h-5.66v7h6.29v5.93Z"/><path class="cls-11" d="M633.38,246.94l-3.22-30.42H636l1.66,19.2,1.69-19.2H645l1.61,19.2,1.6-19.2h5.94l-3.28,30.42h-7.2l-1.5-14.64-1.43,14.64Z"/><path class="cls-11" d="M655.62,246.94V216.52h5.8v30.42Z"/><path class="cls-11" d="M663.81,246.94V216.52h6v25.23H676v5.19Z"/><path class="cls-11" d="M677.7,246.94V216.52h6v25.23h6.18v5.19Z"/><path class="cls-11" d="M699.77,246.94V216.52H708a6.22,6.22,0,0,1,4.88,1.82,7.71,7.71,0,0,1,1.64,5.33v14.25a12.49,12.49,0,0,1-1.49,6.67q-1.5,2.35-5.23,2.35Zm6-5.38h1a1.45,1.45,0,0,0,1.65-1.22,1.34,1.34,0,0,0,0-.4v-15.7a3.17,3.17,0,0,0-.4-2,2.27,2.27,0,0,0-1.63-.44h-.66Z"/><path class="cls-11" d="M716.72,246.94V216.52h5.8v30.42Z"/><path class="cls-11" d="M724.91,246.94V216.52h12v5.87H731v5.93h5.66V234H731v7h6.29v5.93Z"/><path class="cls-11" d="M740.09,238.66l-1.19-22.14H745l-1.19,22.14Zm-1.19,8.26v-5.15H745v5.15Z"/><rect class="cls-38" x="413.26" y="294.55" width="306.36" height="243.22"/><path class="cls-11" d="M446.06,379.65V342.59h7.75a5.23,5.23,0,0,1,4.54,2c.94,1.31,1.42,3.48,1.42,6.5v1.62a10.52,10.52,0,0,1-.72,4.23,3.73,3.73,0,0,1-2.21,2.13,4,4,0,0,1,2.6,2.95,21.6,21.6,0,0,1,.65,5.68,33.19,33.19,0,0,1-.52,6.29,8.36,8.36,0,0,1-1.88,4.19,5,5,0,0,1-3.88,1.5Zm5.59-23.1h1.16a1,1,0,0,0,1-.8,7.08,7.08,0,0,0,.23-1.91v-3.73c0-1.19-.41-1.79-1.22-1.79h-1.2Zm.56,16.57c1.49,0,2.23-.91,2.23-2.74v-4.63a6.74,6.74,0,0,0-.37-2.49,1.36,1.36,0,0,0-1.37-.92h-1.05v10.74A4.41,4.41,0,0,0,452.21,373.12Z"/><path class="cls-11" d="M462,379.65V342.59h11.44v7.16h-5.63V357h5.4v7h-5.4v8.49h6v7.22Z"/><path class="cls-11" d="M477.92,379.65l-3.07-37.06h5.59L482,366l1.61-23.39H489L490.48,366,492,342.59h5.66l-3.12,37.06h-6.86l-1.43-17.84-1.36,17.84Z"/><path class="cls-11" d="M498.13,379.65l2.76-37.06h9.7l2.71,37.06h-5.41l-.4-6H504l-.36,6Zm6.32-11.9h2.6l-1.25-18.84h-.26Z"/><path class="cls-11" d="M515.06,379.65V342.59h8.77a4.15,4.15,0,0,1,3.32,1.3,7.31,7.31,0,0,1,1.5,3.62A34.68,34.68,0,0,1,529,353a16.16,16.16,0,0,1-.59,4.84,3.88,3.88,0,0,1-2.24,2.51,2.73,2.73,0,0,1,1.9,1.74,9.94,9.94,0,0,1,.54,3.57v14H523V365.14q0-1.62-.51-2a2.74,2.74,0,0,0-1.65-.39v16.91Zm5.81-23.33h1.39c.79,0,1.18-1.12,1.18-3.35a9.82,9.82,0,0,0-.26-2.84,1,1,0,0,0-1-.67h-1.34Z"/><path class="cls-11" d="M530.91,379.65V342.59h11.44v7.16h-5.62V357h5.39v7h-5.39v8.49h6v7.22Z"/><path class="cls-11" d="M545.37,369.56l-1.13-27h5.81l-1.13,27Zm-1.13,10.07v-6.28h5.81v6.28Z"/><path class="cls-11" d="M446.06,431.39V394.34h8.7l2.41,22.59,2.39-22.59h8.79v37.05h-5.23V404.7l-3.29,26.69H454.7l-3.48-26.69v26.69Z"/><path class="cls-11" d="M470.62,431.39V394.34h5.53v37.05Z"/><path class="cls-11" d="M485.21,431.73q-3.91,0-5.64-2.53c-1.16-1.68-1.73-4.36-1.73-8v-3.62h5.65v4.63a5.38,5.38,0,0,0,.3,2,1.06,1.06,0,0,0,1,.73,1.11,1.11,0,0,0,1.08-.59,4.56,4.56,0,0,0,.3-1.94,13.38,13.38,0,0,0-.26-2.85,7,7,0,0,0-.9-2.19,22,22,0,0,0-1.78-2.43l-2.57-3.16a12.33,12.33,0,0,1-2.87-8q0-4.74,1.69-7.23a5.61,5.61,0,0,1,4.92-2.48q3.93,0,5.58,2.72t1.65,8.25h-5.82v-2.55a1.88,1.88,0,0,0-.33-1.18,1.08,1.08,0,0,0-.9-.42,1.1,1.1,0,0,0-1,.5,2.32,2.32,0,0,0-.32,1.27,4.9,4.9,0,0,0,.33,1.68,7.3,7.3,0,0,0,1.28,2.09l3.3,4.11A24.76,24.76,0,0,1,490,413a12.84,12.84,0,0,1,1.33,3.16,16.37,16.37,0,0,1,.5,4.39,18.51,18.51,0,0,1-1.48,8.18A5.31,5.31,0,0,1,485.21,431.73Z"/><path class="cls-11" d="M500.57,431.73c-2.61,0-4.5-.84-5.65-2.53s-1.73-4.36-1.73-8v-3.62h5.65v4.63a5.38,5.38,0,0,0,.3,2,1.06,1.06,0,0,0,1.05.73,1.11,1.11,0,0,0,1.08-.59,4.56,4.56,0,0,0,.3-1.94,12.76,12.76,0,0,0-.26-2.85,7,7,0,0,0-.9-2.19,22,22,0,0,0-1.78-2.43l-2.57-3.16a12.38,12.38,0,0,1-2.87-8c0-3.16.56-5.57,1.7-7.23A5.59,5.59,0,0,1,499.8,394q3.93,0,5.58,2.72T507,405h-5.81v-2.55a1.88,1.88,0,0,0-.34-1.18,1.08,1.08,0,0,0-.9-.42,1.11,1.11,0,0,0-1,.5,2.32,2.32,0,0,0-.32,1.27,4.9,4.9,0,0,0,.33,1.68,7.53,7.53,0,0,0,1.28,2.09l3.3,4.11a23.34,23.34,0,0,1,1.82,2.57,12.47,12.47,0,0,1,1.33,3.16,16.34,16.34,0,0,1,.51,4.39,18.5,18.5,0,0,1-1.49,8.18A5.31,5.31,0,0,1,500.57,431.73Z"/><path class="cls-11" d="M516.15,431.39l2.76-37.05h9.7l2.71,37.05h-5.41l-.41-6h-3.44l-.36,6Zm6.32-11.89h2.6l-1.26-18.85h-.26Z"/><path class="cls-11" d="M540.87,431.39V394.34h7.87a5.29,5.29,0,0,1,4.64,2.22q1.56,2.22,1.56,6.49V420.4a18.67,18.67,0,0,1-1.42,8.13,5.08,5.08,0,0,1-5,2.86Zm5.76-6.54h1c1,0,1.57-.66,1.57-2V403.75a4.7,4.7,0,0,0-.38-2.39,1.79,1.79,0,0,0-1.55-.54h-.63Z"/><path class="cls-11" d="M557.28,431.39V394.34h8.78a4.15,4.15,0,0,1,3.31,1.29,7.14,7.14,0,0,1,1.5,3.62,33.55,33.55,0,0,1,.39,5.47,15.85,15.85,0,0,1-.6,4.84,3.85,3.85,0,0,1-2.23,2.5,2.7,2.7,0,0,1,1.89,1.74,9.7,9.7,0,0,1,.55,3.57v14h-5.64v-14.5q0-1.62-.51-2a2.74,2.74,0,0,0-1.65-.39v16.9Zm5.82-23.33h1.38c.79,0,1.19-1.11,1.19-3.34a9.86,9.86,0,0,0-.26-2.85,1,1,0,0,0-1-.67H563.1Z"/><path class="cls-11" d="M580,431.73a5.91,5.91,0,0,1-5.23-2.68q-1.82-2.69-1.82-7.76V403.68c0-3.17.6-5.57,1.8-7.22a6.84,6.84,0,0,1,10.51,0c1.2,1.65,1.8,4.05,1.8,7.22v17.61q0,5.07-1.82,7.76A5.91,5.91,0,0,1,580,431.73Zm0-6.82c.87,0,1.3-1.09,1.3-3.27V403.56c0-1.83-.42-2.74-1.26-2.74s-1.43.94-1.43,2.8v18.07a6.68,6.68,0,0,0,.32,2.47A1.11,1.11,0,0,0,580,424.91Z"/><path class="cls-11" d="M589.32,431.39V394.34h7.56a5.1,5.1,0,0,1,3.76,1.37,7.93,7.93,0,0,1,2,3.89,26.32,26.32,0,0,1,.6,6,30.52,30.52,0,0,1-.5,5.87,7.77,7.77,0,0,1-1.8,3.86,4.8,4.8,0,0,1-3.66,1.37h-2.33v14.67Zm5.62-21.33h.33c1.06,0,1.71-.38,2-1.15a12.2,12.2,0,0,0,.36-3.41,11.89,11.89,0,0,0-.35-3.26,1.55,1.55,0,0,0-1.65-1.14h-.64Z"/><path class="cls-11" d="M615.07,431.39,612,394.34h5.59l1.58,23.39,1.61-23.39h5.33l1.52,23.39,1.53-23.39h5.65l-3.11,37.05h-6.86l-1.43-17.83L622,431.39Z"/><path class="cls-11" d="M635.29,431.39l2.76-37.05h9.7l2.71,37.05h-5.41l-.41-6H641.2l-.36,6Zm6.32-11.89h2.6L643,400.65h-.27Z"/><path class="cls-11" d="M654.25,431.39V401.45h-3.4v-7.11h12.51v7.11H660v29.94Z"/><path class="cls-11" d="M665,431.39V394.34h11.44v7.16h-5.62v7.22h5.39v7h-5.39v8.48h6v7.22Z"/><path class="cls-11" d="M678.65,431.39V394.34h8.77a4.17,4.17,0,0,1,3.32,1.29,7.22,7.22,0,0,1,1.5,3.62,34.82,34.82,0,0,1,.38,5.47,16.21,16.21,0,0,1-.59,4.84,3.87,3.87,0,0,1-2.24,2.5,2.73,2.73,0,0,1,1.9,1.74,9.94,9.94,0,0,1,.54,3.57v14h-5.64v-14.5q0-1.62-.51-2a2.74,2.74,0,0,0-1.65-.39v16.9Zm5.82-23.33h1.38c.79,0,1.18-1.11,1.18-3.34a9.5,9.5,0,0,0-.26-2.85,1,1,0,0,0-1-.67h-1.33Z"/><path class="cls-11" d="M446.06,483.14V446.08h5.72v30.74h5.88v6.32Z"/><path class="cls-11" d="M466.1,483.48a5.92,5.92,0,0,1-5.23-2.69c-1.21-1.79-1.82-4.37-1.82-7.76v-17.6q0-4.76,1.8-7.22a6.83,6.83,0,0,1,10.51,0q1.8,2.46,1.8,7.22V473c0,3.39-.61,6-1.82,7.76A5.92,5.92,0,0,1,466.1,483.48Zm0-6.83c.87,0,1.3-1.08,1.3-3.26V455.3q0-2.73-1.26-2.73c-1,0-1.43.93-1.43,2.8v18.06a6.74,6.74,0,0,0,.32,2.48A1.12,1.12,0,0,0,466.15,476.65Z"/><path class="cls-11" d="M482.29,483.48a5.93,5.93,0,0,1-5.24-2.69c-1.21-1.79-1.81-4.37-1.81-7.76v-17.6c0-3.17.59-5.58,1.79-7.22a6.83,6.83,0,0,1,10.51,0q1.8,2.46,1.8,7.22V473c0,3.39-.61,6-1.81,7.76A6,6,0,0,1,482.29,483.48Zm0-6.83c.86,0,1.3-1.08,1.3-3.26V455.3c0-1.82-.43-2.73-1.27-2.73s-1.43.93-1.43,2.8v18.06a7,7,0,0,0,.32,2.48A1.12,1.12,0,0,0,482.34,476.65Z"/><path class="cls-11" d="M498.44,483.48c-2.61,0-4.5-.85-5.65-2.53s-1.73-4.37-1.73-8v-3.63h5.65v4.64a5.23,5.23,0,0,0,.31,2,1,1,0,0,0,1,.72,1.09,1.09,0,0,0,1.08-.59,4.51,4.51,0,0,0,.3-1.93,12.85,12.85,0,0,0-.26-2.86,7.15,7.15,0,0,0-.9-2.19,24.11,24.11,0,0,0-1.78-2.43l-2.56-3.16a12.32,12.32,0,0,1-2.88-8c0-3.16.57-5.56,1.7-7.22a5.58,5.58,0,0,1,4.91-2.49q3.93,0,5.58,2.72t1.65,8.26h-5.81v-2.55a1.8,1.8,0,0,0-.34-1.18,1.08,1.08,0,0,0-.9-.42,1.1,1.1,0,0,0-1,.49,2.36,2.36,0,0,0-.31,1.28,4.91,4.91,0,0,0,.32,1.68,7.75,7.75,0,0,0,1.28,2.08l3.3,4.11a22.55,22.55,0,0,1,1.82,2.58,12.32,12.32,0,0,1,1.33,3.16,16.29,16.29,0,0,1,.51,4.39,18.5,18.5,0,0,1-1.49,8.18A5.3,5.3,0,0,1,498.44,483.48Z"/><path class="cls-11" d="M507,483.14V446.08h11.44v7.16h-5.62v7.22h5.39v7h-5.39v8.49h6v7.22Z"/><path class="cls-11" d="M527.71,483.14l2.77-37.06h9.7l2.71,37.06h-5.41l-.41-6h-3.44l-.36,6Zm6.32-11.9h2.6l-1.25-18.84h-.26Z"/><path class="cls-11" d="M552.44,483.14V446.08h5.72v30.74H564v6.32Z"/><path class="cls-11" d="M565.41,483.14V446.08h5.52v37.06Z"/><path class="cls-11" d="M573.21,483.14V446.08h11.43v7.22H579v5.9h5.39v7.14H579v16.8Z"/><path class="cls-11" d="M586.48,483.14V446.08h11.44v7.16H592.3v7.22h5.39v7H592.3v8.49h6v7.22Z"/><path class="cls-11" d="M600.94,473.05l-1.14-27h5.82l-1.14,27Zm-1.14,10.07v-6.28h5.82v6.28Z"/><path class="cls-3" d="M448.85,377.81V340.76h7.75a5.22,5.22,0,0,1,4.54,2c.95,1.32,1.42,3.48,1.42,6.5v1.62a10.52,10.52,0,0,1-.72,4.23,3.69,3.69,0,0,1-2.2,2.13,4,4,0,0,1,2.59,3,21,21,0,0,1,.66,5.67,34.23,34.23,0,0,1-.52,6.3,8.49,8.49,0,0,1-1.89,4.19,5,5,0,0,1-3.88,1.49Zm5.59-23.09h1.17a1,1,0,0,0,1-.8,7.21,7.21,0,0,0,.23-1.92v-3.73c0-1.19-.41-1.79-1.22-1.79h-1.2Zm.57,16.57c1.48,0,2.22-.92,2.22-2.74v-4.63a7,7,0,0,0-.36-2.5,1.36,1.36,0,0,0-1.37-.91h-1.06v10.73A5.07,5.07,0,0,0,455,371.29Z"/><path class="cls-3" d="M464.77,377.81V340.76h11.44v7.16h-5.62v7.22H476v7h-5.39v8.48h6v7.22Z"/><path class="cls-3" d="M480.71,377.81l-3.07-37.05h5.59l1.58,23.39,1.6-23.39h5.33l1.53,23.39,1.53-23.39h5.65l-3.12,37.05h-6.85L489.05,360l-1.37,17.83Z"/><path class="cls-3" d="M500.92,377.81l2.76-37.05h9.7l2.72,37.05h-5.41l-.41-6h-3.44l-.36,6Zm6.32-11.89h2.6l-1.25-18.85h-.26Z"/><path class="cls-3" d="M517.85,377.81V340.76h8.78a4.15,4.15,0,0,1,3.31,1.29,7.14,7.14,0,0,1,1.5,3.62,33.65,33.65,0,0,1,.38,5.47,15.89,15.89,0,0,1-.59,4.84,3.85,3.85,0,0,1-2.23,2.5,2.7,2.7,0,0,1,1.89,1.74,9.94,9.94,0,0,1,.54,3.57v14H525.8v-14.5q0-1.62-.51-2a2.79,2.79,0,0,0-1.65-.39v16.9Zm5.82-23.33h1.38c.79,0,1.19-1.11,1.19-3.34a9.86,9.86,0,0,0-.26-2.85,1,1,0,0,0-1-.67h-1.33Z"/><path class="cls-3" d="M533.71,377.81V340.76h11.44v7.16h-5.62v7.22h5.39v7h-5.39v8.48h6v7.22Z"/><path class="cls-3" d="M548.17,367.73l-1.14-27h5.82l-1.14,27ZM547,377.79v-6.27h5.82v6.27Z"/><path class="cls-3" d="M448.85,429.56V392.5h8.71l2.4,22.59,2.39-22.59h8.79v37.06h-5.23v-26.7l-3.28,26.7h-5.14L454,402.86v26.7Z"/><path class="cls-3" d="M473.42,429.56V392.5h5.52v37.06Z"/><path class="cls-3" d="M488,429.9c-2.61,0-4.5-.85-5.65-2.53s-1.73-4.37-1.73-8V415.7h5.65v4.64a5.45,5.45,0,0,0,.3,2,1.07,1.07,0,0,0,1.05.72,1.09,1.09,0,0,0,1.08-.59,4.51,4.51,0,0,0,.3-1.93,12.85,12.85,0,0,0-.26-2.86,7.15,7.15,0,0,0-.9-2.19,24.11,24.11,0,0,0-1.78-2.43l-2.56-3.16a12.32,12.32,0,0,1-2.88-8c0-3.16.57-5.56,1.7-7.22a5.58,5.58,0,0,1,4.91-2.49q3.93,0,5.58,2.72t1.65,8.26h-5.81v-2.55a1.86,1.86,0,0,0-.34-1.18,1.08,1.08,0,0,0-.9-.42,1.1,1.1,0,0,0-1,.49,2.36,2.36,0,0,0-.31,1.28,4.91,4.91,0,0,0,.32,1.68,7.5,7.5,0,0,0,1.28,2.08l3.3,4.11a22.55,22.55,0,0,1,1.82,2.58,12.32,12.32,0,0,1,1.33,3.16,16.29,16.29,0,0,1,.51,4.39,18.5,18.5,0,0,1-1.49,8.18A5.31,5.31,0,0,1,488,429.9Z"/><path class="cls-3" d="M503.36,429.9c-2.61,0-4.49-.85-5.65-2.53s-1.73-4.37-1.73-8V415.7h5.66v4.64a5.45,5.45,0,0,0,.3,2,1.06,1.06,0,0,0,1.05.72,1.09,1.09,0,0,0,1.08-.59,4.51,4.51,0,0,0,.3-1.93,13.48,13.48,0,0,0-.26-2.86,7.68,7.68,0,0,0-.9-2.19,25.79,25.79,0,0,0-1.78-2.43l-2.57-3.16a12.32,12.32,0,0,1-2.88-8c0-3.16.57-5.56,1.7-7.22a5.58,5.58,0,0,1,4.92-2.49q3.93,0,5.58,2.72t1.65,8.26H504v-2.55a1.86,1.86,0,0,0-.33-1.18,1.12,1.12,0,0,0-.91-.42,1.08,1.08,0,0,0-1,.49,2.27,2.27,0,0,0-.32,1.28,5.17,5.17,0,0,0,.32,1.68,7.57,7.57,0,0,0,1.29,2.08l3.3,4.11a23.87,23.87,0,0,1,1.82,2.58,12.68,12.68,0,0,1,1.33,3.16,16.74,16.74,0,0,1,.5,4.39,18.36,18.36,0,0,1-1.49,8.18A5.3,5.3,0,0,1,503.36,429.9Z"/><path class="cls-3" d="M518.94,429.56l2.76-37.06h9.7l2.72,37.06h-5.41l-.41-6h-3.45l-.35,6Zm6.32-11.9h2.6l-1.25-18.84h-.26Z"/><path class="cls-3" d="M543.67,429.56V392.5h7.86a5.31,5.31,0,0,1,4.65,2.22q1.56,2.22,1.56,6.5v17.35a18.82,18.82,0,0,1-1.42,8.13,5.1,5.1,0,0,1-5,2.86Zm5.75-6.55h1c1.05,0,1.58-.66,1.58-2V401.91a4.84,4.84,0,0,0-.38-2.39,1.86,1.86,0,0,0-1.56-.53h-.63Z"/><path class="cls-3" d="M560.08,429.56V392.5h8.77a4.15,4.15,0,0,1,3.32,1.3,7.31,7.31,0,0,1,1.5,3.62,34.68,34.68,0,0,1,.38,5.46,16.16,16.16,0,0,1-.59,4.84,3.88,3.88,0,0,1-2.24,2.51,2.73,2.73,0,0,1,1.9,1.74,9.94,9.94,0,0,1,.54,3.57v14H568V415.05q0-1.62-.51-2a2.74,2.74,0,0,0-1.65-.39v16.91Zm5.81-23.33h1.39c.79,0,1.18-1.12,1.18-3.35a9.46,9.46,0,0,0-.26-2.84,1,1,0,0,0-1-.67h-1.34Z"/><path class="cls-3" d="M582.76,429.9a5.93,5.93,0,0,1-5.24-2.69c-1.21-1.79-1.81-4.37-1.81-7.76v-17.6q0-4.75,1.79-7.22a6.84,6.84,0,0,1,10.52,0q1.79,2.46,1.79,7.22v17.6c0,3.39-.6,6-1.81,7.76A6,6,0,0,1,582.76,429.9Zm0-6.83c.86,0,1.3-1.08,1.3-3.26V401.72c0-1.82-.42-2.73-1.27-2.73s-1.43.93-1.43,2.8v18.06a6.69,6.69,0,0,0,.33,2.48A1.1,1.1,0,0,0,582.81,423.07Z"/><path class="cls-3" d="M592.12,429.56V392.5h7.55a5.13,5.13,0,0,1,3.76,1.37,7.84,7.84,0,0,1,2,3.9,26.32,26.32,0,0,1,.6,6,29.64,29.64,0,0,1-.5,5.86,7.76,7.76,0,0,1-1.79,3.87,4.83,4.83,0,0,1-3.67,1.36h-2.32v14.68Zm5.62-21.33h.32c1.06,0,1.71-.39,2-1.16a12.2,12.2,0,0,0,.36-3.41,11.81,11.81,0,0,0-.35-3.25,1.54,1.54,0,0,0-1.65-1.15h-.63Z"/><path class="cls-3" d="M617.87,429.56,614.8,392.5h5.59L622,415.89l1.61-23.39h5.33l1.53,23.39L632,392.5h5.65l-3.12,37.06h-6.86l-1.43-17.84-1.36,17.84Z"/><path class="cls-3" d="M638.08,429.56l2.76-37.06h9.7l2.72,37.06h-5.41l-.41-6H644l-.35,6Zm6.32-11.9H647l-1.25-18.84h-.26Z"/><path class="cls-3" d="M657,429.56V399.62h-3.39V392.5h12.51v7.12h-3.4v29.94Z"/><path class="cls-3" d="M667.75,429.56V392.5h11.44v7.16h-5.63v7.22H679v7h-5.4v8.49h6v7.22Z"/><path class="cls-3" d="M681.44,429.56V392.5h8.78a4.12,4.12,0,0,1,3.31,1.3,7.23,7.23,0,0,1,1.51,3.62,34.68,34.68,0,0,1,.38,5.46,15.8,15.8,0,0,1-.6,4.84,3.87,3.87,0,0,1-2.23,2.51,2.7,2.7,0,0,1,1.89,1.74,9.91,9.91,0,0,1,.55,3.57v14h-5.64V415.05q0-1.62-.51-2a2.74,2.74,0,0,0-1.65-.39v16.91Zm5.82-23.33h1.38c.79,0,1.19-1.12,1.19-3.35a9.82,9.82,0,0,0-.26-2.84,1,1,0,0,0-1-.67h-1.33Z"/><path class="cls-3" d="M448.85,481.3V444.25h5.72V475h5.88v6.31Z"/><path class="cls-3" d="M468.9,481.64a5.93,5.93,0,0,1-5.24-2.68q-1.82-2.68-1.81-7.76V453.6c0-3.18.6-5.58,1.79-7.23a6.85,6.85,0,0,1,10.52,0c1.19,1.65,1.79,4.05,1.79,7.23v17.6q0,5.07-1.81,7.76A5.93,5.93,0,0,1,468.9,481.64Zm.05-6.82c.86,0,1.3-1.09,1.3-3.26V453.47c0-1.83-.42-2.74-1.27-2.74s-1.43.94-1.43,2.8V471.6a6.63,6.63,0,0,0,.33,2.47A1.1,1.1,0,0,0,469,474.82Z"/><path class="cls-3" d="M485.08,481.64a5.94,5.94,0,0,1-5.24-2.68Q478,476.28,478,471.2V453.6c0-3.18.6-5.58,1.8-7.23a6.84,6.84,0,0,1,10.51,0c1.19,1.65,1.79,4.05,1.79,7.23v17.6q0,5.07-1.81,7.76A5.93,5.93,0,0,1,485.08,481.64Zm.05-6.82c.87,0,1.3-1.09,1.3-3.26V453.47c0-1.83-.42-2.74-1.27-2.74s-1.43.94-1.43,2.8V471.6a6.63,6.63,0,0,0,.33,2.47A1.1,1.1,0,0,0,485.13,474.82Z"/><path class="cls-3" d="M501.23,481.64q-3.92,0-5.64-2.53c-1.16-1.68-1.73-4.36-1.73-8v-3.62h5.65v4.63a5.38,5.38,0,0,0,.3,2,1.06,1.06,0,0,0,1.05.73,1.11,1.11,0,0,0,1.08-.59,4.56,4.56,0,0,0,.3-1.94,13.38,13.38,0,0,0-.26-2.85,7.19,7.19,0,0,0-.9-2.19,23,23,0,0,0-1.78-2.43l-2.57-3.16a12.33,12.33,0,0,1-2.87-8q0-4.74,1.69-7.23a5.6,5.6,0,0,1,4.92-2.48q3.93,0,5.58,2.72t1.65,8.25h-5.82v-2.55a1.88,1.88,0,0,0-.33-1.18,1.08,1.08,0,0,0-.9-.42,1.1,1.1,0,0,0-1,.5,2.32,2.32,0,0,0-.32,1.27,4.9,4.9,0,0,0,.33,1.68,7.3,7.3,0,0,0,1.28,2.09l3.3,4.11a24.76,24.76,0,0,1,1.82,2.57,12.84,12.84,0,0,1,1.33,3.16,16.79,16.79,0,0,1,.5,4.39,18.51,18.51,0,0,1-1.48,8.18A5.31,5.31,0,0,1,501.23,481.64Z"/><path class="cls-3" d="M509.79,481.3V444.25h11.44v7.16h-5.62v7.22H521v7h-5.39v8.48h6v7.22Z"/><path class="cls-3" d="M530.51,481.3l2.76-37.05H543l2.71,37.05h-5.41l-.4-6h-3.45l-.36,6Zm6.32-11.89h2.6l-1.25-18.85h-.26Z"/><path class="cls-3" d="M555.24,481.3V444.25H561V475h5.88v6.31Z"/><path class="cls-3" d="M568.2,481.3V444.25h5.53V481.3Z"/><path class="cls-3" d="M576,481.3V444.25h11.44v7.22h-5.69v5.89h5.4v7.14h-5.4v16.8Z"/><path class="cls-3" d="M589.27,481.3V444.25h11.44v7.16h-5.62v7.22h5.39v7h-5.39v8.48h6v7.22Z"/><path class="cls-3" d="M603.73,471.22l-1.13-27h5.81l-1.13,27Zm-1.13,10.06V475h5.81v6.27Z"/><rect class="cls-11" x="69" y="122.11" width="975.47" height="1.64"/></svg>
