<svg xmlns="http://www.w3.org/2000/svg" width="1040" height="640" viewBox="0 0 1040 640"><defs><style>.cls-1{fill:#9162af;}.cls-2{fill:#fff;}.cls-3{opacity:0.6;}</style></defs><g id="Layer_2" data-name="Layer 2"><g id="Layer_3" data-name="Layer 3"><rect x="83.35" y="125.58" width="908.7" height="386.51" rx="12"/><rect class="cls-1" x="92.21" y="131.47" width="889.92" height="373.74" rx="12"/><rect x="109.35" y="152.21" width="61.24" height="64.43" rx="12"/><rect class="cls-2" x="112.41" y="156.56" width="56.35" height="56.12" rx="12"/><rect x="170.59" y="223.22" width="33.98" height="35.76" rx="12"/><rect class="cls-2" x="172.29" y="225.63" width="31.27" height="31.14" rx="12"/><path d="M5.58,523.4C-19.06,612,42.75,657.92,95.91,601.72c19.87,74.57,111.11,32,131.8-57.6,11.15-108.71-182-85.95-103.79-156.68C97.32,411.5,45,426,5.58,523.4Z"/><path class="cls-1" d="M26.16,506.38c-24.64,88.59,27.45,122,80.61,65.79,19.86,74.58,87.26,74.23,108-15.41,11.15-108.71-41-121.33-46.41-226.4C118,419,65.56,408.94,26.16,506.38Z"/><g class="cls-3"><path class="cls-2" d="M155.3,558.28c11.7-17.53,25.78-25.31,41.49-21.14s6.1,45.22-2.88,57.24-24.51,20.83-33.28,13.92S143.6,575.8,155.3,558.28Z"/></g><path d="M1039.93,108.52c3.25-91.91-113.55-145.74-174-78.26-60.44-67.42-208.39,7.47-162.44,87.3,62.21,108.07,115.27,48.84,165.33,149.36C912.07,168.69,1017.22,212.61,1039.93,108.52Z"/><path class="cls-1" d="M1025.48,105.61c3.26-91.9-91-111.53-151.5-44C813.54-5.86,708.79,11,712.1,102.92,737.81,211,823.92,210.5,874,311,917.26,212.79,1002.77,209.71,1025.48,105.61Z"/><g class="cls-3"><path class="cls-2" d="M804,86.91c-11.27,19.85-30.1,30.84-56.19,30.64s-27.41-42.34-18.2-56.19,29.89-26.19,46.28-21.63S815.23,67.06,804,86.91Z"/></g></g></g></svg>
