<svg xmlns="http://www.w3.org/2000/svg" width="510.99" height="544.46" viewBox="0 0 510.99 544.46"><defs><style>.cls-1{fill:#657a7f;}.cls-2{fill:#b0c6cc;}.cls-3{fill:#7cb4c1;}.cls-4{fill:#93a1aa;}.cls-5{fill:#678291;}.cls-6{fill:#425b66;}.cls-7{fill:#264854;}.cls-8{fill:#050101;}.cls-9{opacity:0.5;}.cls-10{fill:#8cc9ea;opacity:0.1;}.cls-11{fill:#8ecced;opacity:0.05;}</style></defs><g id="Layer_3" data-name="Layer 3"><path class="cls-1" d="M160.21-5.54s-16.8,75.08-44.73,89.36c0,0-55.39,22.47-67.54,15,0,0-24.08,126.33-46.95,138.06,0,0,20.31,127.21,7.73,152,0,0,88.47,65.67,89.54,96,0,0,124,31.23,129.18,59.58,0,0,19.32-56.24,93.24-42,0,0,71.92-85.56,116.93-55,0,0,20.19-121.48,70.48-123.53,0,0-23.48-79.45,2.9-109.14,0,0-59.87-96.59-35.28-129,0,0-99-18.28-138.81-48.28C336.9,37.49,208.84,43.17,160.21-5.54Z"/><path class="cls-2" d="M113.14,45.19s-5.8,75.16-27.23,93.57c0,0-43.72,31.42-55.88,27.47,0,0,5.19,115.48-12.34,130.59,0,0,44.15,106.79,38.31,131.11,0,0,96.66,46.43,103.89,72.71,0,0,113.35,2.63,123.74,26.29,0,0,13.38-55.13,80.91-58.42,0,0,51-98.65,96.64-81.56,0,0-10.39-116.33,33.12-128.82,0,0-32.47-67.69-15.59-99.24,0,0-78.88-69.67-64.13-103.18,0,0-111.75,12.48-130.95-15.12C283.63,40.59,165.74,77.39,113.14,45.19Z"/><path class="cls-3" d="M71.6,110s16.6,67.58,3.12,90.05c0,0-29.27,40.45-41.07,40.59,0,0,37.87,99.66,26.86,118.09,0,0,69.51,80.53,71.41,103.57,0,0,98.12,12.11,112.05,33,0,0,100.13-31.21,116.07-13.55,0,0-4.18-52.27,54.07-75.11,0,0,16.24-101.53,61.2-100.05,0,0-42.67-98.88-8.13-122.68,0,0-48-49.73-42.29-82.36,0,0-89.25-37.73-86-71.47,0,0-94.36,44-119.16,25.47C219.74,55.58,127,122.69,71.6,110Z"/><path class="cls-4" d="M261.19,75.45s78.09-7.08,127.51,35.66c2.35,2,8.05,1.58,10.74,3.26,8.65,5.4,13.83,11.16,19.33,18.69,14.29,19.57,4.71,16.42,9.38,23.52,14.26,21.63,27.44,47.76,26.11,82.7v.07c.1,3,6.94,221.62-237.93,228.67a.8.8,0,0,1-.31,0c-5.91-1.73-182-54.53-155.7-223.37,0,0,0-.06,0-.09C61.1,241.42,103.34,70.24,261.19,75.45Z"/><path class="cls-5" d="M305.26,80.75S270.51,91,266.62,113.32c0,0-5.2,48,0,59.81,0,0,1.87,35.48-2.31,36.8,0,0-15.06-57.18-17.74-35.49,0,0-17.5-36.15-25.68-21,0,0-28.3,42.06-27,47.32,0,0-38-77.55-36.22-40.75,0,0-48.06-.37-43.91,35.63,0,0-27,49.08-41.29,21.18,0,0-5.2-46.95,83.44-108.07,0,0,53.22-40.52,117.83-32.71Z"/><path class="cls-6" d="M294.54,78.87s-30.35,7.46-33.76,23.75c0,0-4.54,35,0,43.59,0,0,1.64,25.87-2,26.83,0,0-13.16-41.68-15.5-25.87,0,0-15.29-26.35-22.43-15.33,0,0-24.72,30.66-23.59,34.49,0,0-33.22-56.53-31.64-29.7,0,0-42-.27-38.35,26,0,0-23.6,35.77-36.08,15.44,0,0-4.54-34.23,72.89-78.79,0,0,46.49-29.53,102.94-23.84Z"/><path class="cls-7" d="M281.25,78.57c-10.73,2.29-23,5.31-29.19,15.12-1.45,8.76-3.37,18.53-.14,27,.35,4.73,1.81,12.92-1.78,16.54-1.63-3.68-9-22.88-13.29-16.07-4.73-5.54-11.74-13.86-19.41-10.18-6.79,5.67-16.45,12.48-19.85,20.93-4.15-4.72-23.84-32.1-26.37-18.07C153,117.34,128,127.59,124,146.84c-8.26,10.71-12.07,24.12-26.28,16.83-4.58-19.43,58.39-65.9,70.35-72.87,26.38-13.8,60.3-15.16,89.25-13.86Z"/><path d="M147.56,92.23c-.17,6,22.45,4.77,23.59,2.86s20.8-17.38,16.24-20c-1.92-1.1-5.69-1-10.28,1.61-4.17,2.33-8.33,2.92-11,4.73-2,1.39-2.88,1.26-9.34,4.83C152.62,88.57,147.65,89.1,147.56,92.23Z"/><path class="cls-4" d="M147.28,92.39s11.25,21,4.11,25.85c0,0,32.68,2.63,52.16-20.16,0,0-14.21-12.34-15.44-22.49,0,0-7,12.12-15.87,15.63C163.15,94.8,152.9,99.84,147.28,92.39Z"/><path class="cls-5" d="M208.62,464.89s29.67-70.4,31.14-88.8c0,0,8.39,6.13,8.68,13.14,0,0,17.89-32.68,12.41-47.59,0,0,11,10.5,8.95,18.09,0,0,6.35-41.77,7.79-40.89,0,0,5.19,33,15.29,43.23,0,0,14.35-39.44,8.48-64.26,0,0,17.79,11.39,23.56,41.47,0,0,4.33-6.83,4.62-13,0,0,5.77,28.24,36.65,40.51,0,0,15-13.43,14.56-21,0,0,12.28,19.12,17.33,23.44,0,0,19.19-15.84,18-31.62,0,0,6.58,12.68,12.93,10.93,0,0-31,61.77-79.37,86C349.67,434.47,244.6,480.44,208.62,464.89Z"/><path class="cls-6" d="M227.07,468s26.67-59.58,27.9-73.16c0,0,7,4.53,7.21,9.7,0,0,14.86-24.11,10.3-35.11,0,0,9.11,7.75,7.43,13.35,0,0,5.27-30.81,6.47-30.16,0,0,4.32,24.34,12.7,31.88,0,0,11.92-29.08,7-47.39,0,0,14.77,8.4,19.57,30.59,0,0,3.59-5.05,3.83-9.63,0,0,4.79,20.83,30.44,29.88,0,0,12.44-9.91,12.09-15.51,0,0,10.19,14.1,14.39,17.28,0,0,15.93-11.68,15-23.31,0,0,5.84,10.27,11.11,9,0,0-26.09,44.64-66.29,62.52C346.24,437.94,260.45,469.72,227.07,468Z"/><path class="cls-7" d="M249,465.69s21.29-45.51,22.18-55.79c0,0,5,3.43,5.2,7.34,0,0,10.73-18.25,7.45-26.58,0,0,6.57,5.87,5.36,10.11,0,0,3.81-23.32,4.67-22.84,0,0,3.12,18.43,9.17,24.14,0,0,8.61-22,5.08-35.88,0,0,10.67,6.36,14.13,23.16,0,0,2.6-3.82,2.77-7.29,0,0,3.46,15.77,22,22.62,0,0,9-7.5,8.73-11.74,0,0,7.36,10.68,10.39,13.08,0,0,11.51-8.84,10.81-17.65,0,0,9.89,14.17,13.7,13.19,0,0-24.51,27.4-53.54,40.94C337.1,442.5,279.32,463.94,249,465.69Z"/><path class="cls-5" d="M415.06,274.77c-2.46-6.24-4.56-10.43-16.93-20.67.26,14.85-2.55,29.07-4.43,43.71-3.59-13.94-7.25-26.56-12.92-39.73-11.29,17.79-21.48,19.66-37.06,31.47,2.13-13.56,17.53-23.93,20.77-48.2-9.74,2.06-26.47,2.14-36.64,1.32,9.62-8.14,16.47-17.12,24.24-26.91-11.31-7.52-18.83-6.09-31.46-22.59a3.8,3.8,0,0,1,3.82-6c9.18,2.15,18.92,5,27.63,5.3a80.27,80.27,0,0,0-12.46-16.51c-3.3-3.53.58-9.1,5-7.14,5.56,2.48,11.17,5,17.25,8.08-3.84-13.32-8.66-13.94-13-31.76,8.46,12.48,18.75,16.58,28.58,28,1.47-8.81.81-18.31,4.21-26.52.79,11.51,7.45,24.76,10.11,36,3.1-1.76,5.48-3,7.71-4.52a3.37,3.37,0,0,1,5.25,2.74c.18,5.56.84,9.57-.76,17.09,4.89.87,8.41,1.91,12.31,2.5a4.61,4.61,0,0,1,3.35,6.74c-2.07,3.83-3.35,7.67-6.76,10.52,6.36,6.81,8.08,16.27,12.31,24.2a2.51,2.51,0,0,1-3.52,3.33c-3.74-2.34-7.23-4.82-12.4-5.72,5.55,15.7,8.18,22.72,10.51,33.92A2.47,2.47,0,0,1,415.06,274.77Z"/><path class="cls-6" d="M406.86,254.88c-1.71-4.34-3.17-7.26-11.79-14.39.18,10.34-1.77,20.24-3.08,30.43a182.68,182.68,0,0,0-9-27.66c-7.86,12.39-15,13.69-25.8,21.91,1.48-9.44,12.2-16.66,14.45-33.56-6.77,1.44-18.42,1.49-25.5.92,6.69-5.66,11.46-11.91,16.87-18.73-7.87-5.24-13.11-4.24-21.9-15.73a2.64,2.64,0,0,1,2.66-4.2c6.39,1.5,13.17,3.47,19.24,3.69a56.2,56.2,0,0,0-8.68-11.5,3.1,3.1,0,0,1,3.47-5c3.87,1.73,7.78,3.46,12,5.63-2.68-9.28-6-9.71-9.05-22.11,5.89,8.68,13.06,11.54,19.9,19.48,1-6.14.56-12.75,2.93-18.47.55,8,5.19,17.24,7,25,2.16-1.22,3.81-2.07,5.36-3.14a2.35,2.35,0,0,1,3.66,1.9c.13,3.88.59,6.66-.53,11.91,3.41.6,5.86,1.32,8.58,1.73a3.21,3.21,0,0,1,2.33,4.7c-1.45,2.66-2.34,5.33-4.71,7.32,4.43,4.74,5.62,11.32,8.57,16.84a1.75,1.75,0,0,1-2.45,2.33c-2.6-1.64-5-3.36-8.63-4,3.86,10.93,5.69,15.82,7.31,23.62A1.71,1.71,0,0,1,406.86,254.88Z"/><path class="cls-7" d="M404.93,248.75c-1.46-3.74-2.67-6.26-9.55-12.58.46,8.78-.75,17.11-1.44,25.71a177.53,177.53,0,0,0-7.8-23.73c-5.69,10.25-11.13,11.13-19.25,17.76.85-8,8.91-13.74,10.14-28-5.19,1-14.19.69-19.67,0,5-4.59,8.49-9.74,12.46-15.35-6.24-4.69-10.26-4-17.4-14-1.22-1.71.06-4,1.93-3.48,5,1.47,10.27,3.35,15,3.73a52.59,52.59,0,0,0-7.05-10c-1.85-2.15.12-5.36,2.53-4.1,3,1.58,6.11,3.17,9.44,5.15-2.34-8-5-8.43-7.66-19,4.82,7.55,10.44,10.2,16,17.14.6-5.17,0-10.79,1.69-15.56.68,6.81,4.54,14.78,6.2,21.45a45,45,0,0,0,4.05-2.5c1.15-.84,2.78.15,2.88,1.74.22,3.28.66,5.66,0,10.07,2.65.62,4.56,1.31,6.68,1.74a3,3,0,0,1,1.94,4.06c-1,2.21-1.64,4.45-3.41,6.06,3.56,4.15,4.69,9.78,7.13,14.55.7,1.37-.63,2.74-1.82,1.89-2.06-1.46-4-3-6.79-3.64,3.32,9.39,4.88,13.59,6.37,20.25A1.3,1.3,0,1,1,404.93,248.75Z"/><path class="cls-5" d="M394.31,242.22c-.29-2.74-.54-7.62,1.17-9.59a32.49,32.49,0,0,0,5.41-6.24c1.71-2.48,1.5-3.4,2.34-6.62,1-4.07-.19-10.08-1.78-15-2-6-9.13-9.9-16.05-9.33,0,0-4.36-.17-10.18-7a1.07,1.07,0,0,0-1.8.25c-1.95,4.29-6.68,17-1.62,30.08,0,0,8.42,17.66,21,24.47A1,1,0,0,0,394.31,242.22Z"/><path d="M401.29,208.75c1.14,5.43,2.64,15.12-3.48,18.11s-11.61-6.61-12.67-12.59-4.84-14.74,2.65-16.48S400.14,203.32,401.29,208.75Z"/><path d="M153.64,327.29c.94.74,3.79,3.84,4.5,3.9a3.07,3.07,0,0,1,1.69.93c3.55,3.35,6.74,8.28,4.46,9.49,0,0-4.8,5.37-9.95-3.82l-1-1.59C150.21,332.25,150.11,324.49,153.64,327.29Z"/><path d="M110.47,340.88c3.9,1.7,8,6.62-.47,20a7.35,7.35,0,0,0,2.26,10.17c2.31,1.4,6,2.34,11.72,2.06a3.33,3.33,0,0,1,3.38,2.54c.87,3.52,2,10.71,1.65,23.22a.63.63,0,0,0,.26.54c1.8,1.36,12.36,8.69,19-.45a.65.65,0,0,1,1-.11c2.09,2.05,8.54,10.28,14.71,1.15a13.25,13.25,0,0,0,1.38-2.27c-.18-.49.13-.52.12-1.7a.68.68,0,0,1,1.25-.39c1.4,2.21,3.17,5,3.22,5,1.3.79,12.47,6.35,15.1-5a.64.64,0,0,1,1.2-.17c2.05,3.86,7.63,11.74,15.54,2.19a4.13,4.13,0,0,0,.67-4.08,80.7,80.7,0,0,1-4.37-16,.29.29,0,0,0,0-.09c-.31-.86-5.19-14.76,3.48-11.64,0,0,19.74,6.95,13.08-7.41a.62.62,0,0,0-.26-.27c-1.26-.7-9.27-5.57-7.31-15.27a.66.66,0,0,0-.25-.67c-1.56-1.12-7.9-5.47-6.12-.33,2,5.84,4.61,14.31,8.08,17.23,0,0,8.62,9-5.12,4.12l-.15,0c-1.06-.05-13.57-.36-8.88,10.22,0,0,10.3,26.16,1.55,24.62-.22,0-3.45,1.83-9.54-6a.52.52,0,0,0-.9.12c-2.74,6.95-15,14.31-18.81-.1,0,0-1.28-2.75-3-2.3a1.73,1.73,0,0,0-1,2.35c1,2.37,2.5,8.09-5.14,9.07h-.18c-.8-.14-7-1.48-9.37-9a.65.65,0,0,0-1.25,0c-1.15,3.66-4.31,9.52-12.58,7.47a.62.62,0,0,1-.35-.22c-.42-.54-1.4-2.5-1.68-9.29a.33.33,0,0,1,0-.1c.15-.89,2.38-14.44-1.6-18.91,0,0-.75-3.26-5.13-2.85l-.11,0c-1,.31-19.13,5.52-9.93-12a.35.35,0,0,1,0-.08c.38-.54,5.55-8.12,1.76-15.41a.45.45,0,0,0-.15-.19,19.26,19.26,0,0,0-5.48-3.47C109.45,336.43,108.22,339.9,110.47,340.88Z"/><path d="M211.05,267.72s20.73-1.09,21,26a1.23,1.23,0,0,1,0,.2c-.11.57-.5,3.79,2.62,11.08,0,0,10.15,20.56-18.12,19.5h-.12c-3.95-.12-45.5,6.84-37.56-28.23,0-.15.73-5.63,4.5-9a11.26,11.26,0,0,0,2.8-4C188.18,278.18,194.48,267.55,211.05,267.72Z"/><path d="M116.54,269.73c10.84,11.48,26.45,22.87,5.36,44.33a8.93,8.93,0,0,1-6.19,2.71c-10.5.19-39.71-2.15-25.82-36a9.94,9.94,0,0,1,2.5-3.6,100.34,100.34,0,0,1,12-8.95A9.86,9.86,0,0,1,116.54,269.73Z"/><path class="cls-8" d="M133.78,417.57s3.9,16.43,8.45,18c0,0,20.34-3.72,29.65-2,0,0,22.51,2.63,26.4-2.85,0,0,3.68-14.46,0-16.65,0,0-5.62-4.82-9.09-2.41,0,0-3,4.82-2.16,7.45,0,0,.68-9-9.19-8.12,0,0-8.44-.86-11,7.68,0,0,.7-11.77-8-7.75,0,0-3.46-.79-5.41,7.75,0,0-.43-12.13-11.47-8.58C142,410.08,132.78,413.86,133.78,417.57Z"/><path class="cls-5" d="M135.62,418.77s3.7,13.89,7.8,14.9c0,0,19.65-3.34,28-2.19,0,0,22,2.28,25.54-1.32,0,0,3.85-12.58.54-14,0,0-4.68-4.32-7.79-2.74,0,0-3.2,4.61-2.42,6.33a10.79,10.79,0,0,0-11.22-7.42s-6.47,1.56-7.69,7.26c-.18.87-1.65.39-1.86-.48-.55-2.32-3.19-7.93-7.87-6.34a8.15,8.15,0,0,0-4.34,6.66c-.06.56-1.61.78-1.72.24-.49-2.4-2.66-9.18-9.1-7.67C143.52,412,134.72,416.34,135.62,418.77Z"/><path d="M140,328.77c-.78.9-2.65,4.31-3.54,4.61a3.34,3.34,0,0,0-1.65,1.32c-2.63,3.84-3.88,8.77-.22,8.89,0,0,9.33,2.43,10.63-6.48,0,0,.34-1.56.35-1.58C147.32,331.37,142.93,325.35,140,328.77Z"/><path d="M233.68,251.42a.83.83,0,0,1,.72.89c-.1,3.14-2.14,18.54,8.5,20.89,0,0,5.17-.13,5.06,18.62a8.14,8.14,0,0,0,.67,2.3c.82.79,2.83,2.78,2.68,3.18,0,0-6,1.61-6.39-12.78a8.24,8.24,0,0,1,.28-2.1c.48-1.52.71-4.87-1.46-6.16,0,0-12.34-1.31-11.69-16.65C232.05,259.61,231.52,251.33,233.68,251.42Z"/><path d="M78.89,251.61a.65.65,0,0,0-.46.8c.73,2.09,3.92,12.52-5,17,0,0-2.84.7,1.1,13.28a5.12,5.12,0,0,1-.12,1.74c-.57.76-1.95,2.65-1.73,2.88,0,0,5.62-.57,3-10.37a4,4,0,0,0-.67-1.33c-.06-.08-.13-.16-.19-.25a3.38,3.38,0,0,1,1.25-4.8c2.58-1.39,6.72-4.82,5.93-13.93C82,256.68,80.79,251,78.89,251.61Z"/><g class="cls-9"><path d="M156.17,115.69a260.84,260.84,0,0,1,58.11-1.57,319.25,319.25,0,0,1,41.52,6.22l5.39-46.88c-56.21-1.85-97.76,18.66-128,46C140.85,118.2,148.48,116.79,156.17,115.69Z"/><path d="M311.2,136.89c28.29,10.69,55.86,23.75,80.72,41.23,23.33,16.4,43.6,36.21,62.38,57.59.87-34.14-12.1-59.81-26.15-81.12-4.67-7.1,4.91-4-9.38-23.52-5.5-7.53-10.68-13.29-19.33-18.69-2.69-1.68-8.39-1.22-10.74-3.26C339.28,66.38,261.19,73.46,261.19,73.46l-5.36,46.88A390.13,390.13,0,0,1,311.2,136.89Z"/><path d="M166.14,79.43c-2,1.39-2.88,1.26-9.34,4.84-4.18,2.31-9.15,2.85-9.24,6-.17,6,22.45,4.77,23.59,2.86s20.8-17.38,16.24-20"/><path d="M151.39,116.25s.29,0,.84,0c1.31-.21,2.62-.42,3.94-.61q8.93-1.27,17.87-1.88c9.78-2.57,20.93-7.67,29.51-17.71,0,0-14.21-12.34-15.44-22.49,0,0-7,12.11-15.87,15.62-9.09,3.58-19.34,8.62-25,1.17C147.28,90.4,158.53,111.43,151.39,116.25Z"/></g><g class="cls-9"><path d="M142.83,123.15c20,.69,39.72,2.28,59.3,6.51a264.34,264.34,0,0,1,50.51,16.58L261,73.39c-58.59-1.94-101.25,20.43-131.78,49.48C133.8,122.89,138.33,123,142.83,123.15Z"/><path d="M379.56,235.19c23.12,21.61,44.31,45.39,65.22,69.21,10.26-37,9.35-66,9.32-67.11a.08.08,0,0,1,0-.07c1.32-34.94-11.85-61.07-26.11-82.71-4.68-7.09,4.91-3.94-9.38-23.51-5.5-7.53-10.68-13.29-19.34-18.69-2.68-1.68-8.38-1.22-10.74-3.26C339.12,66.31,261,73.39,261,73.39l-8.33,72.88C299.94,167,342.13,200.19,379.56,235.19Z"/><path d="M166,79.36c-2,1.39-2.88,1.25-9.34,4.83-4.18,2.32-9.15,2.85-9.24,6-.17,6,22.44,4.77,23.59,2.85s20.8-17.37,16.24-20"/><path d="M188,73.53s-7,12.12-15.87,15.63c-9.09,3.58-19.34,8.62-25,1.17,0,0,11.26,21,4.11,25.85,0,0,32.69,2.63,52.17-20.16,0,0-14.21-12.34-15.44-22.49"/></g><path class="cls-10" d="M276.52,384.72c-31.72-16.21-62.07-34.56-90.07-56.78-45.21-35.88-84.19-82.29-106.86-136-13.6,27.59-19,49.29-19.22,50.39,0,0,0,.06,0,.09C33.73,412.92,211.65,466.25,217.62,468a.8.8,0,0,0,.31,0c65.27-1.87,112.83-18.63,147.49-42.34C335.21,413.39,305.57,399.57,276.52,384.72Z"/><path class="cls-11" d="M239.37,293.94c-46.58-17.11-132.86-140.46-133.65-141.4-33.34,44.12-45,91.3-45.38,92.92,0,0,0,.06,0,.09C34,414.39,210.11,467.2,216,468.92a1.06,1.06,0,0,0,.31,0c133.5-3.85,192.18-70.57,217.93-131C422.44,338.92,370.13,333.36,239.37,293.94Z"/></g></svg>
