<svg xmlns="http://www.w3.org/2000/svg" width="1087.36" height="593.38" viewBox="0 0 1087.36 593.38"><defs><style>.cls-1{opacity:0.6;}.cls-2{fill:#6cd362;}.cls-3{fill:#020202;}</style></defs><g id="Layer_3" data-name="Layer 3"><rect class="cls-1" x="57.97" y="134.39" width="899.82" height="432.28" rx="26.41"/><path class="cls-2" d="M658.59,322.22h11.75q-2.58-28.07-5.2-69.38Q659.92,300.29,658.59,322.22Z"/><path class="cls-2" d="M384.72,322.22h11.76q-2.6-28.07-5.2-69.38Q386.06,300.29,384.72,322.22Z"/><path class="cls-2" d="M239,244.27v42c1,.07,1.81.1,2.51.1q4.71,0,6.54-2.91t1.82-12.09V257.84q0-8.47-2.11-11T239,244.27Z"/><path class="cls-2" d="M961.19,71.93H114.32A26.37,26.37,0,0,0,87.85,98.19V478a26.37,26.37,0,0,0,26.47,26.26H446.15V468.53a19.12,19.12,0,0,1-3.22,2.13c-5.29,2.82-13.77,3.47-17.26,3.15-.48,0-1.15-.44-.61-1.53,4.1-8.22,13.77-11.54,17.55-12.21a15,15,0,0,0,3.54-1.24V425.75a32.62,32.62,0,0,1-5.1.67c-9.72.55-22.65-4.24-27.57-7.09-.68-.39-1.38-1.43.17-2.66,10.73-8.53,25.47-7.83,32.5-6.44V321.41L422.14,216h31.38q7.35,48.38,8.29,65.1,2.83-26.43,9.51-65.1H502.7L477.79,321.41V429.52c.29.08.58.16.86.21,4.05.71,14.39,4.27,18.78,13.07.58,1.17-.13,1.59-.65,1.64-3.74.34-12.82-.36-18.48-3.38l-.51-.29v63.44h483.4A26.38,26.38,0,0,0,987.67,478V98.19A26.38,26.38,0,0,0,961.19,71.93ZM278.39,276.61q0,15.83-2.59,23.06a20.28,20.28,0,0,1-9.53,11.13q-6.94,3.87-18.13,3.87H239V381.2H204.82V216h34.39q13.95,0,21.46,2.76t11.28,8a30.53,30.53,0,0,1,5.11,12.6q1.33,7.4,1.33,22.91ZM343.13,381.2H288.21V216h34.15V348.14h20.77Zm91,0H399.2l-1.83-29.69H385.16L383.1,381.2H347.79L365.22,216h49.36ZM616.19,276.82H582v-15q0-14.19-1-17.75a4.38,4.38,0,0,0-4.62-3.58,4.25,4.25,0,0,0-4.3,3.06c-.76,2-1.14,7.28-1.14,15.72v79.28q0,11.11,1.14,14.64a4.46,4.46,0,0,0,4.54,3.52q3.74,0,5.07-4t1.34-15.51V317.63h-6.9v-25.1h40V381.2H594.72l-3.16-11.84q-3.48,7.67-8.8,11.48a20.93,20.93,0,0,1-12.54,3.83,27.56,27.56,0,0,1-16.12-5.26,34.8,34.8,0,0,1-11.41-13,48,48,0,0,1-4.87-16.27,245.39,245.39,0,0,1-1-25.56V275.49q0-23.67,2-34.38t11.64-19.65q9.62-8.93,24.86-8.92,15,0,24.91,7.75t12.89,18.42q3,10.66,3,31ZM673.07,381.2l-1.83-29.69H659l-2,29.69H621.66L639.08,216h49.36L708,381.2Zm146.08,0H789.3l0-111.52L777.37,381.2H756.2l-12.53-109,0,109H713.77V216H758q2,14.91,4,35.12l4.85,42L774.72,216h44.43Zm72.93,0H832.86V216h56.95v33.06H867v31.33h21.34v31.43H867v36.32h25.07Z"/><path class="cls-3" d="M109.28,475.91c-1.12-3.71-1.68-5.76-4.79-3.4a56.79,56.79,0,0,1-21.89,9.92c-12.2,2.8-41.85,16.11-51.76,43.31-1.32,3.62,1.05,4.78,2.66,4.85,11.68.44,39.39-3.1,55.61-13.08,10.08-6.2,19.31-12.5,20.08-23.51a26,26,0,0,1,1.36-5.29l5.52-11.51c.75-1.31-1.55-1.6-2-3Z"/><path class="cls-2" d="M116.07,472.8a5,5,0,0,0-7.79-2.52c-5.62,4.28-14.41,10.24-21.75,11.94-10.86,2.51-37.94,13.57-46.79,37.92-1.17,3.24.94,4.28,2.37,4.33,10.39.39,35.05-2.79,49.49-11.74,9-5.55,16.27-13,17-22.86a4.81,4.81,0,0,1,.64-2.08l6.42-11.14a4.89,4.89,0,0,0,.45-3.85Z"/><path d="M109.43,478.42c-.54-.15-16.15,9-31.45,18.45-14.2,8.75-25.43,18.07-26.81,20"/><path class="cls-3" d="M114.51,485.35c-3.47-2.85-5.34-4.46-6.58,0a69.77,69.77,0,0,1-13.19,25.24c-9.16,11.39-27.11,45.44-18,79.13,1.21,4.48,4.13,3.93,5.63,2.85,10.84-7.84,33.52-30.94,41.55-52.22,5-13.21,9.15-25.93,2.53-37.26a34.93,34.93,0,0,1-2.29-6.15l-2.65-15.2c-.19-1.81-2.46-.47-3.81-1.57Z"/><path class="cls-2" d="M118.58,477.48a5.42,5.42,0,0,0-8.71,3.06c-2.23,8.17-6.22,20.24-11.72,27.11C90,517.81,72.88,547.84,81.06,578c1.09,4,3.68,3.53,5,2.56,9.64-7,29.8-27.57,36.91-46.57,4.41-11.81,6.06-24.28.14-34.42a6.23,6.23,0,0,1-.8-2.5l-1.6-15.47a6.09,6.09,0,0,0-2.15-4.09Z"/><path d="M116.31,487.69c-.59.24-8.6,20.29-16.16,40.37-7,18.64-11,35.73-10.94,38.6"/><path class="cls-3" d="M111.61,462.75c-.32-3.72-.43-5.76-5-4.95a93.08,93.08,0,0,1-30.41-.21c-16.15-2.51-57.29-2.91-77.66,17-2.71,2.65-.06,4.64,2,5.35,14.55,5.16,50.41,13.36,73.71,11.2,14.47-1.35,27.91-3.12,32.07-12.49a19.43,19.43,0,0,1,3.24-4.1l10.29-7.88c1.33-.84-1.48-2-1.6-3.48Z"/><path class="cls-2" d="M121.06,462.78c-.28-3.32-5-6.12-9.08-5.4-8.3,1.48-21.08,3.13-30.81,1.63-14.38-2.22-51.64-3.55-69.83,14.27-2.42,2.37-.07,4.15,1.72,4.78,13,4.59,44.87,11.85,65.63,9.87,12.9-1.22,24.23-4.8,28-13.19a3.71,3.71,0,0,1,1.41-1.57L119.37,466a3.38,3.38,0,0,0,1.69-3.2Z"/><path d="M111.07,465c-.64-.35-22.92,1.35-44.9,3.4-20.4,1.9-37.22,5.52-39.52,6.66"/><path class="cls-3" d="M953.16,91.76c-3.25-4.54-5.09-7,.35-8.39a81.7,81.7,0,0,0,30.73-15.79c14-11.22,55.45-32.73,95.29-19.76,5.3,1.72,4.52,5.42,3.16,7.28-9.84,13.51-38.42,41.49-64.19,50.86-16,5.82-31.37,10.61-44.61,1.72a39.71,39.71,0,0,0-7.24-3.16l-18-4c-2.15-.3-.45-3.14-1.71-4.9Z"/><path class="cls-2" d="M943.59,96.63a7.07,7.07,0,0,1,4-11c9.86-2.51,24.46-7.11,32.9-13.84,12.48-10,49.1-30.58,84.73-18.94,4.73,1.54,4,4.84,2.84,6.49-8.76,12-34.24,36.88-57.25,45.18-14.29,5.15-29.26,6.74-41.11-1.21a7.09,7.09,0,0,0-3-1.13l-18.4-2.66a7.17,7.17,0,0,1-4.79-2.9Z"/><path d="M955.88,94.14c.32-.74,24.61-10.14,48.92-19,22.58-8.2,43.16-12.56,46.59-12.39"/><path class="cls-3" d="M947.61,95.71c-4.87-2.78-7.57-4.23-3.22-7.77a80.71,80.71,0,0,0,21.28-27.07c8-16,36.6-52.71,78.26-57.42,5.54-.63,6.39,3.05,5.94,5.31-3.25,16.34-17.45,53.61-36.91,72.79-12.1,11.92-24,22.64-39.82,20a39.44,39.44,0,0,0-7.91.12l-18.07,3.84c-2.09.61-1.74-2.68-3.63-3.75Z"/><path class="cls-2" d="M941,104.11a7.07,7.07,0,0,1-1-11.66c7.9-6.37,19.23-16.58,24.06-26.2,7.15-14.23,31.74-48.13,69-52.31,5-.55,5.72,2.72,5.32,4.73-2.9,14.54-15.59,47.69-33,64.76-10.81,10.6-23.75,18.24-37.86,15.93a7,7,0,0,0-3.15.19l-17.85,5.21a7.22,7.22,0,0,1-5.57-.65Z"/><path d="M951.09,96.75c0-.8,18.09-19.4,36.46-37.49,17.06-16.8,33.93-29.28,37.11-30.55"/><path class="cls-3" d="M954,102.25c-.5-5.55-.85-8.58,4.57-7.07a82.08,82.08,0,0,0,34.56,1.71c17.79-2.69,64.52-.56,92.35,30.55,3.7,4.14,1.15,6.94-1,7.87-15.36,6.75-54.26,16.64-81.28,11.86-16.78-3-32.49-6.51-39.41-20.81a39.21,39.21,0,0,0-4.65-6.35l-13.55-12.47c-1.7-1.34,1.21-2.94,1-5.1Z"/><path class="cls-2" d="M943.26,101.68a7.13,7.13,0,0,1,9.06-7.48c9.8,2.75,24.74,6.08,35.45,4.48,15.85-2.37,58-1.88,82.81,26,3.31,3.71,1,6.21-.84,7-13.67,6-48.31,14.74-72.4,10.41-15-2.69-28.7-8.79-34.9-21.58a7,7,0,0,0-2-2.45l-14.55-11.5a7.08,7.08,0,0,1-2.66-4.89Z"/><path d="M955.14,105.67c.65-.48,26.41,3.54,51.89,8.06,23.67,4.2,43.66,10.72,46.54,12.58"/><path class="cls-3" d="M952,110c1.6-5.33,2.4-8.28,6.87-4.89a81.79,81.79,0,0,0,31.48,14.27c17.53,4,60.16,23.14,74.41,62.25,1.9,5.2-1.51,6.87-3.83,7-16.79.64-56.62-4.44-79.94-18.8-14.48-8.91-27.76-18-28.86-33.79a38.91,38.91,0,0,0-1.95-7.6l-7.94-16.55c-1.08-1.88,2.22-2.3,2.84-4.37Z"/><path class="cls-2" d="M942.24,105.5a7.17,7.17,0,0,1,11.21-3.62c8.07,6.15,20.71,14.72,31.26,17.16,15.61,3.61,54.55,19.51,67.26,54.51,1.69,4.66-1.35,6.15-3.41,6.23-14.93.56-50.38-4-71.14-16.88-12.9-8-23.39-18.7-24.38-32.86a7,7,0,0,0-.92-3l-9.23-16a7,7,0,0,1-.65-5.52Z"/><path d="M951.79,113.57c.78-.21,23.21,13,45.21,26.52,20.42,12.58,36.56,26,38.54,28.76"/></g></svg>
