<svg xmlns="http://www.w3.org/2000/svg" width="810" height="690" viewBox="0 0 810 690"><defs><style>.cls-1{fill:#fffdfd;}.cls-2{opacity:0.3;}</style></defs><g id="Layer_3" data-name="Layer 3"><path d="M808.12,272.66c-5.32-18.37-20.34-30.65-48.62-40.17,12.47-35.37-25.43-103.41-28.89-81.17C751.94,14.3,675.59,0,641.2,0c-61.91,0-56.56,77.29-86.49,75.58-38-2.16-78.59,18-85.47,74.37,2-16.45-133.44,48.15-101.8,125.18C331.27,187.07,228.5,271,228.5,271c-48.93-31.84-77-45.4-158.2-1.38C47,282.27,31.9,326.16,34.54,350.8.72,373.08-6.82,411.27,5.65,451.22c26.82,86,43.67-5.57,68.78,92.86-70.17,75.49,91.48,135.5,100.81,119.2,11.52-20.12,56.66,36.42,98,25.24,26.57-1.24,39.26-22.28,58.46-28.89,9.25-3.18,88.15-32.76,63.28-47.46,79.1,46.77,124.63-3.42,160.27-77.72,20.95,1.44,33.74-29.54,46.08-17.2,41.27,41.27,140.35,5.18,136.88-80.48-14.52-74,36.14,10.21,70.42-138.53A50.84,50.84,0,0,0,808.12,272.66Z"/><path class="cls-1" d="M801.84,296.9c0-24.13-22.21-45-54.69-55.41a66.06,66.06,0,0,0-32.34-80.37A114.76,114.76,0,0,0,729,105c0-54.44-35.74-98.57-79.82-98.57C608.6,6.42,575.1,43.83,570,92.25a54.41,54.41,0,0,0-26.78-7.16c-33.87,0-62,32.38-67.49,74.91a52.57,52.57,0,0,0-16.7-2.75c-46.5,0-84.2,62.52-84.2,139.65,0,1.36,0,2.72,0,4.08l-.75-.15a78.06,78.06,0,0,0-143.76-10.36c-18.7-21.06-48.75-34.73-82.65-34.73C91,255.74,45.07,294,45.07,341.15a71.33,71.33,0,0,0,1.41,14.15c-19.52,11.72-33,37-33,66.35,0,40.49,25.75,73.31,57.5,73.31a44.45,44.45,0,0,0,6.13-.42q-.27,3-.27,6a67.92,67.92,0,0,0,13.14,39.75c-11.9,11-19,24.87-19,39.93,0,35.84,40.18,64.89,89.74,64.89a117,117,0,0,0,44-8.33,65.32,65.32,0,0,0,119,8.13c1.7.12,3.41.2,5.15.2a72.27,72.27,0,0,0,65.91-42.63c15.75,14.51,34.46,22.92,54.53,22.92,44.48,0,82.28-41.31,96-98.81,1.82.15,3.67.23,5.52.23,18.49,0,35.45-7.56,48.76-20.17,13.61,12.63,30.84,20.17,49.58,20.17,44,0,79.65-41.55,79.65-92.82a106.72,106.72,0,0,0-4.5-30.82c35.72-11.22,60.32-34.76,60.32-62a45.12,45.12,0,0,0-.85-8.71C795.17,322.36,801.84,310.11,801.84,296.9Z"/><path class="cls-2" d="M351.59,266.91c-22.67-19.4-44.71-19.4-51.47-19.4a78,78,0,0,0-69.73,43c-18.7-21.06-48.75-34.73-82.65-34.73C91,255.74,45.07,294,45.07,341.15a71.33,71.33,0,0,0,1.41,14.15c-19.52,11.72-33,37-33,66.35,0,40.49,25.75,73.31,57.5,73.31a44.45,44.45,0,0,0,6.13-.42q-.27,3-.27,6a67.92,67.92,0,0,0,13.14,39.75c-11.9,11-19,24.87-19,39.93,0,35.84,40.18,64.89,89.74,64.89a117,117,0,0,0,44-8.33,65.36,65.36,0,0,0,80.38,40C230.79,638.31,178.52,463.54,351.59,266.91Z"/><path class="cls-2" d="M297.85,247.55a78.05,78.05,0,0,0-67.46,42.92c-18.7-21.06-48.75-34.73-82.65-34.73C91,255.74,45.07,294,45.07,341.15a71.33,71.33,0,0,0,1.41,14.15c-19.52,11.72-33,37-33,66.35,0,40.49,25.75,73.31,57.5,73.31a44.45,44.45,0,0,0,6.13-.42q-.27,3-.27,6a67.92,67.92,0,0,0,13.14,39.75c-11.9,11-19,24.87-19,39.93,0,31.85,31.74,58.34,73.59,63.84C149.21,600.92,105.15,488.82,297.85,247.55Z"/></g></svg>
