<svg xmlns="http://www.w3.org/2000/svg" width="810" height="400" viewBox="0 0 810 400"><defs><style>.cls-1{fill:#fffdfd;}.cls-2{opacity:0.2;}</style></defs><g id="Layer_3" data-name="Layer 3"><path d="M1,398.39H15.58c5-18.9,16-34.34,30-42.76a72.26,72.26,0,0,1-1.41-14.16c0-47.22,46-85.49,102.79-85.49,33.94,0,64,13.68,82.75,34.76a78.15,78.15,0,0,1,143.92,10.37l.75.15c0-1.36,0-2.72,0-4.09,0-77.19,37.74-139.77,84.3-139.77a52.64,52.64,0,0,1,16.71,2.75c5.5-42.57,33.66-75,67.58-75a54.58,54.58,0,0,1,26.81,7.16c5.07-48.46,38.61-85.9,79.25-85.9,44.13,0,79.91,44.17,79.91,98.66a114.83,114.83,0,0,1-14.22,56.18,66.08,66.08,0,0,1,32.37,80.44c32.52,10.37,54.76,31.31,54.76,55.46,0,13.22-6.68,25.49-18.05,35.58a45.15,45.15,0,0,1,.85,8.72c0,23.62-18.51,44.47-46.73,56.92h11c15.08-5.85,40.1-14.63,59.75-99.87a51,51,0,0,0-.48-25.61c-5.33-18.38-20.37-30.68-48.68-40.21,12.49-35.4-25.45-103.5-28.92-81.24C751.87,14.31,675.43,0,641,0c-62,0-56.62,77.36-86.58,75.65-38-2.16-78.69,18-85.57,74.44,2-16.46-133.59,48.19-101.92,125.3-36.21-88.15-139.1-4.13-139.1-4.13-49-31.87-77.12-45.44-158.38-1.38C46.11,282.53,31,326.46,33.64,351.12,15.54,363.05,5,379.53,1,398.39Z"/><path class="cls-1" d="M18.43,392.43H750c22-12.65,35.8-31,35.8-51.42a45.15,45.15,0,0,0-.85-8.72c11.37-10.09,18-22.35,18-35.58,0-24.15-22.23-45.09-54.75-55.46a66.08,66.08,0,0,0-32.38-80.44,114.72,114.72,0,0,0,14.22-56.18C730.08,50.14,694.31,6,650.17,6,609.54,6,576,43.41,570.92,91.87a54.52,54.52,0,0,0-26.81-7.16c-33.91,0-62.07,32.41-67.57,75a52.65,52.65,0,0,0-16.72-2.75c-46.55,0-84.29,62.58-84.29,139.77,0,1.37,0,2.73,0,4.09l-.75-.15a78.16,78.16,0,0,0-143.93-10.37c-18.72-21.08-48.81-34.76-82.74-34.76-56.77,0-102.8,38.27-102.8,85.49a71.51,71.51,0,0,0,1.42,14.16C34.12,362.76,24,376,18.43,392.43Z"/><rect x="2.47" y="392.43" width="746.38" height="5.97"/><g class="cls-2"><path d="M147,256c28.1,0,53.55,9.38,72.11,24.58,1.76-2,3.53-3.92,5.33-5.85q1.65-1.77,3.32-3.51c-48.93-31.83-77.08-45.36-158.29-1.32C46.11,282.53,31,326.46,33.64,351.12,15.54,363.05,5,379.53,1,398.39H15.58c5-18.9,16-34.34,30-42.76a72.26,72.26,0,0,1-1.41-14.16C44.19,294.25,90.21,256,147,256Z"/><path d="M219.82,279.74c-18.52-15-43.79-24.22-71.67-24.22-56.77,0-102.8,38.27-102.8,85.49a71.51,71.51,0,0,0,1.42,14.16C34.12,362.76,24,376,18.43,392.43H145.22C164.6,351.56,189.33,313.52,219.82,279.74Z"/><path d="M145.22,392.43H2.47v6h140Q143.81,395.41,145.22,392.43Z"/></g><g class="cls-2"><path d="M357.51,276.19c0-.23,0-.47.07-.71-.82-5.74-1.54-11.5-2.08-17.27-42.36-55.78-128.62,14.65-128.62,14.65-49-31.86-77.12-45.44-158.38-1.37-23.34,12.65-38.45,56.57-35.81,81.24C14.59,364.65,4,381.13,0,400H14.63c5-18.91,16-34.34,30-42.77a72.11,72.11,0,0,1-1.41-14.16c0-47.21,46-85.49,102.79-85.49,33.94,0,64,13.68,82.75,34.77a78.12,78.12,0,0,1,128.73-16.16Z"/><path d="M331.48,338.93c4.77-16.64,10.51-33.74,19.38-48.65A109.13,109.13,0,0,1,357,281c.14-1.84.33-3.68.54-5.52-.05-.38-.1-.77-.16-1.15a78.12,78.12,0,0,0-127.48,17.56c-18.72-21.09-48.81-34.76-82.74-34.76-56.77,0-102.8,38.27-102.8,85.48a71.54,71.54,0,0,0,1.42,14.17C33.17,364.37,23.05,377.65,17.48,394H316.3C320.87,375.58,326.2,357.31,331.48,338.93Z"/><path d="M316.3,394H1.52v6H314.85C315.32,398,315.81,396,316.3,394Z"/></g></g></svg>
