<svg id="Layer_1" data-name="Layer 1" xmlns="http://www.w3.org/2000/svg" width="5250" height="670" viewBox="0 0 5250 670"><defs><style>.cls-1{opacity:0.3;}.cls-2{fill:#ebe05c;}.cls-3{fill:#010101;}.cls-4{fill:#030303;}.cls-5{fill:#fff;}.cls-6{fill:#761036;}.cls-7{fill:#b51e5c;}.cls-8{fill:#e41f6f;}.cls-9{fill:#bb962e;}.cls-10{fill:#bcaf34;}</style></defs><g class="cls-1"><path class="cls-2" d="M9.54,400.66c45.72,214.65,287.4,313.43,468.94,250.73S779.74,474.25,743.54,263.13,449.7-47.18,268.71,21.66-36.18,186,9.54,400.66Z"/></g><g class="cls-1"><path class="cls-2" d="M57.89,393.7C101.76,592.52,314.8,688,472.33,633.51S732.43,475.62,697,280.24,434.47-11.34,277.52,48.86,14,194.88,57.89,393.7Z"/></g><g class="cls-1"><path class="cls-2" d="M77.43,392.57c36.71,172.35,230.75,251.66,376.51,201.32S695.82,451.66,666.76,282.16,430.84,33,285.52,88.29,40.72,220.23,77.43,392.57Z"/></g><path class="cls-3" d="M141.87,369.29C174,521.53,347.4,590.84,478.1,545.72S695.24,419,669.93,269.2,459.76,49.89,329.43,99.37,109.72,217.06,141.87,369.29Z"/><path class="cls-2" d="M151.06,369.15c30.11,144.29,197,209,323.44,165.4S684.83,412.93,661.31,271,459.8,64.1,333.72,111.85,121,224.87,151.06,369.15Z"/><path class="cls-3" d="M342.17,315c-7.43-6.21-25-17.32-37.44-14.05,0,0-19.26,12.07-38.74-9.09,0,0-8.59-10.88-34.09-1.7a2.19,2.19,0,0,0,.62,4.24,58.59,58.59,0,0,0,11.65-.63s10.37-5.11,24.88,8.2c0,0,4.28,5.8,17.55,7.77a20,20,0,0,0,7.7-.46c2.24-.54,4.43-2.27,12.12-3.29,1.17-.15,3.24.23,11,1.69,2,.37,2.67,1.09,16.13,6.59,1.35.56,4.68,3.13,6.3,3.79C341.09,318.52,343.19,315.82,342.17,315Z"/><path class="cls-3" d="M334.68,298.21c-6.07-5.24-20.4-14.66-30.45-12,0,0-15.5,9.88-31.46-7.92,0,0-7.06-9.15-27.62-1.73a1.84,1.84,0,0,0,.53,3.54,46,46,0,0,0,9.43-.42s8.36-4.17,20.23,7.06c0,0,3.52,4.87,14.28,6.64a16,16,0,0,0,6.24-.32c1.8-.44,3.57-1.85,9.78-2.63.95-.12,2.63.21,8.93,1.5,1.62.33,2.17.93,13.12,5.64,1.1.47,3.82,2.65,5.14,3.21C333.84,301.16,335.51,298.93,334.68,298.21Z"/><path class="cls-3" d="M315,409.76s24.44,14,32.73,41.76a.44.44,0,0,1-.82.33c-.94-1.85-2.15-4.13-3.49-6.35-2.3-3.81-.8-.6-7.06-10.92,0,0-9.68-16.28-20.81-23.19S315,409.76,315,409.76Z"/><path class="cls-3" d="M185.85,435.21c-1.2-3.57-.66-1.95-.36-11.95,0,0-.81-16,5-26.77"/><path class="cls-3" d="M353.48,330.48c13.8,3.85,18.06,15.2,18,29.61,0,.46-.73.79-.83-.08-.68-5.78-.77-10.17-4-15.73-3.05-5.17-8.88-9.26-13.53-12.7C352.4,331.06,351.52,329.94,353.48,330.48Z"/><path class="cls-3" d="M353.05,388.42c-13.13,10.69-31.28,9.41-51.26,2.87-.63-.21-.68-1,.58-.71,8.42,2,14.56,3.89,24.11,3.45,8.91-.42,17.87-3.82,25.27-6.45C352.87,387.19,354.91,386.91,353.05,388.42Z"/><path class="cls-3" d="M283.69,347.71c3.64-14.42,15.91-20,31.7-21.67.5-.05.9.65-.05.85-6.32,1.36-11.12,2-17.07,5.92-5.55,3.69-9.78,10.06-13.37,15.16C284.36,348.74,283.17,349.75,283.69,347.71Z"/><path class="cls-3" d="M253.08,319c6,13,.06,23.61-11,32.87-.35.29-1.07,0-.47-.68,4-4.26,7.26-7.16,9.39-13.25,2-5.67,1.34-12.76,1-18.54C252,318.51,252.24,317.12,253.08,319Z"/><path class="cls-3" d="M243.76,353.91c-6.9,9.78-18.88,11.56-32.84,9.77-.44-.06-.59-.64.27-.61,5.77.21,10,.67,16.17-1.08,5.72-1.64,11-5.47,15.43-8.5C243.45,353,244.74,352.52,243.76,353.91Z"/><path class="cls-3" d="M183.83,338.29c-8.84-8.06-9.13-20.18-5.62-33.82.11-.43.7-.51.56.34-.91,5.7-1.9,9.89-.92,16.2.92,5.88,4.06,11.62,6.52,16.37C184.74,338.09,185.09,339.43,183.83,338.29Z"/><path class="cls-4" d="M184.66,336.76c-6.82-16.07-9.29-37.84,23.36-43.17a21.76,21.76,0,0,1,18.71,6.05c7.31,7.06,17.56,18.47,21.5,30.14a16.6,16.6,0,0,1-5.59,18.46,59.33,59.33,0,0,1-19.88,9.62C207.22,361.76,191.47,352.83,184.66,336.76Z"/><path class="cls-5" d="M185.36,336.06c-6.59-15.08-9-35.51,22.43-40.46a21.3,21.3,0,0,1,18,5.7c7,6.62,16.93,17.34,20.73,28.29a15.29,15.29,0,0,1-5.35,17.31,57.71,57.71,0,0,1-19.12,9C207.1,359.54,191.94,351.15,185.36,336.06Z"/><path class="cls-3" d="M231.11,334.24c.19-.05.16-.22.39-.12s.08.69,0,.95a5,5,0,0,0-.42,1.31c0,.87.69,1.18,1.38.55a8.78,8.78,0,0,0,.93-1.09,2,2,0,0,1,1.29-.76,8,8,0,0,0,1.15-.05,1.31,1.31,0,0,0,1.06-1.69c-.09-.29-.26-.45-.4-.79a1,1,0,0,1,.38-1.07,10.63,10.63,0,0,0,1-.81c.56-.6.34-1.5-.61-1.42a6,6,0,0,0-1.28.42c-.33.13-.87.16-1-.19a3.67,3.67,0,0,1,0-1c0-.71-.6-1.19-1.25-.75-.24.17-.41.47-.69.68s-.52-.07-.63-.37a4.25,4.25,0,0,0-.47-1c-.55-.69-1.31-.15-1.35.57a5.31,5.31,0,0,0,.11,1.15.75.75,0,0,1-.4.83c-.29.09-.63.09-.84.16-.56.19-1.79,1.29-1.39,1.85.15.22,1,.26,1.31.31s.75.31.68.62a3.85,3.85,0,0,0-.1.81A1,1,0,0,0,231.11,334.24Z"/><path class="cls-3" d="M351.18,339.17c13.17,12.37,23.93,31.87-8.23,50.11a26.26,26.26,0,0,1-21.85,1.89c-10.29-3.69-25.3-10.27-33.8-19.67a15.77,15.77,0,0,1-1.09-19.64,69.15,69.15,0,0,1,17.19-17.12C318.2,324.77,338,326.8,351.18,339.17Z"/><path class="cls-5" d="M350.5,339.39c12.76,11.75,23.12,30.34-8.37,48a26.17,26.17,0,0,1-21.32,1.95c-10-3.45-24.6-9.66-32.83-18.6a14.85,14.85,0,0,1-.93-18.79,68.63,68.63,0,0,1,16.88-16.5A38,38,0,0,1,350.5,339.39Z"/><path class="cls-3" d="M313.49,363.86c.27-.06.23-.32.56-.17s.13,1,0,1.38a7.07,7.07,0,0,0-.61,1.87c0,1.26,1,1.71,2,.81a12.28,12.28,0,0,0,1.34-1.58,2.93,2.93,0,0,1,1.88-1.08,10.73,10.73,0,0,0,1.68-.07,1.86,1.86,0,0,0,1.53-2.42c-.13-.42-.38-.66-.59-1.15a1.48,1.48,0,0,1,.55-1.53c.43-.35,1.11-.83,1.42-1.16.81-.86.48-2.17-.9-2.06a8.78,8.78,0,0,0-1.86.6c-.49.19-1.27.23-1.4-.27a5.58,5.58,0,0,1,.05-1.38c0-1-.88-1.71-1.82-1.08-.36.24-.61.68-1,1s-.75-.1-.93-.54a6,6,0,0,0-.68-1.5c-.8-1-1.91-.22-2,.82a8.14,8.14,0,0,0,.16,1.65,1.06,1.06,0,0,1-.58,1.2c-.42.13-.91.12-1.22.23-.82.27-2.6,1.84-2,2.66.22.32,1.41.38,1.91.45s1.1.45,1,.9a5.49,5.49,0,0,0-.14,1.17A1.41,1.41,0,0,0,313.49,363.86Z"/><path class="cls-3" d="M332,465.49s-33-94.11-100.61-98.1c0,0-38.9-4-31.69,48.39,0,0,12.2,61.82,78.5,61.81C278.23,477.59,316.15,479.69,332,465.49Z"/><path class="cls-6" d="M329.93,464.64s-31.87-91-97.26-94.84c0,0-37.62-3.86-30.64,46.78,0,0,11.79,59.77,75.89,59.76C277.92,476.34,314.58,478.37,329.93,464.64Z"/><path class="cls-3" d="M268.53,380.72s-3,20.53-31.18,8.6c0,0-13.77-5.39-8.92-20a59.75,59.75,0,0,1,21,3.2S261,374.6,268.53,380.72Z"/><path class="cls-3" d="M217.67,445.06c.57-.64,31.24-17.19,39.6-25.76,1.36-1.39.94-2.93-.49-4.21-1.23-1.09-1.59-1.06-4.93,0,0,0-17,9.49-32.48,2.21-2.22-1-4.77-3.77-6.46-5.52s-9.45-1.51-29.35,1.67c0,0-44.7,7.74-31.78-5.61,0,0,29.1-20.29,52.76-10.36,17.84,7.49,37.51,4.94,47,1.59a12.51,12.51,0,0,1,12.59,2.44c6.7,6.06,30.52,47.3,32.49,58.95C299.65,478.27,212.53,450.8,217.67,445.06Z"/><path class="cls-7" d="M219,445c.55-.62,30.87-16.82,38.94-25.23a3.37,3.37,0,0,0-.14-4.82c-1.2-1.09-3.19-1.85-6.43-.84,0,0-16.46,9.64-31.51,2.37a19.79,19.79,0,0,1-5.67-4.34c-1.78-1.88-7.67-4.85-27-1.82,0,0-45.78,10.64-33.3-2.45,0,0,30.94-18.4,54-8.46,17.36,7.49,34.56,3.67,43.78.42a12.09,12.09,0,0,1,12.23,2.48c6.54,6,29.91,46.83,31.89,58.33C298.84,478.2,214.09,450.6,219,445Z"/><path class="cls-8" d="M302.5,475.09a51.21,51.21,0,0,0,3.08-9.8,4.76,4.76,0,0,0-6.61-5.1c-6.46,2.8-17.91,6.74-25.44,3.54,0,0-26.7-6-45-21.5,0,0-11.13-10.34-15.3-15.71a2.84,2.84,0,0,0-4.21-.4c-2.88,2.94-2.52,6.28,3,14.48a79.42,79.42,0,0,0,17.6,20.14,73.08,73.08,0,0,0,29.7,13.74,107.13,107.13,0,0,0,11,1.57C281.38,477.14,297,477.09,302.5,475.09Z"/><path class="cls-8" d="M267.3,380.79s-2.53,19.25-28.48,7.81c0,0-12.67-5.19-8.35-18.86a53.88,53.88,0,0,1,19.29,3.19S260.33,375,267.3,380.79Z"/><path class="cls-3" d="M236.16,392.09s5.58-4.24-.12-9.22c0,0-2.53-4.48-6.93,2.7,0,0-3.22,3,1.28,6.39C230.39,392,234.13,394.74,236.16,392.09Z"/><path class="cls-5" d="M235.88,391.71s5.13-3.88-.12-8.46c0,0-2.33-4.12-6.38,2.47,0,0-3,2.71,1.19,5.86C230.57,391.58,234,394.14,235.88,391.71Z"/><path class="cls-3" d="M253.26,398.44s3.19-8.62-6-11c0,0-5.53-3.79-5.6,7.62,0,0-1.52,5.59,5.42,6.87C247.08,401.93,252.81,402.91,253.26,398.44Z"/><path class="cls-5" d="M252.46,398.39s2.79-8.11-5.58-10.47c0,0-5.06-3.65-5,7.14,0,0-1.31,5.27,5,6.56C246.89,401.62,252.1,402.61,252.46,398.39Z"/><path class="cls-3" d="M219,432.77s4.79-6.52-3.45-9.88c0,0-4.47-3.94-6.87,5.33,0,0-2.59,4.31,3.74,6.43C212.46,434.65,217.7,436.33,219,432.77Z"/><path class="cls-5" d="M218.71,432.46s4.45-6-3.21-9.17c0,0-4.16-3.65-6.39,4.95,0,0-2.41,4,3.48,6C212.59,434.21,217.46,435.77,218.71,432.46Z"/><path class="cls-3" d="M282.67,458.41s.46,8.18,8.83,6.86c0,0,5.87,1.13,1.87-8.23,0,0-.75-5.12-6.88-3.68C286.49,453.36,281.46,454.59,282.67,458.41Z"/><path class="cls-3" d="M281.82,463.5s1.21-7.18-6.76-6.59c0,0-5.18-1.38-3.36,7.07,0,0-.33,4.52,5.6,3.68C277.3,467.66,282.18,466.92,281.82,463.5Z"/><path class="cls-3" d="M254.22,457.36s4.37-5.8-3.13-8.77c0,0-4.06-3.49-6.25,4.75,0,0-2.36,3.83,3.39,5.7C248.23,459,253,460.53,254.22,457.36Z"/><path class="cls-3" d="M242.52,451.2s4.43-5.7-3.15-8.6c0,0-4.1-3.41-6.35,4.68,0,0-2.4,3.77,3.43,5.59C236.45,452.87,241.26,454.32,242.52,451.2Z"/><path class="cls-3" d="M268.13,460.36s2.84-5.92-4.23-7.39c0,0-4.14-2.49-4.67,5.29,0,0-1.41,3.83,3.94,4.58C263.17,462.84,267.59,463.41,268.13,460.36Z"/><path class="cls-5" d="M253.76,457s3.95-5.38-2.86-8.15c0,0-3.69-3.24-5.67,4.4,0,0-2.14,3.56,3.09,5.3C248.32,458.53,252.64,459.92,253.76,457Z"/><path class="cls-5" d="M283.34,458.25s.6,7.63,8.29,6.58c0,0,5.43,1.18,1.54-7.62,0,0-.8-4.78-6.43-3.58C286.74,453.63,282.13,454.67,283.34,458.25Z"/><path class="cls-5" d="M281.41,463.38s1.12-6.62-6.24-6.06c0,0-4.79-1.27-3.12,6.52,0,0-.31,4.17,5.18,3.39C277.23,467.23,281.74,466.54,281.41,463.38Z"/><path class="cls-5" d="M242,450.85s4-5.39-2.87-8.18c0,0-3.71-3.25-5.7,4.42,0,0-2.15,3.57,3.11,5.32C236.57,452.41,240.91,453.81,242,450.85Z"/><path class="cls-9" d="M267.76,460.54s2.47-5.4-3.81-6.8c0,0-3.7-2.3-4.11,4.8,0,0-1.22,3.5,3.54,4.23C263.38,462.77,267.3,463.33,267.76,460.54Z"/><path class="cls-3" d="M232,444s4.28-5.87-3.1-8.91c0,0-4-3.55-6.15,4.81,0,0-2.31,3.89,3.36,5.8C226.11,445.71,230.8,447.23,232,444Z"/><path class="cls-5" d="M231.6,443.6s4-5.43-2.88-8.23c0,0-3.73-3.28-5.74,4.44,0,0-2.16,3.59,3.13,5.35C226.11,445.16,230.47,446.56,231.6,443.6Z"/><path class="cls-10" d="M422.51,279.69s-14,16.14-2.48,15.34,2.61,5.75-1,4.44S409,298,410.19,294s7.23-15.54,9.28-15S422.41,278,422.51,279.69Z"/><path class="cls-10" d="M390.8,316.35s11.69-17.9.36-15.54-3.36-5.34.36-4.53,10.2.14,9.53,4.24-5,16.39-7.15,16.14S391.12,318,390.8,316.35Z"/><path class="cls-10" d="M405.87,322s.11-21.38,8.25-13.16,5.76-2.6,2.2-4-8.58-5.51-10.28-1.72-4.83,16.45-2.94,17.4S404.69,323.17,405.87,322Z"/><path class="cls-10" d="M404.53,274.32s1.23,21.34-7.41,13.65-5.58,2.95-1.95,4.11,8.92,5,10.38,1.07,3.78-16.72,1.83-17.55S405.63,273.05,404.53,274.32Z"/><g class="cls-1"><path class="cls-2" d="M759.54,400.66c45.72,214.65,287.4,313.43,468.94,250.73s301.26-177.14,265.06-388.26S1199.7-47.18,1018.71,21.66,713.82,186,759.54,400.66Z"/></g><g class="cls-1"><path class="cls-2" d="M807.89,393.7C851.76,592.52,1064.8,688,1222.33,633.51S1482.43,475.62,1447,280.24,1184.47-11.34,1027.52,48.86,764,194.88,807.89,393.7Z"/></g><g class="cls-1"><path class="cls-2" d="M827.43,392.57c36.71,172.35,230.75,251.66,376.51,201.32s241.88-142.23,212.82-311.73S1180.84,33,1035.52,88.29,790.72,220.23,827.43,392.57Z"/></g><path class="cls-3" d="M891.87,369.29C924,521.53,1097.4,590.84,1228.1,545.72S1445.24,419,1419.93,269.2,1209.76,49.89,1079.43,99.37,859.72,217.06,891.87,369.29Z"/><path class="cls-2" d="M901.06,369.15c30.11,144.29,197,209,323.44,165.4S1434.83,412.93,1411.31,271,1209.8,64.1,1083.72,111.85,871,224.87,901.06,369.15Z"/><path class="cls-3" d="M1111.68,315c-7.43-6.21-25-17.32-37.43-14.05,0,0-19.27,12.07-38.75-9.09,0,0-8.59-10.88-34.08-1.7a2.19,2.19,0,0,0,.61,4.24,58.59,58.59,0,0,0,11.65-.63s10.37-5.11,24.88,8.2c0,0,4.28,5.8,17.55,7.77a20.06,20.06,0,0,0,7.71-.46c2.23-.54,4.43-2.27,12.11-3.29,1.17-.15,3.25.23,11,1.69,2,.37,2.66,1.09,16.13,6.59,1.35.56,4.67,3.13,6.3,3.79C1110.6,318.52,1112.71,315.82,1111.68,315Z"/><path class="cls-3" d="M1104.19,298.21c-6.07-5.24-20.39-14.66-30.45-12,0,0-15.49,9.88-31.46-7.92,0,0-7-9.15-27.62-1.73a1.84,1.84,0,0,0,.54,3.54,45.89,45.89,0,0,0,9.42-.42s8.36-4.17,20.23,7.06c0,0,3.52,4.87,14.28,6.64a16,16,0,0,0,6.24-.32c1.81-.44,3.57-1.85,9.79-2.63.94-.12,2.62.21,8.92,1.5,1.62.33,2.17.93,13.13,5.64,1.1.47,3.81,2.65,5.13,3.21C1103.35,301.16,1105,298.93,1104.19,298.21Z"/><path class="cls-3" d="M1084.51,409.76s24.43,14,32.72,41.76a.44.44,0,0,1-.82.33c-.94-1.85-2.15-4.13-3.49-6.35-2.3-3.81-.8-.6-7.05-10.92,0,0-9.69-16.28-20.82-23.19S1084.51,409.76,1084.51,409.76Z"/><path class="cls-3" d="M955.36,435.21c-1.19-3.57-.65-1.95-.36-11.95,0,0-.8-16,5-26.77"/><path class="cls-3" d="M1123,330.48c13.8,3.85,18,15.2,18,29.61,0,.46-.73.79-.83-.08-.68-5.78-.77-10.17-4-15.73-3.05-5.17-8.88-9.26-13.52-12.7C1121.91,331.06,1121,329.94,1123,330.48Z"/><path class="cls-3" d="M1122.56,388.42c-13.12,10.69-31.28,9.41-51.25,2.87-.64-.21-.69-1,.57-.71,8.42,2,14.56,3.89,24.12,3.45,8.9-.42,17.86-3.82,25.27-6.45C1122.38,387.19,1124.43,386.91,1122.56,388.42Z"/><path class="cls-3" d="M1053.2,347.71c3.65-14.42,15.91-20,31.7-21.67.51-.05.9.65-.05.85-6.31,1.36-11.12,2-17.07,5.92-5.54,3.69-9.78,10.06-13.36,15.16C1053.88,348.74,1052.69,349.75,1053.2,347.71Z"/><path class="cls-3" d="M1020,319c6,13,.06,23.61-11,32.87-.35.29-1.07,0-.48-.68,4-4.26,7.27-7.16,9.4-13.25,2-5.67,1.34-12.76,1-18.54C1018.9,318.51,1019.19,317.12,1020,319Z"/><path class="cls-3" d="M1013.27,353.91c-6.89,9.78-18.88,11.56-32.83,9.77-.45-.06-.6-.64.26-.61,5.77.21,10,.67,16.18-1.08,5.72-1.64,11-5.47,15.43-8.5C1013,353,1014.25,352.52,1013.27,353.91Z"/><path class="cls-3" d="M954.82,339c-8.84-8.06-9.13-20.18-5.62-33.82.11-.43.7-.51.56.34-.91,5.7-1.9,9.89-.92,16.2.92,5.88,4.06,11.62,6.52,16.37C955.73,338.77,956.08,340.11,954.82,339Z"/><path class="cls-4" d="M956.92,333.08c-6.47-15.25-8.82-35.92,22.18-41a20.65,20.65,0,0,1,17.77,5.74c6.93,6.7,16.67,17.53,20.4,28.62A15.71,15.71,0,0,1,1012,344a56.55,56.55,0,0,1-18.87,9.13C978.34,356.82,963.39,348.34,956.92,333.08Z"/><path class="cls-5" d="M958.33,332.63c-6.25-14.32-8.53-33.71,21.29-38.41a20.21,20.21,0,0,1,17.11,5.41c6.69,6.29,16.07,16.46,19.68,26.86a14.52,14.52,0,0,1-5.08,16.43,54.66,54.66,0,0,1-18.16,8.55C979,354.93,964.58,347,958.33,332.63Z"/><path class="cls-3" d="M1000.63,334.24c.18-.05.15-.22.38-.12s.09.69,0,.95a5,5,0,0,0-.42,1.31c0,.87.7,1.18,1.39.55a9.71,9.71,0,0,0,.92-1.09,2,2,0,0,1,1.29-.76,8.12,8.12,0,0,0,1.16-.05,1.31,1.31,0,0,0,1-1.69c-.09-.29-.26-.45-.4-.79a1.07,1.07,0,0,1,.38-1.07,12.44,12.44,0,0,0,1-.81c.56-.6.33-1.5-.62-1.42a5.73,5.73,0,0,0-1.27.42c-.34.13-.87.16-1-.19a3.67,3.67,0,0,1,0-1c0-.71-.59-1.19-1.24-.75-.25.17-.42.47-.7.68s-.51-.07-.63-.37a4.25,4.25,0,0,0-.47-1c-.55-.69-1.3-.15-1.35.57a6,6,0,0,0,.11,1.15.73.73,0,0,1-.4.83c-.29.09-.62.09-.84.16-.56.19-1.79,1.29-1.39,1.85.15.22,1,.26,1.31.31s.75.31.68.62a3.85,3.85,0,0,0-.1.81A1,1,0,0,0,1000.63,334.24Z"/><path class="cls-3" d="M1117.1,342c11,10.31,19.93,26.55-6.86,41.76a21.93,21.93,0,0,1-18.2,1.57c-8.58-3.07-21.08-8.56-28.17-16.39a13.13,13.13,0,0,1-.9-16.36,57.41,57.41,0,0,1,14.32-14.26C1089.62,330,1106.13,331.71,1117.1,342Z"/><path class="cls-5" d="M1116.53,342.2c10.63,9.79,19.26,25.28-7,40a21.78,21.78,0,0,1-17.76,1.63c-8.35-2.88-20.5-8-27.36-15.5a12.37,12.37,0,0,1-.77-15.65,56.71,56.71,0,0,1,14.06-13.75A31.6,31.6,0,0,1,1116.53,342.2Z"/><path class="cls-3" d="M1083,363.86c.28-.06.23-.32.56-.17s.13,1,0,1.38a7.06,7.06,0,0,0-.6,1.87c0,1.26,1,1.71,2,.81a13.13,13.13,0,0,0,1.34-1.58,2.91,2.91,0,0,1,1.88-1.08,10.79,10.79,0,0,0,1.68-.07,1.88,1.88,0,0,0,1.53-2.42c-.13-.42-.39-.66-.6-1.15a1.49,1.49,0,0,1,.56-1.53,18.26,18.26,0,0,0,1.41-1.16c.82-.86.48-2.17-.9-2.06a8.51,8.51,0,0,0-1.85.6c-.49.19-1.27.23-1.4-.27a5.17,5.17,0,0,1,0-1.38c0-1-.87-1.71-1.82-1.08-.36.24-.6.68-1,1s-.75-.1-.92-.54a6.37,6.37,0,0,0-.69-1.5c-.8-1-1.9-.22-2,.82a8.14,8.14,0,0,0,.16,1.65,1.06,1.06,0,0,1-.57,1.2c-.43.13-.92.12-1.23.23-.81.27-2.6,1.84-2,2.66.23.32,1.42.38,1.92.45s1.09.45,1,.9a6.23,6.23,0,0,0-.14,1.17A1.42,1.42,0,0,0,1083,363.86Z"/><path class="cls-3" d="M1101.54,465.49s-33-94.11-100.6-98.1c0,0-38.91-4-31.69,48.39,0,0,12.19,61.82,78.49,61.81C1047.74,477.59,1085.67,479.69,1101.54,465.49Z"/><path class="cls-6" d="M1099.44,464.64s-31.87-91-97.26-94.84c0,0-37.61-3.86-30.63,46.78,0,0,11.79,59.77,75.88,59.76C1047.43,476.34,1084.1,478.37,1099.44,464.64Z"/><path class="cls-3" d="M1038,380.72s-3,20.53-31.17,8.6c0,0-13.78-5.39-8.93-20a59.79,59.79,0,0,1,21,3.2S1030.5,374.6,1038,380.72Z"/><path class="cls-3" d="M990.46,442.1c.74-.76,34.43-13.88,38.83-19.41.72-.9,1.88-2.95,0-3.79s-3.08-.11-4.82.68c-16.89,8.83-18.39,13.5-34.72-3-2.35-2.37-3.39-9-7.21-13s-22.19,3-32.8,7.26c-4.24,1.7-22.32,42.76-24.15,22.11,3.82-30.81,12.07-42.37,45.85-41.17,25.45.9,27.45,24.9,52,14,11.28-5,7.34-3.51,13.68.89,12.54,8.7,27.46,41.42,27.94,54.42C1065.85,480.94,983.86,449,990.46,442.1Z"/><path class="cls-7" d="M991.85,442.12c.71-.8,33.79-13.51,38.1-19.1.7-.91,2.37-3.33.38-4.4s-4.07-.79-6.18.17c-16.17,8.64-18.2,13.66-33.57-2.93-2.21-2.38-3.37-5.54-6.47-11.61s-22.66-1.38-30.35,3.07c-15.92,5.21-21,37.92-27,24.23,6.25-31,16.46-42.2,49.56-38.32,24.94,2.92,22.09,25.92,47.22,13.31,11.54-5.79,7-3.31,13.33.92,12.42,8.37,26.91,41,27.39,53.67C1065,480.5,985.53,449.35,991.85,442.12Z"/><path class="cls-8" d="M1072,475.09a50.44,50.44,0,0,0,3.08-9.8,4.76,4.76,0,0,0-6.6-5.1c-6.47,2.8-17.91,6.74-25.45,3.54,0,0-26.7-6-45-21.5,0,0-11.13-10.34-15.3-15.71a2.82,2.82,0,0,0-4.2-.4c-2.89,2.94-2.52,6.28,3,14.48a79.42,79.42,0,0,0,17.6,20.14,73.08,73.08,0,0,0,29.7,13.74,107.13,107.13,0,0,0,11,1.57C1050.9,477.14,1066.47,477.09,1072,475.09Z"/><path class="cls-8" d="M1036.81,380.79s-2.53,19.25-28.48,7.81c0,0-12.67-5.19-8.35-18.86a53.94,53.94,0,0,1,19.3,3.19S1029.85,375,1036.81,380.79Z"/><path class="cls-3" d="M1005.68,392.09s5.57-4.24-.13-9.22c0,0-2.52-4.48-6.92,2.7,0,0-3.23,3,1.28,6.39C999.91,392,1003.64,394.74,1005.68,392.09Z"/><path class="cls-5" d="M1005.39,391.71s5.13-3.88-.12-8.46c0,0-2.33-4.12-6.37,2.47,0,0-3,2.71,1.18,5.86C1000.08,391.58,1003.52,394.14,1005.39,391.71Z"/><path class="cls-3" d="M1022.78,398.44s3.18-8.62-6-11c0,0-5.52-3.79-5.6,7.62,0,0-1.52,5.59,5.43,6.87C1016.6,401.93,1022.32,402.91,1022.78,398.44Z"/><path class="cls-5" d="M1022,398.39s2.79-8.11-5.58-10.47c0,0-5-3.65-5,7.14,0,0-1.32,5.27,5,6.55C1016.41,401.61,1021.61,402.61,1022,398.39Z"/><path class="cls-3" d="M988.56,432.77s4.78-6.52-3.46-9.88c0,0-4.47-3.94-6.87,5.33,0,0-2.59,4.31,3.75,6.43C982,434.65,987.21,436.33,988.56,432.77Z"/><path class="cls-5" d="M988.23,432.46s4.45-6-3.22-9.17c0,0-4.16-3.65-6.39,4.95,0,0-2.4,4,3.49,6C982.11,434.21,987,435.77,988.23,432.46Z"/><path class="cls-3" d="M1052.19,458.41s.46,8.18,8.83,6.86c0,0,5.86,1.13,1.86-8.23,0,0-.74-5.12-6.88-3.68C1056,453.36,1051,454.59,1052.19,458.41Z"/><path class="cls-3" d="M1051.34,463.5s1.2-7.18-6.77-6.59c0,0-5.18-1.38-3.36,7.07,0,0-.33,4.52,5.61,3.68C1046.82,467.66,1051.7,466.92,1051.34,463.5Z"/><path class="cls-3" d="M1023.74,457.36s4.36-5.8-3.13-8.77c0,0-4.06-3.49-6.26,4.75,0,0-2.36,3.83,3.4,5.7C1017.75,459,1022.5,460.53,1023.74,457.36Z"/><path class="cls-3" d="M1012,451.2s4.43-5.7-3.15-8.6c0,0-4.1-3.41-6.34,4.68,0,0-2.4,3.77,3.42,5.59C1006,452.87,1010.77,454.32,1012,451.2Z"/><path class="cls-3" d="M1037.65,460.36s2.83-5.92-4.23-7.39c0,0-4.15-2.49-4.68,5.28,0,0-1.41,3.84,4,4.59C1032.69,462.84,1037.11,463.41,1037.65,460.36Z"/><path class="cls-5" d="M1023.27,457s4-5.38-2.85-8.15c0,0-3.7-3.24-5.68,4.4,0,0-2.14,3.56,3.09,5.3C1017.83,458.53,1022.16,459.92,1023.27,457Z"/><path class="cls-5" d="M1052.85,458.25s.6,7.63,8.29,6.58c0,0,5.43,1.18,1.54-7.62,0,0-.8-4.78-6.42-3.58C1056.26,453.63,1051.65,454.67,1052.85,458.25Z"/><path class="cls-5" d="M1050.92,463.38s1.13-6.62-6.24-6.06c0,0-4.78-1.27-3.11,6.52,0,0-.31,4.17,5.17,3.39C1046.74,467.23,1051.25,466.54,1050.92,463.38Z"/><path class="cls-5" d="M1011.54,450.85s4-5.39-2.87-8.18c0,0-3.71-3.25-5.7,4.42,0,0-2.14,3.57,3.11,5.32C1006.08,452.41,1010.42,453.81,1011.54,450.85Z"/><path class="cls-9" d="M1037.27,460.54s2.47-5.4-3.81-6.8c0,0-3.7-2.3-4.1,4.8,0,0-1.23,3.5,3.53,4.23C1032.89,462.77,1036.82,463.33,1037.27,460.54Z"/><path class="cls-3" d="M1001.52,444s4.27-5.87-3.11-8.91c0,0-4-3.55-6.14,4.81,0,0-2.32,3.89,3.35,5.8C995.62,445.71,1000.31,447.23,1001.52,444Z"/><path class="cls-5" d="M1001.11,443.6s4-5.43-2.88-8.23c0,0-3.73-3.28-5.73,4.44,0,0-2.16,3.59,3.12,5.35C995.62,445.16,1000,446.56,1001.11,443.6Z"/><path class="cls-10" d="M1192,279.69s-14,16.14-2.48,15.34,2.61,5.75-1,4.44-10.08-1.52-8.86-5.5,7.22-15.54,9.27-15S1191.93,278,1192,279.69Z"/><path class="cls-10" d="M1160.31,316.35s11.69-17.9.37-15.54-3.37-5.34.36-4.53,10.19.14,9.52,4.24-5,16.39-7.14,16.14S1160.63,318,1160.31,316.35Z"/><path class="cls-10" d="M1175.38,322s.11-21.38,8.26-13.16,5.75-2.6,2.2-4-8.59-5.51-10.29-1.72-4.83,16.45-2.93,17.4S1174.21,323.17,1175.38,322Z"/><path class="cls-10" d="M1174.05,274.32s1.23,21.34-7.42,13.65-5.58,2.95-1.94,4.11,8.91,5,10.37,1.07,3.79-16.72,1.84-17.55S1175.14,273.05,1174.05,274.32Z"/><g class="cls-1"><path class="cls-2" d="M1509.54,400.66c45.72,214.65,287.4,313.43,468.94,250.73s301.26-177.14,265.06-388.26S1949.7-47.18,1768.71,21.66,1463.82,186,1509.54,400.66Z"/></g><g class="cls-1"><path class="cls-2" d="M1557.89,393.7C1601.76,592.52,1814.8,688,1972.33,633.51S2232.43,475.62,2197,280.24,1934.47-11.34,1777.52,48.86,1514,194.88,1557.89,393.7Z"/></g><g class="cls-1"><path class="cls-2" d="M1577.43,392.57c36.71,172.35,230.75,251.66,376.51,201.32s241.88-142.23,212.82-311.73S1930.84,33,1785.52,88.29,1540.72,220.23,1577.43,392.57Z"/></g><path class="cls-3" d="M1641.87,369.29C1674,521.53,1847.4,590.84,1978.1,545.72S2195.24,419,2169.93,269.2,1959.76,49.89,1829.43,99.37,1609.72,217.06,1641.87,369.29Z"/><path class="cls-2" d="M1651.06,369.15c30.11,144.29,197,209,323.44,165.4S2184.83,412.93,2161.31,271,1959.8,64.1,1833.72,111.85,1621,224.87,1651.06,369.15Z"/><path class="cls-3" d="M1842.59,315c-7.43-6.21-25-17.32-37.44-14.05,0,0-19.27,12.07-38.75-9.09,0,0-8.59-10.88-34.08-1.7a2.19,2.19,0,0,0,.62,4.24,58.53,58.53,0,0,0,11.64-.63s10.38-5.11,24.89,8.2c0,0,4.28,5.8,17.54,7.77a20,20,0,0,0,7.71-.46c2.24-.54,4.43-2.27,12.12-3.29,1.17-.15,3.24.23,11,1.69,2,.37,2.66,1.09,16.13,6.59,1.35.56,4.68,3.13,6.3,3.79C1841.51,318.52,1843.61,315.82,1842.59,315Z"/><path class="cls-3" d="M1835.1,298.21c-6.08-5.24-20.4-14.66-30.45-12,0,0-15.5,9.88-31.46-7.92,0,0-7.06-9.15-27.63-1.73a1.84,1.84,0,0,0,.54,3.54,46,46,0,0,0,9.43-.42s8.36-4.17,20.23,7.06c0,0,3.51,4.87,14.28,6.64a16,16,0,0,0,6.24-.32c1.8-.44,3.56-1.85,9.78-2.63,1-.12,2.63.21,8.93,1.5,1.62.33,2.16.93,13.12,5.64,1.1.47,3.82,2.65,5.14,3.21C1834.26,301.16,1835.93,298.93,1835.1,298.21Z"/><path class="cls-3" d="M1815.41,409.76s24.44,14,32.73,41.76a.44.44,0,0,1-.82.33c-.94-1.85-2.15-4.13-3.5-6.35-2.29-3.81-.79-.6-7-10.92,0,0-9.68-16.28-20.82-23.19S1815.41,409.76,1815.41,409.76Z"/><path class="cls-3" d="M1686.26,435.21c-1.19-3.57-.65-1.95-.35-11.95,0,0-.81-16,5-26.77"/><path class="cls-3" d="M1834.08,337.19c14.32-.11,21.54,9.63,25.46,23.5.12.44-.48,1-.82.15-2.24-5.38-3.09-10.1-8.22-14-11.37-8.66-12.34-7.27-16.5-8.49C1833.17,338.1,1832,337.2,1834.08,337.19Z"/><path class="cls-3" d="M1856.53,383.46c-13.13,10.69-31.29,9.4-51.26,2.86-.63-.21-.69-1,.58-.71,8.41,2,14.56,3.89,24.11,3.45,8.9-.41,17.87-3.81,25.27-6.44C1856.34,382.23,1858.39,381.94,1856.53,383.46Z"/><path class="cls-3" d="M1786.1,351.84c3.64-14.42,15.9-20,31.7-21.67.5-.05.89.65-.06.85-6.31,1.36-11.12,2-17.07,5.92-5.54,3.69-9.78,10.06-13.36,15.16C1786.77,352.87,1785.58,353.88,1786.1,351.84Z"/><path class="cls-3" d="M1751,319c6,13,.06,23.61-11,32.87-.35.29-1.07,0-.47-.68,4-4.26,7.27-7.16,9.39-13.25,2-5.67,1.34-12.76,1-18.54C1749.81,318.51,1750.1,317.12,1751,319Z"/><path class="cls-3" d="M1736.54,350.12c-6.9,9.79-18.89,11.57-32.84,9.77-.44-.05-.6-.63.26-.6,5.77.2,10,.66,16.18-1.09,5.72-1.64,11-5.47,15.43-8.5C1736.23,349.25,1737.51,348.74,1736.54,350.12Z"/><path class="cls-3" d="M1689.76,347c-8.85-8.06-9.13-20.17-5.63-33.81.11-.43.7-.52.57.34-.92,5.7-1.9,9.89-.92,16.2.91,5.87,4,11.61,6.51,16.36C1690.66,346.82,1691,348.16,1689.76,347Z"/><path class="cls-4" d="M1687.82,333.08C1681.35,317.83,1680,317,1711,312c6.41-1,14.12-2.35,19,2.36,6.94,6.7,14.45,1,18.19,12.13a15.74,15.74,0,0,1-5.3,17.52,56.61,56.61,0,0,1-18.88,9.13C1709.24,356.82,1694.3,348.34,1687.82,333.08Z"/><path class="cls-5" d="M1689.23,332.63c-6.25-14.32-4.33-13.46,25.5-18.17,6.17-1,10.54,3.59,19,7s9,1.43,12.57,11.84c2.1,6-3.7,9.33-4.06,9.63-5.34,4.54-10.7,6.73-18.15,8.55C1709.88,354.93,1695.48,347,1689.23,332.63Z"/><path class="cls-3" d="M1731.53,334.24c.19-.05.16-.22.38-.12s.09.69,0,.95a5,5,0,0,0-.42,1.31c0,.87.69,1.18,1.38.55a8,8,0,0,0,.92-1.09,2,2,0,0,1,1.3-.76,8,8,0,0,0,1.15-.05,1.32,1.32,0,0,0,1.06-1.69,8.71,8.71,0,0,0-.41-.79,1.05,1.05,0,0,1,.39-1.07,12.2,12.2,0,0,0,1-.81c.56-.6.34-1.5-.61-1.42a5.82,5.82,0,0,0-1.28.42c-.33.13-.87.16-1-.19a4.14,4.14,0,0,1,0-1c0-.71-.6-1.19-1.25-.75-.25.17-.41.47-.69.68s-.52-.07-.64-.37a4.22,4.22,0,0,0-.46-1c-.55-.69-1.31-.15-1.35.57a5.31,5.31,0,0,0,.11,1.15.75.75,0,0,1-.4.83c-.3.09-.63.09-.84.16-.56.19-1.8,1.29-1.4,1.85.16.22,1,.26,1.32.31s.75.31.68.62a3.85,3.85,0,0,0-.1.81A1,1,0,0,0,1731.53,334.24Z"/><path class="cls-3" d="M1835.32,354.87c11,10.3,32.62,13.69,5.83,28.9a22,22,0,0,1-18.21,1.57c-8.57-3.07-21.08-8.56-28.16-16.39a13.13,13.13,0,0,1-.91-16.36c3.08-4.33,3.28-4.87,10.16-8.55C1816.74,337.26,1824.35,344.56,1835.32,354.87Z"/><path class="cls-5" d="M1834.11,355.43c10.63,9.79,31.43,13.55,5.2,28.28-5.43,3.05-10.74,2.15-16.61.13-8.34-2.88-20.5-8-27.35-15.5-4-4.32-4.57-11.14-.78-15.65,3.47-4.11-.7-.1,5.59-5.51C1811.16,337.71,1823.48,345.64,1834.11,355.43Z"/><path class="cls-3" d="M1813.91,363.86c.27-.06.23-.32.56-.17s.13,1,0,1.38a7.45,7.45,0,0,0-.6,1.87c0,1.26,1,1.71,2,.81a13.13,13.13,0,0,0,1.34-1.58,2.93,2.93,0,0,1,1.88-1.08,10.73,10.73,0,0,0,1.68-.07,1.86,1.86,0,0,0,1.53-2.42c-.13-.42-.38-.66-.59-1.15a1.48,1.48,0,0,1,.55-1.53c.43-.35,1.11-.83,1.42-1.16.81-.86.48-2.17-.91-2.06a8.88,8.88,0,0,0-1.85.6c-.49.19-1.27.23-1.4-.27a5.62,5.62,0,0,1,0-1.38c0-1-.87-1.71-1.81-1.08-.36.24-.61.68-1,1s-.75-.1-.93-.54a6.34,6.34,0,0,0-.68-1.5c-.81-1-1.91-.22-2,.82a6.92,6.92,0,0,0,.16,1.65,1.06,1.06,0,0,1-.58,1.2c-.43.13-.91.12-1.22.23-.82.27-2.61,1.84-2,2.66.22.32,1.41.38,1.91.45s1.1.45,1,.9a5.49,5.49,0,0,0-.14,1.17A1.41,1.41,0,0,0,1813.91,363.86Z"/><path class="cls-3" d="M1832.44,465.49s-33-94.11-100.6-98.1c0,0-38.91-4-31.69,48.39,0,0,12.2,61.82,78.5,61.81C1778.65,477.59,1816.57,479.69,1832.44,465.49Z"/><path class="cls-6" d="M1830.35,464.64s-31.87-91-97.26-94.84c0,0-37.62-3.86-30.64,46.78,0,0,11.79,59.77,75.89,59.76C1778.34,476.34,1815,478.37,1830.35,464.64Z"/><path class="cls-3" d="M1768.94,380.72s-3,20.53-31.17,8.6c0,0-13.77-5.39-8.92-20a59.75,59.75,0,0,1,21,3.2S1761.4,374.6,1768.94,380.72Z"/><path class="cls-3" d="M1723.67,441c.8-1,32.41-12.91,36.66-18.19.69-.86,2.44-3.26.49-3.87s-2.53-.27-4.18.8c-16.48,10.61-15.45,12.23-32.49-1.32-2.44-1.94-.12-9.55-8.62-10.45s-20.8,10-33.36,25.61c-4.79,5.93-61.87-7-43-21.23a5,5,0,0,1,6.24.18c40,33.71,22.55-7.93,57.6-12.87,27-3.8,29.26,15.51,51.42,6.1,10.17-4.32,7.12-4.28,13.9.87,13.42,10.19,27.58,39.3,26.74,53.63C1793.78,482.21,1716.44,449.86,1723.67,441Z"/><path class="cls-7" d="M1725,441.07c.78-1,31.84-12.52,36-17.92.67-.87,2.89-3.62.77-4.48s-3.46-.95-5.45.33c-15.74,10.11-15.41,12.88-31.27-1.45-2.27-2.06.17-6.18-5.56-10.6s-20.2,6.27-29.56,17.24c-21.27,24.94-58.87-6.63-46.77-12.23,40.87,40.21,28.07-9.71,64.6-11.92,27.53-1.66,23.56,18.12,47,6.4,10.78-5.39,6.37-4.44,13.18.87,13.5,10.5,27.07,39,26.29,53C1793.05,481.81,1718,450.27,1725,441.07Z"/><path class="cls-8" d="M1802.91,475.09a50.91,50.91,0,0,0,3.09-9.8,4.76,4.76,0,0,0-6.61-5.1c-6.46,2.8-17.91,6.74-25.44,3.54,0,0-26.71-6-45-21.5,0,0-11.13-10.34-15.3-15.71a2.84,2.84,0,0,0-4.21-.4c-2.88,2.94-2.52,6.28,3,14.48A79.5,79.5,0,0,0,1730,460.74a73.2,73.2,0,0,0,29.7,13.74,107.68,107.68,0,0,0,11,1.57C1781.8,477.14,1797.37,477.09,1802.91,475.09Z"/><path class="cls-8" d="M1767.71,380.79s-2.53,19.25-28.48,7.81c0,0-12.66-5.19-8.35-18.86a53.92,53.92,0,0,1,19.3,3.19S1760.75,375,1767.71,380.79Z"/><path class="cls-3" d="M1736.58,392.09s5.57-4.24-.12-9.22c0,0-2.53-4.48-6.93,2.7,0,0-3.22,3,1.28,6.39C1730.81,392,1734.55,394.74,1736.58,392.09Z"/><path class="cls-5" d="M1736.3,391.71s5.12-3.88-.13-8.46c0,0-2.32-4.12-6.37,2.47,0,0-3,2.71,1.18,5.86C1731,391.58,1734.43,394.14,1736.3,391.71Z"/><path class="cls-3" d="M1753.68,398.44s3.19-8.62-6-11c0,0-5.52-3.79-5.59,7.62,0,0-1.52,5.59,5.42,6.87C1747.5,401.93,1753.22,402.91,1753.68,398.44Z"/><path class="cls-5" d="M1752.88,398.39s2.78-8.11-5.58-10.47c0,0-5.06-3.65-5,7.14,0,0-1.31,5.27,5,6.55C1747.31,401.61,1752.51,402.61,1752.88,398.39Z"/><path class="cls-3" d="M1719.46,432.77s4.79-6.52-3.46-9.88c0,0-4.47-3.94-6.87,5.33,0,0-2.58,4.31,3.75,6.43C1712.88,434.65,1718.11,436.33,1719.46,432.77Z"/><path class="cls-5" d="M1719.13,432.46s4.45-6-3.21-9.17c0,0-4.16-3.65-6.39,4.95,0,0-2.41,4,3.48,6C1713,434.21,1717.88,435.77,1719.13,432.46Z"/><path class="cls-3" d="M1783.09,458.41s.46,8.18,8.83,6.86c0,0,5.86,1.13,1.87-8.23,0,0-.75-5.12-6.88-3.68C1786.91,453.36,1781.88,454.59,1783.09,458.41Z"/><path class="cls-3" d="M1782.24,463.5s1.21-7.18-6.77-6.59c0,0-5.17-1.38-3.35,7.07,0,0-.33,4.52,5.6,3.68C1777.72,467.66,1782.6,466.92,1782.24,463.5Z"/><path class="cls-3" d="M1754.64,457.36s4.36-5.8-3.13-8.77c0,0-4.06-3.49-6.26,4.75,0,0-2.36,3.83,3.4,5.7C1748.65,459,1753.41,460.53,1754.64,457.36Z"/><path class="cls-3" d="M1742.93,451.2s4.43-5.7-3.14-8.6c0,0-4.11-3.41-6.35,4.68,0,0-2.4,3.77,3.43,5.59C1736.87,452.87,1741.68,454.32,1742.93,451.2Z"/><path class="cls-3" d="M1768.55,460.36s2.84-5.92-4.23-7.39c0,0-4.15-2.49-4.67,5.28,0,0-1.42,3.84,3.94,4.59C1763.59,462.84,1768,463.41,1768.55,460.36Z"/><path class="cls-5" d="M1754.17,457s4-5.38-2.85-8.15c0,0-3.69-3.24-5.68,4.4,0,0-2.13,3.56,3.1,5.3C1748.74,458.53,1753.06,459.92,1754.17,457Z"/><path class="cls-5" d="M1783.75,458.25s.61,7.63,8.29,6.58c0,0,5.44,1.18,1.54-7.62,0,0-.8-4.78-6.42-3.58C1787.16,453.63,1782.55,454.67,1783.75,458.25Z"/><path class="cls-5" d="M1781.83,463.38s1.12-6.62-6.24-6.06c0,0-4.79-1.27-3.12,6.52,0,0-.31,4.17,5.18,3.39C1777.65,467.23,1782.16,466.54,1781.83,463.38Z"/><path class="cls-5" d="M1742.44,450.85s4-5.39-2.86-8.18c0,0-3.71-3.25-5.7,4.42,0,0-2.15,3.57,3.1,5.32C1737,452.41,1741.32,453.81,1742.44,450.85Z"/><path class="cls-9" d="M1768.18,460.54s2.46-5.4-3.81-6.8c0,0-3.7-2.3-4.11,4.8,0,0-1.22,3.5,3.54,4.23C1763.8,462.77,1767.72,463.33,1768.18,460.54Z"/><path class="cls-3" d="M1732.42,444s4.28-5.87-3.1-8.91c0,0-4-3.55-6.15,4.81,0,0-2.31,3.89,3.36,5.8C1726.53,445.71,1731.21,447.23,1732.42,444Z"/><path class="cls-5" d="M1732,443.6s4-5.43-2.89-8.23c0,0-3.73-3.28-5.73,4.44,0,0-2.16,3.59,3.13,5.35C1726.53,445.16,1730.89,446.56,1732,443.6Z"/><path class="cls-10" d="M1922.92,279.69s-14,16.14-2.47,15.34,2.61,5.75-1,4.44-10.09-1.52-8.87-5.5,7.23-15.54,9.28-15S1922.83,278,1922.92,279.69Z"/><path class="cls-10" d="M1891.21,316.35s11.7-17.9.37-15.54-3.37-5.34.36-4.53,10.2.14,9.53,4.24-5,16.39-7.15,16.14S1891.53,318,1891.21,316.35Z"/><path class="cls-10" d="M1906.29,322s.11-21.38,8.25-13.16,5.75-2.6,2.2-4-8.58-5.51-10.29-1.72-4.82,16.45-2.93,17.4S1905.11,323.17,1906.29,322Z"/><path class="cls-10" d="M1905,274.32s1.23,21.34-7.41,13.65-5.58,2.95-2,4.11,8.91,5,10.38,1.07,3.78-16.72,1.83-17.55S1906.05,273.05,1905,274.32Z"/><g class="cls-1"><path class="cls-2" d="M3759.54,400.66c45.72,214.65,287.4,313.43,468.94,250.73s301.26-177.14,265.06-388.26S4199.7-47.18,4018.71,21.66,3713.82,186,3759.54,400.66Z"/></g><g class="cls-1"><path class="cls-2" d="M3807.89,393.7C3851.76,592.52,4064.8,688,4222.33,633.51S4482.43,475.62,4447,280.24,4184.47-11.34,4027.52,48.86,3764,194.88,3807.89,393.7Z"/></g><g class="cls-1"><path class="cls-2" d="M3827.43,392.57c36.71,172.35,230.75,251.66,376.51,201.32s241.88-142.23,212.82-311.73S4180.84,33,4035.52,88.29,3790.72,220.23,3827.43,392.57Z"/></g><path class="cls-3" d="M3891.87,369.29C3924,521.53,4097.4,590.84,4228.1,545.72S4445.24,419,4419.93,269.2,4209.76,49.89,4079.43,99.37,3859.72,217.06,3891.87,369.29Z"/><path class="cls-2" d="M3901.06,369.15c30.11,144.29,197,209,323.44,165.4S4434.83,412.93,4411.31,271,4209.8,64.1,4083.72,111.85,3871,224.87,3901.06,369.15Z"/><path class="cls-3" d="M4092.59,315c-7.43-6.21-25-17.32-37.44-14.05,0,0-19.27,12.07-38.75-9.09,0,0-8.59-10.88-34.08-1.7a2.19,2.19,0,0,0,.62,4.24,58.53,58.53,0,0,0,11.64-.63s10.38-5.11,24.89,8.2c0,0,4.28,5.8,17.54,7.77a20,20,0,0,0,7.71-.46c2.24-.54,4.43-2.27,12.12-3.29,1.17-.15,3.24.23,11,1.69,2,.37,2.66,1.09,16.13,6.59,1.35.56,4.68,3.13,6.3,3.79C4091.51,318.52,4093.61,315.82,4092.59,315Z"/><path class="cls-3" d="M4085.1,298.21c-6.08-5.24-20.4-14.66-30.45-12,0,0-15.5,9.88-31.46-7.92,0,0-7.06-9.15-27.63-1.73a1.84,1.84,0,0,0,.54,3.54,46,46,0,0,0,9.43-.42s8.36-4.17,20.23,7.06c0,0,3.51,4.87,14.28,6.64a16,16,0,0,0,6.24-.32c1.8-.44,3.56-1.85,9.78-2.63,1-.12,2.63.21,8.93,1.5,1.62.33,2.16.93,13.12,5.64,1.1.47,3.82,2.65,5.14,3.21C4084.26,301.16,4085.93,298.93,4085.1,298.21Z"/><path class="cls-3" d="M4065.41,409.76s24.44,14,32.73,41.76a.44.44,0,0,1-.82.33c-.94-1.85-2.15-4.13-3.5-6.35-2.29-3.81-.79-.6-7.05-10.92,0,0-9.68-16.28-20.82-23.19S4065.41,409.76,4065.41,409.76Z"/><path class="cls-3" d="M3936.26,435.21c-1.19-3.57-.65-1.95-.35-11.95,0,0-.81-16,5-26.77"/><path class="cls-3" d="M4084.08,337.19c14.32-.11,21.54,9.63,25.46,23.5.12.44-.48,1-.82.15-2.24-5.38-3.09-10.1-8.22-14-11.37-8.66-12.34-7.27-16.5-8.49C4083.17,338.1,4082,337.2,4084.08,337.19Z"/><path class="cls-3" d="M4106.53,383.46c-13.13,10.69-31.29,9.4-51.26,2.86-.63-.21-.69-1,.58-.71,8.41,2,14.56,3.89,24.11,3.45,8.9-.41,17.87-3.81,25.27-6.44C4106.34,382.23,4108.39,381.94,4106.53,383.46Z"/><path class="cls-3" d="M4036.1,351.84c3.64-14.42,15.9-20,31.7-21.67.5-.05.89.65-.06.85-6.31,1.36-11.12,2-17.07,5.92-5.54,3.69-9.78,10.06-13.36,15.16C4036.77,352.87,4035.58,353.88,4036.1,351.84Z"/><path class="cls-3" d="M4001,319c6,13,.06,23.61-11,32.87-.35.29-1.07,0-.47-.68,4-4.26,7.27-7.16,9.39-13.25,2-5.67,1.34-12.76,1-18.54C3999.81,318.51,4000.1,317.12,4001,319Z"/><path class="cls-3" d="M3986.54,350.12c-6.9,9.79-18.89,11.57-32.84,9.77-.44-.05-.6-.63.26-.6,5.77.2,10.05.66,16.18-1.09,5.72-1.64,11-5.47,15.43-8.5C3986.23,349.25,3987.51,348.74,3986.54,350.12Z"/><path class="cls-3" d="M3939.76,347c-8.85-8.06-9.13-20.17-5.63-33.81.11-.43.7-.52.57.34-.92,5.7-1.9,9.89-.92,16.2.91,5.87,4,11.61,6.51,16.36C3940.66,346.82,3941,348.16,3939.76,347Z"/><path class="cls-4" d="M3937.82,333.08C3931.35,317.83,3930,317,3961,312c6.41-1,14.12-2.35,19,2.36,6.94,6.7,14.45,1,18.19,12.13a15.74,15.74,0,0,1-5.3,17.52,56.61,56.61,0,0,1-18.88,9.13C3959.24,356.82,3944.3,348.34,3937.82,333.08Z"/><path class="cls-5" d="M3939.23,332.63c-6.25-14.32-4.33-13.46,25.5-18.17,6.17-1,10.54,3.59,19,7s9,1.43,12.57,11.84c2.1,6-3.7,9.33-4.06,9.63-5.34,4.54-10.7,6.73-18.15,8.55C3959.88,354.93,3945.48,347,3939.23,332.63Z"/><path class="cls-3" d="M3981.53,334.24c.19-.05.16-.22.38-.12s.09.69,0,.95a5,5,0,0,0-.42,1.31c0,.87.69,1.18,1.38.55a8,8,0,0,0,.92-1.09,2,2,0,0,1,1.3-.76,8,8,0,0,0,1.15-.05,1.32,1.32,0,0,0,1.06-1.69,8.71,8.71,0,0,0-.41-.79,1.05,1.05,0,0,1,.39-1.07,12.2,12.2,0,0,0,1-.81c.56-.6.34-1.5-.61-1.42a5.82,5.82,0,0,0-1.28.42c-.33.13-.87.16-1-.19a4.14,4.14,0,0,1,0-1c0-.71-.6-1.19-1.25-.75-.25.17-.41.47-.69.68s-.52-.07-.64-.37a4.22,4.22,0,0,0-.46-1c-.55-.69-1.31-.15-1.35.57a5.31,5.31,0,0,0,.11,1.15.75.75,0,0,1-.4.83c-.3.09-.63.09-.84.16-.56.19-1.8,1.29-1.4,1.85.16.22,1,.26,1.32.31s.75.31.68.62a3.85,3.85,0,0,0-.1.81A1,1,0,0,0,3981.53,334.24Z"/><path class="cls-3" d="M4085.32,354.87c11,10.3,32.62,13.69,5.83,28.9a22,22,0,0,1-18.21,1.57c-8.57-3.07-21.08-8.56-28.16-16.39a13.13,13.13,0,0,1-.91-16.36c3.08-4.33,3.28-4.87,10.16-8.55C4066.74,337.26,4074.35,344.56,4085.32,354.87Z"/><path class="cls-5" d="M4084.11,355.43c10.63,9.79,31.43,13.55,5.2,28.28-5.43,3.05-10.74,2.15-16.61.13-8.34-2.88-20.5-8-27.35-15.5-4-4.32-4.57-11.14-.78-15.65,3.47-4.11-.7-.1,5.59-5.51C4061.16,337.71,4073.48,345.64,4084.11,355.43Z"/><path class="cls-3" d="M4063.91,363.86c.27-.06.23-.32.56-.17s.13,1,0,1.38a7.45,7.45,0,0,0-.6,1.87c0,1.26,1,1.71,2,.81a13.13,13.13,0,0,0,1.34-1.58,2.93,2.93,0,0,1,1.88-1.08,10.73,10.73,0,0,0,1.68-.07,1.86,1.86,0,0,0,1.53-2.42c-.13-.42-.38-.66-.59-1.15a1.48,1.48,0,0,1,.55-1.53c.43-.35,1.11-.83,1.42-1.16.81-.86.48-2.17-.91-2.06a8.88,8.88,0,0,0-1.85.6c-.49.19-1.27.23-1.4-.27a5.62,5.62,0,0,1,0-1.38c0-1-.87-1.71-1.81-1.08-.36.24-.61.68-1,1s-.75-.1-.93-.54a6.34,6.34,0,0,0-.68-1.5c-.81-1-1.91-.22-2,.82a6.92,6.92,0,0,0,.16,1.65,1.06,1.06,0,0,1-.58,1.2c-.43.13-.91.12-1.22.23-.82.27-2.61,1.84-2,2.66.22.32,1.41.38,1.91.45s1.1.45,1,.9a5.49,5.49,0,0,0-.14,1.17A1.41,1.41,0,0,0,4063.91,363.86Z"/><path class="cls-3" d="M4082.66,466.12s-25.18-70.85-90.85-68.95c0,0-37.64-.23-34.48,40,0,0,7.31,47.24,72,42.33C4029.3,479.53,4066.12,478.36,4082.66,466.12Z"/><path class="cls-6" d="M4081.17,463.37s-23.36-65.64-85.7-63.37c0,0-35.73.07-33,37.46,0,0,6.59,43.83,68,38.78C4030.42,476.24,4065.39,474.87,4081.17,463.37Z"/><path class="cls-3" d="M3973.67,441c.8-1,32.41-12.91,36.66-18.19.69-.86,2.44-3.26.49-3.87s-2.53-.27-4.18.8c-16.48,10.61-15.45,12.23-32.49-1.32-2.44-1.94-.12-9.55-8.62-10.45s-20.8,10-33.36,25.61c-4.79,5.93-61.87-7-43-21.23a5,5,0,0,1,6.24.18c40,33.71,22.55-7.93,57.6-12.87,27-3.8,29.26,15.51,51.42,6.1,10.17-4.32,7.12-4.28,13.9.87,13.42,10.19,27.58,39.3,26.74,53.63C4043.78,482.21,3966.44,449.86,3973.67,441Z"/><path class="cls-7" d="M3975,441.07c.78-1,31.84-12.52,35.95-17.92.67-.87,2.89-3.62.77-4.48s-3.46-.95-5.45.33c-15.74,10.11-15.41,12.88-31.27-1.45-2.27-2.06.17-6.18-5.56-10.6s-20.2,6.27-29.56,17.24c-21.27,24.94-58.87-6.63-46.77-12.23,40.87,40.21,28.07-9.71,64.6-11.92,27.53-1.66,23.56,18.12,47,6.4,10.78-5.39,6.37-4.44,13.18.87,13.5,10.5,27.07,39,26.29,53C4043.05,481.81,3968,450.27,3975,441.07Z"/><path class="cls-3" d="M4018.43,402.11a122.55,122.55,0,0,0-21.16-3.54c1.6,8.07,9.71,11.28,9.65,11.26,15.54,6.57,23.41,2.92,27.35-1.35C4029,406.11,4023.88,403.64,4018.43,402.11Z"/><path class="cls-8" d="M4052,473.9a22.44,22.44,0,0,0,4-8.61,4.76,4.76,0,0,0-6.61-5.1c-6.46,2.8-17.91,6.74-25.44,3.54,0,0-26.71-6-45-21.5,0,0-11.13-10.34-15.3-15.71-1-1.32.47-1.85-.71-.65-2.88,2.95-6.17,7.82-.65,16a53.92,53.92,0,0,0,15.79,22c7.88,6.37,20.86,10.57,31.72,12.87,0,0,6,.44,12.84,1.12C4033.65,479,4046.44,475.91,4052,473.9Z"/><path class="cls-8" d="M4018.43,402.11a114.56,114.56,0,0,0-18.89-3.32c1.68,7.34,8.88,10.31,8.88,10.31,14.23,6.29,21.63,3,25.22-.91A103.29,103.29,0,0,0,4018.43,402.11Z"/><path class="cls-3" d="M4005.73,412.6c.05,0,5.61-4.21-.12-9.22,0,0-2.53-4.48-6.93,2.7,0,0-3.22,2.95,1.28,6.39C4000,412.47,4003.7,415.25,4005.73,412.6Z"/><path class="cls-5" d="M4005.48,412.22s5.13-3.89-.12-8.46c0,0-2.33-4.12-6.38,2.47,0,0-3,2.71,1.19,5.86C4000.17,412.09,4003.61,414.65,4005.48,412.22Z"/><path class="cls-3" d="M4022.83,418.94s3.19-8.61-6-11c0,0-5.53-3.79-5.6,7.62,0,0-1.52,5.59,5.42,6.86C4016.65,422.43,4022.38,423.41,4022.83,418.94Z"/><path class="cls-5" d="M4022.06,418.9s2.79-8.11-5.58-10.47c0,0-5.06-3.65-5,7.14,0,0-1.31,5.27,5,6.55C4016.49,422.12,4021.69,423.12,4022.06,418.9Z"/><path class="cls-3" d="M3969.46,432.77s4.79-6.52-3.46-9.88c0,0-4.47-3.94-6.87,5.33,0,0-2.58,4.31,3.75,6.43C3962.88,434.65,3968.11,436.33,3969.46,432.77Z"/><path class="cls-5" d="M3969.13,432.46s4.45-6-3.21-9.17c0,0-4.16-3.65-6.39,4.95,0,0-2.41,4,3.48,6C3963,434.21,3967.88,435.77,3969.13,432.46Z"/><path class="cls-3" d="M4033.09,458.41s.46,8.18,8.83,6.86c0,0,5.86,1.13,1.87-8.23,0,0-.75-5.12-6.88-3.68C4036.91,453.36,4031.88,454.59,4033.09,458.41Z"/><path class="cls-3" d="M4032.24,463.5s1.21-7.18-6.77-6.59c0,0-5.17-1.38-3.35,7.07,0,0-.33,4.52,5.6,3.68C4027.72,467.66,4032.6,466.92,4032.24,463.5Z"/><path class="cls-3" d="M4004.64,457.36s4.36-5.8-3.13-8.77c0,0-4.06-3.49-6.26,4.75,0,0-2.36,3.83,3.4,5.7C3998.65,459,4003.41,460.53,4004.64,457.36Z"/><path class="cls-3" d="M3992.93,451.2s4.43-5.7-3.14-8.6c0,0-4.11-3.41-6.35,4.68,0,0-2.4,3.77,3.43,5.59C3986.87,452.87,3991.68,454.32,3992.93,451.2Z"/><path class="cls-3" d="M4018.55,460.36s2.84-5.92-4.23-7.39c0,0-4.15-2.49-4.67,5.28,0,0-1.42,3.84,3.94,4.59C4013.59,462.84,4018,463.41,4018.55,460.36Z"/><path class="cls-5" d="M4004.17,457s4-5.38-2.85-8.15c0,0-3.69-3.24-5.68,4.4,0,0-2.13,3.56,3.1,5.3C3998.74,458.53,4003.06,459.92,4004.17,457Z"/><path class="cls-5" d="M4033.75,458.25s.61,7.63,8.29,6.58c0,0,5.44,1.18,1.54-7.62,0,0-.8-4.78-6.42-3.58C4037.16,453.63,4032.55,454.67,4033.75,458.25Z"/><path class="cls-5" d="M4031.83,463.38s1.12-6.62-6.24-6.06c0,0-4.79-1.27-3.12,6.52,0,0-.31,4.17,5.18,3.39C4027.65,467.23,4032.16,466.54,4031.83,463.38Z"/><path class="cls-5" d="M3992.44,450.85s4-5.39-2.86-8.18c0,0-3.71-3.25-5.7,4.42,0,0-2.15,3.57,3.1,5.32C3987,452.41,3991.32,453.81,3992.44,450.85Z"/><path class="cls-9" d="M4018.18,460.54s2.46-5.4-3.81-6.8c0,0-3.7-2.3-4.11,4.8,0,0-1.22,3.5,3.54,4.23C4013.8,462.77,4017.72,463.33,4018.18,460.54Z"/><path class="cls-3" d="M3982.42,444s4.28-5.87-3.1-8.91c0,0-4-3.55-6.15,4.81,0,0-2.31,3.89,3.36,5.8C3976.53,445.71,3981.21,447.23,3982.42,444Z"/><path class="cls-5" d="M3982,443.6s4-5.43-2.89-8.23c0,0-3.73-3.28-5.73,4.44,0,0-2.16,3.59,3.13,5.35C3976.53,445.16,3980.89,446.56,3982,443.6Z"/><path class="cls-10" d="M4172.92,279.69s-14,16.14-2.47,15.34,2.61,5.75-1,4.44-10.09-1.52-8.87-5.5,7.23-15.54,9.28-15S4172.83,278,4172.92,279.69Z"/><path class="cls-10" d="M4141.21,316.35s11.7-17.9.37-15.54-3.37-5.34.36-4.53,10.2.14,9.53,4.24-5,16.39-7.15,16.14S4141.53,318,4141.21,316.35Z"/><path class="cls-10" d="M4156.29,322s.11-21.38,8.25-13.16,5.75-2.6,2.2-4-8.58-5.51-10.29-1.72-4.82,16.45-2.93,17.4S4155.11,323.17,4156.29,322Z"/><path class="cls-10" d="M4155,274.32s1.23,21.34-7.41,13.65-5.58,2.95-1.95,4.11,8.91,5,10.38,1.07,3.78-16.72,1.83-17.55S4156.05,273.05,4155,274.32Z"/><g class="cls-1"><path class="cls-2" d="M4509.54,393c45.72,214.65,287.4,313.43,468.94,250.73s301.26-177.14,265.06-388.25S4949.7-54.89,4768.71,14,4463.82,178.29,4509.54,393Z"/></g><g class="cls-1"><path class="cls-2" d="M4557.89,386c43.87,198.83,256.91,294.34,414.44,239.82s260.1-157.9,224.62-353.28S4934.47-19,4777.52,41.16,4514,187.17,4557.89,386Z"/></g><g class="cls-1"><path class="cls-2" d="M4577.43,384.87c36.71,172.34,230.75,251.65,376.51,201.31S5195.82,444,5166.76,274.45,4930.84,25.3,4785.52,80.58,4540.72,212.52,4577.43,384.87Z"/></g><path class="cls-3" d="M4641.87,361.58C4674,513.82,4847.4,583.13,4978.1,538s217.14-126.77,191.83-276.52S4959.76,42.18,4829.43,91.66,4609.72,209.35,4641.87,361.58Z"/><path class="cls-2" d="M4651.06,361.45c30.11,144.28,197,209,323.44,165.39s210.33-121.62,186.81-263.59S4959.8,56.39,4833.72,104.14,4621,217.16,4651.06,361.45Z"/><path class="cls-3" d="M4842.59,307.26c-7.43-6.21-25-17.31-37.44-14.05,0,0-19.27,12.07-38.75-9.08,0,0-8.59-10.88-34.08-1.71a2.19,2.19,0,0,0,.62,4.24,58.53,58.53,0,0,0,11.64-.63s10.38-5.11,24.89,8.2c0,0,4.28,5.8,17.54,7.78a20.25,20.25,0,0,0,7.71-.47c2.24-.54,4.43-2.27,12.12-3.28,1.17-.16,3.24.22,11,1.68,2,.37,2.66,1.09,16.13,6.6,1.35.55,4.68,3.12,6.3,3.78C4841.51,310.82,4843.61,308.11,4842.59,307.26Z"/><path class="cls-3" d="M4835.1,290.5c-6.08-5.24-20.4-14.65-30.45-12,0,0-15.5,9.88-31.46-7.92,0,0-7.06-9.15-27.63-1.73a1.85,1.85,0,0,0,.54,3.55,46.14,46.14,0,0,0,9.43-.43s8.36-4.16,20.23,7.06c0,0,3.51,4.88,14.28,6.64a15.82,15.82,0,0,0,6.24-.32c1.8-.43,3.56-1.85,9.78-2.63.95-.12,2.63.21,8.93,1.5,1.62.33,2.16.93,13.12,5.64,1.1.47,3.82,2.65,5.14,3.21C4834.26,293.46,4835.93,291.22,4835.1,290.5Z"/><path class="cls-3" d="M4815.41,402.06s24.44,14,32.73,41.75a.44.44,0,0,1-.82.33c-.94-1.85-2.15-4.12-3.5-6.35-2.29-3.81-.79-.6-7-10.92,0,0-9.68-16.28-20.82-23.19S4815.41,402.06,4815.41,402.06Z"/><path class="cls-3" d="M4709.66,422.55s55-12.93,113.8,11.79c1.09.46.7,1.75-.44,1.45-4.41-1.17-9.9-2.52-15.46-3.66-9.54-1.94-2.05.24-27.88-5,0,0-40.56-8.47-66.49-3.23S4709.66,422.55,4709.66,422.55Z"/><path class="cls-3" d="M4686.26,427.5c-1.19-3.56-.65-1.95-.35-11.95,0,0-.81-16,5-26.77"/><path class="cls-3" d="M4834.08,329.48c14.32-.11,21.54,9.63,25.46,23.5.12.44-.48,1-.82.15-2.24-5.38-3.09-10.1-8.22-14-11.37-8.66-12.34-7.27-16.5-8.49C4833.17,330.39,4832,329.49,4834.08,329.48Z"/><path class="cls-3" d="M4856.53,375.75c-13.13,10.69-31.29,9.4-51.26,2.86-.63-.2-.69-1,.58-.71,8.41,2,14.56,3.89,24.11,3.45,8.9-.41,17.87-3.81,25.27-6.44C4856.34,374.52,4858.39,374.24,4856.53,375.75Z"/><path class="cls-3" d="M4786.1,344.13c3.64-14.42,15.9-20,31.7-21.67.5,0,.89.65-.06.85-6.31,1.36-11.12,2-17.07,5.92-5.54,3.69-9.78,10.06-13.36,15.16C4786.77,345.16,4785.58,346.17,4786.1,344.13Z"/><path class="cls-3" d="M4842.92,361.14c-9.26-11.63-22.75-11.71-37.81-6.68-.48.16-.55,1,.4.75,6.31-1.36,10.94-2.79,18-1.64,6.57,1.08,13.06,5.14,18.43,8.31C4842.73,362.36,4844.23,362.79,4842.92,361.14Z"/><path class="cls-3" d="M4751,311.26c6,13,.06,23.61-11,32.87-.35.3-1.07,0-.47-.68,4-4.26,7.27-7.16,9.39-13.25,2-5.67,1.34-12.76,1-18.53C4749.81,310.8,4750.1,309.41,4751,311.26Z"/><path class="cls-3" d="M4736.54,342.42c-6.9,9.78-18.89,11.56-32.84,9.76-.44-.05-.6-.63.26-.6,5.77.2,10.05.66,16.18-1.09,5.72-1.63,11-5.46,15.43-8.49C4736.23,341.54,4737.51,341,4736.54,342.42Z"/><path class="cls-3" d="M4689.76,339.31c-8.85-8.06-9.13-20.18-5.63-33.82.11-.43.7-.51.57.34-.92,5.7-1.9,9.89-.92,16.2.91,5.88,4.05,11.62,6.51,16.37C4690.66,339.11,4691,340.45,4689.76,339.31Z"/><path class="cls-3" d="M4699.38,331.9c8.05-8.86,20.17-9.17,33.81-5.69.43.11.52.7-.34.57-5.7-.9-9.89-1.88-16.2-.89-5.87.92-11.61,4.08-16.35,6.54C4699.58,332.8,4698.24,333.16,4699.38,331.9Z"/><path class="cls-10" d="M4922.92,272s-14,16.14-2.47,15.34,2.61,5.75-1,4.44-10.09-1.52-8.87-5.49,7.23-15.55,9.28-15S4922.83,270.31,4922.92,272Z"/><path class="cls-10" d="M4891.21,308.64s11.7-17.89.37-15.53-3.37-5.34.36-4.54,10.2.14,9.53,4.24-5,16.39-7.15,16.14S4891.53,310.29,4891.21,308.64Z"/><path class="cls-10" d="M4906.29,314.27s.11-21.38,8.25-13.16,5.75-2.6,2.2-4-8.58-5.51-10.29-1.72-4.82,16.45-2.93,17.4S4905.11,315.47,4906.29,314.27Z"/><path class="cls-10" d="M4905,266.61s1.23,21.35-7.41,13.65-5.58,3-1.95,4.11,8.91,5,10.38,1.08,3.78-16.73,1.83-17.56S4906.05,265.34,4905,266.61Z"/><g class="cls-1"><path class="cls-2" d="M2259.54,400.66c45.72,214.65,287.4,313.43,468.94,250.73s301.26-177.14,265.06-388.26S2699.7-47.18,2518.71,21.66,2213.82,186,2259.54,400.66Z"/></g><g class="cls-1"><path class="cls-2" d="M2307.89,393.7C2351.76,592.52,2564.8,688,2722.33,633.51S2982.43,475.62,2947,280.24,2684.47-11.34,2527.52,48.86,2264,194.88,2307.89,393.7Z"/></g><g class="cls-1"><path class="cls-2" d="M2327.43,392.57c36.71,172.35,230.75,251.66,376.51,201.32s241.88-142.23,212.82-311.73S2680.84,33,2535.52,88.29,2290.72,220.23,2327.43,392.57Z"/></g><path class="cls-3" d="M2391.87,369.29C2424,521.53,2597.4,590.84,2728.1,545.72S2945.24,419,2919.93,269.2,2709.76,49.89,2579.43,99.37,2359.72,217.06,2391.87,369.29Z"/><path class="cls-2" d="M2401.06,369.15c30.11,144.29,197,209,323.44,165.4S2934.83,412.93,2911.31,271,2709.8,64.1,2583.72,111.85,2371,224.87,2401.06,369.15Z"/><path class="cls-3" d="M2588.67,315c-7.43-6.21-25-17.32-37.44-14.05,0,0-19.26,12.07-38.74-9.09,0,0-8.59-10.88-34.09-1.7a2.19,2.19,0,0,0,.62,4.24,58.59,58.59,0,0,0,11.65-.63s10.37-5.11,24.88,8.2c0,0,4.28,5.8,17.55,7.77a20.06,20.06,0,0,0,7.71-.46c2.23-.54,4.43-2.27,12.11-3.29,1.17-.15,3.24.23,11,1.69,2,.37,2.67,1.09,16.13,6.59,1.36.56,4.68,3.13,6.31,3.79C2587.59,318.52,2589.69,315.82,2588.67,315Z"/><path class="cls-3" d="M2581.18,298.21c-6.07-5.24-20.39-14.66-30.45-12,0,0-15.49,9.88-31.46-7.92,0,0-7.05-9.15-27.62-1.73a1.84,1.84,0,0,0,.54,3.54,45.89,45.89,0,0,0,9.42-.42s8.36-4.17,20.23,7.06c0,0,3.52,4.87,14.28,6.64a16,16,0,0,0,6.24-.32c1.81-.44,3.57-1.85,9.79-2.63.94-.12,2.62.21,8.92,1.5,1.62.33,2.17.93,13.13,5.64,1.1.47,3.81,2.65,5.13,3.21C2580.34,301.16,2582,298.93,2581.18,298.21Z"/><path class="cls-3" d="M2561.49,409.76s24.44,14,32.73,41.76a.44.44,0,0,1-.82.33c-.94-1.85-2.15-4.13-3.49-6.35-2.3-3.81-.8-.6-7-10.92,0,0-9.69-16.28-20.82-23.19S2561.49,409.76,2561.49,409.76Z"/><path class="cls-3" d="M2432.35,435.21c-1.19-3.57-.65-1.95-.36-11.95,0,0-.8-16,5-26.77"/><path class="cls-3" d="M2585.84,343.69c13.8,3.84,18.06,15.2,18,29.61,0,.46-.72.79-.82-.08-.68-5.79-.78-10.18-4.05-15.73-3-5.17-8.87-9.26-13.52-12.71C2584.76,344.27,2583.88,343.15,2585.84,343.69Z"/><path class="cls-3" d="M2601.54,382.65c-15.54,6.7-32.66.52-50.1-11.22-.55-.37-.38-1.16.75-.53,7.55,4.22,12.95,7.72,22.26,9.9,8.68,2,18.23,1.19,26.07.69C2601.7,381.41,2603.74,381.7,2601.54,382.65Z"/><path class="cls-3" d="M2538.45,355.5c3.64-14.41,15.9-20,31.7-21.66.5,0,.89.64-.05.85-6.32,1.36-11.12,2-17.07,5.92-5.55,3.68-9.79,10.06-13.37,15.16C2539.12,356.53,2537.93,357.55,2538.45,355.5Z"/><path class="cls-3" d="M2458.06,314.05c14-3.16,23.12,4.81,29.91,17.51.21.4-.27,1-.77.33-3.34-4.78-5.51-8.59-11-11.93-5.14-3.1-12.22-3.93-17.94-4.76C2457.38,315.07,2456.08,314.5,2458.06,314.05Z"/><path class="cls-3" d="M2485.47,340.32c-6.9,9.78-18.88,11.56-32.84,9.76-.44-.05-.6-.63.27-.6,5.76.2,10,.66,16.17-1.09,5.72-1.63,11-5.46,15.43-8.49C2485.16,339.44,2486.45,338.93,2485.47,340.32Z"/><path class="cls-3" d="M2440.46,344.28c-8.85-5.4-9.15-13.51-5.66-22.62.11-.29.7-.35.57.22-.91,3.82-1.89,6.62-.91,10.84.93,3.93,4.08,7.77,6.54,10.95C2441.37,344.15,2441.72,345.05,2440.46,344.28Z"/><path class="cls-3" d="M2578.53,465.49s-33-94.11-100.6-98.1c0,0-38.91-4-31.69,48.39,0,0,12.19,61.82,78.49,61.81C2524.73,477.59,2562.66,479.69,2578.53,465.49Z"/><path class="cls-6" d="M2576.43,464.64s-31.87-91-97.26-94.84c0,0-37.61-3.86-30.64,46.78,0,0,11.8,59.77,75.89,59.76C2524.42,476.34,2561.09,478.37,2576.43,464.64Z"/><path class="cls-3" d="M2515,380.72s-3,20.53-31.17,8.6c0,0-13.78-5.39-8.93-20a59.79,59.79,0,0,1,21,3.2S2507.49,374.6,2515,380.72Z"/><path class="cls-3" d="M2471.59,441.22c.82-1.3,30.78-11.87,34.6-17.52.62-.92,2.87-3.45.75-3.92s-2.64,0-4.32,1c-16.76,10.51-16.54,13-33.9-.77-2.5-2,.14-9.13-8.33-10.05s-20.73,7.55-35.62,7.74c-5.67.07-43.84,7.48-40.54-3.32.33-1.06,2.67-4,3.24-4.07,13-1.94,47-10.23,64.15-9.75,13.2.38,31.6,14.57,48.32,6.37,7.68-3.76,7.64-4.6,14.35.32,13.29,9.74,28.09,36.58,26.21,51.66C2537.62,482,2464.14,453,2471.59,441.22Z"/><path class="cls-7" d="M2472.88,441.3c.81-1.34,30.3-11.56,34-17.35.6-.95,3.33-3.84,1-4.53s-3.58-.65-5.59.66c-15.9,10.38-16.7,13.23-32.38-.69-2.25-2-1.25-7.13-5.33-10.31s-24.37,5.94-29.14,6.59-34.35,2.41-42.75,2.54c-4.8.07-6.71-6.12-2.06-7.34,14.31-3.74,52-9.8,65.06-9.09,15.33.83,26.67,16.52,44.57,5.87,8.22-4.89,7-4.68,13.65.26,13.21,9.79,27.55,36.23,25.8,51.06C2537,481.66,2465.59,453.33,2472.88,441.3Z"/><path class="cls-8" d="M2549,475.09a51.21,51.21,0,0,0,3.08-9.8,4.76,4.76,0,0,0-6.6-5.1c-6.47,2.8-17.91,6.74-25.45,3.54,0,0-26.7-6-45-21.5,0,0-11.13-10.34-15.3-15.71a2.83,2.83,0,0,0-4.2-.4c-2.89,2.94-2.52,6.28,3,14.48a79.42,79.42,0,0,0,17.6,20.14,73.08,73.08,0,0,0,29.7,13.74,107.13,107.13,0,0,0,11,1.57C2527.88,477.14,2543.46,477.09,2549,475.09Z"/><path class="cls-8" d="M2513.8,380.79s-2.53,19.25-28.48,7.81c0,0-12.67-5.19-8.35-18.86a53.94,53.94,0,0,1,19.3,3.19S2506.84,375,2513.8,380.79Z"/><path class="cls-3" d="M2482.67,392.09s5.57-4.24-.13-9.22c0,0-2.52-4.48-6.92,2.7,0,0-3.23,3,1.28,6.39C2476.9,392,2480.63,394.74,2482.67,392.09Z"/><path class="cls-5" d="M2482.38,391.71s5.13-3.88-.12-8.46c0,0-2.33-4.12-6.38,2.47,0,0-3,2.71,1.19,5.86C2477.07,391.58,2480.51,394.14,2482.38,391.71Z"/><path class="cls-3" d="M2499.77,398.44s3.18-8.62-6-11c0,0-5.52-3.79-5.6,7.62,0,0-1.52,5.59,5.43,6.87C2493.59,401.93,2499.31,402.91,2499.77,398.44Z"/><path class="cls-5" d="M2499,398.39s2.79-8.11-5.58-10.47c0,0-5.05-3.65-5,7.14,0,0-1.31,5.27,5,6.55C2493.4,401.61,2498.6,402.61,2499,398.39Z"/><path class="cls-3" d="M2465.55,432.77s4.78-6.52-3.46-9.88c0,0-4.47-3.94-6.87,5.33,0,0-2.59,4.31,3.75,6.43C2459,434.65,2464.2,436.33,2465.55,432.77Z"/><path class="cls-5" d="M2465.21,432.46s4.45-6-3.21-9.17c0,0-4.16-3.65-6.39,4.95,0,0-2.4,4,3.48,6C2459.09,434.21,2464,435.77,2465.21,432.46Z"/><path class="cls-3" d="M2529.18,458.41s.46,8.18,8.82,6.86c0,0,5.87,1.13,1.87-8.23,0,0-.74-5.12-6.88-3.68C2533,453.36,2528,454.59,2529.18,458.41Z"/><path class="cls-3" d="M2528.33,463.5s1.2-7.18-6.77-6.59c0,0-5.18-1.38-3.36,7.07,0,0-.33,4.52,5.61,3.68C2523.81,467.66,2528.68,466.92,2528.33,463.5Z"/><path class="cls-3" d="M2500.73,457.36s4.36-5.8-3.13-8.77c0,0-4.06-3.49-6.26,4.75,0,0-2.36,3.83,3.4,5.7C2494.74,459,2499.49,460.53,2500.73,457.36Z"/><path class="cls-3" d="M2489,451.2s4.43-5.7-3.15-8.6c0,0-4.1-3.41-6.35,4.68,0,0-2.39,3.77,3.43,5.59C2483,452.87,2487.76,454.32,2489,451.2Z"/><path class="cls-3" d="M2514.64,460.36s2.83-5.92-4.23-7.39c0,0-4.15-2.49-4.68,5.28,0,0-1.41,3.84,3.95,4.59C2509.68,462.84,2514.1,463.41,2514.64,460.36Z"/><path class="cls-5" d="M2500.26,457s3.95-5.38-2.86-8.15c0,0-3.69-3.24-5.67,4.4,0,0-2.14,3.56,3.09,5.3C2494.82,458.53,2499.14,459.92,2500.26,457Z"/><path class="cls-5" d="M2529.84,458.25s.6,7.63,8.29,6.58c0,0,5.43,1.18,1.54-7.62,0,0-.8-4.78-6.42-3.58C2533.25,453.63,2528.64,454.67,2529.84,458.25Z"/><path class="cls-5" d="M2527.91,463.38s1.13-6.62-6.24-6.06c0,0-4.78-1.27-3.11,6.52,0,0-.31,4.17,5.17,3.39C2523.73,467.23,2528.24,466.54,2527.91,463.38Z"/><path class="cls-5" d="M2488.53,450.85s4-5.39-2.87-8.18c0,0-3.71-3.25-5.7,4.42,0,0-2.15,3.57,3.11,5.32C2483.07,452.41,2487.41,453.81,2488.53,450.85Z"/><path class="cls-9" d="M2514.26,460.54s2.47-5.4-3.81-6.8c0,0-3.7-2.3-4.1,4.8,0,0-1.23,3.5,3.53,4.23C2509.88,462.77,2513.8,463.33,2514.26,460.54Z"/><path class="cls-3" d="M2478.5,444s4.28-5.87-3.1-8.91c0,0-4-3.55-6.14,4.81,0,0-2.32,3.89,3.35,5.8C2472.61,445.71,2477.3,447.23,2478.5,444Z"/><path class="cls-5" d="M2478.1,443.6s4-5.43-2.88-8.23c0,0-3.73-3.28-5.73,4.44,0,0-2.16,3.59,3.12,5.35C2472.61,445.16,2477,446.56,2478.1,443.6Z"/><path class="cls-10" d="M2669,279.69s-14,16.14-2.48,15.34,2.61,5.75-1,4.44-10.08-1.52-8.86-5.5,7.22-15.54,9.27-15S2668.92,278,2669,279.69Z"/><path class="cls-10" d="M2637.3,316.35s11.69-17.9.37-15.54-3.37-5.34.35-4.53,10.2.14,9.53,4.24-5,16.39-7.14,16.14S2637.62,318,2637.3,316.35Z"/><path class="cls-10" d="M2652.37,322s.11-21.38,8.26-13.16,5.75-2.6,2.19-4-8.58-5.51-10.28-1.72-4.83,16.45-2.93,17.4S2651.2,323.17,2652.37,322Z"/><path class="cls-10" d="M2651,274.32s1.23,21.34-7.42,13.65-5.58,2.95-1.94,4.11,8.91,5,10.37,1.07,3.79-16.72,1.84-17.55S2652.13,273.05,2651,274.32Z"/><path class="cls-4" d="M2477.09,336.29c-7.5-6.74-25-4-34.62-2.76a3.49,3.49,0,0,1-3.75-3.17h0c-.17-1.92,3.79-1.46,5.84-1.91a42.62,42.62,0,0,1,31.32,4.53c1.83,1.07,6.73,2.41,5.88,4h0C2480.91,338.61,2478.5,337.56,2477.09,336.29Z"/><path class="cls-4" d="M2588.53,368.61c-4.66-10.53-25.08-11.62-36.11-12.57-2.08-.18-3.23-2.53-2.43-5h0c.8-2.48,4.86-.86,7.31-.9,13-.25,24,4.29,31.62,14,1.44,1.82,6.06,4.82,4.31,6.64h0C2591.48,372.56,2589.41,370.6,2588.53,368.61Z"/><g class="cls-1"><path class="cls-2" d="M3009.54,400.66c45.72,214.65,287.4,313.43,468.94,250.73s301.26-177.14,265.06-388.26S3449.7-47.18,3268.71,21.66,2963.82,186,3009.54,400.66Z"/></g><g class="cls-1"><path class="cls-2" d="M3057.89,393.7C3101.76,592.52,3314.8,688,3472.33,633.51S3732.43,475.62,3697,280.24,3434.47-11.34,3277.52,48.86,3014,194.88,3057.89,393.7Z"/></g><g class="cls-1"><path class="cls-2" d="M3077.43,392.57c36.71,172.35,230.75,251.66,376.51,201.32s241.88-142.23,212.82-311.73S3430.84,33,3285.52,88.29,3040.72,220.23,3077.43,392.57Z"/></g><path class="cls-3" d="M3141.87,369.29C3174,521.53,3347.4,590.84,3478.1,545.72S3695.24,419,3669.93,269.2,3459.76,49.89,3329.43,99.37,3109.72,217.06,3141.87,369.29Z"/><path class="cls-2" d="M3151.06,369.15c30.11,144.29,197,209,323.44,165.4S3684.83,412.93,3661.31,271,3459.8,64.1,3333.72,111.85,3121,224.87,3151.06,369.15Z"/><path class="cls-3" d="M3338.67,315c-7.43-6.21-25-17.32-37.44-14.05,0,0-19.26,12.07-38.74-9.09,0,0-8.59-10.88-34.09-1.7a2.19,2.19,0,0,0,.62,4.24,58.59,58.59,0,0,0,11.65-.63s10.37-5.11,24.88,8.2c0,0,4.28,5.8,17.55,7.77a20.06,20.06,0,0,0,7.71-.46c2.23-.54,4.43-2.27,12.11-3.29,1.17-.15,3.24.23,11,1.69,2,.37,2.67,1.09,16.13,6.59,1.36.56,4.68,3.13,6.31,3.79C3337.59,318.52,3339.69,315.82,3338.67,315Z"/><path class="cls-3" d="M3331.18,298.21c-6.07-5.24-20.39-14.66-30.45-12,0,0-15.49,9.88-31.46-7.92,0,0-7.05-9.15-27.62-1.73a1.84,1.84,0,0,0,.54,3.54,45.89,45.89,0,0,0,9.42-.42s8.36-4.17,20.23,7.06c0,0,3.52,4.87,14.28,6.64a16,16,0,0,0,6.24-.32c1.81-.44,3.57-1.85,9.79-2.63.94-.12,2.62.21,8.92,1.5,1.62.33,2.17.93,13.13,5.64,1.1.47,3.81,2.65,5.13,3.21C3330.34,301.16,3332,298.93,3331.18,298.21Z"/><path class="cls-3" d="M3311.49,409.76s24.44,14,32.73,41.76a.44.44,0,0,1-.82.33c-.94-1.85-2.15-4.13-3.49-6.35-2.3-3.81-.8-.6-7-10.92,0,0-9.69-16.28-20.82-23.19S3311.49,409.76,3311.49,409.76Z"/><path class="cls-3" d="M3182.35,435.21c-1.19-3.57-.65-1.95-.36-11.95,0,0-.8-16,5-26.77"/><path class="cls-3" d="M3335.84,343.69c13.8,3.84,18.06,15.2,18,29.61,0,.46-.72.79-.82-.08-.68-5.79-.78-10.18-4.05-15.73-3-5.17-8.87-9.26-13.52-12.71C3334.76,344.27,3333.88,343.15,3335.84,343.69Z"/><path class="cls-3" d="M3351.54,382.65c-15.54,6.7-32.66.52-50.1-11.22-.55-.37-.38-1.16.75-.53,7.55,4.22,12.95,7.72,22.26,9.9,8.68,2,18.23,1.19,26.07.69C3351.7,381.41,3353.74,381.7,3351.54,382.65Z"/><path class="cls-3" d="M3288.45,355.5c3.64-14.41,15.9-20,31.7-21.66.5,0,.89.64-.05.85-6.32,1.36-11.12,2-17.07,5.92-5.55,3.68-9.79,10.06-13.37,15.16C3289.12,356.53,3287.93,357.55,3288.45,355.5Z"/><path class="cls-3" d="M3208.06,314.05c14-3.16,23.12,4.81,29.91,17.51.21.4-.27,1-.77.33-3.34-4.78-5.51-8.59-11-11.93-5.14-3.1-12.22-3.93-17.94-4.76C3207.38,315.07,3206.08,314.5,3208.06,314.05Z"/><path class="cls-3" d="M3235.47,340.32c-6.9,9.78-18.88,11.56-32.84,9.76-.44-.05-.6-.63.27-.6,5.76.2,10,.66,16.17-1.09,5.72-1.63,11-5.46,15.43-8.49C3235.16,339.44,3236.45,338.93,3235.47,340.32Z"/><path class="cls-3" d="M3190.46,344.28c-8.85-5.4-9.15-13.51-5.66-22.62.11-.29.7-.35.57.22-.91,3.82-1.89,6.62-.91,10.84.93,3.93,4.08,7.77,6.54,10.95C3191.37,344.15,3191.72,345.05,3190.46,344.28Z"/><path class="cls-3" d="M3328.53,465.49s-33-94.11-100.6-98.1c0,0-38.91-4-31.69,48.39,0,0,12.19,61.82,78.49,61.81C3274.73,477.59,3312.66,479.69,3328.53,465.49Z"/><path class="cls-6" d="M3326.43,464.64s-31.87-91-97.26-94.84c0,0-37.61-3.86-30.64,46.78,0,0,11.8,59.77,75.89,59.76C3274.42,476.34,3311.09,478.37,3326.43,464.64Z"/><path class="cls-3" d="M3265,380.72s-3,20.53-31.17,8.6c0,0-13.78-5.39-8.93-20a59.79,59.79,0,0,1,21,3.2S3257.49,374.6,3265,380.72Z"/><path class="cls-3" d="M3223.3,440.75c.85-1.6,29.07-11.22,32.64-16.85.58-.91,3.21-3.52,1-4s-2.65,0-4.41,1.05c-17.62,10.43-16.58,12.72-34.72-1.09-2.6-2,.91-10.07-8.87-9.41a168.71,168.71,0,0,0-40.73,8.77c-3.83,1.35-2,2.45-5.65,17.89-.31,1.27-6.87-2.9-7.22-4.41-7.9-33.93,21.07-33.13,45.67-31.68,19,1.12,30.82,12.47,48.44,6.07,8.08-2.94,8.14-4.5,14.82.55,13.24,10,28.24,34.76,25.36,50.41C3285.27,482,3215.6,455.15,3223.3,440.75Z"/><path class="cls-7" d="M3224.56,440.83c.84-1.62,28.64-10.92,32.09-16.71.56-.94,3.66-3.91,1.24-4.56s-3.56-.61-5.66.69c-16.56,10.29-16.52,12.94-33.05-.89-2.38-2,.06-7.4-6-10.15s-20,4.81-29.6,4.6-22.44,5.39-20.54,15.71c1.08,5.92-4.19,9.65-7.07.59-8.86-27.83,30.18-30.69,48.57-28,21.63,3.16,25.29,14.09,45.07,5.75,9.07-3.82,7.42-4.69,14.21.39,13.45,10.06,27.69,34.42,25.05,49.85C3284.81,481.71,3216.94,455.48,3224.56,440.83Z"/><path class="cls-8" d="M3299,475.09a51.21,51.21,0,0,0,3.08-9.8,4.76,4.76,0,0,0-6.6-5.1c-6.47,2.8-17.91,6.74-25.45,3.54,0,0-26.7-6-45-21.5,0,0-11.13-10.34-15.3-15.71a2.83,2.83,0,0,0-4.2-.4c-2.89,2.94-2.52,6.28,3,14.48a79.42,79.42,0,0,0,17.6,20.14,73.08,73.08,0,0,0,29.7,13.74,107.13,107.13,0,0,0,11,1.57C3277.88,477.14,3293.46,477.09,3299,475.09Z"/><path class="cls-8" d="M3263.8,380.79s-2.53,19.25-28.48,7.81c0,0-12.67-5.19-8.35-18.86a53.94,53.94,0,0,1,19.3,3.19S3256.84,375,3263.8,380.79Z"/><path class="cls-3" d="M3232.67,392.09s5.57-4.24-.13-9.22c0,0-2.52-4.48-6.92,2.7,0,0-3.23,3,1.28,6.39C3226.9,392,3230.63,394.74,3232.67,392.09Z"/><path class="cls-5" d="M3232.38,391.71s5.13-3.88-.12-8.46c0,0-2.33-4.12-6.38,2.47,0,0-3,2.71,1.19,5.86C3227.07,391.58,3230.51,394.14,3232.38,391.71Z"/><path class="cls-3" d="M3249.77,398.44s3.18-8.62-6-11c0,0-5.52-3.79-5.6,7.62,0,0-1.52,5.59,5.43,6.87C3243.59,401.93,3249.31,402.91,3249.77,398.44Z"/><path class="cls-5" d="M3249,398.39s2.79-8.11-5.58-10.47c0,0-5.05-3.65-5,7.14,0,0-1.31,5.27,5,6.55C3243.4,401.61,3248.6,402.61,3249,398.39Z"/><path class="cls-3" d="M3215.55,432.77s4.78-6.52-3.46-9.88c0,0-4.47-3.94-6.87,5.33,0,0-2.59,4.31,3.75,6.43C3209,434.65,3214.2,436.33,3215.55,432.77Z"/><path class="cls-5" d="M3215.21,432.46s4.45-6-3.21-9.17c0,0-4.16-3.65-6.39,4.95,0,0-2.4,4,3.48,6C3209.09,434.21,3214,435.77,3215.21,432.46Z"/><path class="cls-3" d="M3279.18,458.41s.46,8.18,8.82,6.86c0,0,5.87,1.13,1.87-8.23,0,0-.74-5.12-6.88-3.68C3283,453.36,3278,454.59,3279.18,458.41Z"/><path class="cls-3" d="M3278.33,463.5s1.2-7.18-6.77-6.59c0,0-5.18-1.38-3.36,7.07,0,0-.33,4.52,5.61,3.68C3273.81,467.66,3278.68,466.92,3278.33,463.5Z"/><path class="cls-3" d="M3250.73,457.36s4.36-5.8-3.13-8.77c0,0-4.06-3.49-6.26,4.75,0,0-2.36,3.83,3.4,5.7C3244.74,459,3249.49,460.53,3250.73,457.36Z"/><path class="cls-3" d="M3239,451.2s4.43-5.7-3.15-8.6c0,0-4.1-3.41-6.35,4.68,0,0-2.39,3.77,3.43,5.59C3233,452.87,3237.76,454.32,3239,451.2Z"/><path class="cls-3" d="M3264.64,460.36s2.83-5.92-4.23-7.39c0,0-4.15-2.49-4.68,5.28,0,0-1.41,3.84,3.95,4.59C3259.68,462.84,3264.1,463.41,3264.64,460.36Z"/><path class="cls-5" d="M3250.26,457s3.95-5.38-2.86-8.15c0,0-3.69-3.24-5.67,4.4,0,0-2.14,3.56,3.09,5.3C3244.82,458.53,3249.14,459.92,3250.26,457Z"/><path class="cls-5" d="M3279.84,458.25s.6,7.63,8.29,6.58c0,0,5.43,1.18,1.54-7.62,0,0-.8-4.78-6.42-3.58C3283.25,453.63,3278.64,454.67,3279.84,458.25Z"/><path class="cls-5" d="M3277.91,463.38s1.13-6.62-6.24-6.06c0,0-4.78-1.27-3.11,6.52,0,0-.31,4.17,5.17,3.39C3273.73,467.23,3278.24,466.54,3277.91,463.38Z"/><path class="cls-5" d="M3238.53,450.85s4-5.39-2.87-8.18c0,0-3.71-3.25-5.7,4.42,0,0-2.15,3.57,3.11,5.32C3233.07,452.41,3237.41,453.81,3238.53,450.85Z"/><path class="cls-9" d="M3264.26,460.54s2.47-5.4-3.81-6.8c0,0-3.7-2.3-4.1,4.8,0,0-1.23,3.5,3.53,4.23C3259.88,462.77,3263.8,463.33,3264.26,460.54Z"/><path class="cls-3" d="M3228.5,444s4.28-5.87-3.1-8.91c0,0-4-3.55-6.14,4.81,0,0-2.32,3.89,3.35,5.8C3222.61,445.71,3227.3,447.23,3228.5,444Z"/><path class="cls-5" d="M3228.1,443.6s4-5.43-2.88-8.23c0,0-3.73-3.28-5.73,4.44,0,0-2.16,3.59,3.12,5.35C3222.61,445.16,3227,446.56,3228.1,443.6Z"/><path class="cls-10" d="M3419,279.69s-14,16.14-2.48,15.34,2.61,5.75-1,4.44-10.08-1.52-8.86-5.5,7.22-15.54,9.27-15S3418.92,278,3419,279.69Z"/><path class="cls-10" d="M3387.3,316.35s11.69-17.9.37-15.54-3.37-5.34.35-4.53,10.2.14,9.53,4.24-5,16.39-7.14,16.14S3387.62,318,3387.3,316.35Z"/><path class="cls-10" d="M3402.37,322s.11-21.38,8.26-13.16,5.75-2.6,2.19-4-8.58-5.51-10.28-1.72-4.83,16.45-2.93,17.4S3401.2,323.17,3402.37,322Z"/><path class="cls-10" d="M3401,274.32s1.23,21.34-7.42,13.65-5.58,2.95-1.94,4.11,8.91,5,10.37,1.07,3.79-16.72,1.84-17.55S3402.13,273.05,3401,274.32Z"/><path class="cls-4" d="M3228.5,336.85c-4.68-5.78-17.29-1.59-24.17.45-1.29.38-2.4-.89-2.35-2.71h0c0-1.82,2.8-1.73,4.28-2.35,7.87-3.29,15.36-3,21.69,1.56,1.19.85,4.53,1.7,3.79,3.32h0C3231,338.74,3229.39,338,3228.5,336.85Z"/><path class="cls-4" d="M3325.28,364.56c-3.46-6.84-16.93-8.3-24.22-9.32a2.48,2.48,0,0,1-1.79-3.26h0c.43-1.54,3.16-.36,4.77-.3,8.55.34,16,3.63,21.33,10,1,1.21,4.17,3.28,3.08,4.37h0C3327.37,367.17,3325.94,365.85,3325.28,364.56Z"/></svg>
