<svg id="Layer_1" data-name="Layer 1" xmlns="http://www.w3.org/2000/svg" width="480" height="360" viewBox="0 0 480 360"><defs><style>.cls-1{fill:#78c263;}.cls-2{fill:#7c2368;}</style></defs><path class="cls-1" d="M318.92,54.36c76.94,7.17,136.77,61.74,136.77,128s-59.83,120.85-136.77,128v20.45C409.31,323.6,480,259.9,480,182.38S409.31,41.16,318.92,33.91Z"/><path class="cls-1" d="M318.92,85.69c58.11,5.41,103.3,46.63,103.3,96.69S377,273.66,318.92,279.07v15.45c68.27-5.48,121.66-53.59,121.66-112.14S387.19,75.72,318.92,70.24Z"/><path class="cls-1" d="M291.56,182.38V46.79c0-15.18-16.3-24.67-29.34-17.08L153.77,92.85H43.39A43.58,43.58,0,0,0,0,136.61v91.54a43.58,43.58,0,0,0,43.39,43.76H153.77l108.45,63.14c13,7.59,29.34-1.9,29.34-17.08Z"/><polygon class="cls-2" points="423.86 340.61 409.34 355.24 71.58 14.63 86.09 0 423.86 340.61"/><polygon class="cls-2" points="404.62 4.76 419.14 19.39 81.37 360 66.86 345.37 404.62 4.76"/></svg>
