<svg id="Layer_1" data-name="Layer 1" xmlns="http://www.w3.org/2000/svg" xmlns:xlink="http://www.w3.org/1999/xlink" width="1000" height="370" viewBox="0 0 1000 370"><defs><style>.cls-1{fill:url(#linear-gradient);}.cls-2{fill:url(#linear-gradient-2);}.cls-3{fill:url(#linear-gradient-3);}.cls-4{fill:url(#linear-gradient-4);}.cls-5{fill:url(#linear-gradient-5);}.cls-6{fill:url(#linear-gradient-6);}.cls-7{fill:url(#linear-gradient-7);}.cls-8{fill:url(#linear-gradient-8);}</style><linearGradient id="linear-gradient" x1="838.24" y1="174" x2="1000" y2="174" gradientUnits="userSpaceOnUse"><stop offset="0" stop-color="#78c263"/><stop offset="0.89" stop-color="#7c2368"/></linearGradient><linearGradient id="linear-gradient-2" x1="838.24" y1="174" x2="960.42" y2="174" xlink:href="#linear-gradient"/><linearGradient id="linear-gradient-3" x1="591.71" y1="184.54" x2="904.01" y2="168.03" xlink:href="#linear-gradient"/><linearGradient id="linear-gradient-4" x1="338.24" y1="167.33" x2="500" y2="167.33" xlink:href="#linear-gradient"/><linearGradient id="linear-gradient-5" x1="338.24" y1="167.33" x2="460.42" y2="167.33" xlink:href="#linear-gradient"/><linearGradient id="linear-gradient-6" x1="91.71" y1="177.87" x2="404.01" y2="161.36" xlink:href="#linear-gradient"/><linearGradient id="linear-gradient-7" x1="39.31" y1="184.99" x2="357.71" y2="184.99" xlink:href="#linear-gradient"/><linearGradient id="linear-gradient-8" x1="28.67" y1="189.71" x2="347.07" y2="189.71" xlink:href="#linear-gradient"/></defs><path d="M820.28,61c77.26,7.07,137.34,60.94,137.34,126.36S897.54,306.64,820.28,313.71v20.18c90.77-7.15,161.76-70,161.76-146.54S911.05,48,820.28,40.8Z"/><path d="M820.28,91.91c58.35,5.34,103.73,46,103.73,95.44s-45.38,90.1-103.73,95.44V298c68.56-5.4,122.18-52.89,122.18-110.68S888.84,82.07,820.28,76.66Z"/><path d="M792.8,187.35V53.52c0-15-16.37-24.35-29.47-16.86L654.43,99H543.58A43.39,43.39,0,0,0,500,142.17v90.36a43.39,43.39,0,0,0,43.58,43.19H654.43L763.33,338c13.1,7.49,29.47-1.88,29.47-16.86Z"/><path class="cls-1" d="M838.24,47.64C915.5,54.71,975.58,108.58,975.58,174S915.5,293.29,838.24,300.36v20.19C929,313.39,1000,250.52,1000,174S929,34.61,838.24,27.46Z"/><path class="cls-2" d="M838.24,78.56C896.59,83.9,942,124.59,942,174s-45.39,90.1-103.74,95.44v15.25c68.56-5.41,122.18-52.9,122.18-110.69S906.8,68.72,838.24,63.32Z"/><path class="cls-3" d="M810.76,174V40.17c0-15-16.37-24.35-29.46-16.86L672.39,85.63H561.54A43.39,43.39,0,0,0,518,128.82v90.36a43.39,43.39,0,0,0,43.58,43.19H672.39L781.3,324.69c13.09,7.5,29.46-1.87,29.46-16.86Z"/><path d="M320.28,54.32c77.26,7.07,137.34,60.94,137.34,126.36S397.54,300,320.28,307v20.19c90.77-7.15,161.76-70,161.76-146.54s-71-139.4-161.76-146.55Z"/><path d="M320.28,85.24c58.35,5.34,103.73,46,103.73,95.44s-45.38,90.09-103.73,95.43v15.25c68.56-5.4,122.18-52.89,122.18-110.68S388.84,75.39,320.28,70Z"/><path d="M292.8,180.67V46.84c0-15-16.37-24.35-29.47-16.85L154.43,92.31H43.58A43.38,43.38,0,0,0,0,135.5v90.35A43.38,43.38,0,0,0,43.58,269H154.43l108.9,62.32c13.1,7.5,29.47-1.87,29.47-16.85Z"/><path class="cls-4" d="M338.24,41C415.5,48,475.58,101.91,475.58,167.33S415.5,286.62,338.24,293.69v20.18C429,306.72,500,243.84,500,167.33S429,27.94,338.24,20.78Z"/><path class="cls-5" d="M338.24,71.89c58.35,5.34,103.74,46,103.74,95.44s-45.39,90.1-103.74,95.44V278c68.56-5.41,122.18-52.9,122.18-110.69S406.8,62.05,338.24,56.64Z"/><path class="cls-6" d="M310.76,167.33V33.5c0-15-16.37-24.35-29.46-16.86L172.39,79H61.54A43.39,43.39,0,0,0,18,122.15v90.36A43.39,43.39,0,0,0,61.54,255.7H172.39L281.3,318c13.09,7.49,29.46-1.87,29.46-16.86Z"/><polygon class="cls-7" points="357.71 346.45 344.59 360.95 39.31 23.53 52.43 9.03 357.71 346.45"/><polygon class="cls-8" points="333.95 13.75 347.07 28.24 41.79 365.67 28.67 351.17 333.95 13.75"/></svg>
