<svg id="Layer_1" data-name="Layer 1" xmlns="http://www.w3.org/2000/svg" width="480" height="310" viewBox="0 0 480 310"><defs><style>.cls-1{fill:#78c263;}</style></defs><path class="cls-1" d="M318.92,27.26C395.86,34.41,455.69,88.87,455.69,155S395.86,275.59,318.92,282.74v20.4C409.31,295.91,480,232.35,480,155S409.31,14.09,318.92,6.86Z"/><path class="cls-1" d="M318.92,58.52c58.11,5.4,103.3,46.53,103.3,96.48S377,246.08,318.92,251.48v15.41c68.27-5.46,121.66-53.47,121.66-111.89S387.19,48.57,318.92,43.11Z"/><path class="cls-1" d="M291.56,155V19.71a19.56,19.56,0,0,0-29.34-17l-108.45,63H43.39A43.52,43.52,0,0,0,0,109.33v91.34a43.52,43.52,0,0,0,43.39,43.66H153.77l108.45,63a19.56,19.56,0,0,0,29.34-17Z"/></svg>
