<svg id="Layer_1" data-name="Layer 1" xmlns="http://www.w3.org/2000/svg" width="1920" height="1089.83" viewBox="0 0 1920 1089.83"><defs><style>.cls-1{fill:#c5a39e;}.cls-2{fill:#f29a86;}.cls-3{fill:#e37c6a;}.cls-4{fill:#9a8734;}.cls-5{fill:#e8c2b8;}.cls-6{fill:#d89786;}.cls-7{fill:#aac463;}.cls-8{fill:#b26e5e;}.cls-9{fill:#8f7a7f;}.cls-10{fill:#cab870;}.cls-11{fill:#b7ad85;}.cls-12{fill:#c7ba89;}.cls-13{fill:#010101;opacity:0.4;}.cls-14{fill:#b5a76b;}.cls-15{fill:#a49599;}.cls-16{fill:#d2caa9;}.cls-17{fill:#af9f59;}.cls-18{fill:#bd6852;}</style></defs><path class="cls-1" d="M1667.46,603.52c-.33-.1-1.88,1.74-4.85,3.24-6.94,5.18-9.73,5.32-12.08,6.77,0-1.27,1.1-3.17.67-4.39,9.16-4.68,8.33-.76,11.26-8.26-.37,0-1.17,2.91-1.76,1.66-1.78,5-3.06,1.66-9.47,5.74l-.63.05c.69-5.05-3.08-3,4.09-8.53-.28-.16-1.53,1-1.82.85-5.1,4.34-2.86,2.87-3.41,7.8l-.45,0c-.27.52-.73.5-3.85-1.1-.37.24-6.36-3.13-6.73-2.88,3,1.57,6.12,3.12,9.28,4.59.16.39.33.78.48,1.17-5.08-.68-2.8-.18-7.59-1.85-.2.18,7.37,2.74-5.17-.21,5.09,1.76,7.66,1.94,12.94,2.73a20.24,20.24,0,0,1,.05,4.19c-4.81-1.93-6.37-1.86-6.37-1.86,1.56-.07-6.35.31-6.31.54,5.19-.2,8.66-.47,12.75,2.28a14.48,14.48,0,0,1-1.23,5.45c-4.39-2.07-1.49-.52-12-4.09-.46.19-5.35-2.51-5.81-2.32,4.2,3.94,16.36,4.86,16.86,7.87-8.69,7.74-6.1,11.54-8.92,14.92l4.23-.2c-.27-10,8.57-11.21,8.77-22.46C1656.93,611.52,1663,608.66,1667.46,603.52Z"/><path class="cls-1" d="M1654.18,605.12c-.34-.1-1.88,1.73-4.85,3.24-6.94,5.18-9.74,5.32-12.08,6.76,0-1.26,1.09-3.17.67-4.38,9.15-4.68,8.33-.76,11.26-8.27-.37,0-1.17,2.92-1.76,1.67-1.79,5-3.06,1.65-9.48,5.74l-.62,0c.69-5-3.09-3,4.09-8.53-.28-.16-1.53,1-1.82.85-5.1,4.34-2.86,2.87-3.41,7.79l-.45.05c-.27.52-.73.5-3.85-1.1-.38.24-6.36-3.13-6.73-2.88,3,1.56,6.12,3.12,9.28,4.59.16.39.33.78.48,1.17-5.08-.68-2.8-.18-7.6-1.85-.2.18,7.37,2.74-5.16-.22,5.08,1.76,7.66,2,12.94,2.74a20.15,20.15,0,0,1,.05,4.18c-4.81-1.92-6.37-1.86-6.37-1.86,1.56-.06-6.36.32-6.32.54,5.2-.2,8.67-.46,12.76,2.29a14.43,14.43,0,0,1-1.23,5.44c-4.39-2.07-1.49-.51-12-4.08-.46.19-5.36-2.51-5.81-2.32,4.2,3.94,16.36,4.86,16.86,7.87-8.7,7.74-6.1,11.54-8.92,14.92l4.23-.2c-.27-10,8.56-11.21,8.77-22.46C1643.65,613.12,1649.75,610.25,1654.18,605.12Z"/><path class="cls-1" d="M1635.08,606.35c-.33-.1-1.88,1.74-4.85,3.25-6.93,5.17-9.73,5.32-12.08,6.76,0-1.26,1.1-3.17.67-4.39,9.16-4.68,8.34-.75,11.26-8.26-.37,0-1.17,2.92-1.76,1.66-1.78,5-3,1.66-9.47,5.74l-.62,0c.68-5-3.09-3,4.09-8.53-.29-.16-1.54,1-1.82.85-5.11,4.34-2.87,2.87-3.41,7.8l-.45,0c-.28.52-.74.51-3.86-1.1-.37.25-6.36-3.12-6.73-2.88,3,1.57,6.12,3.13,9.29,4.59.15.39.32.78.48,1.18-5.08-.68-2.81-.19-7.6-1.85-.2.18,7.37,2.73-5.17-.22,5.09,1.76,7.67,1.94,12.94,2.74a20.15,20.15,0,0,1,0,4.18c-4.81-1.92-6.37-1.86-6.37-1.86,1.56-.06-6.35.31-6.31.54,5.19-.2,8.66-.47,12.75,2.29a14.24,14.24,0,0,1-1.23,5.44c-4.39-2.07-1.49-.52-12-4.09-.46.19-5.35-2.51-5.81-2.32,4.21,3.94,16.37,4.87,16.86,7.87-8.69,7.75-6.09,11.54-8.92,14.92l4.23-.19c-.27-10,8.57-11.21,8.77-22.46C1624.55,614.35,1630.65,611.49,1635.08,606.35Z"/><path class="cls-1" d="M1631.17,594.39c-.33-.11-1.88,1.73-4.85,3.24-6.94,5.18-9.73,5.32-12.08,6.76,0-1.26,1.1-3.17.67-4.39,9.16-4.67,8.33-.75,11.26-8.26-.37,0-1.17,2.92-1.76,1.66-1.78,5-3.06,1.66-9.47,5.75l-.63.05c.69-5.06-3.08-3,4.09-8.54-.28-.15-1.53,1-1.82.85-5.1,4.34-2.86,2.87-3.41,7.8l-.45,0c-.27.53-.73.51-3.85-1.1-.37.25-6.36-3.12-6.73-2.88,3,1.57,6.12,3.13,9.28,4.59.16.4.33.79.48,1.18-5.08-.68-2.8-.19-7.59-1.85-.2.18,7.37,2.73-5.17-.22,5.09,1.76,7.66,1.94,12.94,2.74a20.15,20.15,0,0,1,.05,4.18c-4.81-1.92-6.37-1.86-6.37-1.86,1.56-.06-6.35.32-6.31.54,5.19-.2,8.66-.46,12.75,2.29a14.43,14.43,0,0,1-1.23,5.44c-4.39-2.07-1.49-.51-12-4.09-.46.19-5.35-2.51-5.81-2.31,4.2,3.93,16.36,4.86,16.86,7.87-8.69,7.74-6.1,11.54-8.92,14.91l4.23-.19c-.27-10,8.57-11.21,8.77-22.46C1620.64,602.38,1626.74,599.52,1631.17,594.39Z"/><path class="cls-1" d="M1616,607.76c-.33-.1-1.88,1.73-4.85,3.24-6.94,5.18-9.73,5.32-12.08,6.76,0-1.26,1.1-3.17.67-4.38,9.16-4.68,8.33-.76,11.26-8.27-.37,0-1.17,2.92-1.76,1.67-1.78,5-3.06,1.65-9.47,5.74l-.63.05c.69-5.05-3.08-3,4.09-8.53-.28-.16-1.53,1-1.82.84-5.1,4.35-2.86,2.88-3.41,7.8l-.44.05c-.28.52-.74.5-3.86-1.1-.37.24-6.36-3.13-6.73-2.88,3,1.56,6.12,3.12,9.28,4.59.16.39.33.78.48,1.17-5.08-.68-2.8-.18-7.59-1.85-.2.18,7.37,2.74-5.17-.22,5.09,1.76,7.66,1.95,12.94,2.74a20.15,20.15,0,0,1,0,4.18c-4.81-1.92-6.37-1.86-6.37-1.86,1.56-.06-6.35.32-6.31.54,5.19-.2,8.66-.46,12.75,2.29a14.43,14.43,0,0,1-1.23,5.44c-4.39-2.07-1.49-.51-12-4.08-.46.18-5.35-2.51-5.81-2.32,4.21,3.93,16.36,4.86,16.86,7.87-8.69,7.74-6.1,11.54-8.92,14.91l4.23-.19c-.27-10,8.57-11.21,8.77-22.46C1605.46,615.76,1611.56,612.89,1616,607.76Z"/><path class="cls-1" d="M1581.36,613.31c9.16-4.68,8.34-.76,11.27-8.26-.37,0-1.17,2.91-1.77,1.66-1.78,5-3,1.66-9.47,5.74l-.62,0c.68-5-3.09-3,4.09-8.53-.28-.16-1.54,1-1.82.85-5.11,4.34-2.86,2.87-3.41,7.8l-.45,0c-.27.52-.74.5-3.86-1.1-.37.24-6.35-3.13-6.72-2.88,3.05,1.57,6.11,3.12,9.28,4.59.15.39.33.78.48,1.17-5.08-.68-2.81-.18-7.6-1.85-.2.18,7.37,2.74-5.17-.22,5.09,1.77,7.67,2,12.94,2.74a18.94,18.94,0,0,1,0,4.19c-4.8-1.93-6.36-1.86-6.36-1.86,1.56-.07-6.36.31-6.32.54,5.19-.2,8.67-.47,12.76,2.28a14.48,14.48,0,0,1-1.23,5.45c-4.4-2.07-1.5-.52-12-4.09-.45.19-5.35-2.51-5.8-2.32,4.2,3.94,16.36,4.86,16.85,7.87-8.69,7.74-6.09,11.54-8.92,14.92l4.24-.2c-.27-10,8.56-11.21,8.77-22.46,6.53-3.74,12.63-6.6,17-11.74-.33-.1-1.88,1.74-4.85,3.24-6.93,5.18-9.73,5.32-12.08,6.77"/><path class="cls-1" d="M1640.65,613.07c-.33-.1-1.87,1.73-4.84,3.24-6.94,5.18-9.74,5.32-12.09,6.76,0-1.26,1.1-3.17.68-4.38,9.15-4.68,8.33-.76,11.26-8.27-.37,0-1.17,2.92-1.77,1.67-1.78,5-3.05,1.65-9.47,5.74l-.62,0c.68-5-3.09-3,4.09-8.53-.28-.16-1.53,1-1.82.84-5.1,4.35-2.86,2.88-3.41,7.8l-.45,0c-.27.52-.73.5-3.86-1.1-.37.24-6.35-3.13-6.72-2.88,3,1.56,6.11,3.12,9.28,4.59.16.39.33.78.48,1.17-5.08-.68-2.8-.18-7.6-1.85-.2.18,7.37,2.74-5.17-.22,5.09,1.76,7.67,2,12.94,2.74a18.86,18.86,0,0,1,0,4.18c-4.8-1.92-6.36-1.86-6.36-1.86,1.56-.06-6.36.32-6.32.54,5.2-.2,8.67-.46,12.76,2.29a14.43,14.43,0,0,1-1.23,5.44c-4.4-2.07-1.5-.51-12-4.08-.45.18-5.35-2.51-5.8-2.32,4.2,3.93,16.36,4.86,16.85,7.87-8.69,7.74-6.09,11.54-8.92,14.91l4.24-.19c-.27-10,8.56-11.21,8.77-22.46C1630.13,621.07,1636.23,618.2,1640.65,613.07Z"/><path class="cls-1" d="M1612.63,618c-1.79,5-3.06,1.65-9.48,5.74l-.62.05c.69-5.05-3.09-3,4.09-8.54-.28-.15-1.53,1-1.82.85-5.1,4.34-2.86,2.87-3.41,7.8l-.45.05c-.27.52-.73.5-3.85-1.11-.37.25-6.36-3.12-6.73-2.87,3.05,1.56,6.12,3.12,9.28,4.58.16.4.33.79.48,1.18-5.08-.68-2.8-.18-7.6-1.85-.2.18,7.38,2.73-5.16-.22,5.08,1.76,7.66,1.95,12.94,2.74a20.15,20.15,0,0,1,0,4.18c-4.81-1.92-6.37-1.86-6.37-1.86,1.56-.06-6.35.32-6.32.54,5.2-.2,8.67-.46,12.76,2.29a14.43,14.43,0,0,1-1.23,5.44c-4.39-2.07-1.49-.51-12-4.08-.46.18-5.36-2.51-5.81-2.32,4.2,3.93,16.36,4.86,16.86,7.87-8.7,7.74-6.1,11.54-8.92,14.91l4.23-.19c-.27-10,8.57-11.21,8.77-22.46,6.53-3.75,12.63-6.61,17.06-11.74-.33-.11-1.88,1.73-4.85,3.24-6.94,5.18-9.73,5.32-12.08,6.76"/><path class="cls-1" d="M1655,616.26c-.33-.11-1.88,1.73-4.85,3.24-6.94,5.18-9.73,5.32-12.08,6.76,0-1.26,1.1-3.17.67-4.39,9.16-4.67,8.33-.75,11.26-8.26-.37,0-1.17,2.92-1.76,1.67-1.78,5-3.06,1.65-9.47,5.74l-.63.05c.69-5.05-3.08-3,4.09-8.54-.28-.15-1.53,1-1.82.85-5.1,4.34-2.86,2.87-3.41,7.8l-.45.05c-.27.52-.73.5-3.85-1.11-.37.25-6.36-3.12-6.73-2.87,3,1.56,6.12,3.12,9.28,4.58.16.4.33.79.48,1.18-5.08-.68-2.8-.18-7.59-1.85-.2.18,7.37,2.73-5.17-.22,5.09,1.76,7.66,1.95,12.94,2.74a20.15,20.15,0,0,1,0,4.18c-4.81-1.92-6.37-1.86-6.37-1.86,1.56-.06-6.35.32-6.31.54,5.19-.2,8.66-.46,12.75,2.29a14.43,14.43,0,0,1-1.23,5.44c-4.39-2.07-1.49-.51-12-4.08-.46.18-5.35-2.51-5.81-2.32,4.2,3.93,16.36,4.86,16.86,7.87-8.69,7.74-6.1,11.54-8.92,14.91l4.23-.19c-.27-10,8.57-11.21,8.77-22.46C1644.45,624.25,1650.55,621.39,1655,616.26Z"/><path class="cls-1" d="M1625,610.13c-.45.19-5.35-2.51-5.8-2.32,4.2,3.94,16.36,4.87,16.86,7.87-8.7,7.75-6.1,11.55-8.93,14.92l4.24-.19c-.27-10,8.56-11.21,8.77-22.46,6.53-3.75,12.63-6.61,17.05-11.74-.33-.11-1.87,1.73-4.84,3.24-6.94,5.18-9.74,5.32-12.09,6.76,0-1.26,1.1-3.17.68-4.39,9.15-4.67,8.33-.75,11.26-8.26-.37,0-1.17,2.92-1.77,1.66-1.78,5-3.05,1.66-9.47,5.75l-.62,0c.69-5-3.09-3,4.09-8.53-.28-.16-1.53,1-1.82.85-5.1,4.34-2.86,2.87-3.41,7.8l-.45,0c-.27.52-.73.51-3.86-1.1-.37.25-6.35-3.12-6.72-2.88,3.05,1.57,6.11,3.13,9.28,4.59.16.4.33.78.48,1.18-5.08-.68-2.8-.19-7.6-1.85-.2.18,7.37,2.73-5.17-.22,5.09,1.76,7.67,1.94,12.94,2.74a19.49,19.49,0,0,1,.06,4.18c-4.81-1.92-6.37-1.86-6.37-1.86,1.56-.06-6.36.32-6.32.54,5.2-.2,8.67-.47,12.76,2.29a14.43,14.43,0,0,1-1.23,5.44"/><path class="cls-1" d="M1667.76,617.7c-.33-.1-1.88,1.73-4.85,3.24-6.93,5.18-9.73,5.32-12.08,6.76,0-1.26,1.1-3.17.67-4.38,9.16-4.68,8.33-.76,11.26-8.26-.37,0-1.17,2.91-1.76,1.66-1.78,5-3.06,1.65-9.47,5.74l-.63,0c.69-5-3.08-3,4.1-8.53-.29-.16-1.54,1-1.82.85-5.11,4.34-2.87,2.87-3.42,7.79l-.44,0c-.28.52-.74.5-3.86-1.1-.37.24-6.36-3.13-6.73-2.88,3,1.56,6.12,3.12,9.29,4.59.15.39.32.78.47,1.17-5.08-.68-2.8-.18-7.59-1.85-.2.18,7.37,2.74-5.17-.22,5.09,1.77,7.66,2,12.94,2.74a20.15,20.15,0,0,1,0,4.18c-4.81-1.92-6.37-1.86-6.37-1.86,1.56-.06-6.35.32-6.31.54,5.19-.2,8.66-.46,12.75,2.29a14.24,14.24,0,0,1-1.23,5.44c-4.39-2.07-1.49-.51-12-4.08-.46.19-5.35-2.51-5.81-2.32,4.21,3.94,16.36,4.86,16.86,7.87-8.69,7.74-6.1,11.54-8.92,14.92l4.23-.2c-.27-10,8.57-11.21,8.77-22.46C1657.23,625.7,1663.33,622.84,1667.76,617.7Z"/><path class="cls-1" d="M1690.89,593.12c-.33-.11-1.87,1.73-4.84,3.24-6.94,5.18-9.74,5.32-12.09,6.76,0-1.26,1.1-3.17.68-4.39,9.15-4.67,8.33-.75,11.26-8.26-.37,0-1.17,2.92-1.77,1.66-1.78,5-3.05,1.66-9.47,5.75l-.62,0c.68-5.06-3.09-3,4.09-8.54-.28-.15-1.53,1-1.82.85-5.1,4.34-2.86,2.87-3.41,7.8l-.45,0c-.27.53-.73.51-3.86-1.1-.37.25-6.35-3.12-6.72-2.88,3.05,1.57,6.11,3.13,9.28,4.59.16.4.33.79.48,1.18-5.08-.68-2.8-.19-7.6-1.85-.2.18,7.37,2.73-5.17-.22,5.09,1.76,7.67,1.94,12.94,2.74a18.86,18.86,0,0,1,0,4.18c-4.8-1.92-6.36-1.86-6.36-1.86,1.56-.06-6.36.32-6.32.54,5.2-.2,8.67-.46,12.76,2.29a14.43,14.43,0,0,1-1.23,5.44c-4.4-2.07-1.5-.51-12-4.09-.45.19-5.35-2.51-5.8-2.31,4.2,3.93,16.36,4.86,16.85,7.87-8.69,7.74-6.09,11.54-8.92,14.91l4.24-.19c-.27-10,8.56-11.21,8.77-22.46C1680.37,601.11,1686.47,598.25,1690.89,593.12Z"/><path class="cls-2" d="M96.84,412.67l16.06-59.21L299,471.37l72.66,45.86s47.07,165.36,82.47,174.54c0,0-25,76-23.14,103.53l107,126-291.21,59.8S2.74,704.34,2.74,693.33,96.84,412.67,96.84,412.67Z"/><path class="cls-3" d="M22.55,421.33l90.35-67.87L224.69,480l72.66,45.86s67.07,157.76,102.47,166.93c0,0-1.86,86.22,0,113.74L463.73,930,172.52,989.8S-71.55,713-71.55,702,22.55,421.33,22.55,421.33Z"/><path class="cls-4" d="M1677.34,503.7c-.5-.11-1-.19-1.5-.27.26-3.28-4.36-6.72-11.39-8.17a31.3,31.3,0,0,0-8.69-.55,12.75,12.75,0,0,0-5.33-2.32c-6.59-1.36-14,1.26-16.57,5.85a6.25,6.25,0,0,0-.78,4.2c-5-.43-9.9,1.16-11.45,3.93-1.78,3.19,1.46,6.73,7.23,7.92,5,1,10.23,0,12.72-2.41-.88,4.79-1,7.19,5.17,9.53a8,8,0,0,1,0,3.17c-3.45.83-4.56-.12-5.82-2.41h0a1.9,1.9,0,0,0-.74,2c.94,2.48,1.2,3.24,5.66,2.7-3.33,8.56-2.84,14.91-1.37,22.31.32,1.62,1.34,1.43,3.09,1l.16-.1c.71-.47,2.7-1.66,2.36-3.21-1.55-7-1.71-11.83.81-19.93a25.49,25.49,0,0,0,5.33-.92.63.63,0,0,0,.46-.47v0c.13-.95-.69-1.53-1.77-1.25a19.38,19.38,0,0,1-3.38.64c1.06-2.1.58-3.1.61-5a92.71,92.71,0,0,1,10.08-5.86,19.46,19.46,0,0,0,7.55,3.09c7.58,1.56,15.42-.2,17.5-3.93S1684.92,505.25,1677.34,503.7Zm-24.45,12c0-1.34.26-1.42-1.34-1.51,0,0-.32-.78-1-.68s-3.1,1-3.08,2.63c0,.56-.29,1.42-.32,2-4.59-1.81-3-4.73-2-8.84a18.33,18.33,0,0,0,7.89-2,26.49,26.49,0,0,0,4,1.12c.77.16,1.55.29,2.32.39a4.19,4.19,0,0,0,.7,3C1657.76,513.09,1655.43,514.24,1652.89,515.72Z"/><path class="cls-4" d="M1700.43,507.05c-.5-.11-1-.19-1.5-.27.26-3.28-4.36-6.72-11.38-8.16a31,31,0,0,0-8.7-.56,12.76,12.76,0,0,0-5.32-2.32c-6.6-1.36-14,1.26-16.58,5.85a6.26,6.26,0,0,0-.78,4.2c-5.05-.43-9.9,1.16-11.45,3.94-1.78,3.18,1.46,6.72,7.24,7.91,5,1,10.23,0,12.71-2.41-.88,4.79-1,7.19,5.17,9.53a7.85,7.85,0,0,1,0,3.17c-3.45.83-4.56-.12-5.81-2.41h0a1.9,1.9,0,0,0-.74,2c.94,2.48,1.2,3.24,5.67,2.7-3.34,8.56-2.85,14.91-1.38,22.31.32,1.62,1.34,1.44,3.09,1l.16-.1c.71-.47,2.71-1.66,2.36-3.21-1.54-7-1.71-11.82.81-19.93a25,25,0,0,0,5.34-.92.6.6,0,0,0,.45-.47v0c.13-.95-.69-1.53-1.77-1.25a19.45,19.45,0,0,1-3.37.64c1-2.1.57-3.1.6-5a93.68,93.68,0,0,1,10.08-5.86,19.53,19.53,0,0,0,7.55,3.09c7.59,1.56,15.42-.2,17.5-3.92S1708,508.6,1700.43,507.05Zm-24.45,12c0-1.34.26-1.42-1.34-1.51,0,0-.32-.78-1-.68s-3.1,1-3.08,2.63c0,.56-.29,1.42-.32,2-4.59-1.81-3-4.73-2-8.84a18.33,18.33,0,0,0,7.89-2,26.83,26.83,0,0,0,4,1.12c.78.16,1.55.29,2.32.39a4.19,4.19,0,0,0,.7,3C1680.85,516.44,1678.52,517.59,1676,519.07Z"/><path class="cls-4" d="M1739.37,511.62c-.5-.1-1-.19-1.5-.26.26-3.28-4.36-6.72-11.39-8.17a31.32,31.32,0,0,0-8.69-.56,13,13,0,0,0-5.33-2.32c-6.59-1.35-14,1.27-16.57,5.86a6.25,6.25,0,0,0-.78,4.2c-5-.43-9.9,1.16-11.45,3.93-1.78,3.19,1.46,6.73,7.23,7.91,5,1,10.23,0,12.72-2.4-.88,4.79-1,7.19,5.17,9.52a8.08,8.08,0,0,1,0,3.18c-3.45.83-4.56-.13-5.82-2.41h0a1.89,1.89,0,0,0-.74,2c.94,2.47,1.2,3.24,5.66,2.7-3.33,8.56-2.84,14.91-1.37,22.31.32,1.62,1.34,1.43,3.09,1l.16-.1c.7-.47,2.7-1.66,2.36-3.22-1.55-7-1.71-11.82.81-19.92a25.49,25.49,0,0,0,5.33-.92.63.63,0,0,0,.46-.47v0c.13-1-.69-1.53-1.77-1.25a19.38,19.38,0,0,1-3.38.64c1.06-2.1.58-3.1.61-5a92.67,92.67,0,0,1,10.08-5.85,19.46,19.46,0,0,0,7.55,3.09c7.58,1.56,15.42-.2,17.5-3.93S1747,513.18,1739.37,511.62Zm-24.45,12c0-1.34.25-1.42-1.34-1.52,0,0-.32-.77-1-.67s-3.1,1-3.08,2.63c0,.56-.29,1.42-.32,2-4.59-1.82-3-4.73-2-8.84a18.33,18.33,0,0,0,7.89-2,27.72,27.72,0,0,0,4,1.12c.77.16,1.55.29,2.32.39a4.19,4.19,0,0,0,.7,3C1719.79,521,1717.46,522.17,1714.92,523.65Z"/><path class="cls-4" d="M1757.69,510.76l-1.5-.27c.26-3.27-4.36-6.72-11.38-8.16a31,31,0,0,0-8.7-.56,12.76,12.76,0,0,0-5.32-2.32c-6.59-1.36-14,1.27-16.58,5.85a6.26,6.26,0,0,0-.78,4.2c-5-.43-9.9,1.16-11.45,3.94-1.78,3.18,1.46,6.72,7.24,7.91,5,1,10.23-.05,12.71-2.41-.88,4.79-1,7.2,5.17,9.53a7.9,7.9,0,0,1,0,3.18c-3.45.82-4.55-.13-5.81-2.42h0a1.9,1.9,0,0,0-.74,2c.94,2.48,1.2,3.24,5.67,2.7-3.34,8.56-2.85,14.91-1.38,22.31.32,1.62,1.34,1.44,3.09,1l.16-.1c.71-.46,2.71-1.66,2.37-3.21-1.55-7-1.72-11.82.81-19.93a25,25,0,0,0,5.33-.92.6.6,0,0,0,.45-.47v0c.12-1-.7-1.53-1.78-1.25a19.45,19.45,0,0,1-3.37.64c1-2.1.57-3.09.6-5a92,92,0,0,1,10.08-5.85,19.68,19.68,0,0,0,7.55,3.09c7.59,1.55,15.42-.21,17.51-3.93S1765.28,512.32,1757.69,510.76Zm-24.45,12c0-1.34.26-1.42-1.34-1.51,0,0-.31-.78-1-.68s-3.11,1-3.09,2.63c0,.56-.29,1.42-.32,2-4.59-1.81-3-4.73-2-8.84a18.18,18.18,0,0,0,7.89-2,26.83,26.83,0,0,0,4,1.12c.78.16,1.55.29,2.32.39a4.18,4.18,0,0,0,.7,3C1738.11,520.15,1735.78,521.3,1733.24,522.78Z"/><path class="cls-4" d="M1730,514.11c-.5-.1-1-.19-1.5-.26.26-3.28-4.36-6.73-11.39-8.17a31,31,0,0,0-8.7-.56,12.76,12.76,0,0,0-5.32-2.32c-6.59-1.35-14,1.27-16.57,5.85a6.2,6.2,0,0,0-.78,4.2c-5-.42-9.9,1.16-11.46,3.94-1.77,3.18,1.47,6.72,7.24,7.91,5,1,10.23-.05,12.72-2.41-.88,4.79-1,7.2,5.17,9.53a8.08,8.08,0,0,1,0,3.18c-3.45.82-4.56-.13-5.82-2.42h0a1.88,1.88,0,0,0-.74,2c.94,2.48,1.19,3.24,5.66,2.7-3.33,8.56-2.84,14.91-1.37,22.31.32,1.62,1.34,1.44,3.09,1l.15-.1c.71-.46,2.71-1.66,2.37-3.21-1.55-7-1.71-11.82.81-19.93a25,25,0,0,0,5.33-.92.63.63,0,0,0,.46-.47v0c.13-1-.7-1.53-1.78-1.24a20,20,0,0,1-3.37.63c1.06-2.1.57-3.09.61-5a91.06,91.06,0,0,1,10.08-5.85,19.62,19.62,0,0,0,7.55,3.09c7.58,1.55,15.42-.21,17.5-3.93S1737.62,515.67,1730,514.11Zm-24.46,12c0-1.34.26-1.42-1.33-1.51,0,0-.32-.78-1-.68s-3.1,1-3.08,2.63c0,.56-.3,1.42-.32,2-4.59-1.81-3-4.73-2-8.84a18.18,18.18,0,0,0,7.89-2,26.49,26.49,0,0,0,4,1.12c.77.16,1.55.29,2.32.39a4.17,4.17,0,0,0,.7,3C1710.46,523.51,1708.13,524.65,1705.58,526.13Z"/><path class="cls-5" d="M98.87,720.64s335.23-6.28,358.75-12.56l21.76-3.94s-18.07,88.13-3.36,107l93.23,148.4-48.75,74.22S87.11,848.3,81.23,842s2.94-104.8,2.94-104.8Z"/><path class="cls-6" d="M23.55,730.26S358.77,724,382.3,717.71l73.51-8.38s-35.29,98.37-20.58,117.2l85.27,207.2-226.86,50.76S11.78,857.93,5.9,851.65,8.84,746.86,8.84,746.86Z"/><polygon class="cls-7" points="153.44 698.2 140.38 707.92 115.84 700.95 90.14 720.07 53.23 727.26 84.46 763.17 84.89 796.7 118.96 765.34 133.72 781.43 143.97 748.86 171.33 778.68 185.62 733.27 213.98 715.39 153.44 698.2"/><polygon class="cls-7" points="14 726.13 13.73 747.36 -0.47 762.09 22.87 800.38 3.27 842.77 27.29 853.11 63.76 889.45 57.99 827.53 87.47 833.19 60.81 789.24 115.44 799.72 78.27 738.46 83.74 721.32 14 726.13"/><polygon class="cls-7" points="274.84 698.2 261.78 707.92 237.24 700.95 211.54 720.07 174.62 727.26 205.86 763.17 206.28 796.7 240.36 765.34 255.12 781.43 265.37 748.86 292.73 778.68 307.02 733.27 335.38 715.39 274.84 698.2"/><polygon class="cls-7" points="392.29 693.67 373.49 699.59 338.18 695.35 301.21 706.99 248.1 711.36 293.04 733.22 293.65 753.62 342.67 734.53 363.91 744.33 378.66 724.5 418.02 742.65 438.58 715.02 479.38 704.14 392.29 693.67"/><path class="cls-6" d="M1533.68,562.58s335.67-10.3,359.22-20.6l30.81,1.72s7.47,145.93,22.19,176.84l-42.68,352-165.84-34.34s-139.93-233.92-145.82-244.23S1576.7,669,1576.7,669Z"/><path class="cls-8" d="M1588.53,559.94s303.19-9.86,324.46-19.71l27.83,1.64s6.75,139.58,20,169.14l-38.56,336.65-86.57-42.7S1646.55,771.25,1641.23,761.4s-13.85-99.65-13.85-99.65Z"/><polygon class="cls-7" points="1620.15 528.18 1607.09 537.9 1582.55 530.93 1556.85 550.06 1519.93 557.24 1551.17 593.16 1551.59 626.68 1585.67 595.32 1600.43 611.42 1610.68 578.85 1638.04 608.67 1652.33 563.26 1680.68 545.38 1620.15 528.18"/><polygon class="cls-7" points="1735.58 528.18 1722.52 537.9 1697.98 530.93 1672.28 550.06 1635.37 557.24 1666.6 593.16 1667.02 626.68 1701.1 595.32 1715.86 611.42 1726.11 578.85 1753.47 608.67 1767.76 563.26 1796.12 545.38 1735.58 528.18"/><polygon class="cls-7" points="1853.03 523.66 1834.23 529.58 1798.92 525.33 1761.95 536.97 1708.84 541.34 1753.78 563.2 1754.39 583.6 1803.41 564.52 1824.65 574.31 1839.4 554.49 1878.76 572.64 1899.32 545 1940.12 534.12 1853.03 523.66"/><path class="cls-9" d="M222.14,661.71l3.76-.26c-1,9.52-4.12,16.1,1.88,20,0-1.16.38-2.81.37-3.88a5.5,5.5,0,0,1,3.57-5c.79-.19,1.16,1.3,1.16,1.3,1.84.17,1.51.33,1.55,2.89,6.13-5.89,11.18-9,17.33-16.22.64,1.5,1.08,3.2,1.6,4.83-6.56,8.06-13.81,12.38-19.77,19.49,0,3.58.53,5.49-.7,9.5a14.85,14.85,0,0,0,3.91-1.21c1.25-.55,2.21.56,2.06,2.38v0a1.12,1.12,0,0,1-.53.9,19.18,19.18,0,0,1-6.18,1.75c-2.92,15.49-2.73,24.66-.94,38.08.4,3-1.92,5.26-2.74,6.14s-.19.2-.19.2c-2,.79-3.2,1.15-3.58-2-1.69-14.14-2.26-26.28,1.6-42.64-5.18,1-5.47-.43-6.56-5.16a5,5,0,0,1,.85-3.78l0,0c1.46,4.37,2.74,6.19,6.74,4.61a25.08,25.08,0,0,0,0-6.07C218.4,682,220.82,676.27,222.14,661.71Z"/><ellipse class="cls-10" cx="208.23" cy="661" rx="12.83" ry="14.11" transform="translate(-484.64 646.21) rotate(-71.29)"/><ellipse class="cls-11" cx="261.25" cy="665.05" rx="15.02" ry="18.53" transform="translate(-452.46 699.19) rotate(-71.29)"/><ellipse class="cls-12" cx="226.21" cy="648.01" rx="16.76" ry="14.6" transform="translate(-460.12 654.41) rotate(-71.29)"/><path class="cls-13" d="M117.85,729.53c0-8.38-1,.27-15.73.27s-13.49-.54-13.49,7.83c0,2.36-8.86,9.94-6,9.83,3.52-.14,17.09-9.86,8.81,1.94-2.08,3,8.38-1.71,11.32-1.95,1.69-.15-.48-3.18.49-3.48,3.82-1.18,3.56,1.22,6.75-.66,4.68-2.74-1.37-3.78.25-7C112.49,731.64,117.85,732.52,117.85,729.53Z"/><path class="cls-13" d="M319.57,707.79c0-8.38-1,.27-15.73.27s-13.5-.54-13.5,7.83c0,2.36-8.85,9.94-6,9.83,3.51-.14,17.09-9.86,8.81,1.94-2.09,3,8.38-1.7,11.31-1.95,1.7-.15-.47-3.18.5-3.48,3.82-1.18,3.55,1.22,6.75-.66,4.67-2.74-1.37-3.78.24-7.05C314.2,709.91,319.57,710.78,319.57,707.79Z"/><path class="cls-13" d="M400,727c.32,8.37,1-.3,15.71-.86s13.5,0,13.19-8.34c-.09-2.35,8.47-10.26,5.66-10-3.51.27-16.71,10.49-8.88-1.62,2-3-8.31,2-11.23,2.39-1.69.2.59,3.15-.37,3.49-3.77,1.32-3.59-1.08-6.72.91-4.57,2.92,1.52,3.73,0,7.06C405.24,724.73,399.85,724.05,400,727Z"/><path class="cls-13" d="M1854.33,542c0-13.15-56.45,9.16-136.87,9.16s-145.61,10.65-145.61,23.8c0,3.7,24.93,2,38.83,3.91,12.48,1.73,19.11-8.59,35.94-8,19.71.71,23.13,18.89,39.18,18.5,9.26-.23,32.29-15.53,37.6-16,20.9-1.85,19.45,1.9,36.91-1,25.57-4.3,74.42-14.8,83.25-19.93C1856,545.17,1854.33,546.67,1854.33,542Z"/><ellipse class="cls-14" cx="248.1" cy="644.08" rx="20.94" ry="18.96" transform="translate(-441.53 672.48) rotate(-71.29)"/><path class="cls-4" d="M1649.68,507.05c-.49-.11-1-.19-1.5-.27.26-3.28-4.35-6.72-11.38-8.16a31,31,0,0,0-8.7-.56,12.76,12.76,0,0,0-5.32-2.32c-6.59-1.36-14,1.26-16.58,5.85a6.26,6.26,0,0,0-.78,4.2c-5-.43-9.9,1.16-11.45,3.94-1.78,3.18,1.46,6.72,7.24,7.91,5,1,10.23,0,12.71-2.41-.88,4.79-1,7.19,5.17,9.53a7.85,7.85,0,0,1,0,3.17c-3.45.83-4.55-.12-5.81-2.41h0a1.91,1.91,0,0,0-.74,2c1,2.48,1.2,3.24,5.67,2.7-3.34,8.56-2.84,14.91-1.38,22.31.32,1.62,1.34,1.44,3.09,1,0,0-.46.3.16-.1s2.71-1.66,2.37-3.21c-1.55-7-1.71-11.82.81-19.93a25,25,0,0,0,5.33-.92.6.6,0,0,0,.45-.47v0c.12-.95-.7-1.53-1.78-1.25a19.27,19.27,0,0,1-3.37.64c1.06-2.1.57-3.1.6-5a94.66,94.66,0,0,1,10.08-5.86,19.58,19.58,0,0,0,7.56,3.09c7.58,1.56,15.42-.2,17.5-3.92S1657.27,508.6,1649.68,507.05Zm-24.45,12c0-1.34.26-1.42-1.34-1.51,0,0-.31-.78-1-.68s-3.11,1-3.08,2.63c0,.56-.3,1.42-.33,2-4.59-1.81-3-4.73-2-8.84a18.28,18.28,0,0,0,7.88-2,27,27,0,0,0,4,1.12c.77.16,1.55.29,2.32.39a4.13,4.13,0,0,0,.69,3C1630.1,516.44,1627.78,517.59,1625.23,519.07Z"/><path class="cls-15" d="M1710.38,509.05c-6.71,4.77-12.24,6.84-18.94,10.75,0-1.7.32-1.8-1.7-1.92,0,0-.4-1-1.26-.86s-3.93,1.28-3.9,3.33c0,.71-.38,1.8-.41,2.58-6.55-2.59-3.16-6.95-2.05-13.26l-4.11.17c-1.45,9.65-4.09,13.47,5.65,17.16a14.84,14.84,0,0,1,.18,3.29c-2.6,7,.73,9.78-2.06,11.77a2.49,2.49,0,0,0-1.15,2.72c1.41,5.51-1,11.46.18,17.38.41,2.05,1.7,1.81,3.92,1.29l.2-.13c.89-.59,5,.12,4.57-1.85-1.73-7.82-3.31-15.18-1.49-23.83-1-2.43-1.17-5.82,2.3-7.55.56-1.8.18-3,.22-4.93,6.51-4.71,14.43-7.57,21.6-12.91A28.23,28.23,0,0,0,1710.38,509.05Z"/><ellipse class="cls-16" cx="1701.4" cy="502.27" rx="9.02" ry="19.2" transform="translate(1016.07 2138.54) rotate(-83.72)"/><ellipse class="cls-10" cx="1666.35" cy="511.44" rx="7.77" ry="13.87" transform="translate(1076.48 2151.67) rotate(-87.28)"/><ellipse class="cls-11" cx="1717.63" cy="513.12" rx="9.16" ry="18.09" transform="translate(1055.51 2178.99) rotate(-84.96)"/><ellipse class="cls-12" cx="1683.71" cy="501.53" rx="16.26" ry="10.9" transform="translate(-42.61 175.6) rotate(-5.9)"/><path class="cls-15" d="M1664,500.68a109.45,109.45,0,0,0-8.16,17.35c-.69-1-.91-2.41-3.08-2.23-.68,0-.6-1.57-2-.73a3.41,3.41,0,0,0-.53,4.87c.45.53,1.23,2.32,1.83,3-9.71-3.39-10.08-10.22-12.27-16.34-1.19.44-2.32.92-3.46,1.42,3.14,8.08,4.21,15.5,18.06,19,.52.54,1.61,2,1.45,2.46-1,2.9-2.22,6-7.23,6.77a14.29,14.29,0,0,0-4.25,1c-10.51,4.15-14.68,5.61-13.29,13.69.49,2.8,1,1.45,3.68,1.73-.18-.15-.37.32.39-.27s5.32.68,4.22-1.65c-4.34-9.26,8-9.73,18.56-15.89a10.09,10.09,0,0,1,4.23-5.77,7.94,7.94,0,0,0-1.94-4.34,65,65,0,0,1,7-20C1666.15,503.39,1665.16,502,1664,500.68Z"/><path class="cls-16" d="M1632.2,498.23c-5.46-3.5,3.79-10,13-11.37s25.11,3.11,25.46,10.1-10,7.81-17.43,6.85S1637.66,501.74,1632.2,498.23Z"/><path class="cls-10" d="M1613.19,513c.44-4.73,5.73-6.61,13.52-7.84s13.32,2.76,13.75,7.89-6.32,8-14.09,7.71S1612.75,517.68,1613.19,513Z"/><path class="cls-11" d="M1655.35,501.72c.59,6.28,7,12.54,16.26,13.41s16.26-1.4,17.57-7-8.52-10.22-17.25-12.62S1654.75,495.44,1655.35,501.72Z"/><path class="cls-12" d="M1621.1,502.17c3.9,4.23,6.38,8.1,16.83,8.44s13.85-11.55,12.65-15-17.38-5-23.13-3.95S1617.21,497.94,1621.1,502.17Z"/><path class="cls-15" d="M1570.41,520.2c6.72,4.77,12.24,6.84,18.94,10.75,0-1.7-.32-1.8,1.7-1.92,0,0,.4-1,1.26-.86s3.93,1.28,3.9,3.33c0,.71.38,1.8.41,2.58,6.55-2.59,3.16-7,2.05-13.26l4.11.17c1.45,9.65,4.09,13.47-5.65,17.16a14.27,14.27,0,0,0-.17,3.29c2.6,7-.74,9.78,2.06,11.77a2.48,2.48,0,0,1,1.14,2.72c-1.4,5.51,1,11.46-.18,17.38-.41,2.05-1.7,1.81-3.91,1.29,0,0,.59.38-.21-.13s-5,.12-4.56-1.85c1.72-7.82,3.3-15.18,1.48-23.83,1.06-2.43,1.17-5.82-2.3-7.55-.56-1.8-.18-3-.22-4.93-6.51-4.71-14.43-7.57-21.6-12.91A28.23,28.23,0,0,1,1570.41,520.2Z"/><ellipse class="cls-16" cx="1579.39" cy="513.42" rx="19.2" ry="9.02" transform="translate(-46.68 175.81) rotate(-6.28)"/><ellipse class="cls-10" cx="1614.44" cy="522.59" rx="13.87" ry="7.77" transform="translate(-22.96 77.13) rotate(-2.72)"/><ellipse class="cls-11" cx="1563.16" cy="524.27" rx="18.09" ry="9.16" transform="translate(-40.03 139.44) rotate(-5.04)"/><ellipse class="cls-12" cx="1597.08" cy="512.68" rx="10.9" ry="16.26" transform="translate(923.07 2048.65) rotate(-84.1)"/><path class="cls-15" d="M1616.84,511.83a110.4,110.4,0,0,1,8.17,17.35c.68-1,.9-2.41,3.07-2.23.69,0,.6-1.57,2-.73a3.42,3.42,0,0,1,.52,4.87c-.45.53-1.23,2.32-1.82,3,9.7-3.39,10.07-10.22,12.26-16.34,1.2.44,2.32.92,3.46,1.42-3.14,8.08-4.21,15.5-18.06,19-.52.54-1.61,2-1.44,2.46,1,2.9,2.22,6,7.22,6.77a14.35,14.35,0,0,1,4.26,1c10.5,4.15,14.68,5.61,13.28,13.69-.49,2.8-1,1.45-3.68,1.73.18-.15.37.32-.38-.27s-5.32.68-4.23-1.65c4.35-9.26-8-9.73-18.55-15.89a10.15,10.15,0,0,0-4.24-5.77,7.94,7.94,0,0,1,1.94-4.34,65.19,65.19,0,0,0-7-20C1614.64,514.54,1615.63,513.16,1616.84,511.83Z"/><path class="cls-16" d="M1648.59,509.38c5.46-3.5-3.79-10-13-11.37s-25.11,3.11-25.46,10.1,10,7.81,17.43,6.85S1643.13,512.89,1648.59,509.38Z"/><path class="cls-10" d="M1667.6,524.1c-.44-4.73-5.72-6.61-13.52-7.84s-13.32,2.76-13.75,7.89,6.32,8,14.1,7.71S1668,528.83,1667.6,524.1Z"/><path class="cls-11" d="M1625.45,512.87c-.6,6.28-7,12.54-16.27,13.41s-16.26-1.4-17.57-7,8.53-10.22,17.25-12.62S1626,506.59,1625.45,512.87Z"/><path class="cls-12" d="M1659.69,513.32c-3.9,4.23-6.38,8.1-16.83,8.44s-13.85-11.55-12.65-15,17.39-5,23.14-3.95S1663.58,509.09,1659.69,513.32Z"/><path class="cls-4" d="M1780.78,514.11c-.5-.1-1-.19-1.5-.26.26-3.28-4.35-6.73-11.38-8.17a31,31,0,0,0-8.7-.56,12.76,12.76,0,0,0-5.32-2.32c-6.59-1.35-14,1.27-16.58,5.85a6.26,6.26,0,0,0-.78,4.2c-5-.42-9.9,1.16-11.45,3.94-1.78,3.18,1.46,6.72,7.24,7.91,5,1,10.23-.05,12.71-2.41-.88,4.79-1,7.2,5.17,9.53a7.9,7.9,0,0,1,0,3.18c-3.45.82-4.55-.13-5.81-2.42h0a1.9,1.9,0,0,0-.74,2c.95,2.48,1.2,3.24,5.67,2.7-3.34,8.56-2.84,14.91-1.38,22.31.32,1.62,1.34,1.44,3.09,1,0,0-.46.31.16-.1s2.71-1.66,2.37-3.21c-1.55-7-1.71-11.82.81-19.93a25,25,0,0,0,5.33-.92.6.6,0,0,0,.45-.47v0c.12-1-.7-1.53-1.78-1.24a20.22,20.22,0,0,1-3.37.63c1.06-2.1.57-3.09.6-5a92.93,92.93,0,0,1,10.08-5.85,19.73,19.73,0,0,0,7.56,3.09c7.58,1.55,15.41-.21,17.5-3.93S1788.37,515.67,1780.78,514.11Zm-24.45,12c0-1.34.26-1.42-1.34-1.51,0,0-.31-.78-1-.68s-3.11,1-3.08,2.63c0,.56-.3,1.42-.33,2-4.59-1.81-3-4.73-2-8.84a18.14,18.14,0,0,0,7.88-2,27,27,0,0,0,4,1.12c.77.16,1.55.29,2.32.39a4.16,4.16,0,0,0,.69,3C1761.2,523.51,1758.88,524.65,1756.33,526.13Z"/><path class="cls-4" d="M1819.72,518.69c-.5-.11-1-.19-1.5-.27.26-3.28-4.36-6.72-11.38-8.17a31.4,31.4,0,0,0-8.7-.55,12.76,12.76,0,0,0-5.32-2.32c-6.6-1.36-14,1.26-16.58,5.85a6.26,6.26,0,0,0-.78,4.2c-5-.43-9.9,1.16-11.45,3.94-1.78,3.18,1.46,6.72,7.24,7.91,5,1,10.23,0,12.71-2.41-.88,4.79-1,7.19,5.17,9.53a7.85,7.85,0,0,1,0,3.17c-3.45.83-4.55-.12-5.81-2.41h0a1.9,1.9,0,0,0-.74,2c.94,2.48,1.2,3.24,5.67,2.7-3.34,8.56-2.85,14.91-1.38,22.31.32,1.62,1.34,1.43,3.09,1l.16-.1c.71-.47,2.71-1.66,2.36-3.21-1.54-7-1.71-11.82.82-19.93a25,25,0,0,0,5.33-.92.6.6,0,0,0,.45-.47v0c.12-.95-.7-1.53-1.78-1.25a19.45,19.45,0,0,1-3.37.64c1-2.1.57-3.1.6-5a93.68,93.68,0,0,1,10.08-5.86,19.53,19.53,0,0,0,7.55,3.09c7.59,1.56,15.42-.2,17.5-3.93S1827.31,520.24,1819.72,518.69Zm-24.45,12c0-1.34.26-1.42-1.34-1.51,0,0-.32-.78-1-.68s-3.11,1-3.09,2.63c0,.56-.29,1.42-.32,2-4.59-1.81-3-4.73-2-8.84a18.33,18.33,0,0,0,7.89-2,26.83,26.83,0,0,0,4,1.12c.78.16,1.55.29,2.32.39a4.19,4.19,0,0,0,.7,3C1800.14,528.08,1797.81,529.23,1795.27,530.71Z"/><path class="cls-15" d="M1790.73,516.11c-6.71,4.77-12.23,6.84-18.94,10.75,0-1.7.33-1.8-1.69-1.92,0,0-.41-1-1.27-.86s-3.93,1.28-3.9,3.33c0,.71-.37,1.81-.41,2.58-6.55-2.59-3.15-7-2-13.26l-4.1.17c-1.45,9.66-4.1,13.48,5.65,17.16a14.94,14.94,0,0,1,.17,3.3c-2.6,6.95.73,9.78-2.06,11.76a2.5,2.5,0,0,0-1.15,2.72c1.41,5.51-1,11.46.19,17.38.4,2,1.69,1.82,3.91,1.29l.2-.13c.9-.59,5,.12,4.57-1.84-1.72-7.83-3.31-15.19-1.49-23.84-1-2.43-1.17-5.82,2.31-7.55.56-1.8.18-3,.21-4.93,6.51-4.71,14.43-7.57,21.6-12.91A26.74,26.74,0,0,0,1790.73,516.11Z"/><ellipse class="cls-16" cx="1781.76" cy="509.34" rx="9.02" ry="19.2" transform="translate(1080.61 2224.7) rotate(-83.72)"/><ellipse class="cls-10" cx="1746.7" cy="518.5" rx="7.77" ry="13.87" transform="translate(1145.97 2238.66) rotate(-87.28)"/><ellipse class="cls-11" cx="1797.98" cy="520.18" rx="9.16" ry="18.09" transform="translate(1121.77 2265.48) rotate(-84.96)"/><ellipse class="cls-12" cx="1764.06" cy="508.59" rx="16.26" ry="10.9" transform="translate(-42.91 183.89) rotate(-5.9)"/><path class="cls-15" d="M1744.31,507.75a108.7,108.7,0,0,0-8.17,17.35c-.69-1.06-.91-2.42-3.08-2.24-.68,0-.6-1.57-2-.73a3.41,3.41,0,0,0-.52,4.87c.44.54,1.23,2.32,1.82,3-9.71-3.39-10.08-10.22-12.26-16.34-1.2.44-2.33.92-3.46,1.42,3.13,8.08,4.2,15.5,18.06,19,.52.54,1.6,2,1.44,2.46-1,2.9-2.22,6-7.23,6.77a14.36,14.36,0,0,0-4.25,1c-10.5,4.15-14.68,5.62-13.28,13.69.48,2.8,1,1.45,3.68,1.73-.19-.15-.38.32.38-.27s5.32.68,4.23-1.64c-4.35-9.26,8-9.74,18.55-15.9a10.16,10.16,0,0,1,4.23-5.77,7.85,7.85,0,0,0-1.93-4.34,64.78,64.78,0,0,1,7-19.95C1746.5,510.46,1745.51,509.07,1744.31,507.75Z"/><path class="cls-16" d="M1712.55,505.29c-5.46-3.5,3.79-10,13-11.37S1750.63,497,1751,504s-10,7.81-17.43,6.86S1718,508.8,1712.55,505.29Z"/><path class="cls-10" d="M1693.54,520c.44-4.73,5.73-6.61,13.52-7.84s13.32,2.76,13.75,7.89-6.32,8-14.09,7.71S1693.1,524.74,1693.54,520Z"/><path class="cls-11" d="M1735.7,508.78c.59,6.28,7,12.54,16.27,13.41s16.25-1.4,17.56-7S1761,505,1752.29,502.62,1735.11,502.51,1735.7,508.78Z"/><path class="cls-12" d="M1701.46,509.23c3.89,4.23,6.38,8.1,16.82,8.44s13.85-11.55,12.65-15-17.38-5-23.13-3.95S1697.56,505,1701.46,509.23Z"/><path class="cls-15" d="M1650.76,527.26c6.72,4.77,12.24,6.84,19,10.75,0-1.7-.33-1.8,1.69-1.92,0,0,.4-1,1.26-.86s3.93,1.28,3.91,3.33c0,.71.37,1.81.4,2.58,6.56-2.59,3.16-6.95,2-13.26l4.11.17c1.45,9.66,4.1,13.48-5.65,17.16a14.94,14.94,0,0,0-.17,3.3c2.6,7-.73,9.78,2.06,11.76a2.52,2.52,0,0,1,1.15,2.72c-1.41,5.51,1,11.46-.19,17.38-.4,2-1.69,1.82-3.91,1.29l-.2-.13c-.9-.59-5,.12-4.57-1.84,1.72-7.83,3.3-15.19,1.49-23.84,1-2.43,1.17-5.82-2.31-7.55-.56-1.8-.18-3-.21-4.93-6.51-4.71-14.43-7.57-21.6-12.91A26.67,26.67,0,0,1,1650.76,527.26Z"/><ellipse class="cls-16" cx="1659.74" cy="520.49" rx="19.2" ry="9.02" transform="translate(-46.97 184.64) rotate(-6.28)"/><ellipse class="cls-10" cx="1694.8" cy="529.65" rx="13.87" ry="7.77" transform="translate(-23.21 80.95) rotate(-2.72)"/><ellipse class="cls-11" cx="1643.51" cy="531.33" rx="18.09" ry="9.16" transform="translate(-40.34 146.53) rotate(-5.04)"/><ellipse class="cls-12" cx="1677.43" cy="519.74" rx="10.9" ry="16.26" transform="translate(988.14 2134.91) rotate(-84.1)"/><path class="cls-15" d="M1697.19,518.9a109.57,109.57,0,0,1,8.17,17.35c.69-1.06.91-2.42,3.08-2.24.68,0,.6-1.57,2-.73a3.42,3.42,0,0,1,.52,4.87c-.45.54-1.23,2.32-1.82,3,9.7-3.39,10.08-10.22,12.26-16.34,1.2.44,2.33.92,3.46,1.42-3.14,8.08-4.2,15.5-18.06,19-.52.54-1.6,2-1.44,2.46,1,2.9,2.22,6,7.23,6.77a14.36,14.36,0,0,1,4.25,1c10.5,4.15,14.68,5.62,13.28,13.69-.48,2.8-1,1.45-3.68,1.73.18-.15.37.32-.38-.27s-5.32.68-4.23-1.64c4.35-9.26-8-9.74-18.55-15.9a10.14,10.14,0,0,0-4.24-5.77,7.94,7.94,0,0,1,1.94-4.34,64.78,64.78,0,0,0-7-19.95C1695,521.61,1696,520.22,1697.19,518.9Z"/><path class="cls-16" d="M1728.94,516.44c5.47-3.5-3.78-10-13-11.37s-25.12,3.11-25.46,10.1,10,7.81,17.43,6.86S1723.48,520,1728.94,516.44Z"/><path class="cls-10" d="M1748,531.16c-.44-4.73-5.73-6.61-13.52-7.84s-13.32,2.76-13.75,7.89,6.31,8,14.09,7.71S1748.4,535.89,1748,531.16Z"/><path class="cls-11" d="M1705.8,519.93c-.59,6.28-7,12.54-16.27,13.41s-16.25-1.4-17.56-7,8.52-10.22,17.24-12.61S1706.39,513.66,1705.8,519.93Z"/><path class="cls-12" d="M1740,520.38c-3.89,4.23-6.38,8.1-16.82,8.44s-13.85-11.55-12.65-15,17.38-5,23.13-4S1743.93,516.15,1740,520.38Z"/><path class="cls-9" d="M329.77,607.89c-7.17,9.37-13.07,13.43-20.24,21.09,0-3.33.35-3.53-1.81-3.76,0,0-.43-1.93-1.34-1.69a7.06,7.06,0,0,0-4.17,6.54c0,1.39-.4,3.53-.44,5-7-5.08-3.37-13.63-2.19-26l-4.39.33c-1.55,18.94-4.37,26.43,6,33.65a52.86,52.86,0,0,1,.18,6.47c-2.77,13.65.78,19.19-2.2,23.08A7.19,7.19,0,0,0,298,678c1.5,10.8-1.06,22.48.19,34.09.44,4,1.82,3.56,4.18,2.53,0,0-.63.75.22-.25,1-1.16,5.34.23,4.88-3.63-1.84-15.35-3.53-29.79-1.59-46.76-1.12-4.76-1.25-11.42,2.46-14.81.6-3.52.2-5.89.23-9.67,7-9.24,15.42-14.85,23.08-25.33C331,612.05,330.52,609.84,329.77,607.89Z"/><ellipse class="cls-16" cx="320.18" cy="594.6" rx="17.08" ry="21.24" transform="translate(-355.1 602.41) rotate(-62.36)"/><ellipse class="cls-10" cx="282.73" cy="612.59" rx="14.54" ry="15.53" transform="translate(-272.65 229.49) rotate(-30.63)"/><ellipse class="cls-11" cx="337.52" cy="615.87" rx="17.37" ry="20" transform="translate(-363.12 567.65) rotate(-57.34)"/><ellipse class="cls-12" cx="301.28" cy="593.14" rx="21.65" ry="17.16" transform="matrix(0.18, -0.98, 0.98, 0.18, -336.81, 781.33)"/><path class="cls-9" d="M447,618.17a319.58,319.58,0,0,0-8.73,34c-.73-2.07-1-4.74-3.29-4.38-.73,0-.64-3.08-2.13-1.43s-1.94,6.5-.56,9.54c.48,1.06,1.32,4.56,1.95,5.92-10.37-6.65-10.76-20.05-13.1-32.07-1.28.87-2.48,1.82-3.7,2.79,3.36,15.86,4.5,30.42,19.3,37.2.56,1.06,1.71,3.91,1.54,4.82-1.08,5.69-2.37,11.82-7.72,13.28a10,10,0,0,0-4.55,2c-11.22,8.14-15.68,11-14.19,26.85.52,5.5,1.1,2.84,3.94,3.4-.2-.3-.4.62.4-.53s5.69,1.33,4.52-3.23c-4.64-18.17,8.53-19.1,19.82-31.18.78-4.29,1.86-8.08,4.53-11.33a23.54,23.54,0,0,0-2.07-8.51,206.08,206.08,0,0,1,7.5-39.15C449.31,623.48,448.25,620.76,447,618.17Z"/><path class="cls-16" d="M413,613.36c-5.83-6.88,4-19.67,13.85-22.31s26.83,6.1,27.21,19.81-10.68,15.31-18.62,13.45S418.88,620.24,413,613.36Z"/><path class="cls-10" d="M392.73,642.23c.47-9.28,6.12-13,14.44-15.38s14.23,5.41,14.69,15.48-6.75,15.66-15.05,15.12S392.26,651.51,392.73,642.23Z"/><path class="cls-11" d="M437.77,620.2c.63,12.31,7.51,24.6,17.38,26.31s17.36-2.76,18.77-13.66-9.11-20.05-18.43-24.75S437.13,607.88,437.77,620.2Z"/><path class="cls-12" d="M401.19,621.08c4.15,8.3,6.81,15.88,18,16.56S434,615,432.67,608.21,414.1,598.4,408,600.47,397,612.78,401.19,621.08Z"/><path class="cls-9" d="M91.63,616.48l5.25-.32c-1.26,14.36-5.5,24.24,3,30.25,0-1.76.49-4.24.46-5.87a8,8,0,0,1,4.92-7.52c1.09-.27,1.63,2,1.63,2,2.59.3,2.13.54,2.22,4.4,8.49-8.79,15.51-13.42,24-24.19.92,2.28,1.56,4.86,2.31,7.33-9,12.05-19.12,18.45-27.34,29.08,0,5.42.83,8.31-.82,14.34a18.86,18.86,0,0,0,5.45-1.76c1.74-.8,3.09.89,2.91,3.63v.07a1.69,1.69,0,0,1-.72,1.35,24.65,24.65,0,0,1-8.62,2.53c-3.84,23.36-3.43,37.21-.7,57.52.6,4.49-2.6,7.9-3.74,9.23l-.25.29c-2.83,1.16-4.47,1.68-5-3-2.61-21.4-3.6-39.74,1.54-64.39-7.23,1.47-7.66-.74-9.27-7.91a8,8,0,0,1,1.14-5.7l0,0c2.11,6.63,3.93,9.4,9.5,7.09.51-3.22,0-6.26-.15-9.18C86.72,647.13,90,638.46,91.63,616.48Z"/><ellipse class="cls-16" cx="117.94" cy="620.06" rx="19.79" ry="25.53" transform="translate(-490 450.4) rotate(-63.64)"/><ellipse class="cls-17" cx="88.63" cy="612.77" rx="17.02" ry="18.47" transform="translate(-404.47 238.33) rotate(-44.56)"/><ellipse class="cls-11" cx="142.43" cy="624.59" rx="20.14" ry="24.01" transform="translate(-470.45 438.09) rotate(-60.23)"/><path class="cls-15" d="M1843.5,497.64c-4.44,5.21-8.09,7.47-12.53,11.73,0-1.85.21-2-1.12-2.09,0,0-.27-1.07-.84-.94a4,4,0,0,0-2.58,3.64c0,.77-.25,2-.27,2.81-4.34-2.83-2.09-7.58-1.36-14.47l-2.72.19c-1,10.53-2.7,14.7,3.74,18.72a26.57,26.57,0,0,1,.12,3.6c-1.72,7.59.48,10.67-1.36,12.84a3.64,3.64,0,0,0-.76,3c.93,6-.66,12.51.12,19,.27,2.24,1.12,2,2.59,1.41l.13-.14c.59-.65,3.31.13,3-2-1.14-8.54-2.18-16.58-1-26-.7-2.65-.77-6.36,1.52-8.24a28.14,28.14,0,0,0,.15-5.38c4.3-5.14,9.55-8.27,14.29-14.09C1844.28,500,1844,498.73,1843.5,497.64Z"/><ellipse class="cls-16" cx="1837.56" cy="490.25" rx="9.66" ry="12.94" transform="translate(783.81 2073.47) rotate(-71.29)"/><ellipse class="cls-10" cx="1814.37" cy="500.26" rx="8.41" ry="9.25" transform="translate(758.58 2058.29) rotate(-71.29)"/><ellipse class="cls-11" cx="1848.3" cy="502.08" rx="9.85" ry="12.15" transform="translate(779.9 2091.68) rotate(-71.29)"/><ellipse class="cls-12" cx="1825.86" cy="489.43" rx="12.12" ry="10.56" transform="translate(776.63 2061.82) rotate(-71.29)"/><path class="cls-15" d="M1812.37,491.34a163.45,163.45,0,0,0-5.41,18.93c-.45-1.15-.6-2.63-2-2.43-.46,0-.4-1.72-1.32-.8s-1.2,3.61-.35,5.31c.3.59.82,2.53,1.21,3.29-6.42-3.7-6.67-11.16-8.12-17.84-.79.48-1.54,1-2.29,1.55,2.08,8.83,2.79,16.92,12,20.7a6.7,6.7,0,0,1,1,2.68c-.67,3.16-1.47,6.57-4.78,7.39a6.66,6.66,0,0,0-2.82,1.1c-6.95,4.53-9.71,6.12-8.79,14.94.32,3.05.68,1.58,2.44,1.89-.12-.17-.25.34.25-.3s3.52.74,2.8-1.8c-2.88-10.1,5.28-10.62,12.28-17.34a12.3,12.3,0,0,1,2.8-6.3,12,12,0,0,0-1.28-4.74,104,104,0,0,1,4.64-21.78C1813.82,494.3,1813.16,492.78,1812.37,491.34Z"/><path class="cls-16" d="M1791.77,485.84c-3.61-3.83,2.51-10.95,8.58-12.41s16.62,3.39,16.85,11-6.61,8.52-11.54,7.48S1795.39,489.66,1791.77,485.84Z"/><path class="cls-10" d="M1779.19,501.9c.29-5.16,3.79-7.21,9-8.55s8.81,3,9.09,8.61-4.18,8.71-9.32,8.41S1778.9,507.07,1779.19,501.9Z"/><path class="cls-11" d="M1807.09,489.64c.39,6.85,4.65,13.69,10.76,14.64s10.76-1.53,11.62-7.6-5.64-11.15-11.41-13.77S1806.69,482.79,1807.09,489.64Z"/><path class="cls-12" d="M1784.43,490.13c2.57,4.62,4.22,8.84,11.13,9.22s9.16-12.61,8.37-16.37-11.5-5.46-15.31-4.31S1781.85,485.52,1784.43,490.13Z"/><path class="cls-18" d="M-5.76,778l150.4,131.31,48.63,43.47,135.88,101.35,200.74-12,56.86,61.25h913.53L1705.73,1047s111.9-32.66,133.91-77.41l81-75V1103.4H-11.26Z"/></svg>
