<svg xmlns="http://www.w3.org/2000/svg" xmlns:xlink="http://www.w3.org/1999/xlink" width="1920" height="1089.83" viewBox="0 0 1920 1089.83"><defs><style>.cls-1{isolation:isolate;}.cls-2{fill:url(#linear-gradient);}.cls-3{fill:#333232;}.cls-4{fill:#c1955b;}.cls-5{fill:#b34948;}.cls-6{fill:#cf2c2c;}.cls-7{mix-blend-mode:overlay;}.cls-10,.cls-8{fill:#010101;}.cls-9{fill:#fff;}.cls-10,.cls-12{opacity:0.3;}.cls-11{opacity:0.2;}.cls-13{fill:#f8dae9;}.cls-14{fill:#7c2368;}.cls-15{fill:#d6c22f;}.cls-16{fill:#c12f26;}.cls-17{fill:url(#linear-gradient-2);}.cls-18{fill:#78c263;}.cls-19{fill:#9ed18e;}</style><linearGradient id="linear-gradient" x1="452.99" y1="132.21" x2="1370.19" y2="878.81" gradientUnits="userSpaceOnUse"><stop offset="0" stop-color="#c9e8ed"/><stop offset="0.36" stop-color="#90d6e8"/><stop offset="0.71" stop-color="#fef8d9"/></linearGradient><linearGradient id="linear-gradient-2" x1="1261.4" y1="364.16" x2="1263.69" y2="514.58" gradientUnits="userSpaceOnUse"><stop offset="0" stop-color="#c33a27"/><stop offset="0.54" stop-color="#78c263"/><stop offset="0.89" stop-color="#78c263" stop-opacity="0.8"/></linearGradient></defs><g class="cls-1"><g id="Layer_1" data-name="Layer 1"><rect class="cls-2" width="1920" height="1089.83"/><ellipse class="cls-3" cx="997.65" cy="222.7" rx="2.04" ry="7.2" transform="translate(190.1 849.42) rotate(-50.4)"/><path class="cls-3" d="M997.74,222.65a26.32,26.32,0,0,1,4.37,4.86,1.07,1.07,0,0,0,1.07-.25c.7-.85-1.17-3.56-4.24-6.09s-6.11-3.9-6.81-3a.82.82,0,0,0-.12.71A34.42,34.42,0,0,1,997.74,222.65Z"/><path class="cls-3" d="M996.72,223.36a5.3,5.3,0,0,1,5.52-4.27s2.57-2.38,2.86-2.74l.36.22s-2.51,2.73-3.23,3c0,0-3.32-.8-5.18,4Z"/><path class="cls-3" d="M1003,227.61a15.86,15.86,0,0,1-6.75-3.4c-3.79-3-4.15-6.1-4.15-6.1l-2.36,4.08a16.67,16.67,0,1,0,7.74,8.91Z"/><polygon class="cls-4" points="1006.32 223.03 1004.2 220.44 1001.45 222.35 1002.16 219.08 998.96 218.12 1001.95 216.63 1000.71 213.53 1003.74 214.95 1005.39 212.04 1006.17 215.29 1009.47 214.77 1007.41 217.4 1009.88 219.66 1006.54 219.7 1006.32 223.03"/><polygon class="cls-5" points="1007.84 221.86 1005 220.09 1003.01 222.78 1002.63 219.46 999.29 219.58 1001.65 217.21 999.47 214.67 1002.79 215.04 1003.42 211.75 1005.2 214.58 1008.16 213.02 1007.07 216.18 1010.13 217.52 1006.98 218.63 1007.84 221.86"/><polygon class="cls-6" points="1005.89 219.51 1004.57 218.71 1003.66 219.97 1003.46 218.43 1001.91 218.51 1002.99 217.4 1001.97 216.23 1003.51 216.38 1003.78 214.85 1004.63 216.15 1005.99 215.41 1005.5 216.88 1006.93 217.49 1005.47 218.02 1005.89 219.51"/><g class="cls-7"><path class="cls-8" d="M1610.72,424.36c-1.85-3.66-7.08-6.11-16.91-8,4.34-7.05-8.85-20.61-10-16.18,7.42-27.3-19.14-30.15-31.11-30.15-21.53,0-19.67,15.4-30.08,15.06-13.22-.43-27.34,3.58-29.73,14.82.69-3.28-46.42,9.59-35.42,24.95-12.58-17.55-48.33-.83-48.33-.83-17-6.34-26.8-9-55-.27-8.11,2.52-13.36,11.26-12.44,16.18-11.77,4.44-14.39,12.05-10,20,9.33,17.13,15.19-1.11,23.92,18.5-24.41,15.05,31.83,27,35.07,23.76,4-4,19.71,7.26,34.08,5,9.25-.25,13.66-4.44,20.34-5.76,3.22-.63,30.66-6.53,22-9.46,27.52,9.32,43.36-.68,55.75-15.49,7.29.29,11.74-5.88,16-3.42,14.35,8.22,48.82,1,47.61-16-5.05-14.76,12.57,2,24.5-27.61A6,6,0,0,0,1610.72,424.36Z"/><path class="cls-9" d="M1608.53,429.19c0-4.8-7.72-9-19-11a8.29,8.29,0,0,0,1.26-4.3c0-5.11-5.08-9.53-12.51-11.71A16,16,0,0,0,1583.2,391c0-10.85-12.43-19.64-27.77-19.64-14.11,0-25.77,7.45-27.53,17.1a30.48,30.48,0,0,0-9.32-1.43c-11.78,0-21.57,6.46-23.48,14.93a30.85,30.85,0,0,0-5.81-.54c-16.17,0-29.28,12.45-29.28,27.82,0,.28,0,.55,0,.82l-.26,0c-3.6-6.18-13.77-10.63-25.76-10.63-10.6,0-19.78,3.49-24.25,8.56-6.51-4.19-17-6.92-28.75-6.92-19.73,0-35.72,7.62-35.72,17a8.49,8.49,0,0,0,.49,2.82c-6.79,2.34-11.49,7.38-11.49,13.23,0,8.06,9,14.61,20,14.61q1.08,0,2.13-.09a7.85,7.85,0,0,0-.09,1.19c0,2.89,1.66,5.6,4.57,7.92-4.14,2.2-6.61,5-6.61,8,0,7.14,14,12.93,31.22,12.93a68,68,0,0,0,15.31-1.66c3.18,5,11.53,8.54,21.33,8.54,8.7,0,16.26-2.81,20.07-6.92.59,0,1.19,0,1.79,0,10.21,0,19-3.49,22.93-8.49a40.7,40.7,0,0,0,19,4.56c15.48,0,28.63-8.23,33.4-19.69.64,0,1.28.05,1.93.05a35.89,35.89,0,0,0,17-4,37.09,37.09,0,0,0,17.24,4c15.31,0,27.71-8.28,27.71-18.5a13.11,13.11,0,0,0-1.56-6.14c12.42-2.24,21-6.93,21-12.36a5.21,5.21,0,0,0-.3-1.73C1606.22,434.27,1608.53,431.83,1608.53,429.19Z"/><path class="cls-10" d="M1451.91,423.22a40.61,40.61,0,0,0-17.91-3.87c-10.6,0-19.78,3.49-24.25,8.56-6.51-4.19-17-6.92-28.75-6.92-19.73,0-35.72,7.62-35.72,17a8.49,8.49,0,0,0,.49,2.82c-6.79,2.34-11.49,7.38-11.49,13.23,0,8.06,9,14.61,20,14.61q1.08,0,2.13-.09a7.85,7.85,0,0,0-.09,1.19c0,2.89,1.66,5.6,4.57,7.92-4.14,2.2-6.61,5-6.61,8,0,7.14,14,12.93,31.22,12.93a68,68,0,0,0,15.31-1.66c3.18,5,11.53,8.54,21.33,8.54a38.24,38.24,0,0,0,6.63-.57C1409.89,497.23,1391.7,462.4,1451.91,423.22Z"/><path class="cls-10" d="M1433.21,419.36c-10.27.17-19.11,3.6-23.46,8.55-6.51-4.19-17-6.92-28.75-6.92-19.73,0-35.72,7.62-35.72,17a8.49,8.49,0,0,0,.49,2.82c-6.79,2.34-11.49,7.38-11.49,13.23,0,8.06,9,14.61,20,14.61q1.08,0,2.13-.09a7.85,7.85,0,0,0-.09,1.19c0,2.89,1.66,5.6,4.57,7.92-4.14,2.2-6.61,5-6.61,8,0,6.35,11,11.63,25.6,12.72C1381.51,489.78,1366.18,467.44,1433.21,419.36Z"/></g><g class="cls-7"><path class="cls-8" d="M942.92,299.73h-4.51c-1.55-5.82-4.91-10.57-9.23-13.16a22.46,22.46,0,0,0,.43-4.36c0-14.53-14.16-26.31-31.63-26.31-10.44,0-19.7,4.21-25.46,10.7a24,24,0,0,0-44.29,3.19l-.23,0c0-.42,0-.84,0-1.26,0-23.76-11.62-43-25.94-43a16.12,16.12,0,0,0-5.15.85c-1.69-13.1-10.35-23.08-20.79-23.08a16.89,16.89,0,0,0-8.25,2.2c-1.56-14.91-11.88-26.44-24.38-26.44-13.58,0-24.59,13.6-24.59,30.37a35.31,35.31,0,0,0,4.37,17.29,20.33,20.33,0,0,0-10,24.76c-10,3.19-16.85,9.64-16.85,17.07,0,4.07,2,7.84,5.55,10.95a14.07,14.07,0,0,0-.26,2.68c0,7.27,5.7,13.69,14.38,17.52h-3.37c-4.64-1.8-12.34-4.5-18.38-30.74a15.7,15.7,0,0,1,.14-7.88c1.65-5.66,6.27-9.44,15-12.37-3.84-10.9,7.84-31.86,8.9-25-6.57-42.21,17-46.61,27.55-46.61,19.07,0,17.42,23.81,26.64,23.28,11.71-.66,24.21,5.53,26.33,22.91-.62-5.07,41.11,14.83,31.36,38.56,11.14-27.12,42.8-1.27,42.8-1.27,15.08-9.81,23.74-14,48.74-.42,7.18,3.89,11.83,17.41,11,25A22.73,22.73,0,0,1,942.92,299.73Z"/><path class="cls-9" d="M937.54,297.9H712.43c-6.76-3.9-11-9.54-11-15.83a14.07,14.07,0,0,1,.26-2.68c-3.49-3.11-5.55-6.88-5.55-10.95,0-7.44,6.84-13.88,16.85-17.07a20.33,20.33,0,0,1,10-24.76,35.45,35.45,0,0,1-4.37-17.29c0-16.77,11-30.37,24.59-30.37,12.5,0,22.82,11.53,24.38,26.44a16.78,16.78,0,0,1,8.25-2.2c10.44,0,19.1,10,20.8,23.08a16,16,0,0,1,5.14-.85c14.32,0,25.94,19.26,25.94,43,0,.42,0,.84,0,1.25l.24,0a24,24,0,0,1,44.28-3.19c5.76-6.49,15-10.7,25.46-10.7,17.47,0,31.63,11.78,31.63,26.31a22.54,22.54,0,0,1-.43,4.36A21.11,21.11,0,0,1,937.54,297.9Z"/><rect class="cls-8" x="712.78" y="297.9" width="229.67" height="1.84" transform="translate(1655.23 597.63) rotate(-180)"/><g class="cls-11"><path class="cls-8" d="M767.89,205.53a16.57,16.57,0,0,1,16.67.1q.83-1.26,1.68-2.49a26.42,26.42,0,0,0-13.63-2.74c-9.22.53-7.57-23.28-26.64-23.28-10.6,0-34.12,4.4-27.55,46.61-1.06-6.85-12.74,14.11-8.9,25-8.71,2.93-13.33,6.71-15,12.37a15.77,15.77,0,0,0-.15,7.87c6.05,26.25,13.75,28.95,18.39,30.75h3.37c-8.68-3.83-14.38-10.25-14.38-17.52a14.07,14.07,0,0,1,.26-2.68c-3.5-3.11-5.55-6.88-5.55-10.95,0-7.43,6.84-13.88,16.85-17.07a20.33,20.33,0,0,1,10-24.76,35.31,35.31,0,0,1-4.37-17.29c0-16.77,11-30.37,24.59-30.37C756,179.09,766.33,190.62,767.89,205.53Z"/><path class="cls-8" d="M749.32,295.64c2.65-6.49,4.95-13.11,7.1-19.78,4.23-13.08,7.92-26.34,12.87-39.18a192,192,0,0,1,9.88-22.07c1.65-3.07,3.45-6,5.35-8.93a16.58,16.58,0,0,0-17-.29C766,190.48,755.65,179,743.15,179c-13.58,0-24.59,13.6-24.59,30.37a35.45,35.45,0,0,0,4.37,17.29,20.33,20.33,0,0,0-10,24.76c-10,3.19-16.85,9.63-16.85,17.07,0,4.07,2.06,7.84,5.55,10.95a14.07,14.07,0,0,0-.26,2.68c0,6.29,4.26,11.93,11,15.83h35.89C748.66,297.15,749,296.4,749.32,295.64Z"/><path class="cls-8" d="M747.56,299.58c.26-.56.51-1.12.76-1.68H712.78v1.83h34.71A1,1,0,0,1,747.56,299.58Z"/></g><g class="cls-11"><path class="cls-8" d="M743.51,179.09c11.75,0,21.58,10.19,24,23.81.37-.83.74-1.66,1.1-2.49.17-.41.33-.82.5-1.24-5.7-4.8-6.92-22-23.15-22-10.6,0-34.12,4.4-27.55,46.61-1.06-6.85-12.74,14.11-8.9,25-8.71,2.93-13.33,6.71-15,12.37a15.7,15.7,0,0,0-.14,7.88c6,26.24,13.74,28.94,18.38,30.74h3.37c-8.68-3.83-14.38-10.25-14.38-17.52a14.07,14.07,0,0,1,.26-2.68c-3.5-3.11-5.55-6.88-5.55-10.95,0-7.43,6.84-13.88,16.85-17.07a20.33,20.33,0,0,1,10-24.76,35.31,35.31,0,0,1-4.37-17.29C718.92,192.69,729.93,179.09,743.51,179.09Z"/><path class="cls-8" d="M874.83,288c.44-.73.85-1.47,1.26-2.22l.18-2-1.23,1.8c-.54.79-1.07,1.59-1.61,2.39C873.9,287.92,874.37,288,874.83,288Z"/><path class="cls-8" d="M736.69,290c.63-6.19,1.49-12.39,2.71-18.49a156.7,156.7,0,0,1,10.42-31.86c-.53,1.24-1.05,2.48-1.57,3.72,3.41-8.1,7.18-16,11.14-23.81,2.7-5.35,5.39-10.7,7.88-16.15-2.22-14-12.17-24.49-24.12-24.49-13.58,0-24.59,13.6-24.59,30.37a35.45,35.45,0,0,0,4.37,17.29,20.33,20.33,0,0,0-10,24.76c-10,3.19-16.85,9.63-16.85,17.07,0,4.07,2.06,7.84,5.55,10.95a14.07,14.07,0,0,0-.26,2.68c0,6.29,4.26,11.93,11,15.83h23.71C736.27,295.27,736.42,292.65,736.69,290Z"/><path class="cls-8" d="M736.14,297.9H712.78v1.83H736C736.07,299.12,736.11,298.51,736.14,297.9Z"/></g></g><path class="cls-8" d="M744.43,252.52c-4.1-10.68-15.66-17.82-37.42-23.35,9.6-20.56-19.57-60.12-22.23-47.18,16.41-79.66-42.35-88-68.81-88C568.33,94,572.44,139,549.41,138c-29.25-1.26-60.48,10.44-65.77,43.23,1.54-9.56-102.69,28-78.34,72.77-27.84-51.19-106.93-2.4-106.93-2.4-37.65-18.51-59.28-26.39-121.74-.8-17.94,7.35-29.56,32.85-27.53,47.18-26,12.95-31.82,35.15-22.23,58.37,20.65,50,33.61-3.24,52.93,54-54,43.89,70.4,78.77,77.58,69.29,8.87-11.7,43.61,21.17,75.4,14.67,20.45-.72,30.21-12.95,45-16.79,7.11-1.85,67.83-19,48.7-27.59,60.87,27.19,95.91-2,123.33-45.18,16.13.84,26-17.17,35.47-10,31.76,24,108,3,105.33-46.78-11.17-43.05,27.82,5.93,54.2-80.53A22.7,22.7,0,0,0,744.43,252.52Z"/><path class="cls-9" d="M739.59,266.61c0-14-17.09-26.19-42.09-32.21a30,30,0,0,0,2.79-12.54c0-14.91-11.25-27.82-27.67-34.18a54.48,54.48,0,0,0,10.93-32.63c0-31.64-27.51-57.3-61.43-57.3-31.23,0-57,21.75-60.92,49.89A52.85,52.85,0,0,0,488.65,187a52.78,52.78,0,0,0-12.85-1.6C440,185.43,411,221.78,411,266.61q0,1.18,0,2.37l-.58-.09c-8-18-30.46-31-57-31-23.45,0-43.77,10.16-53.65,25-14.39-12.24-37.52-20.19-63.61-20.19-43.64,0-79,22.23-79,49.65a32.05,32.05,0,0,0,1.08,8.23c-15,6.81-25.42,21.51-25.42,38.56,0,23.54,19.81,42.62,44.25,42.62a46,46,0,0,0,4.72-.24,28.44,28.44,0,0,0-.21,3.46c0,8.43,3.68,16.32,10.11,23.11-9.16,6.4-14.62,14.46-14.62,23.21,0,20.83,30.92,37.72,69.06,37.72a116.08,116.08,0,0,0,33.87-4.84c7.05,14.53,25.52,24.9,47.2,24.9,19.24,0,35.95-8.18,44.4-20.18,1.31.07,2.63.12,4,.12,22.58,0,42-10.17,50.73-24.78a73.13,73.13,0,0,0,42,13.32c34.23,0,63.32-24,73.89-57.43,1.4.09,2.82.13,4.25.13A64.45,64.45,0,0,0,584,388.52a66.41,66.41,0,0,0,38.15,11.72c33.85,0,61.3-24.15,61.3-53.95A48.17,48.17,0,0,0,680,328.37c27.49-6.52,46.42-20.21,46.42-36a20.12,20.12,0,0,0-.65-5.06C734.46,281.41,739.59,274.29,739.59,266.61Z"/><path class="cls-10" d="M393.1,249.18a71.55,71.55,0,0,0-39.62-11.28c-23.45,0-43.77,10.16-53.65,25-14.39-12.24-37.52-20.19-63.61-20.19-43.64,0-79,22.23-79,49.65a32.05,32.05,0,0,0,1.08,8.23c-15,6.81-25.42,21.51-25.42,38.56,0,23.54,19.81,42.62,44.25,42.62a46,46,0,0,0,4.72-.24,28.44,28.44,0,0,0-.21,3.46c0,8.43,3.68,16.32,10.11,23.11-9.16,6.4-14.62,14.46-14.62,23.21,0,20.83,30.92,37.72,69.06,37.72a116.08,116.08,0,0,0,33.87-4.84c7.05,14.53,25.52,24.9,47.2,24.9a65.27,65.27,0,0,0,14.66-1.65C300.14,465.07,259.91,363.48,393.1,249.18Z"/><path class="cls-10" d="M351.74,237.92c-22.72.49-42.28,10.51-51.91,25-14.39-12.24-37.52-20.19-63.61-20.19-43.64,0-79,22.23-79,49.65a32.05,32.05,0,0,0,1.08,8.23c-15,6.81-25.42,21.51-25.42,38.56,0,23.54,19.81,42.62,44.25,42.62a46,46,0,0,0,4.72-.24,28.44,28.44,0,0,0-.21,3.46c0,8.43,3.68,16.32,10.11,23.11-9.16,6.4-14.62,14.46-14.62,23.21,0,18.51,24.42,33.91,56.63,37.11C237.35,443.33,203.45,378.17,351.74,237.92Z"/><g class="cls-7"><path class="cls-8" d="M1015,519.25h2.62a12.67,12.67,0,0,1,5.38-7.66,13.23,13.23,0,0,1-.25-2.53c0-8.46,8.24-15.32,18.41-15.32A19.81,19.81,0,0,1,1056,500a14,14,0,0,1,25.77,1.86l.14,0c0-.24,0-.48,0-.73,0-13.83,6.76-25,15.1-25a9.24,9.24,0,0,1,3,.5c1-7.63,6-13.43,12.1-13.43a9.68,9.68,0,0,1,4.8,1.28c.91-8.68,6.92-15.39,14.2-15.39,7.9,0,14.31,7.91,14.31,17.67a20.56,20.56,0,0,1-2.55,10.07,11.84,11.84,0,0,1,5.8,14.41c5.82,1.85,9.81,5.61,9.81,9.93a8.57,8.57,0,0,1-3.24,6.37,8.28,8.28,0,0,1,.16,1.57c0,4.23-3.32,8-8.37,10.19h2c2.7-1,7.18-2.62,10.7-17.89a9,9,0,0,0-.09-4.58c-1-3.3-3.64-5.5-8.71-7.21,2.23-6.34-4.56-18.54-5.18-14.55,3.82-24.57-9.87-27.13-16-27.13-11.1,0-10.14,13.86-15.5,13.55-6.82-.39-14.1,3.22-15.33,13.33.36-2.94-23.92,8.64-18.25,22.45-6.49-15.79-24.91-.74-24.91-.74-8.78-5.71-13.82-8.14-28.37-.25-4.18,2.27-6.88,10.14-6.41,14.56A13.2,13.2,0,0,0,1015,519.25Z"/><path class="cls-9" d="M1018.14,518.19h131c3.94-2.27,6.42-5.56,6.42-9.22a8.18,8.18,0,0,0-.16-1.56,8.58,8.58,0,0,0,3.23-6.37c0-4.33-4-8.08-9.8-9.93a11.84,11.84,0,0,0-5.8-14.41,20.56,20.56,0,0,0,2.55-10.07c0-9.76-6.41-17.67-14.31-17.67-7.28,0-13.29,6.71-14.2,15.39a9.69,9.69,0,0,0-4.8-1.29c-6.07,0-11.12,5.81-12.1,13.44a9.24,9.24,0,0,0-3-.5c-8.34,0-15.1,11.21-15.1,25,0,.24,0,.49,0,.73l-.14,0a14,14,0,0,0-25.77-1.85,19.81,19.81,0,0,0-14.82-6.23c-10.17,0-18.41,6.86-18.41,15.31a12.5,12.5,0,0,0,.25,2.54A12.28,12.28,0,0,0,1018.14,518.19Z"/><rect class="cls-8" x="1015.29" y="518.19" width="133.67" height="1.07"/><g class="cls-11"><path class="cls-8" d="M1041.17,493.74a20.34,20.34,0,0,1,12.91,4.41c.32-.36.63-.7,1-1l.59-.63c-8.76-5.7-13.8-8.12-28.35-.24-4.18,2.27-6.88,10.14-6.41,14.56a13.2,13.2,0,0,0-5.86,8.46h2.62a12.67,12.67,0,0,1,5.38-7.66,13.23,13.23,0,0,1-.25-2.53C1022.76,500.6,1031,493.74,1041.17,493.74Z"/><path class="cls-8" d="M1054.21,498a20.42,20.42,0,0,0-12.83-4.34c-10.17,0-18.41,6.86-18.41,15.31a12.5,12.5,0,0,0,.25,2.54,12.28,12.28,0,0,0-5.08,6.68h22.71A83.21,83.21,0,0,1,1054.21,498Z"/><path class="cls-8" d="M1040.85,518.19h-25.56v1.06h25.06C1040.52,518.9,1040.68,518.54,1040.85,518.19Z"/></g><g class="cls-11"><path class="cls-8" d="M1078.87,497.36a.49.49,0,0,0,0-.12c-.14-1-.27-2.06-.37-3.1-7.58-10-23,2.63-23,2.63-8.78-5.71-13.82-8.14-28.37-.25-4.18,2.27-6.88,10.14-6.41,14.55a13.24,13.24,0,0,0-5.86,8.47h2.62a12.67,12.67,0,0,1,5.38-7.66,12.5,12.5,0,0,1-.25-2.54c0-8.45,8.24-15.31,18.41-15.31a19.81,19.81,0,0,1,14.82,6.23,14,14,0,0,1,23-2.9Z"/><path class="cls-8" d="M1074.21,508.6a36.68,36.68,0,0,1,3.47-8.71c.35-.58.72-1.13,1.11-1.66,0-.33.06-.66.09-1,0-.07,0-.14,0-.21a14,14,0,0,0-22.83,3.15,19.81,19.81,0,0,0-14.82-6.23c-10.17,0-18.41,6.85-18.41,15.31a12.58,12.58,0,0,0,.25,2.54,12.29,12.29,0,0,0-5.08,6.67h53.52C1072.31,515.17,1073.26,511.89,1074.21,508.6Z"/><path class="cls-8" d="M1071.49,518.47h-56.37v1.07h56.11C1071.32,519.19,1071.4,518.83,1071.49,518.47Z"/></g></g><g class="cls-12"><path class="cls-8" d="M1148.78,247.08l2-.43c-2.62-2.49-1.6-1.71-3.64-2.25a3.55,3.55,0,0,0-2.39.41,32.45,32.45,0,0,0-4.51,4.15C1143.09,248.33,1145.94,247.69,1148.78,247.08Z"/><path class="cls-8" d="M1134.35,250.25c-1.73-2-6.28-2.2-8.28-1.93l-2.09,2a21.7,21.7,0,0,0-.69,2.47Z"/><path class="cls-8" d="M1148.78,247.08c-1-.9-.73-.55-2.23-1a3.48,3.48,0,0,0-2.28.4c-.93.73-1.74,1.42-2.48,2.1C1144.12,248.11,1146.45,247.58,1148.78,247.08Z"/><path class="cls-8" d="M1132.66,250.63a13.7,13.7,0,0,0-6.3-.74l-2,1.88c-.06.17-.15.45-.26.79C1127,251.91,1129.81,251.26,1132.66,250.63Z"/><path class="cls-8" d="M1130,251.23a13.83,13.83,0,0,0-2.55,0l-.73.71C1127.77,251.73,1128.86,251.47,1130,251.23Z"/></g><g class="cls-11"><path class="cls-8" d="M954.28,355.41l.43.09-4,2.47Z"/><path class="cls-8" d="M951.81,357.18H952l-1.26.78Z"/></g><g class="cls-11"><path class="cls-9" d="M964.16,354.17l.43.08-4,2.48Z"/><path class="cls-9" d="M961.7,355.93l.15,0-1.26.78Z"/></g><g class="cls-11"><path class="cls-8" d="M755.08,460.71l.43.08-4,2.48Z"/><path class="cls-8" d="M752.61,462.47l.15,0-1.26.78Z"/></g><path class="cls-8" d="M1151.39,251.81c-3.37-3.17-2.06-2.24-4.24-2.82a3.62,3.62,0,0,0-2.39.41c-9,7-8.83,11.49-8.69,22.51,0,.89-.5,1.1.89.77,8.74-2,2-1.18,9.39-1.22,1.17,0,1.13-.3,1.12-.92-.12-7.81-.43-9.81,3.57-16.25C1151.36,253.77,1151.91,252.3,1151.39,251.81Z"/><path class="cls-8" d="M1164.25,259.22a3.76,3.76,0,0,0-1.84-3c-.21-.16-4.85-1.52-5.66-1.18-9.07,3.83-8.81,6-12.6,14.7-.3.7-.84.66.54,1,8.71,1.89,7.1,1.7,7.41,1.83,1.07.47,1.4.37,1.61-.12,2.66-6.16,3.33-7.18,9.28-10.63A3.54,3.54,0,0,0,1164.25,259.22Z"/><path class="cls-8" d="M1175.36,268.6a3.71,3.71,0,0,0-.69-3.4c-.14-.22-4-3.08-4.9-3-9.86.5-10.37,2.63-17,9.5-.54.55-1,.33.16,1.08,7.51,4.75,6.06,4,6.31,4.25.84.8,1.18.82,1.55.43,4.66-4.87,5.65-5.6,12.44-6.81A3.65,3.65,0,0,0,1175.36,268.6Z"/><path class="cls-8" d="M1162,281.94a2.32,2.32,0,0,0,1.7,1.45c5.72,1.2,7.63,3.49,12.1,8.07.38.4,2,1.67,2.77,1.32.6-.26,1.49-1,2-3.16a12.31,12.31,0,0,0-.61-5.74c-3.87-9-3.11-7.08-11.49-9.72-2.67-.84-8,2.43-8,3.82Z"/><path class="cls-8" d="M1160.24,286.16a3.72,3.72,0,0,0,1.26,2.49c5.71,5.5,6.87,8.81,9.89,15.93.26.62,1.5,2.9,2.48,3.25a3.32,3.32,0,0,0,3.43-.83c.9-.79,1.7-3.44,1.61-4.95-.62-10.1-.57-8-8.58-16.73-2.55-2.79-9.59-4.5-10.12-3.41Z"/><path class="cls-8" d="M1158,292.61a3,3,0,0,0,.84,2.29c4.52,5,5.15,8.08,7,14.62.16.56,1,2.66,1.85,3a3.34,3.34,0,0,0,3.28-.77,8.38,8.38,0,0,0,2.13-4.55c.77-9.27.54-7.33-5.68-15.35-2-2.56-8.24-4.12-8.87-3.12Z"/><path class="cls-8" d="M1124,254.87c-.23.69-1.16,3.45-.68,4.09,3.48,4.61,6,6.78,6.6,12.86,0,.52.49,2.46,1.26,2.74.59.22,1.68.3,3.32-.79a10.29,10.29,0,0,0,2.9-4.31c2.42-8.69,1.84-6.87-2.74-14.24-1.46-2.35-6.45-2.59-8.57-2.31Z"/><path class="cls-8" d="M1112.08,265.73c.17.69.83,3.5,1.58,3.8,5.41,2.17,8.7,2.74,12.43,7.59.33.42,1.73,1.85,2.53,1.7.62-.11,1.59-.58,2.4-2.33a9.85,9.85,0,0,0,.19-5.1c-2.54-8.57-2.07-6.74-9.88-10.69-2.49-1.26-6.86,1-8.52,2.32Z"/><path class="cls-8" d="M1105.48,278.39c.47.64,2.34,3.21,3.16,3.17,5.94-.28,9.23-1.23,14.83,2,.49.28,1.24-.14,1.91-.66a2.94,2.94,0,0,0,1.61-3c0-1.38-.1-3.84-1.37-4.62-9-5.6-5.74-4-14.69-4.46-2.85-.14-5,2.3-6,4.41Z"/><path class="cls-8" d="M1101.32,290.71c.68.37,3.41,1.88,4.2,1.52,5.77-2.61,8.69-4.74,15.33-4.14.58.06,1.17-.61,1.65-1.33a2.79,2.79,0,0,0,.57-3.25c-.5-1.19-1.43-3.31-3-3.5-10.83-1.3-7-1.23-16,1.95-2.86,1-4.17,4-4.37,6.24Z"/><path class="cls-8" d="M1106.08,305c.5.32,4.07.42,4.5,0,1.51-1.48,1.86-1.61,2.29-2.11,4.09-4.78,6.91-7,13.41-9.07.56-.18.78-1,.88-1.93a3,3,0,0,0-1.08-3.31c-1-.94-2.95-2.59-4.47-2.16-10.74,3.06-8.61,1-15.42,7.56-1.7,1.66-3,3.76-2.59,5.79.2.92,1.68,4.72,2.48,5.23Z"/><path class="cls-8" d="M1113.16,315.6c.49.14,3.56-.9,3.84-1.41,1-1.84,1.27-2.07,1.54-2.67,2.53-5.68,4.49-8.62,9.63-12.56.44-.34.46-1.21.36-2a2.62,2.62,0,0,0-1.58-2.71c-1.09-.54-3-1.45-4.26-.58-8.57,6.19-7.17,3.59-11.66,11.8-1.12,2.06-1.82,4.41-1,6.15.35.78,2.39,3.81,3.18,4Z"/><path class="cls-8" d="M1122.55,325.86c.62,0,4-1.85,4.17-2.5.67-2.31.93-2.63,1.08-3.37,1.43-7,2.94-10.8,8-16.46.43-.48.21-1.47-.14-2.4a3.19,3.19,0,0,0-2.63-2.7c-1.43-.35-4-.93-5.2.34-8.44,9-7.5,5.74-10.55,16.07-.77,2.59-1,5.41.45,7.19.64.81,3.88,3.76,4.87,3.83Z"/><path class="cls-8" d="M1137.08,331c.62-.09,2.87-1.37,2.91-2.12.14-2.68.32-3.09.31-3.93-.16-8,.47-12.46,4.09-19.78.31-.64-.12-1.66-.66-2.6-.42-.71-.82-2.25-3.14-2.34-1.47-.05-4.1-.09-5,1.57-6.22,11.77-6,8-6.71,20-.17,3,.27,6.12,2,7.75.79.73,1.33,2.35,2.31,2.19Z"/><path class="cls-8" d="M1166,318.75c-.78,1.81-1.59,3.06-3.93,2.1a5.89,5.89,0,0,1-1.75-1.56c-6.78-7.49-6.93-14.22-7.52-24.14-.06-1,.37-.82.83-1.18,2-1.57.86.2,5.64,2.35,4.41,2,6.67,9.18,6.87,9.86,2,6.87.32,1,1.44,8.21C1167.72,315.1,1166.69,317.2,1166,318.75Z"/><path class="cls-8" d="M1158.58,327.45c-1.16,1.38-2.23,2.28-4.28,1a5.12,5.12,0,0,1-1.35-1.64c-4.91-7.58-3.56-13.28-1.92-21.74.17-.84.54-.62,1.07-.84,2.27-.95.79.33,5,3,3.84,2.5,4.43,9,4.47,9.59.42,6.16.08.94-.43,7.19C1161,324.7,1159.57,326.27,1158.58,327.45Z"/><path class="cls-8" d="M1149.07,332c.53-.15,2.7-3.27,2.65-4-.16-2.75,0-3.19-.15-4-1-8.16-.93-12.79,1.43-20.57a3.81,3.81,0,0,0-.85-2.6c-.44-.7-1-2.24-3-2.14-1.29.06-5.09,1.3-5.67,3.07-4.16,12.53-2.9,7.58-2.21,19.88.18,3.08.9,6.24,2.61,7.76.77.69,4.35,2.92,5.19,2.68Z"/><path class="cls-13" d="M1150.61,253.42c-3.22-3-2-2.14-4.06-2.7a3.36,3.36,0,0,0-2.28.4c-8.65,6.73-8.46,11-8.33,21.61,0,.86-.47,1.06.85.74,8.37-2,1.88-1.13,9-1.17,1.12,0,1.08-.29,1.07-.89-.11-7.49-.41-9.41,3.42-15.6C1150.59,255.3,1151.12,253.9,1150.61,253.42Z"/><path class="cls-13" d="M1162.94,260.54a3.65,3.65,0,0,0-1.77-2.84c-.2-.14-4.64-1.45-5.42-1.12-8.69,3.68-8.44,5.76-12.06,14.11-.3.68-.81.63.51.92,8.35,1.83,6.8,1.64,7.1,1.77,1,.44,1.34.35,1.54-.12,2.55-5.92,3.19-6.9,8.88-10.21A3.43,3.43,0,0,0,1162.94,260.54Z"/><path class="cls-13" d="M1173.57,269.55a3.54,3.54,0,0,0-.66-3.26c-.13-.21-3.84-3-4.69-2.91-9.44.48-9.93,2.52-16.27,9.12-.51.53-1,.32.16,1,7.19,4.56,5.81,3.86,6,4.08.81.77,1.13.79,1.49.42,4.46-4.69,5.41-5.39,11.92-6.55A3.46,3.46,0,0,0,1173.57,269.55Z"/><path class="cls-13" d="M1160.79,282.36a2.23,2.23,0,0,0,1.63,1.4c5.47,1.15,7.3,3.35,11.58,7.75.37.38,1.92,1.61,2.66,1.27.57-.26,1.43-1,1.94-3a11.9,11.9,0,0,0-.59-5.52c-3.71-8.67-3-6.8-11-9.34-2.56-.81-7.65,2.33-7.63,3.67Z"/><path class="cls-13" d="M1159.09,286.42a3.63,3.63,0,0,0,1.21,2.39c5.47,5.28,6.58,8.46,9.47,15.3.25.6,1.44,2.79,2.38,3.12a3.14,3.14,0,0,0,3.28-.8c.86-.75,1.63-3.3,1.55-4.75-.6-9.7-.55-7.67-8.22-16.07-2.45-2.68-9.19-4.32-9.69-3.27Z"/><path class="cls-13" d="M1156.92,292.62a2.89,2.89,0,0,0,.8,2.19c4.34,4.84,4.94,7.76,6.7,14,.15.55,1,2.56,1.78,2.87a3.15,3.15,0,0,0,3.13-.75,8.08,8.08,0,0,0,2.05-4.36c.73-8.91.51-7-5.45-14.75-1.9-2.46-7.89-4-8.49-3Z"/><path class="cls-13" d="M1124.37,256.37c-.22.66-1.12,3.31-.66,3.92,3.33,4.43,5.75,6.51,6.33,12.35,0,.51.46,2.37,1.2,2.64.57.21,1.61.29,3.18-.77a9.65,9.65,0,0,0,2.77-4.13c2.33-8.35,1.77-6.6-2.62-13.68-1.4-2.25-6.17-2.49-8.21-2.22Z"/><path class="cls-13" d="M1113,266.79c.16.67.8,3.37,1.52,3.66,5.18,2.08,8.33,2.63,11.91,7.29.31.4,1.65,1.77,2.42,1.63.59-.11,1.52-.56,2.3-2.24a9.52,9.52,0,0,0,.18-4.9c-2.44-8.23-2-6.47-9.46-10.27-2.39-1.21-6.57,1-8.16,2.24Z"/><path class="cls-13" d="M1106.65,279c.44.62,2.23,3.09,3,3.05,5.69-.27,8.84-1.18,14.21,1.94.46.27,1.18-.13,1.82-.64a2.8,2.8,0,0,0,1.55-2.86c0-1.32-.1-3.68-1.32-4.44-8.64-5.38-5.49-3.87-14.06-4.28-2.74-.13-4.83,2.21-5.74,4.24Z"/><path class="cls-13" d="M1102.66,290.79c.65.36,3.27,1.8,4,1.46,5.52-2.51,8.31-4.56,14.68-4,.55.05,1.12-.59,1.58-1.29a2.68,2.68,0,0,0,.54-3.12c-.48-1.14-1.37-3.18-2.83-3.35-10.37-1.26-6.75-1.2-15.34,1.86-2.75,1-4,3.86-4.2,6Z"/><path class="cls-13" d="M1107.22,304.53c.48.31,3.9.4,4.3,0,1.45-1.42,1.79-1.55,2.2-2,3.92-4.59,6.62-6.73,12.84-8.71.54-.17.76-1,.85-1.85a2.87,2.87,0,0,0-1-3.18c-1-.9-2.84-2.48-4.29-2.07-10.29,2.94-8.25.93-14.76,7.26-1.64,1.59-2.89,3.61-2.48,5.56.18.89,1.6,4.53,2.37,5Z"/><path class="cls-13" d="M1114,314.7c.47.13,3.41-.87,3.68-1.36,1-1.77,1.21-2,1.47-2.56,2.43-5.46,4.3-8.28,9.23-12.07.42-.33.44-1.16.34-2a2.51,2.51,0,0,0-1.52-2.6c-1-.51-2.92-1.4-4.08-.56-8.2,5.95-6.86,3.46-11.16,11.34-1.08,2-1.75,4.23-1,5.9.33.76,2.28,3.66,3,3.88Z"/><path class="cls-13" d="M1123,324.55c.59,0,3.8-1.78,4-2.4.65-2.22.9-2.53,1-3.24,1.38-6.74,2.82-10.37,7.61-15.8.42-.47.21-1.42-.13-2.32a3.06,3.06,0,0,0-2.51-2.59c-1.38-.33-3.84-.89-5,.33-8.08,8.65-7.18,5.51-10.1,15.43-.74,2.49-.91,5.2.43,6.91.61.78,3.72,3.61,4.67,3.68Z"/><path class="cls-13" d="M1136.91,329.46c.59-.09,2.75-1.32,2.78-2,.14-2.57.32-3,.3-3.77-.14-7.68.46-12,3.92-19,.3-.61-.11-1.6-.63-2.5-.4-.68-.79-2.16-3-2.24-1.41-.05-3.93-.09-4.77,1.5-6,11.3-5.76,7.67-6.43,19.17-.16,2.89.26,5.88,1.94,7.44.76.71,1.27,2.26,2.21,2.11Z"/><path class="cls-13" d="M1164.63,317.72c-.75,1.74-1.53,2.94-3.76,2a5.65,5.65,0,0,1-1.68-1.51c-6.5-7.18-6.64-13.65-7.2-23.18-.06-.95.35-.78.79-1.13,1.89-1.51.83.19,5.41,2.26,4.22,1.9,6.38,8.81,6.57,9.47,1.93,6.59.31,1,1.39,7.88C1166.25,314.22,1165.27,316.23,1164.63,317.72Z"/><path class="cls-13" d="M1157.51,326.08c-1.12,1.32-2.14,2.18-4.1,1a4.84,4.84,0,0,1-1.3-1.58c-4.71-7.28-3.4-12.75-1.83-20.88.15-.81.51-.6,1-.81,2.17-.91.76.32,4.74,2.92,3.68,2.4,4.24,8.63,4.28,9.21.41,5.92.07.9-.41,6.91C1159.86,323.43,1158.46,325,1157.51,326.08Z"/><path class="cls-13" d="M1148.4,330.4c.5-.14,2.58-3.14,2.54-3.88-.16-2.64,0-3.07-.15-3.89-1-7.83-.89-12.28,1.37-19.75a3.68,3.68,0,0,0-.82-2.5c-.42-.67-.92-2.15-2.87-2.05-1.23.06-4.87,1.25-5.43,2.95-4,12-2.78,7.27-2.11,19.09.16,3,.86,6,2.49,7.46.74.66,4.17,2.8,5,2.57Z"/><path class="cls-14" d="M1150.56,254.84c-3.08-2.94-1.89-2.07-3.88-2.61a3.16,3.16,0,0,0-2.18.38c-8.25,6.51-8.07,10.67-8,20.91,0,.83-.45,1,.82.72,8-1.9,1.79-1.1,8.58-1.14,1.07,0,1-.28,1-.86-.11-7.25-.4-9.11,3.26-15.09C1150.53,256.66,1151,255.3,1150.56,254.84Z"/><path class="cls-14" d="M1162.32,261.73a3.54,3.54,0,0,0-1.69-2.75c-.19-.14-4.43-1.41-5.17-1.09-8.3,3.56-8,5.58-11.51,13.65-.28.66-.77.62.49.9,8,1.76,6.49,1.58,6.77,1.7,1,.44,1.28.34,1.47-.11,2.43-5.72,3-6.68,8.48-9.88A3.32,3.32,0,0,0,1162.32,261.73Z"/><path class="cls-14" d="M1172.47,270.45a3.52,3.52,0,0,0-.63-3.16c-.13-.21-3.67-2.86-4.48-2.82-9,.47-9.48,2.44-15.52,8.82-.49.52-.94.31.15,1,6.86,4.41,5.54,3.73,5.76,3.94.77.75,1.08.77,1.42.41,4.26-4.53,5.17-5.21,11.37-6.33A3.33,3.33,0,0,0,1172.47,270.45Z"/><path class="cls-14" d="M1160.27,282.83a2.15,2.15,0,0,0,1.55,1.36c5.23,1.11,7,3.24,11.06,7.49.35.37,1.83,1.55,2.54,1.23.54-.25,1.36-1,1.84-2.94a11.62,11.62,0,0,0-.56-5.33c-3.54-8.39-2.84-6.58-10.5-9-2.44-.79-7.3,2.25-7.28,3.55Z"/><path class="cls-14" d="M1158.65,286.76a3.5,3.5,0,0,0,1.15,2.31c5.22,5.11,6.28,8.18,9,14.8.24.57,1.37,2.69,2.27,3a3,3,0,0,0,3.13-.78c.82-.72,1.56-3.19,1.47-4.59-.56-9.38-.51-7.42-7.84-15.55-2.33-2.59-8.76-4.18-9.25-3.16Z"/><path class="cls-14" d="M1156.58,292.75a2.77,2.77,0,0,0,.76,2.12c4.14,4.69,4.71,7.51,6.39,13.59.15.52.92,2.47,1.7,2.76a3,3,0,0,0,3-.71,7.82,7.82,0,0,0,1.95-4.23c.7-8.61.49-6.8-5.19-14.26-1.82-2.38-7.53-3.83-8.11-2.89Z"/><path class="cls-14" d="M1125.51,257.69c-.21.64-1.07,3.21-.63,3.79,3.18,4.29,5.49,6.3,6,11.95,0,.49.44,2.29,1.15,2.55.54.2,1.53.28,3-.74a9.41,9.41,0,0,0,2.65-4c2.21-8.07,1.69-6.38-2.5-13.22-1.34-2.19-5.9-2.42-7.84-2.15Z"/><path class="cls-14" d="M1114.62,267.77c.16.65.77,3.26,1.45,3.54,4.94,2,8,2.55,11.37,7.05.29.39,1.57,1.72,2.31,1.58.56-.11,1.45-.55,2.19-2.17a9.2,9.2,0,0,0,.17-4.73c-2.32-8-1.89-6.27-9-9.94-2.27-1.17-6.27.95-7.79,2.16Z"/><path class="cls-14" d="M1108.59,279.54c.43.59,2.14,3,2.89,2.94,5.43-.26,8.44-1.14,13.56,1.88.44.26,1.13-.13,1.74-.62a2.73,2.73,0,0,0,1.48-2.76c0-1.28-.1-3.57-1.26-4.3-8.25-5.2-5.24-3.74-13.42-4.14-2.61-.13-4.61,2.14-5.47,4.1Z"/><path class="cls-14" d="M1104.79,291c.62.35,3.12,1.75,3.84,1.42,5.27-2.43,7.94-4.41,14-3.85.52.05,1.06-.56,1.5-1.24a2.62,2.62,0,0,0,.52-3c-.46-1.1-1.3-3.07-2.7-3.24-9.9-1.21-6.44-1.15-14.65,1.8-2.61.95-3.81,3.74-4,5.8Z"/><path class="cls-14" d="M1109.14,304.28c.46.3,3.72.38,4.11,0,1.38-1.38,1.71-1.5,2.1-2,3.74-4.43,6.31-6.51,12.25-8.42.52-.17.72-1,.81-1.8a2.79,2.79,0,0,0-1-3.07c-1-.87-2.7-2.4-4.08-2-9.82,2.84-7.88.9-14.1,7-1.55,1.54-2.75,3.49-2.36,5.38.17.86,1.53,4.38,2.26,4.86Z"/><path class="cls-14" d="M1115.61,314.11a7.52,7.52,0,0,0,3.51-1.31c.91-1.71,1.16-1.93,1.41-2.48,2.31-5.28,4.1-8,8.8-11.67.41-.32.43-1.13.33-1.91a2.44,2.44,0,0,0-1.45-2.52c-1-.49-2.78-1.34-3.89-.53-7.83,5.75-6.55,3.34-10.65,11-1,1.91-1.67,4.09-1,5.71.32.73,2.18,3.54,2.9,3.75Z"/><path class="cls-14" d="M1124.2,323.64c.57,0,3.63-1.72,3.81-2.32.61-2.15.85-2.45,1-3.13,1.31-6.53,2.68-10,7.26-15.29.39-.46.2-1.37-.13-2.24a2.92,2.92,0,0,0-2.4-2.5c-1.31-.33-3.66-.87-4.75.31-7.72,8.37-6.86,5.33-9.65,14.93-.7,2.41-.86,5,.42,6.68.58.75,3.54,3.49,4.45,3.56Z"/><path class="cls-14" d="M1137.48,328.39c.56-.09,2.62-1.28,2.65-2,.14-2.49.3-2.88.29-3.65-.14-7.43.44-11.58,3.74-18.38.29-.59-.11-1.55-.6-2.41-.38-.67-.75-2.1-2.88-2.18-1.34,0-3.75-.08-4.55,1.46-5.68,10.93-5.5,7.42-6.13,18.54-.16,2.79.25,5.69,1.85,7.2.72.68,1.21,2.18,2.11,2Z"/><path class="cls-14" d="M1163.93,317c-.71,1.68-1.45,2.84-3.59,2a5.46,5.46,0,0,1-1.6-1.45c-6.2-6.95-6.34-13.21-6.87-22.42-.06-.92.33-.76.75-1.1,1.81-1.46.79.19,5.16,2.18,4,1.85,6.1,8.53,6.28,9.17,1.84,6.37.29,1,1.32,7.62C1165.48,313.65,1164.54,315.6,1163.93,317Z"/><path class="cls-14" d="M1157.13,325.11c-1.06,1.29-2,2.12-3.91,1a5.07,5.07,0,0,1-1.24-1.54c-4.49-7-3.24-12.33-1.75-20.19.15-.78.5-.58,1-.78,2.07-.89.72.31,4.53,2.82,3.51,2.32,4,8.35,4.08,8.91.39,5.73.07.88-.39,6.68C1159.38,322.56,1158,324,1157.13,325.11Z"/><path class="cls-14" d="M1148.44,329.3c.48-.14,2.47-3,2.42-3.76-.15-2.55,0-3-.14-3.75-.91-7.59-.85-11.88,1.31-19.11a3.53,3.53,0,0,0-.78-2.41c-.4-.65-.88-2.09-2.74-2-1.18.06-4.65,1.22-5.19,2.86-3.79,11.64-2.64,7-2,18.47.16,2.86.82,5.79,2.38,7.21.71.64,4,2.71,4.75,2.49Z"/><path class="cls-8" d="M1161.8,288.19c0,10.59-7.93,21.16-19.88,21.16-2.12,0-12.16-1.84-17.31-6.71-4.51-4.27-4.33-11.58-4.33-12.46,0-10.59,11.61-20.19,24.33-20.26C1156.56,269.86,1161.8,277.6,1161.8,288.19Z"/><path class="cls-15" d="M1161.05,288.14c0,10-7.53,20-18.85,20-2,0-11.53-1.74-16.41-6.35-4.28-4-4.11-10.95-4.11-11.79,0-10,11-19.1,23.07-19.16C1156.08,270.8,1161.05,278.12,1161.05,288.14Z"/><path class="cls-16" d="M1100.27,336.15V238.42h13.78v73.2h12.07v24.53Z"/><path class="cls-16" d="M845,238.42l-2.53,35.93c-2.24-9.52-17.84-14.41-20.75-14.41q-2.43,0-2.43,5.77a9.57,9.57,0,0,0,.77,3.65,27.76,27.76,0,0,0,4,5.82,52.8,52.8,0,0,1,5.49,8,30.66,30.66,0,0,1,2.88,9.26,78.93,78.93,0,0,1,1,13.12q0,15.69-3.79,23.92t-11.15,8.23q-8.26,0-14.23-7.36l3.36-32.66a45.4,45.4,0,0,0,3.64,11.4q2.18,4.22,4.17,4.22c.65,0,1.2-.53,1.64-1.6a10.22,10.22,0,0,0,.66-3.9,13.42,13.42,0,0,0-.64-4.17,20.59,20.59,0,0,0-3.39-5.5,44.7,44.7,0,0,1-4.12-6.12,32.94,32.94,0,0,1-2.84-8.49,66.85,66.85,0,0,1-1.2-13.89q0-16.28,3.77-24.53c2.52-5.51,5.88-6.73,10.78-6.73Z"/><path class="cls-16" d="M848,336.15H834.21L845,238.42h19.64l10.81,97.73H861.69l-1.79-16.52H849.79Zm4.3-39.58h5.1l-2.55-24.27Z"/><path class="cls-16" d="M906.2,238.42,902.14,276l-.58,5.45-5.92,54.73H882.29L871.7,238.42h13.75l3.5,32.92,3.51-32.92Z"/><path class="cls-16" d="M935.48,311.62v24.53H909.65V238.42h25.83V263H923.41v12.11h8.4v24.52h-8.4v12Z"/><path class="cls-16" d="M947.94,281.72v-43.3h27.65v43.3h-6.94v54.43H954.87V281.72Z"/><path class="cls-16" d="M993,336.15H979.26V238.42H993v35.8h7v-35.8h13.79v97.73h-13.79V299.84h-7Z"/><path class="cls-16" d="M1042.63,336.15h-13.79V293.5L1017,238.42h13.94l4.81,22.16,4.8-22.16h13.94l-11.84,55.08Z"/><path class="cls-16" d="M1071.6,336.15V238.42h28.67V271L1085.36,263v17.74h8.77v24.53h-8.77v30.93Z"/><path class="cls-16" d="M1181.33,336.15H1171.2l-11-97.73h13.44l3.6,31.9,3.8-31.9h9.56l4,31.9,3.4-31.9h13.46L1201,336.15h-10.16l-4.91-38.68Z"/><path class="cls-16" d="M1240.42,311.62v24.53h-25.83V238.42h30v32.89L1228.35,263v12.11h8.4v24.52h-8.4v12Z"/><path class="cls-17" d="M1244.62,238.42H1265q5.28,0,8.3,8.36t3,20.91q0,13.83-3.54,21.65c3.35,12,4.37,213.29,5,232.46l-11.36,2.53c-.26-12.34-2.79-209.63-3.71-215.52s-2.34-8.84-4.29-8.84v36.18h-13.76Zm13.76,20.11v18.83h.39q3.7,0,3.71-9.16a27.2,27.2,0,0,0-.75-6.75c-.51-1.95-1.34-2.92-2.51-2.92Z"/><path class="cls-18" d="M1276.44,479.38a.76.76,0,0,1,1-.63,9.82,9.82,0,0,0,3.51.84c1.64,0,5.89.48,8,3.51.28.4,0,.62-.2.68a16.12,16.12,0,0,1-7.48.21,4.32,4.32,0,0,1-3.18-2.53.63.63,0,0,0-.16-.26l-1.29-1.3a.67.67,0,0,1-.2-.52Z"/><path class="cls-19" d="M1276.34,506.6a.83.83,0,0,1,.58-1.21,11.1,11.1,0,0,0,3.78-1.33c1.5-1,5.77-3.1,9.55-1.52.5.21.38.58.23.76a18,18,0,0,1-6.85,4.69c-1.63.48-3.29.55-4.5-.44a.69.69,0,0,0-.31-.15l-2-.44a.72.72,0,0,1-.49-.36Z"/><path class="cls-18" d="M1266.63,466.92c-.4-.35-.69-.55-1.24-.05-1.12,1-1.76,2.17-3.41,3-2.44,1.21-5.33,2-7,4.55-.22.34-.12.63.23.67,2.52.26,4.55,1,7-.39a7.45,7.45,0,0,0,3.49-4.84,1.76,1.76,0,0,1,.12-.45,16,16,0,0,0,.75-1.93c.07-.24.11-.4,0-.54Z"/><path class="cls-18" d="M1275.65,463.06c.46.39.74.56,1.35.08,1.25-.95,2.1-2.16,3.76-3.08,2.46-1.35,6.61-1.68,8.23-3.93.21-.3.08-.53-.36-.59-3.19-.4-6.55-.63-9.2.79a5.44,5.44,0,0,0-2.79,4,1.53,1.53,0,0,1-.11.39c-.27.58-.71,1.33-.93,1.88-.09.22-.13.29.05.44Z"/><path class="cls-19" d="M1267.28,501.7a.77.77,0,0,0-1.23,0,10,10,0,0,1-2.6,2.58c-1.45.81-4.85,3.5-5,7.21,0,.49.32.54.53.49a16.43,16.43,0,0,0,6.58-3.75,4.37,4.37,0,0,0,1.44-3.86.55.55,0,0,1,0-.31l.43-1.8a.67.67,0,0,0-.1-.55Z"/><g class="cls-12"><path class="cls-8" d="M861.69,336.15h.46a20.39,20.39,0,0,1,4.33-3.58q4-2.43,8.07-4.59l-9.9-89.56H820.07c-4.9,0-8.26,1.22-10.78,6.73s-3.77,13.68-3.77,24.53a66.85,66.85,0,0,0,1.2,13.89,32.94,32.94,0,0,0,2.84,8.49,44.7,44.7,0,0,0,4.12,6.12,20.59,20.59,0,0,1,3.39,5.5,13.42,13.42,0,0,1,.64,4.17,10.22,10.22,0,0,1-.66,3.9c-.44,1.07-1,1.6-1.64,1.6q-2,0-4.17-4.22a45.4,45.4,0,0,1-3.64-11.4l-3.36,32.66q6,7.37,14.23,7.36,7.35,0,11.15-8.23t3.79-23.92a78.93,78.93,0,0,0-1-13.12,30.66,30.66,0,0,0-2.88-9.26,52.8,52.8,0,0,0-5.49-8,27.76,27.76,0,0,1-4-5.82,9.57,9.57,0,0,1-.77-3.65q0-5.77,2.43-5.77c2.6,0,15.37,3.92,19.63,11.57l-7.15,64.64H848l1.8-16.52H859.9Zm-9.4-39.58,2.55-24.27,2.55,24.27Z"/><path class="cls-8" d="M897.64,317.69l3.92-36.27.58-5.45,4.06-37.55H892.46L889,271.34l-3.5-32.92H871.7l9.35,86.3C886.47,322.14,892,319.83,897.64,317.69Z"/><path class="cls-8" d="M923.41,308.92v-9.34h8.4V275.06h-8.4V263h12.07V238.42H909.65v75C914.21,311.85,918.81,310.37,923.41,308.92Z"/><path class="cls-8" d="M954.87,298.67l3.12-1.13q5.34-2,10.66-4V281.72h6.94v-43.3H947.94v43.3h6.93Z"/><path class="cls-8" d="M1003,280c3.61-1.45,7.2-2.94,10.81-4.43v-37.1h-13.79v35.8h-7v-35.8H979.26v51C987.2,286.32,995.12,283.14,1003,280Z"/><path class="cls-8" d="M1047,263.4c.76-.22,1.52-.42,2.29-.63l5.23-24.35h-13.94l-4.8,22.16-4.81-22.16H1017l7.09,33A241.91,241.91,0,0,1,1047,263.4Z"/><path class="cls-8" d="M1114.05,247.91v-9.49H1071.6v18.76C1085.71,254,1099.93,251.13,1114.05,247.91Z"/></g><g class="cls-12"><path class="cls-8" d="M828.73,327.29c.68-.19,1.35-.42,2-.64q2.65-7.9,2.66-21a78.93,78.93,0,0,0-1-13.12,30.66,30.66,0,0,0-2.88-9.26,52.8,52.8,0,0,0-5.49-8,27.76,27.76,0,0,1-4-5.82,9.57,9.57,0,0,1-.77-3.65q0-5.77,2.43-5.77c2.6,0,15.37,3.92,19.63,11.57l-5.87,53.09c.3-.19.58-.37.79-.49a115.24,115.24,0,0,0,10-6.4c6.3-4.42,12.26-9.32,18.66-13.61q3.21-2.14,6.51-4.15l-6.8-61.53H820.07c-4.9,0-8.26,1.22-10.78,6.73s-3.77,13.68-3.77,24.53a66.85,66.85,0,0,0,1.2,13.89,32.94,32.94,0,0,0,2.84,8.49,44.7,44.7,0,0,0,4.12,6.12,20.59,20.59,0,0,1,3.39,5.5,13.42,13.42,0,0,1,.64,4.17,10.22,10.22,0,0,1-.66,3.9c-.44,1.07-1,1.6-1.64,1.6q-2,0-4.17-4.22a45.4,45.4,0,0,1-3.64-11.4l-3.36,32.66q5.1,6.28,11.86,7.2A21.27,21.27,0,0,1,828.73,327.29Zm26.11-55,2.55,24.27h-5.1Z"/><path class="cls-8" d="M901.1,285.66l.46-4.24.58-5.45,4.06-37.55H892.46L889,271.34l-3.5-32.92H871.7L878,296.19A168,168,0,0,1,901.1,285.66Z"/><path class="cls-8" d="M914.08,281.53q8.85-2.4,17.73-4.76v-1.71h-8.4V263h12.07V238.42H909.65v44.4C911.12,282.37,912.59,281.94,914.08,281.53Z"/><path class="cls-8" d="M975.59,265.19V238.42H947.94v34.06Q961.75,268.82,975.59,265.19Z"/><path class="cls-8" d="M993,260.6V238.42H979.26v25.81Z"/><path class="cls-8" d="M1007.37,256.83c2.16-.57,4.32-1.18,6.47-1.8V238.42h-13.79v20.34Z"/><path class="cls-8" d="M1051.38,238.42h-10.85l-1.85,8.52,8.63-3C1048.65,242.1,1050,240.26,1051.38,238.42Z"/><path class="cls-8" d="M1033.18,248.83l-2.26-10.41H1017l3.16,14.7C1024.51,251.75,1028.85,250.31,1033.18,248.83Z"/></g></g></g></svg>
