<svg xmlns="http://www.w3.org/2000/svg" xmlns:xlink="http://www.w3.org/1999/xlink" width="292.96" height="394.48" viewBox="0 0 292.96 394.48"><defs><style>.cls-1{fill:#70cc56;}.cls-2{fill:#fff;}.cls-3{fill:#020202;}.cls-4{fill:url(#linear-gradient);}.cls-5{fill:url(#linear-gradient-2);}.cls-6{fill:url(#linear-gradient-3);}.cls-7{fill:url(#linear-gradient-4);}.cls-8{fill:url(#linear-gradient-5);}.cls-9{fill:url(#linear-gradient-6);}.cls-10{fill:url(#linear-gradient-7);}.cls-11{fill:url(#linear-gradient-8);}.cls-12{fill:url(#linear-gradient-9);}.cls-13{fill:url(#linear-gradient-10);}.cls-14{fill:url(#linear-gradient-11);}.cls-15{fill:url(#linear-gradient-12);}.cls-16{fill:url(#linear-gradient-13);}.cls-17{fill:url(#linear-gradient-14);}</style><linearGradient id="linear-gradient" x1="229.29" y1="364.15" x2="230.37" y2="332.62" gradientUnits="userSpaceOnUse"><stop offset="0" stop-color="#9adb9a"/><stop offset="0.98" stop-color="#70cc56"/></linearGradient><linearGradient id="linear-gradient-2" x1="243.25" y1="224.38" x2="244.33" y2="192.85" xlink:href="#linear-gradient"/><linearGradient id="linear-gradient-3" x1="35.45" y1="237.12" x2="36.88" y2="195.32" xlink:href="#linear-gradient"/><linearGradient id="linear-gradient-4" x1="-7230.6" y1="355.73" x2="-7229.77" y2="331.51" gradientTransform="matrix(-1, 0, 0, 1, -7179.33, 0)" xlink:href="#linear-gradient"/><linearGradient id="linear-gradient-5" x1="-7252.19" y1="303.95" x2="-7251.37" y2="279.73" gradientTransform="matrix(-1, 0, 0, 1, -7179.33, 0)" xlink:href="#linear-gradient"/><linearGradient id="linear-gradient-6" x1="-7338.71" y1="198.33" x2="-7337.88" y2="174.11" gradientTransform="matrix(-1, 0, 0, 1, -7179.33, 0)" xlink:href="#linear-gradient"/><linearGradient id="linear-gradient-7" x1="-7301.22" y1="233.92" x2="-7300.4" y2="209.71" gradientTransform="matrix(-1, 0, 0, 1, -7179.33, 0)" xlink:href="#linear-gradient"/><linearGradient id="linear-gradient-8" x1="-7373.52" y1="164.74" x2="-7372.08" y2="122.52" gradientTransform="matrix(-1, 0, 0, 1, -7179.33, 0)" xlink:href="#linear-gradient"/><linearGradient id="linear-gradient-9" x1="-7257.74" y1="385.47" x2="-7256.3" y2="343.25" gradientTransform="matrix(-1, 0, 0, 1, -7179.33, 0)" xlink:href="#linear-gradient"/><linearGradient id="linear-gradient-10" x1="-7373.52" y1="391.75" x2="-7372.08" y2="349.53" gradientTransform="matrix(-1, 0, 0, 1, -7179.33, 0)" xlink:href="#linear-gradient"/><linearGradient id="linear-gradient-11" x1="-7310.39" y1="334.88" x2="-7309.58" y2="311.24" gradientTransform="matrix(-1, 0, 0, 1, -7284.12, 0)" xlink:href="#linear-gradient"/><linearGradient id="linear-gradient-12" x1="324.2" y1="898.88" x2="325.63" y2="857.07" gradientTransform="matrix(0.99, -0.12, 0.23, 1.9, -264.03, -1308.89)" xlink:href="#linear-gradient"/><linearGradient id="linear-gradient-13" x1="264.76" y1="851.26" x2="265.71" y2="823.55" gradientTransform="matrix(0.99, -0.12, 0.23, 1.9, -264.03, -1308.89)" xlink:href="#linear-gradient"/><linearGradient id="linear-gradient-14" x1="224.82" y1="875.7" x2="225.76" y2="847.98" gradientTransform="matrix(0.99, -0.12, 0.23, 1.9, -264.03, -1308.89)" xlink:href="#linear-gradient"/></defs><g id="Layer_3" data-name="Layer 3"><path d="M280.69,187.06c-37.52-67.82-101.16-62-63.31-192.59,0,0-184.54,86.13-212.85,252.27-13.7,80.37,64.56,147.73,144.21,147.73,67.83,0,144.22-66.14,144.22-147.73A150.24,150.24,0,0,0,280.69,187.06Z"/><path class="cls-1" d="M272.58,188.93c-35.23-63.67-99.24-61.05-63.71-183.66,0,0-169,83.71-195.58,239.7-12.86,75.46,60.62,138.7,135.4,138.7S284.1,321.57,284.1,245A141.09,141.09,0,0,0,272.58,188.93Z"/><path d="M98.39,161.35c-5.68-10.27-15.32-9.39-9.58-29.17,0,0-27.95,13-32.24,38.21-2.07,12.17,9.78,22.37,21.84,22.37,10.27,0,21.84-10,21.84-22.37A22.62,22.62,0,0,0,98.39,161.35Z"/><path class="cls-2" d="M97.16,161.4c-5.33-9.64-15-9.24-9.64-27.81,0,0-25.59,12.68-29.62,36.3-1.95,11.43,9.18,21,20.5,21a20.76,20.76,0,0,0,20.51-21A21.24,21.24,0,0,0,97.16,161.4Z"/><path class="cls-3" d="M217.87,331.54s21.86,8.28,6.63,17.08c0,0-20.66,15.57,1.86,18.51,0,0,22.85,3.73,16.2-17.48-4.18-13.32-11.92,2.44-8.69-22.35Z"/><path class="cls-4" d="M217.87,331.54s22.19,6.93,10.24,15c0,0-20.79,17-3.12,19.67,0,0,26.74,5,13.21-19.57-.81-1.47-10.06-11.92-4.33-19.37C234.11,327,217.87,331.54,217.87,331.54Z"/><path class="cls-3" d="M231.83,191.77s21.87,8.28,6.63,17.08c0,0-20.66,15.57,1.87,18.51,0,0,22.84,3.73,16.19-17.48-4.17-13.31-11.92,2.45-8.68-22.35Z"/><path class="cls-5" d="M231.83,191.77s22.2,6.93,10.24,15c0,0-20.79,17-3.12,19.67,0,0,26.74,5,13.21-19.57-.8-1.46-10.06-11.92-4.32-19.37C248.08,187.22,231.83,191.77,231.83,191.77Z"/><path class="cls-3" d="M31.05,192.57s9.13,19.26-2.86,28.59c0,0-16.26,16.51,1.47,19.63,0,0,24.36,4,19.44-9.41-4.86-13.27-9.14-16.4-6.59-42.7Z"/><path class="cls-6" d="M31,192.19s9.41,18.21,0,26.8c0,0-16.36,18-2.45,20.86,0,0,26.18,4.54,18-12.25s-4.9-38.06-4.09-39.3C42.69,188,31,192.19,31,192.19Z"/><path class="cls-3" d="M54.64,330s-6.94,11.14,2.18,16.54c0,0,12.37,9.55-1.12,11.35,0,0-18.54,2.33-14.79-5.44s7-9.49,5-24.69Z"/><path class="cls-7" d="M54.66,329.73s-7.16,10.53,0,15.5c0,0,12.45,10.4,1.87,12.06,0,0-19.93,2.63-13.7-7.08s3.72-22,3.11-22.72C45.78,327.3,54.66,329.73,54.66,329.73Z"/><path class="cls-3" d="M76.24,278.18s-6.95,11.13,2.17,16.53c0,0,12.38,9.55-1.11,11.35,0,0-18.54,2.33-14.8-5.44s7-9.49,5-24.69Z"/><path class="cls-8" d="M76.25,278s-7.16,10.53,0,15.5c0,0,12.45,10.4,1.87,12.06,0,0-19.93,2.63-13.7-7.08s3.72-22,3.11-22.72C67.38,275.52,76.25,278,76.25,278Z"/><path class="cls-3" d="M162.75,172.56s-6.95,11.13,2.18,16.53c0,0,12.37,9.55-1.12,11.35,0,0-18.54,2.33-14.8-5.44s7-9.49,5-24.69Z"/><path class="cls-9" d="M162.76,172.33s-7.16,10.53,0,15.5c0,0,12.46,10.4,1.87,12.07,0,0-19.92,2.62-13.7-7.09s3.73-22,3.12-22.72C153.89,169.9,162.76,172.33,162.76,172.33Z"/><path class="cls-3" d="M125.27,208.15s-7,11.14,2.17,16.54c0,0,12.37,9.54-1.11,11.34,0,0-18.54,2.34-14.8-5.44s7-9.48,5-24.69Z"/><path class="cls-10" d="M125.28,207.93s-7.16,10.53,0,15.5c0,0,12.45,10.4,1.87,12.06,0,0-19.93,2.63-13.7-7.08s3.72-22,3.11-22.73C116.41,205.5,125.28,207.93,125.28,207.93Z"/><path class="cls-3" d="M198.55,119.73s-9,19.46,2.83,28.88c0,0,16.1,16.68-1.45,19.83,0,0-24.12,4.07-19.25-9.51,4.81-13.4,9-16.56,6.53-43.12Z"/><path class="cls-11" d="M198.57,119.35s-9.32,18.39,0,27.07c0,0,16.2,18.16,2.43,21.06,0,0-25.92,4.59-17.82-12.37s4.84-38.44,4-39.69C187,115.1,198.57,119.35,198.57,119.35Z"/><path class="cls-3" d="M82.77,340.46s-9,19.46,2.83,28.88c0,0,16.09,16.68-1.46,19.83,0,0-24.11,4.07-19.24-9.51,4.81-13.4,9-16.56,6.53-43.12Z"/><path class="cls-12" d="M82.78,340.08s-9.31,18.39,0,27.07c0,0,16.2,18.16,2.43,21.06,0,0-25.92,4.59-17.82-12.37s4.85-38.44,4-39.69C71.24,335.83,82.78,340.08,82.78,340.08Z"/><path class="cls-3" d="M198.55,346.75s-9,19.45,2.83,28.88c0,0,16.1,16.67-1.45,19.82,0,0-24.12,4.07-19.25-9.5,4.81-13.41,9-16.57,6.53-43.13Z"/><path class="cls-13" d="M198.57,346.36s-9.32,18.39,0,27.07c0,0,16.2,18.17,2.43,21.07,0,0-25.92,4.59-17.82-12.37s4.84-38.44,4-39.69C187,342.11,198.57,346.36,198.57,346.36Z"/><path class="cls-3" d="M29.19,309.7s-6,10.88,1.88,16.16c0,0,10.73,9.32-1,11.09,0,0-16.08,2.27-12.83-5.32s6-9.27,4.35-24.13Z"/><path class="cls-14" d="M29.2,309.48s-6.21,10.29,0,15.15c0,0,10.8,10.16,1.62,11.78,0,0-17.28,2.57-11.88-6.92s3.23-21.5,2.7-22.2C21.5,307.11,29.2,309.48,29.2,309.48Z"/><path class="cls-3" d="M249.62,275.27s13.48,35.49,3.72,54.65c0,0-12.35,33.3,6,37.09,0,0,25.12,4.73,17.15-20.2-7.88-24.62-12.84-30.05-16.35-80.3Z"/><path class="cls-15" d="M249.51,274.55S263,308,255.66,325.44c0,0-12.11,36.13,2.36,39.91,0,0,27,5.49,15.06-25.42s-13.6-71.69-13.09-74.14C260.12,265.16,249.51,274.55,249.51,274.55Z"/><path class="cls-3" d="M184.78,220.32s8.76,23.52,2.42,36.23c0,0-8,22.08,3.87,24.59,0,0,16.32,3.14,11.14-13.39-5.11-16.33-8.34-19.93-10.62-53.24Z"/><path class="cls-16" d="M184.71,219.84s8.79,22.17,4,33.74c0,0-7.88,23.95,1.53,26.46,0,0,17.56,3.64,9.78-16.85s-8.83-47.54-8.5-49.16C191.6,213.62,184.71,219.84,184.71,219.84Z"/><path class="cls-3" d="M150.73,271.52s8.76,23.52,2.42,36.23c0,0-8,22.08,3.88,24.59,0,0,16.31,3.14,11.13-13.39-5.11-16.33-8.34-19.93-10.62-53.24Z"/><path class="cls-17" d="M150.66,271s8.79,22.17,4,33.74c0,0-7.87,24,1.53,26.46,0,0,17.57,3.64,9.78-16.86s-8.83-47.53-8.5-49.15C157.56,264.82,150.66,271,150.66,271Z"/></g></svg>
