<svg xmlns="http://www.w3.org/2000/svg" width="230" height="200" viewBox="0 0 230 200"><defs><style>.cls-1{fill:#70cc56;}.cls-2{fill:#fff;}</style></defs><g id="Layer_4" data-name="Layer 4"><path d="M181.06,177c-6.78-1.64-16.1,3-22.3-11.83-5.7-13.63-7.84-39-16-29-2.84,3.47-4.37,35.18-6.39,39.79-1.06,2.42-5.09,23.07-26.41,13.79C106,188.06,99,175.2,96.44,172.55c-7.5-7.66-22.11,14.68-28.82,21.54-2.31,2.37-13.24,7.41-17.53,5.48-12.8-5.74-12.93-18.44-12.11-21.72,7.22-28.8,9.63-27.55-12.14-25.43-3.78.36-15.06-1-18-5.64-11.34-18-7.82-24.44-5.1-33.37,1.68-5.53,9.12-8.86,13.19-11,11.77-6.09,27.54-12.63,35.59-20.2,4.59-4.32-11.62-9.62-14.6-15.2-6.74-12.62-13.37-25.22,9-26C56.59,41,60.63,19.4,71.73,7s12.18,3.9,29.73,8c6.06,1.41,10.1,8.81,13.1,4.23C130.79-5.49,148-7.6,153.87,20c1.28,6-.22,8.16.52,13,2.15,14,6.53,5.52,15.26.94,3-1.59,8.24-4.73,12.78-5.49C203.25,25,212,42.06,202,63.59c-2.17,4.69-4.12,4.5-7.17,6.9-8.82,6.91,10.44,3.47,16,3.13,1.94-.12,11.08,1.55,14.34,5.17,5.09,5.64,6,9,3.39,19.58-1.22,5-4.35,10.55-8.21,12.53-11.19,5.75-26.18,11.63-23,25.38,1.12,4.75,3.57,8.93,4.69,14.1C207.37,174.53,195.39,180.49,181.06,177Z"/><path class="cls-1" d="M170.76,171.23c-3.68-1.82-13.3-12.86-14.87-21.48-1.82-10-8-23.57-14.66-15.19-2.32,2.9-5.95,38.15-7.52,42.07-7.22,18-20,19.58-30.44,4.38-2.28-3.31-3.11-8.1-5.29-10.38-6.3-6.6-16,4.4-21.49,10.11-1.9,2-7.37,9.73-10.6,12C51,203.48,38.46,193.92,41.06,173.07c.56-4.53,3.13-8.62,3.93-13.31,2.33-13.57-4.66-10.67-13.77-11.18-3.15-.17-9.69.61-13.62-.64C-.49,142.22-2.15,119,13.06,106.27c3.31-2.77,13.22-6.29,16.58-8,9.72-5,21.51-11.65,28.11-18,3.77-3.58-16.08-10.06-18.61-14.84-5.73-10.79-11.91-21.28,6.64-21.62C54.64,44,64.47,18.44,73.56,8.14s21.36,10.31,36,14c5,1.28,10.06-3.76,12.61-7.49,11.75-17.13,23.78-18.76,28.94,4.75,1.12,5.11.79,12.81,1.45,16.93,1.93,11.92,7.81,5.25,15,1.5,2.49-1.3,8.84-5,12.6-5.58,17.25-2.62,25.94,13.12,17.89,31.22-1.76,3.94-5.74,5.46-8.24,7.44-7.26,5.72,6,6.1,10.67,5.9,1.61-.07,10.13-1.75,13.71-.52,16.44,5.67,15.7,24.37,1.3,33.65-3.14,2-8.89,3.14-12.08,4.77-9.22,4.69-13.11,14-10.29,25.71,1,4,4.1,10,5.07,14.43C202.63,175.13,187.67,179.59,170.76,171.23Z"/><ellipse class="cls-2" cx="80.6" cy="34.46" rx="8.47" ry="10.18"/><ellipse class="cls-2" cx="90.31" cy="52.86" rx="4.24" ry="5.09"/></g></svg>
