<svg xmlns="http://www.w3.org/2000/svg" width="1083.92" height="635.92" viewBox="0 0 1083.92 635.92"><defs><style>.cls-1{opacity:0.5;}.cls-2{fill:#6cd362;}.cls-3{fill:#020202;}.cls-4{fill:#f9f9f9;}.cls-5{fill:#ffd9f8;}.cls-6{fill:#7c2268;}.cls-7{fill:#d6c230;}</style></defs><g id="Layer_3" data-name="Layer 3"><path class="cls-1" d="M1070.58,308.15c-21.94-25.58-52.8-34.86-73-37.17a103.55,103.55,0,0,0-11.35-18.82,66,66,0,0,0,16.86-13.82c.9-1.1,1.72-4-.74-7.56A65.69,65.69,0,0,0,995,222c23-4.8,48.75-15.8,60.31-22.44,2-1.15,4.41-3.92.82-6.61-9.77-7.32-21.85-11.07-34.09-12.64,14.88-10.21,28-21.64,34.41-28.58,1.53-1.64,2.74-4.78-2-5.88-17.32-4-36-1.31-52.41,3.69,14.87-10.21,28-21.64,34.4-28.57,1.53-1.64,2.74-4.78-2.05-5.89a77.37,77.37,0,0,0-14.88-1.87,119.42,119.42,0,0,0,5.8-15.92c.51-1.92-.16-4.84-5.47-3.53a111.7,111.7,0,0,0-34.63,15.6c10.26-16.15,17.6-33.6,20-42.83.51-1.93-.17-4.84-5.48-3.53-14.45,3.57-27.42,10.37-38.48,18.26.66-12.89-.45-24.62-2.07-31.19-.44-1.77-2.54-3.91-7.2-.86-29.64,19.4-42.55,50.22-46.51,68.18H107.64a26.32,26.32,0,0,0-16.77,6A32.32,32.32,0,0,1,81,122c-9-2.63-31.86-3-43.19,17.75a4.11,4.11,0,0,0,1.09,5.59c6.72,4.48,21.61,11.14,33.89,12-.75.82-1.5,1.71-2.24,2.64-18.66.49-42.07,4.63-55.9,18.14-2.71,2.65-.06,4.64,2,5.36,8.28,2.93,23.45,6.85,39.29,9.28,0,.16-.07.32-.1.48-.73,3.78.59,5,1.48,5.06,3.62.26,10-.77,16.52-3.55,1.26.08,2.51.14,3.75.19C65.61,202,52.87,213.17,47,229.24c-1.32,3.62,1.06,4.79,2.67,4.85,6.67.25,18.56-.8,30.55-3.6a158.7,158.7,0,0,0,0,17.46l-1.36-.19c-16.15-2.52-57.3-2.92-77.67,17-2.71,2.65-.06,4.64,2,5.35C15.19,274.38,42,280.75,64,281.55c-12,7.07-24.71,18.29-30.56,34.36a5.25,5.25,0,0,0-.37,2.28A64.93,64.93,0,0,0,14.6,338c-2.1,3.4-.94,5.38.1,6,3.86,2.15,10.85,4.53,18.63,5.61a95.64,95.64,0,0,0-13.16,29c-1.09,4.15.63,5.07,1.81,4.9,6.85-1,21.28-6.25,33.08-15.08a5.21,5.21,0,0,0-.78,4.15c-3.7,12.38-6.14,26.69-4.77,40.74.4,4,2.35,3.44,3.42,2.41a105.76,105.76,0,0,0,8.67-9.79c-.26.88-.51,1.76-.75,2.66-1.08,4.15.63,5.07,1.82,4.9A58,58,0,0,0,74.32,410a61.72,61.72,0,0,0,3.41,10.53c1.16,2.68,2.59,2.07,3.5.94v12.82c-.14,0-.29,0-.43,0-9-.93-32.95,3.68-48.71,29.24-2.09,3.4-.93,5.39.11,6,3.86,2.14,10.85,4.52,18.63,5.61a95.92,95.92,0,0,0-11.92,24.74c-12.14,1.82-25.08,6.65-33.47,17.27-2.09,2.64,0,4.64,1.51,5.35,9.31,4.28,30,10.66,47,11.46a65.7,65.7,0,0,0-23.56,34.36c-1,3.62.81,4.78,2.05,4.84,6.48.32,19.34-1.42,30.71-6.13A2.37,2.37,0,0,0,65,568.14a50.34,50.34,0,0,0,7.58-.32c-6.22,16-11.9,40.36-6.87,64.49.94,4.48,3.19,3.94,4.34,2.86,6.65-6.24,19.07-22.13,27-39.08a100.74,100.74,0,0,0,1.28,31.23c.94,4.48,3.19,3.94,4.34,2.86,8.36-7.84,25.85-30.94,32-52.22,3.84-13.22,7-25.93,1.95-37.26-.1-.23-.26-.69-.45-1.27H906.85C912.16,554.1,922.58,570,928.56,577c1,1.19,3.32,2.48,5.13-.14,4.9-7.12,6.9-15.39,7.21-23.54,8.9,8.68,18.62,16.08,24.4,19.58,1.37.83,3.86,1.31,4.36-1.93,1.59-10.26-.84-20.69-4.84-30,.32-1.55.6-3.12.85-4.7a148.12,148.12,0,0,0,18.82,6.6c2.71,3.2,5.15,5.85,7.13,7.77,1.37,1.33,3.87,2.09,4.37-3.1.06-.63.1-1.25.15-1.87a86.27,86.27,0,0,0,8.62,1.32c1.51.14,3.69-.6,2.3-3.93a63.8,63.8,0,0,0-11.12-17.45c-.19-2.13-.45-4.25-.74-6.36a99.68,99.68,0,0,0,18.84-4c1.32-.47,2.81-2.06.14-4.79a74.29,74.29,0,0,0-24.54-16.26c-.53-1.77-1.09-3.49-1.66-5.19,15.25,11.79,34.28,18.82,43.21,20.12,1.52.22,3.71-1,2.32-6.31a123.43,123.43,0,0,0-16.83-37.33c10-1.4,18.89-4.46,23.82-7.23,1.33-.74,2.82-3.3.14-7.67-9-14.65-20-23.95-30.53-29.66-1.24-3.81-2.64-7.5-4.13-11,17.37,10.62,39,16.95,49.23,18.13,1.73.2,4.22-.87,2.64-5.69a102,102,0,0,0-19.18-33.64c11.35-1.26,21.53-4,27.15-6.52,1.51-.67,3.21-3,.15-6.91a83.16,83.16,0,0,0-7.65-8.6c1.94-.22,3.93-1.75,2.27-6.3-5.32-14.56-14-27-23.59-37.34,14-1.39,26.48-4.46,33.39-7.22C1072.25,315.08,1074.34,312.53,1070.58,308.15ZM72.84,494.67l-1.65.24c.7-.5,1.4-1,2.08-1.54Zm35.07,60.4,1.08-.88c-.74,1.53-1.51,3.2-2.28,5,0-1.06,0-2.11-.1-3.15C107.05,555.73,107.49,555.4,107.91,555.07Z"/><rect class="cls-2" x="92.47" y="69.72" width="887.73" height="422.08" rx="26.41"/><path class="cls-3" d="M102.09,470.83c-.86-3.72-1.29-5.77-3.69-3.41a40,40,0,0,1-16.88,9.93c-9.41,2.79-32.27,16.1-39.91,43.3-1,3.62.81,4.79,2,4.85,9,.44,30.37-3.09,42.88-13.08,7.77-6.2,14.89-12.5,15.48-23.51a32.68,32.68,0,0,1,1-5.28l4.25-11.52c.58-1.31-1.19-1.6-1.52-3Z"/><path class="cls-2" d="M107.33,467.71c-.76-3.32-3.88-4.63-6-2.52-4.33,4.28-11.11,10.24-16.77,11.94-8.37,2.51-29.26,13.57-36.08,37.92-.9,3.24.73,4.28,1.83,4.34,8,.39,27-2.8,38.16-11.75,6.92-5.55,12.54-13,13.08-22.85a6,6,0,0,1,.49-2.09l5-11.14a6.25,6.25,0,0,0,.35-3.85Z"/><path d="M102.2,473.33c-.41-.15-12.45,9-24.24,18.45-10.95,8.75-19.61,18.07-20.68,20"/><path class="cls-3" d="M106.12,480.26c-2.67-2.85-4.11-4.46-5.07.05a78.44,78.44,0,0,1-10.17,25.24C83.82,516.94,70,551,77,584.68c.94,4.48,3.19,3.94,4.34,2.85,8.36-7.83,25.85-30.93,32-52.21,3.84-13.22,7-25.94,1.95-37.27a41.3,41.3,0,0,1-1.76-6.14l-2-15.2c-.14-1.82-1.89-.47-2.93-1.58Z"/><path class="cls-2" d="M109.26,472.39c-2.38-2.55-5.87-1-6.72,3.06-1.72,8.17-4.79,20.25-9,27.11C87.23,512.72,74,542.75,80.33,572.88c.84,4,2.84,3.53,3.87,2.56,7.43-7,23-27.57,28.46-46.57,3.4-11.81,4.67-24.28.11-34.42a7.59,7.59,0,0,1-.62-2.5l-1.23-15.47a6.83,6.83,0,0,0-1.66-4.09Z"/><path d="M107.51,482.61c-.45.24-6.63,20.28-12.46,40.36-5.41,18.65-8.47,35.73-8.44,38.6"/><path class="cls-3" d="M103.89,457.66c-.25-3.72-.34-5.75-3.88-5-7.18,1.63-15,1.5-23.45-.2-12.45-2.52-44.17-2.92-59.88,17-2.08,2.65,0,4.64,1.51,5.36C29.41,480,57.06,488.19,75,486c11.16-1.34,21.52-3.11,24.73-12.49a19.38,19.38,0,0,1,2.5-4.1l7.93-7.88c1-.84-1.14-2-1.24-3.48Z"/><path class="cls-2" d="M111.17,457.7c-.21-3.33-3.84-6.13-7-5.4-6.41,1.47-16.26,3.12-23.76,1.62-11.09-2.22-39.82-3.54-53.85,14.27-1.86,2.37-.05,4.15,1.33,4.78,10,4.59,34.6,11.85,50.6,9.88,10-1.23,18.69-4.81,21.56-13.2a3.55,3.55,0,0,1,1.09-1.57l8.72-7.19a3.74,3.74,0,0,0,1.3-3.19Z"/><path d="M103.47,459.92c-.49-.35-17.67,1.35-34.62,3.4-15.73,1.91-28.7,5.52-30.47,6.66"/><path class="cls-3" d="M134.7,465.84c-.86-3.72-1.29-5.77-3.69-3.41a39.93,39.93,0,0,1-16.88,9.93c-9.4,2.79-32.27,16.1-39.91,43.31-1,3.62.81,4.78,2.06,4.84,9,.44,30.36-3.09,42.87-13.08,7.77-6.2,14.89-12.5,15.48-23.5a32.8,32.8,0,0,1,1.05-5.29l4.25-11.52c.59-1.3-1.19-1.6-1.52-3Z"/><path class="cls-2" d="M139.94,462.72c-.76-3.32-3.88-4.62-6-2.51-4.33,4.27-11.11,10.24-16.77,11.93-8.37,2.52-29.25,13.58-36.07,37.93-.91,3.23.72,4.27,1.82,4.33,8,.39,27-2.8,38.16-11.74,6.92-5.56,12.55-13,13.08-22.86a6,6,0,0,1,.49-2.09l5-11.14a6.17,6.17,0,0,0,.35-3.85Z"/><path d="M134.82,468.34c-.42-.15-12.45,9-24.25,18.45-10.95,8.75-19.61,18.07-20.67,20"/><path class="cls-3" d="M138.74,475.27c-2.68-2.85-4.12-4.46-5.08.05a78.58,78.58,0,0,1-10.17,25.25C116.43,512,102.58,546,109.6,579.69c.94,4.48,3.19,3.94,4.34,2.85,8.36-7.83,25.85-30.93,32-52.21,3.84-13.22,7.05-25.94,2-37.27a41.3,41.3,0,0,1-1.76-6.14l-2-15.2c-.14-1.81-1.89-.47-2.93-1.58Z"/><path class="cls-2" d="M141.88,467.41c-2.39-2.56-5.88-1-6.72,3-1.73,8.18-4.8,20.25-9,27.11-6.28,10.16-19.48,40.19-13.18,70.32.84,4,2.84,3.53,3.87,2.56,7.44-7,23-27.57,28.46-46.57,3.41-11.8,4.67-24.28.11-34.42a7.53,7.53,0,0,1-.62-2.5l-1.23-15.47a6.83,6.83,0,0,0-1.65-4.08Z"/><path d="M140.12,477.62c-.45.24-6.63,20.28-12.46,40.36-5.41,18.65-8.46,35.73-8.44,38.61"/><path class="cls-3" d="M136.5,452.67c-.25-3.72-.33-5.75-3.88-4.95-7.18,1.63-15,1.5-23.44-.2C96.72,445,65,444.6,49.3,464.5c-2.09,2.64,0,4.63,1.5,5.35C62,475,89.67,483.21,107.63,481c11.16-1.34,21.52-3.11,24.73-12.49a19.63,19.63,0,0,1,2.5-4.1l7.93-7.88c1-.84-1.14-2-1.23-3.48Z"/><path class="cls-2" d="M143.78,452.71c-.21-3.33-3.84-6.13-7-5.4-6.41,1.47-16.26,3.13-23.76,1.62-11.09-2.22-39.82-3.54-53.85,14.27-1.86,2.37,0,4.15,1.33,4.78,10,4.59,34.6,11.85,50.61,9.88,9.94-1.23,18.68-4.81,21.56-13.19a3.43,3.43,0,0,1,1.08-1.58l8.72-7.18a3.71,3.71,0,0,0,1.3-3.2Z"/><path d="M136.08,454.94c-.49-.36-17.67,1.35-34.61,3.39C85.74,460.24,72.76,463.85,71,465"/><path class="cls-3" d="M123.16,218.45c-1.11-3.72-1.67-5.77-4.78-3.41A56.91,56.91,0,0,1,96.48,225c-12.2,2.79-41.85,16.1-51.76,43.31-1.32,3.61,1.05,4.78,2.67,4.84C59.06,273.56,86.77,270,103,260c10.08-6.2,19.31-12.5,20.08-23.5a26.34,26.34,0,0,1,1.36-5.29L130,219.73c.75-1.31-1.55-1.6-2-3Z"/><path class="cls-2" d="M130,215.33a5,5,0,0,0-7.8-2.52c-5.62,4.28-14.41,10.25-21.75,11.94-10.86,2.52-37.94,13.58-46.79,37.93-1.17,3.23.94,4.27,2.38,4.33,10.38.39,35-2.8,49.48-11.74,9-5.56,16.27-13,17-22.86a5,5,0,0,1,.64-2.09l6.42-11.14a4.9,4.9,0,0,0,.46-3.85Z"/><path d="M123.31,221c-.54-.15-16.15,9-31.45,18.45-14.2,8.75-25.43,18.07-26.81,20"/><path class="cls-3" d="M128.39,227.88c-3.47-2.85-5.33-4.46-6.58.05a69.39,69.39,0,0,1-13.19,25.24c-9.16,11.39-27.11,45.44-18,79.13,1.21,4.48,4.13,3.94,5.63,2.85,10.84-7.83,33.52-30.93,41.55-52.21,5-13.22,9.15-25.94,2.53-37.27a34.3,34.3,0,0,1-2.28-6.14l-2.66-15.2c-.19-1.81-2.46-.47-3.8-1.58Z"/><path class="cls-2" d="M132.47,220a5.42,5.42,0,0,0-8.72,3c-2.23,8.18-6.22,20.25-11.72,27.11-8.14,10.16-25.27,40.19-17.09,70.32,1.09,4,3.69,3.53,5,2.56,9.64-7,29.8-27.57,36.91-46.57,4.42-11.8,6.06-24.28.14-34.42a6.18,6.18,0,0,1-.8-2.5l-1.6-15.47a6.1,6.1,0,0,0-2.14-4.08Z"/><path d="M130.19,230.23c-.59.24-8.59,20.28-16.16,40.36-7,18.65-11,35.73-10.94,38.61"/><path class="cls-3" d="M125.49,205.28c-.32-3.72-.43-5.75-5-4.95a93.34,93.34,0,0,1-30.41-.2c-16.15-2.52-57.3-2.92-77.67,17-2.7,2.64-.06,4.63,1.95,5.35,14.55,5.16,50.42,13.35,73.71,11.19,14.47-1.34,27.91-3.11,32.07-12.49a19.17,19.17,0,0,1,3.25-4.1l10.28-7.88c1.33-.84-1.47-2-1.6-3.48Z"/><path class="cls-2" d="M134.94,205.32c-.28-3.33-5-6.13-9.07-5.4-8.31,1.47-21.09,3.13-30.81,1.62-14.38-2.22-51.65-3.54-69.84,14.27-2.42,2.37-.07,4.15,1.72,4.78,13,4.59,44.88,11.85,65.63,9.88,12.9-1.23,24.24-4.81,28-13.2A3.67,3.67,0,0,1,122,215.7l11.3-7.18a3.38,3.38,0,0,0,1.69-3.2Z"/><path d="M125,207.54c-.64-.35-22.92,1.35-44.89,3.4-20.4,1.91-37.23,5.52-39.53,6.66"/><path class="cls-3" d="M136.7,131.78c-1.12-3.71-1.68-5.76-4.79-3.41A56.65,56.65,0,0,1,110,138.3c-12.2,2.8-41.85,16.1-51.77,43.31-1.32,3.62,1.06,4.78,2.67,4.84,11.68.45,39.38-3.09,55.61-13.07,10.07-6.21,19.31-12.5,20.08-23.51a26.49,26.49,0,0,1,1.35-5.29l5.52-11.52c.76-1.3-1.54-1.59-2-3Z"/><path class="cls-2" d="M143.49,128.67a5,5,0,0,0-7.8-2.52c-5.61,4.28-14.4,10.24-21.74,11.94C103.09,140.6,76,151.66,67.16,176c-1.18,3.24.94,4.28,2.37,4.33,10.39.39,35.05-2.8,49.49-11.74,9-5.56,16.27-13,17-22.86a4.77,4.77,0,0,1,.64-2.08L143,132.51a4.87,4.87,0,0,0,.45-3.84Z"/><path d="M136.85,134.28c-.55-.14-16.15,9-31.45,18.46-14.2,8.75-25.43,18.06-26.81,20"/><path class="cls-3" d="M141.93,141.22c-3.47-2.85-5.34-4.47-6.58.05a69.77,69.77,0,0,1-13.19,25.24c-9.16,11.38-27.12,45.43-18,79.12,1.21,4.48,4.13,3.94,5.63,2.86,10.84-7.84,33.52-30.94,41.54-52.22,5-13.22,9.15-25.93,2.54-37.26a34,34,0,0,1-2.29-6.15l-2.66-15.2c-.18-1.81-2.45-.47-3.8-1.57Z"/><path class="cls-2" d="M146,133.35c-3.1-2.56-7.61-1-8.71,3.06-2.24,8.17-6.22,20.24-11.72,27.11-8.14,10.15-25.27,40.18-17.09,70.31,1.08,4,3.68,3.53,5,2.57,9.65-7,29.81-27.58,36.92-46.58,4.41-11.8,6.06-24.27.14-34.41a6.28,6.28,0,0,1-.8-2.5l-1.6-15.47a6.13,6.13,0,0,0-2.15-4.09Z"/><path d="M143.73,143.56c-.59.24-8.6,20.29-16.16,40.37-7,18.64-11,35.73-10.94,38.6"/><path class="cls-3" d="M139,118.62c-.32-3.73-.43-5.76-5-5a93.64,93.64,0,0,1-30.41-.21c-16.15-2.52-57.29-2.92-77.66,17-2.71,2.65-.06,4.64,1.95,5.35C42.43,141,78.29,149.15,101.59,147c14.47-1.35,27.91-3.12,32.07-12.49a19.43,19.43,0,0,1,3.24-4.1l10.29-7.88c1.33-.84-1.48-2-1.6-3.48Z"/><path class="cls-2" d="M148.48,118.65c-.28-3.33-5-6.13-9.08-5.4-8.3,1.47-21.09,3.13-30.81,1.63-14.38-2.22-51.64-3.55-69.84,14.27-2.42,2.37-.06,4.14,1.73,4.78,13,4.58,44.87,11.85,65.63,9.87,12.89-1.23,24.23-4.81,28-13.19a3.59,3.59,0,0,1,1.41-1.57l11.31-7.19a3.41,3.41,0,0,0,1.69-3.2Z"/><path d="M138.49,120.88c-.64-.35-22.92,1.35-44.9,3.4-20.4,1.9-37.22,5.51-39.52,6.65"/><path class="cls-3" d="M110.69,93.48c-.61-3.88-.93-6-2.66-3.56A28.93,28.93,0,0,1,95.86,100.3c-6.79,2.92-23.28,16.82-28.79,45.26-.73,3.78.59,5,1.48,5.06,6.5.47,21.91-3.23,30.93-13.67,5.6-6.48,10.74-13.06,11.16-24.56a51.14,51.14,0,0,1,.76-5.53l3.07-12c.42-1.36-.86-1.66-1.1-3.17Z"/><path class="cls-2" d="M114.47,90.23c-.55-3.47-2.79-4.84-4.33-2.63-3.13,4.47-8,10.7-12.1,12.48-6,2.62-21.1,14.18-26,39.63-.65,3.38.52,4.47,1.32,4.52,5.78.41,19.49-2.92,27.52-12.27a38,38,0,0,0,9.44-23.89,8.5,8.5,0,0,1,.35-2.18l3.57-11.64a9,9,0,0,0,.25-4Z"/><path d="M110.78,96.1c-.3-.16-9,9.43-17.49,19.28-7.9,9.15-14.15,18.88-14.91,20.91"/><path class="cls-3" d="M113.61,103.34c-1.94-3-3-4.66-3.67.06a105.82,105.82,0,0,1-7.33,26.38c-5.1,11.9-15.08,47.48-10,82.69.68,4.68,2.3,4.11,3.13,3,6-8.19,18.65-32.33,23.11-54.57,2.77-13.81,5.09-27.1,1.41-38.94a56.26,56.26,0,0,1-1.27-6.43l-1.48-15.88c-.1-1.89-1.37-.49-2.11-1.65Z"/><path class="cls-2" d="M115.87,95.12c-1.72-2.67-4.23-1-4.85,3.2-1.24,8.54-3.45,21.16-6.52,28.33-4.52,10.61-14,42-9.5,73.49.61,4.19,2,3.69,2.79,2.68,5.36-7.3,16.58-28.82,20.53-48.68,2.46-12.33,3.37-25.37.08-36a10.62,10.62,0,0,1-.45-2.61l-.89-16.16a9,9,0,0,0-1.19-4.28Z"/><path d="M114.61,105.79c-.33.26-4.79,21.21-9,42.19-3.91,19.48-6.11,37.34-6.09,40.34"/><path class="cls-3" d="M112,79.73c-.18-3.89-.24-6-2.79-5.18-5.18,1.7-10.84,1.57-16.92-.21-9-2.63-31.86-3-43.19,17.74a4.12,4.12,0,0,0,1.09,5.6c8.09,5.39,28,14,41,11.69,8-1.4,15.52-3.25,17.84-13.05a23.31,23.31,0,0,1,1.8-4.28l5.72-8.24c.74-.88-.82-2.12-.89-3.63Z"/><path class="cls-2" d="M117.25,79.76c-.16-3.47-2.77-6.4-5-5.64-4.62,1.54-11.73,3.27-17.14,1.7-8-2.32-28.72-3.71-38.83,14.91a3.67,3.67,0,0,0,1,5c7.2,4.79,25,12.38,36.5,10.32,7.18-1.29,13.48-5,15.55-13.79a4.05,4.05,0,0,1,.79-1.64l6.29-7.51a4.91,4.91,0,0,0,.94-3.35Z"/><path d="M111.69,82.09c-.35-.37-12.75,1.41-25,3.55-11.34,2-20.7,5.77-22,7"/><path class="cls-3" d="M935.84,136c-4.54-1.59-7.07-2.41-2.79-5.94a91.77,91.77,0,0,0,21.27-25.39c8.21-14.33,36.82-48.72,76.73-58.57,5.31-1.31,6,1.6,5.47,3.53-3.69,14-18.57,46.72-37.83,65.34-12,11.56-23.75,22.12-38.71,22.24a44.71,44.71,0,0,0-7.54,1.23l-17.38,5.75c-2,.8-1.56-2-3.33-2.57Z"/><path class="cls-2" d="M929.19,143.87c-4.06-1.42-4.32-6.33-.49-9.48,7.76-6.38,18.94-16.43,23.89-25.06,7.34-12.76,32-44.25,67.72-53,4.75-1.17,5.36,1.43,4.91,3.14-3.3,12.41-16.59,41.58-33.82,58.15-10.7,10.29-23.31,18.45-36.69,18.56a8.42,8.42,0,0,0-3,.61l-17.22,6.85a7.66,7.66,0,0,1-5.29.26Z"/><path d="M939.12,136.36c0-.66,18-18.6,36.14-36.16,16.88-16.3,33.41-29,36.5-30.51"/><path class="cls-3" d="M932.4,141.34c-5.32.38-8.24.65-5.7-3.84a68.36,68.36,0,0,0,8.77-28.7C936.62,94,948.31,55.2,983.3,32.3c4.65-3,6.76-.91,7.19.86,3.17,12.8,4.39,45.18-5.69,67.59-6.27,13.92-12.85,27-27.72,32.6a51.63,51.63,0,0,0-6.92,3.82l-14.53,11.17c-1.61,1.41-2.51-1-4.57-.87Z"/><path class="cls-2" d="M929.63,150.27c-4.75.34-7.42-3.58-5.14-7.59,4.61-8.11,10.83-20.5,11.55-29.41,1.05-13.18,10.24-48.15,41.56-68.62,4.16-2.72,6-.82,6.43.75,2.8,11.4,3.85,40.23-5.21,60.21-5.63,12.41-14.21,23.78-27.51,28.85a8.88,8.88,0,0,0-2.71,1.62l-13.81,12a9.1,9.1,0,0,1-5.16,2.18Z"/><path d="M935.85,140.42c-.32-.54,8.79-21.91,18.32-43C963,77.74,973.28,61.18,975.62,58.8"/><path class="cls-3" d="M940.45,142.83c-2.49-3.58-3.92-5.51,1.42-7A104.05,104.05,0,0,0,973,120.68c14.7-10.25,56.69-30.83,92.69-22.51,4.79,1.11,3.58,4.24,2.06,5.89-11,11.9-41.71,37.06-67.29,46.51-15.9,5.87-31.06,10.84-42.43,4.25a32.54,32.54,0,0,0-6.44-2.18L935,150.43c-2-.12,0-2.6-1-4Z"/><path class="cls-2" d="M930.76,147.51c-2.23-3.2.48-8.09,5.24-9.43,9.65-2.73,24-7.48,32.9-13.64,13.1-9.11,50.41-28.63,82.6-21.16,4.29,1,3.21,3.79,1.85,5.25-9.84,10.58-37.15,32.95-60,41.33-14.18,5.2-28.55,7.48-38.73,1.58a6.15,6.15,0,0,0-2.64-.75l-17.07-1.07a5.35,5.35,0,0,1-4.16-2.11Z"/><path d="M942.72,144.65c.39-.63,24.58-10,48.72-18.92,22.42-8.27,42.45-13.2,45.67-13.28"/><path class="cls-3" d="M941.54,149.1c-.56-4.44-.93-6.85,4.26-6.62,10.52.46,21.55-1.29,33-5,17-5.5,61.58-12.43,88.58,7.81,3.59,2.69,1.19,5.45-.82,6.61-14.56,8.36-51.56,23.64-77.41,24.75-16.06.69-31.11.71-37.92-9.68a25.05,25.05,0,0,0-4.52-4.32L933.62,155c-1.65-.78,1.11-2.63.89-4.35Z"/><path class="cls-2" d="M931.28,150.62c-.51-4,3.92-8,8.54-7.78,9.39.43,23.7.37,33.9-2.92,15.09-4.87,55.29-12.28,79.41,5.85,3.21,2.41,1.08,4.87-.71,5.9-13,7.43-45.91,21-69,21.93-14.32.57-27.52-1.86-33.62-11.15a4.61,4.61,0,0,0-1.92-1.64l-14-6.68a4.46,4.46,0,0,1-2.61-3.51Z"/><path d="M942.68,151.68c.6-.51,25.25-2,49.64-3,22.64-1,41.82.65,44.59,1.63"/><path class="cls-3" d="M915.78,105.23c-4.55-1.59-7.07-2.41-2.79-6A91.59,91.59,0,0,0,934.26,73.9c8.2-14.34,36.82-48.72,76.73-58.57,5.3-1.31,6,1.6,5.47,3.53-3.69,14-18.57,46.72-37.84,65.34-12,11.56-23.75,22.12-38.7,22.23a46.07,46.07,0,0,0-7.55,1.24L915,113.42c-2,.8-1.56-2-3.32-2.58Z"/><path class="cls-2" d="M909.13,113.11c-4.06-1.42-4.32-6.33-.49-9.48,7.76-6.38,18.93-16.43,23.89-25.06,7.33-12.76,32-44.25,67.72-53,4.75-1.17,5.36,1.42,4.91,3.14-3.3,12.41-16.59,41.58-33.82,58.14-10.7,10.3-23.31,18.46-36.69,18.57a8.52,8.52,0,0,0-3,.61l-17.21,6.85a7.72,7.72,0,0,1-5.29.26Z"/><path d="M919.06,105.59c0-.65,18-18.59,36.13-36.15,16.88-16.3,33.42-29,36.51-30.52"/><path class="cls-3" d="M912.34,110.58c-5.32.38-8.24.65-5.7-3.84A68.5,68.5,0,0,0,915.41,78c1.15-14.8,12.83-53.6,47.82-76.51,4.66-3,6.76-.91,7.2.86,3.16,12.81,4.39,45.19-5.7,67.6-6.26,13.92-12.84,27-27.71,32.6a50.65,50.65,0,0,0-6.93,3.82l-14.52,11.17c-1.61,1.41-2.51-1-4.58-.88Z"/><path class="cls-2" d="M909.57,119.5c-4.75.35-7.42-3.58-5.14-7.58C909,103.8,915.26,91.42,916,82.51c1.06-13.18,10.24-48.16,41.56-68.62,4.17-2.72,6.05-.82,6.44.75,2.8,11.4,3.84,40.23-5.21,60.21-5.63,12.41-14.21,23.78-27.51,28.84a9,9,0,0,0-2.71,1.63l-13.82,12a8.91,8.91,0,0,1-5.15,2.18Z"/><path d="M915.79,109.66c-.32-.54,8.79-21.91,18.32-43C943,47,953.22,30.42,955.56,28"/><path class="cls-3" d="M920.39,112.07c-2.49-3.59-3.92-5.51,1.41-7a104.1,104.1,0,0,0,31.11-15.12c14.69-10.25,56.68-30.83,92.69-22.51,4.79,1.11,3.58,4.24,2.05,5.89-11.05,11.89-41.7,37.06-67.29,46.51-15.89,5.87-31.05,10.84-42.43,4.25a32.23,32.23,0,0,0-6.43-2.18L915,119.67c-2-.12,0-2.6-1-4Z"/><path class="cls-2" d="M910.7,116.74c-2.23-3.2.48-8.08,5.24-9.43,9.65-2.72,24-7.47,32.9-13.63,13.1-9.11,50.4-28.64,82.6-21.16,4.28,1,3.21,3.78,1.85,5.25-9.84,10.58-37.16,33-60,41.33-14.18,5.2-28.55,7.47-38.73,1.58a6,6,0,0,0-2.65-.75l-17.06-1.07a5.33,5.33,0,0,1-4.16-2.12Z"/><path d="M922.65,113.89c.4-.64,24.59-10,48.73-18.92,22.41-8.27,42.44-13.21,45.67-13.28"/><path class="cls-3" d="M921.48,118.34c-.56-4.44-.94-6.85,4.25-6.62,10.53.45,21.56-1.3,33-5,16.94-5.5,61.58-12.42,88.57,7.82,3.59,2.69,1.2,5.45-.81,6.6C1032,129.48,995,144.77,969.1,145.88c-16.07.68-31.11.71-37.92-9.68a25.39,25.39,0,0,0-4.52-4.32l-13.11-7.67c-1.64-.78,1.11-2.63.9-4.35Z"/><path class="cls-2" d="M911.21,119.86c-.51-4,3.92-8,8.55-7.78,9.39.43,23.69.37,33.9-2.92,15.09-4.88,55.28-12.28,79.41,5.85,3.2,2.41,1.08,4.87-.71,5.9-13,7.43-45.91,21-69,21.92-14.32.58-27.52-1.85-33.61-11.15a4.79,4.79,0,0,0-1.92-1.63l-14-6.69a4.46,4.46,0,0,1-2.61-3.5Z"/><path d="M922.61,120.92c.61-.52,25.26-2,49.65-3,22.64-1,41.81.65,44.59,1.63"/><path class="cls-3" d="M942.51,442.33c.9-3.13,1.34-4.86,4.36-2.42a67.36,67.36,0,0,0,21,11.32c11.58,3.91,40,19.11,50.45,44.17,1.38,3.34-.8,4.08-2.31,3.94-11-1-37.16-7.4-52.82-18.1-9.72-6.64-18.67-13.27-19.84-23a26.1,26.1,0,0,0-1.49-4.8l-5.67-10.77c-.76-1.24,1.39-1.22,1.73-2.43Z"/><path class="cls-2" d="M936,438.79c.8-2.8,4.54-3.47,7.23-1.28,5.46,4.42,14,10.7,20.94,13.06,10.31,3.5,36.23,16.43,45.54,38.86,1.24,3-.7,3.64-2.05,3.52-9.75-.9-33.06-6.63-47-16.2-8.66-5.94-15.83-13.35-16.88-22.08a4.85,4.85,0,0,0-.69-1.91l-6.49-10.54a4.37,4.37,0,0,1-.59-3.43Z"/><path d="M942.47,444.51c.51-.07,15.55,9.84,30.33,19.94,13.71,9.37,24.65,18.88,26,20.75"/><path class="cls-3" d="M938.16,440.63c-.67-3.44-1.09-5.32,2.53-4.11a59.25,59.25,0,0,0,22.63,2.82c11.43-.75,42,3,62.1,23.48,2.67,2.74,1.18,4.33-.14,4.79-9.58,3.36-34.31,7.44-52.21,3.12-11.13-2.68-21.59-5.66-27-14.79a31.33,31.33,0,0,0-3.42-4.14L933,443.45c-1.2-.91.6-1.75.33-3.08Z"/><path class="cls-2" d="M931.13,439.72c-.62-3.06,2.2-5.2,5.43-4.12,6.56,2.19,16.5,5,23.38,4.56,10.18-.64,37.64,1.81,55.59,20.19,2.39,2.45,1.07,3.87-.1,4.28-8.53,3-30.56,6.58-46.52,2.69-9.92-2.42-19.26-6.87-24.1-15a5.64,5.64,0,0,0-1.44-1.61l-10.2-7.8a5.35,5.35,0,0,1-2-3.15Z"/><path d="M939.12,442.79c.39-.27,17.43,3.52,34.32,7.6,15.68,3.79,29.12,8.82,31.11,10.11"/><path class="cls-3" d="M937.61,446c2.56-2,3.94-3.12,5.48.21A63.17,63.17,0,0,0,956.94,465c8.92,8.56,27.73,33.9,24,58.25-.5,3.24-3,2.77-4.36,1.94-9.92-6-31.43-23.48-40.52-39.24-5.65-9.78-10.56-19.18-6.33-27.27a19.74,19.74,0,0,0,1.2-4.43l.5-11c-.06-1.31,2-.27,3-1.05Z"/><path class="cls-2" d="M933.32,440.18c2.29-1.78,6.24-.5,7.61,2.47,2.78,6,7.47,15,12.83,20.1,7.93,7.64,25.6,30,22.2,51.8-.45,2.9-2.67,2.48-3.89,1.74-8.82-5.35-28-20.93-36-35-5-8.74-7.79-17.89-4-25.13a3.46,3.46,0,0,0,.39-1.81L932,443.11a3.49,3.49,0,0,1,1.32-2.93Z"/><path d="M936.37,447.7c.52.19,9.46,15,18,29.9,8,13.8,13.2,26.38,13.49,28.48"/><path class="cls-3" d="M932.88,447.38c3.36-.81,5.18-1.3,5.38,2.11a52.77,52.77,0,0,0,6.24,21.05c5.44,10.51,14,39,.43,58.63-1.81,2.62-4.1,1.34-5.13.14-7.46-8.66-21.85-31.27-24.57-48-1.69-10.41-2.8-20.24,4.67-25.73a18.5,18.5,0,0,0,3-3.4l4.93-9.33c.48-1.15,2.09.46,3.4.14Z"/><path class="cls-2" d="M931,440.83a5.58,5.58,0,0,1,6.59,4.8c.34,6.17,1.42,15.51,4.69,21.84,4.83,9.36,13.41,34.86,1.27,52.44-1.62,2.34-3.66,1.2-4.58.14-6.63-7.71-19.41-27.85-21.79-42.81-1.48-9.29-.57-18.16,6.11-23.08a3.44,3.44,0,0,0,1.11-1.42l4.11-9.85a3.55,3.55,0,0,1,2.49-2.06Z"/><path d="M931,448.38c.44.35,3.36,16.29,5.92,32.11,2.38,14.69,2.53,27.38,2,29.29"/><path class="cls-3" d="M968.73,370.1c.9-5,1.34-7.8,4.37-3.89a66.39,66.39,0,0,0,21,18.15c11.62,6.26,40.12,30.64,50.6,70.83,1.39,5.34-.8,6.52-2.32,6.3-11-1.6-37.26-11.86-53-29-9.75-10.65-18.72-21.27-19.9-36.91a60.2,60.2,0,0,0-1.5-7.7l-5.68-17.26c-.76-2,1.39-2,1.74-3.9Z"/><path class="cls-2" d="M962.19,364.42c.8-4.49,4.55-5.56,7.25-2.06,5.47,7.09,14,17.16,21,20.95,10.34,5.61,36.33,26.34,45.68,62.3,1.24,4.78-.71,5.84-2.06,5.64-9.78-1.43-33.16-10.62-47.15-26-8.68-9.53-15.87-21.41-16.93-35.4a11.05,11.05,0,0,0-.69-3.06l-6.51-16.9a10.69,10.69,0,0,1-.59-5.5Z"/><path d="M968.69,373.59c.51-.11,15.6,15.78,30.41,32,13.76,15,24.73,30.27,26.11,33.26"/><path class="cls-3" d="M964.37,367.36c-.68-5.5-1.1-8.51,2.54-6.59a38.91,38.91,0,0,0,22.69,4.53c11.46-1.2,42.13,4.74,62.28,37.65,2.68,4.38,1.19,6.93-.14,7.68-9.61,5.39-34.41,11.93-52.37,5-11.15-4.3-21.64-9.07-27.07-23.72a52.33,52.33,0,0,0-3.43-6.63l-9.64-13.39c-1.2-1.47.6-2.8.34-4.94Z"/><path class="cls-2" d="M957.31,365.92c-.61-4.92,2.21-8.35,5.45-6.62,6.58,3.51,16.55,8,23.45,7.32,10.21-1,37.75,2.9,55.76,32.37,2.39,3.92,1.07,6.2-.11,6.86-8.56,4.78-30.64,10.55-46.66,4.31-9.94-3.87-19.31-11-24.16-24.12a9.28,9.28,0,0,0-1.45-2.57L959.36,371a10.09,10.09,0,0,1-2.05-5Z"/><path d="M965.33,370.83c.39-.43,17.48,5.65,34.42,12.19,15.73,6.08,29.2,14.14,31.2,16.2"/><path class="cls-3" d="M963.81,376c2.58-3.19,4-5,5.5.34a112.41,112.41,0,0,0,13.89,30.11c8.94,13.72,27.81,54.34,24,93.39-.5,5.2-3,4.44-4.37,3.1-10-9.63-31.52-37.64-40.64-62.9-5.67-15.69-10.59-30.75-6.35-43.73a47.25,47.25,0,0,0,1.21-7.09l.49-17.68c-.05-2.12,2-.45,3-1.69Z"/><path class="cls-2" d="M959.51,366.65c2.3-2.86,6.26-.81,7.63,4,2.8,9.67,7.5,24,12.87,32.24,8,12.24,25.67,48.12,22.27,83-.46,4.65-2.68,4-3.9,2.79-8.85-8.58-28-33.55-36.13-56.1-5-14-7.82-28.68-4-40.29a9,9,0,0,0,.39-2.89l-.42-18a7.29,7.29,0,0,1,1.32-4.7Z"/><path d="M962.58,378.7c.51.31,9.48,24.12,18.08,47.95,8,22.12,13.23,42.29,13.52,45.65"/><path class="cls-3" d="M959.07,378.19c3.37-1.3,5.2-2.09,5.4,3.38a124.41,124.41,0,0,0,6.25,33.76c5.46,16.84,14,62.45.43,94-1.81,4.2-4.1,2.14-5.14.22-7.48-13.89-21.91-50.14-24.64-77-1.7-16.71-2.81-32.46,4.68-41.27a29.19,29.19,0,0,0,3-5.44l4.94-15c.48-1.85,2.1.73,3.41.23Z"/><path class="cls-2" d="M957.16,367.69c3-1.17,6.43,2.81,6.6,7.69.35,9.9,1.43,24.86,4.71,35,4.84,15,13.45,55.89,1.27,84.09-1.62,3.75-3.67,1.92-4.59.22-6.65-12.37-19.47-44.66-21.86-68.64-1.48-14.89-.57-29.11,6.13-37a5.68,5.68,0,0,0,1.11-2.27L954.65,371a4.61,4.61,0,0,1,2.51-3.31Z"/><path d="M957.17,379.8c.44.55,3.38,26.11,6,51.48,2.38,23.55,2.53,43.89,2,47"/><path class="cls-3" d="M982.47,298c1-4.52,1.53-7,5-3.5a73.72,73.72,0,0,0,24,16.36c13.24,5.64,45.72,27.61,57.65,63.83,1.58,4.81-.91,5.88-2.64,5.68-12.52-1.44-42.46-10.69-60.35-26.14-11.12-9.6-21.34-19.18-22.68-33.27a44,44,0,0,0-1.71-6.94l-6.47-15.56c-.87-1.78,1.58-1.76,2-3.51Z"/><path class="cls-2" d="M975,292.92c.91-4,5.19-5,8.26-1.85,6.24,6.39,16,15.46,23.93,18.88,11.78,5.05,41.4,23.74,52,56.14,1.41,4.31-.81,5.27-2.35,5.09-11.14-1.29-37.78-9.57-53.72-23.4-9.9-8.59-18.09-19.3-19.29-31.91a8,8,0,0,0-.79-2.75l-7.42-15.24a7.69,7.69,0,0,1-.67-5Z"/><path d="M982.43,301.19c.57-.1,17.77,14.22,34.65,28.81,15.67,13.54,28.17,27.29,29.75,30"/><path class="cls-3" d="M977.5,295.58c-.77-5-1.25-7.68,2.89-5.94a54.37,54.37,0,0,0,25.86,4.07c13.06-1.07,48,4.28,71,33.94,3.06,4,1.36,6.25-.15,6.92-11,4.86-39.21,10.75-59.67,4.51-12.71-3.88-24.67-8.18-30.85-21.38a45.91,45.91,0,0,0-3.91-6l-11-12.07c-1.36-1.31.69-2.52.39-4.45Z"/><path class="cls-2" d="M969.46,294.27c-.7-4.43,2.52-7.52,6.21-6,7.49,3.17,18.86,7.22,26.72,6.59,11.63-.93,43,2.62,63.53,29.18,2.73,3.53,1.22,5.59-.12,6.18-9.75,4.31-34.92,9.52-53.16,3.89-11.34-3.49-22-9.93-27.54-21.74a7.89,7.89,0,0,0-1.65-2.32L971.8,298.82a8.17,8.17,0,0,1-2.34-4.55Z"/><path d="M978.6,298.7c.44-.38,19.91,5.09,39.22,11,17.92,5.48,33.27,12.74,35.55,14.6"/><path class="cls-3" d="M976.86,303.39c2.94-2.87,4.51-4.5,6.28.31A93.07,93.07,0,0,0,999,330.84c10.19,12.36,31.69,49,27.38,84.17-.57,4.68-3.42,4-5,2.79-11.34-8.68-35.92-33.92-46.31-56.68C968.59,347,963,333.4,967.82,321.7a33.44,33.44,0,0,0,1.37-6.39l.57-15.94c-.06-1.9,2.27-.4,3.41-1.51Z"/><path class="cls-2" d="M972,294.94c2.62-2.58,7.12-.74,8.69,3.56,3.18,8.71,8.54,21.6,14.67,29.05,9.06,11,29.25,43.37,25.36,74.84-.51,4.19-3.05,3.59-4.44,2.52-10.08-7.74-31.93-30.24-41.16-50.56-5.73-12.62-8.91-25.85-4.59-36.32a6.33,6.33,0,0,0,.44-2.6l-.48-16.26a5.62,5.62,0,0,1,1.51-4.23Z"/><path d="M975.46,305.8c.59.27,10.81,21.73,20.6,43.21,9.1,19.94,15.08,38.11,15.42,41.14"/><path class="cls-3" d="M971.47,305.34c3.84-1.18,5.92-1.89,6.15,3a91.43,91.43,0,0,0,7.12,30.42c6.22,15.19,16,56.29.49,84.72-2.06,3.79-4.68,1.93-5.86.2-8.52-12.52-25-45.19-28.08-69.42-1.93-15.06-3.2-29.25,5.34-37.19a26.27,26.27,0,0,0,3.41-4.9l5.63-13.49c.54-1.67,2.39.66,3.88.21Z"/><path class="cls-2" d="M969.28,295.87c3.43-1.06,7.33,2.53,7.53,6.93.4,8.92,1.63,22.41,5.36,31.56,5.52,13.53,15.33,50.37,1.45,75.78-1.85,3.38-4.18,1.74-5.23.2-7.58-11.15-22.18-40.25-24.91-61.86-1.69-13.43-.65-26.24,7-33.35a4.83,4.83,0,0,0,1.27-2.05l4.69-14.23a4.46,4.46,0,0,1,2.85-3Z"/><path d="M969.3,306.79c.5.5,3.85,23.53,6.77,46.39,2.72,21.23,2.89,39.56,2.26,42.32"/><path class="cls-3" d="M965.28,227.66c1.26-5,1.88-7.79,6.13-3.88a91.81,91.81,0,0,0,29.5,18.15c16.29,6.26,56.24,30.64,70.92,70.82,2,5.35-1.12,6.53-3.25,6.31-15.4-1.6-52.22-11.87-74.24-29-13.67-10.65-26.24-21.28-27.89-36.91a46.84,46.84,0,0,0-2.1-7.71l-8-17.26c-1.07-2,2-1.95,2.44-3.9Z"/><path class="cls-2" d="M956.12,222c1.11-4.48,6.38-5.55,10.16-2,7.67,7.09,19.63,17.16,29.43,20.95,14.49,5.6,50.93,26.34,64,62.29,1.75,4.78-1,5.84-2.88,5.65-13.71-1.44-46.48-10.63-66.08-26-12.18-9.53-22.25-21.41-23.73-35.4a8.35,8.35,0,0,0-1-3.06l-9.13-16.91a7.76,7.76,0,0,1-.82-5.5Z"/><path d="M965.23,231.15c.71-.1,21.86,15.79,42.62,32,19.28,15,34.66,30.28,36.6,33.27"/><path class="cls-3" d="M959.17,224.93c-.95-5.5-1.54-8.52,3.55-6.59a73.43,73.43,0,0,0,31.82,4.52c16.05-1.19,59,4.74,87.28,37.66,3.76,4.38,1.67,6.93-.19,7.67-13.47,5.39-48.23,11.93-73.4,5-15.63-4.3-30.34-9.08-37.94-23.72a49.56,49.56,0,0,0-4.82-6.64L952,229.45c-1.68-1.46.85-2.8.48-4.93Z"/><path class="cls-2" d="M949.28,223.48c-.86-4.92,3.1-8.35,7.64-6.62,9.21,3.52,23.19,8,32.86,7.32,14.31-1,52.92,2.91,78.15,32.38,3.36,3.92,1.51,6.19-.15,6.85-12,4.79-43,10.56-65.39,4.32-13.94-3.88-27.07-11-33.88-24.12a8.59,8.59,0,0,0-2-2.57l-14.34-12.52a8.78,8.78,0,0,1-2.87-5Z"/><path d="M960.52,228.39c.54-.42,24.49,5.65,48.24,12.2,22,6.07,40.93,14.13,43.73,16.2"/><path class="cls-3" d="M958.38,233.6c3.62-3.19,5.54-5,7.72.34a101.34,101.34,0,0,0,19.46,30.11c12.54,13.72,39,54.35,33.69,93.4-.71,5.19-4.21,4.43-6.14,3.1-13.94-9.64-44.17-37.65-57-62.9-7.94-15.69-14.84-30.75-8.9-43.73a34.21,34.21,0,0,0,1.7-7.1l.69-17.68c-.07-2.11,2.8-.44,4.2-1.68Z"/><path class="cls-2" d="M952.36,224.22c3.22-2.86,8.77-.82,10.7,3.95,3.91,9.66,10.5,24,18,32.24,11.14,12.23,36,48.12,31.2,83-.63,4.65-3.75,4-5.47,2.79-12.4-8.59-39.28-33.55-50.63-56.1-7.05-14-11-28.68-5.65-40.3a6.41,6.41,0,0,0,.55-2.89l-.6-18a5.91,5.91,0,0,1,1.86-4.69Z"/><path d="M956.65,236.27c.73.3,13.3,24.11,25.35,47.94,11.19,22.13,18.55,42.3,19,45.66"/><path class="cls-3" d="M951.75,235.76c4.72-1.31,7.28-2.09,7.56,3.38.58,11.09,3.59,22.36,8.76,33.75,7.65,16.85,19.66,62.46.6,94-2.53,4.2-5.75,2.14-7.2.22-10.49-13.89-30.72-50.14-34.54-77-2.38-16.7-3.94-32.45,6.56-41.26a29.29,29.29,0,0,0,4.19-5.44l6.93-15c.67-1.85,2.95.74,4.78.23Z"/><path class="cls-2" d="M949.06,225.26c4.22-1.18,9,2.8,9.26,7.69.49,9.89,2,24.86,6.59,35,6.79,15,18.86,55.89,1.78,84.09-2.27,3.75-5.14,1.92-6.42.21-9.33-12.36-27.3-44.65-30.65-68.63-2.08-14.9-.8-29.11,8.59-37a5.43,5.43,0,0,0,1.57-2.28l5.77-15.79a5.19,5.19,0,0,1,3.51-3.3Z"/><path d="M949.08,237.37c.62.55,4.73,26.11,8.33,51.48,3.34,23.55,3.55,43.88,2.78,46.95"/><path class="cls-3" d="M108.36,390.39c-.7-3.9-1-6.06-3.41-3a52,52,0,0,1-16.47,14.09c-9.08,4.87-31.38,23.8-39.57,55-1.09,4.15.63,5.07,1.81,4.9,8.6-1.24,29.14-9.21,41.43-22.53,7.63-8.27,14.64-16.52,15.56-28.66a46.15,46.15,0,0,1,1.18-6l4.44-13.41c.6-1.54-1.09-1.51-1.36-3Z"/><path class="cls-2" d="M113.48,386c-.63-3.49-3.56-4.32-5.67-1.6-4.28,5.51-11,13.32-16.43,16.27C83.3,405,63,421.1,55.66,449c-1,3.72.55,4.54,1.61,4.39,7.65-1.12,25.93-8.25,36.87-20.17,6.8-7.4,12.42-16.63,13.24-27.49a8.84,8.84,0,0,1,.54-2.38l5.1-13.13a8.16,8.16,0,0,0,.46-4.26Z"/><path d="M108.39,393.1C108,393,96.2,405.35,84.61,417.92c-10.76,11.67-19.34,23.52-20.42,25.83"/><path class="cls-3" d="M111.77,388.26c.53-4.27.86-6.61-2-5.11A30.58,30.58,0,0,1,92,386.66c-9-.93-32.95,3.68-48.71,29.24-2.09,3.4-.93,5.38.11,6,7.52,4.19,26.91,9.27,41,3.89,8.72-3.34,16.93-7.05,21.17-18.42a39.7,39.7,0,0,1,2.69-5.15l7.54-10.4c.93-1.14-.48-2.18-.27-3.84Z"/><path class="cls-2" d="M117.29,387.14c.48-3.82-1.73-6.49-4.26-5.14-5.14,2.73-12.94,6.23-18.34,5.68-8-.8-29.52,2.26-43.61,25.14-1.87,3.05-.83,4.82.09,5.33,6.69,3.72,24,8.2,36.49,3.35,7.78-3,15.1-8.56,18.9-18.73a6.94,6.94,0,0,1,1.13-2l8-9.72a7.68,7.68,0,0,0,1.6-3.91Z"/><path d="M111,391c-.3-.33-13.67,4.39-26.92,9.47-12.3,4.72-22.84,11-24.4,12.58"/><path class="cls-3" d="M112.21,395c-2-2.48-3.09-3.88-4.3.26a87.38,87.38,0,0,1-10.86,23.39c-7,10.65-21.75,42.2-18.8,72.52.39,4,2.35,3.45,3.42,2.41,7.78-7.48,24.65-29.23,31.79-48.84,4.43-12.19,8.28-23.89,5-34a35.79,35.79,0,0,1-.94-5.51l-.39-13.73c0-1.64-1.56-.34-2.34-1.3Z"/><path class="cls-2" d="M115.57,387.71c-1.8-2.22-4.89-.63-6,3.07-2.19,7.5-5.87,18.61-10.07,25-6.22,9.51-20.08,37.37-17.41,64.49.35,3.61,2.09,3.09,3.05,2.17,6.92-6.67,21.92-26.06,28.25-43.57,3.93-10.87,6.12-22.27,3.15-31.29a6.71,6.71,0,0,1-.3-2.24l.33-14a5.66,5.66,0,0,0-1-3.65Z"/><path d="M113.18,397.07c-.41.24-7.42,18.73-14.15,37.23-6.24,17.18-10.34,32.85-10.57,35.46"/><path class="cls-3" d="M115.92,396.67c-2.64-1-4.07-1.62-4.22,2.63a96.57,96.57,0,0,1-4.89,26.21c-4.27,13.08-11,48.5-.34,73,1.41,3.26,3.21,1.66,4,.17,5.85-10.79,17.14-38.94,19.28-59.82,1.32-13,2.19-25.2-3.67-32.05a23.7,23.7,0,0,1-2.34-4.22L119.9,391c-.38-1.44-1.65.57-2.67.18Z"/><path class="cls-2" d="M117.42,388.52c-2.36-.91-5,2.18-5.17,6-.27,7.68-1.12,19.31-3.68,27.19-3.79,11.66-10.52,43.4-1,65.3,1.26,2.91,2.86,1.49,3.58.17,5.21-9.61,15.23-34.68,17.1-53.3,1.16-11.57.45-22.61-4.79-28.74a4.34,4.34,0,0,1-.87-1.76l-3.23-12.27a3.54,3.54,0,0,0-2-2.56Z"/><path d="M117.4,397.92c-.34.43-2.64,20.28-4.65,40-1.86,18.29-2,34.08-1.55,36.46"/><path class="cls-3" d="M90.87,264.8c-.71-3.89-1.05-6.05-3.42-3A51.88,51.88,0,0,1,71,275.88c-9.08,4.86-31.38,23.79-39.57,55-1.09,4.15.63,5.07,1.81,4.9,8.6-1.25,29.15-9.22,41.43-22.53,7.63-8.27,14.65-16.52,15.57-28.67a44.81,44.81,0,0,1,1.17-6l4.44-13.4c.6-1.54-1.09-1.52-1.36-3Z"/><path class="cls-2" d="M96,260.39c-.62-3.48-3.56-4.31-5.67-1.6-4.28,5.51-11,13.33-16.42,16.27-8.09,4.36-28.42,20.46-35.73,48.38-1,3.71.55,4.54,1.61,4.38,7.65-1.11,25.93-8.25,36.87-20.16,6.8-7.4,12.42-16.63,13.25-27.5a8,8,0,0,1,.54-2.37l5.09-13.13a8.2,8.2,0,0,0,.46-4.27Z"/><path d="M90.9,267.51c-.4-.08-12.2,12.26-23.79,24.83C56.35,304,47.77,315.85,46.69,318.17"/><path class="cls-3" d="M94.28,262.68c.53-4.28.85-6.62-2-5.12a30.51,30.51,0,0,1-17.75,3.51c-9-.92-32.95,3.68-48.7,29.25-2.1,3.4-.94,5.38.1,6,7.52,4.18,26.91,9.26,41,3.88,8.72-3.34,16.93-7.05,21.17-18.42a41,41,0,0,1,2.69-5.15l7.54-10.4c.94-1.14-.47-2.17-.27-3.83Z"/><path class="cls-2" d="M99.8,261.55c.48-3.82-1.73-6.48-4.27-5.13-5.14,2.73-12.94,6.22-18.34,5.68-8-.8-29.52,2.25-43.6,25.14-1.88,3-.84,4.81.08,5.32,6.69,3.72,24,8.2,36.49,3.35,7.78-3,15.1-8.55,18.9-18.73a7.12,7.12,0,0,1,1.13-2l8-9.72a7.81,7.81,0,0,0,1.61-3.92Z"/><path d="M93.52,265.37c-.3-.33-13.67,4.39-26.92,9.47-12.3,4.72-22.84,11-24.4,12.58"/><path class="cls-3" d="M94.71,269.41c-2-2.47-3.09-3.88-4.3.27a86.87,86.87,0,0,1-10.86,23.38c-7,10.66-21.75,42.2-18.8,72.53.4,4,2.35,3.44,3.43,2.41C72,360.51,88.83,338.76,96,319.15c4.43-12.18,8.28-23.88,5-34a35.79,35.79,0,0,1-1-5.51L99.59,266c0-1.64-1.56-.35-2.34-1.31Z"/><path class="cls-2" d="M98.07,262.13c-1.79-2.22-4.89-.64-6,3.06-2.19,7.51-5.86,18.61-10.07,25-6.22,9.5-20.07,37.37-17.41,64.49.35,3.61,2.09,3.08,3.05,2.16,6.92-6.66,21.92-26.05,28.25-43.56,3.94-10.88,6.12-22.27,3.15-31.29a6.81,6.81,0,0,1-.3-2.25l.33-14a5.57,5.57,0,0,0-1-3.64Z"/><path d="M95.68,271.48c-.41.24-7.42,18.73-14.14,37.24C75.29,325.9,71.19,341.56,71,344.17"/><path class="cls-3" d="M98.42,271.09c-2.64-1-4.06-1.63-4.22,2.62a96.12,96.12,0,0,1-4.89,26.21c-4.27,13.09-11,48.51-.34,73,1.42,3.26,3.21,1.67,4,.17,5.85-10.78,17.14-38.93,19.28-59.82,1.32-13,2.19-25.2-3.67-32a23.39,23.39,0,0,1-2.33-4.22l-3.87-11.63c-.38-1.43-1.64.58-2.67.18Z"/><path class="cls-2" d="M99.92,262.93c-2.36-.91-5,2.18-5.17,6-.27,7.69-1.12,19.31-3.68,27.19-3.78,11.66-10.52,43.41-1,65.3,1.26,2.92,2.87,1.5,3.58.17,5.21-9.6,15.23-34.68,17.1-53.3,1.16-11.57.45-22.61-4.79-28.73a4.45,4.45,0,0,1-.87-1.77l-3.23-12.26a3.55,3.55,0,0,0-2-2.57Z"/><path d="M99.91,272.34c-.35.43-2.65,20.27-4.65,40-1.87,18.29-2,34.09-1.55,36.47"/><path class="cls-3" d="M131.55,294.79c-.7-3.89-1.05-6.05-3.42-3a51.93,51.93,0,0,1-16.46,14.09c-9.09,4.86-31.38,23.79-39.57,55-1.09,4.15.62,5.07,1.81,4.9,8.59-1.25,29.14-9.22,41.42-22.53C123,335,130,326.72,130.9,314.57a46.46,46.46,0,0,1,1.17-6l4.44-13.4c.6-1.54-1.08-1.52-1.36-3Z"/><path class="cls-2" d="M136.66,290.38c-.62-3.48-3.56-4.31-5.67-1.6-4.28,5.51-11,13.33-16.42,16.27-8.09,4.36-28.42,20.46-35.73,48.38-1,3.71.56,4.54,1.61,4.38,7.65-1.11,25.94-8.25,36.88-20.16,6.79-7.4,12.41-16.63,13.24-27.5a8.33,8.33,0,0,1,.54-2.37l5.09-13.13a8.09,8.09,0,0,0,.46-4.27Z"/><path d="M131.58,297.5c-.4-.08-12.2,12.26-23.79,24.83C97,334,88.45,345.84,87.38,348.16"/><path class="cls-3" d="M135,292.67c.53-4.28.86-6.62-2-5.12a30.51,30.51,0,0,1-17.75,3.51c-9-.92-32.95,3.68-48.7,29.25-2.1,3.4-.93,5.38.1,6,7.52,4.18,26.92,9.26,41,3.88,8.73-3.34,16.93-7,21.17-18.42a41,41,0,0,1,2.69-5.15l7.54-10.4c.94-1.13-.47-2.17-.26-3.83Z"/><path class="cls-2" d="M140.48,291.54c.48-3.82-1.73-6.48-4.27-5.13-5.14,2.73-12.94,6.22-18.33,5.68-8-.8-29.53,2.25-43.61,25.14-1.87,3-.84,4.81.08,5.32,6.69,3.72,24,8.2,36.49,3.36,7.78-3,15.11-8.56,18.9-18.74a7.38,7.38,0,0,1,1.13-2l8-9.72a7.89,7.89,0,0,0,1.6-3.92Z"/><path d="M134.21,295.36c-.31-.33-13.67,4.39-26.92,9.47-12.3,4.72-22.84,11-24.41,12.58"/><path class="cls-3" d="M135.4,299.4c-2-2.47-3.09-3.88-4.31.27a86.87,86.87,0,0,1-10.86,23.38c-7,10.66-21.75,42.2-18.79,72.53.39,4,2.34,3.44,3.42,2.41,7.78-7.49,24.65-29.24,31.78-48.85,4.43-12.18,8.28-23.88,5-34a35.79,35.79,0,0,1-1-5.51l-.39-13.73c0-1.64-1.56-.35-2.34-1.31Z"/><path class="cls-2" d="M138.76,292.12c-1.8-2.22-4.89-.64-6,3.06-2.18,7.51-5.86,18.61-10.07,25-6.22,9.5-20.07,37.37-17.41,64.49.36,3.61,2.1,3.08,3,2.16,6.92-6.66,21.92-26.05,28.25-43.56,3.94-10.88,6.12-22.27,3.16-31.29a6.81,6.81,0,0,1-.31-2.25l.33-14a5.62,5.62,0,0,0-1-3.64Z"/><path d="M136.36,301.47c-.4.24-7.42,18.73-14.14,37.24-6.24,17.18-10.35,32.84-10.58,35.45"/><path class="cls-3" d="M139.1,301.08c-2.63-1-4.06-1.62-4.22,2.62A95.75,95.75,0,0,1,130,329.91c-4.27,13.09-11,48.51-.34,73,1.42,3.26,3.22,1.67,4,.18,5.86-10.79,17.15-38.94,19.28-59.83,1.33-13,2.19-25.2-3.66-32A22.83,22.83,0,0,1,147,307l-3.87-11.63c-.37-1.43-1.64.58-2.66.18Z"/><path class="cls-2" d="M140.6,292.92c-2.35-.91-5,2.18-5.16,6-.28,7.69-1.12,19.31-3.68,27.19-3.79,11.66-10.53,43.41-1,65.3,1.27,2.92,2.87,1.5,3.59.17,5.2-9.6,15.23-34.68,17.09-53.3,1.17-11.57.45-22.61-4.79-28.73a4.59,4.59,0,0,1-.87-1.77l-3.22-12.26a3.59,3.59,0,0,0-2-2.57Z"/><path d="M140.59,302.33c-.35.43-2.64,20.27-4.65,40-1.86,18.29-2,34.08-1.55,36.46"/><path class="cls-3" d="M948.43,174.52c.12-5.17.14-8,2.81-5,5.42,6,11.29,9.89,17.57,11.81,9.29,2.84,33.06,18.65,45.19,55,1.62,4.84.13,6.62-1,6.83-8.32,1.54-28.89-1.07-42.4-13.41-8.38-7.67-16.18-15.54-18.76-30.52a66.41,66.41,0,0,0-2-7.12l-6.09-15.3c-.78-1.72.82-2.3.86-4.3Z"/><path class="cls-2" d="M943,170.81c.1-4.62,2.76-6.73,5.14-4.07,4.83,5.4,12.25,12.84,17.84,14.57,8.27,2.57,29.78,15.51,40.62,48.08,1.44,4.33.11,5.92-.91,6.11-7.4,1.36-25.72-1-37.75-12.08a51.75,51.75,0,0,1-16.4-29.88,11.57,11.57,0,0,0-.84-2.8L944,176a12.33,12.33,0,0,1-1-5.22Z"/><path d="M948.78,178c.36-.25,13.27,11,26,22.7,11.82,10.82,21.61,22.65,23,25.18"/><path class="cls-3" d="M944.9,173.08c-1.1-5.2-1.74-8,1.16-7.18a22.27,22.27,0,0,0,17.3-2c8.36-4.42,31.72-7.29,50.23,19.24,2.46,3.53,1.64,6.45.74,7.56-6.53,8-24.19,21.42-38.24,19.73-8.73-1.06-17-2.76-22.64-15.57a43.45,43.45,0,0,0-3.27-5.52L941.58,179c-1-1.09.15-2.91-.28-4.93Z"/><path class="cls-2" d="M939.52,173.66c-1-4.65.72-8.81,3.31-8,5.26,1.58,13.13,3.17,18.17.53,7.44-3.9,28.27-7.85,44.82,15.92,2.2,3.16,1.47,5.76.67,6.74-5.82,7.11-21.55,19-34.09,17.44-7.79-1-15.5-5.32-20.53-16.78a7.16,7.16,0,0,0-1.35-2.11L941.58,178a9.21,9.21,0,0,1-2.06-4.35Z"/><path d="M946,176.2c.24-.53,13.56.58,26.82,2.19,12.31,1.5,23.17,5.58,24.88,7"/><path class="cls-3" d="M945.43,181.73c1.56-3.85,2.38-6,4.12-1.23a98.51,98.51,0,0,0,13.56,25.56c8.12,10.91,26.52,45.35,28,84.66.2,5.23-1.74,5.2-2.9,4.28-8.42-6.62-27.45-27.94-37-50.09-5.9-13.76-11.19-27.12-9.47-41a65.26,65.26,0,0,0,.13-7.29l-1.56-17.45c-.27-2.06,1.43-1,2-2.5Z"/><path class="cls-2" d="M941.23,173.76c1.39-3.46,4.54-2.57,6.08,1.71,3.12,8.67,8.16,21.34,13,27.92,7.23,9.73,24.26,39.86,25.55,75,.17,4.68-1.55,4.65-2.59,3.83-7.49-5.9-24.42-24.92-32.87-44.71-5.25-12.29-8.92-25.87-7.38-38.32a11.59,11.59,0,0,0,0-2.94l-2.28-17.55a10.19,10.19,0,0,1,.47-5Z"/><path d="M944.81,184.69c.41.15,9.65,20.93,18.62,41.84,8.32,19.4,14.41,37.67,15,40.88"/><path class="cls-3" d="M942.16,185.18c2.35-2.23,3.62-3.52,4.36,1.79a138.37,138.37,0,0,0,8.31,31.28c5.88,15,17.2,57.2,10.57,91.94-.88,4.63-2.81,3.26-3.78,1.67-7.06-11.48-21.7-42.9-26.65-68.46-3.08-15.88-5.62-31-1-41.74a44.1,44.1,0,0,0,1.62-6.17l2-16.06c.15-2,1.63.13,2.55-.74Z"/><path class="cls-2" d="M939.59,175.44c2.1-2,5.07.93,5.73,5.66,1.34,9.59,3.77,24,7.3,33,5.23,13.33,16.06,50.93,10.11,82-.79,4.13-2.5,2.92-3.37,1.51-6.27-10.22-19.29-38.22-23.67-61-2.73-14.16-3.6-28.35.5-38a8.25,8.25,0,0,0,.58-2.54l1.33-16.63a6.23,6.23,0,0,1,1.49-3.95Z"/><path d="M940.93,187.3c.38.41,5.34,24.61,10,48.73,4.33,22.39,6.66,42.27,6.59,45.42"/><path class="cls-4" d="M397.47,392.53q-29,0-44.83-16.27t-15.81-46.84V226.11q0-32.27,15-49.51t45.61-17.24q30.7,0,45.67,17.24t15,49.51V329.42q0,30.58-15.74,46.84T397.47,392.53Zm0-42.16a9.31,9.31,0,0,0,8.32-4.81,20,20,0,0,0,3-10.8V221.69A50.87,50.87,0,0,0,407,207.57q-1.75-6-9.56-6c-5.21,0-8.39,2-9.57,6a50.89,50.89,0,0,0-1.75,14.12V334.76a19.79,19.79,0,0,0,3.05,10.8A9.38,9.38,0,0,0,397.47,350.37Z"/><path class="cls-4" d="M472.15,263.45V224.68h46.58v38.77Zm0,96.16V320.83h46.58v38.78Z"/><path class="cls-4" d="M598,390.57v-36.3H530.05V318.49l43.33-157.18h71.3V316h12.23v38.25H644.68v36.3ZM570.91,316H598V200.61Z"/><path class="cls-4" d="M725.22,392.92q-32.26,0-46.06-18.48t-13.79-52.31V306.91q0-17.43,4.16-28.23t15.36-16.53a26.62,26.62,0,0,1-15-14.38q-4.42-10.08-4.42-25v-6q0-30.45,15.29-44.3t44.43-13.86q29.92,0,44.76,14.25t14.84,45.73q0,16.53-3.91,27.72t-15.48,16.13q12.36,6.38,16,16.72t3.65,27.78v15.22q0,33.84-13.8,52.31T725.22,392.92Zm0-45.28q12.49,0,12.49-20.17v-21q0-10.41-2.79-16.26t-9.7-5.86q-7.15,0-9.76,5.86t-2.6,16.26v21Q712.86,347.65,725.22,347.64Zm0-104.75q12.1,0,12.1-21.85a37.69,37.69,0,0,0-2.53-13.8c-1.7-4.33-4.88-6.5-9.57-6.5s-7.87,2.17-9.56,6.5a37.7,37.7,0,0,0-2.54,13.8Q713.12,242.9,725.22,242.89Z"/><path d="M196.39,26.59C184,15,188.84,18.4,180.84,16.27c-.93-.25-6.05-.56-8.73,1.52C139,43.48,139.75,59.86,140.25,100.26c0,3.27-1.82,4,3.26,2.83,32-7.5,7.19-4.32,34.42-4.49,4.3,0,4.14-1.11,4.11-3.38-.45-28.59-1.6-35.92,13.07-59.54C196.3,33.77,198.32,28.41,196.39,26.59Z"/><path d="M243.52,53.76c-.46-2.31-.2-6-6.75-10.83C236,42.36,219,37.36,216,38.62c-33.24,14-32.27,22-46.14,53.85-1.13,2.58-3.09,2.42,2,3.52,31.92,7,26,6.24,27.14,6.73,3.93,1.71,5.13,1.35,5.9-.44,9.74-22.58,12.21-26.33,34-39C240.66,62.3,244.13,56.78,243.52,53.76Z"/><path d="M284.22,88.14c.38-2.33,1.9-5.67-2.52-12.47-.52-.79-14.72-11.27-17.94-11.11-36.13,1.85-38,9.65-62.25,34.8-2,2-3.74,1.22.62,4,27.49,17.4,22.2,14.71,23.09,15.56,3.09,2.94,4.34,3,5.69,1.59,17.08-17.86,20.72-20.54,45.6-25C278.52,95.17,283.73,91.18,284.22,88.14Z"/><path d="M235.32,137a8.52,8.52,0,0,0,6.24,5.34c20.93,4.37,27.93,12.78,44.31,29.56,1.42,1.45,7.33,6.13,10.18,4.85,2.17-1,5.44-3.74,7.39-11.58,1.23-5-.11-16.1-2.24-21.06-14.19-33.06-11.4-25.93-42.1-35.62-9.79-3.09-29.25,8.91-29.17,14Z"/><path d="M228.83,152.48c0,2.91,1.76,6.36,4.63,9.12,20.9,20.15,25.14,32.27,36.22,58.38,1,2.26,5.51,10.63,9.09,11.91,2.73,1,7.36,1.46,12.57-3.07,3.29-2.86,6.24-12.58,5.9-18.13-2.27-37-2.08-29.24-31.43-61.31-9.36-10.22-35.15-16.49-37.08-12.47Z"/><path d="M220.52,176.12a10.93,10.93,0,0,0,3.06,8.38c16.59,18.47,18.88,29.6,25.63,53.57.58,2.07,3.66,9.75,6.79,10.92,2.39.9,6.59,1.33,12-2.83,3.42-2.63,7.42-11.56,7.84-16.66,2.81-34,2-26.85-20.83-56.26-7.27-9.38-30.19-15.1-32.49-11.41Z"/><path d="M96,37.82c-.85,2.51-4.27,12.65-2.52,15,12.76,16.91,22,24.84,24.21,47.12.19,1.93,1.79,9,4.61,10.07,2.16.79,6.16,1.1,12.15-2.92,3.79-2.55,9.29-11,10.63-15.77,8.88-31.86,6.76-25.18-10-52.18-5.36-8.61-23.62-9.51-31.41-8.48Z"/><path d="M52.34,77.6c.61,2.55,3.07,12.84,5.79,13.94C78,99.49,90,101.59,103.7,119.36c1.19,1.54,6.32,6.77,9.27,6.22,2.25-.41,5.82-2.14,8.79-8.55,1.88-4,2.09-14,.69-18.67-9.32-31.43-7.58-24.71-36.19-39.19C77.13,54.55,61.11,62.92,55,67.69Z"/><path d="M28.17,124c1.71,2.33,8.57,11.77,11.56,11.63,21.79-1,33.83-4.5,54.37,7.4,1.78,1,4.51-.51,7-2.43,1.89-1.48,6-3,5.91-10.92-.08-5-.37-14.05-5-17C68.9,92.22,80.94,98,48.15,96.39c-10.46-.5-18.46,8.44-21.93,16.17Z"/><path d="M12.92,169.15c2.48,1.37,12.51,6.89,15.41,5.57,21.12-9.58,31.81-17.39,56.17-15.16,2.11.2,4.28-2.24,6-4.9,1.35-2,4.93-5,2.06-11.9-1.82-4.37-5.22-12.13-10.82-12.81-39.68-4.77-25.82-4.54-58.71,7.13C12.6,140.8,7.79,151.8,7,159.94Z"/><path d="M30.37,221.59c1.83,1.17,14.92,1.51,16.47,0,5.55-5.43,6.83-5.91,8.4-7.75,15-17.5,25.31-25.69,49.13-33.24,2.06-.65,2.89-3.83,3.23-7.07.25-2.48,2.14-6.7-3.94-12.13-3.84-3.44-10.84-9.47-16.39-7.89-39.36,11.22-31.56,3.54-56.49,27.7-6.25,6.06-11.06,13.77-9.49,21.22.71,3.37,6.15,17.28,9.08,19.16Z"/><path d="M56.29,260.36c1.81.51,13.07-3.29,14.09-5.18C74,248.44,75,247.6,76,245.42c9.28-20.83,16.45-31.61,35.3-46,1.63-1.25,1.69-4.43,1.33-7.52-.28-2.36.48-6.85-5.82-9.94-4-1.95-11.17-5.31-15.6-2.11C59.82,202.5,65,193,48.5,223.06c-4.12,7.54-6.68,16.14-3.83,22.51,1.28,2.88,8.74,14,11.62,14.79Z"/><path d="M90.73,297.94c2.28.16,14.57-6.76,15.26-9.13,2.46-8.48,3.41-9.67,4-12.37,5.26-25.72,10.78-39.58,29.12-60.3,1.59-1.79.79-5.41-.49-8.82-1-2.6-1.32-7.85-9.63-9.88-5.25-1.28-14.7-3.4-19.06,1.25-30.93,33-27.49,21-38.67,58.88-2.81,9.49-3.46,19.82,1.66,26.36,2.32,3,14.21,13.77,17.85,14Z"/><path d="M144,316.69c2.25-.36,10.49-5,10.64-7.77.53-9.82,1.19-11.34,1.13-14.4-.55-29.28,1.76-45.68,15-72.51,1.14-2.32-.43-6.08-2.42-9.5-1.53-2.62-3-8.27-11.52-8.57-5.39-.19-15-.34-18.24,5.74C115.8,252.79,116.51,239,114,282.83c-.64,11,1,22.42,7.41,28.38,2.9,2.7,4.86,8.61,8.45,8Z"/><path d="M250,271.89c-2.86,6.64-5.84,11.21-14.4,7.71-2-.83-4-3-6.43-5.74-24.84-27.43-25.38-52.11-27.54-88.45-.22-3.61,1.34-3,3-4.33,7.25-5.75,3.17.75,20.68,8.62,16.17,7.27,24.43,33.64,25.16,36.14,7.39,25.16,1.17,3.82,5.3,30.09C256.22,258.54,252.45,266.23,250,271.89Z"/><path d="M222.76,303.77c-4.26,5.06-8.17,8.35-15.69,3.8-1.79-1.08-3.18-3.29-5-6-18-27.76-13-48.64-7-79.66.59-3.09,2-2.27,3.91-3.08,8.31-3.49,2.9,1.22,18.14,11.14,14.08,9.15,16.21,32.91,16.36,35.15,1.56,22.57.29,3.44-1.57,26.34C231.76,293.69,226.38,299.46,222.76,303.77Z"/><path d="M187.9,320.27c1.92-.54,9.89-12,9.72-14.8-.6-10.08-.18-11.69-.57-14.82-3.65-29.91-3.4-46.86,5.26-75.36.75-2.46-1-6.19-3.14-9.53-1.62-2.56-3.52-8.22-11-7.85-4.72.23-18.64,4.78-20.79,11.25-15.22,45.91-10.61,27.76-8.07,72.85.64,11.3,3.3,22.86,9.55,28.44,2.82,2.53,16,10.69,19,9.82Z"/><path class="cls-5" d="M193.56,32.51c-11.83-11.16-7.24-7.86-14.89-9.91-.9-.24-5.8-.54-8.37,1.45-31.67,24.68-31,40.42-30.51,79.22,0,3.14-1.74,3.86,3.12,2.72,30.68-7.21,6.89-4.16,33-4.31,4.11,0,4-1.07,3.93-3.25-.43-27.47-1.53-34.5,12.53-57.19C193.47,39.41,195.41,34.25,193.56,32.51Z"/><path class="cls-5" d="M238.7,58.61c-.44-2.22-.2-5.73-6.46-10.41-.74-.54-17-5.34-19.87-4.14-31.84,13.49-30.91,21.13-44.2,51.73-1.07,2.47-2.95,2.32,1.89,3.38,30.57,6.68,24.91,6,26,6.46,3.76,1.64,4.91,1.3,5.65-.42,9.33-21.69,11.69-25.3,32.56-37.42C236,66.81,239.29,61.51,238.7,58.61Z"/><path class="cls-5" d="M277.68,91.62c.36-2.23,1.82-5.44-2.41-12-.5-.76-14.1-10.83-17.19-10.67-34.6,1.77-36.41,9.26-59.61,33.42-1.88,2-3.59,1.18.58,3.82,26.34,16.71,21.27,14.14,22.12,15,3,2.82,4.16,2.89,5.45,1.53,16.37-17.16,19.85-19.73,43.68-24C272.23,98.38,277.21,94.54,277.68,91.62Z"/><path class="cls-5" d="M230.85,138.55a8.14,8.14,0,0,0,6,5.13c20.05,4.21,26.75,12.28,42.44,28.39,1.36,1.4,7,5.89,9.75,4.66,2.08-.94,5.22-3.58,7.08-11.12,1.19-4.76-.1-15.46-2.14-20.23-13.59-31.75-10.92-24.9-40.33-34.21-9.37-3-28,8.56-27.94,13.45Z"/><path class="cls-5" d="M224.63,153.42c0,2.8,1.69,6.11,4.43,8.77,20,19.35,24.09,31,34.7,56.07.92,2.17,5.27,10.2,8.7,11.44,2.62.94,7.05,1.4,12-2.95,3.16-2.75,6-12.08,5.65-17.42-2.17-35.53-2-28.08-30.1-58.88-9-9.82-33.67-15.84-35.52-12Z"/><path class="cls-5" d="M216.67,176.13a10.52,10.52,0,0,0,2.93,8.05c15.89,17.74,18.09,28.43,24.55,51.45.56,2,3.51,9.36,6.5,10.49,2.29.86,6.31,1.28,11.48-2.72,3.27-2.53,7.11-11.1,7.51-16,2.69-32.63,1.88-25.79-19.95-54-7-9-28.92-14.5-31.13-11Z"/><path class="cls-5" d="M97.37,43.3c-.81,2.41-4.09,12.14-2.41,14.37,12.22,16.24,21.07,23.87,23.19,45.26.18,1.86,1.71,8.69,4.42,9.67,2.06.76,5.89,1.06,11.63-2.8,3.63-2.45,8.9-10.56,10.18-15.15,8.51-30.6,6.48-24.18-9.61-50.12-5.13-8.27-22.62-9.13-30.09-8.14Z"/><path class="cls-5" d="M55.58,81.5c.59,2.45,2.94,12.34,5.55,13.39,19,7.64,30.54,9.65,43.65,26.72,1.13,1.48,6,6.5,8.87,6,2.16-.4,5.58-2.06,8.42-8.21,1.8-3.89,2-13.4.66-17.94-8.92-30.19-7.26-23.73-34.66-37.64C79.33,59.36,64,67.4,58.16,72Z"/><path class="cls-5" d="M32.44,126.07c1.63,2.24,8.2,11.3,11.06,11.17,20.87-1,32.41-4.32,52.08,7.11,1.7,1,4.33-.49,6.69-2.34,1.81-1.42,5.78-2.84,5.66-10.49-.07-4.83-.35-13.49-4.82-16.27C71.44,95.54,83,101.07,51.57,99.55c-10-.48-17.69,8.11-21,15.53Z"/><path class="cls-5" d="M17.82,169.44c2.38,1.31,12,6.61,14.76,5.35,20.24-9.21,30.47-16.71,53.81-14.56,2,.18,4.09-2.15,5.79-4.72,1.3-1.95,4.72-4.79,2-11.42-1.74-4.2-5-11.65-10.36-12.3-38-4.59-24.73-4.36-56.23,6.84-10,3.58-14.65,14.14-15.37,22Z"/><path class="cls-5" d="M34.54,219.8c1.75,1.13,14.29,1.46,15.77,0,5.32-5.21,6.55-5.68,8-7.44,14.36-16.81,24.25-24.67,47.06-31.93,2-.63,2.76-3.67,3.09-6.79.25-2.38,2-6.44-3.77-11.65-3.68-3.3-10.38-9.1-15.7-7.58-37.7,10.78-30.23,3.4-54.1,26.61-6,5.82-10.6,13.22-9.1,20.38.68,3.24,5.89,16.59,8.7,18.4Z"/><path class="cls-5" d="M59.37,257c1.73.49,12.52-3.16,13.49-5,3.5-6.47,4.46-7.29,5.39-9.38,8.89-20,15.76-30.36,33.81-44.22,1.56-1.2,1.63-4.26,1.28-7.22-.27-2.27.46-6.58-5.57-9.55-3.81-1.87-10.71-5.1-15-2-30.07,21.79-25.16,12.65-40.91,41.53-3.95,7.25-6.4,15.51-3.68,21.63,1.23,2.77,8.38,13.42,11.14,14.2Z"/><path class="cls-5" d="M92.35,293.14c2.18.15,14-6.5,14.62-8.78,2.36-8.14,3.27-9.28,3.8-11.87,5-24.71,10.32-38,27.89-57.92,1.52-1.72.75-5.2-.48-8.47-.94-2.51-1.26-7.55-9.22-9.49-5-1.23-14.08-3.27-18.26,1.2-29.62,31.68-26.32,20.19-37,56.55-2.69,9.11-3.32,19,1.59,25.32,2.22,2.84,13.61,13.22,17.09,13.46Z"/><path class="cls-5" d="M143.35,311.14c2.15-.34,10.05-4.83,10.19-7.46.5-9.43,1.14-10.89,1.08-13.83-.53-28.12,1.69-43.87,14.38-69.64,1.09-2.23-.41-5.84-2.32-9.13-1.47-2.52-2.88-7.94-11-8.23-5.15-.18-14.39-.32-17.46,5.52-21.82,41.4-21.13,28.1-23.56,70.25-.61,10.56,1,21.54,7.1,27.26,2.78,2.59,4.66,8.27,8.09,7.73Z"/><path class="cls-5" d="M244.91,268.12c-2.74,6.38-5.59,10.76-13.78,7.4-1.94-.8-3.8-2.9-6.17-5.52-23.79-26.34-24.31-50-26.37-84.95-.21-3.47,1.28-2.87,2.9-4.16,6.94-5.52,3,.72,19.81,8.28,15.49,7,23.4,32.32,24.1,34.72,7.07,24.16,1.12,3.66,5.07,28.89C250.86,255.29,247.25,262.68,244.91,268.12Z"/><path class="cls-5" d="M218.81,298.74c-4.08,4.86-7.82,8-15,3.64-1.7-1-3-3.15-4.75-5.8-17.24-26.66-12.47-46.72-6.71-76.51.57-3,1.89-2.18,3.74-3,8-3.35,2.79,1.18,17.38,10.7,13.49,8.79,15.53,31.61,15.68,33.76,1.49,21.69.27,3.3-1.51,25.3C227.44,289.05,222.29,294.6,218.81,298.74Z"/><path class="cls-5" d="M185.43,314.59c1.84-.52,9.47-11.52,9.31-14.22-.58-9.69-.18-11.23-.55-14.24-3.5-28.72-3.26-45,5-72.38.72-2.36-1-5.94-3-9.15-1.55-2.46-3.37-7.9-10.52-7.54-4.52.22-17.86,4.59-19.91,10.81-14.58,44.09-10.17,26.66-7.74,70,.61,10.86,3.16,22,9.15,27.32,2.7,2.43,15.28,10.27,18.23,9.44Z"/><path class="cls-6" d="M193.34,37.71c-11.29-10.79-6.9-7.61-14.21-9.59-.85-.23-5.53-.52-8,1.41C140.92,53.4,141.57,68.62,142,106.15c0,3-1.66,3.73,3,2.63,29.27-7,6.57-4,31.46-4.17,3.93,0,3.79-1,3.76-3.14-.41-26.57-1.46-33.37,12-55.31C193.26,44.38,195.11,39.4,193.34,37.71Z"/><path class="cls-6" d="M236.43,63c-.42-2.14-.19-5.53-6.17-10.06-.7-.53-16.25-5.17-19-4-30.39,13-29.5,20.43-42.18,50-1,2.4-2.82,2.25,1.8,3.27,29.18,6.47,23.77,5.8,24.81,6.26,3.6,1.58,4.69,1.25,5.39-.41,8.91-21,11.16-24.47,31.08-36.2C233.81,70.88,237,65.76,236.43,63Z"/><path class="cls-6" d="M273.63,94.89c.35-2.16,1.74-5.26-2.31-11.58-.47-.74-13.44-10.48-16.39-10.32-33,1.71-34.75,9-56.9,32.33-1.79,1.89-3.42,1.13.56,3.69,25.13,16.16,20.3,13.67,21.11,14.45,2.82,2.74,4,2.8,5.2,1.49,15.62-16.6,18.94-19.09,41.69-23.2C268.43,101.42,273.18,97.71,273.63,94.89Z"/><path class="cls-6" d="M228.93,140.28a7.84,7.84,0,0,0,5.7,5c19.14,4.07,25.53,11.88,40.51,27.46,1.29,1.35,6.7,5.7,9.3,4.51,2-.91,5-3.47,6.76-10.76,1.13-4.61-.1-14.95-2.05-19.56-13-30.72-10.42-24.1-38.48-33.09-8.95-2.87-26.74,8.27-26.67,13Z"/><path class="cls-6" d="M223,154.66c0,2.71,1.61,5.91,4.23,8.48,19.11,18.72,23,30,33.11,54.24.88,2.09,5,9.86,8.31,11.06,2.5.91,6.73,1.35,11.49-2.85,3-2.66,5.71-11.69,5.39-16.85-2.07-34.37-1.9-27.16-28.73-57-8.56-9.5-32.13-15.32-33.89-11.59Z"/><path class="cls-6" d="M215.41,176.63a10.22,10.22,0,0,0,2.79,7.78c15.16,17.16,17.26,27.5,23.43,49.76.53,1.93,3.35,9.06,6.2,10.15,2.19.83,6,1.24,11-2.63,3.12-2.44,6.78-10.74,7.17-15.47,2.56-31.56,1.79-24.95-19-52.27-6.64-8.71-27.59-14-29.7-10.6Z"/><path class="cls-6" d="M101.55,48.15c-.77,2.33-3.9,11.74-2.3,13.9,11.66,15.71,20.11,23.08,22.12,43.78.18,1.79,1.64,8.4,4.22,9.35,2,.73,5.63,1,11.11-2.71,3.46-2.37,8.49-10.21,9.71-14.65,8.12-29.6,6.18-23.39-9.17-48.48-4.9-8-21.59-8.83-28.72-7.88Z"/><path class="cls-6" d="M61.67,85.1c.56,2.37,2.8,11.93,5.29,13,18.11,7.38,29.15,9.33,41.66,25.85,1.08,1.42,5.77,6.28,8.47,5.78,2.06-.39,5.32-2,8-8,1.72-3.76,1.91-13,.63-17.34-8.52-29.2-6.93-23-33.08-36.41-8.34-4.29-23,3.48-28.55,7.91Z"/><path class="cls-6" d="M39.58,128.2c1.55,2.17,7.82,10.94,10.56,10.81,19.92-1,30.93-4.18,49.7,6.87,1.62,1,4.13-.47,6.38-2.26,1.73-1.37,5.52-2.75,5.41-10.14-.08-4.68-.34-13-4.6-15.74C76.8,98.68,87.81,104,57.83,102.56c-9.56-.47-16.87,7.84-20,15Z"/><path class="cls-6" d="M25.63,170.15c2.27,1.27,11.43,6.4,14.08,5.18C59,166.42,68.8,159.17,91.06,161.24c1.93.18,3.91-2.08,5.53-4.55,1.24-1.9,4.51-4.64,1.88-11.06-1.66-4-4.77-11.27-9.88-11.89-36.28-4.44-23.6-4.22-53.67,6.62-9.58,3.45-14,13.67-14.66,21.23Z"/><path class="cls-6" d="M41.58,218.86c1.67,1.1,13.64,1.41,15.06,0,5.07-5,6.25-5.49,7.68-7.19,13.7-16.26,23.14-23.87,44.91-30.88,1.88-.61,2.64-3.56,3-6.57.23-2.3,2-6.23-3.6-11.27-3.52-3.19-9.91-8.8-15-7.33C57.62,166,64.75,158.91,42,181.36c-5.71,5.62-10.11,12.78-8.68,19.71.65,3.13,5.62,16.05,8.3,17.79Z"/><path class="cls-6" d="M65.28,254.88c1.65.47,12-3,12.88-4.8,3.33-6.27,4.25-7.05,5.14-9.08,8.49-19.35,15-29.36,32.27-42.77,1.49-1.16,1.55-4.11,1.22-7-.26-2.2.44-6.36-5.32-9.23-3.64-1.82-10.22-4.94-14.26-2-28.7,21.08-24,12.24-39,40.18-3.77,7-6.11,15-3.51,20.92,1.18,2.67,8,13,10.63,13.73Z"/><path class="cls-6" d="M96.76,289.8c2.08.14,13.32-6.29,13.95-8.49,2.25-7.87,3.12-9,3.62-11.48,4.81-23.9,9.86-36.78,26.62-56,1.45-1.66.72-5-.45-8.19-.9-2.42-1.21-7.3-8.8-9.18-4.8-1.19-13.44-3.16-17.43,1.16C86,228.24,89.15,217.12,78.92,252.29c-2.56,8.82-3.16,18.41,1.52,24.49,2.12,2.75,13,12.79,16.32,13Z"/><path class="cls-6" d="M145.43,307.21c2-.33,9.59-4.67,9.72-7.22.48-9.11,1.09-10.53,1-13.38-.51-27.19,1.6-42.43,13.71-67.35,1-2.15-.38-5.65-2.21-8.83-1.39-2.43-2.75-7.68-10.53-8-4.92-.18-13.73-.31-16.67,5.34C119.67,247.86,120.33,235,118,275.76c-.58,10.22.91,20.83,6.78,26.37,2.65,2.5,4.44,8,7.72,7.47Z"/><path class="cls-6" d="M242.36,265.6c-2.62,6.17-5.34,10.41-13.16,7.16-1.85-.77-3.63-2.81-5.88-5.34-22.71-25.47-23.2-48.4-25.18-82.17-.19-3.35,1.23-2.77,2.78-4,6.62-5.34,2.89.7,18.9,8,14.78,6.76,22.33,31.25,23,33.58,6.75,23.37,1.07,3.54,4.84,28C248,253.19,244.59,260.34,242.36,265.6Z"/><path class="cls-6" d="M217.45,295.22c-3.9,4.7-7.47,7.75-14.35,3.52-1.62-1-2.9-3.05-4.53-5.61-16.45-25.78-11.9-45.19-6.41-74,.55-2.86,1.8-2.1,3.58-2.86,7.6-3.23,2.65,1.14,16.58,10.35,12.87,8.51,14.82,30.58,15,32.66,1.43,21,.26,3.19-1.43,24.47C225.68,285.85,220.76,291.21,217.45,295.22Z"/><path class="cls-6" d="M185.58,310.55c1.76-.51,9-11.14,8.89-13.76-.55-9.36-.17-10.86-.52-13.77-3.34-27.78-3.11-43.53,4.81-70,.68-2.29-.94-5.75-2.87-8.86-1.48-2.38-3.22-7.64-10-7.29-4.31.21-17,4.44-19,10.45-13.91,42.65-9.7,25.79-7.38,67.67.58,10.5,3,21.24,8.73,26.43,2.58,2.35,14.59,9.93,17.39,9.13Z"/><path d="M234.55,159.92c0,38.8-29.07,77.53-72.86,77.53-7.75,0-44.55-6.73-63.42-24.58C81.74,197.23,82.4,170.43,82.4,167.19c0-38.8,42.54-74,89.15-74.21C215.34,92.76,234.55,121.12,234.55,159.92Z"/><path class="cls-7" d="M231.78,159.71c0,36.7-27.56,73.34-69.08,73.34-7.34,0-42.22-6.36-60.11-23.25-15.68-14.8-15-40.15-15-43.21,0-36.7,40.32-70,84.51-70.21C213.57,96.18,231.78,123,231.78,159.71Z"/></g></svg>
