<svg xmlns="http://www.w3.org/2000/svg" width="1080" height="630" viewBox="0 0 1080 630"><defs><style>.cls-1{opacity:0.5;}.cls-2{fill:#6cd362;}.cls-3{fill:#020202;}.cls-4{fill:#ffd9f8;}.cls-5{fill:#7c2268;}.cls-6{fill:#d6c230;}</style></defs><g id="Layer_3" data-name="Layer 3"><path class="cls-1" d="M1066.72,305.28c-21.87-25.34-52.61-34.54-72.74-36.82a102.56,102.56,0,0,0-11.31-18.64,65.72,65.72,0,0,0,16.79-13.7c.9-1.09,1.72-4-.73-7.48a64.78,64.78,0,0,0-7.31-8.75c23-4.76,48.58-15.65,60.1-22.23,2-1.14,4.39-3.88.81-6.54-9.73-7.26-21.76-11-34-12.53,14.82-10.11,27.87-21.44,34.29-28.31,1.52-1.63,2.73-4.74-2.05-5.83-17.26-4-35.89-1.3-52.22,3.66,14.81-10.11,27.86-21.44,34.28-28.31,1.52-1.63,2.73-4.73-2.05-5.83a77.53,77.53,0,0,0-14.82-1.85,118.52,118.52,0,0,0,5.78-15.77c.51-1.91-.17-4.8-5.46-3.5a111.37,111.37,0,0,0-34.5,15.45c10.23-16,17.54-33.29,20-42.43.51-1.91-.17-4.79-5.46-3.5-14.4,3.54-27.32,10.27-38.35,18.09.67-12.77-.44-24.39-2-30.9-.44-1.75-2.54-3.87-7.18-.85-29.53,19.22-42.4,49.75-46.34,67.55H107.26a26.32,26.32,0,0,0-16.72,5.95,32.33,32.33,0,0,1-9.79-1.37c-9-2.61-31.75-3-43,17.58A4,4,0,0,0,38.8,144c6.69,4.43,21.53,11,33.76,11.86-.74.82-1.48,1.7-2.23,2.62-18.59.48-41.91,4.59-55.69,18-2.7,2.62-.06,4.59,1.94,5.3,8.25,2.9,23.37,6.79,39.15,9.2,0,.16-.07.31-.1.47-.73,3.75.58,5,1.48,5,3.6.25,10-.77,16.45-3.52,1.26.08,2.5.14,3.74.18-11.92,7-24.62,18.12-30.46,34-1.31,3.58,1.06,4.74,2.66,4.8,6.64.25,18.49-.79,30.44-3.56a158.09,158.09,0,0,0,0,17.29l-1.36-.19C62.44,243,21.45,242.56,1.15,262.27c-2.7,2.63-.06,4.6,1.94,5.31,12,4.24,38.72,10.56,60.72,11.35-11.92,7-24.62,18.12-30.45,34a5.15,5.15,0,0,0-.37,2.26A64.53,64.53,0,0,0,14.54,334.8c-2.09,3.37-.93,5.33.11,5.91,3.84,2.12,10.81,4.48,18.56,5.56A94.41,94.41,0,0,0,20.1,375c-1.09,4.11.62,5,1.8,4.85,6.83-1,21.2-6.2,33-14.94a5.07,5.07,0,0,0-.77,4.11c-3.69,12.26-6.12,26.44-4.76,40.36.4,4,2.34,3.41,3.41,2.39a104.26,104.26,0,0,0,8.64-9.7q-.39,1.31-.75,2.64c-1.08,4.11.63,5,1.81,4.85a58.15,58.15,0,0,0,11.61-3.33,61.07,61.07,0,0,0,3.4,10.42c1.16,2.66,2.58,2.06,3.49.94v12.7c-.14,0-.29,0-.43,0-8.93-.92-32.83,3.64-48.53,29-2.09,3.37-.93,5.33.1,5.9,3.85,2.13,10.81,4.49,18.57,5.56a94.71,94.71,0,0,0-11.88,24.51c-12.1,1.8-25,6.59-33.35,17.11-2.08,2.62,0,4.6,1.5,5.3,9.29,4.25,29.86,10.57,46.82,11.36a65.06,65.06,0,0,0-23.48,34c-1,3.58.81,4.73,2.05,4.79,6.45.32,19.26-1.4,30.59-6.07a2.38,2.38,0,0,0,1.9,1.13,51.21,51.21,0,0,0,7.56-.31c-6.2,15.88-11.86,40-6.84,63.88.93,4.44,3.17,3.91,4.32,2.83,6.62-6.17,19-21.92,26.89-38.71A99.52,99.52,0,0,0,98,621.48c.93,4.44,3.17,3.9,4.32,2.83,8.33-7.76,25.76-30.65,31.92-51.73,3.83-13.1,7-25.69,1.95-36.92a12.51,12.51,0,0,1-.45-1.26H903.57c5.29,14.54,15.68,30.29,21.64,37.17,1,1.19,3.31,2.46,5.1-.13,4.89-7.06,6.88-15.25,7.19-23.32,8.87,8.6,18.55,15.93,24.31,19.4,1.37.82,3.85,1.29,4.35-1.92,1.58-10.16-.84-20.49-4.82-29.69.32-1.54.59-3.09.84-4.65a147.22,147.22,0,0,0,18.75,6.53c2.7,3.18,5.13,5.8,7.1,7.7,1.37,1.32,3.86,2.07,4.36-3.07.06-.62.1-1.24.15-1.85,3.36.66,6.31,1.1,8.59,1.31,1.5.14,3.68-.6,2.3-3.9a63.55,63.55,0,0,0-11.08-17.28q-.3-3.18-.75-6.3a99.61,99.61,0,0,0,18.78-3.95c1.31-.46,2.79-2,.13-4.75a73.79,73.79,0,0,0-24.45-16.1q-.79-2.62-1.64-5.14c15.18,11.68,34.14,18.64,43,19.93,1.52.22,3.7-1,2.31-6.25a121.73,121.73,0,0,0-16.77-37c9.92-1.38,18.83-4.42,23.74-7.16,1.32-.73,2.81-3.26.14-7.6-8.93-14.51-19.94-23.72-30.42-29.38-1.24-3.78-2.63-7.43-4.12-10.91,17.31,10.53,38.91,16.8,49.06,18,1.72.2,4.21-.86,2.63-5.63a100.78,100.78,0,0,0-19.11-33.33c11.3-1.25,21.45-4,27-6.46,1.5-.66,3.19-2.94.15-6.85a84.14,84.14,0,0,0-7.62-8.52c1.93-.21,3.92-1.72,2.26-6.24-5.3-14.42-13.91-26.78-23.5-37,13.9-1.39,26.38-4.42,33.27-7.16C1068.38,312.15,1070.46,309.62,1066.72,305.28ZM72.58,490.07c-.55.07-1.09.14-1.64.23.7-.5,1.39-1,2.07-1.52C72.86,489.21,72.72,489.63,72.58,490.07Zm34.94,59.83,1.08-.87c-.74,1.51-1.51,3.17-2.28,5,0-1,0-2.09-.1-3.12C106.66,550.56,107.1,550.23,107.52,549.9Z"/><rect class="cls-2" x="92.14" y="69.07" width="884.52" height="418.15" rx="26.41"/><path class="cls-3" d="M101.72,466.44c-.86-3.68-1.29-5.71-3.68-3.37a39.82,39.82,0,0,1-16.82,9.83c-9.37,2.77-32.15,16-39.76,42.91-1,3.58.81,4.73,2,4.79,9,.44,30.25-3.06,42.71-13,7.75-6.15,14.84-12.38,15.43-23.29a33.51,33.51,0,0,1,1-5.24l4.24-11.41c.58-1.29-1.18-1.58-1.51-3Z"/><path class="cls-2" d="M106.94,463.36c-.76-3.29-3.86-4.59-6-2.5C96.64,465.1,89.88,471,84.24,472.69c-8.34,2.49-29.15,13.45-35.94,37.57-.9,3.21.72,4.24,1.82,4.29,8,.38,26.93-2.77,38-11.63,6.89-5.51,12.5-12.89,13-22.65a5.87,5.87,0,0,1,.49-2.06l4.93-11a6.13,6.13,0,0,0,.35-3.81Z"/><path d="M101.84,468.92c-.42-.15-12.41,8.94-24.16,18.28-10.92,8.67-19.54,17.9-20.6,19.82"/><path class="cls-3" d="M105.74,475.79c-2.67-2.83-4.1-4.42-5.06,0a77.62,77.62,0,0,1-10.13,25c-7,11.28-20.83,45-13.83,78.38.93,4.44,3.17,3.9,4.32,2.83,8.33-7.76,25.75-30.65,31.92-51.73,3.83-13.1,7-25.69,1.94-36.92a41.73,41.73,0,0,1-1.75-6.08l-2-15.06c-.15-1.8-1.89-.47-2.92-1.56Z"/><path class="cls-2" d="M108.87,468c-2.38-2.53-5.85-1-6.7,3-1.71,8.1-4.77,20.06-9,26.86C86.91,507.94,73.76,537.69,80,567.54c.84,4,2.83,3.5,3.85,2.54,7.41-6.91,22.9-27.31,28.36-46.14,3.4-11.69,4.66-24.05.11-34.09a7.73,7.73,0,0,1-.62-2.48L110.52,472a6.8,6.8,0,0,0-1.65-4.05Z"/><path d="M107.12,478.11c-.45.24-6.6,20.1-12.41,40-5.4,18.47-8.44,35.4-8.41,38.24"/><path class="cls-3" d="M103.51,453.4c-.25-3.69-.33-5.7-3.86-4.91-7.16,1.62-15,1.49-23.36-.2-12.41-2.49-44-2.89-59.67,16.82-2.08,2.62,0,4.6,1.5,5.3,11.18,5.11,38.73,13.24,56.63,11.09,11.11-1.33,21.44-3.08,24.64-12.37a18.9,18.9,0,0,1,2.49-4.06l7.9-7.81c1-.83-1.13-2-1.23-3.44Z"/><path class="cls-2" d="M110.77,453.43c-.21-3.29-3.83-6.07-7-5.35-6.38,1.46-16.2,3.1-23.67,1.62-11-2.21-39.68-3.52-53.65,14.13-1.86,2.35-.05,4.11,1.32,4.74,10,4.54,34.48,11.74,50.42,9.78,9.91-1.22,18.62-4.76,21.48-13.07a3.52,3.52,0,0,1,1.09-1.56l8.68-7.12a3.7,3.7,0,0,0,1.3-3.17Z"/><path d="M103.1,455.64c-.49-.35-17.61,1.34-34.49,3.37-15.68,1.88-28.6,5.46-30.37,6.59"/><path class="cls-3" d="M134.21,461.5c-.85-3.68-1.28-5.71-3.67-3.38A40,40,0,0,1,113.72,468c-9.37,2.77-32.15,16-39.77,42.9-1,3.59.81,4.74,2,4.8,9,.44,30.26-3.06,42.72-12.95,7.74-6.15,14.84-12.39,15.42-23.29a33.53,33.53,0,0,1,1.05-5.24l4.24-11.41c.58-1.29-1.19-1.58-1.52-3Z"/><path class="cls-2" d="M139.43,458.41c-.75-3.29-3.86-4.58-6-2.49-4.31,4.24-11.07,10.14-16.7,11.83-8.34,2.49-29.15,13.44-35.95,37.57-.9,3.2.72,4.23,1.82,4.29,8,.38,26.93-2.77,38-11.64,6.9-5.5,12.5-12.88,13-22.64a5.77,5.77,0,0,1,.5-2.07l4.93-11a6.11,6.11,0,0,0,.34-3.81Z"/><path d="M134.33,464c-.42-.15-12.41,8.94-24.16,18.28-10.91,8.67-19.54,17.9-20.6,19.81"/><path class="cls-3" d="M138.23,470.85c-2.66-2.83-4.1-4.42-5,0a77.7,77.7,0,0,1-10.13,25c-7,11.28-20.84,45-13.84,78.39.93,4.44,3.17,3.9,4.32,2.83,8.33-7.76,25.76-30.65,31.92-51.73,3.83-13.1,7-25.69,2-36.92a40.67,40.67,0,0,1-1.76-6.09l-2-15.05c-.14-1.8-1.89-.47-2.92-1.57Z"/><path class="cls-2" d="M141.36,463.05c-2.38-2.53-5.85-1-6.69,3-1.72,8.1-4.78,20.06-9,26.86-6.25,10.06-19.41,39.81-13.13,69.66.84,4,2.84,3.5,3.86,2.54,7.41-6.91,22.9-27.32,28.36-46.14,3.39-11.69,4.65-24.05.11-34.1a7.42,7.42,0,0,1-.62-2.47L143,467.1a6.73,6.73,0,0,0-1.65-4.05Z"/><path d="M139.62,473.17c-.46.24-6.61,20.1-12.42,40-5.39,18.47-8.43,35.4-8.41,38.24"/><path class="cls-3" d="M136,448.46c-.24-3.69-.33-5.7-3.86-4.91-7.15,1.62-15,1.49-23.36-.2-12.41-2.49-44-2.89-59.66,16.82-2.08,2.62,0,4.6,1.5,5.3,11.17,5.11,38.72,13.24,56.62,11.09,11.12-1.33,21.44-3.08,24.64-12.37a19.06,19.06,0,0,1,2.49-4.06l7.9-7.81c1-.83-1.13-2-1.23-3.45Z"/><path class="cls-2" d="M143.26,448.49c-.21-3.29-3.82-6.07-7-5.35-6.38,1.46-16.2,3.1-23.67,1.61-11-2.2-39.67-3.51-53.65,14.14-1.86,2.35,0,4.11,1.32,4.74,9.95,4.54,34.48,11.73,50.43,9.78,9.9-1.22,18.61-4.77,21.48-13.07a3.42,3.42,0,0,1,1.08-1.56l8.69-7.12a3.67,3.67,0,0,0,1.29-3.17Z"/><path d="M135.59,450.7c-.49-.35-17.61,1.34-34.49,3.37-15.67,1.88-28.6,5.46-30.36,6.59"/><path class="cls-3" d="M122.71,216.41c-1.1-3.68-1.66-5.71-4.76-3.37a56.7,56.7,0,0,1-21.82,9.83C84,225.64,54.44,238.82,44.56,265.78c-1.32,3.58,1,4.73,2.66,4.8,11.63.44,39.24-3.07,55.4-13,10-6.15,19.24-12.38,20-23.29a26.2,26.2,0,0,1,1.35-5.24l5.5-11.41c.75-1.29-1.54-1.58-2-3Z"/><path class="cls-2" d="M129.49,213.33a5,5,0,0,0-7.77-2.5c-5.6,4.24-14.36,10.15-21.67,11.83-10.82,2.49-37.81,13.45-46.62,37.57-1.17,3.21.93,4.24,2.36,4.29,10.35.39,34.92-2.77,49.31-11.63C114,247.38,121.31,240,122,230.24a4.73,4.73,0,0,1,.64-2.06l6.4-11a4.84,4.84,0,0,0,.45-3.81Z"/><path d="M122.86,218.89c-.54-.15-16.08,8.94-31.33,18.28-14.15,8.67-25.34,17.9-26.71,19.82"/><path class="cls-3" d="M127.93,225.76c-3.46-2.82-5.32-4.42-6.56.05a68.93,68.93,0,0,1-13.14,25c-9.13,11.28-27,45-17.94,78.38,1.2,4.44,4.11,3.91,5.6,2.83,10.81-7.76,33.4-30.65,41.4-51.73,5-13.09,9.12-25.69,2.52-36.92a33.68,33.68,0,0,1-2.27-6.08l-2.65-15.06c-.18-1.8-2.45-.47-3.79-1.56Z"/><path class="cls-2" d="M132,218a5.41,5.41,0,0,0-8.69,3c-2.22,8.09-6.19,20.05-11.68,26.85-8.11,10.06-25.17,39.82-17,69.67,1.08,4,3.67,3.49,5,2.54,9.61-6.92,29.69-27.32,36.78-46.15,4.4-11.69,6-24.05.14-34.09a6.14,6.14,0,0,1-.8-2.48L134.12,222A6,6,0,0,0,132,218Z"/><path d="M129.72,228.08c-.58.24-8.56,20.1-16.1,40-7,18.47-10.94,35.4-10.9,38.25"/><path class="cls-3" d="M125,203.37c-.32-3.69-.43-5.7-5-4.9a93.52,93.52,0,0,1-30.3-.21c-16.09-2.49-57.08-2.89-77.38,16.82-2.7,2.63-.06,4.6,1.94,5.31,14.5,5.11,50.23,13.23,73.44,11.09,14.42-1.34,27.81-3.09,32-12.38a19.42,19.42,0,0,1,3.23-4.06l10.25-7.81c1.32-.83-1.47-2-1.6-3.44Z"/><path class="cls-2" d="M134.45,203.41c-.27-3.3-5-6.07-9-5.35-8.27,1.45-21,3.1-30.7,1.61-14.33-2.2-51.46-3.52-69.58,14.13-2.41,2.35-.07,4.11,1.71,4.74,12.91,4.54,44.72,11.74,65.4,9.78,12.85-1.22,24.14-4.76,27.86-13.07a3.62,3.62,0,0,1,1.41-1.56l11.26-7.12a3.33,3.33,0,0,0,1.68-3.16Z"/><path d="M124.5,205.61c-.63-.35-22.84,1.34-44.73,3.37-20.33,1.88-37.09,5.46-39.38,6.59"/><path class="cls-3" d="M136.2,130.55c-1.11-3.68-1.67-5.71-4.76-3.37A56.76,56.76,0,0,1,109.62,137c-12.15,2.77-41.7,16-51.58,42.91-1.31,3.58,1.06,4.74,2.66,4.8,11.64.44,39.24-3.07,55.41-13,10-6.14,19.24-12.38,20-23.29a26.22,26.22,0,0,1,1.36-5.24l5.5-11.41c.75-1.29-1.54-1.58-2-3Z"/><path class="cls-2" d="M143,127.47a5,5,0,0,0-7.77-2.5c-5.59,4.24-14.35,10.15-21.67,11.83-10.81,2.49-37.8,13.45-46.61,37.57-1.17,3.21.93,4.24,2.36,4.29,10.35.39,34.92-2.77,49.31-11.63,8.94-5.51,16.21-12.89,16.9-22.65a4.73,4.73,0,0,1,.64-2.06l6.39-11a4.8,4.8,0,0,0,.45-3.81Z"/><path d="M136.35,133c-.54-.14-16.09,8.94-31.33,18.28C90.87,160,79.68,169.21,78.3,171.13"/><path class="cls-3" d="M141.42,139.9c-3.46-2.82-5.32-4.42-6.56,0a68.93,68.93,0,0,1-13.14,25c-9.13,11.28-27,45-18,78.39,1.21,4.44,4.12,3.9,5.61,2.82,10.8-7.76,33.4-30.64,41.4-51.73,5-13.09,9.11-25.69,2.52-36.91a34.06,34.06,0,0,1-2.27-6.09l-2.65-15.06c-.19-1.8-2.45-.47-3.79-1.56Z"/><path class="cls-2" d="M145.48,132.11a5.42,5.42,0,0,0-8.69,3c-2.22,8.09-6.19,20.05-11.68,26.85-8.11,10.07-25.17,39.82-17,69.67,1.09,4,3.68,3.49,5,2.54,9.61-6.92,29.7-27.32,36.78-46.14,4.4-11.7,6-24.06.15-34.1a6.31,6.31,0,0,1-.81-2.48l-1.59-15.32a6.06,6.06,0,0,0-2.13-4Z"/><path d="M143.21,142.22c-.59.24-8.57,20.1-16.1,40-7,18.46-10.94,35.39-10.91,38.24"/><path class="cls-3" d="M138.52,117.51c-.32-3.69-.42-5.7-5-4.9a93.79,93.79,0,0,1-30.3-.2c-16.09-2.5-57.09-2.89-77.38,16.81-2.7,2.63-.06,4.6,1.94,5.31,14.5,5.11,50.23,13.23,73.44,11.09,14.42-1.33,27.81-3.09,32-12.37a18.61,18.61,0,0,1,3.23-4.07l10.25-7.8c1.32-.84-1.47-2-1.6-3.45Z"/><path class="cls-2" d="M147.94,117.55c-.28-3.3-5-6.07-9-5.35-8.27,1.46-21,3.1-30.7,1.61-14.33-2.2-51.46-3.52-69.59,14.14-2.41,2.34-.06,4.1,1.72,4.73,12.9,4.54,44.71,11.74,65.4,9.78,12.84-1.21,24.14-4.76,27.86-13.07a3.6,3.6,0,0,1,1.4-1.56l11.27-7.11a3.35,3.35,0,0,0,1.68-3.17Z"/><path d="M138,119.75c-.64-.34-22.84,1.34-44.74,3.37-20.32,1.89-37.09,5.46-39.37,6.59"/><path class="cls-3" d="M110.29,92.61c-.61-3.84-.92-6-2.65-3.52A28.74,28.74,0,0,1,95.51,99.36c-6.76,2.9-23.19,16.67-28.68,44.84-.73,3.75.58,5,1.48,5,6.47.46,21.82-3.2,30.81-13.54,5.58-6.42,10.7-12.94,11.12-24.34a49.69,49.69,0,0,1,.76-5.47l3.06-11.93c.41-1.35-.86-1.65-1.1-3.14Z"/><path class="cls-2" d="M114.06,89.39c-.55-3.44-2.79-4.79-4.32-2.61-3.11,4.43-8,10.6-12,12.36-6,2.6-21,14.06-25.93,39.27-.65,3.35.52,4.42,1.32,4.48,5.75.4,19.42-2.9,27.42-12.16a37.52,37.52,0,0,0,9.4-23.66,8.71,8.71,0,0,1,.35-2.16l3.56-11.54a9.14,9.14,0,0,0,.25-4Z"/><path d="M110.38,95.2c-.3-.15-8.95,9.35-17.43,19.11C85.08,123.37,78.86,133,78.09,135"/><path class="cls-3" d="M113.2,102.38c-1.93-2.95-3-4.62-3.65.05a104.36,104.36,0,0,1-7.31,26.14c-5.08,11.79-15,47-10,81.92.67,4.64,2.29,4.08,3.12,3,6-8.12,18.57-32,23-54.07,2.76-13.68,5.07-26.85,1.4-38.58a56.79,56.79,0,0,1-1.26-6.36L117.07,98.7c-.11-1.87-1.36-.48-2.11-1.63Z"/><path class="cls-2" d="M115.45,94.24c-1.71-2.65-4.22-1-4.83,3.16-1.24,8.46-3.44,21-6.49,28.07-4.51,10.52-14,41.61-9.47,72.8.6,4.15,2,3.66,2.78,2.66,5.34-7.23,16.51-28.55,20.45-48.22,2.45-12.22,3.36-25.14.08-35.64a11,11,0,0,1-.44-2.58l-.89-16a8.81,8.81,0,0,0-1.19-4.23Z"/><path d="M114.19,104.81c-.32.25-4.76,21-9,41.79-3.89,19.3-6.09,37-6.07,40"/><path class="cls-3" d="M111.59,79c-.18-3.85-.24-6-2.79-5.12C103.64,75.54,98,75.41,92,73.65c-9-2.61-31.75-3-43,17.57A4.05,4.05,0,0,0,50,96.77c8.06,5.34,27.93,13.83,40.84,11.59,8-1.4,15.47-3.23,17.77-12.93a23,23,0,0,1,1.8-4.25l5.7-8.16c.73-.87-.82-2.11-.89-3.6Z"/><path class="cls-2" d="M116.82,79c-.15-3.44-2.76-6.34-5-5.59-4.6,1.52-11.68,3.24-17.07,1.68-8-2.3-28.62-3.67-38.7,14.78a3.63,3.63,0,0,0,1,5c7.17,4.74,24.86,12.26,36.37,10.22,7.14-1.27,13.42-5,15.49-13.66a3.87,3.87,0,0,1,.78-1.63l6.27-7.44a4.85,4.85,0,0,0,.93-3.31Z"/><path d="M111.29,81.33c-.36-.37-12.7,1.39-24.88,3.52-11.31,2-20.63,5.71-21.9,6.89"/><path class="cls-3" d="M932.46,134.73c-4.53-1.58-7.05-2.39-2.78-5.89a91.09,91.09,0,0,0,21.19-25.15c8.18-14.21,36.69-48.27,76.45-58,5.29-1.3,6,1.59,5.46,3.5-3.68,13.82-18.51,46.29-37.7,64.73-11.92,11.46-23.67,21.91-38.56,22a46.5,46.5,0,0,0-7.53,1.22l-17.31,5.7c-2,.79-1.56-1.94-3.31-2.55Z"/><path class="cls-2" d="M925.84,142.53c-4.05-1.4-4.31-6.27-.5-9.39,7.74-6.32,18.87-16.28,23.81-24.83,7.31-12.64,31.9-43.83,67.48-52.53,4.73-1.16,5.34,1.41,4.88,3.11-3.28,12.29-16.52,41.19-33.69,57.6-10.66,10.2-23.23,18.28-36.56,18.39a8.41,8.41,0,0,0-3,.61l-17.15,6.78a7.66,7.66,0,0,1-5.27.26Z"/><path d="M935.72,135.09c0-.66,17.9-18.43,36-35.82C988.55,83.12,1005,70.53,1008.1,69"/><path class="cls-3" d="M929,140c-5.3.37-8.21.64-5.68-3.81a67.5,67.5,0,0,0,8.74-28.43c1.15-14.66,12.79-53.1,47.65-75.79,4.64-3,6.74-.91,7.18.85,3.15,12.68,4.37,44.76-5.68,67-6.25,13.8-12.8,26.7-27.61,32.3a51.28,51.28,0,0,0-6.91,3.78L932.25,147c-1.61,1.39-2.5-1-4.56-.87Z"/><path class="cls-2" d="M926.28,148.87c-4.74.34-7.4-3.55-5.13-7.51,4.6-8.05,10.79-20.32,11.51-29.15,1.05-13,10.2-47.7,41.4-68,4.15-2.7,6-.82,6.41.74,2.8,11.29,3.84,39.86-5.19,59.65-5.61,12.29-14.16,23.56-27.41,28.57a9.21,9.21,0,0,0-2.7,1.61l-13.76,11.9a9.08,9.08,0,0,1-5.13,2.16Z"/><path d="M932.47,139.11c-.32-.53,8.76-21.7,18.25-42.65,8.82-19.44,19-35.85,21.38-38.21"/><path class="cls-3" d="M937.05,141.5c-2.48-3.55-3.9-5.46,1.41-7a104.41,104.41,0,0,0,31-15c14.64-10.16,56.48-30.54,92.35-22.3,4.78,1.09,3.57,4.2,2,5.83-11,11.79-41.56,36.72-67,46.08-15.84,5.82-30.94,10.74-42.27,4.21a33,33,0,0,0-6.42-2.16L931.64,149c-2-.12,0-2.57-1-3.95Z"/><path class="cls-2" d="M927.4,146.13c-2.23-3.17.48-8,5.22-9.34,9.62-2.7,24-7.41,32.78-13.51,13.06-9,50.22-28.37,82.3-21,4.27,1,3.2,3.75,1.85,5.2-9.81,10.48-37,32.65-59.78,41-14.13,5.15-28.44,7.4-38.59,1.56a6.1,6.1,0,0,0-2.63-.74l-17-1.06a5.35,5.35,0,0,1-4.14-2.1Z"/><path d="M939.31,143.31c.39-.64,24.5-9.93,48.55-18.75,22.33-8.19,42.29-13.08,45.5-13.16"/><path class="cls-3" d="M938.14,147.71c-.56-4.39-.93-6.78,4.24-6.56,10.49.45,21.48-1.28,32.89-5,16.89-5.45,61.36-12.31,88.26,7.74,3.58,2.66,1.19,5.4-.81,6.54-14.51,8.28-51.37,23.43-77.14,24.52-16,.68-31,.71-37.77-9.58a24.77,24.77,0,0,0-4.51-4.28l-13.06-7.6c-1.64-.77,1.11-2.6.89-4.31Z"/><path class="cls-2" d="M927.91,149.22c-.51-3.93,3.91-7.92,8.52-7.71,9.35.43,23.6.37,33.77-2.89,15-4.83,55.09-12.17,79.12,5.79,3.2,2.39,1.08,4.83-.7,5.85-12.92,7.36-45.74,20.8-68.71,21.72-14.26.57-27.42-1.84-33.49-11a4.66,4.66,0,0,0-1.91-1.61l-14-6.63a4.44,4.44,0,0,1-2.6-3.47Z"/><path d="M939.27,150.27c.61-.51,25.16-2,49.46-3,22.57-.95,41.67.65,44.43,1.62"/><path class="cls-3" d="M912.47,104.25c-4.53-1.58-7.05-2.39-2.78-5.89a91,91,0,0,0,21.19-25.15c8.18-14.2,36.69-48.26,76.45-58,5.29-1.29,6,1.59,5.46,3.5-3.68,13.82-18.51,46.29-37.7,64.73-11.92,11.46-23.67,21.92-38.56,22a45.46,45.46,0,0,0-7.53,1.23l-17.31,5.69c-2,.8-1.56-1.94-3.31-2.55Z"/><path class="cls-2" d="M905.85,112.06c-4.05-1.41-4.31-6.28-.5-9.39,7.74-6.33,18.87-16.29,23.81-24.83C936.47,65.2,961.06,34,996.64,25.3c4.73-1.16,5.34,1.41,4.88,3.11C998.24,40.71,985,69.6,967.83,86c-10.66,10.19-23.23,18.28-36.56,18.39a8.4,8.4,0,0,0-3,.6l-17.15,6.79a7.72,7.72,0,0,1-5.27.26Z"/><path d="M915.73,104.61c0-.65,17.9-18.42,36-35.82,16.82-16.14,33.3-28.74,36.37-30.23"/><path class="cls-3" d="M909,109.55c-5.3.38-8.21.65-5.68-3.8a67.54,67.54,0,0,0,8.74-28.43c1.15-14.67,12.79-53.11,47.65-75.8,4.64-3,6.74-.9,7.18.85,3.14,12.68,4.37,44.77-5.68,67-6.25,13.79-12.8,26.7-27.61,32.3a50.19,50.19,0,0,0-6.91,3.78l-14.47,11.06c-1.61,1.4-2.5-1-4.56-.86Z"/><path class="cls-2" d="M906.29,118.39c-4.74.35-7.4-3.55-5.13-7.51,4.6-8,10.79-20.31,11.51-29.14,1.05-13.06,10.2-47.71,41.4-68,4.15-2.7,6-.81,6.41.74,2.8,11.29,3.84,39.86-5.19,59.65-5.61,12.3-14.16,23.56-27.41,28.58a9,9,0,0,0-2.7,1.61l-13.76,11.89a9,9,0,0,1-5.13,2.16Z"/><path d="M912.48,108.64c-.32-.54,8.76-21.71,18.25-42.65,8.82-19.45,19-35.86,21.38-38.21"/><path class="cls-3" d="M917.06,111c-2.48-3.56-3.9-5.46,1.41-7a103.93,103.93,0,0,0,31-15c14.64-10.16,56.48-30.54,92.35-22.3,4.78,1.1,3.57,4.2,2,5.83-11,11.79-41.56,36.72-67,46.08-15.84,5.82-30.94,10.75-42.27,4.22a32.33,32.33,0,0,0-6.42-2.17l-16.48-2.18c-2-.12,0-2.58-1-4Z"/><path class="cls-2" d="M907.41,115.66c-2.23-3.17.48-8,5.22-9.35,9.61-2.69,24-7.4,32.78-13.5,13.06-9,50.22-28.37,82.3-21,4.27,1,3.2,3.75,1.85,5.2-9.81,10.49-37,32.65-59.78,40.95-14.13,5.15-28.44,7.41-38.59,1.57a6,6,0,0,0-2.63-.75l-17-1a5.35,5.35,0,0,1-4.14-2.1Z"/><path d="M919.32,112.83c.39-.63,24.5-9.92,48.55-18.75,22.33-8.19,42.29-13.08,45.5-13.16"/><path class="cls-3" d="M918.15,117.23c-.56-4.39-.93-6.78,4.24-6.55,10.49.45,21.48-1.28,32.89-5,16.89-5.45,61.36-12.31,88.26,7.74,3.58,2.67,1.19,5.4-.81,6.55-14.51,8.28-51.37,23.42-77.14,24.52-16,.68-31,.7-37.77-9.59a25.11,25.11,0,0,0-4.51-4.28l-13.06-7.6c-1.64-.77,1.11-2.6.89-4.31Z"/><path class="cls-2" d="M907.92,118.74c-.51-3.92,3.91-7.92,8.52-7.71,9.35.43,23.6.38,33.77-2.89,15-4.83,55.09-12.17,79.12,5.8,3.2,2.38,1.08,4.82-.7,5.84-12.92,7.36-45.74,20.8-68.71,21.72-14.27.58-27.42-1.84-33.49-11a4.6,4.6,0,0,0-1.91-1.62l-14-6.63a4.43,4.43,0,0,1-2.6-3.47Z"/><path d="M919.28,119.79c.61-.51,25.16-2,49.46-3,22.57-1,41.67.65,44.43,1.62"/><path class="cls-3" d="M939.11,438.21c.89-3.1,1.33-4.81,4.34-2.4A67.25,67.25,0,0,0,964.36,447c11.54,3.87,39.86,18.93,50.27,43.76,1.38,3.3-.8,4-2.31,3.9-10.91-1-37-7.33-52.62-17.93-9.69-6.58-18.6-13.14-19.77-22.81a24.49,24.49,0,0,0-1.49-4.76l-5.64-10.66c-.76-1.23,1.38-1.21,1.73-2.41Z"/><path class="cls-2" d="M932.61,434.7c.79-2.77,4.52-3.43,7.2-1.27,5.44,4.39,13.92,10.61,20.86,12.95,10.28,3.46,36.1,16.27,45.38,38.49,1.24,3-.7,3.61-2,3.49-9.72-.89-32.94-6.56-46.84-16.05-8.63-5.89-15.77-13.23-16.82-21.87a4.71,4.71,0,0,0-.69-1.89l-6.47-10.45a4.33,4.33,0,0,1-.58-3.4Z"/><path d="M939.07,440.37c.5-.06,15.49,9.75,30.21,19.75,13.67,9.29,24.57,18.71,25.94,20.56"/><path class="cls-3" d="M934.77,436.52c-.67-3.4-1.09-5.26,2.52-4.07a59.25,59.25,0,0,0,22.55,2.8c11.38-.74,41.86,2.93,61.87,23.26,2.66,2.71,1.18,4.29-.13,4.75-9.55,3.33-34.19,7.37-52,3.09-11.08-2.66-21.51-5.61-26.89-14.66a32.46,32.46,0,0,0-3.42-4.1l-9.57-8.27c-1.2-.91.59-1.73.33-3.05Z"/><path class="cls-2" d="M927.76,435.63c-.61-3,2.2-5.16,5.42-4.09,6.53,2.17,16.44,4.95,23.29,4.52,10.14-.64,37.51,1.8,55.4,20,2.37,2.42,1.06,3.83-.11,4.23-8.5,3-30.44,6.53-46.35,2.67-9.88-2.4-19.19-6.81-24-14.9a5.59,5.59,0,0,0-1.44-1.59l-10.16-7.74a5.31,5.31,0,0,1-2-3.11Z"/><path d="M935.73,438.66c.39-.26,17.36,3.49,34.19,7.54,15.63,3.75,29,8.73,31,10"/><path class="cls-3" d="M934.22,441.88c2.56-2,3.92-3.09,5.47.21a62.46,62.46,0,0,0,13.79,18.61c8.89,8.48,27.63,33.58,23.88,57.71-.5,3.21-3,2.74-4.35,1.92-9.88-6-31.31-23.27-40.37-38.87-5.63-9.7-10.52-19-6.31-27a19.27,19.27,0,0,0,1.2-4.39l.49-10.92c0-1.31,2-.28,3-1Z"/><path class="cls-2" d="M930,436.08c2.28-1.76,6.21-.5,7.58,2.45,2.77,6,7.44,14.8,12.79,19.92,7.9,7.56,25.5,29.73,22.11,51.31-.45,2.87-2.66,2.46-3.87,1.72-8.79-5.3-27.85-20.73-35.89-34.66-5-8.66-7.77-17.72-4-24.9a3.5,3.5,0,0,0,.38-1.79L928.63,439a3.45,3.45,0,0,1,1.32-2.9Z"/><path d="M933,443.53c.52.19,9.42,14.9,18,29.63,7.93,13.67,13.14,26.13,13.44,28.21"/><path class="cls-3" d="M929.51,443.21c3.35-.8,5.16-1.29,5.36,2.09a52,52,0,0,0,6.21,20.86c5.43,10.41,13.94,38.59.43,58.09-1.79,2.59-4.08,1.32-5.1.13-7.44-8.58-21.78-31-24.49-47.6-1.68-10.32-2.79-20,4.65-25.5a17.85,17.85,0,0,0,3-3.36l4.92-9.24c.47-1.15,2.08.45,3.38.14Z"/><path class="cls-2" d="M927.61,436.73a5.54,5.54,0,0,1,6.56,4.75c.35,6.11,1.42,15.36,4.67,21.63,4.81,9.28,13.37,34.54,1.27,52-1.61,2.32-3.65,1.19-4.56.13-6.61-7.64-19.34-27.59-21.72-42.41-1.47-9.2-.56-18,6.09-22.86a3.33,3.33,0,0,0,1.11-1.41l4.09-9.75a3.53,3.53,0,0,1,2.49-2Z"/><path d="M927.62,444.21c.44.34,3.36,16.13,5.91,31.81,2.37,14.55,2.52,27.12,2,29"/><path class="cls-3" d="M965.23,366.65c.89-5,1.34-7.72,4.35-3.85a65.94,65.94,0,0,0,21,18c11.58,6.21,40,30.36,50.41,70.17,1.39,5.29-.79,6.46-2.31,6.25-11-1.59-37.12-11.76-52.77-28.74-9.72-10.56-18.66-21.08-19.83-36.57a60.87,60.87,0,0,0-1.49-7.63l-5.66-17.11c-.77-2,1.38-1.93,1.73-3.86Z"/><path class="cls-2" d="M958.72,361c.79-4.44,4.53-5.5,7.22-2,5.45,7,14,17,20.92,20.75,10.3,5.56,36.2,26.1,45.51,61.72,1.24,4.73-.7,5.78-2,5.59-9.74-1.42-33-10.52-47-25.73-8.66-9.44-15.82-21.21-16.87-35.07a10.85,10.85,0,0,0-.69-3l-6.49-16.75a10.37,10.37,0,0,1-.58-5.45Z"/><path d="M965.19,370.11c.5-.1,15.54,15.63,30.3,31.67,13.71,14.89,24.64,30,26,33"/><path class="cls-3" d="M960.89,363.94c-.68-5.45-1.1-8.44,2.52-6.53A38.88,38.88,0,0,0,986,361.89c11.41-1.18,42,4.7,62,37.31,2.67,4.34,1.18,6.87-.14,7.6-9.57,5.34-34.29,11.82-52.18,5-11.11-4.26-21.57-9-27-23.5a50.27,50.27,0,0,0-3.43-6.57l-9.6-13.27c-1.19-1.45.6-2.77.34-4.89Z"/><path class="cls-2" d="M953.85,362.51c-.61-4.87,2.21-8.27,5.44-6.56,6.55,3.49,16.48,7.94,23.36,7.25,10.17-1,37.61,2.88,55.55,32.07,2.39,3.89,1.07,6.14-.11,6.8-8.52,4.74-30.53,10.46-46.48,4.27-9.91-3.84-19.24-10.91-24.08-23.89a9,9,0,0,0-1.44-2.55l-10.2-12.4a10,10,0,0,1-2-5Z"/><path d="M961.84,367.37c.39-.42,17.42,5.6,34.3,12.09,15.67,6,29.1,14,31.09,16"/><path class="cls-3" d="M960.33,372.53c2.56-3.16,3.93-4.95,5.48.34a111,111,0,0,0,13.84,29.83c8.91,13.59,27.71,53.84,23.94,92.53-.5,5.14-3,4.39-4.36,3.07-9.91-9.55-31.4-37.3-40.49-62.32-5.64-15.54-10.55-30.46-6.33-43.32a45,45,0,0,0,1.21-7l.49-17.51c-.05-2.1,2-.45,3-1.67Z"/><path class="cls-2" d="M956.05,363.24c2.29-2.83,6.23-.81,7.6,3.91,2.78,9.58,7.46,23.74,12.82,31.94,7.93,12.12,25.58,47.67,22.18,82.27-.45,4.6-2.66,3.94-3.88,2.76-8.82-8.5-27.93-33.24-36-55.57-5-13.88-7.8-28.42-4-39.93a8.69,8.69,0,0,0,.39-2.86l-.42-17.87a7.16,7.16,0,0,1,1.32-4.65Z"/><path d="M959.1,375.18c.51.3,9.45,23.89,18,47.49,8,21.92,13.19,41.9,13.48,45.23"/><path class="cls-3" d="M955.61,374.67c3.35-1.29,5.17-2.07,5.38,3.35a123,123,0,0,0,6.22,33.44c5.44,16.69,14,61.87.43,93.13-1.8,4.15-4.09,2.11-5.12.21C955.07,491,940.68,455.13,938,428.49c-1.68-16.55-2.79-32.15,4.67-40.88a29.35,29.35,0,0,0,3-5.39l4.93-14.83c.47-1.83,2.09.73,3.39.23Z"/><path class="cls-2" d="M953.7,364.27c3-1.17,6.41,2.78,6.58,7.61.35,9.81,1.42,24.64,4.69,34.69,4.82,14.87,13.4,55.37,1.26,83.31-1.61,3.71-3.65,1.9-4.57.21-6.62-12.25-19.4-44.24-21.78-68-1.48-14.75-.57-28.84,6.11-36.65a5.77,5.77,0,0,0,1.11-2.26l4.1-15.64a4.52,4.52,0,0,1,2.5-3.27Z"/><path d="M953.71,376.26c.44.55,3.37,25.87,5.93,51,2.37,23.34,2.52,43.48,2,46.52"/><path class="cls-3" d="M978.92,295.27c1-4.48,1.52-7,5-3.47a73.56,73.56,0,0,0,23.9,16.2c13.19,5.59,45.56,27.36,57.45,63.24,1.58,4.77-.91,5.83-2.63,5.63-12.48-1.43-42.31-10.59-60.14-25.9-11.08-9.51-21.26-19-22.59-33a43.51,43.51,0,0,0-1.71-6.88l-6.45-15.41c-.86-1.77,1.58-1.74,2-3.48Z"/><path class="cls-2" d="M971.5,290.2c.9-4,5.17-5,8.23-1.84,6.21,6.33,15.9,15.32,23.84,18.7,11.74,5,41.25,23.52,51.86,55.62,1.41,4.27-.8,5.22-2.34,5-11.1-1.28-37.64-9.48-53.52-23.18-9.87-8.51-18-19.12-19.23-31.61a8,8,0,0,0-.78-2.73l-7.39-15.1a7.51,7.51,0,0,1-.67-4.9Z"/><path d="M978.88,298.38c.57-.09,17.71,14.09,34.52,28.55,15.62,13.41,28.08,27,29.64,29.7"/><path class="cls-3" d="M974,292.83c-.77-4.92-1.25-7.61,2.88-5.89a54.46,54.46,0,0,0,25.77,4c13-1.07,47.83,4.23,70.7,33.62,3,3.91,1.35,6.19-.15,6.85-10.91,4.81-39.07,10.66-59.46,4.47-12.66-3.84-24.57-8.1-30.73-21.18a45.18,45.18,0,0,0-3.9-5.92l-11-12c-1.36-1.3.69-2.5.39-4.4Z"/><path class="cls-2" d="M966,291.53c-.7-4.39,2.51-7.45,6.19-5.91,7.46,3.14,18.78,7.16,26.62,6.54,11.59-.92,42.86,2.59,63.3,28.9,2.72,3.5,1.22,5.54-.12,6.13-9.72,4.27-34.79,9.42-53,3.85-11.29-3.46-21.93-9.84-27.44-21.54a7.72,7.72,0,0,0-1.64-2.29L968.28,296a8.09,8.09,0,0,1-2.32-4.5Z"/><path d="M975.06,295.92c.45-.38,19.85,5,39.08,10.89,17.86,5.42,33.15,12.62,35.42,14.46"/><path class="cls-3" d="M973.34,300.57c2.92-2.85,4.48-4.46,6.24.3a92.26,92.26,0,0,0,15.77,26.89c10.16,12.25,31.57,48.52,27.28,83.38-.57,4.64-3.4,4-5,2.77-11.3-8.6-35.79-33.61-46.14-56.16-6.43-14-12-27.45-7.21-39a32.93,32.93,0,0,0,1.37-6.34l.56-15.78c0-1.89,2.27-.4,3.41-1.51Z"/><path class="cls-2" d="M968.46,292.19c2.61-2.55,7.1-.73,8.66,3.53,3.17,8.63,8.51,21.4,14.61,28.78,9,10.93,29.14,43,25.28,74.15-.52,4.14-3,3.54-4.43,2.49-10.05-7.67-31.82-30-41-50.09-5.71-12.51-8.88-25.61-4.58-36a6.23,6.23,0,0,0,.44-2.58L967,296.38a5.57,5.57,0,0,1,1.51-4.19Z"/><path d="M971.93,303c.59.27,10.77,21.53,20.53,42.81,9.07,19.75,15,37.76,15.36,40.76"/><path class="cls-3" d="M968,302.49c3.82-1.16,5.89-1.86,6.13,3a90.09,90.09,0,0,0,7.09,30.14c6.2,15,15.92,55.76.49,83.93-2,3.75-4.66,1.91-5.83.2-8.5-12.41-24.89-44.77-28-68.78-1.92-14.92-3.18-29,5.32-36.85a25.85,25.85,0,0,0,3.4-4.85l5.61-13.36c.54-1.66,2.38.65,3.87.2Z"/><path class="cls-2" d="M965.78,293.12c3.42-1.05,7.3,2.5,7.5,6.86.4,8.84,1.62,22.2,5.34,31.26,5.5,13.41,15.28,49.91,1.45,75.08-1.84,3.35-4.17,1.72-5.21.19-7.55-11-22.11-39.86-24.82-61.28-1.69-13.3-.65-26,7-33a5,5,0,0,0,1.26-2l4.68-14.1a4.42,4.42,0,0,1,2.84-2.95Z"/><path d="M965.8,303.93c.5.49,3.83,23.31,6.75,46,2.7,21,2.87,39.19,2.25,41.92"/><path class="cls-3" d="M961.79,225.54c1.26-5,1.88-7.72,6.11-3.84a91.4,91.4,0,0,0,29.4,18c16.22,6.21,56,30.36,70.66,70.17,1.94,5.29-1.12,6.47-3.24,6.25-15.35-1.59-52-11.76-74-28.74-13.63-10.56-26.15-21.08-27.8-36.57a43.82,43.82,0,0,0-2.09-7.63l-7.93-17.1c-1.07-2,1.94-1.94,2.43-3.86Z"/><path class="cls-2" d="M952.67,219.92c1.11-4.45,6.35-5.51,10.12-2,7.64,7,19.56,17,29.32,20.75,14.44,5.56,50.75,26.1,63.8,61.72,1.73,4.74-1,5.79-2.88,5.59-13.66-1.42-46.31-10.52-65.84-25.72C975.06,270.77,965,259,963.54,245.14a8.25,8.25,0,0,0-1-3l-9.1-16.75a7.66,7.66,0,0,1-.81-5.44Z"/><path d="M961.74,229c.71-.1,21.78,15.64,42.47,31.67,19.21,14.89,34.53,30,36.46,33"/><path class="cls-3" d="M955.7,222.83c-.94-5.45-1.53-8.43,3.55-6.52a73.56,73.56,0,0,0,31.69,4.48c16-1.19,58.84,4.69,87,37.3,3.74,4.34,1.66,6.87-.2,7.61-13.42,5.33-48,11.81-73.13,4.95-15.58-4.26-30.23-9-37.81-23.5a48.5,48.5,0,0,0-4.8-6.57l-13.46-13.26c-1.67-1.45.84-2.78.48-4.9Z"/><path class="cls-2" d="M945.85,221.4c-.86-4.87,3.09-8.27,7.61-6.55,9.18,3.48,23.11,7.94,32.75,7.24,14.25-1,52.72,2.88,77.87,32.08,3.34,3.88,1.49,6.14-.16,6.79-11.94,4.74-42.79,10.46-65.15,4.28-13.89-3.85-27-10.92-33.76-23.9a8.6,8.6,0,0,0-2-2.55l-14.29-12.4a8.64,8.64,0,0,1-2.86-5Z"/><path d="M957.05,226.26c.54-.41,24.41,5.6,48.07,12.09,22,6,40.78,14,43.57,16.05"/><path class="cls-3" d="M954.92,231.43c3.6-3.16,5.52-5,7.69.33A100.56,100.56,0,0,0,982,261.6c12.49,13.59,38.84,53.83,33.56,92.52-.7,5.14-4.19,4.39-6.11,3.07-13.89-9.55-44-37.3-56.75-62.31-7.91-15.55-14.79-30.47-8.87-43.33a34.19,34.19,0,0,0,1.69-7l.69-17.51c-.07-2.1,2.79-.44,4.19-1.67Z"/><path class="cls-2" d="M948.92,222.13c3.21-2.83,8.73-.81,10.66,3.91,3.9,9.58,10.46,23.75,18,31.94,11.11,12.12,35.85,47.68,31.09,82.27-.63,4.6-3.74,3.94-5.44,2.76-12.36-8.5-39.15-33.24-50.45-55.57-7-13.88-10.92-28.41-5.63-39.92a6.48,6.48,0,0,0,.54-2.87l-.59-17.87a5.87,5.87,0,0,1,1.85-4.65Z"/><path d="M953.2,234.07c.72.3,13.24,23.89,25.25,47.5,11.15,21.91,18.48,41.9,18.89,45.23"/><path class="cls-3" d="M948.31,233.56c4.7-1.29,7.25-2.07,7.53,3.35.58,11,3.58,22.16,8.73,33.44,7.63,16.69,19.59,61.87.61,93.13-2.53,4.15-5.74,2.12-7.18.22-10.45-13.77-30.61-49.68-34.42-76.32-2.37-16.55-3.92-32.15,6.54-40.88a28.58,28.58,0,0,0,4.18-5.39l6.9-14.82c.67-1.84,2.93.73,4.76.22Z"/><path class="cls-2" d="M945.63,223.16c4.2-1.16,9,2.78,9.22,7.62.49,9.8,2,24.63,6.57,34.68,6.77,14.88,18.8,55.37,1.78,83.31-2.26,3.71-5.12,1.9-6.4.21-9.3-12.25-27.2-44.24-30.54-68-2.07-14.76-.79-28.84,8.56-36.66a5.29,5.29,0,0,0,1.56-2.25l5.75-15.65a5.18,5.18,0,0,1,3.5-3.27Z"/><path d="M945.65,235.16c.62.54,4.72,25.86,8.3,51,3.33,23.33,3.54,43.48,2.77,46.51"/><path class="cls-3" d="M108,386.75c-.7-3.86-1-6-3.4-3a51.55,51.55,0,0,1-16.41,14c-9,4.82-31.26,23.58-39.43,54.49-1.08,4.12.63,5,1.81,4.86,8.56-1.24,29-9.13,41.28-22.32,7.6-8.2,14.59-16.37,15.5-28.4a47.45,47.45,0,0,1,1.17-5.93l4.43-13.28c.6-1.52-1.08-1.5-1.36-3Z"/><path class="cls-2" d="M113.07,382.38c-.62-3.45-3.55-4.27-5.65-1.58-4.27,5.46-10.92,13.2-16.37,16.12-8,4.31-28.31,20.26-35.59,47.92-1,3.68.55,4.5,1.6,4.34,7.62-1.1,25.84-8.17,36.74-20,6.77-7.33,12.37-16.47,13.2-27.24a7.88,7.88,0,0,1,.54-2.35l5.07-13a8,8,0,0,0,.46-4.23Z"/><path d="M108,389.44c-.39-.08-12.15,12.14-23.7,24.59C73.59,425.59,65,437.33,64,439.62"/><path class="cls-3" d="M111.37,384.65c.53-4.24.86-6.56-2-5.07a30.59,30.59,0,0,1-17.68,3.48c-8.93-.92-32.83,3.64-48.53,29-2.09,3.37-.93,5.33.1,5.9,7.49,4.15,26.82,9.18,40.81,3.85,8.7-3.31,16.87-7,21.1-18.25a38.43,38.43,0,0,1,2.68-5.1l7.51-10.3c.93-1.13-.47-2.16-.27-3.8Z"/><path class="cls-2" d="M116.87,383.53c.48-3.78-1.72-6.42-4.25-5.09-5.12,2.71-12.89,6.17-18.27,5.63-7.95-.79-29.42,2.24-43.45,24.91-1.87,3-.84,4.77.09,5.28,6.66,3.68,23.87,8.12,36.35,3.31,7.75-3,15-8.47,18.84-18.55a6.8,6.8,0,0,1,1.12-2l8-9.63a7.61,7.61,0,0,0,1.6-3.88Z"/><path d="M110.62,387.31c-.3-.32-13.62,4.35-26.82,9.38C71.54,401.37,61,407.57,59.48,409.16"/><path class="cls-3" d="M111.81,391.32c-2-2.45-3.08-3.84-4.29.26A86.22,86.22,0,0,1,96.7,414.75C89.73,425.3,75,456.56,78,486.6c.39,4,2.34,3.41,3.41,2.39,7.75-7.42,24.56-29,31.67-48.4,4.41-12.07,8.25-23.65,5-33.64a35.14,35.14,0,0,1-1-5.46l-.38-13.6c0-1.63-1.56-.34-2.34-1.3Z"/><path class="cls-2" d="M115.15,384.1c-1.79-2.2-4.87-.63-5.94,3-2.18,7.43-5.84,18.44-10,24.8-6.2,9.41-20,37-17.35,63.89.35,3.57,2.09,3.06,3,2.15,6.9-6.61,21.84-25.82,28.15-43.16,3.92-10.78,6.09-22.07,3.14-31a6.56,6.56,0,0,1-.3-2.22l.33-13.88a5.56,5.56,0,0,0-1-3.61Z"/><path d="M112.77,393.37c-.41.24-7.39,18.55-14.09,36.89-6.22,17-10.31,32.54-10.54,35.12"/><path class="cls-3" d="M115.5,393c-2.63-1-4-1.61-4.21,2.6a94.5,94.5,0,0,1-4.87,26c-4.25,13-10.93,48.05-.33,72.32,1.4,3.23,3.19,1.64,4,.17,5.83-10.69,17.08-38.58,19.21-59.27,1.32-12.85,2.18-25-3.65-31.74a22.53,22.53,0,0,1-2.33-4.19l-3.86-11.51c-.37-1.43-1.63.56-2.65.18Z"/><path class="cls-2" d="M117,384.9c-2.34-.9-5,2.16-5.14,5.91-.28,7.62-1.12,19.13-3.67,26.94-3.77,11.55-10.49,43-1,64.69,1.26,2.89,2.85,1.48,3.57.17,5.19-9.51,15.18-34.35,17-52.8,1.15-11.46.44-22.4-4.78-28.47a4.43,4.43,0,0,1-.87-1.75l-3.21-12.15a3.52,3.52,0,0,0-2-2.54Z"/><path d="M117,394.22c-.34.42-2.63,20.09-4.63,39.6-1.86,18.12-2,33.77-1.55,36.12"/><path class="cls-3" d="M90.54,262.33c-.7-3.85-1.05-6-3.41-3a51.54,51.54,0,0,1-16.4,14c-9.06,4.82-31.27,23.57-39.43,54.49-1.09,4.11.62,5,1.8,4.85,8.57-1.23,29-9.13,41.28-22.32C82,302.14,89,294,89.89,281.93A45.56,45.56,0,0,1,91.06,276l4.42-13.28c.6-1.53-1.08-1.51-1.35-3Z"/><path class="cls-2" d="M95.63,258c-.62-3.46-3.55-4.28-5.65-1.59-4.26,5.46-10.91,13.21-16.36,16.12-8.06,4.31-28.32,20.26-35.6,47.93-1,3.68.55,4.49,1.61,4.34,7.62-1.1,25.84-8.17,36.74-20,6.77-7.33,12.37-16.47,13.19-27.23a8.27,8.27,0,0,1,.54-2.36l5.07-13a7.91,7.91,0,0,0,.46-4.22Z"/><path d="M90.57,265c-.4-.08-12.16,12.14-23.7,24.59-10.72,11.57-19.27,23.3-20.35,25.6"/><path class="cls-3" d="M93.94,260.23c.52-4.23.85-6.55-2-5.07a30.6,30.6,0,0,1-17.69,3.48c-8.93-.92-32.83,3.65-48.53,29-2.09,3.37-.93,5.33.11,5.91,7.49,4.14,26.81,9.17,40.81,3.85,8.69-3.31,16.87-7,21.09-18.25A41.08,41.08,0,0,1,90.43,274l7.51-10.3c.94-1.12-.47-2.15-.26-3.8Z"/><path class="cls-2" d="M99.44,259.12c.47-3.79-1.73-6.43-4.25-5.09-5.13,2.7-12.9,6.16-18.28,5.63-8-.8-29.42,2.23-43.44,24.9-1.87,3-.84,4.77.08,5.28,6.67,3.68,23.88,8.12,36.36,3.32,7.75-3,15-8.48,18.83-18.56a7,7,0,0,1,1.13-2l8-9.62a7.79,7.79,0,0,0,1.6-3.88Z"/><path d="M93.19,262.89c-.31-.32-13.62,4.35-26.83,9.39C54.11,277,43.61,283.15,42.05,284.74"/><path class="cls-3" d="M94.37,266.9c-2-2.45-3.08-3.84-4.29.26a85.48,85.48,0,0,1-10.82,23.17c-7,10.56-21.67,41.81-18.73,71.85.4,4,2.34,3.41,3.41,2.39,7.76-7.41,24.56-29,31.67-48.39,4.42-12.07,8.25-23.66,5-33.65a35.14,35.14,0,0,1-.94-5.46l-.39-13.6c0-1.62-1.55-.34-2.33-1.29Z"/><path class="cls-2" d="M97.72,259.68c-1.79-2.2-4.87-.62-6,3-2.17,7.44-5.83,18.44-10,24.81-6.19,9.41-20,37-17.34,63.88.35,3.58,2.08,3.06,3,2.15,6.9-6.6,21.85-25.81,28.16-43.16,3.91-10.77,6.09-22.06,3.14-31a6.63,6.63,0,0,1-.31-2.22l.33-13.88a5.58,5.58,0,0,0-1-3.62Z"/><path d="M95.33,269c-.4.23-7.39,18.55-14.09,36.88C75,322.86,70.93,338.38,70.7,341"/><path class="cls-3" d="M98.06,268.56c-2.62-1-4-1.6-4.2,2.6a95.18,95.18,0,0,1-4.87,26c-4.26,13-10.93,48.05-.34,72.32,1.41,3.23,3.2,1.65,4,.17,5.83-10.69,17.07-38.58,19.2-59.26,1.32-12.85,2.19-25-3.65-31.75a23.64,23.64,0,0,1-2.33-4.18L102,262.91c-.37-1.42-1.64.57-2.66.18Z"/><path class="cls-2" d="M99.56,260.49c-2.35-.91-5,2.15-5.15,5.91-.27,7.61-1.12,19.13-3.67,26.94-3.77,11.55-10.48,43-1,64.69,1.26,2.88,2.86,1.48,3.58.16,5.18-9.51,15.17-34.35,17-52.8,1.16-11.46.45-22.4-4.77-28.47a4.3,4.3,0,0,1-.87-1.75L101.51,263a3.52,3.52,0,0,0-2-2.54Z"/><path d="M99.54,269.8c-.34.43-2.63,20.09-4.63,39.61-1.85,18.12-2,33.76-1.54,36.12"/><path class="cls-3" d="M131.07,292.05c-.7-3.86-1-6-3.4-3a51.67,51.67,0,0,1-16.41,14c-9.05,4.82-31.26,23.57-39.43,54.49-1.08,4.11.63,5,1.81,4.85,8.56-1.23,29-9.13,41.28-22.32,7.6-8.19,14.59-16.37,15.5-28.4a47.3,47.3,0,0,1,1.17-5.92L136,292.44c.6-1.53-1.08-1.5-1.35-3Z"/><path class="cls-2" d="M136.17,287.68c-.62-3.45-3.55-4.28-5.65-1.59-4.27,5.46-10.92,13.21-16.37,16.12-8.05,4.32-28.31,20.27-35.59,47.93-1,3.68.55,4.49,1.6,4.34,7.62-1.1,25.84-8.17,36.74-20,6.77-7.33,12.37-16.47,13.2-27.23a8,8,0,0,1,.54-2.36l5.07-13a8.06,8.06,0,0,0,.46-4.23Z"/><path d="M131.1,294.73c-.39-.08-12.15,12.14-23.7,24.6-10.71,11.56-19.26,23.29-20.34,25.59"/><path class="cls-3" d="M134.47,289.94c.53-4.23.86-6.55-2-5.07a30.59,30.59,0,0,1-17.68,3.48c-8.93-.92-32.83,3.65-48.53,29-2.09,3.37-.93,5.34.1,5.91,7.49,4.14,26.82,9.18,40.81,3.85,8.7-3.31,16.87-7,21.1-18.25a39,39,0,0,1,2.68-5.1l7.51-10.31c.93-1.12-.47-2.15-.27-3.8Z"/><path class="cls-2" d="M140,288.83c.48-3.79-1.72-6.42-4.25-5.09-5.12,2.7-12.89,6.17-18.27,5.63-8-.8-29.42,2.23-43.45,24.9-1.87,3-.84,4.77.09,5.28,6.66,3.68,23.87,8.12,36.35,3.32,7.75-3,15-8.48,18.84-18.56a6.75,6.75,0,0,1,1.12-2l8-9.63a7.61,7.61,0,0,0,1.6-3.88Z"/><path d="M133.72,292.61c-.3-.33-13.62,4.34-26.82,9.38-12.26,4.67-22.76,10.88-24.32,12.46"/><path class="cls-3" d="M134.91,296.61c-2-2.45-3.08-3.84-4.29.27A86.16,86.16,0,0,1,119.8,320c-7,10.56-21.67,41.81-18.73,71.85.39,4,2.34,3.42,3.41,2.39,7.75-7.41,24.56-29,31.67-48.39,4.41-12.07,8.25-23.66,4.95-33.64a35.35,35.35,0,0,1-.95-5.46l-.38-13.61c0-1.62-1.56-.34-2.34-1.29Z"/><path class="cls-2" d="M138.25,289.4c-1.79-2.2-4.87-.63-5.94,3-2.18,7.43-5.84,18.43-10,24.8-6.2,9.41-20,37-17.35,63.89.35,3.57,2.09,3.05,3,2.14,6.9-6.6,21.84-25.81,28.15-43.16,3.92-10.77,6.09-22.06,3.14-31a6.63,6.63,0,0,1-.3-2.22l.33-13.88a5.54,5.54,0,0,0-1-3.61Z"/><path d="M135.87,298.67c-.4.23-7.39,18.55-14.09,36.88-6.22,17-10.31,32.54-10.54,35.13"/><path class="cls-3" d="M138.6,298.27c-2.63-1-4-1.6-4.21,2.61a94.43,94.43,0,0,1-4.87,26c-4.25,13-10.93,48.05-.33,72.32,1.4,3.23,3.2,1.65,4,.17,5.83-10.68,17.08-38.57,19.21-59.26,1.32-12.85,2.18-25-3.65-31.75a22.12,22.12,0,0,1-2.33-4.18l-3.85-11.52c-.38-1.42-1.64.57-2.66.18Z"/><path class="cls-2" d="M140.09,290.2c-2.34-.91-5,2.16-5.14,5.91-.28,7.61-1.12,19.13-3.67,26.94-3.77,11.55-10.49,43-1,64.69,1.26,2.89,2.85,1.48,3.57.17,5.19-9.52,15.18-34.36,17-52.81,1.15-11.46.44-22.4-4.78-28.47a4.45,4.45,0,0,1-.87-1.74L142,292.74a3.52,3.52,0,0,0-1.95-2.54Z"/><path d="M140.08,299.51c-.34.43-2.63,20.09-4.63,39.61-1.86,18.12-2,33.76-1.55,36.12"/><path class="cls-3" d="M945,172.89c.12-5.11.14-7.93,2.8-5,5.4,6,11.26,9.8,17.51,11.7,9.25,2.82,32.94,18.48,45,54.53,1.61,4.79.12,6.55-1,6.77-8.29,1.53-28.79-1.06-42.24-13.29-8.36-7.6-16.13-15.39-18.7-30.23a64.68,64.68,0,0,0-1.94-7.06l-6.07-15.15c-.78-1.71.82-2.29.86-4.27Z"/><path class="cls-2" d="M939.56,169.22c.1-4.58,2.76-6.67,5.13-4,4.81,5.35,12.2,12.72,17.77,14.43,8.24,2.54,29.67,15.37,40.47,47.63,1.44,4.29.12,5.87-.9,6.05-7.37,1.36-25.63-1-37.61-12a51.11,51.11,0,0,1-16.35-29.6,11.54,11.54,0,0,0-.84-2.78l-6.64-14.57a12.13,12.13,0,0,1-1-5.17Z"/><path d="M945.35,176.29c.36-.24,13.23,10.94,25.92,22.49,11.78,10.72,21.53,22.44,22.88,24.95"/><path class="cls-3" d="M941.49,171.47c-1.1-5.15-1.74-8,1.15-7.11a22.29,22.29,0,0,0,17.24-2c8.33-4.37,31.61-7.22,50,19.06,2.45,3.5,1.63,6.4.73,7.49-6.5,7.92-24.09,21.23-38.1,19.55-8.7-1-17-2.74-22.55-15.42a43.19,43.19,0,0,0-3.26-5.47l-8.57-10.29c-1-1.09.14-2.89-.28-4.89Z"/><path class="cls-2" d="M936.12,172c-1-4.6.73-8.72,3.31-7.95,5.23,1.57,13.08,3.14,18.09.52,7.42-3.86,28.18-7.77,44.67,15.77,2.19,3.13,1.46,5.71.66,6.69-5.79,7-21.47,18.83-34,17.27-7.76-1-15.45-5.27-20.45-16.62a7.32,7.32,0,0,0-1.35-2.09l-8.91-9.27a9.09,9.09,0,0,1-2.06-4.32Z"/><path d="M942.57,174.55c.24-.52,13.51.58,26.73,2.18,12.26,1.48,23.08,5.52,24.78,7"/><path class="cls-3" d="M942,180c1.55-3.82,2.37-6,4.09-1.22a97.47,97.47,0,0,0,13.52,25.32c8.09,10.81,26.43,44.93,27.88,83.88.19,5.18-1.73,5.14-2.89,4.23-8.39-6.56-27.35-27.68-36.82-49.63-5.89-13.63-11.16-26.86-9.44-40.64a62,62,0,0,0,.12-7.23l-1.55-17.29c-.27-2,1.42-1,2-2.47Z"/><path class="cls-2" d="M937.83,172.14c1.38-3.42,4.52-2.55,6.06,1.69,3.11,8.59,8.13,21.15,13,27.67,7.2,9.64,24.17,39.49,25.45,74.33.17,4.63-1.54,4.6-2.57,3.79-7.46-5.84-24.33-24.69-32.75-44.29-5.24-12.18-8.89-25.63-7.35-38a11.84,11.84,0,0,0,0-2.91l-2.27-17.39a10,10,0,0,1,.47-4.92Z"/><path d="M941.39,183c.42.15,9.62,20.74,18.56,41.45,8.29,19.22,14.35,37.32,14.94,40.5"/><path class="cls-3" d="M938.75,183.46c2.35-2.21,3.61-3.49,4.35,1.76a136.14,136.14,0,0,0,8.28,31c5.86,14.82,17.14,56.66,10.53,91.09-.88,4.57-2.8,3.22-3.77,1.65-7-11.38-21.62-42.5-26.55-67.83-3.07-15.73-5.6-30.7-1-41.35a43.24,43.24,0,0,0,1.62-6.11l2-15.91c.15-1.93,1.63.13,2.54-.73Z"/><path class="cls-2" d="M936.2,173.81c2.09-2,5,.92,5.71,5.6,1.33,9.51,3.75,23.73,7.27,32.66,5.21,13.2,16,50.45,10.08,81.23-.79,4.09-2.5,2.89-3.37,1.49-6.25-10.13-19.22-37.86-23.58-60.46-2.72-14-3.59-28.08.5-37.62a8.34,8.34,0,0,0,.58-2.52l1.32-16.48a6.13,6.13,0,0,1,1.49-3.9Z"/><path d="M937.53,185.55c.38.42,5.32,24.39,10,48.28,4.32,22.19,6.64,41.87,6.57,45"/><path d="M195.68,26.34c-12.31-11.51-7.53-8.11-15.49-10.22-.93-.25-6-.56-8.7,1.5-33,25.46-32.25,41.68-31.75,81.71,0,3.24-1.81,4,3.25,2.8,31.91-7.43,7.17-4.28,34.3-4.44,4.28,0,4.13-1.11,4.09-3.35-.45-28.33-1.59-35.59,13-59C195.59,33.46,197.6,28.14,195.68,26.34Z"/><path d="M242.65,53.26c-.47-2.29-.21-5.9-6.73-10.73-.76-.56-17.71-5.51-20.67-4.27-33.12,13.91-32.15,21.79-46,53.35-1.12,2.55-3.07,2.4,2,3.49,31.8,6.89,25.91,6.18,27,6.66,3.92,1.69,5.11,1.34,5.88-.43C213.86,79,216.32,75.24,238,62.73,239.79,61.72,243.25,56.25,242.65,53.26Z"/><path d="M283.19,87.32c.38-2.31,1.9-5.62-2.51-12.35-.52-.79-14.66-11.17-17.88-11-36,1.83-37.87,9.55-62,34.48-2,2-3.73,1.2.61,3.93,27.39,17.24,22.12,14.58,23,15.42,3.07,2.91,4.32,3,5.67,1.58,17-17.7,20.64-20.35,45.43-24.74C277.52,94.28,282.7,90.33,283.19,87.32Z"/><path d="M234.47,135.72a8.47,8.47,0,0,0,6.21,5.29c20.87,4.34,27.83,12.67,44.16,29.29,1.41,1.43,7.3,6.07,10.14,4.8,2.16-1,5.42-3.7,7.37-11.47,1.22-4.91-.12-15.95-2.24-20.86C286,110,288.75,117.08,258.17,107.48c-9.76-3.06-29.15,8.83-29.07,13.88Z"/><path d="M228,151.06c0,2.88,1.76,6.3,4.62,9,20.82,20,25.05,32,36.09,57.84,1,2.23,5.48,10.52,9.05,11.79,2.73,1,7.34,1.45,12.53-3,3.28-2.83,6.22-12.46,5.88-18-2.26-36.66-2.07-29-31.32-60.74-9.33-10.13-35-16.33-37-12.35Z"/><path d="M219.73,174.48c-.37,2.65.78,5.79,3,8.3,16.53,18.3,18.82,29.32,25.54,53.07.58,2.05,3.65,9.66,6.76,10.82,2.39.89,6.57,1.32,11.95-2.8,3.4-2.61,7.39-11.45,7.81-16.51,2.8-33.65,1.95-26.6-20.76-55.74-7.24-9.29-30.08-15-32.38-11.3Z"/><path d="M95.62,37.47C94.78,40,91.37,50,93.11,52.29,105.82,69.05,115,76.91,117.23,99c.19,1.91,1.79,9,4.6,10,2.15.77,6.13,1.08,12.11-2.9,3.77-2.52,9.25-10.89,10.58-15.62,8.85-31.57,6.74-24.94-10-51.7-5.33-8.53-23.53-9.42-31.29-8.39Z"/><path d="M52.15,76.88c.61,2.52,3.06,12.72,5.77,13.8,19.75,7.88,31.77,10,45.41,27.57,1.18,1.52,6.29,6.7,9.23,6.16,2.24-.41,5.8-2.12,8.76-8.47,1.87-4,2.08-13.82.69-18.49C112.72,66.3,114.45,73,85.94,58.62c-9.08-4.58-25,3.71-31.11,8.44Z"/><path d="M28.07,122.84c1.7,2.31,8.53,11.66,11.51,11.52,21.72-1,33.72-4.45,54.18,7.34,1.77,1,4.5-.5,7-2.41,1.88-1.46,6-2.94,5.89-10.82-.08-5-.37-13.92-5-16.79C68.65,91.36,80.65,97.06,48,95.49c-10.42-.49-18.39,8.37-21.85,16Z"/><path d="M12.87,167.58c2.48,1.35,12.46,6.82,15.35,5.51,21.05-9.49,31.7-17.23,56-15,2.1.19,4.27-2.22,6-4.86,1.35-2,4.91-4.95,2-11.79-1.81-4.33-5.2-12-10.77-12.69C42,124,55.77,124.24,23,135.8c-10.45,3.69-15.24,14.59-16,22.65Z"/><path d="M30.26,219.52c1.82,1.17,14.86,1.51,16.41,0,5.53-5.37,6.81-5.85,8.37-7.67C70,194.51,80.26,186.4,104,178.92c2.05-.65,2.88-3.79,3.22-7,.25-2.45,2.13-6.64-3.92-12-3.84-3.4-10.8-9.38-16.33-7.81-39.22,11.11-31.45,3.51-56.29,27.44-6.23,6-11,13.64-9.46,21,.71,3.33,6.13,17.11,9.05,19Z"/><path d="M56.09,257.93c1.8.51,13-3.26,14-5.12,3.63-6.68,4.63-7.52,5.6-9.68,9.25-20.63,16.4-31.31,35.17-45.61,1.63-1.24,1.7-4.39,1.33-7.45-.28-2.34.48-6.78-5.79-9.84-4-1.94-11.14-5.26-15.55-2.09C59.61,200.62,64.71,191.19,48.33,221c-4.11,7.47-6.66,16-3.83,22.31,1.29,2.85,8.72,13.84,11.59,14.64Z"/><path d="M90.4,295.17c2.27.15,14.52-6.71,15.2-9.05,2.46-8.4,3.41-9.58,4-12.25,5.23-25.48,10.74-39.22,29-59.74,1.58-1.78.78-5.36-.49-8.74-1-2.58-1.32-7.78-9.59-9.79-5.24-1.27-14.65-3.37-19,1.24C78.67,229.52,82.1,217.67,71,255.17c-2.79,9.4-3.45,19.63,1.66,26.12,2.31,2.93,14.15,13.64,17.78,13.88Z"/><path d="M143.45,313.74c2.24-.35,10.45-5,10.6-7.7.53-9.72,1.19-11.23,1.13-14.27-.55-29,1.75-45.25,14.95-71.82,1.14-2.3-.42-6-2.41-9.42-1.52-2.6-3-8.19-11.48-8.49-5.36-.19-15-.33-18.17,5.69-22.69,42.71-22,29-24.5,72.46-.64,10.9,1,22.22,7.38,28.12,2.9,2.67,4.84,8.53,8.42,8Z"/><path d="M249.11,269.36c-2.86,6.58-5.83,11.1-14.35,7.63-2-.82-3.95-3-6.41-5.68-24.75-27.17-25.29-51.62-27.44-87.63-.21-3.58,1.34-3,3-4.29,7.22-5.69,3.16.74,20.61,8.55,16.11,7.2,24.34,33.32,25.07,35.8,7.36,24.92,1.16,3.78,5.28,29.81C255.29,256.13,251.54,263.75,249.11,269.36Z"/><path d="M222,301c-4.24,5-8.14,8.26-15.63,3.75-1.78-1.06-3.17-3.25-4.95-6-17.93-27.5-13-48.19-7-78.92.6-3.05,2-2.24,3.9-3.05,8.28-3.45,2.89,1.21,18.08,11,14,9.08,16.15,32.61,16.3,34.83,1.56,22.37.28,3.41-1.56,26.09C230.92,291,225.57,296.68,222,301Z"/><path d="M187.22,317.29c1.92-.54,9.86-11.87,9.69-14.67-.6-10-.19-11.58-.57-14.68-3.64-29.62-3.39-46.42,5.24-74.65.75-2.44-1-6.13-3.13-9.45-1.61-2.53-3.51-8.14-10.95-7.78-4.7.24-18.57,4.74-20.71,11.16-15.17,45.47-10.57,27.49-8,72.16.63,11.2,3.28,22.65,9.51,28.18,2.81,2.5,15.9,10.59,19,9.73Z"/><path class="cls-4" d="M192.86,32.2c-11.79-11.05-7.21-7.78-14.84-9.81-.89-.24-5.78-.54-8.33,1.44-31.56,24.45-30.89,40-30.41,78.48,0,3.11-1.73,3.82,3.11,2.69,30.57-7.14,6.86-4.11,32.85-4.27,4.1,0,4-1.06,3.92-3.22-.43-27.21-1.52-34.18,12.48-56.65C192.77,39,194.7,33.94,192.86,32.2Z"/><path class="cls-4" d="M237.84,58.06c-.44-2.19-.2-5.67-6.44-10.31-.73-.54-17-5.29-19.8-4.1-31.72,13.36-30.79,20.93-44,51.24-1.07,2.46-2.94,2.31,1.89,3.35,30.46,6.62,24.82,5.94,25.9,6.41,3.75,1.62,4.89,1.28,5.63-.42,9.29-21.49,11.65-25.06,32.44-37.07C235.1,66.18,238.42,60.93,237.84,58.06Z"/><path class="cls-4" d="M276.68,90.77c.36-2.21,1.81-5.39-2.41-11.86-.49-.76-14-10.73-17.12-10.57-34.48,1.76-36.28,9.17-59.4,33.11-1.87,1.94-3.57,1.16.58,3.78,26.24,16.56,21.19,14,22,14.81,2.95,2.8,4.14,2.87,5.43,1.52,16.31-17,19.78-19.55,43.52-23.76C271.24,97.46,276.21,93.66,276.68,90.77Z"/><path class="cls-4" d="M230,137.26a8.1,8.1,0,0,0,6,5.08c20,4.17,26.66,12.17,42.29,28.13,1.36,1.38,7,5.83,9.72,4.62,2.07-.93,5.2-3.56,7.06-11,1.17-4.72-.11-15.32-2.14-20-13.54-31.46-10.89-24.68-40.18-33.89-9.34-2.94-27.92,8.48-27.84,13.32Z"/><path class="cls-4" d="M223.82,152c0,2.77,1.68,6.06,4.42,8.69,19.95,19.17,24,30.7,34.56,55.55.92,2.15,5.26,10.11,8.67,11.33,2.62.93,7,1.39,12-2.92,3.15-2.73,6-12,5.64-17.26-2.17-35.2-2-27.82-30-58.33-8.94-9.73-33.55-15.69-35.39-11.87Z"/><path class="cls-4" d="M215.89,174.49a10.36,10.36,0,0,0,2.92,8c15.83,17.58,18,28.17,24.46,51,.55,2,3.49,9.28,6.48,10.4,2.28.85,6.29,1.27,11.44-2.7,3.25-2.5,7.07-11,7.48-15.85,2.68-32.32,1.86-25.54-19.89-53.53-6.93-8.93-28.8-14.37-31-10.86Z"/><path class="cls-4" d="M97,42.89c-.81,2.39-4.07,12-2.4,14.24,12.17,16.1,21,23.65,23.1,44.85.18,1.83,1.71,8.6,4.4,9.58,2.06.74,5.88,1,11.6-2.79,3.62-2.42,8.87-10.45,10.14-15,8.47-30.32,6.45-24-9.58-49.65-5.11-8.2-22.54-9-30-8.07Z"/><path class="cls-4" d="M55.38,80.74C56,83.17,58.31,93,60.91,94c18.91,7.57,30.43,9.57,43.49,26.48,1.13,1.47,6,6.44,8.84,5.92,2.15-.39,5.56-2,8.39-8.13,1.8-3.86,2-13.28.66-17.77-8.9-29.91-7.23-23.51-34.54-37.29-8.7-4.4-24,3.57-29.8,8.1Z"/><path class="cls-4" d="M32.32,124.89c1.63,2.22,8.17,11.2,11,11.07,20.79-1,32.29-4.28,51.89,7,1.69,1,4.31-.48,6.66-2.31,1.8-1.41,5.76-2.82,5.64-10.39-.07-4.79-.35-13.37-4.8-16.13-31.55-19.52-20.06-14-51.36-15.54-10-.48-17.62,8-20.93,15.38Z"/><path class="cls-4" d="M17.76,167.86c2.37,1.3,11.94,6.55,14.7,5.3,20.17-9.12,30.37-16.55,53.61-14.43,2,.19,4.09-2.13,5.78-4.66,1.29-1.94,4.7-4.75,2-11.32-1.73-4.16-5-11.55-10.32-12.19-37.87-4.55-24.64-4.32-56,6.78-10,3.54-14.59,14-15.31,21.75Z"/><path class="cls-4" d="M34.41,217.75c1.75,1.12,14.24,1.45,15.72,0,5.3-5.16,6.53-5.62,8-7.36,14.31-16.66,24.16-24.45,46.89-31.64,2-.62,2.75-3.64,3.08-6.72.24-2.36,2-6.38-3.76-11.55-3.67-3.27-10.34-9-15.64-7.5-37.57,10.67-30.12,3.36-53.91,26.36-6,5.76-10.56,13.09-9.06,20.19.67,3.2,5.87,16.43,8.66,18.22Z"/><path class="cls-4" d="M59.16,254.65c1.72.48,12.47-3.14,13.44-4.93,3.48-6.41,4.44-7.22,5.37-9.29,8.86-19.82,15.7-30.08,33.69-43.81,1.55-1.19,1.62-4.22,1.27-7.16-.27-2.24.46-6.51-5.55-9.45-3.8-1.86-10.67-5-14.89-2-30,21.59-25.08,12.53-40.77,41.15-3.93,7.18-6.38,15.37-3.66,21.43,1.23,2.74,8.34,13.29,11.1,14.07Z"/><path class="cls-4" d="M92,290.41c2.17.14,13.9-6.44,14.56-8.7,2.35-8.06,3.26-9.2,3.79-11.76,5-24.47,10.28-37.66,27.79-57.38,1.51-1.71.75-5.15-.48-8.39-.93-2.48-1.26-7.48-9.18-9.4-5-1.22-14-3.24-18.2,1.18-29.51,31.39-26.23,20-36.9,56-2.68,9-3.3,18.86,1.59,25.08,2.21,2.82,13.56,13.1,17,13.34Z"/><path class="cls-4" d="M142.83,308.25c2.15-.34,10-4.79,10.15-7.4.51-9.34,1.14-10.79,1.09-13.7-.53-27.86,1.67-43.46,14.31-69,1.1-2.21-.4-5.79-2.31-9-1.45-2.49-2.87-7.87-11-8.15-5.14-.18-14.34-.32-17.4,5.47-21.74,41-21.06,27.84-23.47,69.59-.61,10.47,1,21.34,7.07,27,2.77,2.57,4.64,8.2,8.06,7.66Z"/><path class="cls-4" d="M244,265.62c-2.73,6.32-5.57,10.66-13.74,7.33-1.93-.79-3.79-2.87-6.14-5.46-23.71-26.1-24.22-49.58-26.28-84.16-.21-3.44,1.28-2.85,2.89-4.12,6.92-5.47,3,.71,19.74,8.2,15.43,6.92,23.31,32,24,34.39,7.05,23.94,1.12,3.64,5.06,28.63C250,252.91,246.36,260.23,244,265.62Z"/><path class="cls-4" d="M218,296c-4.06,4.81-7.79,7.94-15,3.61-1.7-1-3-3.13-4.74-5.75-17.17-26.41-12.42-46.29-6.69-75.8.57-2.93,1.88-2.16,3.73-2.93,7.94-3.32,2.78,1.16,17.32,10.6,13.44,8.71,15.47,31.31,15.62,33.45,1.49,21.48.27,3.27-1.5,25.06C226.62,286.36,221.48,291.86,218,296Z"/><path class="cls-4" d="M184.76,311.66c1.83-.52,9.43-11.41,9.27-14.09-.57-9.59-.17-11.13-.54-14.1-3.48-28.46-3.25-44.59,5-71.71.71-2.34-1-5.88-3-9.07-1.54-2.43-3.36-7.82-10.48-7.47-4.51.22-17.79,4.55-19.84,10.71-14.53,43.68-10.13,26.41-7.71,69.31.61,10.76,3.15,21.76,9.11,27.07,2.7,2.41,15.23,10.17,18.17,9.35Z"/><path class="cls-5" d="M192.64,37.36c-11.24-10.69-6.87-7.54-14.15-9.5-.85-.23-5.52-.52-8,1.4-30.12,23.65-29.48,38.72-29,75.9,0,3-1.65,3.7,3,2.61,29.18-6.91,6.55-4,31.35-4.13,3.92,0,3.78-1,3.75-3.11-.41-26.32-1.46-33.06,11.9-54.8C192.56,44,194.41,39,192.64,37.36Z"/><path class="cls-5" d="M235.58,62.37c-.43-2.13-.19-5.49-6.15-10-.7-.53-16.19-5.12-18.89-4-30.28,12.92-29.39,20.25-42,49.56-1,2.37-2.81,2.23,1.79,3.24,29.07,6.4,23.69,5.75,24.72,6.2,3.59,1.57,4.67,1.24,5.38-.41,8.87-20.78,11.12-24.24,31-35.86C233,70.22,236.13,65.15,235.58,62.37Z"/><path class="cls-5" d="M272.64,94c.35-2.13,1.74-5.21-2.3-11.47-.47-.73-13.4-10.37-16.34-10.22-32.9,1.7-34.62,8.87-56.69,32-1.78,1.87-3.41,1.12.56,3.65,25,16,20.22,13.55,21,14.32,2.82,2.71,3.95,2.78,5.19,1.47,15.56-16.44,18.87-18.91,41.53-23C267.46,100.47,272.2,96.8,272.64,94Z"/><path class="cls-5" d="M228.11,139a7.77,7.77,0,0,0,5.67,4.92c19.07,4,25.44,11.76,40.36,27.2,1.3,1.34,6.68,5.65,9.27,4.47,2-.9,5-3.44,6.74-10.66,1.12-4.56-.1-14.81-2-19.38-12.92-30.43-10.39-23.87-38.34-32.78-8.92-2.84-26.65,8.2-26.58,12.89Z"/><path class="cls-5" d="M222.19,153.22c0,2.68,1.61,5.86,4.22,8.4,19,18.54,22.9,29.69,33,53.73.87,2.08,5,9.78,8.28,11,2.49.9,6.7,1.34,11.45-2.82,3-2.64,5.68-11.58,5.37-16.69-2.06-34.05-1.89-26.92-28.63-56.43-8.52-9.41-32-15.17-33.77-11.48Z"/><path class="cls-5" d="M214.63,175a10.09,10.09,0,0,0,2.78,7.71c15.11,17,17.2,27.24,23.34,49.3.54,1.91,3.34,9,6.19,10.06,2.18.82,6,1.22,10.92-2.61,3.1-2.42,6.75-10.64,7.13-15.33,2.56-31.27,1.79-24.71-19-51.78-6.62-8.63-27.49-13.9-29.6-10.5Z"/><path class="cls-5" d="M101.18,47.7c-.77,2.31-3.89,11.63-2.29,13.77,11.62,15.56,20,22.87,22,43.37.17,1.78,1.63,8.32,4.2,9.27,2,.72,5.61,1,11.06-2.69,3.46-2.34,8.47-10.11,9.68-14.52,8.09-29.32,6.16-23.16-9.14-48-4.88-7.93-21.51-8.75-28.61-7.8Z"/><path class="cls-5" d="M61.44,84.31c.56,2.34,2.8,11.82,5.27,12.82,18.06,7.32,29.05,9.25,41.52,25.61,1.07,1.42,5.75,6.23,8.43,5.73,2.06-.38,5.31-2,8-7.87,1.71-3.73,1.9-12.84.63-17.19-8.49-28.93-6.91-22.74-33-36.07C84,63.09,69.44,70.8,63.89,75.19Z"/><path class="cls-5" d="M39.43,127c1.55,2.15,7.8,10.83,10.53,10.7,19.84-1,30.82-4.14,49.52,6.81,1.62.95,4.11-.46,6.36-2.23,1.72-1.36,5.5-2.73,5.38-10-.07-4.64-.33-12.94-4.58-15.6-30.11-18.88-19.14-13.58-49-15-9.52-.46-16.81,7.77-20,14.89Z"/><path class="cls-5" d="M25.54,168.57c2.26,1.25,11.39,6.33,14,5.12,19.24-8.81,29-16,51.17-13.95,1.91.18,3.89-2.06,5.5-4.51,1.24-1.88,4.5-4.6,1.88-10.95-1.66-4-4.75-11.17-9.85-11.79-36.15-4.4-23.52-4.18-53.47,6.56-9.56,3.42-13.93,13.55-14.62,21Z"/><path class="cls-5" d="M41.43,216.83c1.67,1.08,13.59,1.39,15,0,5.06-5,6.23-5.44,7.66-7.13,13.65-16.11,23-23.65,44.74-30.6,1.88-.6,2.63-3.52,2.94-6.5.24-2.28,2-6.17-3.58-11.17-3.51-3.16-9.87-8.71-14.93-7.26-35.85,10.33-28.74,3.26-51.45,25.5-5.69,5.57-10.08,12.66-8.65,19.53.65,3.1,5.6,15.89,8.27,17.63Z"/><path class="cls-5" d="M65.05,252.51c1.64.47,11.9-3,12.83-4.76,3.32-6.21,4.23-7,5.12-9,8.46-19.17,15-29.09,32.15-42.37,1.49-1.15,1.55-4.08,1.21-6.93-.25-2.17.44-6.3-5.29-9.14-3.63-1.8-10.18-4.89-14.21-1.94C68.26,199.26,72.92,190.5,58,218.18c-3.76,6.94-6.09,14.86-3.5,20.72,1.18,2.65,8,12.86,10.6,13.61Z"/><path class="cls-5" d="M96.41,287.1c2.07.14,13.27-6.23,13.9-8.41,2.24-7.8,3.11-8.9,3.61-11.38,4.79-23.67,9.82-36.43,26.52-55.5,1.44-1.65.72-5-.45-8.11-.9-2.4-1.2-7.23-8.77-9.1-4.78-1.18-13.39-3.13-17.36,1.15-28.17,30.36-25,19.35-35.22,54.19-2.56,8.73-3.16,18.24,1.51,24.26,2.11,2.73,12.94,12.67,16.26,12.9Z"/><path class="cls-5" d="M144.9,304.35c2-.32,9.56-4.62,9.69-7.15.48-9,1.09-10.43,1-13.25-.5-26.95,1.6-42,13.67-66.73,1-2.14-.39-5.6-2.21-8.75-1.39-2.41-2.74-7.61-10.49-7.89-4.9-.17-13.68-.3-16.61,5.29-20.74,39.68-20.09,26.93-22.4,67.32-.57,10.12.91,20.64,6.76,26.12,2.64,2.48,4.42,7.93,7.69,7.4Z"/><path class="cls-5" d="M241.48,263.12c-2.6,6.12-5.32,10.32-13.11,7.1-1.84-.77-3.61-2.78-5.86-5.29-22.62-25.24-23.12-48-25.08-81.4-.2-3.32,1.22-2.75,2.76-4,6.6-5.29,2.88.69,18.83,7.94,14.74,6.69,22.25,31,22.92,33.26,6.73,23.15,1.07,3.52,4.83,27.69C247.14,250.83,243.7,257.91,241.48,263.12Z"/><path class="cls-5" d="M216.66,292.47c-3.88,4.65-7.44,7.68-14.29,3.49-1.62-1-2.89-3-4.52-5.56-16.39-25.54-11.86-44.77-6.38-73.32.54-2.83,1.79-2.08,3.56-2.83,7.57-3.21,2.65,1.13,16.53,10.25,12.82,8.43,14.76,30.29,14.9,32.35,1.42,20.78.26,3.17-1.43,24.24C224.86,283.19,220,288.5,216.66,292.47Z"/><path class="cls-5" d="M184.91,307.65c1.75-.5,9-11,8.86-13.62-.55-9.28-.17-10.76-.52-13.64-3.33-27.53-3.1-43.13,4.79-69.36.68-2.27-.94-5.69-2.86-8.77-1.48-2.36-3.21-7.57-10-7.23-4.3.22-17,4.4-18.93,10.36-13.87,42.25-9.67,25.55-7.36,67,.58,10.41,3,21,8.7,26.18,2.57,2.33,14.54,9.84,17.33,9Z"/><path d="M233.7,158.43c0,38.44-29,76.81-72.6,76.81-7.71,0-44.38-6.67-63.18-24.35-16.48-15.5-15.82-42-15.82-45.25,0-38.44,42.39-73.3,88.83-73.53C214.56,91.9,233.7,120,233.7,158.43Z"/><path class="cls-6" d="M230.94,158.22c0,36.37-27.46,72.66-68.82,72.66-7.32,0-42.08-6.31-59.9-23-15.62-14.66-15-39.78-15-42.81,0-36.36,40.18-69.34,84.21-69.55C212.79,95.28,230.94,121.86,230.94,158.22Z"/></g></svg>
