<svg id="Layer_1" data-name="Layer 1" xmlns="http://www.w3.org/2000/svg" width="1160" height="245" viewBox="0 0 1160 245"><defs><style>.cls-1{fill:#010101;}.cls-2{fill:#f8dae9;}.cls-3{fill:#7c2368;}.cls-4{fill:#d6c22f;}.cls-5{fill:#c12f26;}.cls-6{opacity:0.3;}</style></defs><path class="cls-1" d="M853.12,33c-8.28-7.82-5.07-5.51-10.43-6.95-.62-.16-4.06-.37-5.85,1-22.18,17.3-21.71,28.33-21.37,55.52,0,2.2-1.22,2.7,2.19,1.9,21.48-5,4.82-2.91,23.08-3,2.88,0,2.78-.75,2.75-2.27-.3-19.25-1.07-24.18,8.77-40.08C853.06,37.84,854.41,34.23,853.12,33Z"/><path class="cls-1" d="M884.73,51.3c-.31-1.55-.14-4-4.53-7.29-.51-.39-11.92-3.75-13.91-2.9-22.29,9.45-21.64,14.8-30.95,36.24-.75,1.74-2.06,1.63,1.33,2.37,21.4,4.69,17.44,4.2,18.2,4.53,2.64,1.15,3.44.91,4-.29,6.53-15.2,8.18-17.73,22.79-26.23C882.8,57,885.14,53.33,884.73,51.3Z"/><path class="cls-1" d="M912,74.44c.25-1.57,1.28-3.82-1.69-8.39-.35-.54-9.87-7.59-12-7.48-24.23,1.24-25.5,6.49-41.74,23.42-1.32,1.37-2.52.82.41,2.68,18.43,11.71,14.89,9.9,15.48,10.47,2.08,2,2.91,2,3.82,1.08,11.46-12,13.9-13.83,30.58-16.81C908.2,79.17,911.69,76.48,912,74.44Z"/><path class="cls-1" d="M879.23,107.33a5.69,5.69,0,0,0,4.18,3.59c14,3,18.73,8.61,29.72,19.9,1,1,4.91,4.12,6.82,3.26,1.46-.66,3.65-2.51,5-7.79.83-3.34-.07-10.84-1.5-14.18-9.52-22.25-7.65-17.45-28.23-24-6.57-2.08-19.62,6-19.57,9.43Z"/><path class="cls-1" d="M874.87,117.75a9.25,9.25,0,0,0,3.11,6.14c14,13.56,16.86,21.72,24.29,39.3.64,1.52,3.69,7.15,6.09,8,1.84.66,4.94,1,8.43-2.06,2.21-1.93,4.19-8.47,4-12.21-1.52-24.9-1.39-19.68-21.08-41.27-6.28-6.88-23.57-11.1-24.86-8.39Z"/><path class="cls-1" d="M869.3,133.66a7.41,7.41,0,0,0,2.05,5.64c11.13,12.44,12.67,19.92,17.19,36.06.39,1.39,2.46,6.56,4.55,7.35,1.61.6,4.42.9,8-1.9,2.29-1.78,5-7.79,5.26-11.22,1.88-22.87,1.31-18.07-14-37.87-4.88-6.31-20.25-10.16-21.79-7.68Z"/><path class="cls-1" d="M785.77,40.57c-.56,1.69-2.86,8.51-1.69,10.07,8.56,11.39,14.76,16.73,16.24,31.72.13,1.3,1.2,6.09,3.09,6.78,1.45.53,4.13.74,8.15-2,2.54-1.71,6.23-7.39,7.13-10.61,5.95-21.45,4.53-17-6.73-35.13-3.6-5.79-15.84-6.39-21.07-5.7Z"/><path class="cls-1" d="M756.51,67.34c.42,1.72,2.06,8.65,3.88,9.39,13.3,5.35,21.39,6.76,30.57,18.73.79,1,4.23,4.55,6.21,4.18,1.51-.27,3.91-1.44,5.9-5.75,1.26-2.73,1.4-9.39.46-12.57-6.25-21.16-5.08-16.63-24.27-26.38-6.12-3.11-16.86,2.52-20.94,5.73Z"/><path class="cls-1" d="M740.31,98.57c1.14,1.58,5.74,7.93,7.75,7.83,14.61-.7,22.69-3,36.46,5,1.19.69,3-.34,4.68-1.64,1.27-1,4-2,4-7.35-.06-3.39-.25-9.46-3.38-11.41-22.17-13.8-14.09-9.93-36.09-11-7-.33-12.38,5.69-14.7,10.89Z"/><path class="cls-1" d="M730.08,129c1.66.92,8.38,4.63,10.33,3.75,14.17-6.45,21.34-11.71,37.67-10.2,1.41.13,2.87-1.51,4.06-3.31.9-1.37,3.3-3.35,1.38-8-1.22-2.94-3.5-8.17-7.26-8.62-26.61-3.22-17.31-3.06-39.37,4.79-7,2.51-10.25,9.91-10.76,15.39Z"/><path class="cls-1" d="M741.78,164.27c1.23.79,10,1,11,0,3.72-3.66,4.59-4,5.64-5.22,10-11.78,17-17.29,32.95-22.37,1.38-.44,1.93-2.58,2.16-4.76.17-1.67,1.44-4.52-2.64-8.17-2.58-2.31-7.27-6.37-11-5.31-26.4,7.55-21.16,2.38-37.88,18.65-4.2,4.08-7.42,9.26-6.37,14.28.47,2.27,4.12,11.63,6.09,12.9Z"/><path class="cls-1" d="M759.17,190.36c1.21.34,8.76-2.21,9.44-3.48,2.45-4.54,3.12-5.11,3.78-6.58,6.22-14,11-21.27,23.67-31,1.09-.84,1.14-3,.89-5.07-.18-1.59.32-4.6-3.9-6.68-2.67-1.32-7.49-3.58-10.46-1.42C761.53,151.42,765,145,753.94,165.26c-2.76,5.07-4.48,10.86-2.57,15.15.86,1.94,5.86,9.41,7.8,10Z"/><path class="cls-1" d="M782.26,215.66c1.53.1,9.77-4.55,10.23-6.15,1.65-5.7,2.29-6.51,2.66-8.32,3.53-17.31,7.23-26.64,19.53-40.59,1.06-1.21.53-3.64-.33-5.94-.66-1.75-.89-5.28-6.46-6.65-3.52-.86-9.86-2.29-12.78.84-20.74,22.21-18.44,14.15-25.94,39.63-1.88,6.39-2.32,13.34,1.12,17.75,1.55,2,9.53,9.27,12,9.43Z"/><path class="cls-1" d="M818,228.28c1.5-.24,7-3.39,7.13-5.23.35-6.61.8-7.63.76-9.7-.37-19.7,1.18-30.74,10.06-48.8.77-1.56-.28-4.09-1.62-6.4-1-1.76-2-5.56-7.73-5.77-3.61-.12-10.07-.22-12.23,3.87-15.27,29-14.79,19.7-16.49,49.24-.42,7.4.67,15.09,5,19.1,1.95,1.82,3.26,5.8,5.67,5.41Z"/><path class="cls-1" d="M889.08,198.13c-1.92,4.47-3.92,7.54-9.66,5.18-1.36-.56-2.66-2-4.31-3.86-16.66-18.46-17-35.07-18.47-59.54-.15-2.43.9-2,2-2.91,4.86-3.87,2.13.5,13.87,5.8,10.85,4.9,16.38,22.65,16.88,24.33,5,16.93.78,2.57,3.55,20.25C893.24,189.14,890.71,194.32,889.08,198.13Z"/><path class="cls-1" d="M870.8,219.59c-2.86,3.4-5.48,5.61-10.52,2.55-1.2-.73-2.13-2.21-3.33-4.07-12.07-18.68-8.73-32.74-4.7-53.62.4-2.07,1.32-1.52,2.62-2.07,5.58-2.35,2,.82,12.17,7.5,9.44,6.16,10.87,22.15,11,23.66,1,15.2.18,2.31-1.06,17.73C876.84,212.8,873.23,216.69,870.8,219.59Z"/><path class="cls-1" d="M847.42,230.69c1.29-.36,6.64-8.07,6.52-10-.4-6.79-.12-7.87-.38-10-2.45-20.13-2.28-31.54,3.53-50.72.5-1.66-.69-4.17-2.11-6.42-1.08-1.72-2.36-5.53-7.36-5.28-3.17.15-12.51,3.21-14,7.57-10.21,30.9-7.11,18.69-5.41,49,.43,7.61,2.21,15.39,6.4,19.15,1.89,1.7,10.7,7.2,12.76,6.61Z"/><path class="cls-2" d="M851.22,37c-7.93-7.51-4.85-5.29-10-6.67-.6-.16-3.89-.36-5.61,1-21.24,16.62-20.79,27.2-20.46,53.32,0,2.12-1.17,2.6,2.09,1.83,20.58-4.85,4.62-2.79,22.11-2.9,2.76,0,2.66-.72,2.64-2.18-.29-18.49-1-23.23,8.4-38.5C851.16,41.64,852.46,38.17,851.22,37Z"/><path class="cls-2" d="M881.5,54.56c-.3-1.49-.14-3.85-4.34-7-.49-.37-11.42-3.6-13.32-2.79C842.48,53.85,843.11,59,834.19,79.59c-.72,1.66-2,1.56,1.27,2.27,20.5,4.5,16.71,4,17.43,4.35,2.53,1.11,3.3.88,3.8-.28,6.25-14.6,7.84-17,21.83-25.19C879.65,60.08,881.89,56.51,881.5,54.56Z"/><path class="cls-2" d="M907.64,76.78c.24-1.5,1.22-3.66-1.62-8-.34-.52-9.46-7.29-11.53-7.19-23.21,1.2-24.42,6.24-40,22.5-1.26,1.32-2.4.79.39,2.57,17.67,11.25,14.27,9.51,14.84,10.06,2,1.9,2.78,2,3.65,1,11-11.55,13.31-13.28,29.3-16.14C904,81.33,907.32,78.75,907.64,76.78Z"/><path class="cls-2" d="M876.23,108.37a5.43,5.43,0,0,0,4,3.45c13.45,2.84,17.94,8.27,28.47,19.12.91.93,4.71,4,6.53,3.13,1.4-.63,3.5-2.41,4.75-7.48.8-3.21-.07-10.41-1.44-13.62-9.11-21.37-7.32-16.76-27-23-6.28-2-18.79,5.76-18.74,9.06Z"/><path class="cls-2" d="M872.06,118.38a8.92,8.92,0,0,0,3,5.9c13.43,13,16.15,20.86,23.27,37.75.61,1.46,3.53,6.86,5.83,7.69,1.76.64,4.73.95,8.08-2,2.12-1.85,4-8.13,3.79-11.72-1.46-23.92-1.33-18.91-20.19-39.64-6-6.61-22.58-10.66-23.82-8.06Z"/><path class="cls-2" d="M866.72,133.67a7.05,7.05,0,0,0,2,5.41c10.66,11.95,12.13,19.14,16.47,34.64.37,1.34,2.35,6.3,4.36,7.06,1.54.58,4.23.86,7.7-1.83,2.19-1.7,4.76-7.47,5-10.77,1.81-22,1.26-17.36-13.38-36.38-4.67-6.06-19.39-9.76-20.87-7.37Z"/><path class="cls-2" d="M786.71,44.26c-.54,1.62-2.74,8.17-1.61,9.67C793.29,64.86,799.23,70,800.65,84.4c.12,1.24,1.15,5.84,3,6.51,1.39.5,3.95.71,7.8-1.89,2.44-1.65,6-7.11,6.83-10.2,5.7-20.6,4.34-16.27-6.45-33.73-3.44-5.57-15.17-6.15-20.17-5.48Z"/><path class="cls-2" d="M758.69,70c.39,1.65,2,8.31,3.72,9,12.73,5.14,20.48,6.5,29.27,18,.76,1,4.06,4.38,6,4,1.45-.27,3.74-1.39,5.65-5.53,1.21-2.62,1.34-9,.44-12.07-6-20.33-4.87-16-23.24-25.34-5.86-3-16.15,2.42-20.06,5.51Z"/><path class="cls-2" d="M743.17,100c1.09,1.51,5.5,7.61,7.42,7.52,14-.68,21.73-2.91,34.92,4.78,1.14.67,2.9-.32,4.49-1.57,1.21-1,3.88-1.91,3.8-7.06-.06-3.25-.24-9.08-3.24-11-21.23-13.27-13.5-9.55-34.56-10.57-6.72-.32-11.86,5.46-14.09,10.46Z"/><path class="cls-2" d="M733.37,129.16c1.59.88,8,4.45,9.89,3.6,13.57-6.19,20.44-11.24,36.09-9.8,1.35.13,2.74-1.44,3.88-3.17.87-1.32,3.17-3.22,1.32-7.69-1.16-2.82-3.35-7.84-6.94-8.28-25.49-3.09-16.59-2.94-37.71,4.61-6.74,2.4-9.83,9.51-10.31,14.78Z"/><path class="cls-2" d="M744.57,163.06c1.18.76,9.59,1,10.59,0,3.56-3.51,4.39-3.82,5.39-5,9.63-11.32,16.26-16.61,31.56-21.5,1.32-.42,1.86-2.47,2.07-4.57.17-1.6,1.38-4.33-2.53-7.84-2.47-2.22-7-6.12-10.52-5.1-25.29,7.25-20.27,2.29-36.29,17.91-4,3.92-7.1,8.9-6.1,13.72.46,2.18,4,11.17,5.83,12.38Z"/><path class="cls-2" d="M761.23,188.13c1.16.33,8.39-2.13,9-3.35,2.34-4.35,3-4.9,3.61-6.31,6-13.47,10.57-20.43,22.68-29.77,1-.8,1.09-2.86.85-4.86-.18-1.53.31-4.42-3.73-6.42-2.56-1.26-7.18-3.44-10-1.37-20.17,14.67-16.87,8.52-27.44,28-2.64,4.88-4.29,10.44-2.46,14.56.83,1.86,5.62,9,7.47,9.56Z"/><path class="cls-2" d="M783.35,212.43c1.46.1,9.36-4.38,9.8-5.91,1.58-5.48,2.19-6.25,2.55-8,3.37-16.63,6.92-25.59,18.7-39,1-1.16.51-3.5-.32-5.7-.63-1.69-.84-5.08-6.18-6.39-3.37-.83-9.44-2.2-12.25.81-19.86,21.32-17.65,13.59-24.83,38.06-1.81,6.14-2.23,12.82,1.06,17.05,1.49,1.91,9.13,8.9,11.47,9.06Z"/><path class="cls-2" d="M817.55,224.55c1.44-.23,6.74-3.25,6.83-5,.34-6.34.77-7.33.73-9.31-.36-18.93,1.13-29.53,9.64-46.87.73-1.5-.28-3.93-1.56-6.15-1-1.69-1.93-5.34-7.4-5.54-3.45-.12-9.65-.21-11.71,3.72-14.63,27.87-14.17,18.92-15.8,47.28-.41,7.12.64,14.5,4.77,18.36,1.86,1.74,3.11,5.56,5.42,5.19Z"/><path class="cls-2" d="M885.66,195.58c-1.84,4.3-3.75,7.25-9.25,5-1.3-.54-2.55-1.95-4.13-3.71-16-17.74-16.3-33.69-17.69-57.19-.14-2.33.86-1.93,1.95-2.8,4.65-3.71,2,.49,13.28,5.58,10.39,4.7,15.69,21.75,16.16,23.36,4.75,16.27.75,2.47,3.41,19.45C889.65,187,887.23,191.93,885.66,195.58Z"/><path class="cls-2" d="M868.16,216.2c-2.74,3.27-5.25,5.39-10.08,2.45-1.15-.7-2-2.12-3.19-3.91-11.56-17.94-8.36-31.44-4.5-51.5.38-2,1.26-1.46,2.51-2,5.34-2.25,1.87.79,11.66,7.2,9,5.92,10.41,21.28,10.51,22.73,1,14.6.18,2.22-1,17C873.94,209.68,870.49,213.41,868.16,216.2Z"/><path class="cls-2" d="M845.77,226.86c1.23-.35,6.35-7.75,6.24-9.57-.39-6.51-.12-7.56-.36-9.58-2.35-19.33-2.19-30.3,3.37-48.72.48-1.59-.66-4-2-6.16-1-1.65-2.26-5.32-7-5.08-3,.15-12,3.09-13.36,7.28-9.77,29.68-6.81,17.94-5.18,47.09.41,7.31,2.12,14.78,6.13,18.4,1.81,1.63,10.25,6.91,12.23,6.34Z"/><path class="cls-3" d="M851.08,40.49c-7.58-7.26-4.63-5.11-9.53-6.45-.58-.15-3.72-.35-5.36,1-20.27,16.07-19.84,26.31-19.53,51.57,0,2-1.11,2.52,2,1.77,19.63-4.69,4.41-2.7,21.1-2.8,2.64,0,2.54-.7,2.52-2.12-.28-17.88-1-22.46,8-37.23C851,45,852.26,41.63,851.08,40.49Z"/><path class="cls-3" d="M880,57.49c-.28-1.45-.13-3.73-4.14-6.78-.47-.35-10.89-3.48-12.71-2.69-20.38,8.78-19.78,13.75-28.29,33.67-.69,1.61-1.89,1.51,1.21,2.2C855.6,88.24,852,87.8,852.68,88.1c2.41,1.07,3.14.85,3.61-.27,6-14.13,7.49-16.47,20.84-24.37C878.21,62.82,880.34,59.37,880,57.49Z"/><path class="cls-3" d="M904.92,79c.23-1.45,1.17-3.54-1.55-7.79-.31-.5-9-7-11-7-22.14,1.15-23.3,6-38.15,21.76-1.2,1.27-2.3.76.37,2.49,16.86,10.88,13.61,9.2,14.16,9.73,1.89,1.84,2.66,1.88,3.49,1,10.47-11.18,12.7-12.85,28-15.62C901.43,83.38,904.62,80.88,904.92,79Z"/><path class="cls-3" d="M874.94,109.54a5.24,5.24,0,0,0,3.82,3.33c12.84,2.74,17.13,8,27.17,18.49.87.91,4.5,3.83,6.24,3,1.33-.61,3.34-2.33,4.53-7.24.76-3.1-.07-10.06-1.37-13.17-8.7-20.67-7-16.21-25.81-22.27-6-1.93-17.93,5.57-17.88,8.76Z"/><path class="cls-3" d="M871,119.22a8.64,8.64,0,0,0,2.84,5.7c12.82,12.6,15.41,20.18,22.21,36.51.58,1.41,3.37,6.64,5.57,7.44,1.67.62,4.51.92,7.7-1.91,2-1.79,3.83-7.87,3.62-11.34-1.39-23.14-1.27-18.29-19.27-38.34-5.74-6.39-21.55-10.31-22.73-7.8Z"/><path class="cls-3" d="M865.87,134a6.92,6.92,0,0,0,1.88,5.24c10.16,11.55,11.57,18.51,15.71,33.5.35,1.29,2.24,6.09,4.16,6.83,1.47.56,4,.83,7.35-1.77,2.09-1.65,4.54-7.23,4.8-10.42,1.72-21.24,1.2-16.79-12.77-35.18-4.45-5.87-18.5-9.45-19.92-7.14Z"/><path class="cls-3" d="M789.51,47.52c-.51,1.57-2.61,7.91-1.54,9.36,7.82,10.57,13.49,15.53,14.84,29.47.12,1.2,1.1,5.65,2.83,6.29,1.32.49,3.77.69,7.45-1.83,2.32-1.59,5.69-6.87,6.51-9.86,5.45-19.92,4.15-15.74-6.15-32.63-3.29-5.38-14.48-5.94-19.26-5.3Z"/><path class="cls-3" d="M762.77,72.39c.37,1.6,1.88,8,3.55,8.72,12.15,5,19.55,6.28,27.94,17.4.72,1,3.87,4.23,5.67,3.89,1.39-.26,3.57-1.34,5.39-5.35,1.16-2.53,1.29-8.72.43-11.67C800,65.72,801.1,69.92,783.56,60.87,778,58,768.15,63.21,764.42,66.2Z"/><path class="cls-3" d="M748,101.41c1,1.46,5.25,7.36,7.09,7.27,13.35-.65,20.74-2.81,33.33,4.63,1.09.64,2.77-.32,4.28-1.52,1.16-.93,3.7-1.85,3.62-6.83,0-3.15-.22-8.79-3.08-10.6-20.27-12.83-12.89-9.23-33-10.22-6.41-.31-11.32,5.28-13.45,10.12Z"/><path class="cls-3" d="M738.6,129.64c1.52.86,7.67,4.31,9.45,3.49,13-6,19.5-10.88,34.43-9.48,1.3.12,2.63-1.4,3.71-3.07.83-1.28,3-3.12,1.26-7.44-1.11-2.73-3.2-7.59-6.63-8-24.32-3-15.83-2.84-36,4.46-6.43,2.32-9.37,9.2-9.83,14.29Z"/><path class="cls-3" d="M749.3,162.43c1.12.74,9.15.95,10.1,0,3.4-3.39,4.19-3.69,5.15-4.84,9.19-11,15.51-16.07,30.11-20.79,1.27-.41,1.78-2.39,2-4.42.16-1.55,1.32-4.19-2.41-7.59-2.36-2.14-6.64-5.92-10.05-4.93-24.13,7-19.34,2.22-34.63,17.32-3.83,3.79-6.78,8.61-5.82,13.27.44,2.11,3.77,10.81,5.57,12Z"/><path class="cls-3" d="M765.19,186.68c1.11.31,8-2.06,8.64-3.24,2.24-4.21,2.85-4.74,3.45-6.11,5.69-13,10.09-19.76,21.64-28.79,1-.78,1-2.77.81-4.7-.17-1.48.3-4.28-3.56-6.21-2.44-1.22-6.85-3.32-9.57-1.32-19.24,14.19-16.1,8.24-26.18,27-2.53,4.72-4.1,10.1-2.36,14.08.79,1.8,5.36,8.74,7.13,9.25Z"/><path class="cls-3" d="M786.3,210.18c1.4.1,8.93-4.23,9.36-5.71,1.51-5.3,2.09-6.05,2.43-7.73,3.22-16.09,6.61-24.76,17.85-37.71,1-1.12.48-3.39-.31-5.52-.6-1.63-.8-4.91-5.9-6.18-3.22-.8-9-2.13-11.68.78-19,20.63-16.85,13.15-23.71,36.82-1.72,5.94-2.12,12.4,1,16.49,1.42,1.85,8.71,8.61,10.94,8.76Z"/><path class="cls-3" d="M818.94,221.9c1.38-.22,6.43-3.14,6.52-4.86.33-6.13.73-7.09.7-9-.34-18.31,1.08-28.56,9.2-45.34.7-1.45-.26-3.8-1.49-5.95-.93-1.63-1.84-5.17-7.06-5.35-3.3-.12-9.21-.21-11.18,3.59-14,27-13.52,18.3-15.07,45.74-.39,6.88.61,14,4.54,17.75,1.78,1.68,3,5.38,5.18,5Z"/><path class="cls-3" d="M884,193.89c-1.76,4.15-3.58,7-8.83,4.82-1.24-.52-2.43-1.89-3.94-3.59C856,178,855.62,162.54,854.29,139.81c-.13-2.26.83-1.87,1.86-2.71,4.45-3.59,1.94.47,12.68,5.39,9.92,4.55,15,21,15.43,22.6,4.53,15.73.71,2.39,3.24,18.82C887.75,185.54,885.44,190.35,884,193.89Z"/><path class="cls-3" d="M867.24,213.83c-2.61,3.16-5,5.22-9.62,2.37-1.09-.68-2-2.06-3-3.78-11-17.35-8-30.42-4.3-49.81.37-1.93,1.21-1.42,2.4-1.93,5.1-2.18,1.78.77,11.12,7,8.63,5.72,9.94,20.58,10,22,1,14.12.18,2.15-1,16.47C872.76,207.52,869.46,211.13,867.24,213.83Z"/><path class="cls-3" d="M845.87,224.14c1.18-.33,6.06-7.49,6-9.25-.37-6.31-.11-7.32-.35-9.27-2.24-18.7-2.09-29.31,3.23-47.12.46-1.54-.63-3.87-1.93-6-1-1.6-2.16-5.14-6.73-4.91-2.9.15-11.43,3-12.75,7-9.33,28.71-6.5,17.36-4.95,45.55.39,7.07,2,14.3,5.85,17.79,1.74,1.58,9.79,6.69,11.67,6.14Z"/><path class="cls-1" d="M878.71,122.76c0,26.11-19.5,52.18-48.86,52.18-5.2,0-29.88-4.53-42.53-16.54-11.09-10.53-10.65-28.57-10.65-30.75,0-26.11,28.53-49.8,59.79-49.95C865.83,77.55,878.71,96.64,878.71,122.76Z"/><path class="cls-4" d="M876.85,122.62c0,24.7-18.48,49.36-46.32,49.36-4.93,0-28.32-4.28-40.32-15.65-10.51-10-10.09-27-10.09-29.08,0-24.71,27-47.11,56.68-47.26C864.64,79.85,876.85,97.91,876.85,122.62Z"/><path class="cls-5" d="M727.49,241.05V0h33.87V180.55H791v60.5Z"/><path class="cls-5" d="M100.21,0,94,88.62C88.47,65.13,50.14,53.08,43,53.08q-6,0-6,14.21a23.53,23.53,0,0,0,1.88,9q1.88,4.58,9.84,14.37a129.55,129.55,0,0,1,13.51,19.82q4.73,8.94,7.09,22.83A196.08,196.08,0,0,1,71.7,165.7q0,38.72-9.32,59T35,245q-20.28,0-35-18.17l8.27-80.56q3.6,17.7,8.94,28.12t10.25,10.43c1.6,0,2.95-1.32,4-3.95a25.23,25.23,0,0,0,1.63-9.64A33.37,33.37,0,0,0,31.54,161Q30,156.07,23.2,147.38a107.24,107.24,0,0,1-10.12-15.09q-4-7.33-7-20.93T3.16,77.09q0-40.12,9.27-60.5C18.61,3,26.86,0,38.92,0Z"/><path class="cls-5" d="M107.53,241.05H73.66L100.21,0h48.25L175,241.05H141.2l-4.41-40.75H111.94Zm10.57-97.62h12.53l-6.27-59.87Z"/><path class="cls-5" d="M250.58,0l-10,92.61-1.45,13.45-14.54,135H191.81L165.8,0h33.77l8.62,81.19L216.81,0Z"/><path class="cls-5" d="M322.53,180.55v60.5H259.05V0h63.48V60.5H292.87V90.35h20.64v60.5H292.87v29.7Z"/><path class="cls-5" d="M353.15,106.78V0h67.94V106.78h-17V241.05H370.18V106.78Z"/><path class="cls-5" d="M464,241.05H430.11V0H464V88.3h17.24V0h33.87V241.05H481.22V151.49H464Z"/><path class="cls-5" d="M585.84,241.05H552V135.85L522.8,0h34.28L568.9,54.66,580.68,0H615L585.84,135.85Z"/><path class="cls-5" d="M657,241.05V0h70.45V80.41L690.86,60.5v43.76H712.4v60.49H690.86v76.3Z"/><path class="cls-5" d="M926.71,241.05H901.8L874.8,0h33l8.87,78.67L926,0h23.5l9.77,78.67L967.64,0h33.07L975,241.05H950l-12.08-95.41Z"/><path class="cls-5" d="M1071.91,180.55v60.5h-63.48V0h73.81V81.12l-40-20.62V90.35h20.64v60.5h-20.64v29.7Z"/><path class="cls-5" d="M1073.89,0h58.3q13,0,20.39,20.61T1160,72.19q0,34.13-8.72,53.39c8.25,29.7,7.06,68.19,8.66,115.47h-31.39c-.64-30.43.31-52.92-2-67.45s-5.77-21.8-10.54-21.8v89.25h-36.89L1077.33,77.7Zm42.17,49.6V96h1q9.12,0,9.12-22.59a66.82,66.82,0,0,0-1.86-16.66q-1.85-7.18-6.16-7.19Z"/><g class="cls-6"><path class="cls-1" d="M141.2,241.05h1.12A50.46,50.46,0,0,1,153,232.21q9.76-6,19.83-11.33L148.46,0H38.92C26.86,0,18.61,3,12.43,16.59S3.16,50.34,3.16,77.09q0,20.68,3,34.27t7,20.93A107.24,107.24,0,0,0,23.2,147.38Q30,156.07,31.54,161a33.37,33.37,0,0,1,1.58,10.27,25.23,25.23,0,0,1-1.63,9.64c-1.08,2.63-2.43,3.95-4,3.95q-4.92,0-10.25-10.43T8.27,146.27L0,226.83Q14.68,245,35,245q18.09,0,27.41-20.3t9.32-59a196.08,196.08,0,0,0-2.35-32.38q-2.35-13.9-7.09-22.83A129.55,129.55,0,0,0,48.75,90.67q-8-9.8-9.84-14.37a23.53,23.53,0,0,1-1.88-9q0-14.22,6-14.21c6.4,0,37.76,9.67,48.23,28.53L73.66,241.05h33.87l4.41-40.75h24.85Zm-23.1-97.62,6.26-59.87,6.27,59.87Z"/><path class="cls-1" d="M229.53,195.52l9.63-89.46,1.45-13.45L250.58,0H216.81l-8.62,81.19L199.57,0H165.8l23,212.85C202.08,206.49,215.7,200.78,229.53,195.52Z"/><path class="cls-1" d="M292.87,173.88v-23h20.64V90.35H292.87V60.5h29.66V0H259.05V184.93C270.27,181.11,281.56,177.46,292.87,173.88Z"/><path class="cls-1" d="M370.18,148.6q3.84-1.38,7.67-2.79,13.13-4.86,26.2-9.88V106.78h17V0H353.15V106.78h17Z"/><path class="cls-1" d="M488.54,102.43c8.86-3.59,17.7-7.27,26.55-10.93V0H481.22V88.3H464V0H430.11V125.81Q459.39,114.29,488.54,102.43Z"/><path class="cls-1" d="M596.47,61.6c1.87-.53,3.74-1,5.61-1.55L615,0H580.68L568.9,54.65,557.08,0H522.8l17.45,81.26C558.72,73.92,577.36,67.06,596.47,61.6Z"/><path class="cls-1" d="M761.36,23.4V0H657V46.26C691.72,38.32,726.66,31.35,761.36,23.4Z"/></g><g class="cls-6"><path class="cls-1" d="M60.2,219.2c1.66-.47,3.3-1,5-1.58q6.54-19.51,6.55-51.92a196.08,196.08,0,0,0-2.35-32.38q-2.35-13.9-7.09-22.83A129.55,129.55,0,0,0,48.75,90.67q-8-9.8-9.84-14.37a23.53,23.53,0,0,1-1.88-9q0-14.22,6-14.21c6.4,0,37.76,9.67,48.23,28.53l-14.43,131c.75-.49,1.44-.93,1.95-1.22a284.13,284.13,0,0,0,24.58-15.78c15.48-10.91,30.13-23,45.85-33.57q7.89-5.31,16-10.24L148.46,0H38.92C26.86,0,18.61,3,12.43,16.59S3.16,50.34,3.16,77.09q0,20.68,3,34.27t7,20.93A107.24,107.24,0,0,0,23.2,147.38Q30,156.07,31.54,161a33.37,33.37,0,0,1,1.58,10.27,25.23,25.23,0,0,1-1.63,9.64c-1.08,2.63-2.43,3.95-4,3.95q-4.92,0-10.25-10.43T8.27,146.27L0,226.83q12.54,15.53,29.16,17.77C35.75,232.54,47,222.9,60.2,219.2ZM124.36,83.56l6.27,59.87H118.1Z"/><path class="cls-1" d="M238,116.52l1.13-10.46,1.45-13.45L250.58,0H216.81l-8.62,81.19L199.57,0H165.8l15.37,142.49A411,411,0,0,1,238,116.52Z"/><path class="cls-1" d="M269.93,106.33q21.78-5.94,43.58-11.76V90.35H292.87V60.5h29.66V0H259.05V109.49Q264.47,107.84,269.93,106.33Z"/><path class="cls-1" d="M421.09,66V0H353.15V84Q387.11,75,421.09,66Z"/><path class="cls-1" d="M464,54.7V0H430.11V63.64Z"/><path class="cls-1" d="M499.19,45.41q8-2.13,15.9-4.45V0H481.22V50.15Z"/><path class="cls-1" d="M607.34,0H580.68l-4.53,21,21.19-7.37Q602.29,6.79,607.34,0Z"/><path class="cls-1" d="M562.63,25.66,557.08,0H522.8l7.79,36.25C541.32,32.87,552,29.31,562.63,25.66Z"/></g></svg>
