<svg xmlns="http://www.w3.org/2000/svg" xmlns:xlink="http://www.w3.org/1999/xlink" width="480" height="550" viewBox="0 0 480 550"><defs><style>.cls-1{fill:none;}.cls-2{fill:#d2dbaf;}.cls-3{fill:#c92b2b;}.cls-4{clip-path:url(#clip-path);}.cls-5{fill:#756b6b;}</style><clipPath id="clip-path"><rect class="cls-1" x="-40.71" y="664.9" width="1920" height="1080"/></clipPath></defs><g id="Layer_3" data-name="Layer 3"><path d="M472.32,298.29l-52.62,7.37a9.77,9.77,0,0,1,1.53,5,13.69,13.69,0,0,1-2.84,8.87c-1.57,1.82-2.26,2.51-2.14,5a20.46,20.46,0,0,0,2.46,8.58c2.65,4.87,1.64,11.07-3.56,10.86-2.93-.12-5.25-1.51-7.53-2.27-2-.68-2.6-.56-3.43,1.42-.93,2.21-1,5.3-2,8.14a6.12,6.12,0,0,1-3,3.47c-2.51,17.34-10.18,38.54-28.48,61.69C342.13,452.61,300.64,476,255.26,483c-47,7.31-110.21,6.62-136.55-41.27,0,0-.67-1.1-1.84-3.19-1.44-2.54-2.8-5.11-4.12-7.7-2.65,2-6.37,1.68-8.86-1.49-1.87-2.39-2.82-5.22-4.35-7.75-1.37-2.25-.77-2.57-4.5-3.29-4.19-.81-7.51,3.46-11.62,5.25-7.29,3.19-6.49-7-4.15-11.46,1.32-2.53,6.1-8.51,8.59-9.19,2.21-.6,2.71-.19,2.38-1.88-.38-1.89-1.86-4.26-2.53-6.85-1.18-4.61,2.39-10.06,7.51-8.58l.17.06C79.56,326.61,86.91,262.36,112.55,209c-.67-1.28-.88-1.6-3.88-2.18-4.18-.8-7.51,3.46-11.61,5.26-7.3,3.19-6.49-7-4.15-11.46,1.32-2.54,6.1-8.51,8.59-9.19,2.21-.6,2.71-.19,2.37-1.88-.37-1.89-1.86-4.26-2.52-6.85-1.18-4.62,2.39-10.07,7.51-8.58,2.88.84,5,2.59,6.76,3.67,1.57,1,1.61.81,2.95.47,1.5-.38-.95-16.63-.37-18.9,1-4,7.3-6.75,10.51-1.94,1.56,2.34,4.33,10.73,5.75,14.78,26.44-36.3,63.06-63.77,107.64-75a21.17,21.17,0,0,0,4.35-1l8.33,24.31.38,1.11.76,2.22h0L262,141.62l36.53-22a14.12,14.12,0,0,0,5.46-3.28h0l.38,0,0-.18,12.79-7.7.7-3.3,2.66-12.56,9.19,8.31,9.52-5.73h0c8.24-4.92,42.52-25.57,72.93-43.88l48.47-29.16L390.81,26h0l-32.17,1.76.1,9.14-9-4.84-6.41-3.46-19.85,1.1a3.88,3.88,0,0,0-3.83.21l-41.07,2.26c-1.18-.36-3.21,0-6,.33l-6.91.38h0l-36.2,2,4.58,18.31c-.3,2.47.49,6,2.81,11.23h0l0,0q-12.27,3.14-24.06,7.18c-10,3.17-19.9,6.74-27.69,11A300.69,300.69,0,0,0,116,125.79c-6.93,5.21-13.67,10.55-18.35,16.72-53,52.54-84.73,124.55-84.74,205.32,0,21.83,7.62,79.12,33.13,127-.25-5.1-1.18-12.63-.8-14.12,1-4,7.31-6.75,10.51-1.94,1.81,2.71,5.25,13.57,6.32,16.35,1,2.47.86,1.33,2,.89s1.7-1.47,4-2.29a7,7,0,0,1,8.95,7.22,13.58,13.58,0,0,1-3.42,8c-1.65,1.71-2.36,2.37-2.45,4.56a14.57,14.57,0,0,0,1.62,7.27c1.81,3.48,1,8-2.49,9.38,21.77,24.18,51.18,40.46,90.58,38.69a429.3,429.3,0,0,0,43.17,1.09c117.35-2.06,222.72-74.5,265.16-184.45C480.77,335.59,484.85,309.88,472.32,298.29Z"/><path class="cls-2" d="M459.43,276.16l-52.63,7.38a9.71,9.71,0,0,1,1.54,5,13.72,13.72,0,0,1-2.84,8.87c-1.58,1.82-2.27,2.51-2.14,5a20.32,20.32,0,0,0,2.46,8.57c2.65,4.87,1.63,11.07-3.57,10.86-2.92-.12-5.24-1.5-7.52-2.26-2-.69-2.61-.56-3.44,1.41-.92,2.21-1,5.3-2,8.14a6.07,6.07,0,0,1-3,3.47c-2.52,17.34-10.18,38.55-28.49,61.69-28.56,36.12-70.06,59.47-115.43,66.54-47,7.32-110.21,6.62-136.55-41.27,0,0-.67-1.1-1.85-3.18-1.43-2.55-2.79-5.12-4.12-7.7-2.64,1.95-6.37,1.67-8.85-1.5-1.87-2.38-2.83-5.21-4.35-7.74-1.37-2.26-.77-2.58-4.51-3.3-4.18-.81-7.51,3.46-11.61,5.25-7.3,3.19-6.49-7-4.15-11.46,1.32-2.53,6.1-8.51,8.58-9.18,2.22-.61,2.72-.2,2.38-1.89-.37-1.89-1.86-4.25-2.52-6.85-1.18-4.61,2.39-10.06,7.51-8.57a1.15,1.15,0,0,1,.17.06C66.67,304.48,74,240.24,99.66,186.91c-.67-1.27-.88-1.59-3.88-2.17-4.19-.81-7.51,3.46-11.61,5.25-7.3,3.19-6.5-7-4.15-11.46,1.32-2.53,6.1-8.51,8.58-9.19,2.22-.6,2.71-.19,2.38-1.88-.37-1.89-1.86-4.26-2.52-6.85C87.27,156,90.85,150.55,96,152c2.87.84,5,2.59,6.76,3.67,1.56,1,1.6.82,3,.48s-1-16.64-.38-18.91c1-4,7.31-6.74,10.52-1.93,1.55,2.33,4.33,10.73,5.75,14.77,27.29-37.48,65.44-65.54,112-76l15.57,45.43,42-25.27.38,0,0-.19,12.79-7.7L305,83l2.66-12.56,9.19,8.31,31.62-19L447.71,0l-102,5.61.1,9.13-9-4.83-6.42-3.46L216.58,12.71,224,42.27C92,76.09,0,188.24,0,325.7c0,21.84,7.62,79.13,33.13,127-.25-5.1-1.18-12.62-.81-14.12,1-4,7.31-6.74,10.52-1.93,1.8,2.7,5.25,13.57,6.31,16.34,1,2.48.87,1.33,2,.89,1.31-.5,1.71-1.46,4-2.28a7,7,0,0,1,9,7.21,13.59,13.59,0,0,1-3.43,8c-1.64,1.72-2.35,2.38-2.44,4.57a14.52,14.52,0,0,0,1.61,7.26c1.82,3.48.95,8.05-2.48,9.39,21.77,24.18,51.18,40.46,90.57,38.69,0,0,16.59,1.55,43.18,1.09,117.35-2.07,222.71-74.5,265.16-184.46C467.88,313.47,472,287.76,459.43,276.16Z"/><path class="cls-3" d="M377.91,3.84C383.22,23.78,348,24.3,335.24,23.36c-11.12,1.27-26.54-27.57-30.93-11.14-4.53,9.82-35.79,31-39.88,8.69,5.86-15.8,1.29-9.94-11.66-10.19-3.2,26.9-42.46,1-28.8,31.55-19.37,5.8-45.42,12.47-58.82,22.61,8.86,7.46-.48,17.59-9.28,19-5,7.22-13.78,12.9-24.15,7.87-4.29,3.66-10.14,4-13.54.16-16.21,14.23-40.61,25.59-39.8,47,16.42,11.55,45.64-32.48,48.18.15,20.62-26,35.44-39,63.56-51.19,7.91-23.92,28-8.27,43.43-13.82L243,101.72a21.38,21.38,0,0,1,10.38-6.63s0,0,.39-.13l-.39.13c15.81-6,26.09,9.85,37.69-.85,14.88-18.25-4.44-7-5.58-21.92.77-25.33,33-15.29,40.8.73C340.47,64.58,431.54,9.7,447.71,0Z"/><path class="cls-3" d="M63.56,256.24c-3.92.79-8.08-4-10.29.18C42.14,289,37.45,239.07,19.1,259.16c-15.2.91,1.64-20.74,6.82-22.53-7.71-15.92,3.06-17.76,14.69-11.28,1.52-4.54-4.61-32.45,10.14-20.85,4.47,4.75,3.5,23.49,12.39,14.95,13.92-1.8,7.47,13.55,3.08,19.76C66,244.94,73.16,254.84,63.56,256.24Z"/><path class="cls-3" d="M68.83,290.43c-3.92.79-8.08-3.95-10.29.18-11.13,32.58-15.82-17.36-34.16,2.73-15.2.91,1.63-20.73,6.81-22.52-7.71-15.92,3.07-17.77,14.69-11.29C47.4,255,41.28,227.08,56,238.69c4.47,4.75,3.49,23.48,12.38,14.95,13.92-1.81,7.48,13.54,3.08,19.76C71.27,279.12,78.43,289,68.83,290.43Z"/><g class="cls-4"><path d="M531.63,674.29c-5.6-14.59-21.4-24.35-51.14-31.91,13.12-28.1-26.74-82.16-30.38-64.48C472.54,469,392.23,457.68,356.06,457.68c-65.11,0-59.48,61.4-91,60.05-40-1.72-82.66,14.27-89.89,59.08,2.11-13.07-140.35,38.25-107.07,99.45C30.09,606.3-78,673-78,673c-51.46-25.29-81-36.06-166.39-1.09-24.51,10-40.39,44.91-37.62,64.48-35.56,17.71-43.49,48-30.38,79.78,28.21,68.31,45.93-4.42,72.34,73.78-73.8,60,96.22,107.65,106,94.7,12.12-16,59.59,28.94,103,20,27.94-1,41.29-17.7,61.49-22.95,9.72-2.52,92.71-26,66.56-37.7,83.19,37.16,131.08-2.72,168.56-61.75,22,1.14,35.49-23.47,48.47-13.67,43.41,32.79,147.61,4.12,144-63.93-15.26-58.84,38,8.11,74.07-110.06A30.89,30.89,0,0,0,531.63,674.29Z"/><path class="cls-5" d="M525,693.55c0-19.17-23.36-35.79-57.52-44a40.93,40.93,0,0,0,3.81-17.14c0-20.37-15.38-38-37.83-46.71a74.33,74.33,0,0,0,14.94-44.59c0-43.25-37.59-78.31-83.95-78.31-42.69,0-77.93,29.72-83.26,68.18a72.21,72.21,0,0,0-99.16,53.84,71.23,71.23,0,0,0-17.56-2.19c-48.91,0-88.55,49.67-88.55,110.94,0,1.09,0,2.17,0,3.24l-.79-.11c-10.87-24.62-41.63-42.37-77.87-42.37-32.06,0-59.83,13.89-73.34,34.14-19.66-16.74-51.27-27.59-86.92-27.59-59.65,0-108,30.37-108,67.85A43.73,43.73,0,0,0-269.46,740c-20.53,9.31-34.74,29.41-34.74,52.71,0,32.17,27.08,58.25,60.48,58.25,2.17,0,4.32-.12,6.44-.33a39.13,39.13,0,0,0-.28,4.73c0,11.52,5,22.31,13.82,31.58-12.52,8.75-20,19.76-20,31.73,0,28.47,42.25,51.55,94.38,51.55A158.59,158.59,0,0,0-103,963.55c9.64,19.86,34.89,34,64.51,34,26.3,0,49.14-11.17,60.68-27.57,1.79.09,3.59.16,5.42.16,30.86,0,57.42-13.9,69.33-33.86a100,100,0,0,0,57.34,18.2c46.79,0,86.55-32.82,101-78.5,1.92.12,3.86.19,5.81.19a88,88,0,0,0,51.28-16,90.79,90.79,0,0,0,52.15,16c46.27,0,83.77-33,83.77-73.75A65.77,65.77,0,0,0,443.51,778c37.57-8.92,63.45-27.62,63.45-49.26a27.43,27.43,0,0,0-.9-6.92C518,713.78,525,704.05,525,693.55Z"/></g></g></svg>
