<svg xmlns="http://www.w3.org/2000/svg" xmlns:xlink="http://www.w3.org/1999/xlink" width="550" height="480" viewBox="0 0 550 480"><defs><style>.cls-1{fill:none;}.cls-2{fill:#d82121;}.cls-3{fill:#d2dbaf;}.cls-4{fill:#a52323;}.cls-5{clip-path:url(#clip-path);}.cls-6{fill:#76b7ce;opacity:0.3;}</style><clipPath id="clip-path"><rect class="cls-1" x="-805.24" y="627.75" width="1920" height="1080"/></clipPath></defs><g id="Layer_3" data-name="Layer 3"><path d="M417.38,139.23l-132.61-112-132.62,112-132.61,112H67.37c8.4,10.66,6.73,22.22,16.5,22.22,4.68,0,6.73-3.52,8.52-8.05V390.61L97.93,396l40.42,39.28-46,13.06V480H252.26V410.84c1.18-1.33,1.74-5.15,2.31-9.59a5.61,5.61,0,0,0,3.17-3.08l7.48-24.79h52.06V480H424.46l21.65-20.64,5,20.64h26V280a9.23,9.23,0,0,0,2.77.41c10.84,0,7.55-18.73,19.62-25.68a5.63,5.63,0,0,0,2.76-3.47h4.12c6.83,6.55,5,14.65,11.18,14.65s4.35-10.61,11.13-14.65H550ZM145,372l-4.2-9.63V318h51.31l-11.73,54Z"/><path class="cls-2" d="M238.66,358.51c-4.25,6.95-3.09,25.68-6.9,25.68s-2.66-14.24-6.91-25.68c-3.62-9.75,5.31-7.55,6.91-25.68C232.68,322.31,243,351.44,238.66,358.51Z"/><path class="cls-3" d="M397.85,112,265.23,0,132.62,112,0,224.07H72.85V363.42l5.54,5.38,40.42,39.28-46,13.06v31.67H232.72V346.19h65V452.81H404.92l21.65-20.65,5,20.65h26V224.07h72.85ZM175.23,344.8h-54v-54h54Z"/><path class="cls-4" d="M138.47,374.64a8.1,8.1,0,0,0,2.07,3.62,13.78,13.78,0,0,0,.71,2.61c4.25,11.44,3.09,25.68,6.9,25.68s2.66-18.73,6.9-25.68c1.38-2.25,1.27-6.74.46-11.47l5.34-24.6H125.47Z"/><polygon class="cls-4" points="175.23 344.8 175.23 290.8 172.58 290.8 160.85 344.8 175.23 344.8"/><path class="cls-4" d="M530.46,224.07,397.85,112,265.23,0,132.62,112,0,224.07H47.84c8.39,10.66,6.73,22.22,16.49,22.22,7.1,0,8.15-8,11.42-15.56l45.52,104.45V290.8h51.31l4-18.24c5.92,18.7,4.33,41.77,9.72,41.77,5,0,4-26.21,8.58-39.18L227,369.34A5.89,5.89,0,0,0,238.21,371L257,308.77c3.52,7.74,4.41,14.24,11.73,14.24,8,0-1.25-29.6-1.63-47.69l2.25-7.48C272.1,283.28,272,298,276.26,298c5.42,0,3.77-30.72,9.81-42.11a12.94,12.94,0,0,0,1.2-4.09l30.81,90.42a6.51,6.51,0,0,0,4,3.9c2.36,8.86,2.44,16.92,6.52,16.92,5.41,0,3.77-18.73,9.81-25.68,3.09-3.56.91-12.71-2.18-19.58l5.6-25c4.58,8.75,4.82,16.65,12.89,16.65a7.19,7.19,0,0,0,6.37-3.72l31.4,129.78a4.53,4.53,0,0,0,8.78.1l50.43-189.34c1.82,4.15,3.85,7,8.67,7,10.84,0,7.55-18.73,19.62-25.68a5.65,5.65,0,0,0,2.76-3.47h4.12c6.83,6.55,5,14.65,11.18,14.65s4.35-10.61,11.13-14.65Z"/><polygon class="cls-4" points="121.27 344.8 125.47 344.8 121.27 335.18 121.27 344.8"/><g class="cls-5"><path class="cls-6" d="M975.22,703.8c-15.09-22.93-66.5-105.35-55.39-148.35a10.76,10.76,0,0,0-8.77-13.28c-13.62-2.18-36-6.09-60.78-11.76a10.84,10.84,0,0,1-8.42-10.56c-.07-19.77-6.8-6.34-46.3-5.3a10.51,10.51,0,0,1-4.72-.92c-16.44-7.52-40.08-10-47.38-23.7a10.86,10.86,0,0,0-13-5.27c-56.65,18.76-169.39,4.93-226.75-39.51-2.52-3.55-8.27,89-43.81,78.4A10.82,10.82,0,0,0,445.83,533c-2.25,37.92-32.21,55.62-73.79,55.32a10.85,10.85,0,0,0-10.89,9.26C356,632.79,334.57,744.89,313,767.4a11,11,0,0,0-2.73,9.74C359.11,1026.3,274.47,884.58,450,1084.39a10.81,10.81,0,0,0,5.9,3.45c20.68,4.34,127,27.59,160.51,55.38a10.86,10.86,0,0,0,16-2.32c11.21-17,35.44-35,55.62-21.82,5.69,3.69,13.29,1,15.85-5.28,13.56-33.25,36.36-2,70.88-47.9a10.71,10.71,0,0,1,10.27-4.24l.51.09a11,11,0,0,0,12.52-7.37c8.74-28.31,57-51,87.38-42.56a10.84,10.84,0,0,0,13.65-8.54c6.93-40,28.36-133,72.67-149A10.86,10.86,0,0,0,978.7,841c-7.7-26-23.88-91.52-3.24-125.72A10.79,10.79,0,0,0,975.22,703.8Z"/></g></g></svg>
