<svg xmlns="http://www.w3.org/2000/svg" width="1040" height="640" viewBox="0 0 1040 640"><defs><style>.cls-1{fill:#9162af;}.cls-2{fill:#fff;}.cls-3{opacity:0.6;}.cls-4{opacity:0.6;}.cls-5{fill:#f22525;}</style></defs><g id="Layer_3" data-name="Layer 3"><rect x="83.35" y="125.58" width="908.7" height="386.51" rx="12"/><rect class="cls-1" x="92.21" y="131.47" width="889.92" height="373.74" rx="12"/><rect x="109.35" y="152.21" width="61.24" height="64.43" rx="12"/><rect class="cls-2" x="112.41" y="156.56" width="56.35" height="56.12" rx="12"/><rect x="170.59" y="223.22" width="33.98" height="35.76" rx="12"/><rect class="cls-2" x="172.29" y="225.63" width="31.27" height="31.14" rx="12"/><path d="M5.58,523.4C-19.06,612,42.75,657.92,95.91,601.72c19.87,74.57,111.11,32,131.8-57.6,11.15-108.71-182-85.95-103.79-156.68C97.32,411.5,45,426,5.58,523.4Z"/><path class="cls-1" d="M26.16,506.38c-24.64,88.59,27.45,122,80.61,65.79,19.86,74.58,87.26,74.23,108-15.41,11.15-108.71-41-121.33-46.41-226.4C118,419,65.56,408.94,26.16,506.38Z"/><g class="cls-3"><path class="cls-2" d="M155.3,558.28c11.7-17.53,25.78-25.31,41.49-21.14s6.1,45.22-2.88,57.24-24.51,20.83-33.28,13.92S143.6,575.8,155.3,558.28Z"/></g><path d="M1039.93,108.52c3.25-91.91-113.55-145.74-174-78.26-60.44-67.42-208.39,7.47-162.44,87.3,62.21,108.07,115.27,48.84,165.33,149.36C912.07,168.69,1017.22,212.61,1039.93,108.52Z"/><path class="cls-1" d="M1025.48,105.61c3.26-91.9-91-111.53-151.5-44C813.54-5.86,708.79,11,712.1,102.92,737.81,211,823.92,210.5,874,311,917.26,212.79,1002.77,209.71,1025.48,105.61Z"/><g class="cls-4"><path class="cls-2" d="M804,86.91c-11.27,19.85-30.1,30.84-56.19,30.64s-27.41-42.34-18.2-56.19,29.89-26.19,46.28-21.63S815.23,67.06,804,86.91Z"/></g><path d="M414.21,292.84c1.79-50.61-61-66.8-94.23-29.64-33.19-37.13-93.15-20.33-91.34,30.31,14.13,59.54,61,69,88.49,124.32C340.89,363.73,401.74,350.17,414.21,292.84Z"/><path class="cls-5" d="M400.33,304.7c1.78-50.61-50-61.42-83.21-24.26-33.19-37.13-90.71-27.86-88.9,22.78,14.12,59.54,61.41,59.25,88.91,114.61C340.89,363.73,387.85,362,400.33,304.7Z"/><g class="cls-4"><path class="cls-2" d="M278.67,294.4c-6.18,10.93-16.52,17-30.86,16.88s-15.05-23.32-10-30.95,16.42-14.42,25.42-11.92S284.86,283.47,278.67,294.4Z"/></g><path d="M630.17,292.84c1.79-50.61-61-66.8-94.24-29.64-33.19-37.13-93.14-20.33-91.33,30.31,14.12,59.54,61,69,88.48,124.32C556.85,363.73,617.69,350.17,630.17,292.84Z"/><path class="cls-5" d="M616.28,304.7c1.79-50.61-50-61.42-83.2-24.26-33.19-37.13-90.72-27.86-88.9,22.78,14.12,59.54,61.41,59.25,88.9,114.61C556.85,363.73,603.81,362,616.28,304.7Z"/><g class="cls-4"><path class="cls-2" d="M494.63,294.4c-6.18,10.93-16.53,17-30.86,16.88s-15-23.32-10-30.95,16.42-14.42,25.42-11.92S500.82,283.47,494.63,294.4Z"/></g><path d="M861.23,288.78c1.78-50.62-61-66.81-94.24-29.64C733.8,222,673.84,238.8,675.66,289.45c14.12,59.54,61,68.95,88.48,124.31C787.91,359.66,848.75,346.11,861.23,288.78Z"/><path class="cls-5" d="M847.34,300.63c1.79-50.61-50-61.42-83.2-24.25-33.19-37.14-90.72-27.87-88.9,22.77,14.12,59.54,61.4,59.25,88.9,114.61C787.91,359.66,834.86,358,847.34,300.63Z"/><g class="cls-4"><path class="cls-2" d="M725.69,290.33c-6.19,10.94-16.53,17-30.86,16.88s-15.05-23.32-10-30.95,16.41-14.42,25.41-11.91S731.87,279.4,725.69,290.33Z"/></g></g></svg>
