<svg xmlns="http://www.w3.org/2000/svg" width="1043.62" height="644.8" viewBox="0 0 1043.62 644.8"><defs><style>.cls-1{fill:#9162af;}.cls-2{opacity:0.6;}.cls-3{fill:#fff;}.cls-4{opacity:0.6;}.cls-5{fill:#a52323;}.cls-6{fill:#050101;}.cls-7{fill:#678291;}</style></defs><g id="Layer_3" data-name="Layer 3"><rect x="86.98" y="130.39" width="908.7" height="386.51" rx="12"/><rect x="112.97" y="157.02" width="61.24" height="64.43" rx="12"/><rect x="174.21" y="228.03" width="33.98" height="35.76" rx="12"/><path d="M9.2,528.2c-24.63,88.59,37.17,134.52,90.34,78.33,19.86,74.57,111.11,32,131.8-57.6,11.14-108.72-182-85.95-103.8-156.68C100.94,416.31,48.6,430.76,9.2,528.2Z"/><path class="cls-1" d="M29.78,511.19C5.15,599.78,57.23,633.17,110.4,577c19.86,74.57,87.26,74.23,108-15.41,11.14-108.72-41-121.33-46.42-226.4C121.57,423.79,69.18,413.74,29.78,511.19Z"/><g class="cls-2"><path class="cls-3" d="M158.92,563.08c11.7-17.52,25.79-25.31,41.49-21.13s6.11,45.22-2.87,57.24S173,620,164.25,613.1,147.23,580.61,158.92,563.08Z"/></g><path d="M1043.56,113.32c3.25-91.9-113.56-145.73-174-78.25-60.44-67.43-208.4,7.47-162.45,87.29,62.22,108.08,115.27,48.85,165.34,149.36C915.69,173.5,1020.84,217.42,1043.56,113.32Z"/><path class="cls-1" d="M1029.11,110.42c3.25-91.91-91-111.53-151.5-44-60.44-67.43-165.19-50.6-161.89,41.35,25.72,108.12,111.82,107.59,161.89,208.1C920.88,217.6,1006.39,214.51,1029.11,110.42Z"/><g class="cls-4"><path class="cls-3" d="M807.59,91.71c-11.26,19.85-30.1,30.85-56.19,30.65S724,80,733.21,66.16,763.1,40,779.49,44.53,818.85,71.86,807.59,91.71Z"/></g><path class="cls-1" d="M869.07,476.89c.63-7.35-3.74-5.79-11.36-7.77-17.6-4.58-27-22.38-9.44-35,7.58-5.45,10-6.19,14.75-13.57,7.72-12-2.07-17.69-11.51-26.55-5.79-5.44-13.9-21-17-30.06-7.15-21,9.41-33.65,31.76-18.46,9.67,6.58,26.76,20.23,36.83,38.22,16.42,29.3,29.41,6.31,24.33-20.61-3.12-16.53-8.94-45.2-.76-54.28,18.92-21,34.1-9.95,39.49,9.07,2.32,8.22,6.71,25,9,31.09,2.78,7.55,6.31,15.31,11.18,14V147.53a12,12,0,0,0-12-12H108.37a12,12,0,0,0-12,12V497.27a12,12,0,0,0,12,12H857.18C863.88,498.81,868.12,488,869.07,476.89Z"/><path class="cls-5" d="M700.86,413.67c1.55-13.07,7.78-23.67,18.89-30.69a42,42,0,0,1,5.2-2.81,2.63,2.63,0,0,0,1.24-3.64c-.71-1.31-1.43-2.6-2.17-3.89l-.15-.24c-1.73-2.46-3.56-4.85-5.51-7.14a2.6,2.6,0,0,0-3.2-.6l-2.95,1.6a109.47,109.47,0,0,1-25.1,10h0a2.62,2.62,0,0,0-2,2.09c-4.65,27.24-10.18,54.55-13.28,82a2.62,2.62,0,0,0,4.7,1.84,229.34,229.34,0,0,0,15.51-23.79,1.74,1.74,0,0,0,.1-.19A132.56,132.56,0,0,0,700.37,417c0-.12,0-.24.07-.35C700.59,415.64,700.74,414.66,700.86,413.67Z"/><path class="cls-5" d="M986,220.54a23.14,23.14,0,0,1-1.17-5.5c-.12-1.56-.24-3.12-.35-4.69a5.73,5.73,0,0,0-3.58-4.94q-3.06-1.23-6.11-2.51l2.48-2.36a6.12,6.12,0,0,0-2-10.08l-1.64-.66a6.19,6.19,0,0,0-4.22-.14h0c-9.08,2.9-17,2.08-26-.22s-17.49-5.32-26.28-7.76a7.36,7.36,0,0,0-.91-.19c-1.48-.19-2.95-.34-4.44-.43a6.79,6.79,0,0,0-1.35.07,105.89,105.89,0,0,0-14.2,3.31c-21.06,7-41.44,14.67-64.13,13.8-16.76-.64-32.76-7.32-49.48-7.73a5.94,5.94,0,0,0-.73,0l-5.67.47a6.12,6.12,0,0,0-3.64,10.61l.36.32a50,50,0,0,1-19.64.65,86.85,86.85,0,0,1-16-4.33,5.72,5.72,0,0,0-7.14,8q1.8,3.24,3.79,6.39c5.58,8.82,4.33,21.49,1.35,31-3.23,10.3-11.64,18-20.94,22.85a36.55,36.55,0,0,1-16,3.71,5.74,5.74,0,0,0-5.66,6.12c0,.57.08,1.15.11,1.73a5.76,5.76,0,0,0,7.35,5.18,65.57,65.57,0,0,1,39.95.9C774,295.5,796,329.86,808.46,361.47c12.25,31,19.8,63.81,19.94,97.21,0,9.12-4.58,18.05-11.16,24.76a5.74,5.74,0,0,0-1,6.64c.09.17.17.35.26.52a101,101,0,0,1,5.69,14.58,5.75,5.75,0,0,0,5.49,4.09H854a5.74,5.74,0,0,0,4.94-2.81c5.7-9.58,9.3-19.42,10.16-29.57.63-7.35-3.74-5.79-11.35-7.77-17.61-4.58-27-22.38-9.45-35,7.58-5.45,10-6.19,14.75-13.57,7.72-12-2.07-17.69-11.51-26.55-5.79-5.44-13.9-21-17-30.06-7.15-21,9.41-33.65,31.76-18.46,9.67,6.58,26.76,20.23,36.83,38.22,16.42,29.3,29.41,6.31,24.33-20.61-3.12-16.53-8.94-45.2-.76-54.28,18.92-21,34.1-9.95,39.49,9.07,2.32,8.22,6.71,25,9,31.09a2,2,0,0,0,.08.22c2.22,6,11.1,4.38,11.1-2V222.42A6,6,0,0,0,986,220.54Z"/><path d="M509.74,297.33c1.49,1.18,6,6.13,7.17,6.23a4.83,4.83,0,0,1,2.7,1.48c5.66,5.34,10.74,13.2,7.1,15.13,0,0-7.65,8.55-15.85-6.09l-1.57-2.54C504.27,305.24,504.1,292.86,509.74,297.33Z"/><path d="M440.9,319c6.22,2.72,12.77,10.56-.75,31.94a11.73,11.73,0,0,0,3.6,16.22c3.69,2.23,9.51,3.73,18.69,3.28a5.33,5.33,0,0,1,5.39,4.06c1.39,5.6,3.26,17.07,2.63,37a1,1,0,0,0,.41.87c2.88,2.17,19.72,13.85,30.3-.73a1,1,0,0,1,1.57-.17c3.33,3.26,13.62,16.39,23.45,1.84.19-.27,2.31-3.32,2.2-3.63-.28-.78.22-.82.19-2.7a1.09,1.09,0,0,1,2-.64c2.23,3.53,5.06,8,5.13,8,2.08,1.25,19.88,10.12,24.08-8a1,1,0,0,1,1.92-.27c3.26,6.16,12.16,18.71,24.77,3.49a6.58,6.58,0,0,0,1.06-6.51c-2-5.25-5.63-15.81-6.95-25.44a.57.57,0,0,0,0-.14c-.49-1.38-8.28-23.53,5.55-18.57,0,0,31.48,11.08,20.85-11.81a1,1,0,0,0-.41-.44c-2-1.11-14.79-8.88-11.65-24.34a1.06,1.06,0,0,0-.4-1.07c-2.49-1.79-12.6-8.72-9.77-.53,3.22,9.31,7.36,22.82,12.88,27.48,0,0,13.76,14.39-8.16,6.56a1,1,0,0,0-.23-.05c-1.7-.07-21.65-.56-14.15,16.31,0,0,16.41,41.71,2.46,39.26-.35-.06-5.51,2.92-15.21-9.61a.83.83,0,0,0-1.44.19c-4.37,11.08-23.87,22.82-30-.15,0,0-2-4.38-4.73-3.67a2.75,2.75,0,0,0-1.65,3.74c1.57,3.78,4,12.91-8.2,14.47H516c-1.28-.23-11.11-2.35-14.94-14.3a1,1,0,0,0-2,0c-1.83,5.82-6.86,15.17-20.05,11.91a1.06,1.06,0,0,1-.57-.36c-.66-.85-2.22-4-2.68-14.81a.81.81,0,0,1,0-.16c.24-1.42,3.8-23-2.55-30.15,0,0-1.19-5.19-8.19-4.55l-.16,0c-1.66.5-30.51,8.81-15.84-19.16a.75.75,0,0,1,.07-.12c.61-.86,8.85-13,2.82-24.58a1,1,0,0,0-.24-.3c-.8-.71-4.85-4.19-8.74-5.54C439.27,311.9,437.32,317.44,440.9,319Z"/><path d="M601.29,202.35s33-1.74,33.47,41.4a1.73,1.73,0,0,1,0,.32c-.17.91-.8,6,4.17,17.66,0,0,16.2,32.79-28.88,31.1h-.19c-6.3-.18-72.56,10.92-59.89-45,0-.24,1.15-9,7.16-14.4a17.75,17.75,0,0,0,4.47-6.44C564.82,219,574.85,202.08,601.29,202.35Z"/><path d="M450.58,205.55c17.29,18.31,42.17,36.48,8.54,70.69a14.21,14.21,0,0,1-9.86,4.32c-16.75.31-63.33-3.43-41.17-57.34a15.79,15.79,0,0,1,4-5.73c2.93-2.67,8.68-7.36,19.21-14.28A15.71,15.71,0,0,1,450.58,205.55Z"/><path class="cls-6" d="M478.08,441.28s6.21,26.2,13.46,28.65c0,0,32.44-5.94,47.28-3.15,0,0,35.89,4.2,42.1-4.54,0,0,5.87-23.05,0-26.55,0,0-9-7.68-14.49-3.84,0,0-4.83,7.69-3.45,11.88,0,0,1.08-14.38-14.65-13,0,0-13.46-1.37-17.53,12.25,0,0,1.11-18.77-12.69-12.35,0,0-5.52-1.27-8.63,12.35,0,0-.69-19.34-18.29-13.69C491.19,429.34,476.48,435.37,478.08,441.28Z"/><path class="cls-7" d="M481,443.21s5.9,22.14,12.42,23.75c0,0,31.34-5.33,44.7-3.49,0,0,35.13,3.63,40.72-2.1,0,0,6.15-20.06.86-22.36,0,0-7.45-6.88-12.42-4.36,0,0-5.1,7.33-3.86,10.08,0,0-3.73-12.76-17.88-11.83,0,0-10.31,2.48-12.26,11.59-.29,1.38-2.64.61-3-.77-.88-3.7-5.09-12.65-12.56-10.12,0,0-6.05,2.61-6.9,10.63-.1.88-2.58,1.24-2.76.37-.78-3.81-4.23-14.63-14.49-12.22C493.61,432.38,479.57,439.32,481,443.21Z"/><path d="M488,299.69c-1.24,1.44-4.23,6.88-5.64,7.35a5.39,5.39,0,0,0-2.64,2.1c-4.2,6.14-6.18,14-.35,14.19,0,0,14.88,3.87,17-10.34,0,0,.54-2.48.55-2.51C499.66,303.84,492.66,294.24,488,299.69Z"/><path d="M637.36,176.35a1.33,1.33,0,0,1,1.16,1.42c-.16,5-3.43,29.56,13.54,33.31,0,0,8.25-.2,8.07,29.69a13.29,13.29,0,0,0,1.07,3.67c1.31,1.27,4.52,4.44,4.28,5.07,0,0-9.52,2.57-10.19-20.38a11.87,11.87,0,0,1,.45-3.35c.76-2.41,1.13-7.76-2.34-9.81,0,0-19.67-2.09-18.64-26.55C634.76,189.42,633.91,176.21,637.36,176.35Z"/><path d="M390.55,176.66a1,1,0,0,0-.74,1.27c1.16,3.33,6.25,20-8,27.19,0,0-4.52,1.11,1.76,21.18a7.87,7.87,0,0,1-.19,2.77c-.91,1.21-3.1,4.23-2.76,4.59,0,0,9-.9,4.86-16.53a6.8,6.8,0,0,0-1.08-2.13q-.15-.18-.3-.39a5.38,5.38,0,0,1,2-7.65c4.11-2.21,10.71-7.7,9.46-22.22C395.52,184.74,393.57,175.61,390.55,176.66Z"/><rect class="cls-3" x="116.04" y="161.36" width="56.35" height="56.12" rx="12"/><rect class="cls-3" x="175.91" y="230.44" width="31.27" height="31.14" rx="12"/></g></svg>
