<svg xmlns="http://www.w3.org/2000/svg" width="1043.62" height="644.8" viewBox="0 0 1043.62 644.8"><defs><style>.cls-1{fill:#9162af;}.cls-2{fill:#fff;}.cls-3{opacity:0.6;}.cls-4{opacity:0.6;}.cls-5{fill:#f22525;}</style></defs><g id="Layer_3" data-name="Layer 3"><rect x="86.98" y="130.39" width="908.7" height="386.51" rx="12"/><rect class="cls-1" x="95.83" y="136.27" width="889.92" height="373.74" rx="12"/><rect x="112.97" y="157.02" width="61.24" height="64.43" rx="12"/><rect class="cls-2" x="116.04" y="161.36" width="56.35" height="56.12" rx="12"/><rect x="174.21" y="228.03" width="33.98" height="35.76" rx="12"/><rect class="cls-2" x="175.91" y="230.44" width="31.27" height="31.14" rx="12"/><path d="M9.2,528.2c-24.63,88.59,37.17,134.52,90.34,78.33,19.86,74.57,111.11,32,131.8-57.6,11.14-108.72-182-85.95-103.8-156.68C100.94,416.31,48.6,430.76,9.2,528.2Z"/><path class="cls-1" d="M29.78,511.19C5.15,599.78,57.23,633.17,110.4,577c19.86,74.57,87.26,74.23,108-15.41,11.14-108.72-41-121.33-46.42-226.4C121.57,423.79,69.18,413.74,29.78,511.19Z"/><g class="cls-3"><path class="cls-2" d="M158.92,563.08c11.7-17.52,25.79-25.31,41.49-21.13s6.11,45.22-2.87,57.24S173,620,164.25,613.1,147.23,580.61,158.92,563.08Z"/></g><path d="M1043.56,113.32c3.25-91.9-113.56-145.73-174-78.25-60.44-67.43-208.4,7.47-162.45,87.29,62.22,108.08,115.27,48.85,165.34,149.36C915.69,173.5,1020.84,217.42,1043.56,113.32Z"/><path class="cls-1" d="M1029.11,110.42c3.25-91.91-91-111.53-151.5-44-60.44-67.43-165.19-50.6-161.89,41.35,25.72,108.12,111.82,107.59,161.89,208.1C920.88,217.6,1006.39,214.51,1029.11,110.42Z"/><g class="cls-4"><path class="cls-2" d="M807.59,91.71c-11.26,19.85-30.1,30.85-56.19,30.65S724,80,733.21,66.16,763.1,40,779.49,44.53,818.85,71.86,807.59,91.71Z"/></g><path d="M417.84,297.65c1.78-50.62-61-66.81-94.24-29.64-33.19-37.14-93.15-20.34-91.33,30.31,14.12,59.54,61,68.95,88.48,124.31C344.52,368.53,405.36,355,417.84,297.65Z"/><path class="cls-5" d="M404,309.5c1.79-50.61-50-61.42-83.2-24.25C287.56,248.11,230,257.38,231.84,308c14.13,59.54,61.41,59.25,88.91,114.61C344.52,368.53,391.47,366.83,404,309.5Z"/><g class="cls-4"><path class="cls-2" d="M282.3,299.2c-6.19,10.94-16.53,17-30.86,16.88s-15.05-23.32-10-30.95,16.41-14.42,25.41-11.91S288.48,288.27,282.3,299.2Z"/></g></g></svg>
