<svg xmlns="http://www.w3.org/2000/svg" width="344.1" height="324.77" viewBox="0 0 344.1 324.77"><defs><style>.cls-1{fill:#f22525;}.cls-2{opacity:0.6;}.cls-3{fill:#fff;}</style></defs><g id="Layer_3" data-name="Layer 3"><path d="M344,101.13c3.26-92.59-111.51-122.21-172.2-54.22C111.18-21,1.63,9.71,4.94,102.36,30.75,211.28,116.38,228.5,166.62,329.77,210.05,230.81,321.23,206,344,101.13Z"/><path class="cls-1" d="M318.65,122.82c3.26-92.59-91.34-112.36-152-44.37C106,10.51.86,27.47,4.17,120.11,30,229,116.38,228.5,166.62,329.77,210.05,230.81,295.85,227.7,318.65,122.82Z"/><g class="cls-2"><path class="cls-3" d="M96.36,104c-11.3,20-30.2,31.08-56.39,30.87S12.47,92.19,21.72,78.24s30-26.38,46.44-21.8S107.67,84,96.36,104Z"/></g></g></svg>
