<svg xmlns="http://www.w3.org/2000/svg" width="410" height="410" viewBox="0 0 410 410"><defs><style>.cls-1{fill:#aaa;}</style></defs><g id="Layer_3" data-name="Layer 3"><path d="M397.29,177.71H364.23a159.45,159.45,0,0,0-22.83-58l23.38-18.57a12.63,12.63,0,0,0,2-17.76l-19-23.62a12.8,12.8,0,0,0-17.86-2L303.6,78.68a161.23,161.23,0,0,0-70.69-31V12.64A12.71,12.71,0,0,0,220.2,0H189.8a12.71,12.71,0,0,0-12.71,12.64V47.73A161.28,161.28,0,0,0,112.84,74L86.2,45.42a12.8,12.8,0,0,0-18-.67L46,65.3a12.62,12.62,0,0,0-.68,17.86L73.12,113a159.32,159.32,0,0,0-27.46,65.38H12.71A12.71,12.71,0,0,0,0,191.05v30.23a12.71,12.71,0,0,0,12.71,12.64H45.66A159.49,159.49,0,0,0,73,299.17L45.22,321.26a12.64,12.64,0,0,0-2,17.77l19,23.61a12.79,12.79,0,0,0,17.86,2l33-26.17a161.26,161.26,0,0,0,64.08,26.14v32.76A12.71,12.71,0,0,0,189.8,410h30.4a12.71,12.71,0,0,0,12.71-12.64V364.6a161.32,161.32,0,0,0,65.26-27l25.63,27.49a12.8,12.8,0,0,0,18,.67l22.29-20.55a12.62,12.62,0,0,0,.68-17.86l-27.14-29.1a159.47,159.47,0,0,0,26.87-65.08h32.83A12.71,12.71,0,0,0,410,220.57V190.35A12.71,12.71,0,0,0,397.29,177.71Zm-192,109.18C151.21,286.89,121,258.82,121,205s29.91-81.83,84-81.83,84,28.44,84,82.26S259.47,286.89,205.34,286.89Z"/><path class="cls-1" d="M386.54,179H355.32a152.39,152.39,0,0,0-21.54-55.24l22.07-17.68a12.08,12.08,0,0,0,1.88-16.91L339.82,66.7A12,12,0,0,0,323,64.81L298.09,84.73a151.76,151.76,0,0,0-66.74-29.47V21.86a12.06,12.06,0,0,0-12-12h-28.7a12.06,12.06,0,0,0-12,12v33.4a151.64,151.64,0,0,0-60.66,25L92.84,53.07a12,12,0,0,0-17-.64L54.84,72a12.08,12.08,0,0,0-.64,17l26.29,28.43a152.73,152.73,0,0,0-25.93,62.26H23.46a12,12,0,0,0-12,12V220.5a12,12,0,0,0,12,12h31.1A152.71,152.71,0,0,0,80.4,294.66l-26.25,21a12.08,12.08,0,0,0-1.88,16.91l17.91,22.49A12,12,0,0,0,87.05,357l31.1-24.92A151.45,151.45,0,0,0,178.65,357v31.19a12.06,12.06,0,0,0,12,12h28.7a12.06,12.06,0,0,0,12-12V357A151.52,151.52,0,0,0,293,331.29l24.2,26.16a12,12,0,0,0,17,.65l21-19.57a12.09,12.09,0,0,0,.64-17l-25.62-27.7a152.61,152.61,0,0,0,25.37-62h31a12,12,0,0,0,12-12V191.05A12,12,0,0,0,386.54,179ZM205,298.22a92.78,92.78,0,1,1,92.53-92.78A92.66,92.66,0,0,1,205,298.22Z"/></g></svg>
