<svg xmlns="http://www.w3.org/2000/svg" width="1061.46" height="498.88" viewBox="0 0 1061.46 498.88"><defs><style>.cls-1{fill:#227d99;}.cls-2{fill:#cfdee2;}.cls-3{fill:#fff;}.cls-4{fill:#f9f9f9;}</style></defs><g id="Layer_3" data-name="Layer 3"><rect x="85.44" y="-1.12" width="910.62" height="390.29" rx="12"/><path d="M138.62,341.85c-18.53-32.36-50-29.58-31.27-91.89,0,0-91.13,41.1-105.12,120.37-6.76,38.34,31.89,70.48,71.23,70.48,33.5,0,71.22-31.56,71.22-70.48A69.64,69.64,0,0,0,138.62,341.85Z"/><path class="cls-1" d="M132.43,342c-17.4-30.38-49-29.13-31.46-87.63,0,0-83.47,39.94-96.6,114.37-6.35,36,29.94,66.17,66.87,66.17s66.87-29.63,66.87-66.17A65.43,65.43,0,0,0,132.43,342Z"/><path d="M48.59,329.58c-2.81-4.9-7.56-4.48-4.73-13.91,0,0-13.81,6.22-15.92,18.22-1,5.81,4.83,10.68,10.78,10.68,5.08,0,10.79-4.78,10.79-10.68A10.54,10.54,0,0,0,48.59,329.58Z"/><path class="cls-2" d="M48,329.61c-2.63-4.6-7.42-4.41-4.76-13.27,0,0-12.64,6.05-14.63,17.32-1,5.45,4.54,10,10.13,10a10.08,10.08,0,0,0,10.13-10A9.81,9.81,0,0,0,48,329.61Z"/><path d="M210.23,399.92c-18.53-32.36-50-29.58-31.27-91.89,0,0-91.13,41.1-105.12,120.36-6.76,38.35,31.89,70.49,71.23,70.49,33.5,0,71.22-31.56,71.22-70.49A69.63,69.63,0,0,0,210.23,399.92Z"/><path class="cls-1" d="M204,400.09c-17.4-30.38-49-29.13-31.46-87.63,0,0-83.47,39.94-96.6,114.37-6.35,36,29.94,66.17,66.88,66.17s66.87-29.63,66.87-66.17A65.43,65.43,0,0,0,204,400.09Z"/><path d="M120.2,387.65c-2.8-4.9-7.56-4.48-4.73-13.91,0,0-13.8,6.22-15.92,18.22-1,5.81,4.83,10.68,10.78,10.68,5.08,0,10.79-4.78,10.79-10.68A10.54,10.54,0,0,0,120.2,387.65Z"/><path class="cls-2" d="M119.6,387.68c-2.64-4.6-7.43-4.41-4.77-13.27,0,0-12.64,6-14.63,17.32-1,5.45,4.54,10,10.13,10a10.08,10.08,0,0,0,10.13-10A10,10,0,0,0,119.6,387.68Z"/><path d="M965.71,102.87c-2.07-35,16.31-39.25-17.64-94.56,0,0,65.82,19.09,103.6,91.62,18.27,35.09,9.17,74.28-12.51,83-18.46,7.39-51.22-14.38-66-51.52A117.56,117.56,0,0,1,965.71,102.87Z"/><path class="cls-1" d="M969.19,101.67c-1.94-32.83,15.95-38.61-15.92-90.54,0,0,61.15,19.68,96.62,87.78,17.16,32.94,8.61,69.73-11.74,77.89s-48.09-13.51-62-48.37A110.47,110.47,0,0,1,969.19,101.67Z"/><path d="M1010.66,71.3c-.31-5.3,2.47-6-2.67-14.32a28.46,28.46,0,0,1,15.69,13.87c2.77,5.31,1.39,11.25-1.89,12.56-2.8,1.12-7.76-2.18-10-7.8A18.1,18.1,0,0,1,1010.66,71.3Z"/><path class="cls-2" d="M1011,71.19c-.3-5,2.41-5.85-2.41-13.72a27.94,27.94,0,0,1,14.63,13.3c2.6,5,1.3,10.56-1.78,11.79s-7.28-2-9.38-7.32A16.41,16.41,0,0,1,1011,71.19Z"/><path d="M948.28,174.08c-2.07-35,16.31-39.25-17.63-94.57,0,0,65.81,19.09,103.59,91.62,18.28,35.09,9.17,74.28-12.51,83-18.46,7.4-51.21-14.38-66-51.51A117.37,117.37,0,0,1,948.28,174.08Z"/><path class="cls-1" d="M951.76,172.87c-1.94-32.82,16-38.61-15.91-90.54,0,0,61.14,19.68,96.61,87.78,17.16,32.94,8.61,69.74-11.74,77.89s-48.08-13.5-62-48.37A110.23,110.23,0,0,1,951.76,172.87Z"/><path d="M993.24,142.5c-.32-5.29,2.47-5.94-2.67-14.32a28.46,28.46,0,0,1,15.68,13.87c2.77,5.32,1.39,11.25-1.89,12.57-2.8,1.12-7.76-2.18-10-7.8A17.27,17.27,0,0,1,993.24,142.5Z"/><path class="cls-2" d="M993.58,142.39c-.29-5,2.42-5.85-2.41-13.71A27.9,27.9,0,0,1,1005.8,142c2.6,5,1.31,10.56-1.78,11.8s-7.28-2.05-9.38-7.33A17.22,17.22,0,0,1,993.58,142.39Z"/><rect class="cls-1" x="94.31" y="4.81" width="891.8" height="377.39" rx="12"/><rect x="111.49" y="25.76" width="61.37" height="65.06" rx="12"/><rect class="cls-3" x="114.56" y="30.15" width="56.47" height="56.67" rx="12"/><rect x="172.85" y="97.47" width="34.06" height="36.11" rx="12"/><rect class="cls-3" x="174.56" y="99.9" width="31.33" height="31.45" rx="12"/><path class="cls-4" d="M399.81,305.83q-26.42,0-43.14-13.08T340,252.61V218.52h47.62v19.65a94.84,94.84,0,0,0,.72,11.84,20.16,20.16,0,0,0,3.32,9.37q2.59,3.64,8.2,3.64,7.41,0,9.75-5t2.35-12.81v-45a84.55,84.55,0,0,0-.72-11.06A20.81,20.81,0,0,0,408,180q-2.47-3.64-7.93-3.64-13,0-13,18.86H345V73.45H454.19v42.93h-65.7v32.27a30.76,30.76,0,0,1,9.17-7.35,27.81,27.81,0,0,1,13.6-3.19q15.6,0,25.43,6a39.61,39.61,0,0,1,15.1,16.65,81.9,81.9,0,0,1,7.28,24.72,212.11,212.11,0,0,1,2,30.19,292.76,292.76,0,0,1-2.15,37.28q-2.15,16.59-8.46,28.43A42.66,42.66,0,0,1,432,299.52Q419.85,305.82,399.81,305.83Z"/><path class="cls-4" d="M469.42,302.58,522.76,72.67h47.36L516.65,302.58Z"/><path class="cls-4" d="M605.25,302.58V126.14a33,33,0,0,1-12.88,9,40,40,0,0,1-15.48,3.45V102.07a59.76,59.76,0,0,0,14.83-4.49,55.5,55.5,0,0,0,14.77-9.5A40.38,40.38,0,0,0,617,73.45h36.82V302.58Z"/><path class="cls-4" d="M727.56,304.66q-29,0-44.82-16.27t-15.81-46.84V138.24q0-32.27,15-49.51t45.6-17.24q30.71,0,45.67,17.24t15,49.51V241.55q0,30.58-15.74,46.84T727.56,304.66Zm0-42.16a9.33,9.33,0,0,0,8.33-4.81,20.08,20.08,0,0,0,3-10.8V133.82a50.5,50.5,0,0,0-1.76-14.12q-1.75-6-9.56-6t-9.56,6a50.87,50.87,0,0,0-1.76,14.12V246.89a19.71,19.71,0,0,0,3.06,10.8A9.37,9.37,0,0,0,727.56,262.5Z"/></g></svg>
