<svg xmlns="http://www.w3.org/2000/svg" width="1060" height="500" viewBox="0 0 1060 500"><defs><style>.cls-1{fill:#227d99;}.cls-2{fill:#cfdee2;}.cls-3{fill:#fff;}</style></defs><g id="Layer_3" data-name="Layer 3"><rect x="83.98" width="910.62" height="390.29" rx="12"/><path d="M137.16,343c-18.53-32.36-50-29.58-31.27-91.88,0,0-91.13,41.09-105.11,120.36C-6,409.8,32.66,441.93,72,441.93c33.5,0,71.22-31.55,71.22-70.48A69.52,69.52,0,0,0,137.16,343Z"/><path class="cls-1" d="M131,343.15c-17.4-30.39-49-29.13-31.46-87.63,0,0-83.47,39.94-96.59,114.36-6.35,36,29.93,66.17,66.87,66.17s66.87-29.62,66.87-66.17A65.39,65.39,0,0,0,131,343.15Z"/><path d="M47.13,330.71c-2.8-4.9-7.56-4.48-4.73-13.92,0,0-13.8,6.23-15.92,18.23-1,5.81,4.83,10.67,10.78,10.67,5.08,0,10.79-4.78,10.79-10.67A10.51,10.51,0,0,0,47.13,330.71Z"/><path class="cls-2" d="M46.53,330.73c-2.64-4.6-7.43-4.41-4.77-13.27,0,0-12.64,6.05-14.63,17.32-1,5.45,4.54,10,10.13,10a10.07,10.07,0,0,0,10.13-10A10,10,0,0,0,46.53,330.73Z"/><path d="M208.77,401c-18.53-32.36-50-29.58-31.27-91.89,0,0-91.13,41.1-105.11,120.37C65.62,467.86,104.27,500,143.61,500c33.5,0,71.22-31.56,71.22-70.48A69.48,69.48,0,0,0,208.77,401Z"/><path class="cls-1" d="M202.58,401.21c-17.4-30.38-49-29.13-31.46-87.63,0,0-83.47,39.95-96.59,114.37-6.35,36,29.94,66.17,66.87,66.17S208.27,464.5,208.27,428A65.47,65.47,0,0,0,202.58,401.21Z"/><path d="M118.74,388.78c-2.8-4.9-7.56-4.48-4.73-13.92,0,0-13.8,6.22-15.92,18.23-1,5.81,4.83,10.67,10.79,10.67,5.07,0,10.78-4.78,10.78-10.67A10.47,10.47,0,0,0,118.74,388.78Z"/><path class="cls-2" d="M118.14,388.8c-2.64-4.6-7.42-4.41-4.77-13.27,0,0-12.64,6.05-14.62,17.32-1,5.45,4.53,10,10.12,10a10.07,10.07,0,0,0,10.13-10A10,10,0,0,0,118.14,388.8Z"/><path d="M964.25,104c-2.07-35,16.31-39.25-17.63-94.57,0,0,65.81,19.09,103.59,91.62,18.27,35.09,9.17,74.28-12.51,83-18.46,7.4-51.21-14.38-66-51.51A117.37,117.37,0,0,1,964.25,104Z"/><path class="cls-1" d="M967.73,102.79C965.79,70,983.68,64.18,951.82,12.25c0,0,61.14,19.68,96.61,87.78,17.16,32.94,8.61,69.74-11.74,77.89s-48.09-13.5-62-48.37A110.23,110.23,0,0,1,967.73,102.79Z"/><path d="M1009.21,72.42c-.32-5.29,2.47-5.94-2.67-14.32A28.46,28.46,0,0,1,1022.22,72c2.77,5.32,1.39,11.25-1.89,12.57-2.8,1.12-7.76-2.18-10-7.8A17.27,17.27,0,0,1,1009.21,72.42Z"/><path class="cls-2" d="M1009.55,72.31c-.29-5,2.42-5.85-2.41-13.71a27.9,27.9,0,0,1,14.63,13.29c2.6,5,1.31,10.56-1.78,11.8s-7.28-2-9.38-7.33A16.3,16.3,0,0,1,1009.55,72.31Z"/><path d="M946.82,175.2c-2.06-35,16.31-39.25-17.63-94.56,0,0,65.81,19.09,103.59,91.62,18.28,35.09,9.17,74.28-12.5,83-18.46,7.39-51.22-14.38-66-51.52A117.14,117.14,0,0,1,946.82,175.2Z"/><path class="cls-1" d="M950.3,174c-1.94-32.83,16-38.61-15.91-90.54,0,0,61.15,19.68,96.62,87.78,17.16,32.94,8.61,69.73-11.74,77.89s-48.09-13.51-62-48.37A110.47,110.47,0,0,1,950.3,174Z"/><path d="M991.78,143.62c-.31-5.29,2.47-5.94-2.67-14.32a28.54,28.54,0,0,1,15.69,13.88c2.76,5.31,1.38,11.25-1.9,12.56-2.79,1.12-7.75-2.18-10-7.8A17.6,17.6,0,0,1,991.78,143.62Z"/><path class="cls-2" d="M992.12,143.52c-.29-5,2.42-5.85-2.41-13.72a27.89,27.89,0,0,1,14.63,13.3c2.6,5,1.31,10.56-1.77,11.79s-7.29-2-9.39-7.32A17.35,17.35,0,0,1,992.12,143.52Z"/><rect class="cls-1" x="92.85" y="5.94" width="891.8" height="377.39" rx="12"/><rect x="110.03" y="26.89" width="61.37" height="65.06" rx="12"/><rect class="cls-3" x="113.1" y="31.28" width="56.47" height="56.67" rx="12"/><rect x="171.4" y="98.59" width="34.06" height="36.11" rx="12"/><rect class="cls-3" x="173.1" y="101.03" width="31.33" height="31.45" rx="12"/></g></svg>
