<svg xmlns="http://www.w3.org/2000/svg" xmlns:xlink="http://www.w3.org/1999/xlink" width="550" height="465.36" viewBox="0 0 550 465.36"><defs><style>.cls-1{fill:none;}.cls-2{fill:#d2dbaf;}.cls-3{clip-path:url(#clip-path);}.cls-4{fill:#fffdfd;}</style><clipPath id="clip-path"><rect class="cls-1" x="67.01" y="609.84" width="1937.2" height="1089.68"/></clipPath></defs><g id="Layer_3" data-name="Layer 3"><path d="M437.6,127.7,301.43,27.32a24.91,24.91,0,0,0-28.84,0L136.43,127.7,31.9,204.76c-15.76,11.62-6.28,34,14.42,34h0c12.28,0,22.24,8.63,22.24,19.28V446.08c0,10.65,10,19.28,22.25,19.28h137c12.28,0,22.24-8.63,22.24-19.28V379c0-10.65,10-19.28,22.25-19.28h29.34c12.29,0,22.25,8.63,22.25,19.28v67.09c0,10.65,10,19.28,22.25,19.28h137c12.29,0,22.25-8.63,22.25-19.28V258c0-10.65,10-19.27,22.25-19.27h0c20.69,0,30.18-22.34,14.42-34Zm-275,230.64H145.79c-12.28,0-22.24-8.63-22.24-19.27v-15c0-10.65,10-19.28,22.24-19.28h16.77c12.29,0,22.25,8.63,22.25,19.28v15C184.81,349.71,174.85,358.34,162.56,358.34Z"/><path class="cls-2" d="M413.57,105,277.41,4.6a24.91,24.91,0,0,0-28.84,0L112.4,105,7.87,182c-15.76,11.62-6.27,34,14.42,34h0c12.29,0,22.25,8.63,22.25,19.27v188.1c0,10.64,10,19.27,22.25,19.27h137c12.29,0,22.25-8.63,22.25-19.27v-67.1c0-10.64,10-19.27,22.25-19.27h29.34c12.28,0,22.25,8.63,22.25,19.27v67.1c0,10.64,10,19.27,22.24,19.27h137c12.29,0,22.25-8.63,22.25-19.27V235.26c0-10.64,10-19.27,22.24-19.27h0c20.7,0,30.18-22.33,14.42-34Zm-275,230.64H121.77c-12.29,0-22.25-8.63-22.25-19.28v-15c0-10.64,10-19.27,22.25-19.27h16.77c12.29,0,22.25,8.63,22.25,19.27v15C160.79,327,150.83,335.62,138.54,335.62Z"/><g class="cls-3"><path d="M286.88,565.47c-5.6-14.58-21.39-24.35-51.14-31.91,13.12-28.1-26.74-82.15-30.38-64.48,22.43-108.86-57.88-120.22-94.05-120.22-65.11,0-59.48,61.4-91,60.05-40-1.72-82.66,14.27-89.9,59.08,2.11-13.07-140.35,38.25-107.07,99.45-38-70-146.13-3.28-146.13-3.28-51.47-25.29-81-36.06-166.39-1.09-24.52,10-40.4,44.91-37.62,64.48-35.57,17.71-43.5,48.05-30.39,79.79,28.22,68.3,45.94-4.43,72.35,73.77-73.81,60,96.21,107.65,106,94.7,12.12-16,59.59,28.94,103,20.05,28-1,41.3-17.7,61.49-23,9.73-2.52,92.71-26,66.56-37.7,83.2,37.16,131.08-2.72,168.56-61.75,22,1.14,35.49-23.47,48.47-13.66,43.41,32.78,147.61,4.11,144-63.94-15.27-58.84,38,8.11,74.07-110.06A31,31,0,0,0,286.88,565.47Z"/><path class="cls-4" d="M280.27,584.73c0-19.17-23.36-35.79-57.52-44a40.93,40.93,0,0,0,3.81-17.14c0-20.37-15.37-38-37.82-46.71a74.39,74.39,0,0,0,14.93-44.59c0-43.25-37.58-78.31-83.95-78.31C77,354,41.79,383.68,36.47,422.14A72.19,72.19,0,0,0,8.3,416.46a71.92,71.92,0,0,0-71,59.52,71.79,71.79,0,0,0-17.57-2.19c-48.9,0-88.55,49.67-88.55,110.94,0,1.09,0,2.17,0,3.24l-.79-.11c-10.87-24.62-41.63-42.36-77.87-42.36-32.06,0-59.83,13.88-73.33,34.13C-340.43,562.89-372,552-407.69,552c-59.65,0-108,30.38-108,67.85a43.68,43.68,0,0,0,1.49,11.24c-20.53,9.31-34.75,29.41-34.75,52.72,0,32.16,27.08,58.24,60.48,58.24,2.18,0,4.33-.12,6.45-.33a39.13,39.13,0,0,0-.29,4.73c0,11.52,5,22.31,13.82,31.58-12.52,8.75-20,19.76-20,31.73,0,28.47,42.26,51.55,94.38,51.55a158.66,158.66,0,0,0,46.3-6.62c9.63,19.86,34.88,34,64.51,34,26.3,0,49.13-11.17,60.67-27.57,1.79.1,3.6.16,5.42.16,30.87,0,57.42-13.9,69.33-33.86a100,100,0,0,0,57.35,18.2c46.79,0,86.54-32.82,101-78.5,1.92.12,3.86.19,5.81.19a88.06,88.06,0,0,0,51.29-16,90.78,90.78,0,0,0,52.14,16c46.27,0,83.78-33,83.78-73.75a65.78,65.78,0,0,0-4.74-24.48c37.57-8.91,63.45-27.62,63.45-49.26a27.43,27.43,0,0,0-.9-6.92C273.26,605,280.27,595.23,280.27,584.73Z"/></g></g></svg>
