<svg xmlns="http://www.w3.org/2000/svg" width="292.96" height="394.48" viewBox="0 0 292.96 394.48"><defs><style>.cls-1{fill:#227d99;}.cls-2{fill:#cfdee2;}</style></defs><g id="Layer_3" data-name="Layer 3"><path d="M280.69,192.26c-37.52-66.13-101.16-60.45-63.31-187.78,0,0-184.54,84-212.85,246-13.7,78.36,64.56,144,144.21,144,67.83,0,144.22-64.48,144.22-144A143.37,143.37,0,0,0,280.69,192.26Z"/><path class="cls-1" d="M268.15,192.61c-35.23-62.09-99.24-59.53-63.71-179.07,0,0-169,81.62-195.58,233.71C-4,320.82,69.48,382.48,144.26,382.48s135.4-60.55,135.4-135.23A134.58,134.58,0,0,0,268.15,192.61Z"/><path d="M98.39,167.19c-5.68-10-15.32-9.15-9.58-28.43,0,0-27.95,12.71-32.24,37.24-2.07,11.87,9.78,21.82,21.84,21.82,10.27,0,21.84-9.77,21.84-21.82A21.63,21.63,0,0,0,98.39,167.19Z"/><path class="cls-2" d="M97.16,167.25c-5.33-9.41-15-9-9.64-27.12,0,0-25.59,12.36-29.62,35.39C56,186.66,67.08,196,78.4,196a20.49,20.49,0,0,0,20.51-20.48A20.19,20.19,0,0,0,97.16,167.25Z"/></g></svg>
